/* XPM */
static char *abort_recursive_edit[] = {
/* columns rows colors chars-per-pixel */
"55 55 169 2 ",
"   c None",
".  c #191919",
"X  c gray10",
"o  c #1D1D1D",
"O  c #1E1E1E",
"+  c gray12",
"@  c #202020",
"#  c gray13",
"$  c #222222",
"%  c #232323",
"&  c gray14",
"*  c #252525",
"=  c gray15",
"-  c #272727",
";  c #282828",
":  c gray16",
">  c #2A2A2A",
",  c gray17",
"<  c #2C2C2C",
"1  c #2D2D2D",
"2  c gray18",
"3  c #2F2F2F",
"4  c gray19",
"5  c #313131",
"6  c #323232",
"7  c gray20",
"8  c #343434",
"9  c #353535",
"0  c gray21",
"q  c #373737",
"w  c gray22",
"e  c #393939",
"r  c #3A3A3A",
"t  c gray23",
"y  c #3C3C3C",
"u  c gray24",
"i  c #3E3E3E",
"p  c #3F3F3F",
"a  c gray25",
"s  c #414141",
"d  c #434343",
"f  c #444444",
"g  c gray27",
"h  c #464646",
"j  c gray28",
"k  c #484848",
"l  c #494949",
"z  c gray29",
"x  c #4C4C4C",
"c  c gray30",
"v  c gray31",
"b  c #505050",
"n  c #515151",
"m  c gray33",
"M  c #565656",
"N  c gray34",
"B  c #585858",
"V  c gray35",
"C  c #5A5A5A",
"Z  c #5B5B5B",
"A  c gray36",
"S  c #5D5D5D",
"D  c gray37",
"F  c #5F5F5F",
"G  c #626262",
"H  c #656565",
"J  c gray40",
"K  c #676767",
"L  c DimGray",
"P  c gray42",
"I  c #6D6D6D",
"U  c #727272",
"Y  c gray45",
"T  c #747474",
"R  c gray46",
"E  c #777777",
"W  c gray47",
"Q  c #797979",
"!  c gray48",
"~  c #7C7C7C",
"^  c gray49",
"/  c gray50",
"(  c #848484",
")  c gray53",
"_  c #888888",
"`  c #898989",
"'  c gray54",
"]  c #8E8E8E",
"[  c gray56",
"{  c gray57",
"}  c gray58",
"|  c gray59",
" . c #979797",
".. c #989898",
"X. c #9A9A9A",
"o. c gray61",
"O. c #9D9D9D",
"+. c gray62",
"@. c #9F9F9F",
"#. c gray64",
"$. c #A4A4A4",
"%. c #A5A5A5",
"&. c gray65",
"*. c #A7A7A7",
"=. c gray66",
"-. c #A9A9A9",
";. c #ACACAC",
":. c #AEAEAE",
">. c gray69",
",. c #B1B1B1",
"<. c #B2B2B2",
"1. c gray70",
"2. c #B4B4B4",
"3. c #B6B6B6",
"4. c #B7B7B7",
"5. c gray72",
"6. c gray73",
"7. c #BBBBBB",
"8. c gray",
"9. c #C0C0C0",
"0. c gray77",
"q. c #C5C5C5",
"w. c gray78",
"e. c gray79",
"r. c #CBCBCB",
"t. c gray80",
"y. c #CDCDCD",
"u. c #CECECE",
"i. c gray81",
"p. c #D2D2D2",
"a. c LightGray",
"s. c gray83",
"d. c #D5D5D5",
"f. c gray84",
"g. c #D8D8D8",
"h. c gray85",
"j. c #DADADA",
"k. c gray86",
"l. c gainsboro",
"z. c #E1E1E1",
"x. c #E2E2E2",
"c. c gray89",
"v. c #E4E4E4",
"b. c gray90",
"n. c #E6E6E6",
"m. c #E7E7E7",
"M. c gray91",
"N. c #E9E9E9",
"B. c #EAEAEA",
"V. c gray92",
"C. c #ECECEC",
"Z. c gray93",
"A. c #EEEEEE",
"S. c #EFEFEF",
"D. c gray94",
"F. c #F1F1F1",
"G. c gray95",
"H. c #F3F3F3",
"J. c #F4F4F4",
"K. c gray96",
"L. c #F6F6F6",
"P. c gray97",
"I. c #F8F8F8",
"U. c #F9F9F9",
"Y. c gray98",
"T. c #FBFBFB",
"R. c gray99",
"E. c #FDFDFD",
"W. c #FEFEFE",
/* pixels */
"                                                                                                              ",
"                                                                                                              ",
"                                                                                                              ",
"                                                                                                              ",
"                                                                                                              ",
"                                                                                                              ",
"                                                                                                              ",
"                                                                                                              ",
"                                                                                                              ",
"                                      i.) n n n n n n n n n n n n F  .h.                                      ",
"                                  n.U * * * * * * * * * * * * * * * * q ) L.                                  ",
"                                M.F * * * * * * * * * * * * * * * * * * * U L.                                ",
"                              L.P * * * z ) +.+.+.+.+.+.+.+.+.+.+.~ t * * * ) T.                              ",
"                            L.~ * * * F n.                          f.z * * *  .T.                            ",
"                          T.] * * * n M.                              i.t * * ; ;.T.                          ",
"                        T.+.; * * j f.                                T.8.q * * q 8.T.                        ",
"                      T.&.; * * j i.T.                                  T.,.q * * t 9.T.                      ",
"                    T.,.q * * t 9.T.                L.M.T.                T.;.; * * j i.T.                    ",
"                  T.9.t * * q ,.T.                L. .K ,.T.                T.+.; * * z h.T.                  ",
"                  f.j * * ; &.T.                  i.* X q M.                  L.] * * * F n.                  ",
"                L.F * * ;  .T.                    8.* * ; n.                    L.~ * * * ~ T.                ",
"                ,.* * * ] T.                      9.* * q n.                      M.U * * q h.                ",
"                U * * t n.                        i.* * q M.                      T.i.; * * ,.                ",
"                K * * n L.                        i.* * t M.                        n.t * * +.                ",
"                K * * F L.                        f.; * t M.                        n.t * * +.                ",
"                K * * F L.                        h.* * j L.                        n.t * * +.                ",
"                K * X n L.                        h.; * j L.                        n.t * * +.                ",
"                K * X n L.                        n.; * z T.                        n.t * * +.                ",
"                K * * n L.                        n.q X z T.                        n.t * * +.                ",
"                K * * n L.                        M.t X F T.                        n.t * * +.                ",
"                K * * n L.                        T.] F &.                          n.t * * +.                ",
"                K * * n L.                          M.f.L.                          n.t * * +.                ",
"                P * * z M.                          M.h.L.                        T.h.q * * ;.                ",
"                ;.* * * +.T.                      f.F j P M.                      L.~ * * ; f.                ",
"                M.z * * t ;.T.                     .X * * 8.                    T. .; * * K L.                ",
"                T.8.t * * j 8.T.                  ;.* X ; i.                  T.&.q * * z i.                  ",
"                  L.;.q * * z 9.T.                M.+.U ;.L.                T.,.t * * t 8.T.                  ",
"                    L.+.; * * n f.T.                L.n.L.                T.8.j * * q ,.L.                    ",
"                      M.] ; * * F h.T.                                  T.i.z * * q &.L.                      ",
"                        L.] * * * F n.                                T.i.j * * ; &.T.                        ",
"                          L.~ * * * K L.                              h.z * * *  .L.                          ",
"                            M.P * * * U L.                          n.F * * * ) L.                            ",
"                              n.F * * ; F +.,.,.,.,.8.,.8.8.,.,.,.+.n * * * U M.                              ",
"                              T.h.n * * * ; ; ; ; ; q q q q ; ; ; ; * * * K n.                                ",
"                                T.f.F * * * * * * * * * * * * * * * * ; U n.T.                                ",
"                                  T.L.,.F q ; ; ; ; ; ; ; ; ; ; ; q P 9.L.                                    ",
"                                      T.T.T.T.T.T.T.T.T.T.T.T.T.T.T.T.T.                                      ",
"                                                                                                              ",
"                                                                                                              ",
"                                                                                                              ",
"                                                                                                              ",
"                                                                                                              ",
"                                                                                                              ",
"                                                                                                              ",
"                                                                                                              "
};
