/* XPM */
static char *bounce_point[] = {
/* columns rows colors chars-per-pixel */
"55 55 206 2 ",
"   c None",
".  c #1E1E1E",
"X  c #202020",
"o  c gray13",
"O  c #222222",
"+  c #232323",
"@  c gray14",
"#  c #252525",
"$  c gray15",
"%  c #272727",
"&  c #282828",
"*  c gray16",
"=  c #2A2A2A",
"-  c gray17",
";  c #2C2C2C",
":  c #2D2D2D",
">  c gray18",
",  c #2F2F2F",
"<  c gray19",
"1  c #313131",
"2  c #323232",
"3  c gray20",
"4  c #343434",
"5  c #353535",
"6  c gray21",
"7  c #373737",
"8  c gray22",
"9  c #3A3A3A",
"0  c gray23",
"q  c #3C3C3C",
"w  c gray24",
"e  c #3E3E3E",
"r  c #3F3F3F",
"t  c gray25",
"y  c #414141",
"u  c gray26",
"i  c #434343",
"p  c #444444",
"a  c gray27",
"s  c #464646",
"d  c gray28",
"f  c #484848",
"g  c #494949",
"h  c gray29",
"j  c #4B4B4B",
"k  c #4C4C4C",
"l  c gray30",
"z  c gray31",
"x  c #515151",
"c  c gray32",
"v  c #535353",
"b  c gray33",
"n  c #555555",
"m  c #565656",
"M  c gray34",
"N  c gray35",
"B  c #5A5A5A",
"V  c #5B5B5B",
"C  c gray36",
"Z  c #5D5D5D",
"A  c gray37",
"S  c #5F5F5F",
"D  c #606060",
"F  c gray38",
"G  c gray39",
"H  c #646464",
"J  c #656565",
"K  c gray40",
"L  c #676767",
"P  c #686868",
"I  c DimGray",
"U  c #6A6A6A",
"Y  c gray42",
"T  c #6C6C6C",
"R  c #6D6D6D",
"E  c #6F6F6F",
"W  c gray44",
"Q  c #717171",
"!  c #727272",
"~  c gray46",
"^  c #767676",
"/  c #777777",
"(  c gray47",
")  c #797979",
"_  c gray48",
"`  c #7B7B7B",
"'  c #7C7C7C",
"]  c gray49",
"[  c #7E7E7E",
"{  c #808080",
"}  c #818181",
"|  c gray51",
" . c #848484",
".. c gray52",
"X. c #868686",
"o. c gray53",
"O. c #888888",
"+. c #898989",
"@. c gray54",
"#. c #8B8B8B",
"$. c gray55",
"%. c #8D8D8D",
"&. c #8E8E8E",
"*. c gray56",
"=. c #909090",
"-. c gray57",
";. c #929292",
":. c #939393",
">. c gray58",
",. c #959595",
"<. c #979797",
"1. c #989898",
"2. c gray60",
"3. c #9A9A9A",
"4. c gray61",
"5. c #9D9D9D",
"6. c gray62",
"7. c #9F9F9F",
"8. c #A0A0A0",
"9. c gray63",
"0. c #A2A2A2",
"q. c gray64",
"w. c #A5A5A5",
"e. c gray65",
"r. c #A7A7A7",
"t. c gray66",
"y. c #A9A9A9",
"u. c #AAAAAA",
"i. c #ACACAC",
"p. c gray68",
"a. c #AEAEAE",
"s. c #AFAFAF",
"d. c gray69",
"f. c #B1B1B1",
"g. c #B2B2B2",
"h. c gray70",
"j. c #B4B4B4",
"k. c gray71",
"l. c #B6B6B6",
"z. c #B7B7B7",
"x. c gray72",
"c. c #B9B9B9",
"v. c gray73",
"b. c #BBBBBB",
"n. c #BCBCBC",
"m. c gray74",
"M. c gray",
"N. c #C0C0C0",
"B. c #C1C1C1",
"V. c gray76",
"C. c #C3C3C3",
"Z. c gray77",
"A. c #C5C5C5",
"S. c #C6C6C6",
"D. c #C8C8C8",
"F. c gray79",
"G. c #CACACA",
"H. c #CBCBCB",
"J. c gray80",
"K. c #CDCDCD",
"L. c #CECECE",
"P. c gray81",
"I. c #D0D0D0",
"U. c gray82",
"Y. c #D2D2D2",
"T. c gray83",
"R. c #D5D5D5",
"E. c gray84",
"W. c #D7D7D7",
"Q. c #D8D8D8",
"!. c gray85",
"~. c #DADADA",
"^. c gray86",
"/. c gainsboro",
"(. c #DDDDDD",
"). c #DFDFDF",
"_. c gray88",
"`. c #E1E1E1",
"'. c gray89",
"]. c #E4E4E4",
"[. c gray90",
"{. c #E6E6E6",
"}. c #E7E7E7",
"|. c gray91",
" X c #E9E9E9",
".X c #EAEAEA",
"XX c gray92",
"oX c #ECECEC",
"OX c gray93",
"+X c #EEEEEE",
"@X c #EFEFEF",
"#X c gray94",
"$X c #F1F1F1",
"%X c gray95",
"&X c #F3F3F3",
"*X c #F4F4F4",
"=X c gray96",
"-X c #F6F6F6",
";X c gray97",
":X c #F8F8F8",
">X c #F9F9F9",
",X c gray98",
"<X c #FBFBFB",
"1X c gray99",
"2X c #FDFDFD",
"3X c #FEFEFE",
/* pixels */
"                                                                                                              ",
"                                                                                                              ",
"                                                                                                              ",
"                                                                                                              ",
"                                                                                                              ",
"                                                                                                              ",
"                                                                                                              ",
"                                                                                                              ",
"                                                                                                              ",
"                                                                                                              ",
"                                                                                                              ",
"                                                                                                              ",
"                                                                                                              ",
"                              >X>X%X%X%X>X                          >X%X%X%X>X>X                              ",
"                            >X_.w.b 7 T H.%X>X                  >X Xp.S 7 D d._.>X                            ",
"                          %Xc.b + + * + 9 #._.>X              >XR.( * + * + * T H.>X                          ",
"                        %Xw.9 * D ,.w.#.d * ! R.>X          >XC.S * S #.w.#.b * f c.%X                        ",
"                      >Xc.d *  .).    >Xd.b *  . X        >X).T * D ).>X  >XR.T * S R.>X                      ",
"                      ).T + T _.        >Xp.d d d.>X      %X3.7 b C.          R.S + #. X                      ",
"                    >Xd.7 d C.             X .* ( _.      R.S 7 3.%X            w.7 d H.>X                    ",
"                    _.( * ( %X              c.d f c.>X  >Xw.9 S H.              _.D * 3.%X                    ",
"                    R.f 9 d.                _.! 7 3.%X   X .* #.%X              >X,.* T _.                    ",
"                  >Xc.7 b ).                >X,.7 ( _.  R.S 9 p.>X                C.d d R.>X                  ",
"                  >X3.* T  X X X%X>X          d.9 S R.  c.f b C. X X%X>X          _.b 7 c.>X                  ",
"                  %X( * T d.#.#.w.R.%X        C.f f C.>Xp.9 b 3.3.#.w.R.%X        %XT * w.>X                  ",
"                   Xb + 9 f f + * S C.>X      R.S d d.>Xw.7 7 f f 7 + b C.%X      >X( * ,.%X                  ",
"                   X7 + 7 ,.C.f + + T  X      R.D 9 p.>X3.7 + ! C.( + . D ).         .*  .%X                  ",
"                  _.* + 7  .3.9 + + 9 c.      ).D 9 p.%X,.* + T w.S + + 7 c.>X       .*  .%X                  ",
"                  _.7 + * 7 9 * + + 9 p.      ).D 9 p.>X,.7 + 7 9 * + + * d.>X       .*  .%X                  ",
"                   Xf + + + + + + + d C.      R.S d d.>X3.7 + + + + + + 7 c.>X    >X( * ,.%X                  ",
"                  %X! + + + + + + * D _.      C.b f c.>Xp.9 + + + + + + D ).>X    %XT * w.>X                  ",
"                  >X,.+ * 7 + + * b d.>X      d.d S H.  c.d + * * + * f d.%X      _.S * d.>X                  ",
"                  >Xd.* 9  .( ! #.C.%X      >X3.7 ! _.  H.S 7 T  .! #.c.%X        H.d 9 H.>X                  ",
"                  >XH.d 9 d._._.%X          _.( 7 ,.%X  _.! 7 ,._._.%X>X        >X3.7 S ).                    ",
"                    _.T * #.>X              C.b d d.>X  %X3.7 T ).              %XT * ,. X                    ",
"                    %Xp.* b R.            %X,.7 T ).      C.b 9 p.>X            c.d 9 C.>X                    ",
"                    >XR.S 7 #.%X        >Xc.b 9 w.%X       X#.7 D R.          _.T * ( _.                      ",
"                      %Xp.7 d w. X    >XH.T * ! ).        >XH.S 7 ( _.>X    _.#.7 d C.>X                      ",
"                        %Xw.7 * D 3.w.#.d * T R.>X          >XC.S * S ,.w.#.b * f c.%X                        ",
"                        >X Xw.f * 7 7 * 7 ( R.>X              %XC.T * 7 7 * * S c.%X                          ",
"                          >X%XH.#.f * S d._.>X                  %X).3.f * b 3.R.%X                            ",
"                              >X%X_._. X>X                        >X%X_.). X%X>X                              ",
"                                                                                                              ",
"                                                                                                              ",
"                                                                                                              ",
"                                                                                                              ",
"                                                                                                              ",
"                                                                                                              ",
"                                                                                                              ",
"                                                                                                              ",
"                                                                                                              ",
"                                                                                                              ",
"                                                                                                              ",
"                                                                                                              ",
"                                                                                                              "
};
