/* XPM */
static char *conditional_breakpoint[] = {
/* columns rows colors chars-per-pixel */
"55 55 184 2 ",
"   c None",
".  c #1D1D1D",
"X  c #1E1E1E",
"o  c gray12",
"O  c #202020",
"+  c gray13",
"@  c #222222",
"#  c #232323",
"$  c gray14",
"%  c #252525",
"&  c gray15",
"*  c #272727",
"=  c #282828",
"-  c gray16",
";  c #2A2A2A",
":  c gray17",
">  c #2C2C2C",
",  c #2D2D2D",
"<  c gray18",
"1  c #2F2F2F",
"2  c gray19",
"3  c #313131",
"4  c #323232",
"5  c gray20",
"6  c #343434",
"7  c #353535",
"8  c gray21",
"9  c #373737",
"0  c gray22",
"q  c #393939",
"w  c #3A3A3A",
"e  c gray23",
"r  c #3C3C3C",
"t  c gray24",
"y  c #3E3E3E",
"u  c #3F3F3F",
"i  c gray25",
"p  c #434343",
"a  c #444444",
"s  c #464646",
"d  c gray28",
"f  c #484848",
"g  c #494949",
"h  c gray29",
"j  c #4B4B4B",
"k  c #4C4C4C",
"l  c gray30",
"z  c #4E4E4E",
"x  c gray31",
"c  c #505050",
"v  c gray32",
"b  c gray33",
"n  c #555555",
"m  c gray34",
"M  c #585858",
"N  c #5B5B5B",
"B  c #5D5D5D",
"V  c gray37",
"C  c gray38",
"Z  c gray39",
"A  c #656565",
"S  c gray40",
"D  c #676767",
"F  c DimGray",
"G  c #6A6A6A",
"H  c gray42",
"J  c #6C6C6C",
"K  c #6F6F6F",
"L  c gray44",
"P  c #717171",
"I  c #727272",
"U  c gray45",
"Y  c #747474",
"T  c #767676",
"R  c #777777",
"E  c gray47",
"W  c #797979",
"Q  c #7B7B7B",
"!  c #7C7C7C",
"~  c gray49",
"^  c #7E7E7E",
"/  c gray50",
"(  c #818181",
")  c gray51",
"_  c #838383",
"`  c #848484",
"'  c gray52",
"]  c #868686",
"[  c #888888",
"{  c #898989",
"}  c gray54",
"|  c #8D8D8D",
" . c #8E8E8E",
".. c gray56",
"X. c #909090",
"o. c #929292",
"O. c gray58",
"+. c #959595",
"@. c gray59",
"#. c #979797",
"$. c gray60",
"%. c #9A9A9A",
"&. c #9B9B9B",
"*. c gray61",
"=. c #9D9D9D",
"-. c #A0A0A0",
";. c gray63",
":. c #A2A2A2",
">. c gray64",
",. c #A4A4A4",
"<. c #A5A5A5",
"1. c #A7A7A7",
"2. c gray66",
"3. c #A9A9A9",
"4. c gray67",
"5. c #ACACAC",
"6. c #AFAFAF",
"7. c gray69",
"8. c #B1B1B1",
"9. c #B2B2B2",
"0. c gray70",
"q. c gray71",
"w. c #B6B6B6",
"e. c #B7B7B7",
"r. c gray72",
"t. c #B9B9B9",
"y. c gray73",
"u. c #BCBCBC",
"i. c gray74",
"p. c gray",
"a. c #C1C1C1",
"s. c gray76",
"d. c #C3C3C3",
"f. c #C5C5C5",
"g. c #C6C6C6",
"h. c gray78",
"j. c #C8C8C8",
"k. c gray79",
"l. c #CACACA",
"z. c #CBCBCB",
"x. c gray80",
"c. c gray81",
"v. c #D0D0D0",
"b. c gray82",
"n. c #D2D2D2",
"m. c LightGray",
"M. c gray83",
"N. c #D5D5D5",
"B. c gray84",
"V. c gray85",
"C. c #DADADA",
"Z. c gainsboro",
"A. c #DDDDDD",
"S. c #DFDFDF",
"D. c gray88",
"F. c #E1E1E1",
"G. c #E2E2E2",
"H. c gray89",
"J. c #E4E4E4",
"K. c gray90",
"L. c #E6E6E6",
"P. c #E7E7E7",
"I. c gray91",
"U. c #E9E9E9",
"Y. c #EAEAEA",
"T. c gray92",
"R. c #ECECEC",
"E. c gray93",
"W. c #EEEEEE",
"Q. c gray94",
"!. c #F1F1F1",
"~. c gray95",
"^. c #F3F3F3",
"/. c #F4F4F4",
"(. c gray96",
"). c #F6F6F6",
"_. c gray97",
"`. c #F8F8F8",
"'. c #F9F9F9",
"]. c gray98",
"[. c #FBFBFB",
"{. c gray99",
"}. c #FDFDFD",
"|. c #FEFEFE",
/* pixels */
"                                                                                                              ",
"                                                                                                              ",
"                                                                                                              ",
"                                                                                                              ",
"                                                                                                              ",
"                                                                                                              ",
"                                                                                                              ",
"                                                                                                              ",
"                                                                                                              ",
"                                            [.G.i.O.L S L &.a.G.[.                                            ",
"                                    [.^.a.( l 4 $ $ $ $ $ $ $ 1 m  .l.^.[.                                    ",
"                                [.^.w.N 1 o $ $ $ $ $ $ $ $ $ $ $ $ 1 S a.^.[.                                ",
"                              [.N.G $ $ $ $ $ $ $ $ $ $ $ $ $ $ $ $ $ $ 1 W G.[.                              ",
"                            [.w.r $ $ $ $ $ $ $ $ $ $ $ $ $ $ $ $ $ $ $ $ $ i a.[.                            ",
"                          [.-.4 $ $ $ $ $ $ $ $ $ $ $ $ $ $ $ $ $ $ $ $ $ $ $ 4 w.[.                          ",
"                        [.-.1 $ $ $ $ $ $ $ $ $ $ $ $ $ $ $ $ $ $ $ $ $ $ $ $ $ r w.[.                        ",
"                      [.w.4 $ $ $ $ $ $ $ $ $ $ $ $ $ $ $ $ $ $ $ $ $ $ $ $ $ $ $ i l.[.                      ",
"                      N.i $ $ $ $ $ $ $ $ $ $ $ $ 1 1 1 1 $ $ $ $ $ $ $ $ $ $ $ $ $ m U.                      ",
"                    ^.G $ $ $ $ $ $ $ $ $ $ 1 l ( w.l.l.a.4.W l 1 $ $ $ $ $ $ $ $ $ 1 ( [.                    ",
"                  [.w.4 $ $ $ $ $ $ $ $ $ i &.U.              G. .r $ $ $ $ $ $ $ $ $ r a.                    ",
"                  ^.N $ $ $ $ $ $ $ $ $ N N.[.  [.^.U.U.U.^.[.  [.a.m $ $ $ $ $ $ $ $ 1 L [.                  ",
"                  i.4 $ $ $ $ $ $ $ $ N G.[.[.^.a.( S m S  .l.^.  [.N.l $ $ $ $ $ $ $ $ r N.                  ",
"                  W 1 $ $ $ $ $ $ $ i N.[.[.G.W 1 o o $ $ o 4 ( U.  [.a.4 $ $ $ $ $ $ $ 1 O.                  ",
"                ^.m $ $ $ $ $ $ $ $ -.[.  G.N $ $ $ $ $ $ $ $ o L U.  [. .$ $ $ $ $ $ $ $ S [.                ",
"                G.r $ $ $ $ $ $ $ l U.  [.L $ $ $ $ $ $ $ $ $ $ $ O.[.[.C.4 $ $ $ $ $ $ $ i ^.                ",
"                l.1 $ $ $ $ $ $ o ( [.  l.1 $ $ $ $ $ $ $ $ $ $ $ r C.  ^.G $ $ $ $ $ $ $ 4 G.                ",
"                4.1 $ $ $ $ $ $ $ w.[.  W $ $ $ $ $ $ $ $ $ $ $ $ $ &.  [.&.o $ $ $ $ $ $ 1 l.                ",
"                &.$ $ $ $ $ $ $ 1 l.[.[.N $ $ $ $ $ $ $ $ $ $ $ $ $ L   [.w.$ $ $ $ $ $ $ 1 i.                ",
"                &.1 $ $ $ $ $ $ 1 N.[.[.N $ $ $ $ $ $ $ $ $ $ $ $ $ G   [.i.$ $ $ $ $ $ $ 1 i.                ",
"                -.1 $ $ $ $ $ $ 1 a.[.[.G $ $ $ $ $ $ $ $ $ $ $ $ $ (   [.w.$ $ $ $ $ $ $ 1 a.                ",
"                w.1 $ $ $ $ $ $ $ -.[.  O.$ $ $ $ $ $ $ $ $ $ $ $ 1 w.  [. .$ $ $ $ $ $ $ 4 N.                ",
"                N.4 $ $ $ $ $ $ o L ^.  N.i $ $ $ $ $ $ $ $ $ $ $ l G.  ^.N $ $ $ $ $ $ $ r G.                ",
"                U.r $ $ $ $ $ $ $ r C.[.[. .1 $ $ $ $ $ $ $ $ $ 4 4.  [.l.4 $ $ $ $ $ $ $ l ^.                ",
"                [.N $ $ $ $ $ $ $ $  .^.  U.W 4 $ $ $ $ $ $ $ 4  .^.  U.L $ $ $ $ $ $ $ 1 L [.                ",
"                  &.1 $ $ $ $ $ $ $ 1 &.^.  ^.i.L l r 4 r m W i.[.  U. .1 $ $ $ $ $ $ $ 4 w.                  ",
"                  C.i $ $ $ $ $ $ $ $ r -.U.    G.i.4.-.4.a.G.  [.G.O.4 $ $ $ $ $ $ $ $ m U.                  ",
"                  [.( 1 $ $ $ $ $ $ $ $ r  .N.[.    [.[.      ^.l.W 4 $ $ $ $ $ $ $ $ 1 &.[.                  ",
"                    N.l $ $ $ $ $ $ $ $ $ 4 S &.a.C.U.U.G.C.i.O.N 1 $ $ $ $ $ $ $ $ $ N G.                    ",
"                    [.&.4 $ $ $ $ $ $ $ $ $ $ 4 m G W ( W G l 4 $ $ $ $ $ $ $ $ $ $ r w.                      ",
"                      U.L 1 $ $ $ $ $ $ $ $ $ $ $ $ 1 1 $ $ $ $ $ $ $ $ $ $ $ $ $ 1  .^.                      ",
"                        N.S $ $ $ $ $ $ $ $ $ $ $ $ $ $ $ $ $ $ $ $ $ $ $ $ $ $ 1 L G.                        ",
"                          l.S 1 $ $ $ $ $ $ $ $ $ $ $ $ $ $ $ $ $ $ $ $ $ $ $ 1 G N.                          ",
"                            G. .1 $ $ $ $ $ $ $ $ $ $ $ $ $ $ $ $ $ $ $ $ $ 4 O.U.                            ",
"                              U.4.l $ $ $ $ $ $ $ $ $ $ $ $ $ $ $ $ $ $ $ N w.U.                              ",
"                                ^.N. .i $ $ $ $ $ $ $ $ $ $ $ $ $ $ $ l O.C.^.                                ",
"                                  [.U.l.O.N r $ $ $ $ $ $ $ $ $ r S &.N.U.                                    ",
"                                      [.U.C.a.-.W m 4 1 r m ( -.l.C.^.[.                                      ",
"                                            [.[.^.U.U.G.U.U.^.[.[.                                            ",
"                                                                                                              ",
"                                                                                                              ",
"                                                                                                              ",
"                                                                                                              ",
"                                                                                                              ",
"                                                                                                              ",
"                                                                                                              "
};
