/* XPM */
static char *continue_mode_dark[] = {
/* columns rows colors chars-per-pixel */
"55 55 30 1 ",
"  c None",
". c gray1",
"X c #0B0B0B",
"o c #151515",
"O c #1B1B1B",
"+ c #252525",
"@ c #2F2F2F",
"# c #343434",
"$ c gray24",
"% c #414141",
"& c gray31",
"* c #505050",
"= c gray36",
"- c #656565",
"; c gray43",
": c #747474",
"> c #7E7E7E",
", c #868686",
"< c #8B8B8B",
"1 c #909090",
"2 c #9B9B9B",
"3 c #A5A5A5",
"4 c #AFAFAF",
"5 c #B1B1B1",
"6 c #BBBBBB",
"7 c gray76",
"8 c #CECECE",
"9 c gray84",
"0 c gray87",
"q c gray88",
/* pixels */
"                                                       ",
"                                                       ",
"                                                       ",
"                                                       ",
"                                                       ",
"                                                       ",
"                                                       ",
"                                                       ",
"                                                       ",
"                                                       ",
"                                                       ",
"                                                       ",
"                                                       ",
"                                                       ",
"                                                       ",
"       o=:@.                 O-;+.                     ",
"      X;9q7>+..             o>007;+..                  ",
"      O<00005=O.            @200004*o.                 ",
"      O<0869092%X.          @20779q91#..               ",
"      +<q1$-5908,#X.        @20,#;6007>@X.             ",
"      +<01+.@,7006;+..      @20,O.#<8005=O.            ",
"      +<q1+  X%28003&o.     @20,O  o*39092%o.          ",
"      +<q1+    O-5908<#X.   @20,o    O;6908>@X.        ",
"      +<q1+     .+:5907>#X. @20,O     .@>6906:#X.      ",
"      +<q1+       X$<6005-+X@20,O       X%<7094=+X     ",
"      +<q1+         o*28092&$20,O         O=38081%o.   ",
"      +<q1+          .+;5906140,O          .@:5906-X   ",
"      +<q1+            .%300990,o            X&4005+   ",
"      +<q1+           o%,708460,O           o%<708,o   ",
"      +<q1+         X@;4906>=30,O         X#:5995:@.   ",
"      +<q1+       .+=28081*O@20,O       .+-3907<&o.    ",
"      +<q1+      O-4808<$o. @20,O     .+;4907,$o.      ",
"      +<q1+    X%17093*O.   @20,o    o*28092&O.        ",
"      +<q1+  .#>6906;@X.    @20,O  X$,7005-+X          ",
"      +<q1+ O-4908,$o.      @20,O.+;5907>#X.           ",
"      +<q1#*49091$X.        @20,@=5908<#X.             ",
"      +<0647004*O.          @20648093&o.               ",
"      O<00007:+X.           @200006;+..                ",
"      X:908<$X.             o,008,#X.                  ",
"       +,3&X.               .@12%X.                    ",
"        ...                  ....                      ",
"                                                       ",
"                                                       ",
"                                                       ",
"                                                       ",
"                                                       ",
"                                                       ",
"                                                       ",
"                                                       ",
"                                                       ",
"                                                       ",
"                                                       ",
"                                                       ",
"                                                       ",
"                                                       "
};
