/* XPM */
static char *delete_eval_item[] = {
/* columns rows colors chars-per-pixel */
"55 55 101 2 ",
"   c None",
".  c #1E1E1E",
"X  c gray12",
"o  c #202020",
"O  c gray13",
"+  c #222222",
"@  c #232323",
"#  c gray14",
"$  c #252525",
"%  c gray15",
"&  c #272727",
"*  c #282828",
"=  c gray16",
"-  c #2A2A2A",
";  c #2D2D2D",
":  c #2F2F2F",
">  c gray19",
",  c #313131",
"<  c gray20",
"1  c #353535",
"2  c gray21",
"3  c #373737",
"4  c gray22",
"5  c #3C3C3C",
"6  c #444444",
"7  c gray27",
"8  c #464646",
"9  c gray28",
"0  c #484848",
"q  c #494949",
"w  c #505050",
"e  c #515151",
"r  c gray32",
"t  c #535353",
"y  c #555555",
"u  c #5F5F5F",
"i  c #7C7C7C",
"p  c gray49",
"a  c #7E7E7E",
"s  c gray50",
"d  c #808080",
"f  c #818181",
"g  c #838383",
"h  c gray52",
"j  c #868686",
"k  c gray53",
"l  c #888888",
"z  c #8B8B8B",
"x  c gray56",
"c  c #909090",
"v  c #929292",
"b  c #939393",
"n  c gray58",
"m  c #959595",
"M  c #979797",
"N  c #9B9B9B",
"B  c gray62",
"V  c #9F9F9F",
"C  c #A0A0A0",
"Z  c gray63",
"A  c gray64",
"S  c gray65",
"D  c gray67",
"F  c #AFAFAF",
"G  c #B2B2B2",
"H  c gray70",
"J  c #B4B4B4",
"K  c gray72",
"L  c gray75",
"P  c gray76",
"I  c gray78",
"U  c gray79",
"Y  c #CACACA",
"T  c #CBCBCB",
"R  c gray80",
"E  c #D2D2D2",
"W  c #D7D7D7",
"Q  c #D8D8D8",
"!  c gray85",
"~  c gainsboro",
"^  c #DFDFDF",
"/  c #E4E4E4",
"(  c gray90",
")  c #E6E6E6",
"_  c gray91",
"`  c #E9E9E9",
"'  c gray92",
"]  c #ECECEC",
"[  c gray93",
"{  c #EEEEEE",
"}  c #EFEFEF",
"|  c gray94",
" . c #F1F1F1",
".. c #F3F3F3",
"X. c #F4F4F4",
"o. c #F6F6F6",
"O. c gray98",
"+. c #FBFBFB",
"@. c gray99",
"#. c #FDFDFD",
"$. c #FEFEFE",
/* pixels */
"                                                                                                              ",
"                                                                                                              ",
"                                                                                                              ",
"                                                                                                              ",
"                                                                                                              ",
"                                                                                                              ",
"                                                                                                              ",
"                                                                                                              ",
"                                                                                                              ",
"                                                                                                              ",
"                        #._ U G F F F F F F F F F F F F F F F F F F F F F F F G U _ #.                        ",
"                       .b r < ; & & & & & & & & & & & & & & & & & & & & & & & ; < r b _                       ",
"                    #.b 4 & & X & & & & & & & & & & & & & & & & & & & & & & X X & & 4 b #.                    ",
"                    ) 9 & & q a x b b b b b b b b b b x b b b b b x b b b b x a 9 & & 9 )                     ",
"                    K ; & 9 I _ _ _ _ _ _ _ _ _ _ _ _ _ _ _ _ _ _ _ _ _ _ _ _ _ K 9 & ; G                     ",
"                    b & & f  .                                                  _ f & ; b                     ",
"                    f & X V #.                                                   .C X & f                     ",
"                    f & X V #.                                                   .C X & f                     ",
"                    f & X V #.                                                   .C X & f                     ",
"                    f & X V #.                                                   .C X & f                     ",
"                    f & X V #.                                                   .C & & f                     ",
"                    f & X V #.                                                   .C & & f                     ",
"                    f & X V #.                                                   .C & & f                     ",
"                    f & X V #.                                                   .C & & f                     ",
"                    f & X V #.                                                   .C X & f                     ",
"                    f & X C #.         .) ) ) ) ) ) ) ) ) ) ) ) ) ) )  .         .C & & f                     ",
"                    f & X V #.      E r 4 4 4 4 4 4 4 4 4 4 4 4 4 4 4 r U        .C X & f                     ",
"                    f & X V #.      b X & & & & & & & & & & & & & & & X f        .C X & f                     ",
"                    f & X V #.      U q < ; < < < < < < < < < < < ; < 9 I        .C X & f                     ",
"                    f & X V #.      #._ Q Q Q Q Q Q Q Q Q Q Q Q Q Q Q ) #.       .C & & f                     ",
"                    f & X V #.          #.#.#.#.#.#.#.#.#.#.#.#.#.#.#.           .C & & f                     ",
"                    f & X V #.                                                   .C & & f                     ",
"                    f & X V #.                                                   .C & & f                     ",
"                    f & X V #.                                                   .C & & f                     ",
"                    f & X V #.                                                   .C X & f                     ",
"                    f & X V #.                                                   .C X & f                     ",
"                    f & X V #.                                                   .C X & f                     ",
"                    f & X V #.                                                   .C X & f                     ",
"                    f & X C #.                                                   .C X & f                     ",
"                    x & X b #.                                                   .b X ; x                     ",
"                    F ; & r _                                                   ) r & ; C                     ",
"                    Q < & & r V G G G G G G G G G G G G G G G G G G G G G G G V r & & < Q                     ",
"                    #.f ; & & & X X X X X X X X X X X X X X X X X X X X X X X & & & ; a #.                    ",
"                      _ a < & & & & & & & & & & & & & & & & & & & & & & & & & & & < a _                       ",
"                        #.Q b u r r r r r r r r r r r r r r r r r r r r r r r u b E #.                        ",
"                                                                                                              ",
"                                                                                                              ",
"                                                                                                              ",
"                                                                                                              ",
"                                                                                                              ",
"                                                                                                              ",
"                                                                                                              ",
"                                                                                                              ",
"                                                                                                              ",
"                                                                                                              "
};
