/* XPM */
static char *eval_expression[] = {
/* columns rows colors chars-per-pixel */
"55 55 132 2 ",
"   c None",
".  c gray8",
"X  c gray10",
"o  c #1B1B1B",
"O  c #1D1D1D",
"+  c #1E1E1E",
"@  c gray12",
"#  c #202020",
"$  c gray13",
"%  c #222222",
"&  c #232323",
"*  c gray14",
"=  c #252525",
"-  c gray15",
";  c #272727",
":  c #282828",
">  c gray16",
",  c #2A2A2A",
"<  c gray17",
"1  c #2C2C2C",
"2  c #2D2D2D",
"3  c gray18",
"4  c #2F2F2F",
"5  c #343434",
"6  c #353535",
"7  c #373737",
"8  c gray22",
"9  c #3C3C3C",
"0  c gray24",
"q  c #3E3E3E",
"w  c #3F3F3F",
"e  c gray25",
"r  c gray26",
"t  c gray27",
"y  c gray28",
"u  c #494949",
"i  c gray29",
"p  c #4B4B4B",
"a  c #4C4C4C",
"s  c gray30",
"d  c #535353",
"f  c gray33",
"g  c gray34",
"h  c gray35",
"j  c #5A5A5A",
"k  c #5D5D5D",
"l  c gray37",
"z  c gray38",
"x  c #626262",
"c  c #656565",
"v  c #686868",
"b  c DimGray",
"n  c #6F6F6F",
"m  c gray45",
"M  c gray46",
"N  c #767676",
"B  c #777777",
"V  c gray47",
"C  c gray48",
"Z  c gray50",
"A  c #808080",
"S  c #818181",
"D  c gray51",
"F  c #868686",
"G  c gray53",
"H  c #888888",
"J  c gray54",
"K  c #8B8B8B",
"L  c gray56",
"P  c #909090",
"I  c #959595",
"U  c gray60",
"Y  c #9A9A9A",
"T  c #9B9B9B",
"R  c gray61",
"E  c #9D9D9D",
"W  c gray62",
"Q  c #9F9F9F",
"!  c #A0A0A0",
"~  c gray63",
"^  c #A2A2A2",
"/  c gray64",
"(  c #A4A4A4",
")  c #A5A5A5",
"_  c #A7A7A7",
"`  c gray66",
"'  c gray67",
"]  c #ACACAC",
"[  c gray68",
"{  c gray69",
"}  c gray70",
"|  c gray71",
" . c #B7B7B7",
".. c gray73",
"X. c #BCBCBC",
"o. c gray74",
"O. c gray",
"+. c gray76",
"@. c #C3C3C3",
"#. c gray77",
"$. c #C5C5C5",
"%. c #C6C6C6",
"&. c #CACACA",
"*. c #CECECE",
"=. c #D0D0D0",
"-. c #D7D7D7",
";. c #D8D8D8",
":. c gray85",
">. c gray86",
",. c #DDDDDD",
"<. c #E1E1E1",
"1. c gray89",
"2. c #E6E6E6",
"3. c #E7E7E7",
"4. c gray92",
"5. c #ECECEC",
"6. c gray93",
"7. c #EEEEEE",
"8. c #EFEFEF",
"9. c gray94",
"0. c #F1F1F1",
"q. c gray95",
"w. c #F3F3F3",
"e. c gray96",
"r. c #F6F6F6",
"t. c gray97",
"y. c #F8F8F8",
"u. c gray98",
"i. c #FBFBFB",
"p. c gray99",
"a. c #FDFDFD",
"s. c #FEFEFE",
/* pixels */
"                                                                                                              ",
"                                                                                                              ",
"                                                                                                              ",
"                                                                                                              ",
"                                                                                                              ",
"                                                                                                              ",
"                                                                                                              ",
"                                                                                                              ",
"                                                                                                              ",
"                                                                                                              ",
"                3.O.T I I I I I I I I I I I I I I I I I I I I I I I I I I I I I I I I I T +.7.                ",
"            7.G e < < ; ; ; ; ; ; ; ; ; ; ; ; ; ; ; ; ; ; ; ; ; ; ; ; ; ; ; ; ; ; ; ; ; < < e T a.            ",
"          a.H < ; ; @ @ @ @ @ @ @ @ @ @ ; ; ; ; @ ; ; ; @ @ @ @ ; ; ; ; @ ; ; ; @ @ @ @ ; ; ; 5 ~             ",
"          3.w ; ; p H ~ ~ ~ ~ ~ ~ ~ ~ ~ ~ ~ ~ ~ ~ ~ ~ ~ ~ ~ ~ ~ ~ ~ ~ ~ ~ ~ ~ ~ ~ ~ ~ ~ G w ; ; f 0.          ",
"          O.< ; p =.0.0.0.0.0.0.0.0.0.0.0.0.0.0.0.0.0.0.0.0.0.0.0.0.0.0.0.0.0.0.0.0.0.0.7.O.5 ; 5 :.          ",
"          ~ ; @ G 0.                                                                      7.z @ < +.          ",
"          T ; @ T 0.      0.0.                                                            7.m @ < O.          ",
"          T ; @ T 0.    7.m h } a.                                                        0.Z @ < O.          ",
"          T ; @ T 0.    =.5 ; < n :.a.                                                    0.Z @ < O.          ",
"          T ; @ T 0.    a.] p ; ; w T 0.                                                  0.Z @ < O.          ",
"          T ; @ T 0.      a.3.G < ; ; h &.a.                                              0.Z @ < O.          ",
"          T ; @ T 0.        a.a.&.z ; ; f 0.                                              0.Z @ < O.          ",
"          T ; ; T 0.            :.n ; @ p 7.                                              0.Z @ < O.          ",
"          T ; ; T 0.        0.T w ; ; e O.a.                                              0.Z @ < O.          ",
"          T ; @ T 0.    a.+.h ; @ < G 3.a.                                                0.Z @ < O.          ",
"          T ; @ T 0.    :.e ; @ f +.0.    7.} ] ] ] ] ] ] ] 3.                            0.Z @ < O.          ",
"          T ; @ T 0.    7.h e ~ 0.        Z @ @ @ @ @ @ @ . z                             0.Z @ < O.          ",
"          T ; @ T 0.      0.0.            ~ w w w w w w w 5 I                             0.Z @ < O.          ",
"          T ; @ T 0.                        0.7.7.7.7.7.7.7.                              0.Z @ < O.          ",
"          T ; @ T 0.                                                                      0.Z @ < O.          ",
"          T ; @ T 0.                                                                      0.Z @ < O.          ",
"          T ; @ T 0.                                                                      0.Z @ < O.          ",
"          T ; @ T 0.                                                                      0.Z @ < O.          ",
"          T ; @ T 0.                                                                      0.Z @ < O.          ",
"          T ; @ T 0.                                                                      0.Z @ < O.          ",
"          T ; @ T 0.                                                                      0.Z @ < O.          ",
"          T ; @ T 0.                                                                      0.Z @ < O.          ",
"          T ; @ T 0.                                                                      0.Z @ < O.          ",
"          T ; @ T 0.                                                                      0.Z @ < O.          ",
"          T ; @ H 0.                                                                      7.z @ < +.          ",
"          O.< ; p :.0.a.a.a.a.a.a.a.a.a.a.a.a.a.a.a.a.a.a.a.a.a.a.a.a.a.a.a.a.a.a.a.a.a.0.+.5 ; 5 :.          ",
"          3.w ; ; p H ~ ~ ~ ] ] ] ] ] ] ] ] ~ ~ ] ~ ~ ~ ] ] ] ] ] ~ ~ ~ ] ] ] ] ] ] ] ~ G w ; ; p 0.          ",
"          a.G < ; ; ; @ @ ; @ @ @ @ @ @ @ @ @ @ @ @ @ @ @ @ @ @ @ @ @ @ @ @ @ @ @ @ @ @ ; ; ; < T             ",
"            7.G w < ; ; ; ; ; ; ; ; ; ; ; ; ; ; ; ; ; ; ; ; ; ; ; ; ; ; ; ; ; ; ; ; ; ; ; < w I a.            ",
"              a.3.] G m m m m m m m m m m m m m m m m m m m m m m m m m m m m m m m m m H } 3.                ",
"                                                                                                              ",
"                                                                                                              ",
"                                                                                                              ",
"                                                                                                              ",
"                                                                                                              ",
"                                                                                                              ",
"                                                                                                              ",
"                                                                                                              ",
"                                                                                                              ",
"                                                                                                              "
};
