/* XPM */
static char *eval_last_sexp_dark[] = {
/* columns rows colors chars-per-pixel */
"55 55 30 1 ",
"  c None",
". c gray2",
"X c gray3",
"o c #111111",
"O c #1D1D1D",
"+ c #252525",
"@ c gray16",
"# c gray19",
"$ c #3C3C3C",
"% c gray28",
"& c #484848",
"* c #535353",
"= c #5A5A5A",
"- c gray40",
"; c #6D6D6D",
": c gray45",
"> c gray47",
", c gray52",
"< c #8D8D8D",
"1 c gray58",
"2 c #9B9B9B",
"3 c #A7A7A7",
"4 c gray68",
"5 c #B7B7B7",
"6 c gray74",
"7 c gray76",
"8 c gray81",
"9 c gray84",
"0 c gray87",
"q c #E1E1E1",
/* pixels */
"                                                       ",
"                                                       ",
"                                                       ",
"                                                       ",
"                                                       ",
"                                                       ",
"                                                       ",
"                                                       ",
"                                                       ",
"                                                       ",
"                                                       ",
"                                                       ",
"                                                       ",
"              o$@X     .@&@.                           ",
"             o:85%.   X=697,#.                         ",
"             O<08=.   O<00095;O                        ",
"             O<08=.   +10000093*o                      ",
"             O<08=.   +107,190081$.                    ",
"             O<08=.   +1q5&O=40006>@.                  ",
"             O<08=.   +1q5%..@:70095-O                 ",
"             O<08=.   +1q5%  .X#<80082&X               ",
"             O<08=.   +1q5%    .X%39008<#.             ",
"             O<08=.   +1q5%      .O=50007:+            ",
"             O<08=.   +1q5%       ..+>70095=o          ",
"             O<08=.   +1q5%         .X$190092%X        ",
"             O<08=.   +1q5%           .o*40007>+       ",
"             O<08=.   +1q5%             .+:60092O      ",
"             O<08=.   +1q5%              ..&6000#      ",
"             O<08=.   +1q5%              X&39005+      ",
"             O<08=.   +1q5%            .#180002$.      ",
"             O<08=.   +1q5%           +:70005-O.       ",
"             O<08=.   +1q5%         o=50007>@..        ",
"             O<08=.   +1q5%       X%290091$X.          ",
"             O<08=.   +1q5%     .@,80004*o.            ",
"             O<08=.   +1q5%    O-60007;+..             ",
"             O<08=.   +1q5%  X&39008,@..               ",
"             O<08=.   +1q5%.#<80093%X.                 ",
"             O<08=.   +1q5-:60005=O.                   ",
"             O<08=.   +10999007>+..                    ",
"             O<08=.   +100009<#.                       ",
"             o,07*.   X;9003&X                         ",
"              #1:o     o:4-o                           ",
"                                                       ",
"                                                       ",
"                                                       ",
"                                                       ",
"                                                       ",
"                                                       ",
"                                                       ",
"                                                       ",
"                                                       ",
"                                                       ",
"                                                       ",
"                                                       ",
"                                                       "
};
