/* XPM */
static char *eval_defun[] = {
/* columns rows colors chars-per-pixel */
"55 55 179 2 ",
"   c None",
".  c #1B1B1B",
"X  c gray11",
"o  c #1E1E1E",
"O  c gray12",
"+  c #202020",
"@  c gray13",
"#  c #222222",
"$  c #232323",
"%  c gray14",
"&  c #252525",
"*  c gray15",
"=  c #272727",
"-  c #282828",
";  c gray16",
":  c #2A2A2A",
">  c gray17",
",  c #2C2C2C",
"<  c #2D2D2D",
"1  c gray18",
"2  c #2F2F2F",
"3  c gray19",
"4  c #313131",
"5  c #323232",
"6  c gray20",
"7  c #343434",
"8  c #353535",
"9  c gray21",
"0  c #373737",
"q  c gray22",
"w  c #393939",
"e  c #3A3A3A",
"r  c #3C3C3C",
"t  c gray24",
"y  c #3E3E3E",
"u  c #3F3F3F",
"i  c gray25",
"p  c #414141",
"a  c #434343",
"s  c #444444",
"d  c gray27",
"f  c #464646",
"g  c #494949",
"h  c #4B4B4B",
"j  c #4C4C4C",
"k  c gray30",
"l  c gray31",
"z  c #515151",
"x  c gray32",
"c  c #535353",
"v  c #565656",
"b  c gray34",
"n  c #585858",
"m  c gray35",
"M  c #5B5B5B",
"N  c gray36",
"B  c #5D5D5D",
"V  c gray37",
"C  c #606060",
"Z  c gray38",
"A  c #626262",
"S  c gray39",
"D  c #646464",
"F  c #656565",
"G  c #676767",
"H  c DimGray",
"J  c #6A6A6A",
"K  c #6D6D6D",
"L  c gray43",
"P  c #6F6F6F",
"I  c gray44",
"U  c #727272",
"Y  c #747474",
"T  c gray46",
"R  c #767676",
"E  c #777777",
"W  c gray47",
"Q  c #797979",
"!  c #808080",
"~  c #818181",
"^  c gray51",
"/  c #838383",
"(  c gray52",
")  c gray53",
"_  c #898989",
"`  c gray55",
"'  c #8E8E8E",
"]  c gray56",
"[  c #909090",
"{  c gray57",
"}  c #939393",
"|  c gray58",
" . c gray59",
".. c #989898",
"X. c gray60",
"o. c #9A9A9A",
"O. c #9B9B9B",
"+. c gray61",
"@. c gray62",
"#. c #9F9F9F",
"$. c #A0A0A0",
"%. c gray63",
"&. c gray64",
"*. c #A4A4A4",
"=. c #A5A5A5",
"-. c gray65",
";. c #A7A7A7",
":. c gray66",
">. c gray67",
",. c #ACACAC",
"<. c #AEAEAE",
"1. c #AFAFAF",
"2. c gray69",
"3. c #B2B2B2",
"4. c #B4B4B4",
"5. c gray71",
"6. c #B7B7B7",
"7. c gray72",
"8. c #B9B9B9",
"9. c gray73",
"0. c #BBBBBB",
"q. c gray",
"w. c gray75",
"e. c #C0C0C0",
"r. c #C1C1C1",
"t. c gray76",
"y. c gray77",
"u. c #C6C6C6",
"i. c gray78",
"p. c gray79",
"a. c #CACACA",
"s. c gray80",
"d. c #CDCDCD",
"f. c gray81",
"g. c #D0D0D0",
"h. c gray82",
"j. c LightGray",
"k. c gray83",
"l. c #D5D5D5",
"z. c gray84",
"x. c #D7D7D7",
"c. c #D8D8D8",
"v. c gray85",
"b. c #DADADA",
"n. c gray86",
"m. c gainsboro",
"M. c #DDDDDD",
"N. c gray87",
"B. c #DFDFDF",
"V. c gray88",
"C. c #E1E1E1",
"Z. c gray89",
"A. c #E4E4E4",
"S. c gray90",
"D. c #E6E6E6",
"F. c #E7E7E7",
"G. c gray91",
"H. c #E9E9E9",
"J. c #EAEAEA",
"K. c gray92",
"L. c #ECECEC",
"P. c gray93",
"I. c #EEEEEE",
"U. c #EFEFEF",
"Y. c gray94",
"T. c #F1F1F1",
"R. c gray95",
"E. c #F3F3F3",
"W. c #F4F4F4",
"Q. c gray96",
"!. c #F6F6F6",
"~. c gray97",
"^. c #F8F8F8",
"/. c #F9F9F9",
"(. c gray98",
"). c #FBFBFB",
"_. c gray99",
"`. c #FDFDFD",
"'. c #FEFEFE",
/* pixels */
"                                                                                                              ",
"                                                                                                              ",
"                                                                                                              ",
"                                                                                                              ",
"                                                                                                              ",
"                                                                                                              ",
"                                                          _._._._.                                            ",
"                                                      _.E.0.Z f O.D._.                                        ",
"                                                      P.} 9 @ @ @ Z j._.                                      ",
"                                                    _.,.t @ @ @ @ @ ^ P.                                      ",
"                                                    P.^ - @ @ @ @ @ g j.                                      ",
"                                                    D.W @ @ @ @ @ @ f d._.                                    ",
"                                                    E.' - @ @ - @ @ m n.                                      ",
"                                                      r.c @ - @ @ - O.E.                                      ",
"                                                      E.3.c 9 - t ' D.                                        ",
"                                        _._._._._.E.E._._.D.3.-.d.E.                                          ",
"                                  _.P.D.n.j.d.0.3.-.-.,.r.D._.                                                ",
"                                _.d.H f t 9 - - @ @ @ @ - c -.E._.                                            ",
"                                D.R . @ @ @ @ @ @ @ @ @ @ @ - O.P._.                                          ",
"                                n.m @ @ - t t 9 @ @ @ @ @ @ @ t ,.E.                                          ",
"                                j.g @ 9 H ,.,.W 9 @ @ @ @ @ @ @ c d._.          _._.                          ",
"                              _.r.t @ t 3.  _.-.t @ @ @ @ @ @ @ @ R n._.  _.E.n.0.0.P._.                      ",
"                              _.3.- @ f d.  E.^ - @ @ @ - @ - - @ - O.P.P.j.-.m 9 9 ,._.                      ",
"                              E.-.@ @ c n.  P.Z @ @ @ - - - c g - @ f -.} m - @ @ @ R _.                      ",
"                              P.} @ - Z P.  n.f @ - @ @ @ f ,.0.g @ @ 9 @ @ @ - 9 m r._.                      ",
"                              P.^ . - R _._.r.- @ - @ @ @ m d._.} 9 @ @ @ - t Z O.n._.                        ",
"                              E.,.g m 3.  P.} @ @ @ @ @ - ^ P.  P.^ t t m } r.E._.                            ",
"                              _.P.0.r.E.  D.W @ @ @ @ @ t ,._.    n.-.-.d.E._.                                ",
"                                          P.^ @ @ @ @ @ f ,.E.      _._.                                      ",
"                                          _.r.t @ @ @ @ - Z ,.E.                                              ",
"                                        E.j.D.-.m - @ @ @ @ f O.n._.                                          ",
"                                      _.j.R O.D.r.^ g - @ @ @ 9 R 0.E.                                        ",
"                                      _.3.9 t } j.D.3.R f @ @ @ - g } n._.                                    ",
"                                      P.' @ @ t -._._.n.,.H 9 @ @ @ 9 R j._.                                  ",
"                                      n.Z @ @ f 3._.    _.j.O.g - @ @ - -.E.                                  ",
"                                    _.0.9 @ @ W D.          D.Z - @ @ - ,.E.                                  ",
"                                    E.O.@ @ - -._.        n.^ 9 @ @ 9 } D._.                                  ",
"                                    D.H @ @ t d.      _.j.R 9 @ @ t -.D._.                                    ",
"                                  E.-.9 @ - Z P.    _.r.H - @ @ g 3.P._.                                      ",
"                                E.-.f @ @ 9 } _.    j.H - @ @ m 0.E.                                          ",
"                              P.-.f @ @ - H n.      3.t . @ c d.E.                                            ",
"                            E.-.f @ @ - Z j._.      j.H t H r._.                                              ",
"                          E.3.t @ @ - Z j._.        E.n.d.n.E.                                                ",
"                        _.3.f @ @ - Z j._.            _._.                                                    ",
"                      _.,.9 @ @ - H n._.                                                                      ",
"                      E.t @ @ - H D._.                                                                        ",
"                      _.^ @ @ R D._.                                                                          ",
"                      _.P.,.,.P._.                                                                            ",
"                          _._._.                                                                              ",
"                                                                                                              ",
"                                                                                                              ",
"                                                                                                              ",
"                                                                                                              ",
"                                                                                                              ",
"                                                                                                              "
};
