/* XPM */
static char *eval_print_last_sexp[] = {
/* columns rows colors chars-per-pixel */
"55 55 110 2 ",
"   c None",
".  c #1B1B1B",
"X  c gray11",
"o  c #1D1D1D",
"O  c #202020",
"+  c gray13",
"@  c #222222",
"#  c #232323",
"$  c gray14",
"%  c gray15",
"&  c #2C2C2C",
"*  c #2D2D2D",
"=  c gray19",
"-  c #323232",
";  c gray20",
":  c #343434",
">  c #393939",
",  c #3A3A3A",
"<  c gray23",
"1  c gray25",
"2  c #414141",
"3  c #444444",
"4  c gray27",
"5  c gray28",
"6  c #484848",
"7  c #494949",
"8  c #4E4E4E",
"9  c gray31",
"0  c gray32",
"q  c #555555",
"w  c #565656",
"e  c gray34",
"r  c gray35",
"t  c #5B5B5B",
"y  c gray39",
"u  c #646464",
"i  c #656565",
"p  c DimGray",
"a  c gray43",
"s  c #717171",
"d  c #727272",
"f  c #747474",
"g  c gray51",
"h  c #838383",
"j  c #868686",
"k  c gray53",
"l  c #888888",
"z  c gray54",
"x  c #8B8B8B",
"c  c #8E8E8E",
"v  c #979797",
"b  c #989898",
"n  c gray61",
"m  c #9D9D9D",
"M  c gray62",
"N  c #A0A0A0",
"B  c gray63",
"V  c #A2A2A2",
"C  c #A4A4A4",
"Z  c gray65",
"A  c #AAAAAA",
"S  c gray67",
"D  c gray71",
"F  c #B7B7B7",
"G  c #B9B9B9",
"H  c #BBBBBB",
"J  c #BCBCBC",
"K  c gray",
"L  c #C0C0C0",
"P  c gray76",
"I  c gray79",
"U  c #CBCBCB",
"Y  c gray80",
"T  c #CDCDCD",
"R  c gray81",
"E  c #D0D0D0",
"W  c gray82",
"Q  c LightGray",
"!  c #D5D5D5",
"~  c #D8D8D8",
"^  c #DADADA",
"/  c gainsboro",
"(  c #DDDDDD",
")  c gray88",
"_  c #E1E1E1",
"`  c #E2E2E2",
"'  c gray89",
"]  c #E6E6E6",
"[  c #E7E7E7",
"{  c gray91",
"}  c #E9E9E9",
"|  c #EAEAEA",
" . c gray92",
".. c gray93",
"X. c #EEEEEE",
"o. c #EFEFEF",
"O. c gray94",
"+. c #F1F1F1",
"@. c #F3F3F3",
"#. c #F4F4F4",
"$. c gray96",
"%. c #F6F6F6",
"&. c gray97",
"*. c #F8F8F8",
"=. c #F9F9F9",
"-. c gray98",
";. c #FBFBFB",
":. c gray99",
">. c #FDFDFD",
",. c #FEFEFE",
/* pixels */
"                                                                                                              ",
"                                                                                                              ",
"                                                                                                              ",
"                                                                                                              ",
"                                                                                                              ",
"                                                                                                              ",
"                                                                                                              ",
"                                                                                                              ",
"                                                                                                              ",
"                                                                                                              ",
"                                                                                                              ",
"                                                                                                              ",
"                                                                                                              ",
"                                                                                                              ",
"                            ,.%.%.%.%.%.%.%.%.%.%.%.%.%.%.%.%.%.%.%.%.%.%.%.%.%.%.%.%.,.                      ",
"                            [ s e e e e e e e e e e e e e e e e e e e e e e e e e e e l ,.                    ",
"                            P $ X X X X X X X X X X X X X X X X X X X X X X X X X X X > |                     ",
"                            %.N j j j j j j j j j j j j j j j j j j j j j j j j j j l F ,.                    ",
"                                                                                                              ",
"                                                                                                              ",
"                                                                                                              ",
"                              ,.,.,.,.,.,.,.,.,.,.,.,.,.,.,.,.,.,.,.,.,.,.,.,.,.,.,.,.,.                      ",
"                            ,.( U U U U U U U U U U U U U U U U U U U U U U U U U U U [ ,.                    ",
"                            E 2 & & & & & & & & & & & & & & & & & & & & & & & & & & & t %.                    ",
"                            E 2 : : : : : : : : : : : : : : : : : : : : : : : : : : : t |                     ",
"                            ,.( U U E U U U U U U U U U U E U U U U U U U U E E U U E |                       ",
"                                                                                                              ",
"                                                                                                              ",
"                                                                                                              ",
"                            ,.| | | | | | | | | | | | | | | | | | | | | | | | | | | | %.                      ",
"                            | v j j j j j j j j j j j j j j j j j j j j j j j j j j j A ,.                    ",
"                            U : $ $ $ $ $ $ $ $ $ $ $ $ $ $ $ $ $ $ $ $ $ $ $ $ $ $ $ 9 |                     ",
"                            | N v v v v v v v v v v v v v v v v v v v v v v v v v v v F ,.                    ",
"                              ,.%.,.%.%.%.%.,.,.,.,.%.%.%.%.,.,.,.%.,.,.%.%.%.,.%.,.%.,.                      ",
"          ( P |                                                                                               ",
"          l 9 l U ,.            ,.,.,.,.,.,.,.,.,.,.,.,.,.,.,.,.,.,.,.,.,.,.,.,.,.,.,.                        ",
"          y $ & t N [ ,.    ,.J m m m m m m m m m m m m m m m m m m m m m m m m m m N U ,.                    ",
"          y $ $ $ > s J %.  ( 9 : : : : : : : : : : : : : : : : : : : : : : : : : : : a %.                    ",
"          y $ $ $ $ $ 2 U ,.J $ $ $ $ $ $ $ $ $ $ $ $ $ $ $ $ $ $ $ $ $ $ $ $ $ $ $ $ > [                     ",
"          y $ $ $ $ & s [ ,.J $ $ $ $ $ $ $ $ $ $ $ $ $ $ $ $ $ $ $ $ $ $ $ $ $ $ $ $ > [                     ",
"          y $ $ $ e A [ ,.  | a 2 2 2 2 2 2 2 2 2 2 2 2 2 2 2 2 2 2 2 2 2 2 2 2 2 2 9 l ,.                    ",
"          y $ > l E %.      ,.[ E E E E E E E E E E E E E E E E E E E E E E E E E E E |                       ",
"          N e J | ,.                                                                                          ",
"          %.| ,.                                                                                              ",
"                                                                                                              ",
"                                                                                                              ",
"                                                                                                              ",
"                                                                                                              ",
"                                                                                                              ",
"                                                                                                              ",
"                                                                                                              ",
"                                                                                                              ",
"                                                                                                              ",
"                                                                                                              ",
"                                                                                                              "
};
