/* XPM */
static char *forward_sexp[] = {
/* columns rows colors chars-per-pixel */
"55 55 145 2 ",
"   c None",
".  c black",
"X  c #010101",
"o  c #020202",
"O  c #040404",
"+  c #060606",
"@  c #070707",
"#  c gray3",
"$  c gray4",
"%  c #0B0B0B",
"&  c #0C0C0C",
"*  c gray5",
"=  c #0E0E0E",
"-  c gray6",
";  c #101010",
":  c gray7",
">  c #131313",
",  c gray8",
"<  c gray9",
"1  c #181818",
"2  c #191919",
"3  c gray10",
"4  c gray11",
"5  c #1E1E1E",
"6  c gray12",
"7  c #202020",
"8  c gray13",
"9  c #222222",
"0  c #232323",
"q  c #252525",
"w  c gray15",
"e  c gray16",
"r  c #2A2A2A",
"t  c #2C2C2C",
"y  c #2D2D2D",
"u  c gray18",
"i  c #2F2F2F",
"p  c gray20",
"a  c gray21",
"s  c gray22",
"d  c gray23",
"f  c #414141",
"g  c #434343",
"h  c #444444",
"j  c gray28",
"k  c #494949",
"l  c #4B4B4B",
"z  c #4C4C4C",
"x  c gray30",
"c  c #4E4E4E",
"v  c gray31",
"b  c #505050",
"n  c #515151",
"m  c gray33",
"M  c #585858",
"N  c gray35",
"B  c #5A5A5A",
"V  c gray37",
"C  c #606060",
"Z  c gray38",
"A  c #646464",
"S  c #6A6A6A",
"D  c gray42",
"F  c #6C6C6C",
"G  c #6F6F6F",
"H  c gray44",
"J  c #727272",
"K  c #747474",
"L  c #767676",
"P  c #777777",
"I  c #7C7C7C",
"U  c #7E7E7E",
"Y  c #808080",
"T  c #818181",
"R  c #838383",
"E  c #868686",
"W  c gray53",
"Q  c #898989",
"!  c gray54",
"~  c #8E8E8E",
"^  c gray56",
"/  c gray57",
"(  c #939393",
")  c gray59",
"_  c #979797",
"`  c #989898",
"'  c #9A9A9A",
"]  c #9B9B9B",
"[  c gray61",
"{  c #9D9D9D",
"}  c #9F9F9F",
"|  c #A0A0A0",
" . c #A2A2A2",
".. c gray64",
"X. c #A5A5A5",
"o. c gray66",
"O. c #A9A9A9",
"+. c #AEAEAE",
"@. c #AFAFAF",
"#. c #B1B1B1",
"$. c gray70",
"%. c gray71",
"&. c #B7B7B7",
"*. c #B9B9B9",
"=. c gray73",
"-. c #BBBBBB",
";. c gray74",
":. c gray75",
">. c #C0C0C0",
",. c #C1C1C1",
"<. c gray76",
"1. c #C5C5C5",
"2. c #C8C8C8",
"3. c gray79",
"4. c #CACACA",
"5. c gray80",
"6. c #CDCDCD",
"7. c #CECECE",
"8. c gray82",
"9. c gray84",
"0. c #D8D8D8",
"q. c gray85",
"w. c gray86",
"e. c gainsboro",
"r. c #DFDFDF",
"t. c gray90",
"y. c #E7E7E7",
"u. c gray91",
"i. c gray92",
"p. c gray93",
"a. c #EEEEEE",
"s. c #EFEFEF",
"d. c gray94",
"f. c #F1F1F1",
"g. c #F4F4F4",
"h. c gray96",
"j. c #F6F6F6",
"k. c gray97",
"l. c #F8F8F8",
"z. c #F9F9F9",
"x. c gray98",
"c. c #FBFBFB",
"v. c gray99",
"b. c #FDFDFD",
"n. c #FEFEFE",
/* pixels */
"                                                                                                              ",
"                                                                                                              ",
"                                                                                                              ",
"                                                                                                              ",
"                                                                                                              ",
"                                                                                                              ",
"                                                                                                              ",
"                                                z.<.O.' ' <.a.                                                ",
"                                          z.$.N - o o o o o o p ' k.                                          ",
"                                        $.t o o o o o o o o o o o - E k.                                      ",
"                                    q.h o o o 4 D <.a.z.k.3.' p o o o 9 $.                                    ",
"                                z.E o o o 4 ' z.                3.z o o o z a.                                ",
"                              3.t o o - E k.                        $.9 o o ; O.  z.O.z.                      ",
"                          z.I o o o z q.                              k.J o o o A h o Q                       ",
"                        3.t o o ; '                                       <.4 o o o o o 9.                    ",
"                    a.D o o o z t.                                          k.h o o o o t z.                  ",
"                  Q ; o o ; ..                                                n o o o o o J                   ",
"                O.o o o A a.            3.-.q.                z.<.-.a.        9 o o o o o o <.                ",
"                9.t z 3.              -.o o $.                z.9 o n         z.3.Q z - o o 4 k.              ",
"                                    k.9 o z                     $.o o O.              z.3.E h D               ",
"                                    J o o q.                      z o 4 k.                    z.              ",
"                                  k.o o z                         $.o o Q                                     ",
"                                  ..o o '                         z.- o s                                     ",
"                                  z o o t.                          n o o t.                                  ",
"                                k.- o p                             ' o o _                                   ",
"                                q.o o A                             3.o o J                                   ",
"                                <.o o I                             t.o o N                                   ",
"                                O.o o _                             z.o o h                                   ",
"                                _ o o $.                              4 o t                                   ",
"                                Q o o -.                              9 o 9                                   ",
"                                ' o o ..                              - o s                                   ",
"                                -.o o Q                             k.o o n                                   ",
"                                9.o o J                             q.o o D                                   ",
"                                a.o o z                             $.o o E                                   ",
"                                  9 o - z.                          D o o -.                                  ",
"                                  J o o -.                          9 o ; z.                                  ",
"                                  <.o o J                         q.o o N                                     ",
"                                  z.4 o ; k.                      J o o O.                                    ",
"                                    _ o o _                     a.- o t z.                                    ",
"                                    z.t o 4 z.                  E o o <.                                      ",
"                                      <.o o O.                k.; o N                                         ",
"                                        a.a.z.                z.a.a.z.                                        ",
"                                                                                                              ",
"                                                                                                              ",
"                                                                                                              ",
"                                                                                                              ",
"                                                                                                              ",
"                                                                                                              ",
"                                                                                                              ",
"                                                                                                              ",
"                                                                                                              ",
"                                                                                                              ",
"                                                                                                              ",
"                                                                                                              ",
"                                                                                                              "
};
