/* XPM */
static char *go_mode_dark[] = {
/* columns rows colors chars-per-pixel */
"55 55 33 1 ",
"  c None",
". c gray1",
"X c #0E0E0E",
"o c gray7",
"O c #1D1D1D",
"+ c gray13",
"@ c #2C2C2C",
"# c #313131",
"$ c #3F3F3F",
"% c #444444",
"& c #484848",
"* c gray33",
"= c #585858",
"- c gray39",
"; c #6C6C6C",
": c #717171",
"> c gray47",
", c #818181",
"< c #8D8D8D",
"1 c #909090",
"2 c #989898",
"3 c #A2A2A2",
"4 c #A9A9A9",
"5 c gray69",
"6 c #B9B9B9",
"7 c gray77",
"8 c #CDCDCD",
"9 c LightGray",
"0 c gray87",
"q c gray88",
"w c #E9E9E9",
"e c #F1F1F1",
"r c white",
/* pixels */
"                                                       ",
"                                                       ",
"                                                       ",
"                                                       ",
"                                                       ",
"                                                       ",
"                                                       ",
"                                                       ",
"                                                       ",
"                                                       ",
"                                                       ",
"       .X..                                            ",
"      X;73%o.                                          ",
"      *7008,@X.                                        ",
"      ,900006-O.                                       ",
"     .,90780003&o.                                     ",
"     .,99==39009,#X.                                   ",
"     .,99&XO;69006;+.                                  ",
"     .,99*X  @,70004%o.                                ",
"     .,99*X   .$<70091%o.                              ",
"     .,99*X     o*380q7>@X.              X+@+o.        ",
"     .,99*X       +;69005=+.           o-6err9<+       ",
"     .,99&X        .$170q92%O.        o4rrrrrrr9+      ",
"     .,99*X          o=380q8>#o.     X5rrrrrrrrr0@     ",
"     .,99&X            +:59005-+.    =rrrrrrrrrrr2.    ",
"     .,99*X             .$<79092&o  X5rrrrrrrrrrrwO    ",
"     .,99&.               X*280q7=. Oqrrrrrrrrrrrr&    ",
"     .,99*.                 +19007X +errrrrrrrrrrr-    ",
"     .,99*X               X$>6008>. Oqrrrrrrrrrrrr*    ",
"     .,99*X             .@-49q05;O. X6rrrrrrrrrrrw+    ",
"     .,99*X            O*18007,%X.   ;rrrrrrrrrrr3X    ",
"     .,99*X          X$,60082*O.     o5rrrrrrrrrq#     ",
"     .,90*X        .@;49094;@.        O8rrrrrrr0*      ",
"     .,99*X       O&28006,%X           o>9rrrq2@       ",
"     .,99*X     X$>60081*O.             .o#&$O.        ",
"     .,99*X   X%17009<$o.                              ",
"     .,99*X .@>69004*O.                                ",
"     .,99&XO-48006:#X                                  ",
"     .,99=*170q8<%o.                                   ",
"     .,90669003*+.                                     ",
"      ,900006:@X.                                      ",
"      *7008<$o.                                        ",
"      X-61$o.                                          ",
"       .XX.                                            ",
"                                                       ",
"                                                       ",
"                                                       ",
"                                                       ",
"                                                       ",
"                                                       ",
"                                                       ",
"                                                       ",
"                                                       ",
"                                                       ",
"                                                       "
};
