/* XPM */
static char *go_nonstop_mode_dark[] = {
/* columns rows colors chars-per-pixel */
"55 55 30 1 ",
"  c None",
". c gray1",
"X c gray4",
"o c gray8",
"O c #181818",
"+ c #272727",
"@ c #282828",
"# c #313131",
"$ c #393939",
"% c #434343",
"& c #4E4E4E",
"* c #555555",
"= c #5A5A5A",
"- c #626262",
"; c #6F6F6F",
": c gray44",
"> c gray48",
", c #818181",
"< c #898989",
"1 c gray58",
"2 c #9A9A9A",
"3 c gray63",
"4 c #AEAEAE",
"5 c gray70",
"6 c gray73",
"7 c #C0C0C0",
"8 c #CDCDCD",
"9 c LightGray",
"0 c #DADADA",
"q c #E1E1E1",
/* pixels */
"                                                       ",
"                                                       ",
"                                                       ",
"                                                       ",
"                                                       ",
"                                                       ",
"                                                       ",
"                                                       ",
"                                                       ",
"                                                       ",
"                                                       ",
"                                                       ",
"                                                       ",
"                                                       ",
"                                                       ",
"                                                       ",
"      .*;O                O**O               .$=X      ",
"      :007;o             X>994=o             O60*.     ",
"      900q05*X           o100q92@.           +8q;.     ",
"      005<9q92$          o20339q7:O.         +8q;.     ",
"      002X$20q8,@        o29;O*4005=o        +8q;.     ",
"      002 .X*6007;O      o29:X.O,8q03&X      +8q;.     ",
"      002   .O:7q05&X    o29:X ..$19q91@.    +8q;.     ",
"      002     X@<9q91$.  o29:X   .X&4007:O.  +8q;.     ",
"      002      .X$3007,+ o29:X     .O-6q05*X +8q;.     ",
"      002         X=6qq7:@19:X        O,9qq4%+8q;.     ",
"      002          .O:700559:X          #2909<8q;.     ",
"      002            .%70009:X           .,90q00;.     ",
"      002           o=600669:X          @<80028q;.     ",
"      002         .&40q8,#19:X        o:8qq6*+8q;.     ",
"      002       .+<0q92# o29:X      X&4qq8;o.+8q;.     ",
"      002     .o:8q04&X  o29:X    .#20q9,+.  +8q;.     ",
"      002    X*6qq7-o    o29:X   +,8q03$.    +8q;.     ",
"      002  .#30q9,+      o29:X X;7qq6=o      +8q;.     ",
"      002.+<0q02$        o29;X$20q8:O.       +8q;.     ",
"      004:8qq5&.         o202<8q9<@.         +8q;.     ",
"      000qq8;o           o200qq5$X           +8q;.     ",
"      ,009,+             X,007;O             O7q=.     ",
"      X<4#                @1<@.              .;2o      ",
"                                                       ",
"                                                       ",
"                                                       ",
"                                                       ",
"                                                       ",
"                                                       ",
"                                                       ",
"                                                       ",
"                                                       ",
"                                                       ",
"                                                       ",
"                                                       ",
"                                                       ",
"                                                       ",
"                                                       ",
"                                                       "
};
