/* XPM */
static char *goto_here_dark[] = {
/* columns rows colors chars-per-pixel */
"55 55 29 1 ",
"  c None",
". c #020202",
"X c #0C0C0C",
"o c #111111",
"O c #1D1D1D",
"+ c gray14",
"@ c #2D2D2D",
"# c #393939",
"$ c #464646",
"% c gray31",
"& c gray32",
"* c gray36",
"= c gray40",
"- c #6A6A6A",
"; c gray45",
": c gray47",
"> c gray51",
", c #8D8D8D",
"< c #959595",
"1 c #9F9F9F",
"2 c #A4A4A4",
"3 c gray66",
"4 c #B4B4B4",
"5 c gray72",
"6 c #C1C1C1",
"7 c #CACACA",
"8 c gray83",
"9 c #D8D8D8",
"0 c gray88",
/* pixels */
"                                                       ",
"                                                       ",
"                                                       ",
"                                                       ",
"                                                       ",
"                                                       ",
"                                                       ",
"                                                       ",
"                                                       ",
"                                                       ",
"            .O%=-----------------------=$O.            ",
"           o:68999999999999999999999999986:o           ",
"          .:8990000099900000000000900000998:.          ",
"          O6994;***********************;4996O          ",
"          %894+XXXXXXXXXXXXXXXXXXXXXXXXX@498&          ",
"          ;99;.                         X;98;          ",
"          :90=.       XX                X*09;          ",
"          :90=.       ;1o               X*09;          ",
"          :90=.       ,02o              X*09;          ",
"          :90=.       ,092o             X*09;          ",
"          :90=.       <0991o            X*99;          ",
"          :90=.       <09991X           X*99;          ",
"          :90=.       <09999<X          X*09;          ",
"          :90=.       <099999<X         X*09;          ",
"          :90=.       10999999,X        X*09;          ",
"          :90=.       109999999>X       X*09;          ",
"          :90=.       1999999999>.      X*09;          ",
"          :90=.       10999999900>.     X*09;          ",
"          :90=.      .20999996543:.     X*09;          ",
"          :90=.      .2099990*..        X*09;          ",
"          :90=.      .2902>093.         X*09;          ",
"          :90=.      .203o+899#         X*09;          ",
"          :90=.      .13o .100<         X*09;          ",
"          :90=.       oX   %998+        X*09;          ",
"          :90=.            X590-        X*09;          ",
"          :90=.             -095o       X*09;          ",
"          :90=.             +799&       X*09;          ",
"          :90*.              ,7,+       X*09;          ",
"          :90=.              o+         X*09:          ",
"          ;99;.                         X;99;          ",
"          &894O.........................+398&          ",
"          O6993-&&&&*&**&***&&&&****&&&-4996+          ",
"          .:8990000000000000000000000009998>.          ",
"           o>79999999999999999999999999997>o           ",
"            .+*>,,,,,,,,,,,,,,,,,,,,,,,>&+.            ",
"                                                       ",
"                                                       ",
"                                                       ",
"                                                       ",
"                                                       ",
"                                                       ",
"                                                       ",
"                                                       ",
"                                                       ",
"                                                       "
};
