/* XPM */
static char *next_mode[] = {
/* columns rows colors chars-per-pixel */
"55 55 176 2 ",
"   c None",
".  c black",
"X  c #010101",
"o  c #020202",
"O  c #040404",
"+  c gray2",
"@  c gray4",
"#  c gray6",
"$  c #131313",
"%  c #161616",
"&  c #1E1E1E",
"*  c #202020",
"=  c gray13",
"-  c #222222",
";  c #232323",
":  c gray14",
">  c #252525",
",  c gray15",
"<  c #272727",
"1  c #282828",
"2  c gray16",
"3  c #2A2A2A",
"4  c gray17",
"5  c #2C2C2C",
"6  c gray18",
"7  c #2F2F2F",
"8  c gray19",
"9  c #313131",
"0  c #323232",
"q  c #343434",
"w  c #353535",
"e  c gray21",
"r  c #373737",
"t  c gray22",
"y  c #393939",
"u  c #3A3A3A",
"i  c #3C3C3C",
"p  c gray24",
"a  c #3E3E3E",
"s  c #3F3F3F",
"d  c gray25",
"f  c #414141",
"g  c gray26",
"h  c #434343",
"j  c #444444",
"k  c #464646",
"l  c gray28",
"z  c #484848",
"x  c #494949",
"c  c gray29",
"v  c #4B4B4B",
"b  c #4C4C4C",
"n  c gray30",
"m  c gray31",
"M  c #505050",
"N  c #515151",
"B  c gray32",
"V  c #535353",
"C  c gray33",
"Z  c #565656",
"A  c gray34",
"S  c #585858",
"D  c #5A5A5A",
"F  c gray37",
"G  c #5F5F5F",
"H  c gray38",
"J  c #626262",
"K  c #646464",
"L  c #656565",
"P  c gray40",
"I  c #676767",
"U  c DimGray",
"Y  c #6A6A6A",
"T  c gray42",
"R  c #6C6C6C",
"E  c #6D6D6D",
"W  c gray44",
"Q  c gray45",
"!  c #767676",
"~  c #777777",
"^  c gray47",
"/  c #797979",
"(  c gray48",
")  c #7B7B7B",
"_  c gray49",
"`  c gray50",
"'  c gray51",
"]  c #838383",
"[  c #848484",
"{  c #868686",
"}  c #888888",
"|  c #898989",
" . c gray54",
".. c #8B8B8B",
"X. c gray55",
"o. c #8E8E8E",
"O. c gray56",
"+. c #909090",
"@. c #929292",
"#. c gray58",
"$. c #959595",
"%. c gray59",
"&. c #979797",
"*. c #989898",
"=. c gray60",
"-. c #9B9B9B",
";. c gray62",
":. c #9F9F9F",
">. c gray63",
",. c #A2A2A2",
"<. c gray64",
"1. c #A4A4A4",
"2. c #A7A7A7",
"3. c gray66",
"4. c #A9A9A9",
"5. c #AAAAAA",
"6. c #ACACAC",
"7. c #AEAEAE",
"8. c gray69",
"9. c #B2B2B2",
"0. c #B4B4B4",
"q. c gray72",
"w. c #BBBBBB",
"e. c #BCBCBC",
"r. c gray74",
"t. c gray75",
"y. c #C1C1C1",
"u. c gray76",
"i. c #C3C3C3",
"p. c #C5C5C5",
"a. c #C6C6C6",
"s. c gray78",
"d. c #C8C8C8",
"f. c #CACACA",
"g. c #CDCDCD",
"h. c #CECECE",
"j. c gray81",
"k. c #D0D0D0",
"l. c gray82",
"z. c #D2D2D2",
"x. c gray83",
"c. c #D5D5D5",
"v. c #D7D7D7",
"b. c #D8D8D8",
"n. c #DADADA",
"m. c gray86",
"M. c gainsboro",
"N. c #DDDDDD",
"B. c gray87",
"V. c gray88",
"C. c #E1E1E1",
"Z. c #E2E2E2",
"A. c #E4E4E4",
"S. c #E6E6E6",
"D. c #E7E7E7",
"F. c #E9E9E9",
"G. c #EAEAEA",
"H. c gray92",
"J. c #ECECEC",
"K. c gray93",
"L. c #EEEEEE",
"P. c #EFEFEF",
"I. c gray94",
"U. c #F1F1F1",
"Y. c #F3F3F3",
"T. c #F4F4F4",
"R. c gray96",
"E. c #F6F6F6",
"W. c gray97",
"Q. c #F8F8F8",
"!. c #F9F9F9",
"~. c gray98",
"^. c #FBFBFB",
"/. c gray99",
"(. c #FDFDFD",
"). c #FEFEFE",
/* pixels */
"                                                                                                              ",
"                                                                                                              ",
"                                                                                                              ",
"                                                                                                              ",
"                                                                                                              ",
"                                                                                                              ",
"                                                                                                              ",
"                                                                                                              ",
"                                                                                                              ",
"                                                                                                              ",
"                                                                                                              ",
"                      ).).W.).).                                                                              ",
"                    ).j.H e | M.W.                                                                            ",
"                    A.Q : : : B 5.H.).                                                                        ",
"                    c.g : : : : 6 Y u.W.).                                      A.w.j.                        ",
"                    c.g : 6 i 6 : : i { c.W.).                                  -.. . j.                      ",
"                    c.g : B w.{ i : : : v ,.H.).                                ).e . e ).                    ",
"                    c.g : B H.).u.Y e : : 6 H w.W.).                              j.. . |                     ",
"                    c.g : B A.    W.5.B 6 : : e ` c.W.).                            e . % ).                  ",
"                    c.g : B A.      ).A.-.B e : : i | c.W.                          { . . w.                  ",
"                    c.g : B A.          ).c.{ g 6 : : B ,.A.).                      c.. . H                   ",
"                    c.g : B A.              W.w.Y i : : e Y u.H.).                    & . %                   ",
"                    c.g : B A.                ).H.,.S e : : v -.c.W.                  v . . W.                ",
"                    c.g : B A.                    ).c.| g 6 : 6 H 9.A.).              H . . M.                ",
"                    j.g : B A.                        W.u.Q e : : i ` u.H.).          ` . . u.                ",
"                    c.g : B A.                            H.$.B 6 : : v $.M.).        -.. . 5.                ",
"                    j.g : B A.                              ).j.` g 6 : 6 Q H.        ,.. . ,.                ",
"                    c.g : B A.                                  H.-.i : : 6 j.        | . . w.                ",
"                    c.g : B A.                              ).M.-.S e : 6 H A.        Q . . c.                ",
"                    c.g : B A.                            W.9.Y i : : i ` u.).        S . . H.                ",
"                    c.g : B A.                        ).c.$.g : : e H ,.M.).          e . . ).                ",
"                    c.g : B A.                    ).A.5.H e : 6 v | j.W.            H.. . i                   ",
"                    c.g : B A.                ).H.w.` g : : g ` w.H.                ,.. . |                   ",
"                    c.g : B A.              W.j.$.B 6 : 6 B ,.A.).                  S . . M.                  ",
"                    c.g : B A.          ).M.,.H e : : g { u.W.                    H.@ . 6                     ",
"                    c.g : B A.      ).A.$.B 6 : : g | c.W.                        ` . . 5.                    ",
"                    c.g : B A.    H.9.H e : : e Q u.H.).                        W.@ . g                       ",
"                    c.g : S A.W.j.Q i : : 6 S 5.A.).                            | . . c.                      ",
"                    c.g : B w.$.v 6 : : v $.M.W.                                W.H.W.                        ",
"                    c.g : e v e : : i ` j.H.).                                                                ",
"                    c.g : : : : 6 H 9.A.).                                                                    ",
"                    A.Q : : : v -.M.W.                                                                        ",
"                    ).c.Y g $.A.W.                                                                            ",
"                      ).W.H.W.).                                                                              ",
"                                                                                                              ",
"                                                                                                              ",
"                                                                                                              ",
"                                                                                                              ",
"                                                                                                              ",
"                                                                                                              ",
"                                                                                                              ",
"                                                                                                              ",
"                                                                                                              ",
"                                                                                                              ",
"                                                                                                              "
};
