/* XPM */
static char *pop_to_backtrace_dark[] = {
/* columns rows colors chars-per-pixel */
"55 55 28 1 ",
"  c None",
". c #020202",
"X c #0C0C0C",
"o c gray7",
"O c #191919",
"+ c #232323",
"@ c gray16",
"# c #353535",
"$ c #3F3F3F",
"% c #444444",
"& c #4E4E4E",
"* c #515151",
"= c #585858",
"- c #676767",
"; c #6C6C6C",
": c #717171",
"> c gray50",
", c gray54",
"< c #939393",
"1 c #9F9F9F",
"2 c #A2A2A2",
"3 c gray69",
"4 c gray73",
"5 c #C6C6C6",
"6 c gray81",
"7 c gray82",
"8 c gray85",
"9 c #E1E1E1",
/* pixels */
"                                                       ",
"                                                       ",
"                                                       ",
"                                                       ",
"                                                       ",
"                                                       ",
"                                                       ",
"                                                       ",
"                                                       ",
"                                                       ",
"                                                       ",
"                                                       ",
"                                                       ",
"                                                       ",
"                                                       ",
"        ...                                            ",
"       .>8;X   .OOOOOOOOOOOOOOOOOOOOOOo.               ",
"       *788$. .:55555555555555555555553@               ",
"       :788*. .188888888888888888888887&               ",
"       +262O.  @;:::::::::::::::::::::=X               ",
"        O$o                                            ",
"                                                       ",
"                                                       ",
"                                                       ",
"            ..                                         ",
"           .@%+.   .ooooooooooooooooooooooX            ",
"           #361O.  #;:;;;;;;;;::::;;:;;;:;=o           ",
"           :989&. .<89888888888888888888887$           ",
"           %473@. .&,,,,,,,,,,,,,,,,,,,,,,>O           ",
"           X&-$.   .OOOOOOOOOOOOOOOOOOOOOOo            ",
"             .                                         ",
"                                                       ",
"                                                       ",
"                                                       ",
"                +$o.                                   ",
"               #24<o.  #;;;;;;;;;;;;;;;;;;;;;;*X       ",
"               :888%. .177666666667777666677765@       ",
"               -887#. .:55445455444455444455552O       ",
"               X>6=X   XOOOOOOOOOOOOOOOOOOOOOOo.       ",
"                .X.                          .         ",
"                                                       ",
"                                                       ",
"                                                       ",
"                                                       ",
"                                                       ",
"                                                       ",
"                                                       ",
"                                                       ",
"                                                       ",
"                                                       ",
"                                                       ",
"                                                       ",
"                                                       ",
"                                                       ",
"                                                       "
};
