/* XPM */
static char *previous_result[] = {
/* columns rows colors chars-per-pixel */
"55 55 110 2 ",
"   c None",
".  c #1B1B1B",
"X  c gray12",
"o  c #202020",
"O  c gray13",
"+  c #222222",
"@  c #232323",
"#  c gray14",
"$  c #252525",
"%  c gray15",
"&  c #282828",
"*  c gray16",
"=  c gray17",
"-  c #2C2C2C",
";  c gray18",
":  c #2F2F2F",
">  c gray19",
",  c #313131",
"<  c #323232",
"1  c #373737",
"2  c #393939",
"3  c #3A3A3A",
"4  c gray23",
"5  c gray24",
"6  c #3F3F3F",
"7  c #434343",
"8  c gray28",
"9  c #484848",
"0  c gray29",
"q  c #4B4B4B",
"w  c gray30",
"e  c #4E4E4E",
"r  c gray31",
"t  c #505050",
"y  c #515151",
"u  c #535353",
"i  c #565656",
"p  c gray34",
"a  c #585858",
"s  c #5D5D5D",
"d  c #5F5F5F",
"f  c gray45",
"g  c #777777",
"h  c gray49",
"j  c #818181",
"k  c gray53",
"l  c #888888",
"z  c #898989",
"x  c gray54",
"c  c #8B8B8B",
"v  c #979797",
"b  c #989898",
"n  c gray60",
"m  c #9A9A9A",
"M  c #9B9B9B",
"N  c gray61",
"B  c gray62",
"V  c #9F9F9F",
"C  c #A0A0A0",
"Z  c #A5A5A5",
"A  c #A9A9A9",
"S  c #AAAAAA",
"D  c #ACACAC",
"F  c #AFAFAF",
"G  c gray69",
"H  c #B1B1B1",
"J  c #B2B2B2",
"K  c gray70",
"L  c #B9B9B9",
"P  c gray",
"I  c #C0C0C0",
"U  c #C5C5C5",
"Y  c #C6C6C6",
"T  c gray78",
"R  c gray80",
"E  c #CECECE",
"W  c gray81",
"Q  c gray83",
"!  c #D5D5D5",
"~  c gray84",
"^  c #D7D7D7",
"/  c #D8D8D8",
"(  c #DADADA",
")  c gray86",
"_  c gainsboro",
"`  c #DDDDDD",
"'  c #DFDFDF",
"]  c #E1E1E1",
"[  c #E2E2E2",
"{  c #E4E4E4",
"}  c gray90",
"|  c #EAEAEA",
" . c gray92",
".. c gray93",
"X. c #EEEEEE",
"o. c #EFEFEF",
"O. c gray94",
"+. c #F1F1F1",
"@. c gray95",
"#. c #F4F4F4",
"$. c gray96",
"%. c #F6F6F6",
"&. c gray97",
"*. c #F8F8F8",
"=. c #F9F9F9",
"-. c gray98",
";. c #FBFBFB",
":. c gray99",
">. c #FDFDFD",
",. c #FEFEFE",
/* pixels */
"                                                                                                              ",
"                                                                                                              ",
"                                                                                                              ",
"                                                                                                              ",
"                                                                                                              ",
"                                                                                                              ",
"                                                                                                              ",
"                                                                                                              ",
"                                                                                                              ",
"                                                                                                              ",
"                                                                                                              ",
"                                                                                                              ",
"                                                                                                              ",
"                            -.` ~ ~ ~ ~ ~ ~ ~ ~ ~ ~ ~ ~ ~ ~ ~ ~ ~ ~ ~ ~ ~ ~ ~ ~ ~ ~ ~ ] -.                    ",
"                            ] d 0 0 0 0 0 0 0 0 0 0 0 0 0 0 0 0 0 0 0 0 0 0 0 0 0 0 0 j O.                    ",
"                            E 4 , , , , , , , , , , , , , , , , , , , , , , , , , , , d o.                    ",
"                            O.H B B B B B B B B B B B B B B B B B B B B B B B B B B Z U -.                    ",
"                                                                                                              ",
"                                                                                                              ",
"                                                                                                              ",
"                              O.O.O.O.O.O.O.O.O.O.O.O.O.O.O.O.O.O.O.O.O.O.O.O.O.O.O.O.-.                      ",
"                            o.B z z z z z z z z z z z z z z z z z z z z z z z z z z z A -.                    ",
"                            E , + + + + + + + + + + + + + + + + + + + + + + + + + + + t o.                    ",
"                            O.A v v v v v v v v v v v v v v v v v v v v v v v v v v B U -.                    ",
"                              O.O.o.O.O.O.O.O.O.O.O.O.O.O.O.O.O.O.O.O.O.O.O.O.O.O.o.O.-.                      ",
"                                                                                                              ",
"                                                                                                              ",
"                                                                                                              ",
"                            -.U H H H H H H H H H H H H H H H H H H H H H H H H H H H `                       ",
"                            E , - - - - - - - - - - - - - - - - - - - - - - - - - - - d o.                    ",
"                            ` 0 4 4 4 4 4 4 4 4 4 4 4 4 4 4 4 4 4 4 4 4 4 4 4 4 4 4 4 g O.                    ",
"                            -.] ` ` ` ` ` ` ` ` ` ` ` ` ` ` ` ` ` ` ` ` ` ` ` ` ` ` ` o.-.                    ",
"                                                                                                              ",
"          ~ z ` -.                                                                                            ",
"          B + 4 B o.            -.O.O.O.O.O.O.O.O.O.O.O.O.O.O.O.O.O.O.O.O.O.O.O.O.O.-.                        ",
"          B + + + d P -.    O.j t 0 0 0 0 0 0 0 0 0 0 0 0 0 0 0 0 0 0 0 0 0 0 0 0 0 t Z -.                    ",
"          B + + + + - h ] -.U - + + + + + + + + + + + + + + + + + + + + + + + + + + + 0 o.                    ",
"          B + + + + + . A O.P - + + + + + + + + + + + + + + + + + + + + + + + + + + + 8 ]                     ",
"          B + + + . - z o.-.U + + + + + + + + + + + + + + + + + + + + + + + + + + + . 8 o.                    ",
"          B + + + d E -.    O.j t t t t t t t t t t t t t t t t t t t t t t t t t t t A -.                    ",
"          B + 4 Z O.            -.-.-.-.-.-.-.-.-.-.-.-.-.-.-.-.-.-.-.-.-.-.-.-.-.-.                          ",
"          ~ g ` -.                                                                                            ",
"                                                                                                              ",
"                                                                                                              ",
"                                                                                                              ",
"                                                                                                              ",
"                                                                                                              ",
"                                                                                                              ",
"                                                                                                              ",
"                                                                                                              ",
"                                                                                                              ",
"                                                                                                              ",
"                                                                                                              ",
"                                                                                                              ",
"                                                                                                              "
};
