/* XPM */
static char *set_mode_dark[] = {
/* columns rows colors chars-per-pixel */
"55 55 30 1 ",
"  c None",
". c #020202",
"X c gray5",
"o c #111111",
"O c gray11",
"+ c gray14",
"@ c #282828",
"# c #323232",
"$ c #3E3E3E",
"% c gray27",
"& c gray30",
"* c #515151",
"= c #585858",
"- c #676767",
"; c gray42",
": c gray44",
"> c #7E7E7E",
", c gray53",
"< c #898989",
"1 c gray59",
"2 c #989898",
"3 c #A2A2A2",
"4 c #AEAEAE",
"5 c #B4B4B4",
"6 c gray75",
"7 c gray76",
"8 c gray81",
"9 c LightGray",
"0 c gray87",
"q c #E2E2E2",
/* pixels */
"                                                       ",
"                                                       ",
"                                                       ",
"                                                       ",
"                                                       ",
"                                                       ",
"                                                       ",
"                                                       ",
"                                                       ",
"                          ...                          ",
"                         .-0;.                         ",
"                         +909@                         ",
"                         @809@                         ",
"                         .-3-.                         ",
"             ..            .            ..             ",
"            .O$O.                     .O$O.            ",
"            o403o                     o304o            ",
"            $000@      .XoooooX.      @00q$            ",
"            O494o    .o$:14542:$o.    o395O            ",
"             O$o   .+-49qq000qq05-+.   o$O             ",
"                  .#20q974212479q02#.                  ",
"                 .$5q06<&+oXo+&<60q5$.                 ",
"                 @5q93%.       .%39q5@                 ",
"                X1q02+           +20q2X                ",
"                *004+             O400*                ",
"               X4q9%               %9q4X               ",
"               #0q2.               .2q0$               ",
"        .X     >q0%                 %0q>     X.        ",
"       O-;@    2q8O       +=@       O8q3.   @;-O       ",
"       :89,.  .4q6X      +18>       X6q5.  .,98>       ",
"       10q3.  .5q6X     +100:       X6q5.  .3qq2       ",
"       $13&   .3q7o    +100<+       X7q4.   &31$       ",
"        +@X    <q9@   +<00<+        @9q<    .@+        ",
"               =qq;  +<001+         -0q=               ",
"               O7q7O#500:o         O6q7O               ",
"               .>q01400:o         .,0q>.               ",
"                +60909:o         .-8q7+                ",
"                .*9006+         o;809*.                ",
"                 X;0091&o     o&1800;X                 ",
"                  o-8q972>-=->279q8;o                  ",
"              .    o%30q0988890q03&o    .              ",
"            .=1=.   .+*169000971=+.   .*1-.            ",
"            #909@     .XO#%&%#OX.     +809#            ",
"            @909+        .....        +900@            ",
"            .-9=.                     .=9;.            ",
"             .X.                       .X.             ",
"                                                       ",
"                                                       ",
"                                                       ",
"                                                       ",
"                                                       ",
"                                                       ",
"                                                       ",
"                                                       ",
"                                                       "
};
