/* XPM */
static char *set_breakpoint[] = {
/* columns rows colors chars-per-pixel */
"55 55 123 2 ",
"   c None",
".  c #232323",
"X  c gray14",
"o  c #252525",
"O  c gray15",
"+  c #272727",
"@  c #282828",
"#  c gray16",
"$  c #2A2A2A",
"%  c gray17",
"&  c #2C2C2C",
"*  c gray18",
"=  c #2F2F2F",
"-  c gray19",
";  c #323232",
":  c gray20",
">  c #343434",
",  c gray21",
"<  c #373737",
"1  c gray22",
"2  c #393939",
"3  c #3A3A3A",
"4  c gray23",
"5  c #3C3C3C",
"6  c gray24",
"7  c #3E3E3E",
"8  c gray25",
"9  c #414141",
"0  c #434343",
"q  c #444444",
"w  c #464646",
"e  c gray28",
"r  c #484848",
"t  c #494949",
"y  c gray29",
"u  c gray31",
"i  c #505050",
"p  c gray32",
"a  c #535353",
"s  c #555555",
"d  c gray34",
"f  c gray35",
"g  c gray37",
"h  c gray38",
"j  c gray39",
"k  c #656565",
"l  c #676767",
"z  c DimGray",
"x  c #6C6C6C",
"c  c #6D6D6D",
"v  c gray44",
"b  c gray47",
"n  c gray48",
"m  c #7C7C7C",
"M  c #7E7E7E",
"N  c gray50",
"B  c #808080",
"V  c #818181",
"C  c #848484",
"Z  c #868686",
"A  c gray53",
"S  c gray54",
"D  c #8B8B8B",
"F  c #8E8E8E",
"G  c #909090",
"H  c gray57",
"J  c #939393",
"K  c gray58",
"L  c gray59",
"P  c #979797",
"I  c gray60",
"U  c #9B9B9B",
"Y  c #9D9D9D",
"T  c gray63",
"R  c #A4A4A4",
"E  c #A5A5A5",
"W  c #A9A9A9",
"Q  c gray67",
"!  c #ACACAC",
"~  c gray69",
"^  c #B1B1B1",
"/  c #B2B2B2",
"(  c #B4B4B4",
")  c gray71",
"_  c gray73",
"`  c gray75",
"'  c gray76",
"]  c #C3C3C3",
"[  c gray77",
"{  c #C5C5C5",
"}  c gray78",
"|  c gray79",
" . c #CACACA",
".. c #CBCBCB",
"X. c gray80",
"o. c gray81",
"O. c #D0D0D0",
"+. c LightGray",
"@. c gray83",
"#. c #D5D5D5",
"$. c gray84",
"%. c #D7D7D7",
"&. c gray85",
"*. c gray87",
"=. c gray88",
"-. c #E1E1E1",
";. c #E2E2E2",
":. c #E4E4E4",
">. c gray90",
",. c #E6E6E6",
"<. c gray91",
"1. c #ECECEC",
"2. c #EFEFEF",
"3. c #F1F1F1",
"4. c #F3F3F3",
"5. c gray96",
"6. c #F6F6F6",
"7. c gray97",
"8. c #F8F8F8",
"9. c gray98",
"0. c #FBFBFB",
"q. c #FDFDFD",
"w. c #FEFEFE",
/* pixels */
"                                                                                                              ",
"                                                                                                              ",
"                                                                                                              ",
"                                                                                                              ",
"                                                                                                              ",
"                                                                                                              ",
"                                                                                                              ",
"                                                                                                              ",
"                                            q.4.:.+.' ` ' +.:.4.q.                                            ",
"                                      q.&.E n g r 7 : : : 7 r g n Q :.                                        ",
"                                    o.Z p : & O O O O O O O O O & 7 p K +.                                    ",
"                                :.Z 7 & O O O O O O O O O O O O O O O & 0 S <.                                ",
"                              ' p & O O O O O O O O O O O O O O O O O O O & g +.                              ",
"                            ^ 7 O O O O O O O O O O O O O O O O O O O O O O O p '                             ",
"                          ^ 7 O O O O O O O O O O O O O O O O O O O O O O O O O r '                           ",
"                        ' 0 O O O O O O O O O O O O O O O O O O O O O O O O O O O p +.                        ",
"                      :.p O O O O O O O O O O O O O O O O O O O O O O O O O O O O O h <.                      ",
"                    q.Z & O O O O O O O O O O O O O O O O O O O O O O O O O O O O O & K                       ",
"                    ' 7 O O O O O O O O O O O O O O O O O O O O O O O O O O O O O O O 0 +.                    ",
"                  q.z O O O O O O O O O O O O O O O O O O O O O O O O O O O O O O O O & Z q.                  ",
"                  o.: O O O O O O O O O O O O O O O O O O O O O O O O O O O O O O O O O 0 &.                  ",
"                  Z & O O O O O O O O O O O O O O O O O O O O O O O O O O O O O O O O O & E                   ",
"                q.p O O O O O O O O O O O O O O O O O O O O O O O O O O O O O O O O O O O z q.                ",
"                <.7 O O O O O O O O O O O O O O O O O O O O O O O O O O O O O O O O O O O r 4.                ",
"                o.& O O O O O O O O O O O O O O O O O O O O O O O O O O O O O O O O O O O 7 :.                ",
"                ^ & O O O O O O O O O O O O O O O O O O O O O O O O O O O O O O O O O O O : +.                ",
"                I O O O O O O O O O O O O O O O O O O O O O O O O O O O O O O O O O O O O & '                 ",
"                K O O O O O O O O O O O O O O O O O O O O O O O O O O O O O O O O O O O O & `                 ",
"                I O O O O O O O O O O O O O O O O O O O O O O O O O O O O O O O O O O O O & `                 ",
"                Q & O O O O O O O O O O O O O O O O O O O O O O O O O O O O O O O O O O O & +.                ",
"                o.& O O O O O O O O O O O O O O O O O O O O O O O O O O O O O O O O O O O : :.                ",
"                :.7 O O O O O O O O O O O O O O O O O O O O O O O O O O O O O O O O O O O 0 4.                ",
"                4.r O O O O O O O O O O O O O O O O O O O O O O O O O O O O O O O O O O O h q.                ",
"                  n & O O O O O O O O O O O O O O O O O O O O O O O O O O O O O O O O O & K                   ",
"                  ` : O O O O O O O O O O O O O O O O O O O O O O O O O O O O O O O O O 7 +.                  ",
"                  4.h O O O O O O O O O O O O O O O O O O O O O O O O O O O O O O O O & n q.                  ",
"                    ^ : O O O O O O O O O O O O O O O O O O O O O O O O O O O O O O O 7 o.                    ",
"                    q.z O O O O O O O O O O O O O O O O O O O O O O O O O O O O O O & Z q.                    ",
"                      +.0 O O O O O O O O O O O O O O O O O O O O O O O O O O O O O p :.                      ",
"                        ^ : O O O O O O O O O O O O O O O O O O O O O O O O O O O 0 '                         ",
"                          I : O O O O O O O O O O O O O O O O O O O O O O O O O 7 ^                           ",
"                          q.I & O O O O O O O O O O O O O O O O O O O O O O O 7 ^                             ",
"                              Q 7 O O O O O O O O O O O O O O O O O O O O O 0 '                               ",
"                                +.v : O O O O O O O O O O O O O O O O O : n :.                                ",
"                                  q.^ h : & O O O O O O O O O O O & 7 z ' q.                                  ",
"                                      4.' Z p 7 & & & O & & : 7 g S o.q.                                      ",
"                                            4.:.' E K S K Q o.:.q.                                            ",
"                                                                                                              ",
"                                                                                                              ",
"                                                                                                              ",
"                                                                                                              ",
"                                                                                                              ",
"                                                                                                              ",
"                                                                                                              ",
"                                                                                                              "
};
