/* XPM */
static char *step_mode[] = {
/* columns rows colors chars-per-pixel */
"55 55 156 2 ",
"   c None",
".  c gray12",
"X  c #202020",
"o  c gray13",
"O  c #222222",
"+  c #232323",
"@  c gray14",
"#  c #252525",
"$  c gray15",
"%  c #272727",
"&  c #282828",
"*  c gray16",
"=  c #2A2A2A",
"-  c #2C2C2C",
";  c #2D2D2D",
":  c gray18",
">  c #2F2F2F",
",  c #313131",
"<  c #323232",
"1  c #343434",
"2  c #353535",
"3  c gray21",
"4  c #373737",
"5  c gray22",
"6  c #393939",
"7  c #3A3A3A",
"8  c #3C3C3C",
"9  c gray24",
"0  c #3E3E3E",
"q  c #3F3F3F",
"w  c gray25",
"e  c #414141",
"r  c gray26",
"t  c #444444",
"y  c gray27",
"u  c #464646",
"i  c #484848",
"p  c #494949",
"a  c gray29",
"s  c #4B4B4B",
"d  c #4C4C4C",
"f  c gray30",
"g  c #4E4E4E",
"h  c gray31",
"j  c #505050",
"k  c #515151",
"l  c gray32",
"z  c gray33",
"x  c #565656",
"c  c gray34",
"v  c #585858",
"b  c gray35",
"n  c #5B5B5B",
"m  c gray37",
"M  c gray38",
"N  c gray39",
"B  c #646464",
"V  c #656565",
"C  c #676767",
"Z  c DimGray",
"A  c #6A6A6A",
"S  c gray43",
"D  c #6F6F6F",
"F  c gray44",
"G  c #717171",
"H  c #727272",
"J  c #747474",
"K  c gray47",
"L  c gray48",
"P  c gray49",
"I  c #7E7E7E",
"U  c gray50",
"Y  c #818181",
"T  c gray51",
"R  c #848484",
"E  c #868686",
"W  c gray53",
"Q  c #898989",
"!  c gray54",
"~  c gray55",
"^  c #8D8D8D",
"/  c gray57",
"(  c #929292",
")  c #939393",
"_  c #959595",
"`  c gray59",
"'  c #979797",
"]  c gray60",
"[  c gray62",
"{  c #9F9F9F",
"}  c #A0A0A0",
"|  c gray63",
" . c #A2A2A2",
".. c gray64",
"X. c #A4A4A4",
"o. c gray65",
"O. c gray66",
"+. c gray67",
"@. c gray68",
"#. c #AEAEAE",
"$. c #B1B1B1",
"%. c #B4B4B4",
"&. c gray71",
"*. c #B7B7B7",
"=. c gray72",
"-. c gray73",
";. c #BBBBBB",
":. c gray74",
">. c gray75",
",. c gray76",
"<. c #C3C3C3",
"1. c gray77",
"2. c #C5C5C5",
"3. c gray78",
"4. c gray79",
"5. c #CBCBCB",
"6. c gray80",
"7. c #CDCDCD",
"8. c gray81",
"9. c #D0D0D0",
"0. c #D2D2D2",
"q. c #D5D5D5",
"w. c #D7D7D7",
"e. c gray85",
"r. c #DADADA",
"t. c gray86",
"y. c #DDDDDD",
"u. c gray87",
"i. c #DFDFDF",
"p. c gray88",
"a. c #E2E2E2",
"s. c gray89",
"d. c #E4E4E4",
"f. c gray90",
"g. c #E6E6E6",
"h. c gray91",
"j. c #E9E9E9",
"k. c #EAEAEA",
"l. c gray92",
"z. c #ECECEC",
"x. c gray93",
"c. c #EEEEEE",
"v. c #EFEFEF",
"b. c gray94",
"n. c #F1F1F1",
"m. c #F4F4F4",
"M. c gray96",
"N. c #F6F6F6",
"B. c gray97",
"V. c #F8F8F8",
"C. c #F9F9F9",
"Z. c gray98",
"A. c #FBFBFB",
"S. c gray99",
"D. c #FDFDFD",
"F. c #FEFEFE",
/* pixels */
"                                                                                                              ",
"                                                                                                              ",
"                                                                                                              ",
"                                                                                                              ",
"                                                                                                              ",
"                                                                                                              ",
"                                                                                                              ",
"                                                                                                              ",
"                                                                                                              ",
"                                                                                                              ",
"                                                                                                              ",
"                                                                                                              ",
"                                                                                                              ",
"                            p.%.2.N.          N.2.X.5.N.                                                      ",
"                          z.W = y %.Z.      N.X.q o 1 G 5.Z.                                                  ",
"                          p.G o 1 X.Z.      p.G o o o o q ~ i.                                                ",
"                          p.G o 1 X.Z.      i.A o o o o o o p X.z.                                            ",
"                          p.G o 1 X.Z.      i.A o y W A = o o = M =.Z.                                        ",
"                          p.G o 1 X.Z.      i.A . p =.z.#.z o o o q P 9.Z.                                    ",
"                          p.G o 1 X.Z.      i.A . p =.Z.Z.p.( y o o o y ( p.                                  ",
"                          p.G o 1 X.Z.      i.A . p =.    Z.Z.9.P 1 o o = b %.N.                              ",
"                          p.G o 1 X.Z.      i.A . p =.        Z.N.=.b = o o 1 G 5.Z.                          ",
"                          p.G o 1 X.Z.      i.A . p =.            Z.p.] p o o o q ~ i.                        ",
"                          p.G o 1 X.Z.      i.A . p =.              Z.Z.9.W q o o o p X.z.                    ",
"                          p.G o 1 X.Z.      i.A o p =.                  Z.N.2.A = o o = M =.N.                ",
"                          p.G o 1 X.Z.      i.A . p =.                      Z.z.#.z o o o q W i.              ",
"                          p.G o 1 X.Z.      i.A . p =.                            p.( y o o o z p.            ",
"                          p.G o 1 X.Z.      i.A . p =.                                %.p o o o 2.            ",
"                          p.G o 1 X.Z.      i.A . p =.                            z.#.z = o o p i.            ",
"                          p.G o 1 X.Z.      i.A . p =.                        Z.2.M = o o o M 5.              ",
"                          p.G o 1 X.Z.      i.A . p =.                      i.W 1 o o o p X.z.                ",
"                          p.G o 1 X.Z.      i.A . p =.                  z.] y o o o q ~ p.                    ",
"                          p.G o 1 X.Z.      i.A . p =.              N.=.b o o o = A 5.Z.                      ",
"                          p.G o 1 X.Z.      i.A . p =.          Z.9.G = o o o z %.N.                          ",
"                          p.G o 1 X.Z.      i.A . p =.        p.( q o o o y ] z.                              ",
"                          p.G o 1 X.Z.      i.A . p =.    N.#.z o o o 1 P i.                                  ",
"                          p.G o 1 X.Z.      i.A . p =.Z.2.A = o o = M 2.Z.                                    ",
"                          p.G o 1 X.Z.      i.A o y ( W 1 o o o p #.z.                                        ",
"                          p.G o 1 X.Z.      i.A o = = o o o q ~ p.                                            ",
"                          p.G o 1 X.Z.      i.A o o o o = G 9.Z.                                              ",
"                          z.P o q #.Z.      N.( = o o b %.N.                                                  ",
"                          Z.5.P ( z.          z.( M X.z.                                                      ",
"                                                                                                              ",
"                                                                                                              ",
"                                                                                                              ",
"                                                                                                              ",
"                                                                                                              ",
"                                                                                                              ",
"                                                                                                              ",
"                                                                                                              ",
"                                                                                                              ",
"                                                                                                              ",
"                                                                                                              ",
"                                                                                                              ",
"                                                                                                              "
};
