/* XPM */
static char *step_in[] = {
/* columns rows colors chars-per-pixel */
"55 55 152 2 ",
"   c None",
".  c black",
"X  c #010101",
"o  c #020202",
"O  c #060606",
"+  c #070707",
"@  c gray3",
"#  c #0B0B0B",
"$  c #0C0C0C",
"%  c gray5",
"&  c gray7",
"*  c gray9",
"=  c #181818",
"-  c #191919",
";  c gray11",
":  c #1D1D1D",
">  c #1E1E1E",
",  c gray12",
"<  c #202020",
"1  c gray13",
"2  c #222222",
"3  c #232323",
"4  c gray14",
"5  c #252525",
"6  c gray15",
"7  c #282828",
"8  c gray16",
"9  c #2A2A2A",
"0  c gray17",
"q  c #2D2D2D",
"w  c gray18",
"e  c #2F2F2F",
"r  c gray19",
"t  c #313131",
"y  c #323232",
"u  c gray21",
"i  c gray22",
"p  c gray23",
"a  c gray24",
"s  c gray25",
"d  c #414141",
"f  c gray26",
"g  c #434343",
"h  c #464646",
"j  c gray28",
"k  c #494949",
"l  c #4B4B4B",
"z  c gray30",
"x  c #4E4E4E",
"c  c gray31",
"v  c #505050",
"b  c #515151",
"n  c gray32",
"m  c gray33",
"M  c #565656",
"N  c gray34",
"B  c #585858",
"V  c gray35",
"C  c #5A5A5A",
"Z  c #5B5B5B",
"A  c gray37",
"S  c #626262",
"D  c gray39",
"F  c #646464",
"G  c #656565",
"H  c #6A6A6A",
"J  c #6C6C6C",
"K  c #6D6D6D",
"L  c gray43",
"P  c gray44",
"I  c #727272",
"U  c gray46",
"Y  c #767676",
"T  c #777777",
"R  c #7C7C7C",
"E  c #7E7E7E",
"W  c #808080",
"Q  c #838383",
"!  c gray52",
"~  c #898989",
"^  c gray55",
"/  c #8E8E8E",
"(  c gray56",
")  c gray57",
"_  c #939393",
"`  c gray59",
"'  c #979797",
"]  c #9B9B9B",
"[  c #9D9D9D",
"{  c #A0A0A0",
"}  c gray63",
"|  c #A2A2A2",
" . c gray64",
".. c #A5A5A5",
"X. c gray66",
"o. c #AAAAAA",
"O. c gray67",
"+. c gray68",
"@. c #AEAEAE",
"#. c #AFAFAF",
"$. c gray69",
"%. c #B1B1B1",
"&. c gray70",
"*. c #B4B4B4",
"=. c gray71",
"-. c #B7B7B7",
";. c gray72",
":. c #B9B9B9",
">. c gray73",
",. c #BBBBBB",
"<. c #BCBCBC",
"1. c gray74",
"2. c gray",
"3. c gray75",
"4. c #C0C0C0",
"5. c #C1C1C1",
"6. c gray76",
"7. c #C5C5C5",
"8. c gray78",
"9. c gray79",
"0. c #CACACA",
"q. c gray80",
"w. c #CDCDCD",
"e. c gray82",
"r. c #D2D2D2",
"t. c gray83",
"y. c #D5D5D5",
"u. c #D8D8D8",
"i. c gray85",
"p. c gray86",
"a. c gainsboro",
"s. c gray87",
"d. c #DFDFDF",
"f. c gray89",
"g. c gray90",
"h. c #E7E7E7",
"j. c gray92",
"k. c gray93",
"l. c #EEEEEE",
"z. c gray94",
"x. c #F1F1F1",
"c. c gray95",
"v. c gray96",
"b. c #F6F6F6",
"n. c gray97",
"m. c #F8F8F8",
"M. c #F9F9F9",
"N. c gray98",
"B. c #FBFBFB",
"V. c gray99",
"C. c #FDFDFD",
"Z. c #FEFEFE",
/* pixels */
"                                                                                                              ",
"                                                                                                              ",
"                                                                                                              ",
"                                                                                                              ",
"                                                                                                              ",
"                                                                                                              ",
"                                                                                                              ",
"                                                                                                              ",
"                                                    m.g.S / m.                                                ",
"                                                    m.&.1 c a.                                                ",
"                                                    m.@.1 c a.                                                ",
"                                                    m.@.1 c a.                                                ",
"                                                    m.@.1 c a.                                                ",
"                                                    n.@.1 c a.                                                ",
"                                                    m.@.1 c a.                                                ",
"                                                    m.@.1 c a.                                                ",
"                            0.2.a.                  m.@.1 c a.                m.8.2.j.                        ",
"                          2.. . &.                  m.@.1 c a.                m.1 . v                         ",
"                        n.1 . c                     m.@.1 c a.                  &.. . @.                      ",
"                        T . . a.                    m.@.1 c a.                    c . , n.                    ",
"                      n.. . c                       m.@.1 c a.                    &.. . /                     ",
"                      | . . ]         n.m.          n.@.1 c a.          m.m.m.    m.@ . a                     ",
"                      c . . g.      g.&.t.m.        n.@.1 c a.        m.a.2.a.m.    v . . g.                  ",
"                    n.@ . t         ! 1 d @.m.      m.@.1 c a.      m.&.v 0 E m.    ] . . )                   ",
"                    a.. . S         2.c , a @.n.    m.@.1 c a.    m.&.v 1 d &.m.    0.. . T                   ",
"                    8.. . E         m.&.c , d @.n.  m.@.1 c a.  m.0.v 1 d | n.      g.. . B                   ",
"                    | . . )           m.&.c , d &.m.m.@.1 c a.m.0.L 1 d | j.        m.. . d                   ",
"                    ) . . &.            m.&.d 1 d 2.n.&.1 v a.t.T 0 d | j.            , . 0                   ",
"                    / . . 2.              m.t.B , d @.2.1 v 8.S 1 d 2.n.              1 . 1                   ",
"                    | . . |                 m.t.B 1 d T 0 d L 0 d | n.                @ . a                   ",
"                    2.. . /                   m.t.v 1 t 0 0 0 d | j.                n.. . v                   ",
"                    t.. . T                     m.0.B 1 1 1 t | j.                  a.. . L                   ",
"                    j.. . c                       m.0.B 1 t ! j.                    &.. . !                   ",
"                      1 . @ m.                      m.a.S / n.                      L . . 2.                  ",
"                      T . . 2.                        m.n.m.                        1 . * m.                  ",
"                      8.. . T                                                     a.. . B                     ",
"                      m., . * n.                                                  T . . @.                    ",
"                        ) . . )                                                 j.@ . 0 m.                    ",
"                        m.0 . , m.                                              ! . . 8.                      ",
"                          8.. . @.                                            n.* . B                         ",
"                            j.j.m.                                            m.j.j.m.                        ",
"                                                                                                              ",
"                                                                                                              ",
"                                                                                                              ",
"                                                                                                              ",
"                                                                                                              ",
"                                                                                                              ",
"                                                                                                              ",
"                                                                                                              ",
"                                                                                                              ",
"                                                                                                              ",
"                                                                                                              ",
"                                                                                                              ",
"                                                                                                              ",
"                                                                                                              "
};
