/* XPM */
static char *step_out_dark[] = {
/* columns rows colors chars-per-pixel */
"55 55 33 1 ",
"  c None",
". c #020202",
"X c #0E0E0E",
"o c #111111",
"O c gray10",
"+ c gray14",
"@ c gray18",
"# c #323232",
"$ c #393939",
"% c gray26",
"& c #494949",
"* c gray34",
"= c #5A5A5A",
"- c #646464",
"; c #6C6C6C",
": c gray46",
"> c #7E7E7E",
", c #838383",
"< c #8E8E8E",
"1 c gray57",
"2 c #989898",
"3 c gray63",
"4 c gray66",
"5 c #B1B1B1",
"6 c gray75",
"7 c #C6C6C6",
"8 c #CBCBCB",
"9 c gray83",
"0 c gray85",
"q c #E2E2E2",
"w c #ECECEC",
"e c gray97",
"r c white",
/* pixels */
"                                                       ",
"                                                       ",
"                                                       ",
"                                                       ",
"                                                       ",
"                                                       ",
"                                                       ",
"                                                       ",
"                                                       ",
"                          o%X                          ",
"                         O201O                         ",
"                        O20001o                        ",
"                       o109090<o                       ",
"                      O3q3<q,4q2o                      ",
"                     o2q6O:w;+6q2o                     ",
"             #%+    o2q7#.>w:.$8q1o   .$%o             ",
"            %rr&   o1q8%. >w: .&901X  .0r4             ",
"           X0r5   X<09&.  >w:  .*90<X  &rr*            ",
"           <rr+   ,q9%.   >w:   .&9q:   5rqX           ",
"          Xrr5    &3%.    >w:    .&4$   &rr:           ",
"          =rr-    .X.     >w:     .X.   .er7           ",
"          5rrO            >w:            4rrO          ",
"         Xer8             >w:            -rr;          ",
"         +rr2             >w:            #rr<          ",
"         $rr,             >w:            Orr3          ",
"         *rr;             >w:            .rr6          ",
"         ;rr&             >w:             qr9          ",
"         :rr%             >w:             0r0          ",
"         =rr=             >w:             er7          ",
"         %rr:             ,w:            Xrr4          ",
"         @rr<             >w:            +rr1          ",
"         orr5             :w;            &rr>          ",
"          0re.            O:O            1rr%          ",
"          <rr%                           0rw.          ",
"          $rr<                          +rr3           ",
"          .qrwX                         <rr*           ",
"           ;rr;                        oer9.           ",
"           .9rq.                       >rr$            ",
"            $rr*                      Xwr3             ",
"             oo.                      .oo.             ",
"                                                       ",
"                                                       ",
"                                                       ",
"                                                       ",
"                                                       ",
"                                                       ",
"                                                       ",
"                                                       ",
"                                                       ",
"                                                       ",
"                                                       ",
"                                                       ",
"                                                       ",
"                                                       ",
"                                                       "
};
