/* XPM */
static char *stop_dark[] = {
/* columns rows colors chars-per-pixel */
"55 55 15 1 ",
"  c None",
". c #020202",
"X c gray3",
"o c #131313",
"O c gray18",
"+ c #3F3F3F",
"@ c #414141",
"# c #515151",
"$ c #6F6F6F",
"% c gray44",
"& c #A5A5A5",
"* c #B7B7B7",
"= c #BBBBBB",
"- c #C5C5C5",
"; c gray86",
/* pixels */
"                                                       ",
"                                                       ",
"                                                       ",
"                                                       ",
"                                                       ",
"                                                       ",
"                                                       ",
"                                                       ",
"                                                       ",
"                                                       ",
"                                                       ",
"                                                       ",
"                   .O%#X       X#$O.                   ",
"                   X*;=@       @=;*X                   ",
"                   o;;-#       #-;;o                   ",
"                   o;;-#       #-;;o                   ",
"                   o;;-#       #-;;o                   ",
"                   o;;-#       #-;;o                   ",
"                   o;;-#       #-;;o                   ",
"                   o;;-#       #-;;o                   ",
"                   o;;-#       #-;;o                   ",
"                   o;;-#       #-;;o                   ",
"                   o;;-#       #-;;o                   ",
"                   o;;-#       #-;;o                   ",
"                   o;;-#       #-;;o                   ",
"                   o;;-#       #-;;o                   ",
"                   o;;-#       #-;;o                   ",
"                   o;;-#       #-;;o                   ",
"                   o;;-#       #-;;o                   ",
"                   o;;-#       #-;;o                   ",
"                   o;;-#       #-;;o                   ",
"                   o;;-#       #-;;o                   ",
"                   o;;-#       #-;;o                   ",
"                   o;;-#       #-;;o                   ",
"                   o;;-#       #-;;o                   ",
"                   o;;-#       #-;;o                   ",
"                   o;;-#       #-;;o                   ",
"                   o;;-#       #-;;o                   ",
"                   o;;-#       #-;;o                   ",
"                   o;;-#       #-;;o                   ",
"                   o;;-#       #-;;o                   ",
"                   o=;-@       @-;=X                   ",
"                   .+&%X       X%&+.                   ",
"                    ...         ...                    ",
"                                                       ",
"                                                       ",
"                                                       ",
"                                                       ",
"                                                       ",
"                                                       ",
"                                                       ",
"                                                       ",
"                                                       ",
"                                                       ",
"                                                       "
};
