/* XPM */
static char *top_level_nonstop[] = {
/* columns rows colors chars-per-pixel */
"55 55 117 2 ",
"   c None",
".  c #1D1D1D",
"X  c #1E1E1E",
"o  c gray12",
"O  c #202020",
"+  c gray13",
"@  c #222222",
"#  c #232323",
"$  c gray14",
"%  c #252525",
"&  c gray15",
"*  c #272727",
"=  c #282828",
"-  c gray16",
";  c #2A2A2A",
":  c gray17",
">  c #2D2D2D",
",  c gray18",
"<  c #323232",
"1  c #353535",
"2  c gray21",
"3  c gray22",
"4  c #393939",
"5  c #3A3A3A",
"6  c #3C3C3C",
"7  c #3E3E3E",
"8  c #3F3F3F",
"9  c #444444",
"0  c gray27",
"q  c #4B4B4B",
"w  c #4C4C4C",
"e  c gray30",
"r  c gray31",
"t  c #505050",
"y  c gray32",
"u  c gray35",
"i  c gray45",
"p  c #747474",
"a  c gray46",
"s  c #767676",
"d  c gray48",
"f  c #7B7B7B",
"g  c #7C7C7C",
"h  c gray49",
"j  c #7E7E7E",
"k  c gray50",
"l  c #808080",
"z  c gray51",
"x  c #838383",
"c  c #848484",
"v  c gray52",
"b  c #868686",
"n  c gray53",
"m  c #888888",
"M  c #898989",
"N  c #8B8B8B",
"B  c gray55",
"V  c #8D8D8D",
"C  c #8E8E8E",
"Z  c gray56",
"A  c gray57",
"S  c #939393",
"D  c #959595",
"F  c gray59",
"G  c #9B9B9B",
"H  c gray62",
"J  c #9F9F9F",
"K  c gray63",
"L  c #A2A2A2",
"P  c gray64",
"I  c #A5A5A5",
"U  c gray66",
"Y  c #AAAAAA",
"T  c gray67",
"R  c gray69",
"E  c gray70",
"W  c gray72",
"Q  c #BBBBBB",
"!  c #BCBCBC",
"~  c gray",
"^  c #C0C0C0",
"/  c #C6C6C6",
"(  c gray78",
")  c gray79",
"_  c #CACACA",
"`  c #CDCDCD",
"'  c #CECECE",
"]  c #D0D0D0",
"[  c gray82",
"{  c #D2D2D2",
"}  c LightGray",
"|  c gray84",
" . c gray85",
".. c #DADADA",
"X. c gray86",
"o. c #DDDDDD",
"O. c #DFDFDF",
"+. c gray88",
"@. c #E1E1E1",
"#. c #E4E4E4",
"$. c gray90",
"%. c #E6E6E6",
"&. c #ECECEC",
"*. c #EEEEEE",
"=. c gray95",
"-. c #F3F3F3",
";. c #F4F4F4",
":. c gray96",
">. c #F6F6F6",
",. c gray97",
"<. c #F8F8F8",
"1. c #F9F9F9",
"2. c gray98",
"3. c #FBFBFB",
"4. c gray99",
"5. c #FDFDFD",
"6. c #FEFEFE",
/* pixels */
"                                                                                                              ",
"                                                                                                              ",
"                                                                                                              ",
"                                                                                                              ",
"                                                                                                              ",
"                                                                                                              ",
"                                                                                                              ",
"                                                                                                              ",
"                                                                                                              ",
"                                                                                                              ",
"                        5.#.Q G A A A A A A A A A A A A A A A A A A A A A A A G Q #.5.                        ",
"                      *.n 7 : * * * * * * * * * * * * * * * * * * * * * * * * * : 7 n *.                      ",
"                    5.n : * * o o * o o * * * o o * * o o o o * * * * o o o o o * * : n 5.                    ",
"                    #.7 * * q m P P P P P P P P P P P P P P P P P P P P P P P m y * * 7 #.                    ",
"                    E : * q { =.=.=.=.=.=.=.=.=.=.=.=.=.=.=.=.=.=.=.=.=.=.=.=.=...q * : Y                     ",
"                    A * * m =.                                                  =.m o : m                     ",
"                    m * * G =.                                                  5.P o * n                     ",
"                    m * * G =.                                                  5.P o * n                     ",
"                    m * * P =.                                                  5.P o * n                     ",
"                    m * o G =.          ..( 5.                  5.( {           5.P o * n                     ",
"                    m * o G =.        ..9 : n =.                m : 7 _         5.P o * n                     ",
"                    m * * P =.        _ : * * n 5.            A * * * Q         5.P o * n                     ",
"                    m * * P =.        5.n * * * m 5.        A * * * n =.        5.P o * n                     ",
"                    m * * P =.          =.n * * * m 5.  5.A * * * j =.          5.P o * n                     ",
"                    m * o G =.            =.n * * * m =.A * * o j =.            5.P o * n                     ",
"                    m * o G =.              =.n o * : u : * o p =.              5.P o * n                     ",
"                    m * o G =.                =.j * * * * * p =.                5.P o * n                     ",
"                    m * o G =.                  5.q * * * 9 =.                  5.P o * n                     ",
"                    m * o G =.                5.n * * * * * j 5.                5.P o * n                     ",
"                    m * o G =.              5.m o * * q * * o j 5.              5.P o * n                     ",
"                    m * o G =.            5.m * * o j =.n o * o n 5.            5.P o * n                     ",
"                    m * * G =.          5.m * * o j 5.  5.n o * * n 5.          5.P o * n                     ",
"                    m * o G =.        5.m * * o j 5.      5.n o * * n 5.        5.P o * n                     ",
"                    m * o G =.        _ : * o p 5.          5.n * * * Q         5.P o * n                     ",
"                    m * o G =.        { 7 o p =.              5.j o 1 _         5.P o * n                     ",
"                    m * o G =.          { Q 5.                  5.Q _           5.P o * n                     ",
"                    m * * P =.                                                  5.P o * n                     ",
"                    m * * P =.                                                  5.P o * n                     ",
"                    m * o G =.                                                  5.P o * n                     ",
"                    m * o m =.                                                  5.m * * n                     ",
"                    E : * q ..5.5.5.5.5.5.5.5.5.5.5.5.5.5.5.5.5.5.5.5.5.5.5.5.5.#.q * : P                     ",
"                    #.7 * * q A Y Y Y Y Y Y P P Y P P P Y Y Y Y Y P P P Y Y Y A y * * 7 ..                    ",
"                    5.n : * * o o o o o o o o o o o o o o o o o o o o o o o o * * * : j 5.                    ",
"                      *.j 1 * * * * * * * * * * * * * * * * * * * * * * * * * * * 1 j *.                      ",
"                        5...Y j p p p p p p p p p p p p p p p p p p p p p p p j P ..5.                        ",
"                                                                                                              ",
"                                                                                                              ",
"                                                                                                              ",
"                                                                                                              ",
"                                                                                                              ",
"                                                                                                              ",
"                                                                                                              ",
"                                                                                                              ",
"                                                                                                              ",
"                                                                                                              "
};
