/* XPM */
static char *top_level_dark[] = {
/* columns rows colors chars-per-pixel */
"55 55 22 1 ",
"  c None",
". c #010101",
"X c #131313",
"o c #1E1E1E",
"O c #272727",
"+ c #373737",
"@ c gray29",
"# c gray32",
"$ c gray36",
"% c gray40",
"& c gray43",
"* c #747474",
"= c #7B7B7B",
"- c #838383",
"; c gray54",
": c gray61",
"> c gray68",
", c #B6B6B6",
"< c #B9B9B9",
"1 c #CDCDCD",
"2 c #D7D7D7",
"3 c gray85",
/* pixels */
"                                                       ",
"                                                       ",
"                                                       ",
"                                                       ",
"                                                       ",
"                                                       ",
"                                                       ",
"                                                       ",
"                                                       ",
"                                                       ",
"                                                       ",
"                                                       ",
"              X+@@@@@@@@@@@@@@@@@@@@@@@+X              ",
"            .#>1223333333333333333333221>@             ",
"            o<333333333333333333333333333,o            ",
"            $33333333333333333333333333332@            ",
"            -33333333333333333333333333333*            ",
"            ;33333333333333333333333333333=            ",
"            ;33333333333333333333333333333=            ",
"            ;33333333333333333333333333333=            ",
"            ;33333333333333333333333333333=            ",
"            ;33333333333333333333333333333=            ",
"            ;33333333333333333333333333333=            ",
"            ;33333333333333333333333333333=            ",
"            ;33333333333333333333333333333=            ",
"            ;33333333333333333333333333333=            ",
"            ;33333333333333333333333333333=            ",
"            ;33333333333333333333333333333=            ",
"            ;33333333333333333333333333333=            ",
"            ;33333333333333333333333333333=            ",
"            ;33333333333333333333333333333=            ",
"            ;33333333333333333333333333333=            ",
"            ;33333333333333333333333333333=            ",
"            ;33333333333333333333333333333=            ",
"            ;33333333333333333333333333333=            ",
"            ;33333333333333333333333333333=            ",
"            ;33333333333333333333333333333=            ",
"            ;33333333333333333333333333333=            ",
"            ;33333333333333333333333333333=            ",
"            &33333333333333333333333333333$            ",
"            O23333333333333333333333333332O            ",
"            .&233333333333333333333333332%             ",
"              +:12222222222222222222221:+              ",
"                                                       ",
"                                                       ",
"                                                       ",
"                                                       ",
"                                                       ",
"                                                       ",
"                                                       ",
"                                                       ",
"                                                       ",
"                                                       ",
"                                                       ",
"                                                       "
};
