/* XPM */
static char *trace_mode[] = {
/* columns rows colors chars-per-pixel */
"55 55 146 2 ",
"   c None",
".  c gray10",
"X  c #1B1B1B",
"o  c #1D1D1D",
"O  c #1E1E1E",
"+  c gray12",
"@  c #202020",
"#  c gray13",
"$  c #222222",
"%  c #232323",
"&  c gray14",
"*  c #252525",
"=  c gray15",
"-  c #272727",
";  c #282828",
":  c gray16",
">  c #2A2A2A",
",  c #2C2C2C",
"<  c #2D2D2D",
"1  c gray18",
"2  c #2F2F2F",
"3  c gray19",
"4  c #313131",
"5  c #353535",
"6  c gray21",
"7  c #393939",
"8  c gray24",
"9  c #3E3E3E",
"0  c #3F3F3F",
"q  c gray25",
"w  c #434343",
"e  c #444444",
"r  c gray28",
"t  c #494949",
"y  c gray31",
"u  c #505050",
"i  c #515151",
"p  c gray32",
"a  c #535353",
"s  c gray33",
"d  c #565656",
"f  c gray34",
"g  c #585858",
"h  c gray36",
"j  c gray37",
"k  c #5F5F5F",
"l  c #606060",
"z  c gray38",
"x  c #626262",
"c  c gray39",
"v  c #656565",
"b  c gray40",
"n  c #686868",
"m  c #6A6A6A",
"M  c gray42",
"N  c #6C6C6C",
"B  c #6D6D6D",
"V  c gray43",
"C  c gray45",
"Z  c #747474",
"A  c gray46",
"S  c #767676",
"D  c gray47",
"F  c gray48",
"G  c #7B7B7B",
"H  c #7C7C7C",
"J  c gray50",
"K  c #818181",
"L  c #838383",
"P  c gray52",
"I  c #868686",
"U  c gray53",
"Y  c #888888",
"T  c #898989",
"R  c gray55",
"E  c #8E8E8E",
"W  c #939393",
"Q  c gray58",
"!  c #959595",
"~  c gray60",
"^  c #9A9A9A",
"/  c #9D9D9D",
"(  c gray62",
")  c #A2A2A2",
"_  c #A4A4A4",
"`  c #A5A5A5",
"'  c #A9A9A9",
"]  c #ACACAC",
"[  c gray68",
"{  c gray69",
"}  c #B1B1B1",
"|  c #B4B4B4",
" . c gray71",
".. c #B6B6B6",
"X. c #B7B7B7",
"o. c #BBBBBB",
"O. c #BCBCBC",
"+. c gray74",
"@. c gray",
"#. c #C0C0C0",
"$. c #C1C1C1",
"%. c gray76",
"&. c #C3C3C3",
"*. c gray77",
"=. c #C6C6C6",
"-. c gray78",
";. c #CECECE",
":. c gray81",
">. c gray82",
",. c LightGray",
"<. c gray83",
"1. c #D5D5D5",
"2. c gray84",
"3. c #D8D8D8",
"4. c gray85",
"5. c gray86",
"6. c gainsboro",
"7. c #DDDDDD",
"8. c gray87",
"9. c #DFDFDF",
"0. c #E1E1E1",
"q. c gray89",
"w. c #E4E4E4",
"e. c gray90",
"r. c #E6E6E6",
"t. c #EAEAEA",
"y. c gray92",
"u. c #ECECEC",
"i. c gray93",
"p. c #EEEEEE",
"a. c #EFEFEF",
"s. c gray94",
"d. c #F1F1F1",
"f. c gray95",
"g. c #F3F3F3",
"h. c #F4F4F4",
"j. c gray96",
"k. c #F6F6F6",
"l. c gray97",
"z. c #F8F8F8",
"x. c #F9F9F9",
"c. c gray98",
"v. c #FBFBFB",
"b. c gray99",
"n. c #FDFDFD",
"m. c #FEFEFE",
/* pixels */
"                                                                                                              ",
"                                                                                                              ",
"                                                                                                              ",
"                                                                                                              ",
"                                                                                                              ",
"                                      b.h.i.i.i.i.i.i.i.i.i.i.i.i.i.h.b.                                      ",
"                                      8.K k k k k k k k k k k k k c K 0.                                      ",
"                                    b.m X # # # # # # # # # # # # # X H b.                                    ",
"                                    h.E H H H H H H H H H H H H H H H E b.                                    ",
"                                                                                                              ",
"                                b.i.i.i.i.i.i.i.i.i.i.i.i.i.i.i.i.i.i.i.i.i.b.                                ",
"                              b...m s s s s s s s s s s s s s s s s s s s m O.b.                              ",
"                              O.: X # # # # # # # # # # # # # # # # # # # X : #.                              ",
"                              E s k k k k k k k k k k k k k k k k k k k k k s ^                               ",
"                              h.b.b.b.b.b.b.b.b.b.b.b.b.b.b.b.b.b.b.b.b.b.b.h.h.                              ",
"                              b.b.h.h.h.h.h.h.h.h.h.h.h.h.h.h.h.b.b.b.h.h.h.b.b.                              ",
"                          h.8.#...............................................#.8.h.                          ",
"                        i.^ s 6 : : : : : : : : : : : : : : : : : : : : : : : 6 k ` i.                        ",
"                      b.E # # # # : : : : : : : : : : : : : : : : : : : : : # # X : ^ b.                      ",
"                      2.: # : r m C C C C C C C C C C C C C C C C C C C C C c r # # 6 8.                      ",
"                      ^ X # t #.h.b.b.b.b.b.b.b.b.b.b.b.b.b.b.b.b.b.b.b.b.b.h.O.7 # X ]                       ",
"                      H X X ^                                                   E X X E                       ",
"                      m X # O.                                                  ] X X H                       ",
"                      m X # #.                                                  ..X X H                       ",
"                      m X # #.              b.b.                                ..X X H                       ",
"                      m X # #.              2...8.b.                            ..X X H                       ",
"                      m X # #.              c # t E ;.b.                        ..X X H                       ",
"                      m X # #.              s X # : k ` 0.                      ..X X H                       ",
"                      m X # #.              s # # # # 7 C O.h.                  ..X X H                       ",
"                      m X # #.              s # # # # # # t E ;.b.              ..X X H                       ",
"                      m X # #.              s # : # # # # # : k ` 0.            ..X X H                       ",
"                      m X # #.              s # : : # # # # # # 7 C #.b.        ] X X H                       ",
"                      m X # #.              s # # # # # # # # # # # k h.        ..X X H                       ",
"                      m X # #.              s # # # # # # # # # # : m h.        ..X X H                       ",
"                      m X # #.              s # # # # # # # # # s Q 8.b.        ..X X H                       ",
"                      m X # #.              s # # # # # # # 7 H #.h.            ..X X H                       ",
"                      m X # #.              s # : : # # 6 c ] 0.                ..X X H                       ",
"                      m X # #.              s # : # : s Q 2.b.                  ..X X H                       ",
"                      m X # #.              s X # 7 H #.h.                      ..X X H                       ",
"                      m X # #.              K r E 2.h.                          ..X X H                       ",
"                      m X # #.              0.2.i.                              ..X X H                       ",
"                      m X # #.                                                  ..X X H                       ",
"                      m X # #.                                                  ..X X H                       ",
"                      m X X ..                                                  ` X X H                       ",
"                      K X X C b.                                              h.c # X Q                       ",
"                      ..# # 6 K ..#.#.#.#.#.#.#.#.#.#.#.#.#.#.#.#.#.#.#.#.#...H : # # #.                      ",
"                      i.s X # : 7 r r r r r r r r r r r r r r r r r r r r r 7 : # X k h.                      ",
"                      b.#.s # X X X X X X X X X X X X X X X X X X X X X X X X X # s ;.                        ",
"                        b.2.^ C c k k k k k k k k k k k k k k k k k k k k k c C ` 8.b.                        ",
"                            h.0.8.8.8.8.8.8.8.8.8.8.8.8.8.8.8.8.8.8.8.8.8.8.8.0.h.                            ",
"                                                                                                              ",
"                                                                                                              ",
"                                                                                                              ",
"                                                                                                              ",
"                                                                                                              "
};
