/* XPM */
static char *unset_all_breakpoints_dark[] = {
/* columns rows colors chars-per-pixel */
"55 55 33 1 ",
"  c None",
". c gray1",
"X c #090909",
"o c gray9",
"O c #1B1B1B",
"+ c #202020",
"@ c #2D2D2D",
"# c gray19",
"$ c gray24",
"% c #444444",
"& c gray31",
"* c #535353",
"= c #5F5F5F",
"- c #676767",
"; c #6A6A6A",
": c #777777",
"> c gray47",
", c gray52",
"< c #8D8D8D",
"1 c #909090",
"2 c gray62",
"3 c #A2A2A2",
"4 c gray68",
"5 c #B2B2B2",
"6 c #BBBBBB",
"7 c #C6C6C6",
"8 c gray81",
"9 c gray84",
"0 c #D8D8D8",
"q c #E4E4E4",
"w c #E9E9E9",
"e c gray95",
"r c white",
/* pixels */
"                                                       ",
"                                                       ",
"                                                       ",
"                                                       ",
"                                                       ",
"                                                       ",
"                                                       ",
"                                                       ",
"         .                                             ",
"        &e4X     .XO@+o.       .o+@OX                  ",
"        1rr6X   o*<6971-O     +;2896<&X                ",
"        +qrr5. o:7000008,O   @18000005-X               ",
"         +qrr5X-809534900>X o1008435907*.              ",
"          @wrr6609,%@$:809# &007;$@&1004O              ",
"           @wrreq3+.  o<0q>.1q0>X  .@508&              ",
"            #wrre=.    $0q3.609+    .:q9;              ",
"             #rrr7.    %002.600@    .>q9;              ",
"              ,rrr3.  X<0q> 1q0:.  .O508&              ",
"              @8rrr4O@>809# &007;@O$1005O              ",
"              X;0rrr0580q,X o1q08436908*.              ",
"               o:0rrreq0<O   +20q00qq7-X               ",
"           .+#@oX#4rrr8%XX@#@Xo*2674>@XO##O.           ",
"         .%<6875:Oo=rrr<-47873=XoOOoX+,5786,#          ",
"        .-60000094+.*rrrw000009,X ..#50000095*.        ",
"        *6007460002o =rrrw647009:..O5009548005%        ",
"       X2902#oO=700*.$0rrr,o+>007@.;006*OO$409<.       ",
"       @705#.  .-902X,0wrrr;..2q0;X508&.  .$706O       ",
"       %90,O    +706o300,rrr- *q0<O805o    O1q8#       ",
"       &9q>o    +706o300#-rrr-&q0<O805o    O1q8#       ",
"       @804@    =9q3X<0q: ;rrr6q0;X608%   .#606O       ",
"       X4001O..&60q-.&909=X:rrrw9#.>q05$..+2092X       ",
"       .-80062380q5O X2009419rrr4..+7008327007&        ",
"        .;800000q6@.  O3q00q0wrrr* .$8q0q00q7=.        ",
"         .&39008,O .X. X:700065rrr*..@180092$          ",
"           .@$#o.+>465,# X#$@X 3rrr7;O.O$$+.           ",
"                *7qq00q9;    .>0errrw6%                ",
"               *800090q0q-  .>q00wrrrq7$               ",
"              O5004&+$2009+ $0001#3rrrq3X              ",
"              =905O   X20q: <q0,. .2rrr0%              ",
"              ,9q;.    &0q2.500@   .3rrr,              ",
"              <9q*.    #0q3X609O    .8rre@             ",
"              :9q,X   .-0q1.4q0&.   X2errw@            ",
"              %808%X..@60q= :q04+..X*90wrrw@           ",
"              X2008,->7005o +7006:-<909<5rrq+          ",
"               @4900qq006#   &800qq0092O.5rrq+         ",
"                +<890983#     %499097,O  X6rrqO        ",
"                 .@=:-#X       X#;:*+.    X7rr1        ",
"                                           X5e*        ",
"                                             .         ",
"                                                       ",
"                                                       ",
"                                                       ",
"                                                       ",
"                                                       ",
"                                                       "
};
