/* XPM */
static char *unset_breakpoint[] = {
/* columns rows colors chars-per-pixel */
"55 55 183 2 ",
"   c None",
".  c gray11",
"X  c #1D1D1D",
"o  c #1E1E1E",
"O  c gray12",
"+  c #202020",
"@  c gray13",
"#  c #222222",
"$  c #232323",
"%  c gray14",
"&  c #252525",
"*  c gray15",
"=  c #272727",
"-  c #282828",
";  c gray16",
":  c #2A2A2A",
">  c gray17",
",  c #2D2D2D",
"<  c gray18",
"1  c #2F2F2F",
"2  c gray19",
"3  c #313131",
"4  c gray20",
"5  c #343434",
"6  c #353535",
"7  c gray21",
"8  c #373737",
"9  c gray22",
"0  c #393939",
"q  c #3A3A3A",
"w  c gray23",
"e  c #3C3C3C",
"r  c gray24",
"t  c #3E3E3E",
"y  c #414141",
"u  c gray26",
"i  c #434343",
"p  c #444444",
"a  c gray27",
"s  c #464646",
"d  c gray28",
"f  c #484848",
"g  c gray29",
"h  c #4B4B4B",
"j  c #4C4C4C",
"k  c gray30",
"l  c gray31",
"z  c #505050",
"x  c #535353",
"c  c #565656",
"v  c gray34",
"b  c gray35",
"n  c #5A5A5A",
"m  c #5B5B5B",
"M  c gray36",
"N  c gray37",
"B  c #606060",
"V  c gray38",
"C  c #626262",
"Z  c gray39",
"A  c #646464",
"S  c #656565",
"D  c gray40",
"F  c #676767",
"G  c #686868",
"H  c DimGray",
"J  c #6A6A6A",
"K  c #6C6C6C",
"L  c #6D6D6D",
"P  c #6F6F6F",
"I  c gray44",
"U  c #717171",
"Y  c #727272",
"T  c gray45",
"R  c #747474",
"E  c gray46",
"W  c #767676",
"Q  c #777777",
"!  c gray47",
"~  c #797979",
"^  c gray48",
"/  c #7B7B7B",
"(  c #7C7C7C",
")  c #7E7E7E",
"_  c gray50",
"`  c #808080",
"'  c #818181",
"]  c gray51",
"[  c #848484",
"{  c #868686",
"}  c #888888",
"|  c #898989",
" . c gray54",
".. c #8B8B8B",
"X. c gray55",
"o. c #8E8E8E",
"O. c gray56",
"+. c #909090",
"@. c gray57",
"#. c #989898",
"$. c gray60",
"%. c #9A9A9A",
"&. c #9B9B9B",
"*. c gray61",
"=. c gray62",
"-. c #A0A0A0",
";. c #A2A2A2",
":. c gray64",
">. c #A4A4A4",
",. c #A5A5A5",
"<. c gray65",
"1. c #A7A7A7",
"2. c gray66",
"3. c gray67",
"4. c #ACACAC",
"5. c gray68",
"6. c #AFAFAF",
"7. c gray69",
"8. c #B6B6B6",
"9. c gray72",
"0. c #B9B9B9",
"q. c gray73",
"w. c #BBBBBB",
"e. c gray75",
"r. c #C0C0C0",
"t. c #C1C1C1",
"y. c #C3C3C3",
"u. c gray77",
"i. c #C5C5C5",
"p. c #C6C6C6",
"a. c gray78",
"s. c #C8C8C8",
"d. c gray79",
"f. c #CACACA",
"g. c #CBCBCB",
"h. c gray80",
"j. c #CECECE",
"k. c gray81",
"l. c #D0D0D0",
"z. c gray82",
"x. c #D2D2D2",
"c. c LightGray",
"v. c gray83",
"b. c #D5D5D5",
"n. c gray84",
"m. c #D7D7D7",
"M. c #D8D8D8",
"N. c gray85",
"B. c #DADADA",
"V. c gray86",
"C. c gainsboro",
"Z. c #DDDDDD",
"A. c gray87",
"S. c #DFDFDF",
"D. c gray88",
"F. c #E1E1E1",
"G. c #E2E2E2",
"H. c gray89",
"J. c #E4E4E4",
"K. c gray90",
"L. c #E6E6E6",
"P. c #E7E7E7",
"I. c gray91",
"U. c #E9E9E9",
"Y. c #EAEAEA",
"T. c gray92",
"R. c gray93",
"E. c #EEEEEE",
"W. c #EFEFEF",
"Q. c gray94",
"!. c #F1F1F1",
"~. c gray95",
"^. c #F3F3F3",
"/. c #F4F4F4",
"(. c gray96",
"). c gray97",
"_. c #F8F8F8",
"`. c #F9F9F9",
"'. c gray98",
"]. c #FBFBFB",
"[. c gray99",
"{. c #FDFDFD",
"}. c #FEFEFE",
/* pixels */
"                                                                                                              ",
"                                                                                                              ",
"                                                                                                              ",
"                                                                                                              ",
"                                                                                                              ",
"                                                                                                              ",
"                                                                                                              ",
"                                                      `.                                                      ",
"                  `.(.`.                  `.`.(.T.P.P.Z.P.P.T.(.`.`.                                          ",
"                `.k. .>.T.            (.Z.i.$.T v a q q q a v T $.i.Z.(.                                      ",
"                T. .. 5  .T.      `.P.>.G q # . . # # # # . . . # q A >.P.`.                                  ",
"                (.>.5 # 5  .T.  `.k.T , . # , 5 q a j j j a q 5 , # . , T i.T.`.                              ",
"                  P. .5 # 5  .T.(.5.q # , a A  .5.i.c.Z.c.i.5. .A a , # # a $.P.`.                            ",
"                    T. .5 # 5  .T.T.$.v ^ q.T.`.              `.T.q.^ a # # , ` Z.`.                          ",
"                      T. .5 # 5  .T.(.c.T.                          (.q.v , # # ^ Z.`.                        ",
"                        T. .5 # 5  .T.                                  k.G 5 # # ` P.`.                      ",
"                      `.(.T. .5 # 5  .(.                                  Z.T 5 # , $.T.                      ",
"                    `.c.7.T.T. .5 # 5 5.(.                                  Z.G , # a i.`.                    ",
"                    P.T q >.(.T. .5 # j 5.(.                                  k.v , # T P.                    ",
"                  `.7.5 # j c.  T. .5 # j 5.(.                                `.>.q # 5 7.(.                  ",
"                  P.^ # , G P.    T. ., # j 5.(.                                T.G , # T P.                  ",
"                `.k.a # q 5.        T.T , # j 5.(.                                5.q # a k.`.                ",
"                (.>.# # b P.          c.T , # j 5.(.                              P.b # # >.(.                ",
"                P.^ . , ` `.            c.T , # j 5.(.                            `.` , . ^ P.                ",
"                Z.b . q >.                c.T , # j 5.(.                            >.5 . b Z.                ",
"                c.j . a q.                  c.T , # j 5.(.                          i.a . j c.                ",
"              `.k.q # j c.                    P. .q # q +.P.                        c.j # q k.`.              ",
"              `.k.q # j c.                      P. .q # q +.P.                      c.j # q i.`.              ",
"              `.k.q # j c.                        P. .q # q +.P.                    c.j # q k.`.              ",
"                c.a # a i.                          P. .q # q +.P.                  i.a # a c.                ",
"                Z.b . q 5.                            P. .q # q +.P.                5.q . v Z.                ",
"                P.T . 5  .`.                            P. .q # q +.P.            `. .5 . T P.                ",
"                (.$.# , A T.                            `.P. .q # q +.P.          T.A , # $.(.                ",
"                `.i.q # a q.                              `.P. .q # q +.(.        q.a # q i.`.                ",
"                  P.G # , ^ (.                                P. .q # q 5.(.    T.^ , # G Z.                  ",
"                  (.5., # a q.`.                                P. .q # j 5.(.  c.j # , >.(.                  ",
"                  `.Z.A . , A Z.                                  P. .q # j 5.(.P.^ 5 A Z.`.                  ",
"                    (.7.q # 5 ` P.                                  P. ., # j 5.(.Z. .q.(.                    ",
"                      P.` , # q +.P.                                  P.T , # j 5.(.P.(.`.                    ",
"                      `.c.G # # q  .Z.                                  c.T , # j 5.(.                        ",
"                        `.k.A # # 5 T c.(.                          (.P.(.c.G , # j 5.(.                      ",
"                          (.i.A , # , A $.c.T.`.              `.(.c.$.T q.(.c.T , # j 5.(.                    ",
"                            `.k.^ q # # q A  .5.i.c.Z.P.P.c.i.5. .A q # v i.`.c.G , # j 5.(.                  ",
"                              `.T.i.T , . # , 5 q a j j j a q 5 , # . , T c.`.  P. .5 # 5 5.(.                ",
"                                  `.P.>.G q # . . # # # # # . . # q G >.P.`.      T. .5 . +.T.                ",
"                                      (.P.i.$.T b a q q q a b T $.i.P.(.            T.>. .c.`.                ",
"                                          `.(.P.Z.c.k.k.k.c.Z.P.(.`.                  (.T.`.                  ",
"                                                    `.`.`.                                                    ",
"                                                                                                              ",
"                                                                                                              ",
"                                                                                                              ",
"                                                                                                              ",
"                                                                                                              ",
"                                                                                                              ",
"                                                                                                              "
};
