/* XPM */
static char *update_eval_list_dark[] = {
/* columns rows colors chars-per-pixel */
"55 55 30 1 ",
"  c None",
". c #040404",
"X c gray3",
"o c #151515",
"O c gray11",
"+ c #232323",
"@ c #2A2A2A",
"# c #313131",
"$ c #3E3E3E",
"% c gray27",
"& c gray30",
"* c #505050",
"= c gray36",
"- c #646464",
"; c #6A6A6A",
": c #777777",
"> c gray49",
", c #868686",
"< c gray54",
"1 c #939393",
"2 c gray60",
"3 c gray63",
"4 c #AEAEAE",
"5 c gray71",
"6 c #B9B9B9",
"7 c #C3C3C3",
"8 c gray81",
"9 c #D2D2D2",
"0 c gray86",
"q c gray88",
/* pixels */
"                                                       ",
"                                                       ",
"                                                       ",
"                                                       ",
"                                                       ",
"                                                       ",
"                                                       ",
"                                                       ",
"                                                       ",
"                                                       ",
"              .o#&*******************%@o.              ",
"             #,5890000000000000000000974:+             ",
"            &590q00000000000000000000q0083#            ",
"           #60083>;-----------------;,59093O           ",
"          .<005&+ooXXXooooXXXXXXXXoXoO@-809-           ",
"          O709&X                       o:003X          ",
"          &003X                        .O708+          ",
"          ,0q:.                         X209#          ",
"          30q=.           X@.           X<q9%          ",
"          40q*.          X28:.          .,q0*          ",
"          500*.          +906X          .,q0=          ",
"          500*.          +907X          .>q0=          ",
"          500*.          @907X          .>q0=          ",
"          500*.          @907X          .>q0=          ",
"          500*.          +907.          .>q0=          ",
"          500*.    X+++++%907@++++O.    .>q0=          ",
"          500*.   X2888888000888888>.   .>q0=          ",
"          500*.   +000000000000000q7X   .>q0=          ",
"          500*.   X<777777009777777:.   .>q0=          ",
"          500*.    XOOOOO$907+OOOOO.    .>q0=          ",
"          500*.      ....+907X....      .>q0=          ",
"          500*.          @907X          X>q0=          ",
"          500*.          @907X          .>q0=          ",
"          500*.          @907X          .>q0=          ",
"          500*.          +9q7X          .>q0=          ",
"          40q*.          X19:.          .,q0*          ",
"          30q=.           .o            X,q0%          ",
"          ,0q:.                         X209#          ",
"          &9q2X                         o708+          ",
"          O809#                        .=005X          ",
"          .2006#                      X*800:           ",
"           #80093:=*****************=>50006O           ",
"            *800qqqqqqqqqqqqqqqqqqqqqq0006#            ",
"             #18900000000000000000000096,+             ",
"              .O%:133333333333333332<;$o               ",
"                                                       ",
"                                                       ",
"                                                       ",
"                                                       ",
"                                                       ",
"                                                       ",
"                                                       ",
"                                                       ",
"                                                       ",
"                                                       "
};
