/* XPM */
static char *view_outside_dark[] = {
/* columns rows colors chars-per-pixel */
"55 55 31 1 ",
"  c None",
". c #020202",
"X c #0B0B0B",
"o c #161616",
"O c #1B1B1B",
"+ c gray14",
"@ c #2F2F2F",
"# c #313131",
"$ c gray23",
"% c gray27",
"& c gray30",
"* c #565656",
"= c gray36",
"- c gray40",
"; c #6F6F6F",
": c #727272",
"> c gray48",
", c #848484",
"< c gray55",
"1 c #909090",
"2 c #9F9F9F",
"3 c #A2A2A2",
"4 c #AFAFAF",
"5 c gray70",
"6 c gray72",
"7 c #C3C3C3",
"8 c #CECECE",
"9 c gray82",
"0 c gray87",
"q c #E2E2E2",
"w c gray91",
/* pixels */
"                                                       ",
"                                                       ",
"                                                       ",
"                                                       ",
"                                                       ",
"                                                       ",
"                                                       ",
"                                                       ",
"                                                       ",
"                                                       ",
"                                                       ",
"                                                       ",
"                                                       ",
"                                                       ",
"                                                       ",
"                                                       ",
"                                                       ",
"                               .Xo                     ",
"                              .*66;.                   ",
"                              %8879-                   ",
"                             O79%@79%                  ",
"                            X30-..&06+                 ",
"                 O&@.       >w<X  X;q1X                ",
"                #4q9=.     *q6o    X10:.               ",
"               O49189%.   @89#. .X .O58&               ",
"              X10>X%97@. o5q-.o;55>O.&06@              ",
"             .>02O .-04O.1q96:59,>87>3903o             ",
"             -05O X  >q1;w2+<71# .+,62$>q<.            ",
"            &87@@175*X10q7O  .      .  O30;            ",
"           @708394*<04400$             .@78$           ",
"          o40;*,*X  #,9q-               .&93O          ",
"         X,q,X       :q1.                X;0<X         ",
"        .;92o       *05O                  o29;.        ",
"        &86+.      @89#.                  .#67&        ",
"       o57%.      X40*.                    .&84o       ",
"       %02&$$$$$$$-06%$$$$$$$$$$$$$$$$$$$$$$&49$       ",
"       @600000000099000000000000000000000000006+       ",
"        $<33444433433444443433434434334344444<#        ",
"                                                       ",
"                                                       ",
"                                                       ",
"                                                       ",
"                                                       ",
"                                                       ",
"                                                       ",
"                                                       ",
"                                                       ",
"                                                       ",
"                                                       ",
"                                                       ",
"                                                       ",
"                                                       ",
"                                                       ",
"                                                       ",
"                                                       "
};
