/* XPM */
static char *visit_eval_list[] = {
/* columns rows colors chars-per-pixel */
"55 55 154 2 ",
"   c None",
".  c #191919",
"X  c gray10",
"o  c #1D1D1D",
"O  c #1E1E1E",
"+  c gray12",
"@  c #202020",
"#  c gray13",
"$  c #222222",
"%  c #232323",
"&  c gray14",
"*  c #252525",
"=  c gray15",
"-  c #272727",
";  c #282828",
":  c gray16",
">  c #2A2A2A",
",  c gray17",
"<  c #2D2D2D",
"1  c gray18",
"2  c #2F2F2F",
"3  c gray19",
"4  c #323232",
"5  c #353535",
"6  c gray21",
"7  c #373737",
"8  c gray22",
"9  c #393939",
"0  c #3A3A3A",
"q  c #3C3C3C",
"w  c #3E3E3E",
"e  c #3F3F3F",
"r  c gray25",
"t  c #414141",
"y  c gray26",
"u  c #434343",
"i  c #484848",
"p  c #494949",
"a  c #4B4B4B",
"s  c #4C4C4C",
"d  c gray30",
"f  c gray31",
"g  c #505050",
"h  c gray32",
"j  c gray33",
"k  c #585858",
"l  c gray35",
"z  c #5B5B5B",
"x  c gray36",
"c  c #5D5D5D",
"v  c gray37",
"b  c #5F5F5F",
"n  c #606060",
"m  c gray39",
"M  c #656565",
"N  c gray40",
"B  c DimGray",
"V  c #6D6D6D",
"C  c gray43",
"Z  c #767676",
"A  c #7C7C7C",
"S  c gray49",
"D  c gray50",
"F  c #808080",
"G  c #838383",
"H  c #848484",
"J  c gray52",
"K  c #868686",
"L  c gray53",
"P  c #888888",
"I  c gray54",
"U  c #8B8B8B",
"Y  c gray55",
"T  c #8D8D8D",
"R  c gray56",
"E  c gray57",
"W  c #929292",
"Q  c #939393",
"!  c gray58",
"~  c #959595",
"^  c gray59",
"/  c #979797",
"(  c #989898",
")  c gray60",
"_  c #9A9A9A",
"`  c #9B9B9B",
"'  c gray61",
"]  c #9D9D9D",
"[  c gray62",
"{  c #9F9F9F",
"}  c #A0A0A0",
"|  c gray63",
" . c #A2A2A2",
".. c gray64",
"X. c #A4A4A4",
"o. c #A5A5A5",
"O. c gray65",
"+. c gray66",
"@. c #AAAAAA",
"#. c gray67",
"$. c #ACACAC",
"%. c gray68",
"&. c #AEAEAE",
"*. c #AFAFAF",
"=. c gray69",
"-. c #B1B1B1",
";. c #B2B2B2",
":. c #B4B4B4",
">. c #B6B6B6",
",. c #B7B7B7",
"<. c gray72",
"1. c #B9B9B9",
"2. c gray73",
"3. c #BCBCBC",
"4. c gray74",
"5. c #CACACA",
"6. c gray80",
"7. c #CECECE",
"8. c gray81",
"9. c #D0D0D0",
"0. c #D2D2D2",
"q. c LightGray",
"w. c #D5D5D5",
"e. c gray84",
"r. c #DADADA",
"t. c gray86",
"y. c gray87",
"u. c #DFDFDF",
"i. c gray88",
"p. c #E1E1E1",
"a. c gray89",
"s. c gray90",
"d. c #E6E6E6",
"f. c #E7E7E7",
"g. c gray91",
"h. c #EAEAEA",
"j. c gray92",
"k. c #ECECEC",
"l. c #EEEEEE",
"z. c gray94",
"x. c #F1F1F1",
"c. c gray95",
"v. c #F3F3F3",
"b. c #F4F4F4",
"n. c gray96",
"m. c #F6F6F6",
"M. c gray97",
"N. c #F8F8F8",
"B. c #F9F9F9",
"V. c gray98",
"C. c #FBFBFB",
"Z. c gray99",
"A. c #FDFDFD",
"S. c #FEFEFE",
/* pixels */
"                                                                                                              ",
"                                                                                                              ",
"                                                                                                              ",
"                                                                                                              ",
"                                                                                                              ",
"                                                                                                              ",
"                                                                                                              ",
"                                                                                                              ",
"                                                                                                              ",
"                                                                                                              ",
"                        A.a.;.( ! ! ! ! ! ! ! ! ! ! ! ! ! ! ! ! ! ! ! ! ! ! ! ( 3.a.A.                        ",
"                      l.L w , - - - - - - - - - - - - - - - - - - - - - - - - - , w L l.                      ",
"                    A.L , - - + + + + + - - - + + + + + + + + + + + - + + + + + - - , L A.                    ",
"                    a.w - - a R ..............................................R a - - w a.                    ",
"                    ;., - a t.v.v.v.v.v.v.v.v.v.v.v.v.v.v.v.v.v.v.v.v.v.v.v.v.v.q.a - , @.                    ",
"                    R - - R A.                                                  v.R - , R                     ",
"                    L - + ( A.                                                  v...+ - L                     ",
"                    L - + ..A.                                                  v...+ - L                     ",
"                    L - + ( A.                                                  v...+ - L                     ",
"                    L - + ( A.                  l.6.;.;.;.6.a.                  v...+ - L                     ",
"                    L - + ( A.            l.@.n w , , - , , w n @.l.            v...- - L                     ",
"                    L - + ( A.        v...a , - - - + + + - - - - a ( v.        v...- - L                     ",
"                    L - + ( A.      q.n , - - - - c ! @.! c - - - - , c q.      v...+ - L                     ",
"                    L - + ( A.    3.r - - - - 3 @.v.A.A.A.v.@.3 - - - - w 3.    v...+ - L                     ",
"                    L - + ( A.  3.3 - - - - - @.A.          A.;.- - - - - w 3.  v...+ - L                     ",
"                    L - + ( A.t.r - - - - + c A.  A.( n ! v.  A.c + - - - - r q.v...+ - L                     ",
"                    L - + ..A.V - - - - - + !     ( + + + !     ( + - - - - - V v...+ - L                     ",
"                    L - + ..v.r - - - - - - ..    c + - + c     @.+ - - - - - w l...+ - L                     ",
"                    L - + ( A.V - - - - - + !     ( + + + !     ( + - - - - - V v...+ - L                     ",
"                    L - + ( A.t.w - - - - - c A.  A.( c ! A.    c - - - - - w q.v...+ - L                     ",
"                    L - + ( A.  3.3 - - - - - @.              ;.- - - - - , ;.  v...+ - L                     ",
"                    L - + ( A.    3.w - - - - , @.A.      A.;., - - - - 3 ;.    v...+ - L                     ",
"                    L - + ( A.      q.c - - - - - c ( ;.( c - - - - + h 6.      v...+ - L                     ",
"                    L - + ( A.        v...r - + - + + + + + - + + w ( v.        v...+ - L                     ",
"                    L - + ( A.            l.@.c 3 - - + - - 3 c ..l.            v...+ - L                     ",
"                    L - + ( A.                  l.6.3.;.3.6.l.                  v...+ - L                     ",
"                    L - + ( A.                                                  v...+ - L                     ",
"                    L - - ..A.                                                  v...+ - L                     ",
"                    L - + ( A.                                                  v...+ - L                     ",
"                    R - - R A.                                                  v.R - - R                     ",
"                    @., - a a.A.A.A.A.A.A.A.A.A.A.A.A.A.A.A.A.A.A.A.A.A.A.A.A.A.t.a - , @.                    ",
"                    a.w - - h ! @.@.@.@.@.@.....@.@.....@.@.@.@.@.......@.@.@.! a - - w t.                    ",
"                    A.L , - - + + + + + + + + + + + + + + + + + + + + + + + + - - - , D A.                    ",
"                      l.D 3 - - - - - - - - - - - - - - - - - - - - - - - - - - - 3 D l.                      ",
"                        A.a...D Z Z Z Z Z Z Z Z Z Z Z Z Z Z Z Z Z Z Z Z Z Z Z D @.t.A.                        ",
"                                                                                                              ",
"                                                                                                              ",
"                                                                                                              ",
"                                                                                                              ",
"                                                                                                              ",
"                                                                                                              ",
"                                                                                                              ",
"                                                                                                              ",
"                                                                                                              ",
"                                                                                                              "
};
