/* XPM */
static char *where_dark[] = {
/* columns rows colors chars-per-pixel */
"55 55 31 1 ",
"  c None",
". c #020202",
"X c #0E0E0E",
"o c #111111",
"O c #181818",
"+ c #202020",
"@ c #2F2F2F",
"# c #373737",
"$ c gray23",
"% c #434343",
"& c #4C4C4C",
"* c gray34",
"= c gray37",
"- c #606060",
"; c #686868",
": c #777777",
"> c gray47",
", c #818181",
"< c #8D8D8D",
"1 c #979797",
"2 c gray60",
"3 c #A0A0A0",
"4 c #AFAFAF",
"5 c #B4B4B4",
"6 c gray75",
"7 c #C0C0C0",
"8 c #C8C8C8",
"9 c gray83",
"0 c #D8D8D8",
"q c gray88",
"w c gray91",
/* pixels */
"                                                       ",
"                                                       ",
"                                                       ",
"                                                       ",
"                                                       ",
"                                                       ",
"                                                       ",
"                                                       ",
"                                                       ",
"                                                       ",
"        O%-;;;;;;;;;;;;;;;;;;;;;;;;-;;;;;;;-=$o        ",
"      o>699000000000000000000000000000000000996-.      ",
"     .:9000qqqqqqqqqqqqqq000qqqq0000q000qqqq0008=      ",
"     O7005:=================================>7004X     ",
"     %905@XXXXXXXXXXXXXXXXXXXXXXXXXXXXXXXXXXo%808+     ",
"     -0q>X .OOOOOOOO+OOOOOo                  o2q9#     ",
"     ;0q-X.:666666666666664@                 o<q9$     ",
"     ;0q-Xo500000000000000q=                 X,q9$     ",
"     ;0q-XO600000000000000q=                 X,q9$     ",
"     ;0q-XO600000000000000q=                 X,q9$     ",
"     ;0q-XO600000000000000q-       .OX       X,q9$     ",
"     ;0q-XO600000000000000q-      .=7,.      X,q9$     ",
"     ;00-XO600000000000000q-     .*9q<.      X,q9%     ",
"     ;00-XO600000000000000q-    .&8q2O       X,q9$     ",
"     ;0q-XO600000000000000q-    $8q2O.       X,q9$     ",
"     ;0q-XO600000000000000q-   @701o         X,q9$     ",
"     ;0q-XO600000000000000q-  +60921222222=. X,q9$     ",
"     ;0q-XO500000000000000q-  :w00qqqqqqqw7O X,q9$     ",
"     ;0q-XO500000000000000q-  +7q921222232=. X,q9$     ",
"     ;0q-XO600000000000000q-   @801X         X,q9$     ",
"     ;0q-XO600000000000000q-    $9q2o        X,q9$     ",
"     ;0q-XO600000000000000q-    .&9q2o       X,q9$     ",
"     ;0q-XO600000000000000q-     .*9q<.      X,q9$     ",
"     ;0q-XO600000000000000q-      .=9,.      X,q9$     ",
"     ;0q-XO600000000000000q-       .OX       X,q9%     ",
"     ;0q-XO600000000000000q-                 X,q9$     ",
"     ;0q-XO600000000000000q-                 X,q9$     ",
"     ;0q-XO600000000000000q=                 X,q9$     ",
"     ;0q-XX,787777777777786@                 X,q9$     ",
"     -0q:X XO+++++++++++++o                  o109$     ",
"     %905+X.................................X$808+     ",
"     O7005:==******************************=>7005X     ",
"     .>9000qq0qqqqqqqqqqqqqqqqqqqqqqqqqqqqqq0009-      ",
"      o>800000000000000000000000000000000000097;.      ",
"       .O*,<<<<<<<<<<<<<<<<<<<<<<<<<<<<<<<<<>&O        ",
"                                                       ",
"                                                       ",
"                                                       ",
"                                                       ",
"                                                       ",
"                                                       ",
"                                                       ",
"                                                       ",
"                                                       ",
"                                                       "
};
