/* XPM */
static char *attach[] = {
/* columns rows colors chars-per-pixel */
"55 55 157 2 ",
"   c None",
".  c gray11",
"X  c #1D1D1D",
"o  c #1E1E1E",
"O  c gray12",
"+  c #202020",
"@  c gray13",
"#  c #222222",
"$  c #232323",
"%  c gray14",
"&  c #252525",
"*  c gray15",
"=  c #272727",
"-  c #282828",
";  c gray16",
":  c #2A2A2A",
">  c gray17",
",  c #2C2C2C",
"<  c #2D2D2D",
"1  c gray18",
"2  c #2F2F2F",
"3  c gray19",
"4  c #313131",
"5  c #323232",
"6  c gray20",
"7  c #343434",
"8  c #353535",
"9  c gray21",
"0  c #373737",
"q  c gray22",
"w  c #393939",
"e  c gray23",
"r  c gray24",
"t  c #3E3E3E",
"y  c #3F3F3F",
"u  c #414141",
"i  c #434343",
"p  c #444444",
"a  c gray28",
"s  c #494949",
"d  c #4E4E4E",
"f  c #505050",
"g  c #515151",
"h  c gray32",
"j  c #535353",
"k  c gray33",
"l  c #555555",
"z  c gray34",
"x  c gray35",
"c  c #5A5A5A",
"v  c #5B5B5B",
"b  c gray37",
"n  c #5F5F5F",
"m  c #606060",
"M  c gray38",
"N  c #626262",
"B  c gray39",
"V  c #646464",
"C  c gray40",
"Z  c #676767",
"A  c #686868",
"S  c DimGray",
"D  c gray42",
"F  c #6C6C6C",
"G  c gray43",
"H  c gray44",
"J  c #717171",
"K  c gray45",
"L  c #747474",
"P  c #777777",
"I  c gray47",
"U  c #797979",
"Y  c #7B7B7B",
"T  c #7C7C7C",
"R  c gray49",
"E  c #7E7E7E",
"W  c gray51",
"Q  c #848484",
"!  c gray52",
"~  c gray53",
"^  c #888888",
"/  c gray54",
"(  c #8B8B8B",
")  c gray55",
"_  c #8D8D8D",
"`  c #909090",
"'  c gray58",
"]  c gray60",
"[  c #9A9A9A",
"{  c #9B9B9B",
"}  c gray61",
"|  c gray62",
" . c #9F9F9F",
".. c #A0A0A0",
"X. c gray63",
"o. c gray64",
"O. c #A4A4A4",
"+. c #A5A5A5",
"@. c gray65",
"#. c #A7A7A7",
"$. c #A9A9A9",
"%. c #AAAAAA",
"&. c gray67",
"*. c #ACACAC",
"=. c gray68",
"-. c #AFAFAF",
";. c gray69",
":. c #B1B1B1",
">. c #B2B2B2",
",. c gray71",
"<. c #B6B6B6",
"1. c gray72",
"2. c #B9B9B9",
"3. c #BCBCBC",
"4. c gray74",
"5. c #C6C6C6",
"6. c #CBCBCB",
"7. c gray80",
"8. c #CDCDCD",
"9. c #D0D0D0",
"0. c gray82",
"q. c gray83",
"w. c #D5D5D5",
"e. c #D7D7D7",
"r. c #D8D8D8",
"t. c gray85",
"y. c #DADADA",
"u. c gainsboro",
"i. c #DDDDDD",
"p. c gray87",
"a. c gray88",
"s. c #E1E1E1",
"d. c #E2E2E2",
"f. c gray89",
"g. c #E4E4E4",
"h. c #E7E7E7",
"j. c gray91",
"k. c #E9E9E9",
"l. c #EAEAEA",
"z. c #ECECEC",
"x. c gray93",
"c. c #EFEFEF",
"v. c gray94",
"b. c #F1F1F1",
"n. c gray95",
"m. c #F3F3F3",
"M. c #F4F4F4",
"N. c gray96",
"B. c #F6F6F6",
"V. c gray97",
"C. c #F8F8F8",
"Z. c #F9F9F9",
"A. c gray98",
"S. c #FBFBFB",
"D. c gray99",
"F. c #FDFDFD",
"G. c #FEFEFE",
/* pixels */
"                                                                                                              ",
"                                                                                                              ",
"                                                                                                              ",
"                                                                                                              ",
"                                                                                                              ",
"                                                                                                              ",
"                                                                                                              ",
"                                                                        A.M.M.A.                              ",
"                                                                  A.9.^ b s k A { s.                          ",
"                                                                M.{ p 2 % % % % 2 k >.A.                      ",
"                                                              z.I % % % 0 s k e % % e O.A.                    ",
"                                                            z.I % % 2 ^ 9.M.M.p.' 0 % p 4.                    ",
"                                                          z.I % % 0 -.A.A.    A.M.-.0 2 A A.                  ",
"                                                        z.I % % 0 -.A.            s.I % p p.                  ",
"                                                      z.P % % 0 -.A.              M.-.2 2 4.                  ",
"                                                    z.I % % 0 -.A.                A.4.2 % -.                  ",
"                                                  z.I % % 0 -.A.                  M.-.2 2 4.                  ",
"                                                z.I % % 0 -.A.                    s.I % e p.                  ",
"                                              z.I % % 0 >.A.                    A.4.e % V M.                  ",
"                                            z.I % % 0 >.A.    A.M.            A.8.k % e -.                    ",
"                                          z.I % % 0 >.A.  A.s.P k 8.        A.8.k % 2 W M.                    ",
"                                        z.I % % 0 >.A.  A.s.V O % O.      A.8.k % 2 P z.                      ",
"                                      M.I % % 0 >.A.  A.s.V % % b s.    A.8.k % 2 P z.A.                      ",
"                                    M.I % % 0 >.A.  A.s.V % % b s.A.  A.8.k % 2 P z.A.                        ",
"                                  M.I % % 0 >.A.  A.s.V % % b s.A.  A.8.k % 2 P z.A.                          ",
"                                M.I % % 0 >.A.  A.s.V % % b s.A.  A.p.k % 2 P z.A.                            ",
"                              M.I % % 0 >.A.  A.s.V % % b s.A.  A.p.b % 2 P z.A.                              ",
"                            M.I % % 0 -.A.  A.s.V % % V s.A.  A.p.b % 2 I z.A.                                ",
"                          M.I % % 0 -.A.  A.s.V % % b s.A.  A.p.b % % I z.A.  M.-.I 5.                        ",
"                        M.W % % 2 -.A.  A.s.V % % V s.A.  A.p.b % % V z.A.  z.{ 2 % P A.                      ",
"                      A.{ % % 0 -.A.    s.V % % V s.A.  A.p.b % % A s.A.  z.{ 2 % 0 { A.                      ",
"                    A.9.0 % 2 -.A.    z.V % % V s.A.  A.p.b % % V s.A.  z.{ 0 % 0 ^ M.                        ",
"                    M.P O % W A.    z.V % % V s.A.  A.p.b % % A z.A.  z.{ 0 % 0 ^ M.                          ",
"                    p.0 % p s.    M.A % % V s.A.  A.p.b % % A z.A.  M.{ 2 % 0 ^ M.                            ",
"                  A.O.% % W A.  A.O.% % V s.A.  A.p.b % % V s.A.  M.-.2 % 0 ^ M.                              ",
"                  A.k % 2 4.    M.b O e s.    A.p.k O % A z.    M.O.2 % 0 ' A.                                ",
"                  A.2 % 0 9.    M.p % k     A.p.k O % A M.    M.O.2 % 0 ' A.                                  ",
"                  A.0 % 2 8.    M.b O 2 >.A.9.k O % A z.    M.O.2 % 2 ' A.                                    ",
"                  A.V % % >.    A.O.O % 2 s 0 O % A z.    A.O.2 % 2 W A.                                      ",
"                  A.>.% % P       M.A O O O O % P z.    M.O.2 % 2 W A.                                        ",
"                    s.e % 0 9.      M.{ k p b O.M.    M.O.2 % 2 W A.                                          ",
"                    A.W O % V M.        A.M.A.      M.O.2 % 2 W A.                                            ",
"                    A.s.e % % I M.                M.{ 2 % 2 W A.                                              ",
"                      A.>.2 % % V 9.          A.s.I % % 2 W A.                                                ",
"                        A.O.2 % % 0 P -.8.8.>.I e O % 2 ^ A.                                                  ",
"                          A.4.e O % O O % % % O % O e O.A.                                                    ",
"                            A.s.W e % % % % % % 0 I p.                                                        ",
"                                A.z.>.A 0 0 b -.s.                                                            ",
"                                                                                                              ",
"                                                                                                              ",
"                                                                                                              ",
"                                                                                                              ",
"                                                                                                              ",
"                                                                                                              ",
"                                                                                                              "
};
