/* XPM */
static char *attach_dark[] = {
/* columns rows colors chars-per-pixel */
"55 55 157 2 ",
"   c black",
".  c #010101",
"X  c #020202",
"o  c gray1",
"O  c #040404",
"+  c gray2",
"@  c #060606",
"#  c #070707",
"$  c gray3",
"%  c #090909",
"&  c gray4",
"*  c #0B0B0B",
"=  c #0C0C0C",
"-  c gray5",
";  c #0E0E0E",
":  c gray6",
">  c #101010",
",  c gray7",
"<  c #131313",
"1  c #151515",
"2  c #161616",
"3  c gray9",
"4  c #181818",
"5  c #1B1B1B",
"6  c gray11",
"7  c #1D1D1D",
"8  c #1E1E1E",
"9  c gray12",
"0  c gray13",
"q  c #222222",
"w  c #232323",
"e  c #252525",
"r  c gray15",
"t  c #272727",
"y  c #282828",
"u  c #2A2A2A",
"i  c gray17",
"p  c gray18",
"a  c #2F2F2F",
"s  c #323232",
"d  c gray20",
"f  c #343434",
"g  c #393939",
"h  c gray26",
"j  c #434343",
"k  c #464646",
"l  c gray28",
"z  c #494949",
"x  c gray29",
"c  c gray30",
"v  c #4E4E4E",
"b  c gray31",
"n  c #505050",
"m  c gray32",
"M  c #535353",
"N  c gray33",
"B  c #555555",
"V  c #565656",
"C  c #585858",
"Z  c gray35",
"A  c #5A5A5A",
"S  c #5B5B5B",
"D  c gray36",
"F  c gray37",
"G  c #5F5F5F",
"H  c #606060",
"J  c gray38",
"K  c gray39",
"L  c #646464",
"P  c #656565",
"I  c gray40",
"U  c gray42",
"Y  c #6F6F6F",
"T  c #727272",
"R  c gray45",
"E  c #747474",
"W  c gray46",
"Q  c #777777",
"!  c gray47",
"~  c gray48",
"^  c #7B7B7B",
"/  c gray49",
"(  c #818181",
")  c gray51",
"_  c #838383",
"`  c #848484",
"'  c #868686",
"]  c gray53",
"[  c #888888",
"{  c #8B8B8B",
"}  c gray55",
"|  c #8E8E8E",
" . c gray56",
".. c gray57",
"X. c #939393",
"o. c gray58",
"O. c gray59",
"+. c #979797",
"@. c #989898",
"#. c gray60",
"$. c #9B9B9B",
"%. c gray61",
"&. c #9D9D9D",
"*. c gray62",
"=. c #9F9F9F",
"-. c #A0A0A0",
";. c gray63",
":. c #A4A4A4",
">. c #A5A5A5",
",. c gray65",
"<. c gray66",
"1. c #AAAAAA",
"2. c gray67",
"3. c #ACACAC",
"4. c gray68",
"5. c #AEAEAE",
"6. c #AFAFAF",
"7. c #B1B1B1",
"8. c #B6B6B6",
"9. c gray72",
"0. c #BBBBBB",
"q. c #BCBCBC",
"w. c gray",
"e. c #C0C0C0",
"r. c #C1C1C1",
"t. c gray76",
"y. c gray77",
"u. c #C6C6C6",
"i. c gray78",
"p. c #C8C8C8",
"a. c gray79",
"s. c #CACACA",
"d. c #CBCBCB",
"f. c gray80",
"g. c #CDCDCD",
"h. c #CECECE",
"j. c gray81",
"k. c #D0D0D0",
"l. c gray82",
"z. c #D2D2D2",
"x. c LightGray",
"c. c gray83",
"v. c #D5D5D5",
"b. c gray84",
"n. c #D7D7D7",
"m. c #D8D8D8",
"M. c gray85",
"N. c #DADADA",
"B. c gray86",
"V. c gainsboro",
"C. c #DDDDDD",
"Z. c gray87",
"A. c #DFDFDF",
"S. c gray88",
"D. c #E1E1E1",
"F. c #E2E2E2",
"G. c gray89",
/* pixels */
"                                                                                                              ",
"                                                                                                              ",
"                                                                                                              ",
"                                                                                                              ",
"                                                                                                              ",
"                                                                                                              ",
"                                                                                                              ",
"                                                                          * *                                 ",
"                                                                    a Q ;.8.2.+.L 8                           ",
"                                                                * L 0.k.B.B.B.B.k.2.c                         ",
"                                                              < ] B.B.B.p.8.2.y.B.B.y.S                       ",
"                                                            < ] B.B.k.Q a * * q Q p.B.0.h                     ",
"                                                          < ] B.B.p.n           < n p.k.+.                    ",
"                                                        < ] B.B.p.n               8 ] B.0.q                   ",
"                                                      < [ B.B.p.n                 * n k.k.h                   ",
"                                                    < ] B.B.p.n                     h p.B.n                   ",
"                                                  < ] B.B.p.n                     * n k.k.h                   ",
"                                                < ] B.B.p.n                       8 ] B.y.q                   ",
"                                              < ] B.B.p.c                         h y.B.%.*                   ",
"                                            < ] B.B.p.c         *               s 2.B.y.n                     ",
"                                          < ] B.B.p.c       8 [ 2.s           s 2.B.k./ *                     ",
"                                        < ] B.B.p.c       8 %.D.B.L         s 2.B.k.[ <                       ",
"                                      * ] B.B.p.c       8 %.B.B.;.8       s 2.D.k.[ <                         ",
"                                    * ] B.B.p.c       8 %.B.B.;.q       s 2.B.k.[ <                           ",
"                                  * ] B.B.p.c       8 %.B.B.;.8       s 2.B.k.[ <                             ",
"                                * ] B.B.p.c       8 %.B.B.;.8       q 2.B.k.[ <                               ",
"                              * ] B.B.k.c       8 %.B.B.;.8       q ;.B.k.[ <                                 ",
"                            * ] B.B.k.n       8 %.B.B.;.8       q ;.B.k.] <                                   ",
"                          * ] B.B.p.n       8 %.B.B.;.8       q ;.B.B.] <     < n ] g                         ",
"                        * / B.B.p.n       8 %.B.B.%.8       q ;.B.B.%.<     < L k.B.[                         ",
"                        L B.B.p.n       8 %.B.B.%.8       q ;.B.B.%.8     < L k.B.p.L                         ",
"                      a p.B.k.n       < %.B.B.%.8       q ;.B.B.%.8     < L p.B.p.Q *                         ",
"                    * [ D.B./       < %.B.B.%.8       q ;.B.B.%.8     < L k.B.p.Q *                           ",
"                    q p.B.0.8     * +.B.B.%.8       q ;.B.B.+.8     * L k.B.p.Q *                             ",
"                    S B.B./       S B.B.%.8       q ;.B.B.%.8       n k.B.p.Q *                               ",
"                    2.B.k.h     * ;.D.y.8       q 2.D.B.+.<       S k.B.p.U                                   ",
"                    k.B.p.a     * 0.B.2.      q 2.D.B.+.*     * S k.B.p.U                                     ",
"                    p.B.k.s     * ;.D.k.c   a 2.D.B.+.<     * S k.B.k.U                                       ",
"                    %.B.B.c       S D.B.k.8.p.D.B.+.<     * S k.B.k./                                         ",
"                    c B.B.[       * +.D.D.D.D.B.[ <     * S k.B.k./ *                                         ",
"                    8 y.B.p.a       * L 2.0.;.S *     * S k.B.k./                                             ",
"                      / D.B.%.*           *         * S k.B.k./                                               ",
"                      8 y.B.B.] *                 * L k.B.B./                                                 ",
"                        c k.B.B.%.a             8 ] B.B.B./                                                   ",
"                          S k.B.B.p.[ n s s c ] y.D.B.k.Q                                                     ",
"                            c y.D.B.D.D.B.B.B.D.B.D.y.S                                                       ",
"                              8 / y.B.B.B.B.B.B.p.] q                                                         ",
"                                  < c +.p.p.;.n 8                                                             ",
"                                                                                                              ",
"                                                                                                              ",
"                                                                                                              ",
"                                                                                                              ",
"                                                                                                              ",
"                                                                                                              ",
"                                                                                                              "
};
