/* XPM */
static char *back_arrow[] = {
/* columns rows colors chars-per-pixel */
"55 55 186 2 ",
"   c #1B1B1B",
".  c gray11",
"X  c #1D1D1D",
"o  c #1E1E1E",
"O  c gray12",
"+  c #202020",
"@  c gray13",
"#  c #222222",
"$  c #232323",
"%  c gray14",
"&  c #252525",
"*  c gray15",
"=  c #272727",
"-  c #282828",
";  c gray16",
":  c #2A2A2A",
">  c gray17",
",  c #2C2C2C",
"<  c #2D2D2D",
"1  c gray18",
"2  c #2F2F2F",
"3  c gray19",
"4  c #313131",
"5  c #323232",
"6  c gray20",
"7  c #343434",
"8  c #353535",
"9  c gray21",
"0  c #373737",
"q  c gray22",
"w  c #393939",
"e  c #3A3A3A",
"r  c gray23",
"t  c gray24",
"y  c #3E3E3E",
"u  c #3F3F3F",
"i  c gray25",
"p  c #414141",
"a  c gray26",
"s  c #444444",
"d  c gray27",
"f  c #464646",
"g  c #484848",
"h  c #494949",
"j  c gray29",
"k  c #4B4B4B",
"l  c gray31",
"z  c #505050",
"x  c gray32",
"c  c #535353",
"v  c gray33",
"b  c #565656",
"n  c gray34",
"m  c #585858",
"M  c #5A5A5A",
"N  c #5B5B5B",
"B  c gray36",
"V  c #5D5D5D",
"C  c gray37",
"Z  c #5F5F5F",
"A  c #606060",
"S  c gray38",
"D  c #626262",
"F  c #646464",
"G  c #676767",
"H  c #686868",
"J  c DimGray",
"K  c gray42",
"L  c #6C6C6C",
"P  c #6D6D6D",
"I  c gray43",
"U  c #717171",
"Y  c gray45",
"T  c #747474",
"R  c gray46",
"E  c #767676",
"W  c gray47",
"Q  c #797979",
"!  c #7B7B7B",
"~  c #7C7C7C",
"^  c gray49",
"/  c #7E7E7E",
"(  c gray50",
")  c #808080",
"_  c #818181",
"`  c #838383",
"'  c #848484",
"]  c gray52",
"[  c gray53",
"{  c #898989",
"}  c gray54",
"|  c #8B8B8B",
" . c gray55",
".. c #8D8D8D",
"X. c #8E8E8E",
"o. c gray57",
"O. c #939393",
"+. c gray58",
"@. c #959595",
"#. c #9A9A9A",
"$. c #9B9B9B",
"%. c gray61",
"&. c #9D9D9D",
"*. c gray62",
"=. c #9F9F9F",
"-. c gray63",
";. c #A2A2A2",
":. c gray64",
">. c #A4A4A4",
",. c #A5A5A5",
"<. c gray65",
"1. c #A7A7A7",
"2. c gray66",
"3. c #A9A9A9",
"4. c #AAAAAA",
"5. c #ACACAC",
"6. c gray68",
"7. c #AEAEAE",
"8. c gray69",
"9. c #B1B1B1",
"0. c #B2B2B2",
"q. c gray70",
"w. c #B4B4B4",
"e. c gray71",
"r. c #B7B7B7",
"t. c gray72",
"y. c gray73",
"u. c #BBBBBB",
"i. c #BCBCBC",
"p. c gray74",
"a. c gray",
"s. c gray75",
"d. c #C0C0C0",
"f. c #C1C1C1",
"g. c gray76",
"h. c gray77",
"j. c gray78",
"k. c #C8C8C8",
"l. c gray79",
"z. c #CACACA",
"x. c #CBCBCB",
"c. c #CDCDCD",
"v. c gray81",
"b. c #D0D0D0",
"n. c gray82",
"m. c gray83",
"M. c gray84",
"N. c #D7D7D7",
"B. c #D8D8D8",
"V. c gray85",
"C. c #DADADA",
"Z. c gainsboro",
"A. c gray87",
"S. c #DFDFDF",
"D. c gray88",
"F. c #E1E1E1",
"G. c #E2E2E2",
"H. c gray89",
"J. c #E4E4E4",
"K. c gray90",
"L. c #E6E6E6",
"P. c #E7E7E7",
"I. c gray91",
"U. c #E9E9E9",
"Y. c #EAEAEA",
"T. c gray92",
"R. c #ECECEC",
"E. c gray93",
"W. c #EEEEEE",
"Q. c #EFEFEF",
"!. c gray94",
"~. c #F1F1F1",
"^. c gray95",
"/. c #F3F3F3",
"(. c #F4F4F4",
"). c gray96",
"_. c #F6F6F6",
"`. c gray97",
"'. c #F8F8F8",
"]. c #F9F9F9",
"[. c gray98",
"{. c #FBFBFB",
"}. c gray99",
"|. c #FDFDFD",
" X c #FEFEFE",
".X c white",
/* pixels */
".X.X.X.X.X.X.X.X.X.X.X.X.X.X.X.X.X.X.X.X.X.X.X.X.X.X.X.X.X.X.X.X.X.X.X.X.X.X.X.X.X.X.X.X.X.X.X.X.X.X.X.X.X.X.X",
".X.X.X.X.X.X.X.X.X.X.X.X.X.X.X.X.X.X.X.X.X.X.X.X.X.X.X.X.X.X.X.X.X.X.X.X.X.X.X.X.X.X.X.X.X.X.X.X.X.X.X.X.X.X.X",
".X.X.X.X.X.X.X.X.X.X.X.X.X.X.X.X.X.X.X.X.X.X.X.X.X.X.X.X.X.X.X.X.X.X.X.X.X.X.X.X.X.X.X.X.X.X.X.X.X.X.X.X.X.X.X",
".X.X.X.X.X.X.X.X.X.X.X.X.X.X.X.X.X.X.X.X.X.X.X.X.X.X.X.X.X.X.X.X.X.X.X.X.X.X.X.X.X.X.X.X.X.X.X.X.X.X.X.X.X.X.X",
".X.X.X.X.X.X.X.X.X.X.X.X.X.X.X.X.X.X.X.X.X.X.X.X.X.X.X.X.X.X.X.X.X.X.X.X.X.X.X.X.X.X.X.X.X.X.X.X.X.X.X.X.X.X.X",
".X.X.X.X.X.X.X.X.X.X.X.X.X.X.X.X.X.X.X.X.X.X.X.X.X.X.X.X.X.X.X.X.X.X.X.X.X.X.X.X.X.X.X.X.X.X.X.X.X.X.X.X.X.X.X",
".X.X.X.X.X.X.X.X.X.X.X.X.X.X.X.X.X.X.X.X.X.X.X.X.X.X.X.X.X.X.X.X.X.X.X.X.X.X.X.X.X.X.X.X.X.X.X.X.X.X.X.X.X.X.X",
".X.X.X.X.X.X.X.X.X.X.X.X.X.X.X.X.X.X.X.X.X.X.X.X.X.X.X.X.X.X.X.X.X.X.X.X.X.X.X.X.X.X.X.X.X.X.X.X.X.X.X.X.X.X.X",
".X.X.X.X.X.X.X.X.X.X.X.X.X.X.X.X.X.X.X.X.X.X.X.X.X.X.X.X.X.X.X.X.X.X.X.X.X.X.X.X.X.X.X.X.X.X.X.X.X.X.X.X.X.X.X",
".X.X.X.X.X.X.X.X.X.X.X.X.X.X.X.X.X.X.X.X.X.X.X.X.X.X.X.X.X.X.X.X.X.X.X.X.X.X.X.X.X.X.X.X.X.X.X.X.X.X.X.X.X.X.X",
".X.X.X.X.X.X.X.X.X.X.X.X.X.X.X.X.X.X.X.X.X.X.X^.V.L..X.X.X.X.X.X.X.X.X.X.X.X.X.X.X.X.X.X.X.X.X.X.X.X.X.X.X.X.X",
".X.X.X.X.X.X.X.X.X.X.X.X.X.X.X.X.X.X.X.X.X.Xb._ s N u..X.X.X.X.X.X.X.X.X.X.X.X.X.X.X.X.X.X.X.X.X.X.X.X.X.X.X.X",
".X.X.X.X.X.X.X.X.X.X.X.X.X.X.X.X.X.X.X.X.Xk.H < @ O H R..X.X.X.X.X.X.X.X.X.X.X.X.X.X.X.X.X.X.X.X.X.X.X.X.X.X.X",
".X.X.X.X.X.X.X.X.X.X.X.X.X.X.X.X.X.X.X.Xd.D < @ @ @ g L..X.X.X.X.X.X.X.X.X.X.X.X.X.X.X.X.X.X.X.X.X.X.X.X.X.X.X",
".X.X.X.X.X.X.X.X.X.X.X.X.X.X.X.X.X.X^.u.N < < g < @ g L..X.X.X.X.X.X.X.X.X.X.X.X.X.X.X.X.X.X.X.X.X.X.X.X.X.X.X",
".X.X.X.X.X.X.X.X.X.X.X.X.X.X.X.X.X^.@.s @ < } d.y @ g L..X.X.X.X.X.X.X.X.X.X.X.X.X.X.X.X.X.X.X.X.X.X.X.X.X.X.X",
".X.X.X.X.X.X.X.X.X.X.X.X.X.X.X.XR.} y @ < } L.V.y @ g L..X.X.X.X.X.X.X.X.X.X.X.X.X.X.X.X.X.X.X.X.X.X.X.X.X.X.X",
".X.X.X.X.X.X.X.X.X.X.X.X.X.X.XR._ y @ 4 @.L..XL.y @ g L..X.X.X.X.X.X.X.X.X.X.X.X.X.X.X.X.X.X.X.X.X.X.X.X.X.X.X",
".X.X.X.X.X.X.X.X.X.X.X.X.X.XR.$.4 @ 4 @.L..X.XV.y @ g R..X.X.X.X.X.X.X.X.X.X.X.X.X.X.X.X.X.X.X.X.X.X.X.X.X.X.X",
".X.X.X.X.X.X.X.X.X.X.X.X.XL.@.s @ y $.L..X.X.XV.y @ s d.b.V.R.^..X.X.X.X.X.X.X.X.X.X.X.X.X.X.X.X.X.X.X.X.X.X.X",
".X.X.X.X.X.X.X.X.X.X.X.XL.} y @ y -.R..X.X.X.XV.y @ < g g c N H _ -.k.^..X.X.X.X.X.X.X.X.X.X.X.X.X.X.X.X.X.X.X",
".X.X.X.X.X.X.X.X.X.X.XV._ y @ 4 -.R..X.X.X.X.XV.y O O O O @ @ @ < 4 g H -.R..X.X.X.X.X.X.X.X.X.X.X.X.X.X.X.X.X",
".X.X.X.X.X.X.X.X.X.XV.~ 4 @ 4 } R..X.X.X.X.X.XR._ H D H D N s 4 @ O O < y D r..X.X.X.X.X.X.X.X.X.X.X.X.X.X.X.X",
".X.X.X.X.X.X.X.X.Xk.D < @ y $.R..X.X.X.X.X.X.X.X^.^.^.^.^.R.R.V.r._ g @ @ @ < U R..X.X.X.X.X.X.X.X.X.X.X.X.X.X",
".X.X.X.X.X.X.X.XL.N < @ s -.^..X.X.X.X.X.X.X.X.X.X.X.X.X.X.X.X.X.X^.L.-.c @ @ @ N L..X.X.X.X.X.X.X.X.X.X.X.X.X",
".X.X.X.X.X.X.XV.U @ @ s 7.^..X.X.X.X.X.X.X.X.X.X.X.X.X.X.X.X.X.X.X.X.X^.L._ < @ @ D R..X.X.X.X.X.X.X.X.X.X.X.X",
".X.X.X.X.X.X^._ < @ g 7.^..X.X.X.X.X.X.X.X.X.X.X.X.X.X.X.X.X.X.X.X.X.X.X.X^.7.< @ @ ~ .X.X.X.X.X.X.X.X.X.X.X.X",
".X.X.X.X.X.XL.4 @ 4 $.^..X.X.X.X.X.X.X.X.X.X.X.X.X.X.X.X.X.X.X.X.X.X.X.X.X.X^.-.@ @ < u..X.X.X.X.X.X.X.X.X.X.X",
".X.X.X.X.X.XR.D @ < D k..X.X.X.X.X.X.X.X.X.X.X.X.X.X.X.X.X.X.X.X.X.X.X.X.X.X.X^.} @ @ g ^..X.X.X.X.X.X.X.X.X.X",
".X.X.X.X.X.X.Xk.c @ < N d..X.X.X.X.X.X.X.X.X.X.X.X.X.X.X.X.X.X.X.X.X.X.X.X.X.X.XR.c @ @ 7..X.X.X.X.X.X.X.X.X.X",
".X.X.X.X.X.X.X.Xk.s @ @ c u..X.X.X.X.X.X.X.X.X.X.X.X.X.X.X.X.X.X.X.X.X.X.X.X.X.X.Xu.@ O c .X.X.X.X.X.X.X.X.X.X",
".X.X.X.X.X.X.X.X.Xr.g @ @ c r..X.X.X.X.X.X.X.X.X.X.X.X.X.X.X.X.X.X.X.X.X.X.X.X.X.X^.N @ < k..X.X.X.X.X.X.X.X.X",
".X.X.X.X.X.X.X.X.X.Xu.c @ @ s 7..X.X.X.X.X.X.X^.7.$.$.$.-.7.u.k.R..X.X.X.X.X.X.X.X.X7.O O } .X.X.X.X.X.X.X.X.X",
".X.X.X.X.X.X.X.X.X.X.Xd.N @ @ s d..X.X.X.X.X.XL.y @ @ @ @ @ < 4 y N _ u.R..X.X.X.X.XR.y O c .X.X.X.X.X.X.X.X.X",
".X.X.X.X.X.X.X.X.X.X.X.Xk.D @ @ g d..X.X.X.X.XV.s @ @ @ O O O O O @ @ < g } V..X.X.X.XD O 4 L..X.X.X.X.X.X.X.X",
".X.X.X.X.X.X.X.X.X.X.X.X.Xb.H @ @ s u.^..X.X.XV.s @ y $.7.-.@.~ N y @ O @ @ y $..X.X.X@.O @ k..X.X.X.X.X.X.X.X",
".X.X.X.X.X.X.X.X.X.X.X.X.X.Xb.H @ @ s r.^..X.XV.y @ g L..X.X.X^.^.L.d.~ y @ @ @ H R..Xu.@ O 7..X.X.X.X.X.X.X.X",
".X.X.X.X.X.X.X.X.X.X.X.X.X.X.XV.c @ @ y 7.^..XV.y @ g L..X.X.X.X.X.X.X.XV.~ < @ @ N ^.V.< O } .X.X.X.X.X.X.X.X",
".X.X.X.X.X.X.X.X.X.X.X.X.X.X.X.Xb.N @ @ 4 -.^.V.s @ g L..X.X.X.X.X.X.X.X.X.Xr.4 @ @ U R.4 O ~ .X.X.X.X.X.X.X.X",
".X.X.X.X.X.X.X.X.X.X.X.X.X.X.X.X.Xb.D < @ 4 $.V.s @ g L..X.X.X.X.X.X.X.X.X.X.Xd.4 @ @ -.g O H .X.X.X.X.X.X.X.X",
".X.X.X.X.X.X.X.X.X.X.X.X.X.X.X.X.X.XV.D < @ 4 H 4 @ g L..X.X.X.X.X.X.X.X.X.X.X.Xr.@ @ s 4 O D .X.X.X.X.X.X.X.X",
".X.X.X.X.X.X.X.X.X.X.X.X.X.X.X.X.X.X.XR.U < @ @ @ @ g L..X.X.X.X.X.X.X.X.X.X.X.X.X} O @ @ @ N .X.X.X.X.X.X.X.X",
".X.X.X.X.X.X.X.X.X.X.X.X.X.X.X.X.X.X.X.XR.~ < @ @ @ g L..X.X.X.X.X.X.X.X.X.X.X.X.X^.g @ @ O D .X.X.X.X.X.X.X.X",
".X.X.X.X.X.X.X.X.X.X.X.X.X.X.X.X.X.X.X.X.X^._ 4 @ O ~ ^..X.X.X.X.X.X.X.X.X.X.X.X.X.Xu.@ @ O $..X.X.X.X.X.X.X.X",
".X.X.X.X.X.X.X.X.X.X.X.X.X.X.X.X.X.X.X.X.X.X.Xr.s U L..X.X.X.X.X.X.X.X.X.X.X.X.X.X.X.Xr.y ~ .X.X.X.X.X.X.X.X.X",
".X.X.X.X.X.X.X.X.X.X.X.X.X.X.X.X.X.X.X.X.X.X.X.X.X.X.X.X.X.X.X.X.X.X.X.X.X.X.X.X.X.X.X.X.X.X.X.X.X.X.X.X.X.X.X",
".X.X.X.X.X.X.X.X.X.X.X.X.X.X.X.X.X.X.X.X.X.X.X.X.X.X.X.X.X.X.X.X.X.X.X.X.X.X.X.X.X.X.X.X.X.X.X.X.X.X.X.X.X.X.X",
".X.X.X.X.X.X.X.X.X.X.X.X.X.X.X.X.X.X.X.X.X.X.X.X.X.X.X.X.X.X.X.X.X.X.X.X.X.X.X.X.X.X.X.X.X.X.X.X.X.X.X.X.X.X.X",
".X.X.X.X.X.X.X.X.X.X.X.X.X.X.X.X.X.X.X.X.X.X.X.X.X.X.X.X.X.X.X.X.X.X.X.X.X.X.X.X.X.X.X.X.X.X.X.X.X.X.X.X.X.X.X",
".X.X.X.X.X.X.X.X.X.X.X.X.X.X.X.X.X.X.X.X.X.X.X.X.X.X.X.X.X.X.X.X.X.X.X.X.X.X.X.X.X.X.X.X.X.X.X.X.X.X.X.X.X.X.X",
".X.X.X.X.X.X.X.X.X.X.X.X.X.X.X.X.X.X.X.X.X.X.X.X.X.X.X.X.X.X.X.X.X.X.X.X.X.X.X.X.X.X.X.X.X.X.X.X.X.X.X.X.X.X.X",
".X.X.X.X.X.X.X.X.X.X.X.X.X.X.X.X.X.X.X.X.X.X.X.X.X.X.X.X.X.X.X.X.X.X.X.X.X.X.X.X.X.X.X.X.X.X.X.X.X.X.X.X.X.X.X",
".X.X.X.X.X.X.X.X.X.X.X.X.X.X.X.X.X.X.X.X.X.X.X.X.X.X.X.X.X.X.X.X.X.X.X.X.X.X.X.X.X.X.X.X.X.X.X.X.X.X.X.X.X.X.X",
".X.X.X.X.X.X.X.X.X.X.X.X.X.X.X.X.X.X.X.X.X.X.X.X.X.X.X.X.X.X.X.X.X.X.X.X.X.X.X.X.X.X.X.X.X.X.X.X.X.X.X.X.X.X.X",
".X.X.X.X.X.X.X.X.X.X.X.X.X.X.X.X.X.X.X.X.X.X.X.X.X.X.X.X.X.X.X.X.X.X.X.X.X.X.X.X.X.X.X.X.X.X.X.X.X.X.X.X.X.X.X"
};
