/* XPM */
static char *bookmark_add[] = {
/* columns rows colors chars-per-pixel */
"55 55 126 2 ",
"   c None",
".  c #1B1B1B",
"X  c gray11",
"o  c #1D1D1D",
"O  c #1E1E1E",
"+  c gray12",
"@  c #202020",
"#  c gray13",
"$  c #222222",
"%  c #232323",
"&  c gray14",
"*  c #252525",
"=  c gray15",
"-  c #272727",
";  c #282828",
":  c gray16",
">  c #2A2A2A",
",  c gray17",
"<  c #2D2D2D",
"1  c gray18",
"2  c gray19",
"3  c #313131",
"4  c #323232",
"5  c gray20",
"6  c #343434",
"7  c #353535",
"8  c gray21",
"9  c #373737",
"0  c gray22",
"q  c #393939",
"w  c gray23",
"e  c gray24",
"r  c #3E3E3E",
"t  c #3F3F3F",
"y  c gray25",
"u  c gray27",
"i  c #464646",
"p  c gray28",
"a  c #494949",
"s  c #4B4B4B",
"d  c #4C4C4C",
"f  c gray30",
"g  c #4E4E4E",
"h  c gray31",
"j  c #505050",
"k  c #5D5D5D",
"l  c #606060",
"z  c #626262",
"x  c #646464",
"c  c DimGray",
"v  c gray42",
"b  c #6C6C6C",
"n  c #767676",
"m  c #818181",
"M  c gray51",
"N  c #848484",
"B  c #8B8B8B",
"V  c gray55",
"C  c gray56",
"Z  c #929292",
"A  c #939393",
"S  c #959595",
"D  c gray59",
"F  c #979797",
"G  c #989898",
"H  c gray60",
"J  c #A0A0A0",
"K  c #A2A2A2",
"L  c gray65",
"P  c #A7A7A7",
"I  c gray66",
"U  c #AAAAAA",
"Y  c gray67",
"T  c #ACACAC",
"R  c gray68",
"E  c #AEAEAE",
"W  c #AFAFAF",
"Q  c gray69",
"!  c #B2B2B2",
"~  c #B4B4B4",
"^  c gray72",
"/  c gray73",
"(  c gray74",
")  c gray",
"_  c gray75",
"`  c #C0C0C0",
"'  c #C1C1C1",
"]  c gray76",
"[  c #C3C3C3",
"{  c gray77",
"}  c #C5C5C5",
"|  c #C6C6C6",
" . c gray78",
".. c #C8C8C8",
"X. c gray79",
"o. c #CACACA",
"O. c gray80",
"+. c #CECECE",
"@. c gray81",
"#. c #D0D0D0",
"$. c #D2D2D2",
"%. c LightGray",
"&. c gray84",
"*. c #D7D7D7",
"=. c gray88",
"-. c #E1E1E1",
";. c #E2E2E2",
":. c gray89",
">. c #E4E4E4",
",. c #EAEAEA",
"<. c #ECECEC",
"1. c #EEEEEE",
"2. c gray94",
"3. c gray95",
"4. c #F3F3F3",
"5. c #F4F4F4",
"6. c gray96",
"7. c #F6F6F6",
"8. c gray97",
"9. c #F8F8F8",
"0. c #F9F9F9",
"q. c gray98",
"w. c #FBFBFB",
"e. c gray99",
"r. c #FDFDFD",
"t. c #FEFEFE",
/* pixels */
"                                                                                                              ",
"                                                                                                              ",
"                                                                                                              ",
"                                                                                                              ",
"                                                                                                              ",
"                                                                                                              ",
"                                                                                                              ",
"                                  r.<.;.;.;.;.;.;.;.;.;.;.;.;.;.;.;.;.;.<.r.                                  ",
"                              r.<.Q l , = = = = = = = = = = = = = = = , v ( 4.                                ",
"                              4.G 8 = = = = = = = = = = = = = = = = = = = 0 Q r.                              ",
"                            r.| 8 = , y g g g g g g g g g g g g g g g 0 , = g ;.r.                            ",
"                            4.v = , v O.;.;.;.;.;.;.;.;.;.;.;.;.;.;.;.| l , = E r.                            ",
"                            4.8 = , E                                   G 8 o B r.                            ",
"                            4.= = 8 |                                   E 0 o M r.                            ",
"                            4.= = 8 |               4.O.r.              E 0 o M r.                            ",
"                            4.= = 8 |               | , *.              E 0 o M 4.                            ",
"                            4.= = 8 |               ( o O.              E 0 o M r.                            ",
"                            4.= = 8 |               ( o O.              E 0 o M r.                            ",
"                            4.= = 8 |               ( o O.              E 0 o M r.                            ",
"                            4.= = 8 |               | o *.              E 0 o M 4.                            ",
"                            4.= = 8 |   r.O.| | | | S o J | | | | O.r.  E 0 o M 4.                            ",
"                            4.= = 8 |   O., o o o o o = o o o o o 0 ;.  E 0 o M r.                            ",
"                            4.= = 8 |   r.*.| | | | S o J | | | | *.r.  E 0 o M r.                            ",
"                            4.= = 8 |               | o *.              E 0 o M r.                            ",
"                            4.= = 8 |               ( o O.              E 0 o M r.                            ",
"                            4.= = 8 |               ( o O.              E 0 o M r.                            ",
"                            4.= = 8 |               ( o O.              E 0 o M r.                            ",
"                            4.= = 8 |               | = *.              E 0 o M r.                            ",
"                            4.= = 8 |               4.| r.              E 0 o M r.                            ",
"                            4.= = 8 |                                   E 0 o M r.                            ",
"                            4.= = 8 |                                   E 0 o M 4.                            ",
"                            4.= = 8 |                                   E 0 o M 4.                            ",
"                            4.= = 8 |                                   E 0 o M r.                            ",
"                            4.= = 8 |                                   E 0 o M r.                            ",
"                            4.= = 8 |             4.J n ( r.            E 0 o M r.                            ",
"                            4.= = 8 |           4.S 8 = y E r.          E 0 o M r.                            ",
"                            4.= = 8 |         4.Q 8 = = = 0 J r.        E 0 o M r.                            ",
"                            4.= = 8 |       4.Q 0 = = = = = 0 O.r.      E 0 o M r.                            ",
"                            4.= = 8 |     4.E 8 = = l S j = = g O.r.    E 0 o M r.                            ",
"                            4.= = 8 |   4.E 8 = = l *.r.( g = o g | r.  E 0 o M r.                            ",
"                            4.= = 8 | 4.E 8 = = y *.    r.( g = o y | r.E 0 o M r.                            ",
"                            4.= = 8 O.E 8 = = y (         r.( 8 = = y | E 0 o M r.                            ",
"                            4.= = , v 8 = = g |             r.J 0 = = y k 8 = M r.                            ",
"                            4.= = = = = = g |                 r.J 0 = = = = o M r.                            ",
"                            4.= = = = = g |                     r.J 0 = = = = M r.                            ",
"                            4.8 = = = j |                         r.E y = = = B r.                            ",
"                            r.B = = y |                             r.E y = 8 | r.                            ",
"                              4.Q S ;.                                  *.G | r.                              ",
"                                                                                                              ",
"                                                                                                              ",
"                                                                                                              ",
"                                                                                                              ",
"                                                                                                              ",
"                                                                                                              ",
"                                                                                                              "
};
