/* XPM */
static char *bookmark[] = {
/* columns rows colors chars-per-pixel */
"55 55 113 2 ",
"   c #1E1E1E",
".  c gray12",
"X  c #202020",
"o  c gray13",
"O  c #222222",
"+  c #232323",
"@  c gray14",
"#  c #252525",
"$  c gray15",
"%  c #272727",
"&  c #282828",
"*  c gray16",
"=  c #2A2A2A",
"-  c #2D2D2D",
";  c gray18",
":  c gray19",
">  c #313131",
",  c #323232",
"<  c gray20",
"1  c #343434",
"2  c #353535",
"3  c gray21",
"4  c #373737",
"5  c gray22",
"6  c #393939",
"7  c gray23",
"8  c gray24",
"9  c #3E3E3E",
"0  c #3F3F3F",
"q  c gray25",
"w  c gray27",
"e  c #464646",
"r  c gray28",
"t  c #494949",
"y  c #4B4B4B",
"u  c #4C4C4C",
"i  c gray30",
"p  c #4E4E4E",
"a  c gray31",
"s  c #505050",
"d  c #5D5D5D",
"f  c #606060",
"g  c #626262",
"h  c #646464",
"j  c DimGray",
"k  c gray42",
"l  c #6C6C6C",
"z  c #767676",
"x  c #818181",
"c  c gray51",
"v  c #848484",
"b  c #8B8B8B",
"n  c gray55",
"m  c gray56",
"M  c #929292",
"N  c #959595",
"B  c #979797",
"V  c #989898",
"C  c gray60",
"Z  c gray65",
"A  c #A7A7A7",
"S  c gray66",
"D  c #AAAAAA",
"F  c gray67",
"G  c #ACACAC",
"H  c gray68",
"J  c #AEAEAE",
"K  c #AFAFAF",
"L  c gray69",
"P  c #B2B2B2",
"I  c #B4B4B4",
"U  c gray72",
"Y  c gray73",
"T  c gray74",
"R  c gray",
"E  c gray75",
"W  c #C0C0C0",
"Q  c #C1C1C1",
"!  c gray76",
"~  c #C3C3C3",
"^  c gray77",
"/  c #C5C5C5",
"(  c #C6C6C6",
")  c gray78",
"_  c #C8C8C8",
"`  c gray79",
"'  c #CACACA",
"]  c #CECECE",
"[  c #D2D2D2",
"{  c gray84",
"}  c gray88",
"|  c #E1E1E1",
" . c #E2E2E2",
".. c gray89",
"X. c #E4E4E4",
"o. c #EAEAEA",
"O. c #ECECEC",
"+. c #EEEEEE",
"@. c gray94",
"#. c gray95",
"$. c #F3F3F3",
"%. c #F4F4F4",
"&. c gray96",
"*. c #F6F6F6",
"=. c gray97",
"-. c #F8F8F8",
";. c #F9F9F9",
":. c gray98",
">. c #FBFBFB",
",. c gray99",
"<. c #FDFDFD",
"1. c #FEFEFE",
"2. c white",
/* pixels */
"2.2.2.2.2.2.2.2.2.2.2.2.2.2.2.2.2.2.2.2.2.2.2.2.2.2.2.2.2.2.2.2.2.2.2.2.2.2.2.2.2.2.2.2.2.2.2.2.2.2.2.2.2.2.2.",
"2.2.2.2.2.2.2.2.2.2.2.2.2.2.2.2.2.2.2.2.2.2.2.2.2.2.2.2.2.2.2.2.2.2.2.2.2.2.2.2.2.2.2.2.2.2.2.2.2.2.2.2.2.2.2.",
"2.2.2.2.2.2.2.2.2.2.2.2.2.2.2.2.2.2.2.2.2.2.2.2.2.2.2.2.2.2.2.2.2.2.2.2.2.2.2.2.2.2.2.2.2.2.2.2.2.2.2.2.2.2.2.",
"2.2.2.2.2.2.2.2.2.2.2.2.2.2.2.2.2.2.2.2.2.2.2.2.2.2.2.2.2.2.2.2.2.2.2.2.2.2.2.2.2.2.2.2.2.2.2.2.2.2.2.2.2.2.2.",
"2.2.2.2.2.2.2.2.2.2.2.2.2.2.2.2.2.2.2.2.2.2.2.2.2.2.2.2.2.2.2.2.2.2.2.2.2.2.2.2.2.2.2.2.2.2.2.2.2.2.2.2.2.2.2.",
"2.2.2.2.2.2.2.2.2.2.2.2.2.2.2.2.2.2.2.2.2.2.2.2.2.2.2.2.2.2.2.2.2.2.2.2.2.2.2.2.2.2.2.2.2.2.2.2.2.2.2.2.2.2.2.",
"2.2.2.2.2.2.2.2.2.2.2.2.2.2.2.2.2.2.2.2.2.2.2.2.2.2.2.2.2.2.2.2.2.2.2.2.2.2.2.2.2.2.2.2.2.2.2.2.2.2.2.2.2.2.2.",
"2.2.2.2.2.2.2.2.2.2.2.2.2.2.2.2.2.2.O. . . . . . . . . . . . . . . . . .O.2.2.2.2.2.2.2.2.2.2.2.2.2.2.2.2.2.2.",
"2.2.2.2.2.2.2.2.2.2.2.2.2.2.2.2.O.L f = $ $ $ $ $ $ $ $ $ $ $ $ $ $ $ = k E $.2.2.2.2.2.2.2.2.2.2.2.2.2.2.2.2.",
"2.2.2.2.2.2.2.2.2.2.2.2.2.2.2.$.V 3 $ $ $ $ $ $ $ $ $ $ $ $ $ $ $ $ $ $ $ 5 L 2.2.2.2.2.2.2.2.2.2.2.2.2.2.2.2.",
"2.2.2.2.2.2.2.2.2.2.2.2.2.2.2.( 3 $ = q p p p p p p p p p p p p p p p 5 = $ p  .2.2.2.2.2.2.2.2.2.2.2.2.2.2.2.",
"2.2.2.2.2.2.2.2.2.2.2.2.2.2.$.k $ = k ]  . . . . . . . . . . . . . . .( f = $ J 2.2.2.2.2.2.2.2.2.2.2.2.2.2.2.",
"2.2.2.2.2.2.2.2.2.2.2.2.2.2.$.3 $ = J 2.2.2.2.2.2.2.2.2.2.2.2.2.2.2.2.2.V 3   b 2.2.2.2.2.2.2.2.2.2.2.2.2.2.2.",
"2.2.2.2.2.2.2.2.2.2.2.2.2.2.$.$ $ 3 ( 2.2.2.2.2.2.2.2.2.2.2.2.2.2.2.2.2.J 5   c 2.2.2.2.2.2.2.2.2.2.2.2.2.2.2.",
"2.2.2.2.2.2.2.2.2.2.2.2.2.2.$.$ $ 3 ( 2.2.2.2.2.2.2.2.2.2.2.2.2.2.2.2.2.J 5   c $.2.2.2.2.2.2.2.2.2.2.2.2.2.2.",
"2.2.2.2.2.2.2.2.2.2.2.2.2.2.$.$ $ 3 ( 2.2.2.2.2.2.2.2.2.2.2.2.2.2.2.2.2.J 5   c $.2.2.2.2.2.2.2.2.2.2.2.2.2.2.",
"2.2.2.2.2.2.2.2.2.2.2.2.2.2.$.$ $ 3 ( 2.2.2.2.2.2.2.2.2.2.2.2.2.2.2.2.2.J 5   c 2.2.2.2.2.2.2.2.2.2.2.2.2.2.2.",
"2.2.2.2.2.2.2.2.2.2.2.2.2.2.$.$ $ 3 ( 2.2.2.2.2.2.2.2.2.2.2.2.2.2.2.2.2.J 5   c 2.2.2.2.2.2.2.2.2.2.2.2.2.2.2.",
"2.2.2.2.2.2.2.2.2.2.2.2.2.2.$.$ $ 3 ( 2.2.2.2.2.2.2.2.2.2.2.2.2.2.2.2.2.J 5   c $.2.2.2.2.2.2.2.2.2.2.2.2.2.2.",
"2.2.2.2.2.2.2.2.2.2.2.2.2.2.$.$ $ 3 ( 2.2.2.2.2.2.2.2.2.2.2.2.2.2.2.2.2.J 5   c $.2.2.2.2.2.2.2.2.2.2.2.2.2.2.",
"2.2.2.2.2.2.2.2.2.2.2.2.2.2.$.$ $ 3 ( 2.2.2.2.2.2.2.2.2.2.2.2.2.2.2.2.2.J 5   c $.2.2.2.2.2.2.2.2.2.2.2.2.2.2.",
"2.2.2.2.2.2.2.2.2.2.2.2.2.2.$.$ $ 3 ( 2.2.2.2.2.2.2.2.2.2.2.2.2.2.2.2.2.J 5   c 2.2.2.2.2.2.2.2.2.2.2.2.2.2.2.",
"2.2.2.2.2.2.2.2.2.2.2.2.2.2.$.$ $ 3 ( 2.2.2.2.2.2.2.2.2.2.2.2.2.2.2.2.2.J 5   c 2.2.2.2.2.2.2.2.2.2.2.2.2.2.2.",
"2.2.2.2.2.2.2.2.2.2.2.2.2.2.$.$ $ 3 ( 2.2.2.2.2.2.2.2.2.2.2.2.2.2.2.2.2.J 5   c 2.2.2.2.2.2.2.2.2.2.2.2.2.2.2.",
"2.2.2.2.2.2.2.2.2.2.2.2.2.2.$.$ $ 3 ( 2.2.2.2.2.2.2.2.2.2.2.2.2.2.2.2.2.J 5   c 2.2.2.2.2.2.2.2.2.2.2.2.2.2.2.",
"2.2.2.2.2.2.2.2.2.2.2.2.2.2.$.$ $ 3 ( 2.2.2.2.2.2.2.2.2.2.2.2.2.2.2.2.2.J 5   c 2.2.2.2.2.2.2.2.2.2.2.2.2.2.2.",
"2.2.2.2.2.2.2.2.2.2.2.2.2.2.$.$ $ 3 ( 2.2.2.2.2.2.2.2.2.2.2.2.2.2.2.2.2.J 5   c 2.2.2.2.2.2.2.2.2.2.2.2.2.2.2.",
"2.2.2.2.2.2.2.2.2.2.2.2.2.2.$.$ $ 3 ( 2.2.2.2.2.2.2.2.2.2.2.2.2.2.2.2.2.J 5   c 2.2.2.2.2.2.2.2.2.2.2.2.2.2.2.",
"2.2.2.2.2.2.2.2.2.2.2.2.2.2.$.$ $ 3 ( 2.2.2.2.2.2.2.2.2.2.2.2.2.2.2.2.2.J 5   c 2.2.2.2.2.2.2.2.2.2.2.2.2.2.2.",
"2.2.2.2.2.2.2.2.2.2.2.2.2.2.$.$ $ 3 ( 2.2.2.2.2.2.2.2.2.2.2.2.2.2.2.2.2.J 5   c 2.2.2.2.2.2.2.2.2.2.2.2.2.2.2.",
"2.2.2.2.2.2.2.2.2.2.2.2.2.2.$.$ $ 3 ( 2.2.2.2.2.2.2.2.2.2.2.2.2.2.2.2.2.J 5   c $.2.2.2.2.2.2.2.2.2.2.2.2.2.2.",
"2.2.2.2.2.2.2.2.2.2.2.2.2.2.$.$ $ 3 ( 2.2.2.2.2.2.2.2.2.2.2.2.2.2.2.2.2.J 5   c $.2.2.2.2.2.2.2.2.2.2.2.2.2.2.",
"2.2.2.2.2.2.2.2.2.2.2.2.2.2.$.$ $ 3 ( 2.2.2.2.2.2.2.2.2.2.2.2.2.2.2.2.2.J 5   c 2.2.2.2.2.2.2.2.2.2.2.2.2.2.2.",
"2.2.2.2.2.2.2.2.2.2.2.2.2.2.$.$ $ 3 ( 2.2.2.2.2.2.2.2.2.2.2.2.2.2.2.2.2.J 5   c 2.2.2.2.2.2.2.2.2.2.2.2.2.2.2.",
"2.2.2.2.2.2.2.2.2.2.2.2.2.2.$.$ $ 3 ( 2.2.2.2.2.2.$.Z z E 2.2.2.2.2.2.2.J 5   c 2.2.2.2.2.2.2.2.2.2.2.2.2.2.2.",
"2.2.2.2.2.2.2.2.2.2.2.2.2.2.$.$ $ 3 ( 2.2.2.2.2.$.B 3 $ q J 2.2.2.2.2.2.J 5   c $.2.2.2.2.2.2.2.2.2.2.2.2.2.2.",
"2.2.2.2.2.2.2.2.2.2.2.2.2.2.$.$ $ 3 ( 2.2.2.2.$.L 3 $ $ $ 5 Z 2.2.2.2.2.J 5   c 2.2.2.2.2.2.2.2.2.2.2.2.2.2.2.",
"2.2.2.2.2.2.2.2.2.2.2.2.2.2.$.$ $ 3 ( 2.2.2.$.L 5 $ $ $ $ $ 5 ] 2.2.2.2.J 5   c 2.2.2.2.2.2.2.2.2.2.2.2.2.2.2.",
"2.2.2.2.2.2.2.2.2.2.2.2.2.2.$.$ $ 3 ( 2.2.$.J 3 $ $ f B p $ $ p ] 2.2.2.J 5   c 2.2.2.2.2.2.2.2.2.2.2.2.2.2.2.",
"2.2.2.2.2.2.2.2.2.2.2.2.2.2.$.$ $ 3 ( 2.$.J 3 $ $ f [ 2.E p $   p ( 2.2.J 5   c 2.2.2.2.2.2.2.2.2.2.2.2.2.2.2.",
"2.2.2.2.2.2.2.2.2.2.2.2.2.2.$.$ $ 3 ( $.J 3 $ $ q [ 2.2.2.E p $   q ( 2.J 5   c 2.2.2.2.2.2.2.2.2.2.2.2.2.2.2.",
"2.2.2.2.2.2.2.2.2.2.2.2.2.2.$.$ $ 3 ] J 3 $ $ q E 2.2.2.2.2.E 3 $ $ q ( J 5   c 2.2.2.2.2.2.2.2.2.2.2.2.2.2.2.",
"2.2.2.2.2.2.2.2.2.2.2.2.2.2.$.$ $ = k 3 $ $ p ( 2.2.2.2.2.2.2.Z 5 $ $ q d 3 $ c $.2.2.2.2.2.2.2.2.2.2.2.2.2.2.",
"2.2.2.2.2.2.2.2.2.2.2.2.2.2.$.$ $ $ $ $ $ p ( 2.2.2.2.2.2.2.2.2.Z 5 $ $ $ $   c $.2.2.2.2.2.2.2.2.2.2.2.2.2.2.",
"2.2.2.2.2.2.2.2.2.2.2.2.2.2.$.$ $ $ $ $ p ( 2.2.2.2.2.2.2.2.2.2.2.Z 5 $ $ $   c 2.2.2.2.2.2.2.2.2.2.2.2.2.2.2.",
"2.2.2.2.2.2.2.2.2.2.2.2.2.2.$.3 $ $ $ s ( 2.2.2.2.2.2.2.2.2.2.2.2.2.J q $ $   b 2.2.2.2.2.2.2.2.2.2.2.2.2.2.2.",
"2.2.2.2.2.2.2.2.2.2.2.2.2.2.2.b $ $ q ( 2.2.2.2.2.2.2.2.2.2.2.2.2.2.2.J q $ 3 ( 2.2.2.2.2.2.2.2.2.2.2.2.2.2.2.",
"2.2.2.2.2.2.2.2.2.2.2.2.2.2.2.$.L B  .2.2.2.2.2.2.2.2.2.2.2.2.2.2.2.2.2.[ V ( 2.2.2.2.2.2.2.2.2.2.2.2.2.2.2.2.",
"2.2.2.2.2.2.2.2.2.2.2.2.2.2.2.2.2.2.2.2.2.2.2.2.2.2.2.2.2.2.2.2.2.2.2.2.2.2.2.2.2.2.2.2.2.2.2.2.2.2.2.2.2.2.2.",
"2.2.2.2.2.2.2.2.2.2.2.2.2.2.2.2.2.2.2.2.2.2.2.2.2.2.2.2.2.2.2.2.2.2.2.2.2.2.2.2.2.2.2.2.2.2.2.2.2.2.2.2.2.2.2.",
"2.2.2.2.2.2.2.2.2.2.2.2.2.2.2.2.2.2.2.2.2.2.2.2.2.2.2.2.2.2.2.2.2.2.2.2.2.2.2.2.2.2.2.2.2.2.2.2.2.2.2.2.2.2.2.",
"2.2.2.2.2.2.2.2.2.2.2.2.2.2.2.2.2.2.2.2.2.2.2.2.2.2.2.2.2.2.2.2.2.2.2.2.2.2.2.2.2.2.2.2.2.2.2.2.2.2.2.2.2.2.2.",
"2.2.2.2.2.2.2.2.2.2.2.2.2.2.2.2.2.2.2.2.2.2.2.2.2.2.2.2.2.2.2.2.2.2.2.2.2.2.2.2.2.2.2.2.2.2.2.2.2.2.2.2.2.2.2.",
"2.2.2.2.2.2.2.2.2.2.2.2.2.2.2.2.2.2.2.2.2.2.2.2.2.2.2.2.2.2.2.2.2.2.2.2.2.2.2.2.2.2.2.2.2.2.2.2.2.2.2.2.2.2.2.",
"2.2.2.2.2.2.2.2.2.2.2.2.2.2.2.2.2.2.2.2.2.2.2.2.2.2.2.2.2.2.2.2.2.2.2.2.2.2.2.2.2.2.2.2.2.2.2.2.2.2.2.2.2.2.2."
};
