/* XPM */
static char *bookmark_add_dark[] = {
/* columns rows colors chars-per-pixel */
"55 55 126 2 ",
"   c black",
".  c #010101",
"X  c #020202",
"o  c gray1",
"O  c #040404",
"+  c gray2",
"@  c #060606",
"#  c #070707",
"$  c gray3",
"%  c #090909",
"&  c gray4",
"*  c #0B0B0B",
"=  c #0C0C0C",
"-  c gray5",
";  c gray6",
":  c #111111",
">  c #131313",
",  c #151515",
"<  c #1B1B1B",
"1  c gray11",
"2  c #1D1D1D",
"3  c #1E1E1E",
"4  c gray12",
"5  c #282828",
"6  c gray16",
"7  c #2C2C2C",
"8  c #2D2D2D",
"9  c #2F2F2F",
"0  c gray19",
"q  c #313131",
"w  c gray20",
"e  c #353535",
"r  c gray21",
"t  c #373737",
"y  c gray22",
"u  c #393939",
"i  c #3A3A3A",
"p  c gray23",
"a  c #3C3C3C",
"s  c gray24",
"d  c #3E3E3E",
"f  c #3F3F3F",
"g  c gray25",
"h  c #414141",
"j  c gray26",
"k  c gray27",
"l  c gray28",
"z  c #4B4B4B",
"x  c gray30",
"c  c gray31",
"v  c #505050",
"b  c #515151",
"n  c gray32",
"m  c #535353",
"M  c gray33",
"N  c #555555",
"B  c gray34",
"V  c #585858",
"C  c gray35",
"Z  c #5D5D5D",
"A  c #5F5F5F",
"S  c gray40",
"D  c #676767",
"F  c #686868",
"G  c DimGray",
"H  c #6A6A6A",
"J  c #6C6C6C",
"K  c #6D6D6D",
"L  c gray44",
"P  c gray45",
"I  c #747474",
"U  c #7B7B7B",
"Y  c gray49",
"T  c #7E7E7E",
"R  c #898989",
"E  c #939393",
"W  c gray58",
"Q  c gray59",
"!  c #9B9B9B",
"~  c #9D9D9D",
"^  c #9F9F9F",
"/  c #A2A2A2",
"(  c #AFAFAF",
")  c gray69",
"_  c #B1B1B1",
"`  c #B2B2B2",
"'  c gray70",
"]  c #B4B4B4",
"[  c #B6B6B6",
"{  c gray72",
"}  c #B9B9B9",
"|  c gray73",
" . c gray75",
".. c #C0C0C0",
"X. c #C1C1C1",
"o. c gray76",
"O. c gray77",
"+. c #C6C6C6",
"@. c gray78",
"#. c #C8C8C8",
"$. c gray79",
"%. c #CACACA",
"&. c #CBCBCB",
"*. c gray80",
"=. c #CDCDCD",
"-. c #CECECE",
";. c gray81",
":. c gray82",
">. c #D2D2D2",
",. c gray83",
"<. c #D5D5D5",
"1. c gray84",
"2. c #D7D7D7",
"3. c #D8D8D8",
"4. c gray85",
"5. c #DADADA",
"6. c gray86",
"7. c gainsboro",
"8. c #DDDDDD",
"9. c gray87",
"0. c #DFDFDF",
"q. c gray88",
"w. c #E1E1E1",
"e. c #E2E2E2",
"r. c gray89",
"t. c #E4E4E4",
/* pixels */
"                                                                                                              ",
"                                                                                                              ",
"                                                                                                              ",
"                                                                                                              ",
"                                                                                                              ",
"                                                                                                              ",
"                                                                                                              ",
"                                    > 2 2 2 2 2 2 2 2 2 2 2 2 2 2 2 2 2 >                                     ",
"                                > c ^ ,.4.4.4.4.4.4.4.4.4.4.4.4.4.4.4.,.W j =                                 ",
"                              = D $.4.4.4.4.4.4.4.4.4.4.4.4.4.4.4.4.4.4.4.@.c                                 ",
"                              u $.4.,. ._ _ _ _ _ _ _ _ _ _ _ _ _ _ _ @.,.4._ 2                               ",
"                            = W 4.,.W w 2 2 2 2 2 2 2 2 2 2 2 2 2 2 2 u ^ ,.4.b                               ",
"                            = $.4.,.b                                   D $.e.I                               ",
"                            = 4.4.$.u                                   b @.e.Y                               ",
"                            = 4.4.$.u               = w                 b @.e.Y =                             ",
"                            = 4.4.$.u               u ,.5               b @.e.Y =                             ",
"                            = 4.4.$.u               j e.w               b @.e.Y                               ",
"                            = 4.4.$.u               j e.w               b @.e.Y                               ",
"                            = 4.4.$.u               j e.w               b @.e.Y =                             ",
"                            = 4.4.$.u               u e.5               b @.e.Y =                             ",
"                            = 4.4.$.u     w u u u u H e.A u u u u w     b @.e.Y =                             ",
"                            = 4.4.$.u   w ,.e.e.e.e.e.4.e.e.e.e.e.@.2   b @.e.Y                               ",
"                            = 4.4.$.u     5 u u u u H e.A u u u u 5     b @.e.Y                               ",
"                            = 4.4.$.u               u e.5               b @.e.Y                               ",
"                            = 4.4.$.u               j e.w               b @.e.Y                               ",
"                            = 4.4.$.u               j e.w               b @.e.Y                               ",
"                            = 4.4.$.u               j e.w               b @.e.Y                               ",
"                            = 4.4.$.u               u 4.5               b @.e.Y                               ",
"                            = 4.4.$.u               = u                 b @.e.Y                               ",
"                            = 4.4.$.u                                   b @.e.Y                               ",
"                            = 4.4.$.u                                   b @.e.Y =                             ",
"                            = 4.4.$.u                                   b @.e.Y =                             ",
"                            = 4.4.$.u                                   b @.e.Y                               ",
"                            = 4.4.$.u                                   b @.e.Y                               ",
"                            = 4.4.$.u             = A R j               b @.e.Y                               ",
"                            = 4.4.$.u           = H $.4. .b             b @.e.Y                               ",
"                            = 4.4.$.u         = c $.4.4.4.@.A           b @.e.Y                               ",
"                            = 4.4.$.u       = c @.4.4.4.4.4.@.w         b @.e.Y                               ",
"                            = 4.4.$.u     = b $.4.4.^ H _ 4.4._ w       b @.e.Y                               ",
"                            = 4.4.$.u   = b $.4.4.^ 5   j _ 4.e._ u     b @.e.Y                               ",
"                            = 4.4.$.u = b $.4.4. .5       j _ 4.e. .u   b @.e.Y                               ",
"                            = 4.4.$.w b $.4.4. .j           j $.4.4. .u b @.e.Y                               ",
"                            = 4.4.,.W $.4.4._ u               A @.4.4. ./ $.4.Y =                             ",
"                            = 4.4.4.4.4.4._ u                   A @.4.4.4.4.e.Y =                             ",
"                            = 4.4.4.4.4._ u                       A @.4.4.4.e.Y                               ",
"                            = $.4.4.4.( u                           b  .4.4.e.I                               ",
"                              I 4.4. .u                               b  .4.$.u                               ",
"                              = c H 2                                   5 D u                                 ",
"                                                                                                              ",
"                                                                                                              ",
"                                                                                                              ",
"                                                                                                              ",
"                                                                                                              ",
"                                                                                                              ",
"                                                                                                              "
};
