/* XPM */
static char *bookmark[] = {
/* columns rows colors chars-per-pixel */
"55 55 113 2 ",
"   c None",
".  c #1E1E1E",
"X  c gray12",
"o  c #202020",
"O  c gray13",
"+  c #222222",
"@  c #232323",
"#  c gray14",
"$  c #252525",
"%  c gray15",
"&  c #272727",
"*  c #282828",
"=  c gray16",
"-  c #2A2A2A",
";  c #2D2D2D",
":  c gray18",
">  c gray19",
",  c #313131",
"<  c #323232",
"1  c gray20",
"2  c #343434",
"3  c #353535",
"4  c gray21",
"5  c #373737",
"6  c gray22",
"7  c #393939",
"8  c gray23",
"9  c gray24",
"0  c #3E3E3E",
"q  c #3F3F3F",
"w  c gray25",
"e  c gray27",
"r  c #464646",
"t  c gray28",
"y  c #494949",
"u  c #4B4B4B",
"i  c #4C4C4C",
"p  c gray30",
"a  c #4E4E4E",
"s  c gray31",
"d  c #505050",
"f  c #5D5D5D",
"g  c #606060",
"h  c #626262",
"j  c #646464",
"k  c DimGray",
"l  c gray42",
"z  c #6C6C6C",
"x  c #767676",
"c  c #818181",
"v  c gray51",
"b  c #848484",
"n  c #8B8B8B",
"m  c gray55",
"M  c gray56",
"N  c #929292",
"B  c #959595",
"V  c #979797",
"C  c #989898",
"Z  c gray60",
"A  c gray65",
"S  c #A7A7A7",
"D  c gray66",
"F  c #AAAAAA",
"G  c gray67",
"H  c #ACACAC",
"J  c gray68",
"K  c #AEAEAE",
"L  c #AFAFAF",
"P  c gray69",
"I  c #B2B2B2",
"U  c #B4B4B4",
"Y  c gray72",
"T  c gray73",
"R  c gray74",
"E  c gray",
"W  c gray75",
"Q  c #C0C0C0",
"!  c #C1C1C1",
"~  c gray76",
"^  c #C3C3C3",
"/  c gray77",
"(  c #C5C5C5",
")  c #C6C6C6",
"_  c gray78",
"`  c #C8C8C8",
"'  c gray79",
"]  c #CACACA",
"[  c #CECECE",
"{  c #D2D2D2",
"}  c gray84",
"|  c gray88",
" . c #E1E1E1",
".. c #E2E2E2",
"X. c gray89",
"o. c #E4E4E4",
"O. c #EAEAEA",
"+. c #ECECEC",
"@. c #EEEEEE",
"#. c gray94",
"$. c gray95",
"%. c #F3F3F3",
"&. c #F4F4F4",
"*. c gray96",
"=. c #F6F6F6",
"-. c gray97",
";. c #F8F8F8",
":. c #F9F9F9",
">. c gray98",
",. c #FBFBFB",
"<. c gray99",
"1. c #FDFDFD",
"2. c #FEFEFE",
/* pixels */
"                                                                                                              ",
"                                                                                                              ",
"                                                                                                              ",
"                                                                                                              ",
"                                                                                                              ",
"                                                                                                              ",
"                                                                                                              ",
"                                  1.+...................................+.1.                                  ",
"                              1.+.P g - % % % % % % % % % % % % % % % - l W %.                                ",
"                              %.C 4 % % % % % % % % % % % % % % % % % % % 6 P 1.                              ",
"                            1.) 4 % - w a a a a a a a a a a a a a a a 6 - % a ..1.                            ",
"                            %.l % - l [ ..............................) g - % K 1.                            ",
"                            %.4 % - K                                   C 4 . n 1.                            ",
"                            %.% % 4 )                                   K 6 . v 1.                            ",
"                            %.% % 4 )                                   K 6 . v 1.                            ",
"                            %.% % 4 )                                   K 6 . v %.                            ",
"                            %.% % 4 )                                   K 6 . v 1.                            ",
"                            %.% % 4 )                                   K 6 . v 1.                            ",
"                            %.% % 4 )                                   K 6 . v 1.                            ",
"                            %.% % 4 )                                   K 6 . v %.                            ",
"                            %.% % 4 )                                   K 6 . v %.                            ",
"                            %.% % 4 )                                   K 6 . v 1.                            ",
"                            %.% % 4 )                                   K 6 . v 1.                            ",
"                            %.% % 4 )                                   K 6 . v 1.                            ",
"                            %.% % 4 )                                   K 6 . v 1.                            ",
"                            %.% % 4 )                                   K 6 . v 1.                            ",
"                            %.% % 4 )                                   K 6 . v 1.                            ",
"                            %.% % 4 )                                   K 6 . v 1.                            ",
"                            %.% % 4 )                                   K 6 . v 1.                            ",
"                            %.% % 4 )                                   K 6 . v 1.                            ",
"                            %.% % 4 )                                   K 6 . v %.                            ",
"                            %.% % 4 )                                   K 6 . v %.                            ",
"                            %.% % 4 )                                   K 6 . v 1.                            ",
"                            %.% % 4 )                                   K 6 . v 1.                            ",
"                            %.% % 4 )             %.A x W 1.            K 6 . v 1.                            ",
"                            %.% % 4 )           %.V 4 % w K 1.          K 6 . v 1.                            ",
"                            %.% % 4 )         %.P 4 % % % 6 A 1.        K 6 . v 1.                            ",
"                            %.% % 4 )       %.P 6 % % % % % 6 [ 1.      K 6 . v 1.                            ",
"                            %.% % 4 )     %.K 4 % % g V d % % a [ 1.    K 6 . v 1.                            ",
"                            %.% % 4 )   %.K 4 % % g { 1.W a % . a ) 1.  K 6 . v 1.                            ",
"                            %.% % 4 ) %.K 4 % % w {     1.W a % . w ) 1.K 6 . v 1.                            ",
"                            %.% % 4 [ K 4 % % w W         1.W 4 % % w ) K 6 . v 1.                            ",
"                            %.% % - l 4 % % a )             1.A 6 % % w f 4 % v 1.                            ",
"                            %.% % % % % % a )                 1.A 6 % % % % . v 1.                            ",
"                            %.% % % % % a )                     1.A 6 % % % % v 1.                            ",
"                            %.4 % % % d )                         1.K w % % % n 1.                            ",
"                            1.n % % w )                             1.K w % 4 ) 1.                            ",
"                              %.P V ..                                  { C ) 1.                              ",
"                                                                                                              ",
"                                                                                                              ",
"                                                                                                              ",
"                                                                                                              ",
"                                                                                                              ",
"                                                                                                              ",
"                                                                                                              "
};
