/* XPM */
static char *cancel_dark[] = {
/* columns rows colors chars-per-pixel */
"55 55 30 1 ",
"  c None",
". c #060606",
"X c #0E0E0E",
"o c gray9",
"O c gray12",
"+ c #222222",
"@ c #2D2D2D",
"# c #353535",
"$ c #3C3C3C",
"% c #444444",
"& c gray29",
"* c #555555",
"= c gray35",
"- c #656565",
"; c #686868",
": c #767676",
"> c gray47",
", c gray53",
"< c #8E8E8E",
"1 c #909090",
"2 c gray62",
"3 c gray65",
"4 c #AEAEAE",
"5 c #B2B2B2",
"6 c gray73",
"7 c #C1C1C1",
"8 c #CDCDCD",
"9 c #D5D5D5",
"0 c #D8D8D8",
"q c gray88",
/* pixels */
"                                                       ",
"                                                       ",
"                                                       ",
"                                                       ",
"                                                       ",
"                                                       ",
"                                                       ",
"                                                       ",
"                      ..XoO+OoX..                      ",
"                   .O$=>135653<:*#o                    ",
"                  +*,4790q00qq0974>&O                  ",
"                o&<70qq087666790q096,%X                ",
"               +:600073,-*&%&*;,480094-O               ",
"              @,8007<=#o.     .O$-18008>+              ",
"             %5009,#o            .o$10093#             ",
"            #4008=O.               .+:9093+            ",
"           O2908*o                  .o-909<X           ",
"          .:909-X                     o;008=           ",
"          #600>O     +#.       .@+    .O1004+          ",
"         .,905@.    +36-       &63+    .#709;.         ",
"         @600=X     #907#     +508@     X:005O         ",
"         ;905O.     X1002X   .<00,X     .@708*         ",
"        .300;X       O500>.  -0q3o       X,q0<.        ",
"        o709#.       .$809% @8q8@.       .&005X        ",
"        @805O         .;q05+200=.        .@807O        ",
"        &902o          X3q059q<X          O5q8@        ",
"        =9q<X           @70005O           o309%        ",
"        -9q,X           .100q;.           o2q9&        ",
"        -9q,X           %90005O           o309%        ",
"        *9q1o          O609500<.          o409#        ",
"        #904o         .10q,O6q0;         .+708+        ",
"        O808@.        -9q5o.%009#        .%906o        ",
"        X500*X       #709$  .>q04o       X:q02.        ",
"         ,9q2o      o400:.   o400,.      O4q9;         ",
"         %809$.     =0q4X     #909@     .*007@         ",
"         X3001o     %86#      .=94O     O3001.         ",
"          *909*X    .+O.       .+O.    .;008$          ",
"          X2007#.    ..         .     .$809,.          ",
"           @7005O.                   .#7005O           ",
"            *9005@.                 .$7007$            ",
"             ;9007&.               X-9008*             ",
"             .;90001#.           .$30009*              ",
"               *800q92*O.     .O=30q007%               ",
"                #3000qq841>>,158qq0001+                ",
"                 X*50q000qqqqq000q04%.                 ",
"                   X%<70q00000q06,$.                   ",
"                      X@*<453,&@X                      ",
"                                                       ",
"                                                       ",
"                                                       ",
"                                                       ",
"                                                       ",
"                                                       ",
"                                                       ",
"                                                       "
};
