/* XPM */
static char *cancel[] = {
/* columns rows colors chars-per-pixel */
"55 55 195 2 ",
"   c #1D1D1D",
".  c #1E1E1E",
"X  c gray12",
"o  c #202020",
"O  c gray13",
"+  c #222222",
"@  c #232323",
"#  c gray14",
"$  c #252525",
"%  c gray15",
"&  c #272727",
"*  c #282828",
"=  c gray16",
"-  c #2A2A2A",
";  c gray17",
":  c #2C2C2C",
">  c #2D2D2D",
",  c gray18",
"<  c #2F2F2F",
"1  c gray19",
"2  c #313131",
"3  c #323232",
"4  c gray20",
"5  c #343434",
"6  c #353535",
"7  c gray21",
"8  c #373737",
"9  c gray22",
"0  c #393939",
"q  c #3A3A3A",
"w  c gray23",
"e  c #3C3C3C",
"r  c gray24",
"t  c #3E3E3E",
"y  c #3F3F3F",
"u  c gray25",
"i  c gray26",
"p  c #434343",
"a  c #444444",
"s  c gray27",
"d  c #464646",
"f  c gray28",
"g  c #484848",
"h  c #494949",
"j  c gray29",
"k  c #4B4B4B",
"l  c #4C4C4C",
"z  c gray30",
"x  c #4E4E4E",
"c  c gray31",
"v  c #505050",
"b  c #515151",
"n  c gray32",
"m  c #535353",
"M  c #555555",
"N  c #565656",
"B  c gray34",
"V  c #585858",
"C  c gray35",
"Z  c #5A5A5A",
"A  c gray36",
"S  c #5D5D5D",
"D  c gray37",
"F  c gray38",
"G  c #626262",
"H  c gray39",
"J  c gray40",
"K  c #676767",
"L  c #686868",
"P  c #6A6A6A",
"I  c #6C6C6C",
"U  c #6D6D6D",
"Y  c gray43",
"T  c #6F6F6F",
"R  c gray44",
"E  c #717171",
"W  c #727272",
"Q  c gray45",
"!  c #747474",
"~  c gray46",
"^  c #777777",
"/  c gray47",
"(  c #797979",
")  c gray48",
"_  c #7B7B7B",
"`  c #7C7C7C",
"'  c gray49",
"]  c gray50",
"[  c #808080",
"{  c #818181",
"}  c #838383",
"|  c #848484",
" . c gray53",
".. c #898989",
"X. c gray55",
"o. c #8D8D8D",
"O. c #8E8E8E",
"+. c #909090",
"@. c #929292",
"#. c #939393",
"$. c gray58",
"%. c #959595",
"&. c gray59",
"*. c #979797",
"=. c #989898",
"-. c #9A9A9A",
";. c #9B9B9B",
":. c gray61",
">. c gray62",
",. c #9F9F9F",
"<. c #A0A0A0",
"1. c gray63",
"2. c #A2A2A2",
"3. c gray64",
"4. c #A4A4A4",
"5. c gray65",
"6. c gray66",
"7. c #A9A9A9",
"8. c #AAAAAA",
"9. c gray67",
"0. c #ACACAC",
"q. c gray68",
"w. c #AEAEAE",
"e. c #AFAFAF",
"r. c gray69",
"t. c #B2B2B2",
"y. c gray70",
"u. c gray71",
"i. c #B6B6B6",
"p. c #B7B7B7",
"a. c gray72",
"s. c #B9B9B9",
"d. c gray73",
"f. c #BBBBBB",
"g. c #BCBCBC",
"h. c gray",
"j. c gray75",
"k. c #C0C0C0",
"l. c gray76",
"z. c #C3C3C3",
"x. c gray77",
"c. c #C6C6C6",
"v. c gray78",
"b. c #C8C8C8",
"n. c gray79",
"m. c #CACACA",
"M. c #CBCBCB",
"N. c gray80",
"B. c #CDCDCD",
"V. c #CECECE",
"C. c gray81",
"Z. c #D0D0D0",
"A. c gray82",
"S. c #D2D2D2",
"D. c LightGray",
"F. c #D5D5D5",
"G. c gray84",
"H. c #D8D8D8",
"J. c gray85",
"K. c gray86",
"L. c gainsboro",
"P. c #DDDDDD",
"I. c gray87",
"U. c #DFDFDF",
"Y. c gray88",
"T. c #E1E1E1",
"R. c gray89",
"E. c #E4E4E4",
"W. c gray90",
"Q. c #E6E6E6",
"!. c #E7E7E7",
"~. c gray91",
"^. c #E9E9E9",
"/. c #EAEAEA",
"(. c gray92",
"). c #ECECEC",
"_. c gray93",
"`. c #EEEEEE",
"'. c #EFEFEF",
"]. c gray94",
"[. c #F1F1F1",
"{. c gray95",
"}. c #F3F3F3",
"|. c #F4F4F4",
" X c gray96",
".X c #F6F6F6",
"XX c gray97",
"oX c #F8F8F8",
"OX c #F9F9F9",
"+X c gray98",
"@X c #FBFBFB",
"#X c gray99",
"$X c #FDFDFD",
"%X c #FEFEFE",
"&X c white",
/* pixels */
"&X&X&X&X&X&X&X&X&X&X&X&X&X&X&X&X&X&X&X&X&X&X&X&X&X&X&X&X&X&X&X&X&X&X&X&X&X&X&X&X&X&X&X&X&X&X&X&X&X&X&X&X&X&X&X",
"&X&X&X&X&X&X&X&X&X&X&X&X&X&X&X&X&X&X&X&X&X&X&X&X&X&X&X&X&X&X&X&X&X&X&X&X&X&X&X&X&X&X&X&X&X&X&X&X&X&X&X&X&X&X&X",
"&X&X&X&X&X&X&X&X&X&X&X&X&X&X&X&X&X&X&X&X&X&X&X&X&X&X&X&X&X&X&X&X&X&X&X&X&X&X&X&X&X&X&X&X&X&X&X&X&X&X&X&X&X&X&X",
"&X&X&X&X&X&X&X&X&X&X&X&X&X&X&X&X&X&X&X&X&X&X&X&X&X&X&X&X&X&X&X&X&X&X&X&X&X&X&X&X&X&X&X&X&X&X&X&X&X&X&X&X&X&X&X",
"&X&X&X&X&X&X&X&X&X&X&X&X&X&X&X&X&X&X&X&X&X&X&X&X&X&X&X&X&X&X&X&X&X&X&X&X&X&X&X&X&X&X&X&X&X&X&X&X&X&X&X&X&X&X&X",
"&X&X&X&X&X&X&X&X&X&X&X&X&X&X&X&X&X&X&X&X&X&X&X&X&X&X&X&X&X&X&X&X&X&X&X&X&X&X&X&X&X&X&X&X&X&X&X&X&X&X&X&X&X&X&X",
"&X&X&X&X&X&X&X&X&X&X&X&X&X&X&X&X&X&X&X&X&X&X&X&X&X&X&X&X&X&X&X&X&X&X&X&X&X&X&X&X&X&X&X&X&X&X&X&X&X&X&X&X&X&X&X",
"&X&X&X&X&X&X&X&X&X&X&X&X&X&X&X&X&X&X&X&X&X&X&X&X&X&X&X&X&X&X&X&X&X&X&X&X&X&X&X&X&X&X&X&X&X&X&X&X&X&X&X&X&X&X&X",
"&X&X&X&X&X&X&X&X&X&X&X&X&X&X&X&X&X&X&X&X&X&X&X&X[.~.Y.P.Y.~.[.&X&X&X&X&X&X&X&X&X&X&X&X&X&X&X&X&X&X&X&X&X&X&X&X",
"&X&X&X&X&X&X&X&X&X&X&X&X&X&X&X&X&X&X&X&XY.z.5. .T C z s z C E ..8.m.~.&X&X&X&X&X&X&X&X&X&X&X&X&X&X&X&X&X&X&X&X",
"&X&X&X&X&X&X&X&X&X&X&X&X&X&X&X&X&X&XP.8./ b t - & X & & X X & - t b  .u.Y.&X&X&X&X&X&X&X&X&X&X&X&X&X&X&X&X&X&X",
"&X&X&X&X&X&X&X&X&X&X&X&X&X&X&X&X~.u.E t & X X & 3 t s s s t - & X & - s / f.[.&X&X&X&X&X&X&X&X&X&X&X&X&X&X&X&X",
"&X&X&X&X&X&X&X&X&X&X&X&X&X&X&XP...s & & & t C / -.8.u.f.u.8.&./ b 3 & & - b -.Y.&X&X&X&X&X&X&X&X&X&X&X&X&X&X&X",
"&X&X&X&X&X&X&X&X&X&X&X&X&X&XS./ 3 & & t E 5.m.~.&X&X&X&X&X&X&XY.z.-.T 3 & & 3  .P.&X&X&X&X&X&X&X&X&X&X&X&X&X&X",
"&X&X&X&X&X&X&X&X&X&X&X&X&Xf.z & & - / m.~.&X&X&X&X&X&X&X&X&X&X&X&X&X~.z.T & & - C m.&X&X&X&X&X&X&X&X&X&X&X&X&X",
"&X&X&X&X&X&X&X&X&X&X&X&Xm.b & & 3 5.Y.&X&X&X&X&X&X&X&X&X&X&X&X&X&X&X&X&XP...- & - C P.&X&X&X&X&X&X&X&X&X&X&X&X",
"&X&X&X&X&X&X&X&X&X&X&XY.F - & 3 8.~.&X&X&X&X&X&X&X&X&X&X&X&X&X&X&X&X&X&X&X~.-.- & - E [.&X&X&X&X&X&X&X&X&X&X&X",
"&X&X&X&X&X&X&X&X&X&X&X..- & - -.[.&X&X&X&X&X&X&X&X&X&X&X&X&X&X&X&X&X&X&X&X&X~.&.& & 3 5.&X&X&X&X&X&X&X&X&X&X&X",
"&X&X&X&X&X&X&X&X&X&Xm.s & &  .Y.&X&X&X&X&XP.m.&X&X&X&X&X&X&X&X&XS.P.&X&X&X&X&XY.T & & b P.&X&X&X&X&X&X&X&X&X&X",
"&X&X&X&X&X&X&X&X&X&X/ - & z S.&X&X&X&X&XP.C s -.&X&X&X&X&X&X&Xu.s C P.&X&X&X&X&Xm.t & - &.&X&X&X&X&X&X&X&X&X&X",
"&X&X&X&X&X&X&X&X&XS.s & & 5.[.&X&X&X&X&Xm.- & t m.&X&X&X&X&XP.z & 3 S.&X&X&X&X&X[...& & z Y.&X&X&X&X&X&X&X&X&X",
"&X&X&X&X&X&X&X&X&X&.- & z Y.&X&X&X&X&X&X[.T & & F [.&X&X&X&XE & & / [.&X&X&X&X&X&XS.t & - 8.&X&X&X&X&X&X&X&X&X",
"&X&X&X&X&X&X&X&X[.C & & &.[.&X&X&X&X&X&X&XY.z & &  .&X&X&X-.& X C ~.&X&X&X&X&X&X&X[./ X & T &X&X&X&X&X&X&X&X&X",
"&X&X&X&X&X&X&X&X~.t & - m.&X&X&X&X&X&X&X&X&Xz.3 & - f.&XS.3 X 3 S.&X&X&X&X&X&X&X&X&Xu.& & z [.&X&X&X&X&X&X&X&X",
"&X&X&X&X&X&X&X&XS.3 & z Y.&X&X&X&X&X&X&X&X&X&X&.X & z S.F & & 5.&X&X&X&X&X&X&X&X&X&XS.3 & t Y.&X&X&X&X&X&X&X&X",
"&X&X&X&X&X&X&X&Xu.- & F ~.&X&X&X&X&X&X&X&X&X&X[.C X & z - X E [.&X&X&X&X&X&X&X&X&X&XY.z X 3 S.&X&X&X&X&X&X&X&X",
"&X&X&X&X&X&X&X&X5.- X E [.&X&X&X&X&X&X&X&X&X&X&XS.t & & & z Y.&X&X&X&X&X&X&X&X&X&X&X~.C & - f.&X&X&X&X&X&X&X&X",
"&X&X&X&X&X&X&X&X-.- X / [.&X&X&X&X&X&X&X&X&X&X&X&XT & & X -.&X&X&X&X&X&X&X&X&X&X&X&X~.F X - u.&X&X&X&X&X&X&X&X",
"&X&X&X&X&X&X&X&X-.& X / [.&X&X&X&X&X&X&X&X&X&X&Xf.- & & & s Y.&X&X&X&X&X&X&X&X&X&X&X~.C & - f.&X&X&X&X&X&X&X&X",
"&X&X&X&X&X&X&X&X8.- X T ~.&X&X&X&X&X&X&X&X&X&XY.s & - z & & E &X&X&X&X&X&X&X&X&X&X&X~.b & - m.&X&X&X&X&X&X&X&X",
"&X&X&X&X&X&X&X&Xm.- & b ~.&X&X&X&X&X&X&X&X&X&XT & X / Y.s X & &.&X&X&X&X&X&X&X&X&X&XP.t & 3 P.&X&X&X&X&X&X&X&X",
"&X&X&X&X&X&X&X&XY.3 & 3 S.&X&X&X&X&X&X&X&X&X-.- X z ~.&Xf.& & - m.&X&X&X&X&X&X&X&X&Xf.- & s ~.&X&X&X&X&X&X&X&X",
"&X&X&X&X&X&X&X&X[.z & & 8.[.&X&X&X&X&X&X&Xm.t & - z.&X&X&X .X & b ~.&X&X&X&X&X&X&X[...X & F &X&X&X&X&X&X&X&X&X",
"&X&X&X&X&X&X&X&X&X/ - X F ~.&X&X&X&X&X&X~.b & & ..&X&X&X&X~.b & & / &X&X&X&X&X&X&XY.b X - &.&X&X&X&X&X&X&X&X&X",
"&X&X&X&X&X&X&X&X&Xf.3 & - z.&X&X&X&X&X&X5.& X b [.&X&X&X&X&Xm.- X - S.&X&X&X&X&X&X8.& & t S.&X&X&X&X&X&X&X&X&X",
"&X&X&X&X&X&X&X&X&X[.C & & T ~.&X&X&X&X&Xf.3 s m.&X&X&X&X&X&X&X5.- b Y.&X&X&X&X&XY.C & & T &X&X&X&X&X&X&X&X&X&X",
"&X&X&X&X&X&X&X&X&X&X8.- & - 8.[.&X&X&X&X&XP.Y.&X&X&X&X&X&X&X&X&XP.Y.&X&X&X&X&X&X&.& & 3 z.&X&X&X&X&X&X&X&X&X&X",
"&X&X&X&X&X&X&X&X&X&X[.F & & t m.&X&X&X&X&X&X&X&X&X&X&X&X&X&X&X&X&X&X&X&X&X&X&Xz.3 & - / &X&X&X&X&X&X&X&X&X&X&X",
"&X&X&X&X&X&X&X&X&X&X&XS.t & & z P.&X&X&X&X&X&X&X&X&X&X&X&X&X&X&X&X&X&X&X&X&Xm.t & & z Y.&X&X&X&X&X&X&X&X&X&X&X",
"&X&X&X&X&X&X&X&X&X&X&X&X8.- & & z S.&X&X&X&X&X&X&X&X&X&X&X&X&X&X&X&X&X&X&Xz.t & & t z.&X&X&X&X&X&X&X&X&X&X&X&X",
"&X&X&X&X&X&X&X&X&X&X&X&X&X&.- & & t u.&X&X&X&X&X&X&X&X&X&X&X&X&X&X&X&X[.-.- & & 3 8.&X&X&X&X&X&X&X&X&X&X&X&X&X",
"&X&X&X&X&X&X&X&X&X&X&X&X&X&X&.- & & & T m.&X&X&X&X&X&X&X&X&X&X&X&X&Xz.C & & & - 8.&X&X&X&X&X&X&X&X&X&X&X&X&X&X",
"&X&X&X&X&X&X&X&X&X&X&X&X&X&X&X8.3 & & X - F 8.Y.&X&X&X&X&X&X&XY.5.C & X & & t f.&X&X&X&X&X&X&X&X&X&X&X&X&X&X&X",
"&X&X&X&X&X&X&X&X&X&X&X&X&X&X&X&Xm.C & & & X X 3 b T  . ./ T z 3 X X & & & T P.&X&X&X&X&X&X&X&X&X&X&X&X&X&X&X&X",
"&X&X&X&X&X&X&X&X&X&X&X&X&X&X&X&X&X[.8.z & X & & & X X X X X & & & X & b f.&X&X&X&X&X&X&X&X&X&X&X&X&X&X&X&X&X&X",
"&X&X&X&X&X&X&X&X&X&X&X&X&X&X&X&X&X&X&X[.f.E t & X & & & & & X & s / z.&X&X&X&X&X&X&X&X&X&X&X&X&X&X&X&X&X&X&X&X",
"&X&X&X&X&X&X&X&X&X&X&X&X&X&X&X&X&X&X&X&X&X&X[.S.8.E b z C / u.S.[.&X&X&X&X&X&X&X&X&X&X&X&X&X&X&X&X&X&X&X&X&X&X",
"&X&X&X&X&X&X&X&X&X&X&X&X&X&X&X&X&X&X&X&X&X&X&X&X&X&X&X&X&X&X&X&X&X&X&X&X&X&X&X&X&X&X&X&X&X&X&X&X&X&X&X&X&X&X&X",
"&X&X&X&X&X&X&X&X&X&X&X&X&X&X&X&X&X&X&X&X&X&X&X&X&X&X&X&X&X&X&X&X&X&X&X&X&X&X&X&X&X&X&X&X&X&X&X&X&X&X&X&X&X&X&X",
"&X&X&X&X&X&X&X&X&X&X&X&X&X&X&X&X&X&X&X&X&X&X&X&X&X&X&X&X&X&X&X&X&X&X&X&X&X&X&X&X&X&X&X&X&X&X&X&X&X&X&X&X&X&X&X",
"&X&X&X&X&X&X&X&X&X&X&X&X&X&X&X&X&X&X&X&X&X&X&X&X&X&X&X&X&X&X&X&X&X&X&X&X&X&X&X&X&X&X&X&X&X&X&X&X&X&X&X&X&X&X&X",
"&X&X&X&X&X&X&X&X&X&X&X&X&X&X&X&X&X&X&X&X&X&X&X&X&X&X&X&X&X&X&X&X&X&X&X&X&X&X&X&X&X&X&X&X&X&X&X&X&X&X&X&X&X&X&X",
"&X&X&X&X&X&X&X&X&X&X&X&X&X&X&X&X&X&X&X&X&X&X&X&X&X&X&X&X&X&X&X&X&X&X&X&X&X&X&X&X&X&X&X&X&X&X&X&X&X&X&X&X&X&X&X",
"&X&X&X&X&X&X&X&X&X&X&X&X&X&X&X&X&X&X&X&X&X&X&X&X&X&X&X&X&X&X&X&X&X&X&X&X&X&X&X&X&X&X&X&X&X&X&X&X&X&X&X&X&X&X&X",
"&X&X&X&X&X&X&X&X&X&X&X&X&X&X&X&X&X&X&X&X&X&X&X&X&X&X&X&X&X&X&X&X&X&X&X&X&X&X&X&X&X&X&X&X&X&X&X&X&X&X&X&X&X&X&X"
};
