/* XPM */
static char *checked_dark[] = {
/* columns rows colors chars-per-pixel */
"55 55 30 1 ",
"  c None",
". c #060606",
"X c gray3",
"o c gray8",
"O c #191919",
"+ c gray14",
"@ c #2D2D2D",
"# c gray19",
"$ c #393939",
"% c #464646",
"& c gray30",
"* c gray34",
"= c #585858",
"- c #606060",
"; c #6D6D6D",
": c #777777",
"> c gray47",
", c #868686",
"< c #8B8B8B",
"1 c #959595",
"2 c #9A9A9A",
"3 c #A2A2A2",
"4 c gray66",
"5 c #B1B1B1",
"6 c #BBBBBB",
"7 c gray76",
"8 c #CECECE",
"9 c LightGray",
"0 c #DDDDDD",
"q c gray88",
/* pixels */
"                                                       ",
"                                                       ",
"                                                       ",
"                                                       ",
"                                                       ",
"                                                       ",
"                                                       ",
"                                                       ",
"                                                       ",
"                                                       ",
"             XO#########################+X             ",
"           .@;380000000000000000000000096<*X           ",
"           @<800000000000000000000000000007=.          ",
"          X;80831111111111111111111111126006+          ",
"          O308<#+++++++++++++++++++++++@*700;          ",
"          #804$                         .;q07          ",
"          #002@                          &q00          ",
"          #001+                          &q00          ",
"          #001+                          &q00          ",
"          #001+                  O&+.    &q00          ",
"          #001+                 o<71X    &q00          ",
"          #001+                 =9q4X    &q00          ",
"          #001+                +500=.    &q00          ",
"          #001+               .<0q1X     &q00          ",
"          #001+               &807@.     &q00          ",
"          #002+              O400-.      &q00          ",
"          #001+             .:903o       &q00          ",
"          #001+   .$>&X     $708#.       &q00          ",
"          #001+   X197&.   X200>X        &q00          ",
"          #001+   X<905+.  -805+.        &q00          ",
"          #001+   .@400<o +509&.         &q00          ",
"          #001+    .%609-X,90<o          &q00          ",
"          #001+     .=708<806+.          &q00          ",
"          #001+      .:90000*X           &q00          ",
"          #002+       o300q1o            &q00          ",
"          #001+        +4q6@.            &q00          ",
"          #001+        .O&+.             &q00          ",
"          #001+         ...              &q00          ",
"          #001+                          &q00          ",
"          #902@                          =q09          ",
"          +607*.                        .3q03          ",
"          X<007:*&&&&&&&&&&&&&&&&&&&&&&=3000$          ",
"          .&600qqqqqqqqqqqqqqqqqqqqqqqqq00q2.          ",
"           X*600000000000000000000000000002o           ",
"            .O-69000000000000000000000081$.            ",
"                                                       ",
"                                                       ",
"                                                       ",
"                                                       ",
"                                                       ",
"                                                       ",
"                                                       ",
"                                                       ",
"                                                       ",
"                                                       "
};
