/* XPM */
static char *checked_dark[] = {
/* columns rows colors chars-per-pixel */
"55 55 133 2 ",
"   c black",
".  c #010101",
"X  c #020202",
"o  c gray1",
"O  c #040404",
"+  c gray2",
"@  c #060606",
"#  c #070707",
"$  c gray3",
"%  c #090909",
"&  c gray4",
"*  c #0C0C0C",
"=  c #0E0E0E",
"-  c gray6",
";  c gray7",
":  c #131313",
">  c gray8",
",  c #161616",
"<  c #191919",
"1  c gray10",
"2  c gray11",
"3  c #202020",
"4  c gray13",
"5  c #222222",
"6  c #232323",
"7  c gray14",
"8  c #252525",
"9  c gray15",
"0  c #272727",
"q  c #282828",
"w  c gray17",
"e  c #2C2C2C",
"r  c #2D2D2D",
"t  c gray18",
"y  c gray19",
"u  c #313131",
"i  c gray20",
"p  c #343434",
"a  c #353535",
"s  c gray21",
"d  c #373737",
"f  c gray22",
"g  c #393939",
"h  c #3C3C3C",
"j  c #3E3E3E",
"k  c #464646",
"l  c #494949",
"z  c gray29",
"x  c #4C4C4C",
"c  c gray30",
"v  c gray31",
"b  c #505050",
"n  c #535353",
"m  c #555555",
"M  c #565656",
"N  c gray34",
"B  c #585858",
"V  c gray35",
"C  c #5A5A5A",
"Z  c gray36",
"A  c gray37",
"S  c #606060",
"D  c gray39",
"F  c gray40",
"G  c #6D6D6D",
"H  c gray43",
"J  c #717171",
"K  c #727272",
"L  c #777777",
"P  c gray47",
"I  c #7C7C7C",
"U  c #868686",
"Y  c #898989",
"T  c gray54",
"R  c #8B8B8B",
"E  c #8D8D8D",
"W  c gray56",
"Q  c gray57",
"!  c #939393",
"~  c #959595",
"^  c gray59",
"/  c #979797",
"(  c #989898",
")  c #9A9A9A",
"_  c #9B9B9B",
"`  c #9D9D9D",
"'  c gray62",
"]  c #9F9F9F",
"[  c #A0A0A0",
"{  c gray63",
"}  c #A2A2A2",
"|  c #A4A4A4",
" . c #A7A7A7",
".. c gray66",
"X. c gray67",
"o. c #ACACAC",
"O. c #AFAFAF",
"+. c #B1B1B1",
"@. c #B2B2B2",
"#. c #B7B7B7",
"$. c gray73",
"%. c #BBBBBB",
"&. c gray74",
"*. c gray",
"=. c gray75",
"-. c #C0C0C0",
";. c #C1C1C1",
":. c gray76",
">. c gray77",
",. c #C5C5C5",
"<. c #C6C6C6",
"1. c gray78",
"2. c #CACACA",
"3. c #CDCDCD",
"4. c #CECECE",
"5. c gray81",
"6. c gray82",
"7. c LightGray",
"8. c gray83",
"9. c #D5D5D5",
"0. c gray84",
"q. c #D7D7D7",
"w. c #D8D8D8",
"e. c gray85",
"r. c #DADADA",
"t. c gray86",
"y. c gainsboro",
"u. c #DDDDDD",
"i. c gray87",
"p. c #DFDFDF",
"a. c gray88",
"s. c #E1E1E1",
"d. c #E4E4E4",
/* pixels */
"                                                                                                              ",
"                                                                                                              ",
"                                                                                                              ",
"                                                                                                              ",
"                                                                                                              ",
"                                                                                                              ",
"                                                                                                              ",
"                                                                                                              ",
"                                                                                                              ",
"                                                                                                              ",
"                          $ < y y y y y y y y y y y y y y y y y y y y y y y y y 8 $                           ",
"                        r G } 4.u.u.u.u.u.u.u.u.u.u.u.u.u.u.u.u.u.u.u.u.u.u.u.7.&.R N $                       ",
"                      r R 4.u.u.u.u.u.u.u.u.u.u.u.u.u.u.u.u.u.u.u.u.u.u.u.u.u.u.u.u.:.B                       ",
"                    $ G 4.u.4.} ~ ~ ~ ~ ~ ~ ~ ~ ~ ~ ~ ~ ~ ~ ~ ~ ~ ~ ~ ~ ~ ~ ~ ) &.u.u.&.8                     ",
"                    < } u.4.R y 8 8 8 8 8 8 8 8 8 8 8 8 8 8 8 8 8 8 8 8 8 8 8 r N :.u.u.G                     ",
"                    y 4.u...g                                                     G a.u.:.                    ",
"                    y u.u.) r                                                     c a.u.u.                    ",
"                    y u.u.~ 8                                                     c a.u.u.                    ",
"                    y u.u.~ 8                                                     c a.u.u.                    ",
"                    y u.u.~ 8                                     < c 8           c a.u.u.                    ",
"                    y u.u.~ 8                                   > R 4.~ $         c a.u.u.                    ",
"                    y u.u.~ 8                                   B 7.a...$         c a.u.u.                    ",
"                    y u.u.~ 8                                 8 &.u.u.B           c a.u.u.                    ",
"                    y u.u.~ 8                                 R u.a.~ $           c a.u.u.                    ",
"                    y u.u.) 8                               c 4.u.:.r             c a.u.u.                    ",
"                    y u.u.) 8                             < ..u.u.S               c a.u.u.                    ",
"                    y u.u.~ 8                             L 7.u.} >               c a.u.u.                    ",
"                    y u.u.~ 8         g P c $           g :.u.4.y                 c a.u.u.                    ",
"                    y u.u.~ 8       $ ~ 7.:.c         $ ) u.u.P $                 c a.u.u.                    ",
"                    y u.u.~ 8       $ R 7.u.+.8       S 4.u.+.8                   c a.u.u.                    ",
"                    y u.u.~ 8         r ..u.u.R >   8 +.u.7.c                     c a.u.u.                    ",
"                    y u.u.~ 8           k &.u.7.S $ U 7.u.R >                     c a.u.u.                    ",
"                    y u.u.~ 8             B :.u.4.R 4.u.&.8                       c a.u.u.                    ",
"                    y u.u.~ 8               L 7.u.u.u.u.N $                       c a.u.u.                    ",
"                    y u.u.) 8               > } u.u.a.~ >                         c a.u.u.                    ",
"                    y u.u.~ 8                 8 ..a.&.r                           c a.u.u.                    ",
"                    y u.u.~ 8                   8 c 8                             c a.u.u.                    ",
"                    y u.u.~ 8                                                     c a.u.u.                    ",
"                    y u.u.~ 8                                                     c a.u.u.                    ",
"                    y 7.u.) r                                                     B a.u.7.                    ",
"                    8 &.u.:.N                                                     } a.u.}                     ",
"                    $ R u.u.:.L N c c c c c c c c c c c c c c c c c c c c c c B } u.u.u.g                     ",
"                      c &.u.u.a.a.a.a.a.a.a.a.a.a.a.a.a.a.a.a.a.a.a.a.a.a.a.a.a.u.u.a.)                       ",
"                      $ N &.u.u.u.u.u.u.u.u.u.u.u.u.u.u.u.u.u.u.u.u.u.u.u.u.u.u.u.u.) >                       ",
"                          < S &.7.u.u.u.u.u.u.u.u.u.u.u.u.u.u.u.u.u.u.u.u.u.u.4.~ g                           ",
"                                                                                                              ",
"                                                                                                              ",
"                                                                                                              ",
"                                                                                                              ",
"                                                                                                              ",
"                                                                                                              ",
"                                                                                                              ",
"                                                                                                              ",
"                                                                                                              ",
"                                                                                                              "
};
