/* XPM */
static char *close_dark[] = {
/* columns rows colors chars-per-pixel */
"55 55 27 1 ",
"  c None",
". c #020202",
"X c #0C0C0C",
"o c #131313",
"O c gray10",
"+ c gray13",
"@ c gray17",
"# c gray21",
"$ c gray24",
"% c #444444",
"& c #494949",
"* c gray32",
"= c #585858",
"- c #646464",
"; c #686868",
": c #717171",
"> c gray51",
", c gray58",
"< c #989898",
"1 c #A7A7A7",
"2 c #A9A9A9",
"3 c gray71",
"4 c #B9B9B9",
"5 c #C5C5C5",
"6 c #C8C8C8",
"7 c #D2D2D2",
"8 c #DFDFDF",
/* pixels */
"                                                       ",
"                                                       ",
"                                                       ",
"                                                       ",
"                                                       ",
"                                                       ",
"                                                       ",
"                                                       ",
"                                                       ",
"                                                       ",
"                                                       ",
"                                                       ",
"             .XX.                      .XX             ",
"             @32+.                    X%3,X            ",
"            .2881+.                  X%487%            ",
"            .,8881+.                X%4886$            ",
"             o>7882#.             .o*4884-.            ",
"              o>7882#.            o*4884-X             ",
"               o>7882#.          X*4884-X              ",
"                o>7881#.        X%4884-X               ",
"                 o>7881#.      X%4884-X                ",
"                  o>7881#.    X%4884-X                 ",
"                   o>7881#.  X%4884-X                  ",
"                    o>7881#.X%4886-X                   ",
"                     O>7881#%4886:X                    ",
"                     .O>78833886:X                     ",
"                      .O>788885:X                      ",
"                       .+28887,X                       ",
"                       X%388871#.                      ",
"                     .o;58845884*X                     ",
"                     o;5883=-5884*X                    ",
"                    X;5883*.o-5884&X                   ",
"                   X-5883*. .o-5882&X                  ",
"                  X-5883*X   .o-5872&X                 ",
"                 X-5883*X     .o-5872&.                ",
"                X-5883*X        o-6872&X               ",
"               X-5884*X          o:6882&X              ",
"              X-5884*X            O:6872&X             ",
"             X-5884*X             .O:6882&.            ",
"            .-5884*X               .O:6872+            ",
"            .2884*X                 .O:687$            ",
"             $32#.                    X*3<o            ",
"             .OO.                     .XOo.            ",
"                                                       ",
"                                                       ",
"                                                       ",
"                                                       ",
"                                                       ",
"                                                       ",
"                                                       ",
"                                                       ",
"                                                       ",
"                                                       ",
"                                                       ",
"                                                       "
};
