/* XPM */
static char *close_dark[] = {
/* columns rows colors chars-per-pixel */
"55 55 104 2 ",
"   c black",
".  c #010101",
"X  c #020202",
"o  c gray1",
"O  c #040404",
"+  c gray2",
"@  c #070707",
"#  c gray3",
"$  c #090909",
"%  c gray4",
"&  c #0B0B0B",
"*  c #0C0C0C",
"=  c gray5",
"-  c #0E0E0E",
";  c gray6",
":  c #101010",
">  c #111111",
",  c gray7",
"<  c #131313",
"1  c #151515",
"2  c gray9",
"3  c gray10",
"4  c gray11",
"5  c #1D1D1D",
"6  c gray13",
"7  c #232323",
"8  c gray14",
"9  c gray17",
"0  c #313131",
"q  c #323232",
"w  c #353535",
"e  c gray21",
"r  c gray22",
"t  c gray24",
"y  c #3F3F3F",
"u  c gray25",
"i  c gray26",
"p  c #444444",
"a  c gray27",
"s  c #464646",
"d  c #484848",
"f  c #494949",
"g  c gray32",
"h  c #535353",
"j  c gray33",
"k  c #555555",
"l  c #565656",
"z  c gray34",
"x  c #585858",
"c  c gray38",
"v  c #626262",
"b  c gray39",
"n  c #646464",
"m  c #656565",
"M  c #686868",
"N  c #717171",
"B  c #727272",
"V  c #818181",
"C  c gray51",
"Z  c #868686",
"A  c gray53",
"S  c #939393",
"D  c gray58",
"F  c #959595",
"G  c #989898",
"H  c gray65",
"J  c #A7A7A7",
"K  c gray66",
"L  c #A9A9A9",
"P  c #AAAAAA",
"I  c gray67",
"U  c gray68",
"Y  c #AEAEAE",
"T  c #B2B2B2",
"R  c gray70",
"E  c #B4B4B4",
"W  c gray71",
"Q  c #B6B6B6",
"!  c #B7B7B7",
"~  c gray72",
"^  c #B9B9B9",
"/  c gray74",
"(  c gray",
")  c gray75",
"_  c #C0C0C0",
"`  c gray76",
"'  c #C3C3C3",
"]  c gray77",
"[  c #C5C5C5",
"{  c gray78",
"}  c #C8C8C8",
"|  c gray79",
" . c #D2D2D2",
".. c LightGray",
"X. c gray84",
"o. c #D7D7D7",
"O. c #D8D8D8",
"+. c gray85",
"@. c #DADADA",
"#. c gray86",
"$. c gainsboro",
"%. c #DDDDDD",
"&. c gray87",
"*. c #DFDFDF",
/* pixels */
"                                                                                                              ",
"                                                                                                              ",
"                                                                                                              ",
"                                                                                                              ",
"                                                                                                              ",
"                                                                                                              ",
"                                                                                                              ",
"                                                                                                              ",
"                                                                                                              ",
"                                                                                                              ",
"                                                                                                              ",
"                                                                                                              ",
"                            * *                                                 * *                           ",
"                          9 W L 6                                           * p W D *                         ",
"                          L *.*.J 6                                       * p ^ *. .p                         ",
"                          D *.*.*.J 6                                   * p ^ *.*.} t                         ",
"                          < C  .*.*.L e                               < g [ *.*.^ n                           ",
"                            < C  .*.*.L e                           < g ^ *.*.^ n *                           ",
"                              < C  .*.*.L e                       * g ^ *.*.^ n *                             ",
"                                < C  .*.*.J e                   * p ^ *.*.^ n *                               ",
"                                  < C  .*.*.J e               * p ^ *.*.^ n *                                 ",
"                                    < C  .*.*.J e           * p ^ *.*.^ n *                                   ",
"                                      < C  .*.*.J e       * p ^ *.*.^ n *                                     ",
"                                        < C  .*.*.J e   * p ^ *.*.} n *                                       ",
"                                          3 C  .*.*.J e p ^ *.*.} N *                                         ",
"                                            3 C  .*.*.W W *.*.} N *                                           ",
"                                              3 C  .*.*.*.*.[ N *                                             ",
"                                                6 L *.*.*. .D *                                               ",
"                                              * p W *.*.*. .J e                                               ",
"                                            < M [ *.*.^ [ *.*.^ g *                                           ",
"                                          < M [ *.*.W x n [ *.*.^ g *                                         ",
"                                        * M [ *.*.W g   < n [ *.*.^ f *                                       ",
"                                      * n [ *.*.W g       < n [ *.*.L f *                                     ",
"                                    * n [ *.*.W g *         < n [ *. .L f *                                   ",
"                                  * n [ *.*.W g *             < n [ *. .L f                                   ",
"                                * n [ *.*.W g *                 < n } *. .L f *                               ",
"                              * n [ *.*.^ g *                     < N } *.*.L f *                             ",
"                            * n [ *.*.^ g *                         3 N } *. .L f *                           ",
"                          * n [ *.*.^ g *                             3 N } *.*.L f                           ",
"                          n [ *.*.^ g *                                 3 N } *. .L 6                         ",
"                          L *.*.^ g *                                     3 N } *. .t                         ",
"                          t W L e                                           * g W G <                         ",
"                            3 3                                               * 3 <                           ",
"                                                                                                              ",
"                                                                                                              ",
"                                                                                                              ",
"                                                                                                              ",
"                                                                                                              ",
"                                                                                                              ",
"                                                                                                              ",
"                                                                                                              ",
"                                                                                                              ",
"                                                                                                              ",
"                                                                                                              ",
"                                                                                                              "
};
