/* XPM */
static char *connect_to_url_dark[] = {
/* columns rows colors chars-per-pixel */
"55 55 30 1 ",
"  c None",
". c #020202",
"X c gray4",
"o c gray9",
"O c #191919",
"+ c #252525",
"@ c gray18",
"# c #353535",
"$ c gray22",
"% c #444444",
"& c #4B4B4B",
"* c gray34",
"= c gray36",
"- c gray38",
"; c DimGray",
": c gray44",
"> c #797979",
", c #848484",
"< c gray56",
"1 c #959595",
"2 c gray61",
"3 c gray64",
"4 c gray67",
"5 c #B6B6B6",
"6 c #BCBCBC",
"7 c #C1C1C1",
"8 c gray80",
"9 c #D7D7D7",
"0 c gray85",
"q c gray88",
/* pixels */
"                                                       ",
"                                                       ",
"                                                       ",
"                                                       ",
"                                                       ",
"                                                       ",
"                                                       ",
"                                                       ",
"                      .Xo+###+oX.                      ",
"                   .+=,357888753,*+                    ",
"                  @:479900000000974:@                  ",
"                O;4809700000000979q94-o                ",
"               #18092=300<5041002=2908<@               ",
"              %4904*+*80,+2q1+1q8&+*4q93#              ",
"             %708;O.+5q2o 2q1Xo5q5o.o:906%             ",
"            #4001O. :99$. 2q1X %00-  o3006@            ",
"           O190092&@50<X  2q1X .3q5O&29qq03o           ",
"          .;80,3008690;OX.2q1ooO>q968002<09:           ",
"          #5q3OO=490008643807346800004*oO407@          ",
"         .>98&..XO*7090qqq0000qq0908&oX .%90,.         ",
"         @5q<O    #80:&-:,707<:-%>q9+    X1q7+         ",
"         -89&X    *99#XXXX2q1oXX.$00%    .%00-         ",
"        .104+     >06O    2q1X   O8q;     o5q2.        ",
"        o4q>o     104o    2q1X   X6q,     .,q7o        ",
"        +70=X    .2q1o    2q1X   .3q2     .*09+        ",
"        $89$.    .4q,X    2q1X    1q4     .#09$        ",
"        %992<<<<<<706<<<<<706<<<<<608<<<<<<200*        ",
"        &900qqqqqq000qqqqq000qqqqq000qqqqqq000=        ",
"        &0953333348074333380833333709343333590*        ",
"        $98%XXXXXo4q<OXXXX2q1oXXXX1q4XXXXXX$90%        ",
"        @70*X    X3q1o    2q1X    3q2     .&09+        ",
"        o5q:o    .103o    2q1X   .5q<     .>q7o        ",
"        .203+     >06O    2q1X   o8q:     X4q3.        ",
"         :98%.    -98@.   2q1X   #0q*    .#90;         ",
"         $6q>o    $80*o@$&504&$@X=q9@    .,q8@         ",
"         X<07$.   @707790q000q097807O   .@802.         ",
"          %7q<X @,7000qq99909900q0007,+ X1q9$          ",
"          X,99=>8qq000>%@+3q2+@%<000qq8;-00<.          ",
"           +300006:&60>X  2q1X .1q6$>700005O           ",
"            %6003+. >08@. 2q1X #0q:  +5008$            ",
"             *807*X.@7q<X 2q1XX3q7O.X*808*             ",
"             .-800,+X;00-X2q1X:00=.+<008*              ",
"               &60q7:$409;4q3:002@:8q06%               ",
"                @19007500090900058q091+                ",
"                 .&39000000000000093%.                 ",
"                   X$,58000000985,$.                   ",
"                      X+$->,>-$OX                      ",
"                                                       ",
"                                                       ",
"                                                       ",
"                                                       ",
"                                                       ",
"                                                       ",
"                                                       ",
"                                                       "
};
