/* XPM */
static char *connect_to_url_dark[] = {
/* columns rows colors chars-per-pixel */
"55 55 212 2 ",
"   c black",
".  c #010101",
"X  c #020202",
"o  c gray1",
"O  c #040404",
"+  c gray2",
"@  c #060606",
"#  c #070707",
"$  c gray3",
"%  c #090909",
"&  c gray4",
"*  c #0B0B0B",
"=  c #0C0C0C",
"-  c gray5",
";  c #0E0E0E",
":  c gray6",
">  c #101010",
",  c #111111",
"<  c gray7",
"1  c #131313",
"2  c gray8",
"3  c #151515",
"4  c #161616",
"5  c gray9",
"6  c #181818",
"7  c #191919",
"8  c gray10",
"9  c #1B1B1B",
"0  c gray11",
"q  c #1D1D1D",
"w  c #1E1E1E",
"e  c gray12",
"r  c #202020",
"t  c gray13",
"y  c #232323",
"u  c gray14",
"i  c #252525",
"p  c gray15",
"a  c #272727",
"s  c #282828",
"d  c #2A2A2A",
"f  c gray17",
"g  c #2C2C2C",
"h  c #2D2D2D",
"j  c gray18",
"k  c #2F2F2F",
"l  c #323232",
"z  c #343434",
"x  c #353535",
"c  c gray21",
"v  c #373737",
"b  c gray22",
"n  c #393939",
"m  c #3A3A3A",
"M  c gray23",
"N  c #3C3C3C",
"B  c gray24",
"V  c #3E3E3E",
"C  c #3F3F3F",
"Z  c gray25",
"A  c #414141",
"S  c gray26",
"D  c #434343",
"F  c #444444",
"G  c gray27",
"H  c #464646",
"J  c gray28",
"K  c #494949",
"L  c gray29",
"P  c #4B4B4B",
"I  c #4C4C4C",
"U  c gray30",
"Y  c #4E4E4E",
"T  c gray31",
"R  c #505050",
"E  c gray32",
"W  c #535353",
"Q  c gray33",
"!  c #555555",
"~  c #565656",
"^  c gray34",
"/  c #585858",
"(  c #5B5B5B",
")  c gray36",
"_  c gray37",
"`  c #5F5F5F",
"'  c #606060",
"]  c gray38",
"[  c #626262",
"{  c #646464",
"}  c gray40",
"|  c #686868",
" . c DimGray",
".. c #6A6A6A",
"X. c #6D6D6D",
"o. c gray43",
"O. c #6F6F6F",
"+. c gray44",
"@. c #727272",
"#. c gray45",
"$. c #747474",
"%. c gray46",
"&. c #767676",
"*. c #777777",
"=. c gray47",
"-. c #797979",
";. c gray48",
":. c #7B7B7B",
">. c #7C7C7C",
",. c gray49",
"<. c #7E7E7E",
"1. c gray50",
"2. c #808080",
"3. c #818181",
"4. c #838383",
"5. c #848484",
"6. c gray52",
"7. c #868686",
"8. c gray53",
"9. c #888888",
"0. c #898989",
"q. c gray54",
"w. c #8B8B8B",
"e. c gray55",
"r. c #8D8D8D",
"t. c #8E8E8E",
"y. c gray56",
"u. c #909090",
"i. c #929292",
"p. c #939393",
"a. c gray58",
"s. c #959595",
"d. c gray59",
"f. c #979797",
"g. c #989898",
"h. c gray60",
"j. c #9A9A9A",
"k. c #9B9B9B",
"l. c gray61",
"z. c #9D9D9D",
"x. c gray62",
"c. c #9F9F9F",
"v. c gray63",
"b. c #A2A2A2",
"n. c gray64",
"m. c #A4A4A4",
"M. c #A5A5A5",
"N. c gray65",
"B. c #A7A7A7",
"V. c gray66",
"C. c #A9A9A9",
"Z. c #AAAAAA",
"A. c gray67",
"S. c #ACACAC",
"D. c gray68",
"F. c #AEAEAE",
"G. c #AFAFAF",
"H. c gray69",
"J. c #B1B1B1",
"K. c #B2B2B2",
"L. c gray70",
"P. c #B4B4B4",
"I. c gray71",
"U. c #B6B6B6",
"Y. c #B7B7B7",
"T. c gray72",
"R. c #B9B9B9",
"E. c gray73",
"W. c #BBBBBB",
"Q. c #BCBCBC",
"!. c gray74",
"~. c gray",
"^. c gray75",
"/. c #C0C0C0",
"(. c #C1C1C1",
"). c gray76",
"_. c #C3C3C3",
"`. c gray77",
"'. c #C5C5C5",
"]. c #C6C6C6",
"[. c gray78",
"{. c #C8C8C8",
"}. c gray79",
"|. c #CACACA",
" X c #CBCBCB",
".X c gray80",
"XX c #CDCDCD",
"oX c #CECECE",
"OX c gray81",
"+X c #D0D0D0",
"@X c gray82",
"#X c #D2D2D2",
"$X c LightGray",
"%X c gray83",
"&X c #D5D5D5",
"*X c gray84",
"=X c #D7D7D7",
"-X c #D8D8D8",
";X c gray85",
":X c #DADADA",
">X c gray86",
",X c gainsboro",
"<X c #DDDDDD",
"1X c gray87",
"2X c #DFDFDF",
"3X c gray88",
"4X c #E1E1E1",
"5X c #E2E2E2",
"6X c gray89",
"7X c #E4E4E4",
"8X c gray90",
"9X c #E6E6E6",
/* pixels */
"                                                                                                              ",
"                                                                                                              ",
"                                                                                                              ",
"                                                                                                              ",
"                                                                                                              ",
"                                                                                                              ",
"                                                                                                              ",
"                                                                                                              ",
"                                              & 5 i x x x i 5 &                                               ",
"                                        i ) 5.n.U.(..X.X.X(.U.n.5.^ i                                         ",
"                                    j +.A.(.=X=X;X;X;X;X;X;X;X;X=X(.A.+.j                                     ",
"                                7  .A..X;X=X(.;X;X;X;X;X;X;X;X=X(.=X3X=XA.] 5                                 ",
"                              x s..X;X=Xl.) n.;X;Xy.U.;XA.s.;X;Xl.) l.=X;X.Xy.j                               ",
"                            F A.=X;XA.^ i ^ .X;X5.i l.3Xs.i s.3X.XP i ^ A.3X=Xn.x                             ",
"                          F (.;X.X .7   i U.3Xl.5   l.3Xs.& 5 U.3XU.5   5 +.=X;XQ.F                           ",
"                        x A.;X;Xs.7     +.=X=Xb     l.3Xs.&   F ;X;X]     5 n.;X;XQ.j                         ",
"                      7 s.=X;X;X=Xl.P j U.;Xy.&     l.3Xs.&     n.3XU.7 P l.=X3X3X;Xn.5                       ",
"                       ..X;X5.n.;X;X.XQ.=X;X .7 &   l.3Xs.5 5 7 -.3X=XQ..X;X;Xl.y.;X=X+.                      ",
"                    x U.3Xn.7 7 ) A.=X;X;X;X.XQ.A.n..X;X(.n.A.Q..X;X;X;X;XA.^ 5 7 A.;X(.j                     ",
"                    -.=X.XP     & 7 ^ (.;X=X;X3X3X3X;X;X;X;X3X3X;X=X;X.XP 5 &     F =X;X5.                    ",
"                  j U.3Xy.7         x .X;X+.P ] +.5.(.;X(.y.+.] F -.3X=Xi         & s.3X(.i                   ",
"                  ] .X=XP &         ^ =X=Xx & & & & l.3Xs.5 & &   b ;X;XF           F ;X;X]                   ",
"                  s.;XA.i           -.;XQ.7         l.3Xs.&       7 .X3X .          5 U.3Xl.                  ",
"                5 A.3X-.5           s.;XA.5         l.3Xs.&       & Q.3X5.            5.3X(.5                 ",
"                i (.;X) &           l.3Xs.5         l.3Xs.&         n.3Xl.            ^ ;X=Xi                 ",
"                b .X=Xb             A.3X5.&         l.3Xs.&         s.3XA.            x ;X=Xb                 ",
"                F =X=Xl.y.y.y.y.y.y.(.;XQ.y.y.y.y.y.(.;XQ.y.y.y.y.y.Q.;X.Xy.y.y.y.y.y.l.;X;X^                 ",
"                P =X;X;X3X3X3X3X3X3X;X;X;X3X3X3X3X3X;X;X;X3X3X3X3X3X;X;X;X3X3X3X3X3X3X;X;X;X)                 ",
"                P ;X=XU.n.n.n.n.n.A..X;X(.A.n.n.n.n..X;X.Xn.n.n.n.n..X;X=XA.A.n.n.n.n.U.=X;X^                 ",
"                b =X.XF & & & & & 5 A.3Xy.7 & & & & l.3Xs.5 & & & & s.3XA.& & & & & & b =X;XF                 ",
"                j (.;X^ &         & n.3Xs.5         l.3Xs.&         n.3Xl.            P ;X=Xi                 ",
"                5 U.3X+.5           s.;Xn.5         l.3Xs.&         U.3Xy.            -.3X(.5                 ",
"                  l.;Xn.i           -.;XQ.7         l.3Xs.&       5 .X3X+.          & A.3Xn.                  ",
"                  +.=X.XF           ] =X.Xj         l.3Xs.&       x ;X3X^           x =X;X .                  ",
"                  b Q.3X-.5         b .X;X^ 5 j b P U.;XA.P b j & ) 3X=Xj           5.3X.Xj                   ",
"                  & y.;X(.b         j (.;X(.(.=X;X3X;X;X;X3X;X=X(..X;X(.7         j .X;Xl.                    ",
"                    F (.3Xy.&   j 5.(.;X;X;X3X3X=X=X;X;X=X=X;X;X3X;X;X;X(.5.i   & s.3X=Xb                     ",
"                    & 5.=X=X) -..X3X3X;X;X;X-.F j i n.3Xl.i j F y.;X;X;X3X3X.X .] ;X;Xy.                      ",
"                      i n.;X;X;X;XQ.+.P Q.;X-.&     l.3Xs.&     s.3XQ.b -.(.;X;X;X;XU.7                       ",
"                        F Q.;X;Xn.i     -.;X.Xj     l.3Xs.&   x ;X3X+.    i U.;X;X.Xb                         ",
"                          ^ .X;X(.^ &   j (.3Xy.&   l.3Xs.& & n.3X(.7   & ^ .X;X.X^                           ",
"                            ] .X;X;X5.i &  .;X;X] & l.3Xs.& +.;X;X)   i y.;X;X.X^                             ",
"                              P Q.;X3X(.+.b A.;X=X .A.3Xn.+.;X;Xl.j +..X3X;XQ.F                               ",
"                                j s.=X;X;X(.U.;X;X;X=X;X=X;X;X;XU..X3X;X=Xs.i                                 ",
"                                  & P n.=X;X;X;X;X;X;X;X;X;X;X;X;X;X=Xn.F                                     ",
"                                      & b 5.U..X;X;X;X;X;X;X=X.XU.5.b                                         ",
"                                            & i b ] -.5.-.] b 7 &                                             ",
"                                                                                                              ",
"                                                                                                              ",
"                                                                                                              ",
"                                                                                                              ",
"                                                                                                              ",
"                                                                                                              ",
"                                                                                                              ",
"                                                                                                              "
};
