/* XPM */
static char *connect_dark[] = {
/* columns rows colors chars-per-pixel */
"55 55 70 1 ",
"  c black",
". c #010101",
"X c #020202",
"o c gray1",
"O c gray2",
"+ c #060606",
"@ c #070707",
"# c gray3",
"$ c #090909",
"% c #111111",
"& c #131313",
"* c #191919",
"= c #1B1B1B",
"- c gray12",
"; c #222222",
": c #232323",
"> c gray17",
", c #2D2D2D",
"< c gray19",
"1 c gray23",
"2 c #3C3C3C",
"3 c gray24",
"4 c #3E3E3E",
"5 c #434343",
"6 c gray27",
"7 c #464646",
"8 c #484848",
"9 c #515151",
"0 c gray32",
"q c gray35",
"w c gray37",
"e c #5F5F5F",
"r c gray39",
"t c gray40",
"y c #676767",
"u c #6A6A6A",
"i c gray43",
"p c gray47",
"a c #7B7B7B",
"s c gray49",
"d c #848484",
"f c gray52",
"g c #959595",
"h c gray59",
"j c #A7A7A7",
"k c #ACACAC",
"l c #AEAEAE",
"z c #AFAFAF",
"x c gray70",
"c c gray71",
"v c #C6C6C6",
"b c gray79",
"n c #CBCBCB",
"m c gray80",
"M c #CDCDCD",
"N c #CECECE",
"B c gray81",
"V c #D0D0D0",
"C c #D2D2D2",
"Z c gray84",
"A c #D7D7D7",
"S c #D8D8D8",
"D c gray85",
"F c #DADADA",
"G c gray86",
"H c gainsboro",
"J c #DFDFDF",
"K c #E1E1E1",
"L c #E2E2E2",
"P c gray89",
/* pixels */
"                                                       ",
"                                                       ",
"                                                       ",
"                                                       ",
"                                                       ",
"                                                       ",
"                                                       ",
"                                                       ",
"                                                       ",
"                                                       ",
"                                                       ",
"                                                       ",
"                                                       ",
"                                                       ",
"                                                       ",
"                                                       ",
"                                                       ",
"                                                       ",
"                                                       ",
"                                                       ",
"                                                       ",
"                     ezzzzzzzzzzzzzzzzzce              ",
"                    >NFFFFFFFFFFFFFFFFFFZ;             ",
"                    7ZFFFFFFFFFFFFFFFFFFF4 %=====      ",
"                    7ZFFFFFFFFFFFFFFFFFFF4 aZNZZNj=    ",
"     ###############7ZFFFFFFFFFFFFFFFFFFF4 dKFFFFFe    ",
"    4hhhhhhhhhhhhhhhzZFFFFFFFFFFFFFFFFFFF4 dKFFFFFa    ",
"    eKKKKKKKKKKKKKKKFFFFFFFFFFFFFFFFFFFFF4 dKFFFFFa    ",
"    9vvvvvvvvvvvvvvvNFFFFFFFFFFFFFFFFFFFF4 dKFFFFFa    ",
"    ;999999999999999aZFFFFFFFFFFFFFFFFFFF4 dKFFFFFu    ",
"                    7ZFFFFFFFFFFFFFFFFFFF4 aZNNNNc<    ",
"                    7ZFFFFFFFFFFFFFFFFFFF4 4uyyyy7     ",
"                    >NFFFFFFFFFFFFFFFFFFZ;             ",
"                    #uNFFFFFFFFFFFFFFFFNy              ",
"                      %%%%%%%%%%%%%%%%%%               ",
"                                                       ",
"                                                       ",
"                                                       ",
"                                                       ",
"                                                       ",
"                                                       ",
"                                                       ",
"                                                       ",
"                                                       ",
"                                                       ",
"                                                       ",
"                                                       ",
"                                                       ",
"                                                       ",
"                                                       ",
"                                                       ",
"                                                       ",
"                                                       ",
"                                                       ",
"                                                       "
};
