/* XPM */
static char *connect[] = {
/* columns rows colors chars-per-pixel */
"55 55 70 1 ",
"  c None",
". c gray11",
"X c #1D1D1D",
"o c #1E1E1E",
"O c #202020",
"+ c #232323",
"@ c gray14",
"# c #252525",
"$ c gray15",
"% c #272727",
"& c #282828",
"* c gray16",
"= c #2D2D2D",
"- c #2F2F2F",
"; c gray19",
": c #313131",
"> c #323232",
", c gray20",
"< c #343434",
"1 c gray21",
"2 c #393939",
"3 c gray29",
"4 c #4C4C4C",
"5 c #505050",
"6 c #515151",
"7 c #535353",
"8 c #585858",
"9 c DimGray",
"0 c #6A6A6A",
"q c gray48",
"w c #7B7B7B",
"e c gray51",
"r c #848484",
"t c gray53",
"y c gray57",
"u c #959595",
"i c #989898",
"p c gray60",
"a c gray61",
"s c #A0A0A0",
"d c gray63",
"f c gray65",
"g c gray68",
"h c #AEAEAE",
"j c #B7B7B7",
"k c #B9B9B9",
"l c gray73",
"z c #BCBCBC",
"x c #C1C1C1",
"c c gray76",
"v c #C3C3C3",
"b c gray77",
"n c gray81",
"m c #D2D2D2",
"M c gray83",
"N c gainsboro",
"B c #DDDDDD",
"V c gray88",
"C c #E4E4E4",
"Z c #E6E6E6",
"A c #ECECEC",
"S c #EEEEEE",
"D c #F6F6F6",
"F c gray97",
"G c #F8F8F8",
"H c #F9F9F9",
"J c gray98",
"K c gray99",
"L c #FDFDFD",
"P c #FEFEFE",
/* pixels */
"                                                       ",
"                                                       ",
"                                                       ",
"                                                       ",
"                                                       ",
"                                                       ",
"                                                       ",
"                                                       ",
"                                                       ",
"                                                       ",
"                                                       ",
"                                                       ",
"                                                       ",
"                                                       ",
"                                                       ",
"                                                       ",
"                                                       ",
"                                                       ",
"                                                       ",
"                                                       ",
"                                                       ",
"                    Ls555555555555555553s              ",
"                    M:##################*B             ",
"                    k*###################x SCCCCCL     ",
"                    k*###################x r*:**:8C    ",
"    LFFFFFFFFFFFFFFFk*###################x wo#####s    ",
"    x9999999999999995*###################x wo#####r    ",
"    sooooooooooooooo#####################x wo#####r    ",
"    h222222222222222:####################x wo#####r    ",
"    Bhhhhhhhhhhhhhhhr*###################x wo#####u    ",
"                    k*###################x r*::::3n    ",
"                    k*###################x xuiiiikL    ",
"                    M:##################*B LLLLLL      ",
"                    Fu:################:iL             ",
"                     LSSSSSSSSSSSSSSSSSSL              ",
"                                                       ",
"                                                       ",
"                                                       ",
"                                                       ",
"                                                       ",
"                                                       ",
"                                                       ",
"                                                       ",
"                                                       ",
"                                                       ",
"                                                       ",
"                                                       ",
"                                                       ",
"                                                       ",
"                                                       ",
"                                                       ",
"                                                       ",
"                                                       ",
"                                                       ",
"                                                       "
};
