/* XPM */
static char *contact_dark[] = {
/* columns rows colors chars-per-pixel */
"55 55 30 1 ",
"  c None",
". c gray1",
"X c gray3",
"o c #101010",
"O c gray10",
"+ c #222222",
"@ c #2D2D2D",
"# c #343434",
"$ c #3A3A3A",
"% c #434343",
"& c gray29",
"* c gray33",
"= c #5B5B5B",
"- c gray40",
"; c #686868",
": c #777777",
"> c gray47",
", c #848484",
"< c #8E8E8E",
"1 c gray57",
"2 c gray62",
"3 c #A4A4A4",
"4 c #AAAAAA",
"5 c #B2B2B2",
"6 c #BBBBBB",
"7 c #C1C1C1",
"8 c #CECECE",
"9 c #D5D5D5",
"0 c #D8D8D8",
"q c gray88",
/* pixels */
"                                                       ",
"                                                       ",
"                                                       ",
"                                                       ",
"                                                       ",
"                                                       ",
"                                                       ",
"                                                       ",
"                      .XoO+++OoX.                      ",
"                   .O$=><35653<:=$o                    ",
"                  O&,47900q00q0974,&O                  ",
"                o%<69qq087666790qq06<%X                ",
"               +;590073,-*&%&*;,380005-O               ",
"              %49005;#OX.     .XO#;6q093#              ",
"             $5009,#o.           .o#<0094#             ",
"            @2008-+.               .O;9004+            ",
"           o<908=o.      .O+O.       o-9001X           ",
"          .-709-o.     .%<343,$       o;009-           ",
"          @400>O.     X;6900096-.     .O1006+          ",
"         .:805@.     .-800000008*      .@700:.         ",
"         +400;X      @60000000006O      X;006O         ",
"         -8q5@       :0000000000q-      .O6q0-         ",
"        .190>o      .20000000000q2       .>q02.        ",
"        o409&X      X4000000000004.      .%007o        ",
"        +606#.      X4000000000004       .O809+        ",
"        #803+       .10000000000q<        X5q0$        ",
"        %9q1+        =0000000000q*        X200*        ",
"        &0q1O        O600000000q5o        X2q0=        ",
"        &9q1O        .&900000009%.        X200*        ",
"        $8q3+         .&60qqqq6%.         X400%        ",
"        @705@          .O=<31-O.          O709@        ",
"        o508%.          ..XXX.           .#907o        ",
"        .290;o                           .;q04.        ",
"         :8q3+          .oOOOo.          X4q0:         ",
"         $609&.     X#;14677764<-#.     .%008#         ",
"         X1902o   O-480000000000094-o   X3002.         ",
"          &709*X.*5000000000000000005* .-009%          ",
"          X,907%,000000000000000000000:%900<.          ",
"           +4009000000000000000000000009006O           ",
"            &70000000000000000000000000009%            ",
"             =900000000000000000000000009=             ",
"             .;9000000000000000000000009=              ",
"               *700000000000000000000q7%               ",
"                @200000000000000000002+                ",
"                 .*40q00000000000q04&.                 ",
"                   X$,58000000985,$.                   ",
"                      X@&>242>&+X                      ",
"                                                       ",
"                                                       ",
"                                                       ",
"                                                       ",
"                                                       ",
"                                                       ",
"                                                       ",
"                                                       "
};
