/* XPM */
static char *contact[] = {
/* columns rows colors chars-per-pixel */
"55 55 196 2 ",
"   c #1D1D1D",
".  c #1E1E1E",
"X  c gray12",
"o  c #202020",
"O  c gray13",
"+  c #222222",
"@  c #232323",
"#  c gray14",
"$  c #252525",
"%  c gray15",
"&  c #272727",
"*  c #282828",
"=  c gray16",
"-  c #2A2A2A",
";  c gray17",
":  c #2C2C2C",
">  c #2D2D2D",
",  c gray18",
"<  c #2F2F2F",
"1  c gray19",
"2  c #313131",
"3  c #323232",
"4  c gray20",
"5  c #343434",
"6  c #353535",
"7  c gray21",
"8  c #373737",
"9  c gray22",
"0  c #393939",
"q  c #3A3A3A",
"w  c gray23",
"e  c #3C3C3C",
"r  c gray24",
"t  c #3E3E3E",
"y  c #3F3F3F",
"u  c gray25",
"i  c #414141",
"p  c gray26",
"a  c #434343",
"s  c #444444",
"d  c gray27",
"f  c #464646",
"g  c gray28",
"h  c #484848",
"j  c #494949",
"k  c gray29",
"l  c #4B4B4B",
"z  c #4C4C4C",
"x  c gray30",
"c  c #4E4E4E",
"v  c gray31",
"b  c #505050",
"n  c #515151",
"m  c gray32",
"M  c #535353",
"N  c gray33",
"B  c #555555",
"V  c #565656",
"C  c gray34",
"Z  c #585858",
"A  c gray35",
"S  c #5B5B5B",
"D  c gray36",
"F  c #5D5D5D",
"G  c gray37",
"H  c #5F5F5F",
"J  c gray38",
"K  c #626262",
"L  c gray39",
"P  c #646464",
"I  c #656565",
"U  c gray40",
"Y  c #676767",
"T  c DimGray",
"R  c #6C6C6C",
"E  c gray43",
"W  c #6F6F6F",
"Q  c #717171",
"!  c gray45",
"~  c gray46",
"^  c #777777",
"/  c gray47",
"(  c #797979",
")  c #7B7B7B",
"_  c gray49",
"`  c #7E7E7E",
"'  c gray50",
"]  c #808080",
"[  c #818181",
"{  c gray52",
"}  c gray53",
"|  c #888888",
" . c #898989",
".. c #8B8B8B",
"X. c gray55",
"o. c #8D8D8D",
"O. c #909090",
"+. c gray57",
"@. c #929292",
"#. c #939393",
"$. c gray58",
"%. c #959595",
"&. c gray59",
"*. c #979797",
"=. c gray60",
"-. c #9A9A9A",
";. c #9B9B9B",
":. c gray61",
">. c #9D9D9D",
",. c #9F9F9F",
"<. c #A0A0A0",
"1. c #A4A4A4",
"2. c #A5A5A5",
"3. c gray65",
"4. c #A7A7A7",
"5. c gray66",
"6. c #AAAAAA",
"7. c gray67",
"8. c #ACACAC",
"9. c #AEAEAE",
"0. c #AFAFAF",
"q. c gray69",
"w. c #B1B1B1",
"e. c #B2B2B2",
"r. c gray70",
"t. c #B4B4B4",
"y. c gray71",
"u. c #B6B6B6",
"i. c #B7B7B7",
"p. c gray72",
"a. c #B9B9B9",
"s. c gray73",
"d. c #BBBBBB",
"f. c #BCBCBC",
"g. c gray74",
"h. c gray",
"j. c gray75",
"k. c #C1C1C1",
"l. c gray76",
"z. c #C3C3C3",
"x. c gray77",
"c. c #C5C5C5",
"v. c #C6C6C6",
"b. c #C8C8C8",
"n. c gray79",
"m. c #CACACA",
"M. c #CBCBCB",
"N. c gray80",
"B. c #CDCDCD",
"V. c #CECECE",
"C. c gray81",
"Z. c gray82",
"A. c #D2D2D2",
"S. c LightGray",
"D. c gray83",
"F. c gray84",
"G. c #D7D7D7",
"H. c #D8D8D8",
"J. c gray85",
"K. c #DADADA",
"L. c gray86",
"P. c gainsboro",
"I. c #DDDDDD",
"U. c #DFDFDF",
"Y. c gray88",
"T. c #E1E1E1",
"R. c #E2E2E2",
"E. c gray89",
"W. c #E4E4E4",
"Q. c gray90",
"!. c #E6E6E6",
"~. c #E7E7E7",
"^. c gray91",
"/. c #E9E9E9",
"(. c #EAEAEA",
"). c gray92",
"_. c #ECECEC",
"`. c gray93",
"'. c #EEEEEE",
"]. c #EFEFEF",
"[. c gray94",
"{. c #F1F1F1",
"}. c gray95",
"|. c #F3F3F3",
" X c #F4F4F4",
".X c gray96",
"XX c #F6F6F6",
"oX c gray97",
"OX c #F8F8F8",
"+X c #F9F9F9",
"@X c gray98",
"#X c #FBFBFB",
"$X c gray99",
"%X c #FDFDFD",
"&X c #FEFEFE",
"*X c white",
/* pixels */
"*X*X*X*X*X*X*X*X*X*X*X*X*X*X*X*X*X*X*X*X*X*X*X*X*X*X*X*X*X*X*X*X*X*X*X*X*X*X*X*X*X*X*X*X*X*X*X*X*X*X*X*X*X*X*X",
"*X*X*X*X*X*X*X*X*X*X*X*X*X*X*X*X*X*X*X*X*X*X*X*X*X*X*X*X*X*X*X*X*X*X*X*X*X*X*X*X*X*X*X*X*X*X*X*X*X*X*X*X*X*X*X",
"*X*X*X*X*X*X*X*X*X*X*X*X*X*X*X*X*X*X*X*X*X*X*X*X*X*X*X*X*X*X*X*X*X*X*X*X*X*X*X*X*X*X*X*X*X*X*X*X*X*X*X*X*X*X*X",
"*X*X*X*X*X*X*X*X*X*X*X*X*X*X*X*X*X*X*X*X*X*X*X*X*X*X*X*X*X*X*X*X*X*X*X*X*X*X*X*X*X*X*X*X*X*X*X*X*X*X*X*X*X*X*X",
"*X*X*X*X*X*X*X*X*X*X*X*X*X*X*X*X*X*X*X*X*X*X*X*X*X*X*X*X*X*X*X*X*X*X*X*X*X*X*X*X*X*X*X*X*X*X*X*X*X*X*X*X*X*X*X",
"*X*X*X*X*X*X*X*X*X*X*X*X*X*X*X*X*X*X*X*X*X*X*X*X*X*X*X*X*X*X*X*X*X*X*X*X*X*X*X*X*X*X*X*X*X*X*X*X*X*X*X*X*X*X*X",
"*X*X*X*X*X*X*X*X*X*X*X*X*X*X*X*X*X*X*X*X*X*X*X*X*X*X*X*X*X*X*X*X*X*X*X*X*X*X*X*X*X*X*X*X*X*X*X*X*X*X*X*X*X*X*X",
"*X*X*X*X*X*X*X*X*X*X*X*X*X*X*X*X*X*X*X*X*X*X*X*X*X*X*X*X*X*X*X*X*X*X*X*X*X*X*X*X*X*X*X*X*X*X*X*X*X*X*X*X*X*X*X",
"*X*X*X*X*X*X*X*X*X*X*X*X*X*X*X*X*X*X*X*X*X*X*XoX].Q.I.I.I.Q.].oX*X*X*X*X*X*X*X*X*X*X*X*X*X*X*X*X*X*X*X*X*X*X*X",
"*X*X*X*X*X*X*X*X*X*X*X*X*X*X*X*X*X*X*X*XQ.c.1.} Q S x s x S Q | 1.c.].*X*X*X*X*X*X*X*X*X*X*X*X*X*X*X*X*X*X*X*X",
"*X*X*X*X*X*X*X*X*X*X*X*X*X*X*X*X*X*XI.y.) B t - & & X & & X & - t B ) y.Q.*X*X*X*X*X*X*X*X*X*X*X*X*X*X*X*X*X*X",
"*X*X*X*X*X*X*X*X*X*X*X*X*X*X*X*X].f.Q s - X X & 2 t s s s t - & X X & s Q f.oX*X*X*X*X*X*X*X*X*X*X*X*X*X*X*X*X",
"*X*X*X*X*X*X*X*X*X*X*X*X*X*X*XI.*.x - & & t S ) =.7.y.f.y.7.*.) S 2 & & & x =.Q.*X*X*X*X*X*X*X*X*X*X*X*X*X*X*X",
"*X*X*X*X*X*X*X*X*X*X*X*X*X*Xf.B - & & x *.M.Q.oX*X*X*X*X*X*X*XoXQ.M.| s X & - S M.*X*X*X*X*X*X*X*X*X*X*X*X*X*X",
"*X*X*X*X*X*X*X*X*X*X*X*X*Xc.x & & - ) M.].*X*X*X*X*X*X*X*X*X*X*X*X*X].M.Q & & - B M.*X*X*X*X*X*X*X*X*X*X*X*X*X",
"*X*X*X*X*X*X*X*X*X*X*X*XA.J & & 2 =.I.*X*X*X*X*X*X*X*X*X*X*X*X*X*X*X*X*XQ.*.- & & B I.*X*X*X*X*X*X*X*X*X*X*X*X",
"*X*X*X*X*X*X*X*X*X*X*X].Q - & 2 1.].*X*X*X*X*X*X*X*XQ.I.Q.*X*X*X*X*X*X*X*X].=.- & & E oX*X*X*X*X*X*X*X*X*X*X*X",
"*X*X*X*X*X*X*X*X*X*X*X=.t & - =.].*X*X*X*X*X*X*Xf.Q S x S ) c.*X*X*X*X*X*X*X].*.& & - =.*X*X*X*X*X*X*X*X*X*X*X",
"*X*X*X*X*X*X*X*X*X*XA.B & & } Q.*X*X*X*X*X*XoX*.s - & & & - s =.*X*X*X*X*X*X*XQ.E & & s I.*X*X*X*X*X*X*X*X*X*X",
"*X*X*X*X*X*X*X*X*X*X| 2 & x A.*X*X*X*X*X*X*X=.2 & & & & & & & 2 7.*X*X*X*X*X*X*XA.t & & | *X*X*X*X*X*X*X*X*X*X",
"*X*X*X*X*X*X*X*X*XI.B & & *.oX*X*X*X*X*X*XA.s & & & & & & & & & s Q.*X*X*X*X*X*XoX*.& & s Q.*X*X*X*X*X*X*X*X*X",
"*X*X*X*X*X*X*X*X*X=.2 X x A.*X*X*X*X*X*X*X| & & & & & & & & & & X =.*X*X*X*X*X*X*XQ.s X & =.*X*X*X*X*X*X*X*X*X",
"*X*X*X*X*X*X*X*X*XE - & } ].*X*X*X*X*X*X*XJ & & & & & & & & & & X J *X*X*X*X*X*X*X*X} X & J *X*X*X*X*X*X*X*X*X",
"*X*X*X*X*X*X*X*X].B & - y.oX*X*X*X*X*X*XoXB & & & & & & & & & & & B *X*X*X*X*X*X*X*Xf.& & t ].*X*X*X*X*X*X*X*X",
"*X*X*X*X*X*X*X*XI.s & s M.*X*X*X*X*X*X*XoXB & & & & & & & & & & & B *X*X*X*X*X*X*X*XQ.2 & - I.*X*X*X*X*X*X*X*X",
"*X*X*X*X*X*X*X*XM.2 & S I.*X*X*X*X*X*X*X*XE & & & & & & & & & & X Q *X*X*X*X*X*X*X*XoXx X & c.*X*X*X*X*X*X*X*X",
"*X*X*X*X*X*X*X*Xf.- X E I.*X*X*X*X*X*X*X*X=.& & & & & & & & & & X 7.*X*X*X*X*X*X*X*XoXJ & & 7.*X*X*X*X*X*X*X*X",
"*X*X*X*X*X*X*X*Xy.& X E Q.*X*X*X*X*X*X*X*XQ.s & & & & & & & & X x ].*X*X*X*X*X*X*X*XoXJ X & 1.*X*X*X*X*X*X*X*X",
"*X*X*X*X*X*X*X*Xy.- X E Q.*X*X*X*X*X*X*X*X*X7.- & & & & & & & - f.*X*X*X*X*X*X*X*X*XoXJ & & 7.*X*X*X*X*X*X*X*X",
"*X*X*X*X*X*X*X*Xc.2 X S I.*X*X*X*X*X*X*X*X*X*Xy.s & X X X X s f.*X*X*X*X*X*X*X*X*X*XoXB & & f.*X*X*X*X*X*X*X*X",
"*X*X*X*X*X*X*X*XA.t & x A.*X*X*X*X*X*X*X*X*X*X*XQ.1.Q S E =.Q.*X*X*X*X*X*X*X*X*X*X*XQ.t & - A.*X*X*X*X*X*X*X*X",
"*X*X*X*X*X*X*X*X].x & 2 f.*X*X*X*X*X*X*X*X*X*X*X*X*XoXoXoX*X*X*X*X*X*X*X*X*X*X*X*X*XM.- & t ].*X*X*X*X*X*X*X*X",
"*X*X*X*X*X*X*X*X*XJ - & *.].*X*X*X*X*X*X*X*X*X*X*X*X*X*X*X*X*X*X*X*X*X*X*X*X*X*X*X*X*.X & B *X*X*X*X*X*X*X*X*X",
"*X*X*X*X*X*X*X*X*X| 2 X S I.*X*X*X*X*X*X*X*X*X*X*X].Q.Q.Q.].*X*X*X*X*X*X*X*X*X*X*XoXB X & | *X*X*X*X*X*X*X*X*X",
"*X*X*X*X*X*X*X*X*Xc.s & - y.*X*X*X*X*X*XoXM.*.E B s t t t s B Q =.M.*X*X*X*X*X*X*Xf.& & - M.*X*X*X*X*X*X*X*X*X",
"*X*X*X*X*X*X*X*X*XoXE - X J ].*X*X*XQ.=.B 2 & & & & & & & & & & & - B =.].*X*X*X].S & & J *X*X*X*X*X*X*X*X*X*X",
"*X*X*X*X*X*X*X*X*X*Xy.t & - 7.oX*X7.x & & & & & & & & & & & & & & & & & s 7.*X*X=.& & - f.*X*X*X*X*X*X*X*X*X*X",
"*X*X*X*X*X*X*X*X*X*XoX) - & t f.) & & & & & & & & & & & & & & & & & & & & & | f.- & & Q *X*X*X*X*X*X*X*X*X*X*X",
"*X*X*X*X*X*X*X*X*X*X*XI.B & & - & & & & & & & & & & & & & & & & & & & & & & & - & & s Q.*X*X*X*X*X*X*X*X*X*X*X",
"*X*X*X*X*X*X*X*X*X*X*X*Xy.t & & & & & & & & & & & & & & & & & & & & & & & & & & & - f.*X*X*X*X*X*X*X*X*X*X*X*X",
"*X*X*X*X*X*X*X*X*X*X*X*X*X1.- & & & & & & & & & & & & & & & & & & & & & & & & & - 1.*X*X*X*X*X*X*X*X*X*X*X*X*X",
"*X*X*X*X*X*X*X*X*X*X*X*X*X*X*.- & & & & & & & & & & & & & & & & & & & & & & & - 1.*X*X*X*X*X*X*X*X*X*X*X*X*X*X",
"*X*X*X*X*X*X*X*X*X*X*X*X*X*X*X7.t & & & & & & & & & & & & & & & & & & & & X t f.*X*X*X*X*X*X*X*X*X*X*X*X*X*X*X",
"*X*X*X*X*X*X*X*X*X*X*X*X*X*X*X*XA.J & & & & & & & & & & & & & & & & & & & J I.*X*X*X*X*X*X*X*X*X*X*X*X*X*X*X*X",
"*X*X*X*X*X*X*X*X*X*X*X*X*X*X*X*X*XoX7.B & X & & & & & & & & & & & X & B y.*X*X*X*X*X*X*X*X*X*X*X*X*X*X*X*X*X*X",
"*X*X*X*X*X*X*X*X*X*X*X*X*X*X*X*X*X*X*XoXc.) x 2 & & & & & & - 2 x ) c.*X*X*X*X*X*X*X*X*X*X*X*X*X*X*X*X*X*X*X*X",
"*X*X*X*X*X*X*X*X*X*X*X*X*X*X*X*X*X*X*X*X*X*XoXA.y.} J B J } y.I.oX*X*X*X*X*X*X*X*X*X*X*X*X*X*X*X*X*X*X*X*X*X*X",
"*X*X*X*X*X*X*X*X*X*X*X*X*X*X*X*X*X*X*X*X*X*X*X*X*X*X*X*X*X*X*X*X*X*X*X*X*X*X*X*X*X*X*X*X*X*X*X*X*X*X*X*X*X*X*X",
"*X*X*X*X*X*X*X*X*X*X*X*X*X*X*X*X*X*X*X*X*X*X*X*X*X*X*X*X*X*X*X*X*X*X*X*X*X*X*X*X*X*X*X*X*X*X*X*X*X*X*X*X*X*X*X",
"*X*X*X*X*X*X*X*X*X*X*X*X*X*X*X*X*X*X*X*X*X*X*X*X*X*X*X*X*X*X*X*X*X*X*X*X*X*X*X*X*X*X*X*X*X*X*X*X*X*X*X*X*X*X*X",
"*X*X*X*X*X*X*X*X*X*X*X*X*X*X*X*X*X*X*X*X*X*X*X*X*X*X*X*X*X*X*X*X*X*X*X*X*X*X*X*X*X*X*X*X*X*X*X*X*X*X*X*X*X*X*X",
"*X*X*X*X*X*X*X*X*X*X*X*X*X*X*X*X*X*X*X*X*X*X*X*X*X*X*X*X*X*X*X*X*X*X*X*X*X*X*X*X*X*X*X*X*X*X*X*X*X*X*X*X*X*X*X",
"*X*X*X*X*X*X*X*X*X*X*X*X*X*X*X*X*X*X*X*X*X*X*X*X*X*X*X*X*X*X*X*X*X*X*X*X*X*X*X*X*X*X*X*X*X*X*X*X*X*X*X*X*X*X*X",
"*X*X*X*X*X*X*X*X*X*X*X*X*X*X*X*X*X*X*X*X*X*X*X*X*X*X*X*X*X*X*X*X*X*X*X*X*X*X*X*X*X*X*X*X*X*X*X*X*X*X*X*X*X*X*X",
"*X*X*X*X*X*X*X*X*X*X*X*X*X*X*X*X*X*X*X*X*X*X*X*X*X*X*X*X*X*X*X*X*X*X*X*X*X*X*X*X*X*X*X*X*X*X*X*X*X*X*X*X*X*X*X"
};
