/* XPM */
static char *copy_dark[] = {
/* columns rows colors chars-per-pixel */
"55 55 30 1 ",
"  c None",
". c #020202",
"X c #090909",
"o c gray9",
"O c #1D1D1D",
"+ c #252525",
"@ c #282828",
"# c #353535",
"$ c #3E3E3E",
"% c gray27",
"& c gray29",
"* c gray33",
"= c #585858",
"- c #676767",
"; c gray43",
": c #747474",
"> c gray49",
", c #818181",
"< c gray55",
"1 c #979797",
"2 c #9A9A9A",
"3 c #A2A2A2",
"4 c gray67",
"5 c gray70",
"6 c #BCBCBC",
"7 c #C3C3C3",
"8 c #CDCDCD",
"9 c gray84",
"0 c #DDDDDD",
"q c gray88",
/* pixels */
"                                                       ",
"                                                       ",
"                                                       ",
"                                                       ",
"                     .XOOOOOOOOOOOo.                   ",
"                    .#,800000000092&o.                 ",
"                   .$600000000000007:o.                ",
"                   o4q086555555557008-o.               ",
"                  .&006*+OOOOOOO@,0008>+.              ",
"                  .:q9>.        o:08398>+              ",
"                  .,q9=         o:q6*198:O             ",
"                  .,q9*         o:q6$#297:O            ",
"                  .,q8*         o:q6$.$297:O           ",
"             XO@@@#<08-+O.      o:q6$ .$207:O          ",
"           .&156666899765<$     o:q6$  .@<99<o         ",
"           *790qqqq00000095&    o:q6$   .@<99;o        ",
"          O60084333333700005&   o:q6$    .@,97=X       ",
"          =007*++++++@1096005$  o:q8<------<705#.      ",
"          40q>X      X<q8-2003$ X*9098888888900-X      ",
"          90q*       X<q7#@3093$.+,8999999999002o      ",
"          00q&       X<q8#.#3092#.O$&*******;806O      ",
"          00q&       X<q8# .@4q94$ .........#607O      ",
"          00q&       X<q8#  .$4094$         @607O      ",
"          00q&       X<q8#   .$4q93#        @607O      ",
"          00q&       X<q8#    .$5q93#       @707O      ",
"          00q&       X<q8#     .%5q93+      @707O      ",
"          00q&       X<q8#      X%509>O     @707O      ",
"          00q&       X<q8$       X%507=.    @707O      ",
"          00q&       X>q05111111<<1500<O    @607O      ",
"          00q&       .%0q00000000000003#    @607O      ",
"          00q&        X-799999999999004$    @607O      ",
"          00q&         .O@@@@@@@@@@%2q4$    @607O      ",
"          00q&           ..........O,q4$    @607O      ",
"          00q&                     O,q4$    @607O      ",
"          00q&                     O,q4$    @707O      ",
"          00q&                     O,q4$    @607O      ",
"          00q&                     O<q4$    #707O      ",
"          00q&                     O<q4$    %804o      ",
"          00q&                     O<q4$...#100:X      ",
"          00q&                     O<0854458007$.      ",
"          00q&                     O,0990000q0;o       ",
"          00q&                     O,08888874&X        ",
"          00q&                     O,q5=@@@+X          ",
"          00q&                     O,q4$               ",
"          00q&                     O<q4$               ",
"          00q&                     O<q4$               ",
"          70q-.                    +2q3#               ",
"          >004+XXXXXXXXXXXXXXXXXXXO=801+               ",
"          @8006,;:;::;;:::::::;;::1808;X               ",
"          .>000qqqqqqqqqqqqqqqqqqq0002#                ",
"           X>799099999999999999999984$.                ",
"             O%=------------------*#X                  ",
"                                                       ",
"                                                       ",
"                                                       "
};
