/* XPM */
static char *copy[] = {
/* columns rows colors chars-per-pixel */
"55 55 191 2 ",
"   c #1D1D1D",
".  c #1E1E1E",
"X  c gray12",
"o  c #202020",
"O  c gray13",
"+  c #222222",
"@  c #232323",
"#  c gray14",
"$  c #252525",
"%  c gray15",
"&  c #272727",
"*  c #282828",
"=  c gray16",
"-  c #2A2A2A",
";  c gray17",
":  c #2C2C2C",
">  c #2D2D2D",
",  c gray18",
"<  c #2F2F2F",
"1  c gray19",
"2  c #313131",
"3  c #323232",
"4  c gray20",
"5  c #343434",
"6  c #353535",
"7  c gray21",
"8  c #373737",
"9  c gray22",
"0  c #393939",
"q  c #3A3A3A",
"w  c gray23",
"e  c #3C3C3C",
"r  c gray24",
"t  c #3F3F3F",
"y  c gray25",
"u  c #414141",
"i  c gray26",
"p  c #434343",
"a  c #444444",
"s  c gray27",
"d  c #464646",
"f  c gray28",
"g  c #484848",
"h  c #494949",
"j  c gray29",
"k  c #4B4B4B",
"l  c #4C4C4C",
"z  c gray30",
"x  c #4E4E4E",
"c  c gray31",
"v  c #505050",
"b  c #515151",
"n  c gray32",
"m  c #535353",
"M  c gray33",
"N  c #555555",
"B  c #565656",
"V  c gray34",
"C  c #585858",
"Z  c gray35",
"A  c #5A5A5A",
"S  c #5B5B5B",
"D  c gray36",
"F  c #5D5D5D",
"G  c gray37",
"H  c #606060",
"J  c gray38",
"K  c #646464",
"L  c #656565",
"P  c gray40",
"I  c #676767",
"U  c #686868",
"Y  c DimGray",
"T  c #6A6A6A",
"R  c gray42",
"E  c #6C6C6C",
"W  c #6D6D6D",
"Q  c gray43",
"!  c #6F6F6F",
"~  c gray44",
"^  c #727272",
"/  c gray45",
"(  c #747474",
")  c gray46",
"_  c #767676",
"`  c #777777",
"'  c gray47",
"]  c gray48",
"[  c #7B7B7B",
"{  c gray49",
"}  c #7E7E7E",
"|  c gray50",
" . c gray51",
".. c #838383",
"X. c #848484",
"o. c gray52",
"O. c #868686",
"+. c #888888",
"@. c gray54",
"#. c #8B8B8B",
"$. c gray55",
"%. c #8D8D8D",
"&. c gray56",
"*. c gray57",
"=. c #929292",
"-. c gray58",
";. c #959595",
":. c #989898",
">. c #9A9A9A",
",. c #9B9B9B",
"<. c gray61",
"1. c #9D9D9D",
"2. c gray62",
"3. c #A0A0A0",
"4. c #A5A5A5",
"5. c gray65",
"6. c #A7A7A7",
"7. c gray66",
"8. c #AAAAAA",
"9. c gray67",
"0. c #ACACAC",
"q. c gray68",
"w. c #AEAEAE",
"e. c #AFAFAF",
"r. c gray69",
"t. c #B1B1B1",
"y. c gray70",
"u. c #B4B4B4",
"i. c gray71",
"p. c #B7B7B7",
"a. c gray73",
"s. c #BCBCBC",
"d. c gray74",
"f. c gray",
"g. c gray75",
"h. c #C1C1C1",
"j. c gray76",
"k. c #C3C3C3",
"l. c gray77",
"z. c #C5C5C5",
"x. c #C6C6C6",
"c. c gray78",
"v. c gray79",
"b. c #CACACA",
"n. c #CBCBCB",
"m. c gray80",
"M. c #CDCDCD",
"N. c #CECECE",
"B. c gray81",
"V. c #D0D0D0",
"C. c gray82",
"Z. c LightGray",
"A. c gray83",
"S. c #D5D5D5",
"D. c gray84",
"F. c #D7D7D7",
"G. c #D8D8D8",
"H. c gray85",
"J. c #DADADA",
"K. c gray86",
"L. c gainsboro",
"P. c #DDDDDD",
"I. c gray87",
"U. c #DFDFDF",
"Y. c gray88",
"T. c #E1E1E1",
"R. c #E2E2E2",
"E. c gray89",
"W. c #E4E4E4",
"Q. c gray90",
"!. c #E6E6E6",
"~. c gray91",
"^. c gray92",
"/. c #ECECEC",
"(. c gray93",
"). c gray94",
"_. c #F1F1F1",
"`. c gray95",
"'. c #F3F3F3",
"]. c #F4F4F4",
"[. c gray96",
"{. c #F6F6F6",
"}. c gray97",
"|. c #F8F8F8",
" X c #F9F9F9",
".X c gray98",
"XX c #FBFBFB",
"oX c gray99",
"OX c #FDFDFD",
"+X c #FEFEFE",
"@X c white",
/* pixels */
"@X@X@X@X@X@X@X@X@X@X@X@X@X@X@X@X@X@X@X@X@X@X@X@X@X@X@X@X@X@X@X@X@X@X@X@X@X@X@X@X@X@X@X@X@X@X@X@X@X@X@X@X@X@X@X",
"@X@X@X@X@X@X@X@X@X@X@X@X@X@X@X@X@X@X@X@X@X@X@X@X@X@X@X@X@X@X@X@X@X@X@X@X@X@X@X@X@X@X@X@X@X@X@X@X@X@X@X@X@X@X@X",
"@X@X@X@X@X@X@X@X@X@X@X@X@X@X@X@X@X@X@X@X@X@X@X@X@X@X@X@X@X@X@X@X@X@X@X@X@X@X@X@X@X@X@X@X@X@X@X@X@X@X@X@X@X@X@X",
"@X@X@X@X@X@X@X@X@X@X@X@X@X@X@X@X@X@X@X@X@X@X@X@X@X@X@X@X@X@X@X@X@X@X@X@X@X@X@X@X@X@X@X@X@X@X@X@X@X@X@X@X@X@X@X",
"@X@X@X@X@X@X@X@X@X@X@X@X@X@X@X@X@X@X@X@X@X@X{.R.R.R.R.R.R.R.R.R.R.R.~.@X@X@X@X@X@X@X@X@X@X@X@X@X@X@X@X@X@X@X@X",
"@X@X@X@X@X@X@X@X@X@X@X@X@X@X@X@X@X@X@X@X@Xb.} 3 + + + + + + + + + = L i.~.@X@X@X@X@X@X@X@X@X@X@X@X@X@X@X@X@X@X",
"@X@X@X@X@X@X@X@X@X@X@X@X@X@X@X@X@X@X@X@Xh.p + + + + + + + + + + + + + e #.~.@X@X@X@X@X@X@X@X@X@X@X@X@X@X@X@X@X",
"@X@X@X@X@X@X@X@X@X@X@X@X@X@X@X@X@X@X@X~.M X + 3 p l l l l l l l l e + + 3 :.~.@X@X@X@X@X@X@X@X@X@X@X@X@X@X@X@X",
"@X@X@X@X@X@X@X@X@X@X@X@X@X@X@X@X@X@X@Xi.+ + p 9.J.R.R.R.R.R.R.R.F.} + + + 3  .J.@X@X@X@X@X@X@X@X@X@X@X@X@X@X@X",
"@X@X@X@X@X@X@X@X@X@X@X@X@X@X@X@X@X@X@X#.X =  .@X@X@X@X@X@X@X@X@X~.#.+ 3 G = 3  .J.@X@X@X@X@X@X@X@X@X@X@X@X@X@X",
"@X@X@X@X@X@X@X@X@X@X@X@X@X@X@X@X@X@X@X} X = 6.@X@X@X@X@X@X@X@X@X~.#.X p 9.U = 3 #.R.@X@X@X@X@X@X@X@X@X@X@X@X@X",
"@X@X@X@X@X@X@X@X@X@X@X@X@X@X@X@X@X@X@X} X = 9.@X@X@X@X@X@X@X@X@X~.#.X p h.h.L = e #.R.@X@X@X@X@X@X@X@X@X@X@X@X",
"@X@X@X@X@X@X@X@X@X@X@X@X@X@X@X@X@X@X{.} X 3 9.@X@X@X@X@X@X@X@X@X~.#.X p h.@Xh.L = e #.R.@X@X@X@X@X@X@X@X@X@X@X",
"@X@X@X@X@X@X@X@X@X@X@X@X@X{.R.F.F.F.b.U + 3 :.J.R.@X@X@X@X@X@X@X~.#.X p h.@X@Xh.L + e #.R.@X@X@X@X@X@X@X@X@X@X",
"@X@X@X@X@X@X@X@X@X@X@X@Xi.U l p p p p 3 = = e p l / h.@X@X@X@X@X~.#.X p h.@X@X@XF./ = = / ~.@X@X@X@X@X@X@X@X@X",
"@X@X@X@X@X@X@X@X@X@X@X9.e = + X X X X + + + + + + = l i.@X@X@X@X~.#.X p h.@X@X@X@XF./ = = *.~.@X@X@X@X@X@X@X@X",
"@X@X@X@X@X@X@X@X@X@XR.p + + 3 M G G G G G G e + + + + l i.@X@X@X~.#.X p h.@X@X@X@X@XF.} = e 6.{.@X@X@X@X@X@X@X",
"@X@X@X@X@X@X@X@X@X@X6.+ + e 9.J.J.J.J.J.J.F.U + = p + + l h.@X@X~.#.X 3 / :.:.:.:.:.:./ e + l b.@X@X@X@X@X@X@X",
"@X@X@X@X@X@X@X@X@X@XM + X  .{.@X@X@X@X@X@X{./ X 3 :.L + + G h.@X{.9.= + = 3 3 3 3 3 3 3 = + + :.{.@X@X@X@X@X@X",
"@X@X@X@X@X@X@X@X@X@X= + X 9.@X@X@X@X@X@X@X{./ X e b.F.G + = G h.@XJ.} 3 = = = = = = = = = + + L ~.@X@X@X@X@X@X",
"@X@X@X@X@X@X@X@X@X@X+ + X i.@X@X@X@X@X@X@X{./ X 3 b.@Xb.G + = L b.@XR.h.i.9.9.9.9.9.9.9.*.3 + p R.@X@X@X@X@X@X",
"@X@X@X@X@X@X@X@X@X@X+ + X i.@X@X@X@X@X@X@X{./ X 3 b.@X@XF.M X = M h.@X@X@X@X@X@X@X@X@X@Xb.p + e R.@X@X@X@X@X@X",
"@X@X@X@X@X@X@X@X@X@X+ + X i.@X@X@X@X@X@X@X{./ X 3 b.@X@X@Xh.M + = M h.@X@X@X@X@X@X@X@X@XF.p + e R.@X@X@X@X@X@X",
"@X@X@X@X@X@X@X@X@X@X+ + X i.@X@X@X@X@X@X@X{./ X 3 b.@X@X@X@Xh.M X = G b.@X@X@X@X@X@X@X@XF.p + e R.@X@X@X@X@X@X",
"@X@X@X@X@X@X@X@X@X@X+ + X i.@X@X@X@X@X@X@X{./ X 3 b.@X@X@X@X@Xh.l X = G b.@X@X@X@X@X@X@XF.e + e R.@X@X@X@X@X@X",
"@X@X@X@X@X@X@X@X@X@X+ + X i.@X@X@X@X@X@X@X{./ X 3 b.@X@X@X@X@X{.a.l X = G J.@X@X@X@X@X@XF.e + e R.@X@X@X@X@X@X",
"@X@X@X@X@X@X@X@X@X@X+ + X i.@X@X@X@X@X@X@X{./ X 3 b.@X@X@X@X@X@X{.a.l + =  .R.@X@X@X@X@XF.e + e R.@X@X@X@X@X@X",
"@X@X@X@X@X@X@X@X@X@X+ + X i.@X@X@X@X@X@X@X{./ X 3 h.@X@X@X@X@X@X@X{.a.l + e 6.@X@X@X@X@XF.e + e R.@X@X@X@X@X@X",
"@X@X@X@X@X@X@X@X@X@X+ + X i.@X@X@X@X@X@X@X{. .X + l U U U U U U / / U l + + / R.@X@X@X@XF.p + e R.@X@X@X@X@X@X",
"@X@X@X@X@X@X@X@X@X@X+ + X i.@X@X@X@X@X@X@X@Xa.+ X + + + + + + + + + + + + + G b.@X@X@X@XF.p + e R.@X@X@X@X@X@X",
"@X@X@X@X@X@X@X@X@X@X+ + X i.@X@X@X@X@X@X@X@X{.:.e = = = = = = = = = = = + + M h.@X@X@X@XF.p + e R.@X@X@X@X@X@X",
"@X@X@X@X@X@X@X@X@X@X+ + X i.@X@X@X@X@X@X@X@X@X@XR.F.F.F.F.F.F.F.F.F.F.a.L X M h.@X@X@X@XF.p + e R.@X@X@X@X@X@X",
"@X@X@X@X@X@X@X@X@X@X+ + X i.@X@X@X@X@X@X@X@X@X@X@X@X@X@X@X@X@X@X@X@X@XR.} X M h.@X@X@X@XF.p + e R.@X@X@X@X@X@X",
"@X@X@X@X@X@X@X@X@X@X+ + X i.@X@X@X@X@X@X@X@X@X@X@X@X@X@X@X@X@X@X@X@X@XR.} X M h.@X@X@X@XF.p + e R.@X@X@X@X@X@X",
"@X@X@X@X@X@X@X@X@X@X+ + X i.@X@X@X@X@X@X@X@X@X@X@X@X@X@X@X@X@X@X@X@X@XR.} X M h.@X@X@X@XF.e + e R.@X@X@X@X@X@X",
"@X@X@X@X@X@X@X@X@X@X+ + X i.@X@X@X@X@X@X@X@X@X@X@X@X@X@X@X@X@X@X@X@X@XR.} X M h.@X@X@X@XF.e + e R.@X@X@X@X@X@X",
"@X@X@X@X@X@X@X@X@X@X+ + X i.@X@X@X@X@X@X@X@X@X@X@X@X@X@X@X@X@X@X@X@X@XR./ X M h.@X@X@X@Xb.e + e R.@X@X@X@X@X@X",
"@X@X@X@X@X@X@X@X@X@X+ + X i.@X@X@X@X@X@X@X@X@X@X@X@X@X@X@X@X@X@X@X@X@XR./ X M h.@X@X@X@Xa.3 + M ~.@X@X@X@X@X@X",
"@X@X@X@X@X@X@X@X@X@X+ + X i.@X@X@X@X@X@X@X@X@X@X@X@X@X@X@X@X@X@X@X@X@XR./ X M h.@X@X@Xb.U + + #.{.@X@X@X@X@X@X",
"@X@X@X@X@X@X@X@X@X@X+ + X i.@X@X@X@X@X@X@X@X@X@X@X@X@X@X@X@X@X@X@X@X@XR./ + 3 l M M l 3 + + e h.@X@X@X@X@X@X@X",
"@X@X@X@X@X@X@X@X@X@X+ + X i.@X@X@X@X@X@X@X@X@X@X@X@X@X@X@X@X@X@X@X@X@XR.} + = = + + + + X + *.~.@X@X@X@X@X@X@X",
"@X@X@X@X@X@X@X@X@X@X+ + X i.@X@X@X@X@X@X@X@X@X@X@X@X@X@X@X@X@X@X@X@X@XR.} + 3 3 3 3 3 e M i.{.@X@X@X@X@X@X@X@X",
"@X@X@X@X@X@X@X@X@X@X+ + X i.@X@X@X@X@X@X@X@X@X@X@X@X@X@X@X@X@X@X@X@X@XR.} X l 6.F.F.F.J.{.@X@X@X@X@X@X@X@X@X@X",
"@X@X@X@X@X@X@X@X@X@X+ + X i.@X@X@X@X@X@X@X@X@X@X@X@X@X@X@X@X@X@X@X@X@XR.} X M h.@X@X@X@X@X@X@X@X@X@X@X@X@X@X@X",
"@X@X@X@X@X@X@X@X@X@X+ + X i.@X@X@X@X@X@X@X@X@X@X@X@X@X@X@X@X@X@X@X@X@XR./ X M h.@X@X@X@X@X@X@X@X@X@X@X@X@X@X@X",
"@X@X@X@X@X@X@X@X@X@X+ + X i.@X@X@X@X@X@X@X@X@X@X@X@X@X@X@X@X@X@X@X@X@XR./ X M h.@X@X@X@X@X@X@X@X@X@X@X@X@X@X@X",
"@X@X@X@X@X@X@X@X@X@Xe + X :.@X@X@X@X@X@X@X@X@X@X@X@X@X@X@X@X@X@X@X@X@XJ.L X G b.@X@X@X@X@X@X@X@X@X@X@X@X@X@X@X",
"@X@X@X@X@X@X@X@X@X@X .+ + M J.{.{.{.{.{.{.{.{.{.{.{.{.{.{.{.{.{.{.{.R.6.3 + U J.@X@X@X@X@X@X@X@X@X@X@X@X@X@X@X",
"@X@X@X@X@X@X@X@X@X@XF.3 + + p } #.#.*.*.*.*.*.#.#.#.#.#.#.#.*.*.#.#.U 3 + 3 *.{.@X@X@X@X@X@X@X@X@X@X@X@X@X@X@X",
"@X@X@X@X@X@X@X@X@X@X@X .+ + + X X X X X X X X X X X X X X X X X X X + + + L b.@X@X@X@X@X@X@X@X@X@X@X@X@X@X@X@X",
"@X@X@X@X@X@X@X@X@X@X@X{. .e = = + = = = = = = = = = = = = = = = = = = 3 M h.@X@X@X@X@X@X@X@X@X@X@X@X@X@X@X@X@X",
"@X@X@X@X@X@X@X@X@X@X@X@X@XR.a.6.:.:.:.:.:.:.:.:.:.:.:.:.:.:.:.:.:.:.9.b.{.@X@X@X@X@X@X@X@X@X@X@X@X@X@X@X@X@X@X",
"@X@X@X@X@X@X@X@X@X@X@X@X@X@X@X@X@X@X@X@X@X@X@X@X@X@X@X@X@X@X@X@X@X@X@X@X@X@X@X@X@X@X@X@X@X@X@X@X@X@X@X@X@X@X@X",
"@X@X@X@X@X@X@X@X@X@X@X@X@X@X@X@X@X@X@X@X@X@X@X@X@X@X@X@X@X@X@X@X@X@X@X@X@X@X@X@X@X@X@X@X@X@X@X@X@X@X@X@X@X@X@X",
"@X@X@X@X@X@X@X@X@X@X@X@X@X@X@X@X@X@X@X@X@X@X@X@X@X@X@X@X@X@X@X@X@X@X@X@X@X@X@X@X@X@X@X@X@X@X@X@X@X@X@X@X@X@X@X"
};
