/* XPM */
static char *cut_dark[] = {
/* columns rows colors chars-per-pixel */
"55 55 30 1 ",
"  c None",
". c #010101",
"X c gray3",
"o c gray8",
"O c gray11",
"+ c #232323",
"@ c #2A2A2A",
"# c #323232",
"$ c #393939",
"% c #444444",
"& c #4C4C4C",
"* c #535353",
"= c #585858",
"- c #646464",
"; c #6F6F6F",
": c gray44",
"> c #7E7E7E",
", c #838383",
"< c gray55",
"1 c gray57",
"2 c #9A9A9A",
"3 c #A4A4A4",
"4 c #AEAEAE",
"5 c #B2B2B2",
"6 c gray74",
"7 c gray76",
"8 c #CECECE",
"9 c #D7D7D7",
"0 c gainsboro",
"q c gray88",
/* pixels */
"                                                       ",
"                                                       ",
"                                                       ",
"                                                       ",
"                                                       ",
"                                                       ",
"                                                       ",
"                                                       ",
"                                                       ",
"                                                       ",
"       o%>22,&o                                        ",
"     X%30qqqq05*X.                                     ",
"    .*6000090007-X                                     ",
"   .$4007,**>6006&.                                    ",
"   o>904%.  .#2001+                                    ",
"   $4q7*.     %5q6&                           ..       ",
"   *701+      o,08-.                      ..XoO+o..    ",
"  .=80,o      X;99:X                   .Xo#-15886>@.   ",
"  .=80<O      X:99:X                ..X+*170q00000,O   ",
"   &6q3$.     +100<+.            ..XO&,60000000008,+   ",
"   @208:o.  .X-7008>@X.        .Xo$:5900000000083*o    ",
"   X-808>@oo+-6000005-+X.   .Xo@-38000000000094=O      ",
"    O>80063269000000094=o.XO$-280000000000082=O.       ",
"     +>790qq00853580007;++*1600000000000084-+.         ",
"      o=267764>$O#:599>+%2900000000000085:@.           ",
"       .o#&&$+X   X$,<$#396470000000095>#X             ",
"                    oOO:95&O;80000096,$X               ",
"                      @2q1@.&6000971&o                 ",
"                     .*707<;29094:#Oo.                 ",
"                    .@<90099095>%+$:>&O.               ",
"        .oOOoX.   .o&<7000006,&+#;4996,%o.             ",
"      X@=><1,;$o.o%>5900007<*+#-38000095>$o            ",
"     o&17900084>->49000072=+@=280000000094;#X          ",
"    X*500977900989000083-@X.#<70000000000083-@X        ",
"   .&6092*@@&<8000008<%O.  .XO#=<6000000000096,$X      ",
"   O<091#X. X+>90092&O.       .XO$-2800000000095>#.    ",
"   %5q5&.    .#3002$X.           .o+%:480000000084-O   ",
"  .*701+      o>99>o                .o@&,590000000<+   ",
"  .=80,o      X;99:X                  .XO#=<580092%.   ",
"   *70<+      X>99;X                     .XO@%*=&+X    ",
"   $5q5%      #307*.                        .....      ",
"   O<002@    O,902@                                    ",
"   .&6094=#@*2907=X                                    ",
"    o;8009778009>O                                     ",
"    .o-60q000q7:O.                                     ",
"      .@;3663:#X.                                      ",
"       ..XooXX.                                        ",
"                                                       ",
"                                                       ",
"                                                       ",
"                                                       ",
"                                                       ",
"                                                       ",
"                                                       ",
"                                                       "
};
