/* XPM */
static char *delete_dark[] = {
/* columns rows colors chars-per-pixel */
"55 55 31 1 ",
"  c None",
". c #070707",
"X c gray3",
"o c gray9",
"O c gray11",
"+ c #272727",
"@ c #2D2D2D",
"# c #353535",
"$ c #3F3F3F",
"% c #414141",
"& c gray29",
"* c gray33",
"= c #5A5A5A",
"- c #626262",
"; c gray42",
": c gray45",
"> c gray50",
", c gray52",
"< c #888888",
"1 c #939393",
"2 c gray62",
"3 c #A5A5A5",
"4 c #ACACAC",
"5 c #B4B4B4",
"6 c gray75",
"7 c gray77",
"8 c #CBCBCB",
"9 c gray84",
"0 c #D8D8D8",
"q c gray88",
"w c gray91",
/* pixels */
"                                                       ",
"                                                       ",
"                                                       ",
"                                                       ",
"                                                       ",
"                     +;,,,,,,,,,;+                     ",
"                   .=6900000000097-.                   ",
"                   #600988888889008@                   ",
"                   ;904%@@@@@@@$40q:                   ",
"                   ,9q*X........*qq<                   ",
"                   <90%.        %qq<                   ",
"                   <90$.        $0q<                   ",
"         .*::::::::5001:::::::::1005::::::::-X         ",
"         #80999999900099999999999000099999909=         ",
"         +60000000000000000000000000000000008%         ",
"         .@$&408=%%%%%%%%%%%%%%%%%%%%%*807&%#X         ",
"          ..X108@.....................+805X..          ",
"            .<99@.                   .@904.            ",
"            .,99#.  +*o.  O*+   o*+  .#903.            ",
"             ,90$.  ,9;.  >0<   -01  .$003             ",
"             >90%.  <q,X  <q2   >w3  .%002             ",
"             :80&.  <0,X  <q2   >w2  .&q01             ",
"             ;8q*X  ,0<X  <q2   ,w2  .*q0,             ",
"             -8q=X  >01X  <q2   <w1  .=q0>             ",
"             =8q;X  >01X  <q2   1w<  .;q0:             ",
"             *7q:X  :02X  <q2   1w,  .:q0;             ",
"             &7q>X  :03X  <q2   2w,  .>q0-             ",
"             %7q,X  ;03X  <q2   3w>  .,q0*             ",
"             $6q<X  ;04X  <q2   3w:  X<q9&             ",
"             #6q1o  -05X  <q2   4w:  X1q9%             ",
"             @5q2o  =05X  <q2  .5w;  X209$             ",
"             +503o  =96o  <q2  .5q-  X309#             ",
"             +404o  *96o  <q2  .6q=  X5q8@             ",
"             O405o  &97O  <q2  X6q=  X5q8+             ",
"             o306O  %97O  <q2  X6q*  o607O             ",
"             o207+. %88O. <q2  o7q&  O706o             ",
"             X107+. $88+. <q2  o7q% .O706o             ",
"             X198@. $88+. <q2  O8q% .+805X             ",
"             .<99#. #89@. <q3  O8q$ .@904.             ",
"              ,99$. @79@. ,w1  O80@ .@903.             ",
"              >90%. .&*X  +-@  .&*X .$002              ",
"              :80&.  ..   .X.   ..  .$001              ",
"              ;8q:X                 .;q0<              ",
"              &708>*****************:700=              ",
"              o1009999999999999999999005O              ",
"              .@290qqqqqqqqqqqqqqqqq093#.              ",
"               .o$=-----------------=%o.               ",
"                 ..XXXXXXXXXXXXXXXXXX.                 ",
"                                                       ",
"                                                       ",
"                                                       ",
"                                                       ",
"                                                       ",
"                                                       ",
"                                                       "
};
