/* XPM */
static char *delete[] = {
/* columns rows colors chars-per-pixel */
"55 55 210 2 ",
"   c #151515",
".  c #161616",
"X  c gray9",
"o  c #191919",
"O  c gray10",
"+  c #1B1B1B",
"@  c gray11",
"#  c #1D1D1D",
"$  c #1E1E1E",
"%  c gray12",
"&  c #202020",
"*  c gray13",
"=  c #222222",
"-  c #232323",
";  c gray14",
":  c #252525",
">  c gray15",
",  c #272727",
"<  c #282828",
"1  c gray16",
"2  c #2A2A2A",
"3  c gray17",
"4  c #2C2C2C",
"5  c #2D2D2D",
"6  c gray18",
"7  c #2F2F2F",
"8  c gray19",
"9  c #313131",
"0  c #323232",
"q  c gray20",
"w  c #343434",
"e  c #353535",
"r  c gray21",
"t  c #373737",
"y  c gray22",
"u  c #393939",
"i  c #3A3A3A",
"p  c gray23",
"a  c #3C3C3C",
"s  c gray24",
"d  c #3E3E3E",
"f  c #3F3F3F",
"g  c gray25",
"h  c #414141",
"j  c gray26",
"k  c #434343",
"l  c #444444",
"z  c gray27",
"x  c #464646",
"c  c gray28",
"v  c #494949",
"b  c gray29",
"n  c #4B4B4B",
"m  c gray30",
"M  c #4E4E4E",
"N  c #505050",
"B  c #515151",
"V  c gray32",
"C  c #535353",
"Z  c gray33",
"A  c #555555",
"S  c gray34",
"D  c #585858",
"F  c gray35",
"G  c #5A5A5A",
"H  c #5B5B5B",
"J  c gray36",
"K  c gray37",
"L  c #5F5F5F",
"P  c #606060",
"I  c gray38",
"U  c #626262",
"Y  c gray39",
"T  c #646464",
"R  c #676767",
"E  c #686868",
"W  c DimGray",
"Q  c #6A6A6A",
"!  c gray42",
"~  c #6C6C6C",
"^  c #6D6D6D",
"/  c gray43",
"(  c #6F6F6F",
")  c gray44",
"_  c #717171",
"`  c #727272",
"'  c gray45",
"]  c #747474",
"[  c gray46",
"{  c #767676",
"}  c #777777",
"|  c gray47",
" . c #797979",
".. c gray48",
"X. c #7B7B7B",
"o. c #7E7E7E",
"O. c gray50",
"+. c #808080",
"@. c #838383",
"#. c #848484",
"$. c gray52",
"%. c #868686",
"&. c #888888",
"*. c gray54",
"=. c #8B8B8B",
"-. c gray55",
";. c #8D8D8D",
":. c gray56",
">. c #909090",
",. c gray57",
"<. c #929292",
"1. c gray58",
"2. c #959595",
"3. c gray59",
"4. c #979797",
"5. c #9A9A9A",
"6. c #9B9B9B",
"7. c gray61",
"8. c #9D9D9D",
"9. c gray62",
"0. c #9F9F9F",
"q. c gray63",
"w. c #A2A2A2",
"e. c gray64",
"r. c #A4A4A4",
"t. c #A5A5A5",
"y. c gray65",
"u. c #A7A7A7",
"i. c gray66",
"p. c #A9A9A9",
"a. c #AAAAAA",
"s. c gray67",
"d. c #ACACAC",
"f. c gray68",
"g. c #AEAEAE",
"h. c #AFAFAF",
"j. c #B1B1B1",
"k. c #B2B2B2",
"l. c gray70",
"z. c #B4B4B4",
"x. c gray71",
"c. c #B6B6B6",
"v. c gray72",
"b. c #B9B9B9",
"n. c gray73",
"m. c #BBBBBB",
"M. c #BCBCBC",
"N. c gray74",
"B. c gray",
"V. c gray75",
"C. c #C0C0C0",
"Z. c #C1C1C1",
"A. c gray76",
"S. c #C3C3C3",
"D. c gray77",
"F. c #C5C5C5",
"G. c #C6C6C6",
"H. c gray78",
"J. c #C8C8C8",
"K. c gray79",
"L. c #CACACA",
"P. c #CBCBCB",
"I. c gray80",
"U. c #CDCDCD",
"Y. c #CECECE",
"T. c #D0D0D0",
"R. c gray82",
"E. c #D2D2D2",
"W. c gray83",
"Q. c #D5D5D5",
"!. c gray84",
"~. c #D7D7D7",
"^. c #D8D8D8",
"/. c gray85",
"(. c #DADADA",
"). c gray86",
"_. c gainsboro",
"`. c #DDDDDD",
"'. c gray87",
"]. c #DFDFDF",
"[. c gray88",
"{. c #E1E1E1",
"}. c gray89",
"|. c #E4E4E4",
" X c #E6E6E6",
".X c #E7E7E7",
"XX c gray91",
"oX c #E9E9E9",
"OX c #EAEAEA",
"+X c gray92",
"@X c #ECECEC",
"#X c gray93",
"$X c #EEEEEE",
"%X c #EFEFEF",
"&X c gray94",
"*X c #F1F1F1",
"=X c gray95",
"-X c #F3F3F3",
";X c #F4F4F4",
":X c gray96",
">X c #F6F6F6",
",X c gray97",
"<X c #F8F8F8",
"1X c #F9F9F9",
"2X c gray98",
"3X c #FBFBFB",
"4X c gray99",
"5X c #FDFDFD",
"6X c #FEFEFE",
"7X c white",
/* pixels */
"7X7X7X7X7X7X7X7X7X7X7X7X7X7X7X7X7X7X7X7X7X7X7X7X7X7X7X7X7X7X7X7X7X7X7X7X7X7X7X7X7X7X7X7X7X7X7X7X7X7X7X7X7X7X7X",
"7X7X7X7X7X7X7X7X7X7X7X7X7X7X7X7X7X7X7X7X7X7X7X7X7X7X7X7X7X7X7X7X7X7X7X7X7X7X7X7X7X7X7X7X7X7X7X7X7X7X7X7X7X7X7X",
"7X7X7X7X7X7X7X7X7X7X7X7X7X7X7X7X7X7X7X7X7X7X7X7X7X7X7X7X7X7X7X7X7X7X7X7X7X7X7X7X7X7X7X7X7X7X7X7X7X7X7X7X7X7X7X",
"7X7X7X7X7X7X7X7X7X7X7X7X7X7X7X7X7X7X7X7X7X7X7X7X7X7X7X7X7X7X7X7X7X7X7X7X7X7X7X7X7X7X7X7X7X7X7X7X7X7X7X7X7X7X7X",
"7X7X7X7X7X7X7X7X7X7X7X7X7X7X7X7X7X7X7X7X7X7X7X7X7X7X7X7X7X7X7X7X7X7X7X7X7X7X7X7X7X7X7X7X7X7X7X7X7X7X7X7X7X7X7X",
"7X7X7X7X7X7X7X7X7X7X7X7X7X7X7X7X7X7X7X7X7X^.1...................1.^.7X7X7X7X7X7X7X7X7X7X7X7X7X7X7X7X7X7X7X7X7X",
"7X7X7X7X7X7X7X7X7X7X7X7X7X7X7X7X7X7X7X7Xt.g 1 , , , , , , , , , 1 p 8.7X7X7X7X7X7X7X7X7X7X7X7X7X7X7X7X7X7X7X7X",
"7X7X7X7X7X7X7X7X7X7X7X7X7X7X7X7X7X7X7XL.g , , 1 w w w w w w w 1 , , w E.7X7X7X7X7X7X7X7X7X7X7X7X7X7X7X7X7X7X7X",
"7X7X7X7X7X7X7X7X7X7X7X7X7X7X7X7X7X7X7X1.1 $ C B.E.E.E.E.E.E.E.C.C , $ -.7X7X7X7X7X7X7X7X7X7X7X7X7X7X7X7X7X7X7X",
"7X7X7X7X7X7X7X7X7X7X7X7X7X7X7X7X7X7X7X.., $ s.,X7X7X7X7X7X7X7X7Xs.$ $ } 7X7X7X7X7X7X7X7X7X7X7X7X7X7X7X7X7X7X7X",
"7X7X7X7X7X7X7X7X7X7X7X7X7X7X7X7X7X7X7X} 1 , B.7X7X7X7X7X7X7X7X7XB.$ $ } 7X7X7X7X7X7X7X7X7X7X7X7X7X7X7X7X7X7X7X",
"7X7X7X7X7X7X7X7X7X7X7X7X7X7X7X7X7X7X7X} 1 , C.7X7X7X7X7X7X7X7X7XC., $ } 7X7X7X7X7X7X7X7X7X7X7X7X7X7X7X7X7X7X7X",
"7X7X7X7X7X7X7X7X7X7Xs.-.-.-.-.-.-.-.-.n , , ~ -.-.-.-.-.-.-.-.-.~ , , n -.-.-.-.-.-.-.-.8.,X7X7X7X7X7X7X7X7X7X",
"7X7X7X7X7X7X7X7X7XL.w , 1 1 1 1 1 1 1 , , , 1 1 1 1 1 1 1 1 1 1 1 , , , , 1 1 1 1 1 1 , 1 t.7X7X7X7X7X7X7X7X7X",
"7X7X7X7X7X7X7X7X7X^.g , , , , , , , , , , , , , , , , , , , , , , , , , , , , , , , , , w B.7X7X7X7X7X7X7X7X7X",
"7X7X7X7X7X7X7X7X7X7XE.C.x.C , w t.B.B.B.B.B.B.B.B.B.B.B.B.B.B.B.B.B.B.B.B.B.s.w , p x.B.L.,X7X7X7X7X7X7X7X7X7X",
"7X7X7X7X7X7X7X7X7X7X7X7X,X~ , w E.7X7X7X7X7X7X7X7X7X7X7X7X7X7X7X7X7X7X7X7X7XE.w , n ,X7X7X7X7X7X7X7X7X7X7X7X7X",
"7X7X7X7X7X7X7X7X7X7X7X7X7X} 1 1 E.7X7X7X7X7X7X7X7X7X7X7X7X7X7X7X7X7X7X7X7X7XE.1 , C ,X7X7X7X7X7X7X7X7X7X7X7X7X",
"7X7X7X7X7X7X7X7X7X7X7X7X7X..1 1 L.7X7X7X^.s.XX7X7X7X}.s.^.7X7X7XXXs.^.7X7X7XL.1 , G 7X7X7X7X7X7X7X7X7X7X7X7X7X",
"7X7X7X7X7X7X7X7X7X7X7X7X7X..1 , C.7X7X7X..1 1.7X7X7X+., } 7X7X7X8., ~ 7X7X7XC., , G 7X7X7X7X7X7X7X7X7X7X7X7X7X",
"7X7X7X7X7X7X7X7X7X7X7X7X7X+.1 , B.7X7X7X~ $ ..7X7X7X} $ P 7X7X7X+.X G 7X7X7XB., , P 7X7X7X7X7X7X7X7X7X7X7X7X7X",
"7X7X7X7X7X7X7X7X7X7X7X7X7X-.w , x.7X7X7X} $ ..7X7X7X} $ P 7X7X7X..X P 7X7X7Xx.$ , ~ 7X7X7X7X7X7X7X7X7X7X7X7X7X",
"7X7X7X7X7X7X7X7X7X7X7X7X7X1.w $ s.,X7X7X.., } ,X7X7X} $ P 7X7X7X..X P 7X7X7Xs.$ , ..7X7X7X7X7X7X7X7X7X7X7X7X7X",
"7X7X7X7X7X7X7X7X7X7X7X7X7X8.w $ t.,X7X7X+., ~ ,X7X7X} $ P 7X7X7X} X ~ 7X7X7Xt.$ , +.7X7X7X7X7X7X7X7X7X7X7X7X7X",
"7X7X7X7X7X7X7X7X7X7X7X7X7Xt.w $ 1.,X7X7X+., ~ ,X7X7X} $ P 7X7X7X~ X } 7X7X7X1.$ , -.7X7X7X7X7X7X7X7X7X7X7X7X7X",
"7X7X7X7X7X7X7X7X7X7X7X7X7Xs.p $ -.,X7X7X-., P ,X7X7X} $ P 7X7X7X~ X ..7X7X7X-.$ , 1.7X7X7X7X7X7X7X7X7X7X7X7X7X",
"7X7X7X7X7X7X7X7X7X7X7X7X7Xx.p $ +.,X7X7X-., G ,X7X7X} $ P 7X7X7XP X ..7X7X7X+.$ , 8.7X7X7X7X7X7X7X7X7X7X7X7X7X",
"7X7X7X7X7X7X7X7X7X7X7X7X7XB.p $ ..,X7X7X1., G ,X7X7X} $ P 7X7X7XG X +.7X7X7X..$ , s.7X7X7X7X7X7X7X7X7X7X7X7X7X",
"7X7X7X7X7X7X7X7X7X7X7X7X7XC.g $ } ,X7X7X1., C ,X7X7X} $ P 7X7X7XG X -.7X7X,X} $ 1 x.7X7X7X7X7X7X7X7X7X7X7X7X7X",
"7X7X7X7X7X7X7X7X7X7X7X7X7XL.g $ ~ XX7X7X8., n ,X7X7X} $ P 7X7X7XC X -.7X7X,X~ $ 1 B.7X7X7X7X7X7X7X7X7X7X7X7X7X",
"7X7X7X7X7X7X7X7X7X7X7X7X7XE.n $ P XX7X7Xt., n ,X7X7X} $ P 7X7X7Xn X 1.7X7X,XP , 1 C.7X7X7X7X7X7X7X7X7X7X7X7X7X",
"7X7X7X7X7X7X7X7X7X7X7X7X7X^.n , G XX7X7Xt.1 g XX7X7X} $ P 7X7X7Xn $ 8.7X7X,XG , 1 L.7X7X7X7X7X7X7X7X7X7X7X7X7X",
"7X7X7X7X7X7X7X7X7X7X7X7X7X^.C , C XX7X7Xs.1 g XX7X7X} $ P 7X7X7Xg $ t.7X7X,Xn $ w E.7X7X7X7X7X7X7X7X7X7X7X7X7X",
"7X7X7X7X7X7X7X7X7X7X7X7X7X}.C , n XX7X7Xx.1 p }.7X7X} $ P 7X7X,Xg $ t.7X7X,Xn , w ^.7X7X7X7X7X7X7X7X7X7X7X7X7X",
"7X7X7X7X7X7X7X7X7X7X7X7X7XXXG , g }.7X7XB.1 p }.7X7X} $ P 7X7X,Xg $ s.7X7XXXg , p }.7X7X7X7X7X7X7X7X7X7X7X7X7X",
"7X7X7X7X7X7X7X7X7X7X7X7X7XXXP , p ^.7X7XB.w w }.7X7X} $ P 7X7XXXp $ x.7X7X}.p , g XX7X7X7X7X7X7X7X7X7X7X7X7X7X",
"7X7X7X7X7X7X7X7X7X7X7X7X7X,X~ , p ^.7X7XC.w w ^.7X7X} $ P 7X7XXXp $ B.7X7X}.w , g XX7X7X7X7X7X7X7X7X7X7X7X7X7X",
"7X7X7X7X7X7X7X7X7X7X7X7X7X,X~ 1 w E.7X7XC.w w ^.7X7X} $ P 7X7X}.w $ B.7X7X^.w , n ,X7X7X7X7X7X7X7X7X7X7X7X7X7X",
"7X7X7X7X7X7X7X7X7X7X7X7X7X7X} 1 1 L.7X7XL.w 1 E.7X7X} $ G 7X7X}.w $ C.7X7XE.1 , C 7X7X7X7X7X7X7X7X7X7X7X7X7X7X",
"7X7X7X7X7X7X7X7X7X7X7X7X7X7X..1 1 C.7X7XE.p 1 E.7X7X..X ~ 7X7X}.w , E.7X7XE.1 , G 7X7X7X7X7X7X7X7X7X7X7X7X7X7X",
"7X7X7X7X7X7X7X7X7X7X7X7X7X7X+.1 , B.7X7X7Xx.s.,X7X7X^.8.E.7X7X7Xx.s.,X7X7XC., , P 7X7X7X7X7X7X7X7X7X7X7X7X7X7X",
"7X7X7X7X7X7X7X7X7X7X7X7X7X7X-.w , x.7X7X7X7X,X7X7X7X7X,X7X7X7X7X,X,X7X7X7XC., , ~ 7X7X7X7X7X7X7X7X7X7X7X7X7X7X",
"7X7X7X7X7X7X7X7X7X7X7X7X7X7X1.w $ -.,X7X7X7X7X7X7X7X7X7X7X7X7X7X7X7X7X7X7X1.$ , } 7X7X7X7X7X7X7X7X7X7X7X7X7X7X",
"7X7X7X7X7X7X7X7X7X7X7X7X7X7Xx.p , w +.s.s.s.s.s.s.s.s.s.s.s.s.s.s.s.s.s.-.p , , t.7X7X7X7X7X7X7X7X7X7X7X7X7X7X",
"7X7X7X7X7X7X7X7X7X7X7X7X7X7XXX~ , , 1 1 1 1 1 1 1 1 1 1 1 1 1 1 1 1 1 1 1 , , n }.7X7X7X7X7X7X7X7X7X7X7X7X7X7X",
"7X7X7X7X7X7X7X7X7X7X7X7X7X7X7XE.P 1 , $ $ $ $ $ $ $ $ $ $ $ $ $ $ $ $ $ , 1 G L.7X7X7X7X7X7X7X7X7X7X7X7X7X7X7X",
"7X7X7X7X7X7X7X7X7X7X7X7X7X7X7X7XXXC.t.8.8.8.8.8.8.8.8.8.8.8.8.8.8.8.8.8.t.B.XX7X7X7X7X7X7X7X7X7X7X7X7X7X7X7X7X",
"7X7X7X7X7X7X7X7X7X7X7X7X7X7X7X7X7X7X7X,X,X,X,X,X,X,X,X,X,X,X,X,X,X,X,X,X,X7X7X7X7X7X7X7X7X7X7X7X7X7X7X7X7X7X7X",
"7X7X7X7X7X7X7X7X7X7X7X7X7X7X7X7X7X7X7X7X7X7X7X7X7X7X7X7X7X7X7X7X7X7X7X7X7X7X7X7X7X7X7X7X7X7X7X7X7X7X7X7X7X7X7X",
"7X7X7X7X7X7X7X7X7X7X7X7X7X7X7X7X7X7X7X7X7X7X7X7X7X7X7X7X7X7X7X7X7X7X7X7X7X7X7X7X7X7X7X7X7X7X7X7X7X7X7X7X7X7X7X",
"7X7X7X7X7X7X7X7X7X7X7X7X7X7X7X7X7X7X7X7X7X7X7X7X7X7X7X7X7X7X7X7X7X7X7X7X7X7X7X7X7X7X7X7X7X7X7X7X7X7X7X7X7X7X7X",
"7X7X7X7X7X7X7X7X7X7X7X7X7X7X7X7X7X7X7X7X7X7X7X7X7X7X7X7X7X7X7X7X7X7X7X7X7X7X7X7X7X7X7X7X7X7X7X7X7X7X7X7X7X7X7X",
"7X7X7X7X7X7X7X7X7X7X7X7X7X7X7X7X7X7X7X7X7X7X7X7X7X7X7X7X7X7X7X7X7X7X7X7X7X7X7X7X7X7X7X7X7X7X7X7X7X7X7X7X7X7X7X",
"7X7X7X7X7X7X7X7X7X7X7X7X7X7X7X7X7X7X7X7X7X7X7X7X7X7X7X7X7X7X7X7X7X7X7X7X7X7X7X7X7X7X7X7X7X7X7X7X7X7X7X7X7X7X7X",
"7X7X7X7X7X7X7X7X7X7X7X7X7X7X7X7X7X7X7X7X7X7X7X7X7X7X7X7X7X7X7X7X7X7X7X7X7X7X7X7X7X7X7X7X7X7X7X7X7X7X7X7X7X7X7X"
};
