/* XPM */
static char *diropen[] = {
/* columns rows colors chars-per-pixel */
"55 55 182 2 ",
"   c None",
".  c #1D1D1D",
"X  c #1E1E1E",
"o  c gray12",
"O  c #202020",
"+  c gray13",
"@  c #222222",
"#  c #232323",
"$  c gray14",
"%  c #252525",
"&  c gray15",
"*  c #272727",
"=  c #282828",
"-  c gray16",
";  c #2A2A2A",
":  c gray17",
">  c #2C2C2C",
",  c #2D2D2D",
"<  c gray18",
"1  c #2F2F2F",
"2  c gray19",
"3  c #313131",
"4  c #323232",
"5  c gray20",
"6  c #343434",
"7  c #353535",
"8  c gray21",
"9  c #373737",
"0  c gray22",
"q  c #393939",
"w  c #3A3A3A",
"e  c gray23",
"r  c #3C3C3C",
"t  c gray24",
"y  c #3E3E3E",
"u  c gray25",
"i  c #414141",
"p  c gray26",
"a  c #434343",
"s  c gray27",
"d  c #464646",
"f  c gray28",
"g  c #494949",
"h  c gray29",
"j  c #4B4B4B",
"k  c gray30",
"l  c #4E4E4E",
"z  c gray31",
"x  c #505050",
"c  c #515151",
"v  c gray32",
"b  c #535353",
"n  c gray33",
"m  c #555555",
"M  c gray35",
"N  c #5A5A5A",
"B  c #5B5B5B",
"V  c gray36",
"C  c gray37",
"Z  c #5F5F5F",
"A  c #606060",
"S  c #626262",
"D  c gray39",
"F  c #646464",
"G  c #676767",
"H  c #686868",
"J  c #6C6C6C",
"K  c gray44",
"L  c #717171",
"P  c #727272",
"I  c gray45",
"U  c gray46",
"Y  c #777777",
"T  c #797979",
"R  c gray48",
"E  c #7B7B7B",
"W  c #7C7C7C",
"Q  c gray49",
"!  c gray50",
"~  c #808080",
"^  c #818181",
"/  c gray51",
"(  c #838383",
")  c #848484",
"_  c gray52",
"`  c #868686",
"'  c gray53",
"]  c #888888",
"[  c #898989",
"{  c gray54",
"}  c #8B8B8B",
"|  c gray55",
" . c #8D8D8D",
".. c #8E8E8E",
"X. c gray56",
"o. c #929292",
"O. c gray58",
"+. c gray59",
"@. c #979797",
"#. c #989898",
"$. c gray60",
"%. c #9A9A9A",
"&. c gray61",
"*. c #9D9D9D",
"=. c gray62",
"-. c #9F9F9F",
";. c #A0A0A0",
":. c gray63",
">. c #A2A2A2",
",. c #A5A5A5",
"<. c gray65",
"1. c #A7A7A7",
"2. c gray66",
"3. c #AAAAAA",
"4. c gray67",
"5. c gray68",
"6. c #AEAEAE",
"7. c gray69",
"8. c #B1B1B1",
"9. c #B2B2B2",
"0. c gray70",
"q. c #B4B4B4",
"w. c gray71",
"e. c #B6B6B6",
"r. c #B7B7B7",
"t. c gray72",
"y. c #B9B9B9",
"u. c gray73",
"i. c #BCBCBC",
"p. c gray74",
"a. c gray",
"s. c gray75",
"d. c #C0C0C0",
"f. c #C1C1C1",
"g. c gray76",
"h. c #C3C3C3",
"j. c gray77",
"k. c #C5C5C5",
"l. c #C8C8C8",
"z. c gray79",
"x. c gray80",
"c. c #CDCDCD",
"v. c #CECECE",
"b. c gray81",
"n. c #D0D0D0",
"m. c #D2D2D2",
"M. c gray83",
"N. c #D5D5D5",
"B. c gray84",
"V. c #D7D7D7",
"C. c #D8D8D8",
"Z. c #DADADA",
"A. c gray86",
"S. c #DDDDDD",
"D. c gray87",
"F. c #DFDFDF",
"G. c #E1E1E1",
"H. c gray89",
"J. c #E4E4E4",
"K. c gray90",
"L. c #E6E6E6",
"P. c #E7E7E7",
"I. c gray91",
"U. c #E9E9E9",
"Y. c #EAEAEA",
"T. c gray92",
"R. c #ECECEC",
"E. c gray93",
"W. c #EEEEEE",
"Q. c #EFEFEF",
"!. c gray94",
"~. c #F1F1F1",
"^. c #F3F3F3",
"/. c #F6F6F6",
"(. c gray97",
"). c #F8F8F8",
"_. c #F9F9F9",
"`. c gray98",
"'. c #FBFBFB",
"]. c gray99",
"[. c #FDFDFD",
"{. c #FEFEFE",
/* pixels */
"                                                                                                              ",
"                                                                                                              ",
"                                                                                                              ",
"                                                                                                              ",
"                                                                                                              ",
"                              ].Y.l.k.k.p.k.k.p.k.k.k.k.k.k.k.k.k.k.k.k.k.l.Y.].                              ",
"                            F.,.P t # # # # # # # # # # # # # # # # # # # t J ,.F.                            ",
"                        ].l.R t # 1 7 7 7 7 7 7 7 7 7 7 7 7 7 7 7 7 7 7 7 # # 7 P l.                          ",
"                      ].k.J 1 # z ' *.*.*.*.*.*.*.*.*.*.*.*.*.*.*.*.*.*.*.' z # # V k.].                      ",
"                    ].p.A 1 # A 8.Y.].].].].].].].].].].].].].].].].].].].Y.k.A # # n p.].                    ",
"                  ^.p.V 1 1 J l.].                                            N.J # # z 8.].                  ",
"                ^.8.n # 1 P l.].                                                N.P 1 # z 8.].                ",
"              ^.3.z # 1 R N.].                                                    F.R 1 o z 3.^.              ",
"            ^.p.z # 7 ' F.].                                                        H.' 1 o i ,.^.            ",
"          ].p.V # 7 ' F.].                                                            Y.{ 7 # i ,.].          ",
"          H.A # i 8.^.].                                                                ^.8.t # t F.          ",
"          l.7 # i ' *.*.*.*.*.*.*.*.*.*.*.@.k.].              ].p.*.*.*.*.*.*.*.*.*.*.*.*.{ t # # 8.          ",
"          k.1 # 1 7 7 7 7 7 7 7 7 7 7 7 7 7 n F.].            H.z 7 7 7 7 7 7 7 7 7 7 7 7 7 1 # # ,.          ",
"          k.# # # 1 1 1 1 1 1 1 1 1 1 1 # # 1 l.].            l.1 # # 1 1 1 1 1 1 1 1 1 1 1 1 # # *.          ",
"          k.# # J 3.8.8.8.8.8.8.8.8.8.8.V # # ,.^.            *.# o J 8.8.8.8.8.8.8.8.8.8.3.A o # *.          ",
"          k.# # { H.^.^.].].].].^.^.].].,.1 o V H.].        H.n # # 3.].].].].].^.^.].].].^.R o # *.          ",
"          k.# # { Y.                    F.z # 1 P N.].  ].N.P 1 o z H.                    ].' o # *.          ",
"          k.# # { Y.                    ].,.7 # 1 n ' @.' n 1 # 1 8.].                    ].' o # *.          ",
"          k.# # { Y.                      ^.*.t o # 1 7 1 # o t ,.Y.                      ].' o # *.          ",
"          k.# # { Y.                        Y.p.R i 7 1 7 i R k.^.                        ].' o # *.          ",
"          k.# # { Y.                          ].H.N.p.8.p.N.H.].                          ].' o # *.          ",
"          k.# # { Y.                              ].].].].                                ].' o # *.          ",
"          k.# # { Y.                                                                      ^.' o # *.          ",
"          k.1 # ' Y.                                                                      ^.P o # ,.          ",
"          N.t # n N.].                                                                    F.i # 1 k.          ",
"          l.t # 1 J ,.k.k.k.k.k.k.k.k.k.k.k.k.k.k.k.k.k.k.k.k.k.k.k.k.k.k.k.k.k.k.k.k.k.3.A 1 # 1 p.          ",
"          k.7 1 # 1 t i i i i i i i i i i i i i i i i i i i i i i i i i i i i i i i i i t 1 # 1 1 ,.          ",
"          k.1 1 1 # # o o o o o o o o o # # # # # o o o o o o # # # # o o o o o o o o o o # 1 1 1 *.          ",
"          k.# # V ' { { { { { { { { { { n 1 1 A { { { { { { { A 1 1 n { { { { { { { { { { { n # # *.          ",
"          k.# # ' F.Y.Y.Y.Y.Y.Y.Y.Y.Y.Y.{ 1 # J F.Y.Y.Y.Y.Y.Y.V # # *.Y.Y.Y.Y.Y.Y.Y.Y.Y.Y.H.R o # *.          ",
"          k.# # { Y.                    l.t # 7 @.Y.      ^.@.7 # t F.                    ].' o # *.          ",
"          k.# # { Y.                    ^.{ 1 # 7 P 3.p.3.P 7 # # @.^.                    ^.' o # *.          ",
"          k.# # { Y.                      H.R 1 # 1 t i t 1 o # R H.].                    ].' o # *.          ",
"          k.# # { Y.                      ].H.*.n 1 # o o 1 z *.H.].                      ].' o # *.          ",
"          k.# # { Y.                          ^.N.8.@.{ @.8.N.^.                          ].' o # *.          ",
"          k.# # { Y.                              ^.Y.Y.^.].                              ].' o # *.          ",
"          k.# # { Y.                                                                      ].' o # *.          ",
"          k.1 # ' Y.                                                                      ].R o # ,.          ",
"          l.t # A F.                                                                      Y.n # 1 p.          ",
"          H.A # 7 { l.H.Y.H.H.H.H.H.H.H.H.H.H.H.H.H.H.Y.H.H.H.H.H.H.H.H.H.H.H.H.H.H.Y.H.N.{ 1 # 7 F.          ",
"          ].*.7 # 7 z V V V V V V V V V V V V V V V V V V V V V V V V V V V V V V V V V z 7 # # P ].          ",
"            H.{ 7 # # # # # # # # # # # # # # # # # # # # # # # # # # # # # # # # # # # # o 1 J F.            ",
"            ].Y.8.P i 1 1 1 1 1 1 1 1 1 1 1 1 1 1 1 1 1 1 1 1 1 1 1 1 1 1 1 1 1 1 1 1 1 t P 3.H.].            ",
"                ].^.Y.H.H.H.H.H.H.H.H.H.H.H.H.H.H.H.H.H.H.H.H.H.H.H.H.H.H.H.H.H.H.H.H.H.H.^.].                ",
"                                                                                                              ",
"                                                                                                              ",
"                                                                                                              ",
"                                                                                                              ",
"                                                                                                              ",
"                                                                                                              "
};
