/* XPM */
static char *diropen_dark[] = {
/* columns rows colors chars-per-pixel */
"55 55 182 2 ",
"   c black",
".  c #010101",
"X  c #020202",
"o  c gray1",
"O  c #040404",
"+  c gray2",
"@  c #060606",
"#  c #070707",
"$  c gray3",
"%  c #090909",
"&  c #0C0C0C",
"*  c #0E0E0E",
"=  c gray6",
"-  c #101010",
";  c #111111",
":  c gray7",
">  c #131313",
",  c gray8",
"<  c #151515",
"1  c #161616",
"2  c gray9",
"3  c #181818",
"4  c #191919",
"5  c gray10",
"6  c #1B1B1B",
"7  c gray11",
"8  c #1E1E1E",
"9  c #202020",
"0  c gray13",
"q  c #222222",
"w  c gray14",
"e  c #252525",
"r  c #272727",
"t  c #282828",
"y  c gray16",
"u  c #2A2A2A",
"i  c gray17",
"p  c #2D2D2D",
"a  c #2F2F2F",
"s  c gray19",
"d  c #313131",
"f  c #323232",
"g  c gray20",
"h  c gray21",
"j  c #373737",
"k  c #3A3A3A",
"l  c gray23",
"z  c #3C3C3C",
"x  c gray24",
"c  c #3E3E3E",
"v  c #3F3F3F",
"b  c gray25",
"n  c #414141",
"m  c gray26",
"M  c #434343",
"N  c gray27",
"B  c #464646",
"V  c gray28",
"C  c #484848",
"Z  c #494949",
"A  c gray29",
"S  c #4B4B4B",
"D  c #4C4C4C",
"F  c gray30",
"G  c #4E4E4E",
"H  c gray31",
"J  c #515151",
"K  c gray32",
"L  c gray33",
"P  c #555555",
"I  c gray34",
"U  c #585858",
"Y  c gray35",
"T  c #5A5A5A",
"R  c #5D5D5D",
"E  c gray37",
"W  c #5F5F5F",
"Q  c #606060",
"!  c gray38",
"~  c #626262",
"^  c gray39",
"/  c #656565",
"(  c gray40",
")  c #676767",
"_  c #686868",
"`  c DimGray",
"'  c gray42",
"]  c #6D6D6D",
"[  c gray44",
"{  c #717171",
"}  c #727272",
"|  c gray45",
" . c #747474",
".. c gray46",
"X. c #767676",
"o. c #777777",
"O. c gray47",
"+. c #797979",
"@. c gray48",
"#. c #7B7B7B",
"$. c #7C7C7C",
"%. c gray49",
"&. c #7E7E7E",
"*. c gray50",
"=. c #808080",
"-. c gray51",
";. c #838383",
":. c #848484",
">. c gray52",
",. c #868686",
"<. c #888888",
"1. c gray54",
"2. c gray55",
"3. c #8D8D8D",
"4. c #8E8E8E",
"5. c gray56",
"6. c #939393",
"7. c #979797",
"8. c #989898",
"9. c #9B9B9B",
"0. c gray61",
"q. c #9D9D9D",
"w. c #9F9F9F",
"e. c #A0A0A0",
"r. c gray63",
"t. c gray64",
"y. c #A4A4A4",
"u. c #A5A5A5",
"i. c gray65",
"p. c #AAAAAA",
"a. c gray67",
"s. c #ACACAC",
"d. c gray68",
"f. c #AEAEAE",
"g. c #AFAFAF",
"h. c gray69",
"j. c #B1B1B1",
"k. c #B2B2B2",
"l. c #B4B4B4",
"z. c gray71",
"x. c #B6B6B6",
"c. c gray72",
"v. c #B9B9B9",
"b. c gray73",
"n. c #BCBCBC",
"m. c gray74",
"M. c gray",
"N. c gray75",
"B. c #C1C1C1",
"V. c gray76",
"C. c #C3C3C3",
"Z. c gray77",
"A. c #C5C5C5",
"S. c #C6C6C6",
"D. c gray78",
"F. c #C8C8C8",
"G. c gray79",
"H. c #CACACA",
"J. c #CBCBCB",
"K. c gray80",
"L. c #CDCDCD",
"P. c #CECECE",
"I. c gray81",
"U. c #D0D0D0",
"Y. c gray82",
"T. c #D2D2D2",
"R. c LightGray",
"E. c gray83",
"W. c #D5D5D5",
"Q. c gray84",
"!. c #D7D7D7",
"~. c #D8D8D8",
"^. c gray85",
"/. c #DADADA",
"(. c gray86",
"). c gainsboro",
"_. c #DDDDDD",
"`. c gray87",
"'. c #DFDFDF",
"]. c gray88",
"[. c #E1E1E1",
"{. c #E2E2E2",
/* pixels */
"                                                                                                              ",
"                                                                                                              ",
"                                                                                                              ",
"                                                                                                              ",
"                                                                                                              ",
"                                < d k k k k m m k k k k k k k k k k k k k d <                                 ",
"                            9 T 3.C.).).).).).).).).).).).).).).).).).).).C.6.T 9                             ",
"                          d >.C.).U.J.J.J.J.J.J.J.J.J.J.J.J.J.J.J.J.J.J.J.).).J.3.d                           ",
"                        k w.U.).h.O.! ! ! ! ! ! ! ! ! ! ! ! ! ! ! ! ! ! ! O.h.).).t.k                         ",
"                      m w.U.).w.G <                                       < m w.).).a.m                       ",
"                  & m t.U.U.6.k                                               u 6.).).h.G                     ",
"                & G a.).U.3.d                                                   u 3.U.).h.G                   ",
"              & P h.).U.>.u                                                       9 >.U.].h.P &               ",
"            & m h.).J.O.9                                                           7 O.U.].N.T &             ",
"            m t.).J.O.9                                                               < ..J.).N.T             ",
"          7 w.).N.G &                                                                   & G C.).C.9           ",
"          d J.).N.O.! ! ! ! ! ! ! ! ! ! ! _ k                   m ! ! ! ! ! ! ! ! ! ! ! ! ..C.).).G           ",
"          k U.).U.J.J.J.J.J.J.J.J.J.J.J.J.J.a.9               7 h.J.J.J.J.J.J.J.J.J.J.J.J.J.U.).).T           ",
"          k ).).).U.U.U.U.U.U.U.U.U.U.U.).).U.d               d U.).).U.U.U.U.U.U.U.U.U.U.U.U.).).!           ",
"          k ).).6.P G G G G G G G G G G t.).).T &             ! ).].6.G G G G G G G G G G P w.].).!           ",
"          k ).)...7 & &         & &     T U.].t.7           7 a.).).P           & &       & >.].).!           ",
"          k ).)...<                     9 h.).U.3.u       u 3.U.].h.7                       O.].).!           ",
"          k ).)...<                       T J.).U.a.O._ O.a.U.].U.G                       & O.].).!           ",
"          k ).)...<                       & ! C.].).U.J.U.).].C.T <                         O.].).!           ",
"          k ).)...<                         < m >.N.J.U.J.N.>.m &                           O.].).!           ",
"          k ).)...<                             7 u m G m u 7                               O.].).!           ",
"          k ).)...<                                                                         O.].).!           ",
"          k ).)...<                                                                       & O.].).!           ",
"          k U.).O.<                                                                       & 3.].).T           ",
"          u C.).a.u                                                                       9 N.).U.k           ",
"          d C.).U.6.T k k k k k k k k k k k k k k k k k k k k k k k k k k k k k k k k k P w.U.).U.m           ",
"          k J.U.).U.C.N.N.N.N.N.N.N.N.N.N.N.N.N.N.N.N.N.N.N.N.N.N.N.N.N.N.N.N.N.N.N.N.N.C.U.).U.U.T           ",
"          k U.U.U.).).].].].].].].].].].).).).).).].].].].].].).).).).].].].].].].].].].].).U.U.U.!           ",
"          k ).).t.O.....................a.U.U.w...............w.U.U.a.......................a.).).!           ",
"          k ).).O.9 < < < < < < < < < < ..U.).6.9 < < < < < < t.).).! < < < < < < < < < < 7 >.].).!           ",
"          k ).)...<                     d C.).J._ <       & _ J.).C.9                       O.].).!           ",
"          k ).)...<                     & ..U.).J.3.P m P 3.J.).)._ &                     & O.].).!           ",
"          k ).)...<                       7 >.U.).U.C.N.C.U.].).>.7                         O.].).!           ",
"          k ).)...<                         7 ! a.U.).].].U.h.! 7                           O.].).!           ",
"          k ).)...<                           & u G _ .._ G u &                           & O.].).!           ",
"          k ).)...<                               & < < &                                   O.].).!           ",
"          k ).)...<                                                                         O.].).!           ",
"          k U.).O.<                                                                       & >.].).T           ",
"          d C.).w.9                                                                       < a.).U.m           ",
"          7 w.).J...d 7 < 7 7 7 7 7 7 7 7 7 7 7 7 7 7 7 7 7 7 7 7 7 7 7 7 7 7 7 7 7 < 7 u ..U.).J.9           ",
"            ! J.).J.h.t.t.t.t.t.t.t.t.t.t.t.t.t.t.t.t.t.t.t.t.t.t.t.t.t.t.t.t.t.t.t.t.t.h.J.).).3.            ",
"            7 ..J.).).).).).).).).).).).).).).).).).).).).).).).).).).).).).).).).).).).).).U.6.9             ",
"              < G 3.N.U.U.U.U.U.U.U.U.U.U.U.U.U.U.U.U.U.U.U.U.U.U.U.U.U.U.U.U.U.U.U.U.U.C.3.P 7               ",
"                  & < 7 7 7 7 7 7 7 7 7 7 7 7 7 7 7 7 7 7 7 7 7 7 7 7 7 7 7 7 7 7 7 7 7 7 &                   ",
"                                                                                                              ",
"                                                                                                              ",
"                                                                                                              ",
"                                                                                                              ",
"                                                                                                              ",
"                                                                                                              "
};
