/* XPM */
static char *exit_dark[] = {
/* columns rows colors chars-per-pixel */
"55 55 144 2 ",
"   c black",
".  c #010101",
"X  c #020202",
"o  c gray1",
"O  c #040404",
"+  c gray2",
"@  c #060606",
"#  c #070707",
"$  c gray3",
"%  c #090909",
"&  c gray4",
"*  c #0B0B0B",
"=  c #0C0C0C",
"-  c gray5",
";  c #0E0E0E",
":  c gray6",
">  c #101010",
",  c #111111",
"<  c gray7",
"1  c #131313",
"2  c gray8",
"3  c #161616",
"4  c gray9",
"5  c #191919",
"6  c #1B1B1B",
"7  c gray11",
"8  c #1D1D1D",
"9  c #1E1E1E",
"0  c #252525",
"q  c #272727",
"w  c gray16",
"e  c #2A2A2A",
"r  c gray17",
"t  c #2C2C2C",
"y  c #2D2D2D",
"u  c gray20",
"i  c #353535",
"p  c gray21",
"a  c #373737",
"s  c gray22",
"d  c #393939",
"f  c #3A3A3A",
"g  c gray23",
"h  c #3C3C3C",
"j  c #3E3E3E",
"k  c gray25",
"l  c gray26",
"z  c #434343",
"x  c #444444",
"c  c gray27",
"v  c #464646",
"b  c #494949",
"n  c gray29",
"m  c #4B4B4B",
"M  c gray30",
"N  c #4E4E4E",
"B  c gray31",
"V  c #505050",
"C  c #515151",
"Z  c gray32",
"A  c #535353",
"S  c gray33",
"D  c #565656",
"F  c #585858",
"G  c #5B5B5B",
"H  c #5D5D5D",
"J  c gray39",
"K  c #646464",
"L  c #656565",
"P  c #686868",
"I  c gray42",
"U  c #717171",
"Y  c #727272",
"T  c #7B7B7B",
"R  c gray49",
"E  c #7E7E7E",
"W  c gray51",
"Q  c #838383",
"!  c gray52",
"~  c #868686",
"^  c #888888",
"/  c #8B8B8B",
"(  c gray55",
")  c #8E8E8E",
"_  c gray56",
"`  c #939393",
"'  c gray58",
"]  c #9A9A9A",
"[  c #9B9B9B",
"{  c gray61",
"}  c #9D9D9D",
"|  c gray62",
" . c #9F9F9F",
".. c gray63",
"X. c #A2A2A2",
"o. c gray64",
"O. c #A4A4A4",
"+. c #A5A5A5",
"@. c gray65",
"#. c gray66",
"$. c #AAAAAA",
"%. c #ACACAC",
"&. c gray68",
"*. c #AFAFAF",
"=. c #B2B2B2",
"-. c gray70",
";. c #B4B4B4",
":. c gray71",
">. c #B6B6B6",
",. c #B9B9B9",
"<. c gray73",
"1. c #BBBBBB",
"2. c gray74",
"3. c gray",
"4. c gray75",
"5. c #C0C0C0",
"6. c #C1C1C1",
"7. c gray76",
"8. c #C3C3C3",
"9. c gray77",
"0. c gray78",
"q. c #C8C8C8",
"w. c #CBCBCB",
"e. c gray80",
"r. c #CDCDCD",
"t. c #CECECE",
"y. c gray81",
"u. c #D0D0D0",
"i. c gray82",
"p. c #D2D2D2",
"a. c LightGray",
"s. c gray83",
"d. c #D5D5D5",
"f. c gray84",
"g. c #D7D7D7",
"h. c #D8D8D8",
"j. c gray85",
"k. c #DADADA",
"l. c gray86",
"z. c gainsboro",
"x. c #DDDDDD",
"c. c gray87",
"v. c #DFDFDF",
"b. c gray88",
/* pixels */
"                                                                                                              ",
"                                                                                                              ",
"                                                                                                              ",
"                                                                                                              ",
"                                                                                                              ",
"                                                                                                              ",
"                                                                                                              ",
"                                                                                                              ",
"                                                                                                              ",
"                            * 3 3 3 3 3 3 3 3 3 3 3 3 3 3 3 3 3 3 3 3 3 3 3 3 3 *                             ",
"                        3 k ( t.h.h.h.h.h.h.h.h.h.h.h.h.h.h.h.h.h.h.h.h.h.h.h.s...S 3                         ",
"                      w ' s.h.h.h.h.h.h.h.h.h.h.h.h.h.h.h.h.h.h.h.h.h.h.h.h.h.h.h.h.#.a                       ",
"                      ! s.h.s.9.<.<.<.<.<.<.<.<.<.<.<.<.<.<.<.<.<.<.<.<.<.<.<.9.s.h.h...*                     ",
"                    8 <.h.s.' S h a a a a a a a a a a a a a a a a a a a h a a k T t.h.s.k                     ",
"                    h t.h.#.w                                                     ' b.h.(                     ",
"                    M h.h.T 3                                                     S b.h.#.                    ",
"                    S h.h.Y 3                                                     M b.h.#.                    ",
"                    S h.h.Y 3                                                     M b.h.#.                    ",
"                    S h.h.Y 3           * 3                       3 *             M b.h.#.                    ",
"                    S h.h.Y 3         * M J q                   8 J G *           M b.h.#.                    ",
"                    S h.h.Y 3         w 9.h.;.M               a ..h.h.k           M b.h.#.                    ",
"                    S h.h.Y 3         8 ] h.h.;.k           a ..h.h.;.w           M h.h.#.                    ",
"                    S h.h.Y 3           a ] h.h.;.k       a ..h.h.;.k             M b.h.#.                    ",
"                    S h.h.Y 3             a ] s.h.;.k * h ..h.h.;.k               M b.h.#.                    ",
"                    S h.h.Y 3               a ] h.h.;.J ..h.h.;.M                 M b.h.#.                    ",
"                    S h.h.Y 3                 a ..h.h.t.h.h.;.M                   M b.h.#.                    ",
"                    S h.h.Y 3                   h <.h.h.h.t.M                     M b.h.#.                    ",
"                    S h.h.Y 3                   h <.h.h.h.t.M                     M b.h.#.                    ",
"                    S h.h.Y 3                 S 9.h.h.9.h.h.t.I *                 M b.h.#.                    ",
"                    S h.h.Y 3               S <.h.b.] h ( h.h.t.I                 M b.h.#.                    ",
"                    S h.h.Y 3             S <.h.b...w   8 ( h.h.t.J               M h.h.#.                    ",
"                    S h.h.Y 3           M <.h.b...w       8 ( h.h.t.J             M b.h.#.                    ",
"                    S h.h.Y 3         q ;.h.h...w           8 ( h.h.t.a           M b.h.#.                    ",
"                    S h.h.Y 3         w 9.h...a               8 ( h.h.h           M b.h.#.                    ",
"                    S h.h.Y 3         * M I w                   8 I G *           M b.h.#.                    ",
"                    S h.b.Y 3           * *                       * *             M b.h.#.                    ",
"                    S h.b.Y 3                                                     M b.h.#.                    ",
"                    S h.h.Y 3                                                     M b.h.#.                    ",
"                    M h.b.T 3                                                     G b.h.#.                    ",
"                    h t.h.#.w                                                     ] h.h.!                     ",
"                    8 ;.h.h...J k k k k k k k k k k k k k k k k k k k k k k k S ' s.h.s.h                     ",
"                      T s.h.h.s.t.t.t.t.t.t.t.t.t.t.t.t.t.t.t.t.t.t.t.t.t.t.t.s.s.h.b.] *                     ",
"                      8 ! t.h.h.h.h.h.h.h.h.h.h.h.h.h.h.h.h.h.h.h.h.h.h.h.h.h.h.h.h.] q                       ",
"                        3 h ! 9.h.h.h.h.h.h.h.h.h.h.h.h.h.h.h.h.h.h.h.h.h.h.h.t.] M 3                         ",
"                                * * * * * * * * * * * * * * * * * * * * * * * *                               ",
"                                                                                                              ",
"                                                                                                              ",
"                                                                                                              ",
"                                                                                                              ",
"                                                                                                              ",
"                                                                                                              ",
"                                                                                                              ",
"                                                                                                              ",
"                                                                                                              ",
"                                                                                                              "
};
