/* XPM */
static char *fwd_arrow[] = {
/* columns rows colors chars-per-pixel */
"55 55 190 2 ",
"   c #191919",
".  c #1D1D1D",
"X  c #1E1E1E",
"o  c gray12",
"O  c #202020",
"+  c gray13",
"@  c #222222",
"#  c #232323",
"$  c gray14",
"%  c #252525",
"&  c gray15",
"*  c #272727",
"=  c #282828",
"-  c gray16",
";  c #2A2A2A",
":  c gray17",
">  c #2C2C2C",
",  c #2D2D2D",
"<  c gray18",
"1  c #2F2F2F",
"2  c gray19",
"3  c #313131",
"4  c #323232",
"5  c gray20",
"6  c #343434",
"7  c #353535",
"8  c gray21",
"9  c #373737",
"0  c gray22",
"q  c #393939",
"w  c #3A3A3A",
"e  c gray23",
"r  c #3C3C3C",
"t  c gray24",
"y  c #3E3E3E",
"u  c gray25",
"i  c #414141",
"p  c gray26",
"a  c #434343",
"s  c #444444",
"d  c gray27",
"f  c #464646",
"g  c gray28",
"h  c #484848",
"j  c #494949",
"k  c gray29",
"l  c #4B4B4B",
"z  c #4C4C4C",
"x  c gray30",
"c  c #4E4E4E",
"v  c gray31",
"b  c #505050",
"n  c #515151",
"m  c gray32",
"M  c #535353",
"N  c gray33",
"B  c #555555",
"V  c #565656",
"C  c gray34",
"Z  c #585858",
"A  c #5B5B5B",
"S  c gray36",
"D  c #5D5D5D",
"F  c gray37",
"G  c #5F5F5F",
"H  c #606060",
"J  c gray39",
"K  c #646464",
"L  c gray40",
"P  c #676767",
"I  c #686868",
"U  c DimGray",
"Y  c #6C6C6C",
"T  c gray43",
"R  c #6F6F6F",
"E  c gray44",
"W  c #727272",
"Q  c #747474",
"!  c gray46",
"~  c gray47",
"^  c #797979",
"/  c gray48",
"(  c #7C7C7C",
")  c gray49",
"_  c #808080",
"`  c #818181",
"'  c #838383",
"]  c gray52",
"[  c #868686",
"{  c gray53",
"}  c #888888",
"|  c #898989",
" . c gray54",
".. c #8B8B8B",
"X. c #8D8D8D",
"o. c #8E8E8E",
"O. c gray56",
"+. c gray57",
"@. c #929292",
"#. c gray58",
"$. c #959595",
"%. c gray59",
"&. c #979797",
"*. c gray60",
"=. c #9A9A9A",
"-. c gray61",
";. c #9D9D9D",
":. c #A0A0A0",
">. c gray63",
",. c #A2A2A2",
"<. c gray64",
"1. c #A4A4A4",
"2. c #A5A5A5",
"3. c gray65",
"4. c #A7A7A7",
"5. c gray66",
"6. c #AAAAAA",
"7. c gray67",
"8. c #ACACAC",
"9. c gray68",
"0. c #AFAFAF",
"q. c #B1B1B1",
"w. c #B2B2B2",
"e. c gray70",
"r. c gray71",
"t. c #B6B6B6",
"y. c #B7B7B7",
"u. c gray72",
"i. c #B9B9B9",
"p. c gray73",
"a. c #BBBBBB",
"s. c gray74",
"d. c gray",
"f. c #C0C0C0",
"g. c #C1C1C1",
"h. c gray76",
"j. c #C3C3C3",
"k. c gray77",
"l. c #C6C6C6",
"z. c gray78",
"x. c #C8C8C8",
"c. c gray79",
"v. c #CACACA",
"b. c gray80",
"n. c #CDCDCD",
"m. c #CECECE",
"M. c gray81",
"N. c #D0D0D0",
"B. c #D2D2D2",
"V. c LightGray",
"C. c #D5D5D5",
"Z. c gray84",
"A. c #D7D7D7",
"S. c #D8D8D8",
"D. c gray85",
"F. c gray86",
"G. c gainsboro",
"H. c #DDDDDD",
"J. c gray87",
"K. c #DFDFDF",
"L. c gray88",
"P. c #E1E1E1",
"I. c gray89",
"U. c #E4E4E4",
"Y. c gray90",
"T. c #E6E6E6",
"R. c #E7E7E7",
"E. c gray91",
"W. c #EAEAEA",
"Q. c gray92",
"!. c #ECECEC",
"~. c gray93",
"^. c #EEEEEE",
"/. c #EFEFEF",
"(. c gray94",
"). c #F1F1F1",
"_. c gray95",
"`. c #F3F3F3",
"'. c #F4F4F4",
"]. c gray96",
"[. c #F6F6F6",
"{. c gray97",
"}. c #F8F8F8",
"|. c #F9F9F9",
" X c gray98",
".X c #FBFBFB",
"XX c gray99",
"oX c #FDFDFD",
"OX c #FEFEFE",
"+X c white",
/* pixels */
"+X+X+X+X+X+X+X+X+X+X+X+X+X+X+X+X+X+X+X+X+X+X+X+X+X+X+X+X+X+X+X+X+X+X+X+X+X+X+X+X+X+X+X+X+X+X+X+X+X+X+X+X+X+X+X",
"+X+X+X+X+X+X+X+X+X+X+X+X+X+X+X+X+X+X+X+X+X+X+X+X+X+X+X+X+X+X+X+X+X+X+X+X+X+X+X+X+X+X+X+X+X+X+X+X+X+X+X+X+X+X+X",
"+X+X+X+X+X+X+X+X+X+X+X+X+X+X+X+X+X+X+X+X+X+X+X+X+X+X+X+X+X+X+X+X+X+X+X+X+X+X+X+X+X+X+X+X+X+X+X+X+X+X+X+X+X+X+X",
"+X+X+X+X+X+X+X+X+X+X+X+X+X+X+X+X+X+X+X+X+X+X+X+X+X+X+X+X+X+X+X+X+X+X+X+X+X+X+X+X+X+X+X+X+X+X+X+X+X+X+X+X+X+X+X",
"+X+X+X+X+X+X+X+X+X+X+X+X+X+X+X+X+X+X+X+X+X+X+X+X+X+X+X+X+X+X+X+X+X+X+X+X+X+X+X+X+X+X+X+X+X+X+X+X+X+X+X+X+X+X+X",
"+X+X+X+X+X+X+X+X+X+X+X+X+X+X+X+X+X+X+X+X+X+X+X+X+X+X+X+X+X+X+X+X+X+X+X+X+X+X+X+X+X+X+X+X+X+X+X+X+X+X+X+X+X+X+X",
"+X+X+X+X+X+X+X+X+X+X+X+X+X+X+X+X+X+X+X+X+X+X+X+X+X+X+X+X+X+X+X+X+X+X+X+X+X+X+X+X+X+X+X+X+X+X+X+X+X+X+X+X+X+X+X",
"+X+X+X+X+X+X+X+X+X+X+X+X+X+X+X+X+X+X+X+X+X+X+X+X+X+X+X+X+X+X+X+X+X+X+X+X+X+X+X+X+X+X+X+X+X+X+X+X+X+X+X+X+X+X+X",
"+X+X+X+X+X+X+X+X+X+X+X+X+X+X+X+X+X+X+X+X+X+X+X+X+X+X+X+X+X+X+X+X+X+X+X+X+X+X+X+X+X+X+X+X+X+X+X+X+X+X+X+X+X+X+X",
"+X+X+X+X+X+X+X+X+X+X+X+X+X+X+X+X+X+X+X+X+X+X+X+X+X+X+X+X+X+X+X+X+X+X+X+X+X+X+X+X+X+X+X+X+X+X+X+X+X+X+X+X+X+X+X",
"+X+X+X+X+X+X+X+X+X+X+X+X+X+X+X+X+X+X+X+X+X+X+X+X+X+X+X+X_.x.i.L.+X+X+X+X+X+X+X+X+X+X+X+X+X+X+X+X+X+X+X+X+X+X+X",
"+X+X+X+X+X+X+X+X+X+X+X+X+X+X+X+X+X+X+X+X+X+X+X+X+X+X+XQ.X.6 ; x 5._.+X+X+X+X+X+X+X+X+X+X+X+X+X+X+X+X+X+X+X+X+X",
"+X+X+X+X+X+X+X+X+X+X+X+X+X+X+X+X+X+X+X+X+X+X+X+X+X+X+Xx.S @ @ @ d >._.+X+X+X+X+X+X+X+X+X+X+X+X+X+X+X+X+X+X+X+X",
"+X+X+X+X+X+X+X+X+X+X+X+X+X+X+X+X+X+X+X+X+X+X+X+X+X+X+Xx.B @ @ @ @ w *.Q.+X+X+X+X+X+X+X+X+X+X+X+X+X+X+X+X+X+X+X",
"+X+X+X+X+X+X+X+X+X+X+X+X+X+X+X+X+X+X+X+X+X+X+X+X+X+X+Xz.B X d S w @ w +.Q.+X+X+X+X+X+X+X+X+X+X+X+X+X+X+X+X+X+X",
"+X+X+X+X+X+X+X+X+X+X+X+X+X+X+X+X+X+X+X+X+X+X+X+X+X+X+Xz.B X S i.+.6 @ w X.Q.+X+X+X+X+X+X+X+X+X+X+X+X+X+X+X+X+X",
"+X+X+X+X+X+X+X+X+X+X+X+X+X+X+X+X+X+X+X+X+X+X+X+X+X+X+Xz.B X S x.Q.+.w @ 6 X.L.+X+X+X+X+X+X+X+X+X+X+X+X+X+X+X+X",
"+X+X+X+X+X+X+X+X+X+X+X+X+X+X+X+X+X+X+X+X+X+X+X+X+X+X+Xz.B X S x.+X_.>.w @ ; ^ S.+X+X+X+X+X+X+X+X+X+X+X+X+X+X+X",
"+X+X+X+X+X+X+X+X+X+X+X+X+X+X+X+X+X+X+X+X+X+X+X+X+X+X+Xx.B X S x.+X+X_.>.w @ ; W S.+X+X+X+X+X+X+X+X+X+X+X+X+X+X",
"+X+X+X+X+X+X+X+X+X+X+X+X+X+X+X+X+X+X+X+X+X+X+X_.L.S.x.>.x X S x.+X+X+X_.>.d @ ; W S.+X+X+X+X+X+X+X+X+X+X+X+X+X",
"+X+X+X+X+X+X+X+X+X+X+X+X+X+X+X+X+X+X+X_.z.+.P x w 6 6 ; ; @ S x.+X+X+X+X_.5.d @ ; R V.+X+X+X+X+X+X+X+X+X+X+X+X",
"+X+X+X+X+X+X+X+X+X+X+X+X+X+X+X+X+XL.*.B 6 @ @ @ @ X X X X X S x.+X+X+X+X+X_.5.d @ @ P x.+X+X+X+X+X+X+X+X+X+X+X",
"+X+X+X+X+X+X+X+X+X+X+X+X+X+X+XQ.5.x ; @ @ X @ w x P W ^ ^ ^ >.Q.+X+X+X+X+X+X+Xw.x @ @ S x.+X+X+X+X+X+X+X+X+X+X",
"+X+X+X+X+X+X+X+X+X+X+X+X+X+XS.^ 6 @ @ @ x { i.L._._._.+X+X_.+X+X+X+X+X+X+X+X+X+Xw.x @ @ S z.+X+X+X+X+X+X+X+X+X",
"+X+X+X+X+X+X+X+X+X+X+X+X+XV.R ; @ @ B >.L.+X+X+X+X+X+X+X+X+X+X+X+X+X+X+X+X+X+X+X+Xw.x @ @ B i.+X+X+X+X+X+X+X+X",
"+X+X+X+X+X+X+X+X+X+X+X+XS.R @ @ 6 X.L.+X+X+X+X+X+X+X+X+X+X+X+X+X+X+X+X+X+X+X+X+X+X+Xz.B @ @ x w.+X+X+X+X+X+X+X",
"+X+X+X+X+X+X+X+X+X+X+XQ.X.; @ w >._.+X+X+X+X+X+X+X+X+X+X+X+X+X+X+X+X+X+X+X+X+X+X+X+X+Xz.S @ @ B S.+X+X+X+X+X+X",
"+X+X+X+X+X+X+X+X+X+X+Xw.d X w >._.+X+X+X+X+X+X+X+X+X+X+X+X+X+X+X+X+X+X+X+X+X+X+X+X+X+X+X5.w @ @ z.+X+X+X+X+X+X",
"+X+X+X+X+X+X+X+X+X+XS.R @ ; X.Q.+X+X+X+X+X+X+X+X+X+X+X+X+X+X+X+X+X+X+X+X+X+X+X+X+X+X+Xx.P @ @ B S.+X+X+X+X+X+X",
"+X+X+X+X+X+X+X+X+X+X5.w @ P V.+X+X+X+X+X+X+X+X+X+X+X+X+X+X+X+X+X+X+X+X+X+X+X+X+X+X+Xz.S @ @ d w.+X+X+X+X+X+X+X",
"+X+X+X+X+X+X+X+X+XL.^ @ w >.+X+X+X+X+X+X+X+X+X+X+X+X+X+X+X+X+X+X+X+X+X+X+X+X+X+X+Xz.B @ @ d w.+X+X+X+X+X+X+X+X",
"+X+X+X+X+X+X+X+X+Xz.B X P V.+X+X+X+X+X+X+X+X+X+X+X+X+X+X+X+X+X+X+X+X+X+X+X+X+X+Xi.x @ @ x i.+X+X+X+X+X+X+X+X+X",
"+X+X+X+X+X+X+X+X+X>.6 ; +._.+X+X+X+X+X+X+X+XL.x.i.>.*.+.+.+.i.Q.+X+X+X+X+X+X+Xi.x @ @ x i.+X+X+X+X+X+X+X+X+X+X",
"+X+X+X+X+X+X+X+XQ.{ @ x i.+X+X+X+X+XQ.i.{ B 6 ; X X X X X X S x.+X+X+X+X+X+Xw.d @ @ B z.+X+X+X+X+X+X+X+X+X+X+X",
"+X+X+X+X+X+X+X+XV.P X R S.+X+X+XV.X.d @ X @ @ @ @ @ ; ; ; @ S x.+X+X+X+X_.>.d @ @ S x.+X+X+X+X+X+X+X+X+X+X+X+X",
"+X+X+X+X+X+X+X+Xz.x @ { Q.+XL.*.d @ @ @ 6 x R X.>.w.w.+.d X S x.+X+X+X_.>.w @ @ P x.+X+X+X+X+X+X+X+X+X+X+X+X+X",
"+X+X+X+X+X+X+X+Xw.d ; *.+XS.W ; @ ; d { x.Q.+X+X+X+X+Xx.B X S x.+X+X_.*.w @ ; R V.+X+X+X+X+X+X+X+X+X+X+X+X+X+X",
"+X+X+X+X+X+X+X+X>.6 w 5.S.R @ @ w { S.+X+X+X+X+X+X+X+Xz.B X S x.+XQ.+.6 @ ; R V.+X+X+X+X+X+X+X+X+X+X+X+X+X+X+X",
"+X+X+X+X+X+X+X+X*.; x 5.{ ; @ x 5._.+X+X+X+X+X+X+X+X+Xx.B X S x.Q.+.6 @ ; W S.+X+X+X+X+X+X+X+X+X+X+X+X+X+X+X+X",
"+X+X+X+X+X+X+X_.+.; x W d @ x w.+X+X+X+X+X+X+X+X+X+X+Xx.B X P i.+.6 @ ; ^ S.+X+X+X+X+X+X+X+X+X+X+X+X+X+X+X+X+X",
"+X+X+X+X+X+X+X_.X.; 6 6 @ w >.+X+X+X+X+X+X+X+X+X+X+X+Xz.B @ d B 6 @ ; ^ L.+X+X+X+X+X+X+X+X+X+X+X+X+X+X+X+X+X+X",
"+X+X+X+X+X+X+X_.X.; @ @ ; { Q.+X+X+X+X+X+X+X+X+X+X+X+Xz.B @ @ @ @ ; { L.+X+X+X+X+X+X+X+X+X+X+X+X+X+X+X+X+X+X+X",
"+X+X+X+X+X+X+X_.X.; @ @ S x.+X+X+X+X+X+X+X+X+X+X+X+X+Xx.S @ @ @ 6 X.L.+X+X+X+X+X+X+X+X+X+X+X+X+X+X+X+X+X+X+X+X",
"+X+X+X+X+X+X+X+Xw.x @ d >.+X+X+X+X+X+X+X+X+X+X+X+X+X+XL.{ ; @ d +.Q.+X+X+X+X+X+X+X+X+X+X+X+X+X+X+X+X+X+X+X+X+X",
"+X+X+X+X+X+X+X+X_.z.+.z._.+X+X+X+X+X+X+X+X+X+X+X+X+X+X+XL.5.+.x.+X+X+X+X+X+X+X+X+X+X+X+X+X+X+X+X+X+X+X+X+X+X+X",
"+X+X+X+X+X+X+X+X+X+X+X+X+X+X+X+X+X+X+X+X+X+X+X+X+X+X+X+X+X+X+X+X+X+X+X+X+X+X+X+X+X+X+X+X+X+X+X+X+X+X+X+X+X+X+X",
"+X+X+X+X+X+X+X+X+X+X+X+X+X+X+X+X+X+X+X+X+X+X+X+X+X+X+X+X+X+X+X+X+X+X+X+X+X+X+X+X+X+X+X+X+X+X+X+X+X+X+X+X+X+X+X",
"+X+X+X+X+X+X+X+X+X+X+X+X+X+X+X+X+X+X+X+X+X+X+X+X+X+X+X+X+X+X+X+X+X+X+X+X+X+X+X+X+X+X+X+X+X+X+X+X+X+X+X+X+X+X+X",
"+X+X+X+X+X+X+X+X+X+X+X+X+X+X+X+X+X+X+X+X+X+X+X+X+X+X+X+X+X+X+X+X+X+X+X+X+X+X+X+X+X+X+X+X+X+X+X+X+X+X+X+X+X+X+X",
"+X+X+X+X+X+X+X+X+X+X+X+X+X+X+X+X+X+X+X+X+X+X+X+X+X+X+X+X+X+X+X+X+X+X+X+X+X+X+X+X+X+X+X+X+X+X+X+X+X+X+X+X+X+X+X",
"+X+X+X+X+X+X+X+X+X+X+X+X+X+X+X+X+X+X+X+X+X+X+X+X+X+X+X+X+X+X+X+X+X+X+X+X+X+X+X+X+X+X+X+X+X+X+X+X+X+X+X+X+X+X+X",
"+X+X+X+X+X+X+X+X+X+X+X+X+X+X+X+X+X+X+X+X+X+X+X+X+X+X+X+X+X+X+X+X+X+X+X+X+X+X+X+X+X+X+X+X+X+X+X+X+X+X+X+X+X+X+X",
"+X+X+X+X+X+X+X+X+X+X+X+X+X+X+X+X+X+X+X+X+X+X+X+X+X+X+X+X+X+X+X+X+X+X+X+X+X+X+X+X+X+X+X+X+X+X+X+X+X+X+X+X+X+X+X",
"+X+X+X+X+X+X+X+X+X+X+X+X+X+X+X+X+X+X+X+X+X+X+X+X+X+X+X+X+X+X+X+X+X+X+X+X+X+X+X+X+X+X+X+X+X+X+X+X+X+X+X+X+X+X+X",
"+X+X+X+X+X+X+X+X+X+X+X+X+X+X+X+X+X+X+X+X+X+X+X+X+X+X+X+X+X+X+X+X+X+X+X+X+X+X+X+X+X+X+X+X+X+X+X+X+X+X+X+X+X+X+X"
};
