/* XPM */
static char *fwd_arrow[] = {
/* columns rows colors chars-per-pixel */
"55 55 190 2 ",
"   c None",
".  c #191919",
"X  c #1D1D1D",
"o  c #1E1E1E",
"O  c gray12",
"+  c #202020",
"@  c gray13",
"#  c #222222",
"$  c #232323",
"%  c gray14",
"&  c #252525",
"*  c gray15",
"=  c #272727",
"-  c #282828",
";  c gray16",
":  c #2A2A2A",
">  c gray17",
",  c #2C2C2C",
"<  c #2D2D2D",
"1  c gray18",
"2  c #2F2F2F",
"3  c gray19",
"4  c #313131",
"5  c #323232",
"6  c gray20",
"7  c #343434",
"8  c #353535",
"9  c gray21",
"0  c #373737",
"q  c gray22",
"w  c #393939",
"e  c #3A3A3A",
"r  c gray23",
"t  c #3C3C3C",
"y  c gray24",
"u  c #3E3E3E",
"i  c gray25",
"p  c #414141",
"a  c gray26",
"s  c #434343",
"d  c #444444",
"f  c gray27",
"g  c #464646",
"h  c gray28",
"j  c #484848",
"k  c #494949",
"l  c gray29",
"z  c #4B4B4B",
"x  c #4C4C4C",
"c  c gray30",
"v  c #4E4E4E",
"b  c gray31",
"n  c #505050",
"m  c #515151",
"M  c gray32",
"N  c #535353",
"B  c gray33",
"V  c #555555",
"C  c #565656",
"Z  c gray34",
"A  c #585858",
"S  c #5B5B5B",
"D  c gray36",
"F  c #5D5D5D",
"G  c gray37",
"H  c #5F5F5F",
"J  c #606060",
"K  c gray39",
"L  c #646464",
"P  c gray40",
"I  c #676767",
"U  c #686868",
"Y  c DimGray",
"T  c #6C6C6C",
"R  c gray43",
"E  c #6F6F6F",
"W  c gray44",
"Q  c #727272",
"!  c #747474",
"~  c gray46",
"^  c gray47",
"/  c #797979",
"(  c gray48",
")  c #7C7C7C",
"_  c gray49",
"`  c #808080",
"'  c #818181",
"]  c #838383",
"[  c gray52",
"{  c #868686",
"}  c gray53",
"|  c #888888",
" . c #898989",
".. c gray54",
"X. c #8B8B8B",
"o. c #8D8D8D",
"O. c #8E8E8E",
"+. c gray56",
"@. c gray57",
"#. c #929292",
"$. c gray58",
"%. c #959595",
"&. c gray59",
"*. c #979797",
"=. c gray60",
"-. c #9A9A9A",
";. c gray61",
":. c #9D9D9D",
">. c #A0A0A0",
",. c gray63",
"<. c #A2A2A2",
"1. c gray64",
"2. c #A4A4A4",
"3. c #A5A5A5",
"4. c gray65",
"5. c #A7A7A7",
"6. c gray66",
"7. c #AAAAAA",
"8. c gray67",
"9. c #ACACAC",
"0. c gray68",
"q. c #AFAFAF",
"w. c #B1B1B1",
"e. c #B2B2B2",
"r. c gray70",
"t. c gray71",
"y. c #B6B6B6",
"u. c #B7B7B7",
"i. c gray72",
"p. c #B9B9B9",
"a. c gray73",
"s. c #BBBBBB",
"d. c gray74",
"f. c gray",
"g. c #C0C0C0",
"h. c #C1C1C1",
"j. c gray76",
"k. c #C3C3C3",
"l. c gray77",
"z. c #C6C6C6",
"x. c gray78",
"c. c #C8C8C8",
"v. c gray79",
"b. c #CACACA",
"n. c gray80",
"m. c #CDCDCD",
"M. c #CECECE",
"N. c gray81",
"B. c #D0D0D0",
"V. c #D2D2D2",
"C. c LightGray",
"Z. c #D5D5D5",
"A. c gray84",
"S. c #D7D7D7",
"D. c #D8D8D8",
"F. c gray85",
"G. c gray86",
"H. c gainsboro",
"J. c #DDDDDD",
"K. c gray87",
"L. c #DFDFDF",
"P. c gray88",
"I. c #E1E1E1",
"U. c gray89",
"Y. c #E4E4E4",
"T. c gray90",
"R. c #E6E6E6",
"E. c #E7E7E7",
"W. c gray91",
"Q. c #EAEAEA",
"!. c gray92",
"~. c #ECECEC",
"^. c gray93",
"/. c #EEEEEE",
"(. c #EFEFEF",
"). c gray94",
"_. c #F1F1F1",
"`. c gray95",
"'. c #F3F3F3",
"]. c #F4F4F4",
"[. c gray96",
"{. c #F6F6F6",
"}. c gray97",
"|. c #F8F8F8",
" X c #F9F9F9",
".X c gray98",
"XX c #FBFBFB",
"oX c gray99",
"OX c #FDFDFD",
"+X c #FEFEFE",
/* pixels */
"                                                                                                              ",
"                                                                                                              ",
"                                                                                                              ",
"                                                                                                              ",
"                                                                                                              ",
"                                                                                                              ",
"                                                                                                              ",
"                                                                                                              ",
"                                                                                                              ",
"                                                                                                              ",
"                                                        `.c.p.P.OX                                            ",
"                                                      !.o.7 : c 6.`.                                          ",
"                                                      c.D # # # f ,.`.                                        ",
"                                                      c.V # # # # e =.!.                                      ",
"                                                      x.V o f D e # e @.!.                                    ",
"                                                      x.V o D p.@.7 # e o.!.                                  ",
"                                                      x.V o D c.!.@.e # 7 o.P.                                ",
"                                                      x.V o D c.  `.,.e # : / D.                              ",
"                                                      c.V o D c.    `.,.e # : Q D.                            ",
"                                            OX`.P.D.c.,.c o D c.      `.,.f # : Q D.                          ",
"                                      `.x.@.I c e 7 7 : : # D c.        `.6.f # : E C.                        ",
"                                  P.=.V 7 # # # # o o o o o D c.          `.6.f # # I c.                      ",
"                              !.6.c : # # o # e c I Q / / / ,.!.            OXe.c # # D c.                    ",
"                            D./ 7 # # # c } p.P.`.`.`.OXOX`.OXOX              OXe.c # # D x.OX                ",
"                          C.E : # # V ,.P.OXOXOX                                OXe.c # # V p.OX              ",
"                        D.E # # 7 o.P.                                            OXx.V # # c e.OX            ",
"                      !.o.: # e ,.`.                                                  x.D # # V D.            ",
"                    OXe.f o e ,.`.                                                      6.e # # x.            ",
"                    D.E # : o.!.                                                      c.I # # V D.            ",
"                  OX6.e # I C.                                                      x.D # # f e.OX            ",
"                  P./ # e ,.OX                                                  OXx.V # # f e.OX              ",
"                  x.V o I C.                                                  OXp.c # # c p.OX                ",
"                OX,.7 : @.`.              OXP.c.p.,.=.@.@.@.p.!.            OXp.c # # c p.OX                  ",
"                !.} # c p.          !.p.} V 7 : o o o o o o D c.          OXe.f # # V x.OX                    ",
"                C.I o E D.  OXOXC.o.f # o # # # # # : : : # D c.        `.,.f # # D c.                        ",
"                x.c # } !.OXP.=.f # # # 7 c E o.,.e.e.@.f o D c.      `.,.e # # I c.                          ",
"                e.f : =.OXD.Q : # : f } c.!.OX        c.V o D c.    `.=.e # : E C.                            ",
"              OX,.7 e 6.D.E # # e } D.OX              x.V o D c.  !.@.7 # : E C.                              ",
"              OX=.: c 6.} : # c 6.`.                  c.V o D c.!.@.7 # : Q D.                                ",
"              `.@.: c Q f # c e.OX                    c.V o I p.@.7 # : / D.                                  ",
"              `.o.: 7 7 # e ,.OX                      x.V # f V 7 # : / P.                                    ",
"              `.o.: # # : } !.                        x.V # # # # : } P.                                      ",
"              `.o.: # # D c.                          c.D # # # 7 o.P.                                        ",
"              OXe.c # f 6.OX                          P.} : # f @.!.                                          ",
"                `.x.@.x.`.                              P.6.@.c.OX                                            ",
"                                                                                                              ",
"                                                                                                              ",
"                                                                                                              ",
"                                                                                                              ",
"                                                                                                              ",
"                                                                                                              ",
"                                                                                                              ",
"                                                                                                              ",
"                                                                                                              ",
"                                                                                                              "
};
