/* XPM */
static char *help[] = {
/* columns rows colors chars-per-pixel */
"55 55 202 2 ",
"   c None",
".  c #191919",
"X  c gray11",
"o  c #1D1D1D",
"O  c #1E1E1E",
"+  c gray12",
"@  c #202020",
"#  c gray13",
"$  c #222222",
"%  c #232323",
"&  c gray14",
"*  c #252525",
"=  c gray15",
"-  c #272727",
";  c #282828",
":  c gray16",
">  c #2A2A2A",
",  c gray17",
"<  c #2C2C2C",
"1  c #2D2D2D",
"2  c gray18",
"3  c #2F2F2F",
"4  c gray19",
"5  c #313131",
"6  c #323232",
"7  c gray20",
"8  c #343434",
"9  c #353535",
"0  c gray21",
"q  c #373737",
"w  c gray22",
"e  c #393939",
"r  c #3A3A3A",
"t  c gray23",
"y  c #3C3C3C",
"u  c gray24",
"i  c #3E3E3E",
"p  c #3F3F3F",
"a  c gray25",
"s  c #414141",
"d  c gray26",
"f  c #434343",
"g  c #444444",
"h  c gray27",
"j  c #464646",
"k  c gray28",
"l  c #484848",
"z  c #494949",
"x  c gray29",
"c  c #4B4B4B",
"v  c gray30",
"b  c #4E4E4E",
"n  c gray31",
"m  c #505050",
"M  c #515151",
"N  c gray32",
"B  c #535353",
"V  c gray33",
"C  c #555555",
"Z  c #565656",
"A  c gray34",
"S  c #585858",
"D  c gray35",
"F  c #5A5A5A",
"G  c #5B5B5B",
"H  c gray36",
"J  c #5D5D5D",
"K  c gray37",
"L  c #5F5F5F",
"P  c #606060",
"I  c #626262",
"U  c gray39",
"Y  c #646464",
"T  c #656565",
"R  c gray40",
"E  c #676767",
"W  c #686868",
"Q  c #6A6A6A",
"!  c gray42",
"~  c #6C6C6C",
"^  c #6D6D6D",
"/  c gray43",
"(  c #6F6F6F",
")  c #717171",
"_  c #727272",
"`  c #747474",
"'  c gray46",
"]  c #777777",
"[  c #797979",
"{  c gray48",
"}  c #7B7B7B",
"|  c gray49",
" . c #808080",
".. c #818181",
"X. c gray51",
"o. c #838383",
"O. c #848484",
"+. c gray52",
"@. c #868686",
"#. c gray53",
"$. c #888888",
"%. c gray54",
"&. c #8B8B8B",
"*. c gray55",
"=. c #8D8D8D",
"-. c #8E8E8E",
";. c gray56",
":. c gray57",
">. c #929292",
",. c #939393",
"<. c gray58",
"1. c #959595",
"2. c #979797",
"3. c #989898",
"4. c gray60",
"5. c #9A9A9A",
"6. c gray61",
"7. c #A0A0A0",
"8. c gray63",
"9. c gray64",
"0. c #A4A4A4",
"q. c gray65",
"w. c #A7A7A7",
"e. c gray66",
"r. c #AAAAAA",
"t. c gray67",
"y. c #ACACAC",
"u. c gray68",
"i. c #AEAEAE",
"p. c #AFAFAF",
"a. c gray69",
"s. c #B1B1B1",
"d. c gray70",
"f. c #B4B4B4",
"g. c gray71",
"h. c #B6B6B6",
"j. c #B7B7B7",
"k. c gray72",
"l. c #B9B9B9",
"z. c gray73",
"x. c #BBBBBB",
"c. c #BCBCBC",
"v. c gray",
"b. c gray75",
"n. c #C0C0C0",
"m. c #C1C1C1",
"M. c gray76",
"N. c #C3C3C3",
"B. c gray77",
"V. c #C5C5C5",
"C. c #C8C8C8",
"Z. c gray79",
"A. c #CACACA",
"S. c #CBCBCB",
"D. c gray80",
"F. c #CDCDCD",
"G. c #CECECE",
"H. c gray81",
"J. c #D0D0D0",
"K. c gray82",
"L. c #D2D2D2",
"P. c LightGray",
"I. c gray83",
"U. c #D5D5D5",
"Y. c gray84",
"T. c #D8D8D8",
"R. c gray85",
"E. c #DADADA",
"W. c gray86",
"Q. c gainsboro",
"!. c gray87",
"~. c #DFDFDF",
"^. c gray88",
"/. c #E1E1E1",
"(. c #E2E2E2",
"). c gray89",
"_. c gray90",
"`. c #E6E6E6",
"'. c #E7E7E7",
"]. c gray91",
"[. c #E9E9E9",
"{. c #EAEAEA",
"}. c gray92",
"|. c #ECECEC",
" X c gray93",
".X c #EEEEEE",
"XX c #EFEFEF",
"oX c gray94",
"OX c #F1F1F1",
"+X c gray95",
"@X c #F3F3F3",
"#X c #F4F4F4",
"$X c gray96",
"%X c #F6F6F6",
"&X c gray97",
"*X c #F8F8F8",
"=X c #F9F9F9",
"-X c gray98",
";X c #FBFBFB",
":X c gray99",
">X c #FDFDFD",
",X c #FEFEFE",
/* pixels */
"                                                                                                              ",
"                                                                                                              ",
"                                                                                                              ",
"                                                                                                              ",
"                                                                                                              ",
"                                                                                                              ",
"                                                                                                              ",
"                                                                                                              ",
"                                            =XoX^.F.c.f.c.F.R.oX=X                                            ",
"                                      =XR.8.T g 0 3 3 3 3 3 0 g T 4.L.=X                                      ",
"                                    L.#.g 3 * * * * + + + + * * * 3 t ' F.=X                                  ",
"                                ^.,.g 3 * * + * t N L T T N t * + + * * t #. X                                ",
"                              F.( 0 * * * g #.c.R. X X X X XR.c.#.v * * * 3 N F.                              ",
"                            c.N 3 * * v 4.R.oX=X=X          =X=XoX^.8.N * * * g c.                            ",
"                          L.v * * 3 { L.oX=X                      =XoX^.#.3 * * t c.                          ",
"                        R.( * * 0 8. X=X                                oXf.0 * * 0 F.                        ",
"                       X&.3 * t u.oX                                      =XN.0 * * v  X                      ",
"                    =Xf.g * 3 8. X                  oX X X=X                =Xf.* * * #.                      ",
"                    R.( * * #.^.              oXu.( v g g L 4.^.=X            =X#.+ * 3 F.                    ",
"                  =X8.t * g L.=X            R.T 3 * + + + * * v F.=X             Xv * + ( =X                  ",
"                  ^.' * * { oX            oX( * * 3 L { ( 0 * * v ^.=X            u.* * 3 R.                  ",
"                  c.v + g u.              L.0 * 3 8. XoXoXc.0 * * u.=X            oXv * + ,.                  ",
"                =X4.0 * T L.              F.0 + &. X      =XT * + #.=X              &.+ + L =X                ",
"                oX{ * 3 &.oX              =Xc.c.oX          T * + &.=X              F.* * 0  X                ",
"                ^.L + t u.=X                              c.3 * * N.=X               Xt * * F.                ",
"                R.t + g c.                            =X8.0 * + { oX                =XN * + f.                ",
"                L.3 * N N.                           X' * + * #.oX                    T + * ,.                ",
"                F.* * N N.                        =X' * * t f.=X                      ( + * #.                ",
"                L.3 * N N.                        F.0 * 0 F.=X                        ( + * &.                ",
"                R.t * v c.                        8.3 + (  X                        =XN * + u.                ",
"                ^.L * t u.=X                      c.3 + ,.oX                        oXt * * F.                ",
"                oX' * 3 &.oX                      =XN.c.oX                          F.* * 0 ^.                ",
"                =X,.3 * ( R.                      =XoXoX=X                          ,.+ * N =X                ",
"                  f.g + g f.                      N.L N f.oX                      =Xv * + &.                  ",
"                  R.( * 3 #.oX                  oXL * + t R.                      c.* * 3 L.                  ",
"                  =X8.0 * g R.=X                oXL * * g R.                    oXN * * T =X                  ",
"                    L.T * * &. X                  N.L v u.oX                  =X,.* * * N.                    ",
"                    =Xu.t * 0 u.oX                  oXoX=X                  =XN.3 * + ' =X                    ",
"                      ^.#.3 * g c.oX                                      =XF.t * * g ^.                      ",
"                        L.( * * t u. X=X                                oXc.t * * 0 N.                        ",
"                          F.g * * 0 &.R.oX=X                        =X X4.0 * * 0 u.                          ",
"                          =Xu.v 3 * * N u.^.oX=X              =XoX Xc.L * * * 0 u.                            ",
"                              N.L 3 * * * N 4.F.^. X XoXoX X^.F.4.L 3 * * * v c.                              ",
"                                R.#.t * * * + 0 v T ' { ' T v 0 + + * * 0 ' R.                                ",
"                                  =XN.' t 3 * * * * + + + + + * * * 0 T c.=X                                  ",
"                                      oXF.&.N t 0 3 3 3 * 3 3 t N #.N.oX                                      ",
"                                            oX^.L.f.8.4.8.f.L.^.=X                                            ",
"                                                                                                              ",
"                                                                                                              ",
"                                                                                                              ",
"                                                                                                              ",
"                                                                                                              ",
"                                                                                                              ",
"                                                                                                              ",
"                                                                                                              "
};
