/* XPM */
static char *help[] = {
/* columns rows colors chars-per-pixel */
"55 55 202 2 ",
"   c #191919",
".  c gray11",
"X  c #1D1D1D",
"o  c #1E1E1E",
"O  c gray12",
"+  c #202020",
"@  c gray13",
"#  c #222222",
"$  c #232323",
"%  c gray14",
"&  c #252525",
"*  c gray15",
"=  c #272727",
"-  c #282828",
";  c gray16",
":  c #2A2A2A",
">  c gray17",
",  c #2C2C2C",
"<  c #2D2D2D",
"1  c gray18",
"2  c #2F2F2F",
"3  c gray19",
"4  c #313131",
"5  c #323232",
"6  c gray20",
"7  c #343434",
"8  c #353535",
"9  c gray21",
"0  c #373737",
"q  c gray22",
"w  c #393939",
"e  c #3A3A3A",
"r  c gray23",
"t  c #3C3C3C",
"y  c gray24",
"u  c #3E3E3E",
"i  c #3F3F3F",
"p  c gray25",
"a  c #414141",
"s  c gray26",
"d  c #434343",
"f  c #444444",
"g  c gray27",
"h  c #464646",
"j  c gray28",
"k  c #484848",
"l  c #494949",
"z  c gray29",
"x  c #4B4B4B",
"c  c gray30",
"v  c #4E4E4E",
"b  c gray31",
"n  c #505050",
"m  c #515151",
"M  c gray32",
"N  c #535353",
"B  c gray33",
"V  c #555555",
"C  c #565656",
"Z  c gray34",
"A  c #585858",
"S  c gray35",
"D  c #5A5A5A",
"F  c #5B5B5B",
"G  c gray36",
"H  c #5D5D5D",
"J  c gray37",
"K  c #5F5F5F",
"L  c #606060",
"P  c #626262",
"I  c gray39",
"U  c #646464",
"Y  c #656565",
"T  c gray40",
"R  c #676767",
"E  c #686868",
"W  c #6A6A6A",
"Q  c gray42",
"!  c #6C6C6C",
"~  c #6D6D6D",
"^  c gray43",
"/  c #6F6F6F",
"(  c #717171",
")  c #727272",
"_  c #747474",
"`  c gray46",
"'  c #777777",
"]  c #797979",
"[  c gray48",
"{  c #7B7B7B",
"}  c gray49",
"|  c #808080",
" . c #818181",
".. c gray51",
"X. c #838383",
"o. c #848484",
"O. c gray52",
"+. c #868686",
"@. c gray53",
"#. c #888888",
"$. c gray54",
"%. c #8B8B8B",
"&. c gray55",
"*. c #8D8D8D",
"=. c #8E8E8E",
"-. c gray56",
";. c gray57",
":. c #929292",
">. c #939393",
",. c gray58",
"<. c #959595",
"1. c #979797",
"2. c #989898",
"3. c gray60",
"4. c #9A9A9A",
"5. c gray61",
"6. c #A0A0A0",
"7. c gray63",
"8. c gray64",
"9. c #A4A4A4",
"0. c gray65",
"q. c #A7A7A7",
"w. c gray66",
"e. c #AAAAAA",
"r. c gray67",
"t. c #ACACAC",
"y. c gray68",
"u. c #AEAEAE",
"i. c #AFAFAF",
"p. c gray69",
"a. c #B1B1B1",
"s. c gray70",
"d. c #B4B4B4",
"f. c gray71",
"g. c #B6B6B6",
"h. c #B7B7B7",
"j. c gray72",
"k. c #B9B9B9",
"l. c gray73",
"z. c #BBBBBB",
"x. c #BCBCBC",
"c. c gray",
"v. c gray75",
"b. c #C0C0C0",
"n. c #C1C1C1",
"m. c gray76",
"M. c #C3C3C3",
"N. c gray77",
"B. c #C5C5C5",
"V. c #C8C8C8",
"C. c gray79",
"Z. c #CACACA",
"A. c #CBCBCB",
"S. c gray80",
"D. c #CDCDCD",
"F. c #CECECE",
"G. c gray81",
"H. c #D0D0D0",
"J. c gray82",
"K. c #D2D2D2",
"L. c LightGray",
"P. c gray83",
"I. c #D5D5D5",
"U. c gray84",
"Y. c #D8D8D8",
"T. c gray85",
"R. c #DADADA",
"E. c gray86",
"W. c gainsboro",
"Q. c gray87",
"!. c #DFDFDF",
"~. c gray88",
"^. c #E1E1E1",
"/. c #E2E2E2",
"(. c gray89",
"). c gray90",
"_. c #E6E6E6",
"`. c #E7E7E7",
"'. c gray91",
"]. c #E9E9E9",
"[. c #EAEAEA",
"{. c gray92",
"}. c #ECECEC",
"|. c gray93",
" X c #EEEEEE",
".X c #EFEFEF",
"XX c gray94",
"oX c #F1F1F1",
"OX c gray95",
"+X c #F3F3F3",
"@X c #F4F4F4",
"#X c gray96",
"$X c #F6F6F6",
"%X c gray97",
"&X c #F8F8F8",
"*X c #F9F9F9",
"=X c gray98",
"-X c #FBFBFB",
";X c gray99",
":X c #FDFDFD",
">X c #FEFEFE",
",X c white",
/* pixels */
",X,X,X,X,X,X,X,X,X,X,X,X,X,X,X,X,X,X,X,X,X,X,X,X,X,X,X,X,X,X,X,X,X,X,X,X,X,X,X,X,X,X,X,X,X,X,X,X,X,X,X,X,X,X,X",
",X,X,X,X,X,X,X,X,X,X,X,X,X,X,X,X,X,X,X,X,X,X,X,X,X,X,X,X,X,X,X,X,X,X,X,X,X,X,X,X,X,X,X,X,X,X,X,X,X,X,X,X,X,X,X",
",X,X,X,X,X,X,X,X,X,X,X,X,X,X,X,X,X,X,X,X,X,X,X,X,X,X,X,X,X,X,X,X,X,X,X,X,X,X,X,X,X,X,X,X,X,X,X,X,X,X,X,X,X,X,X",
",X,X,X,X,X,X,X,X,X,X,X,X,X,X,X,X,X,X,X,X,X,X,X,X,X,X,X,X,X,X,X,X,X,X,X,X,X,X,X,X,X,X,X,X,X,X,X,X,X,X,X,X,X,X,X",
",X,X,X,X,X,X,X,X,X,X,X,X,X,X,X,X,X,X,X,X,X,X,X,X,X,X,X,X,X,X,X,X,X,X,X,X,X,X,X,X,X,X,X,X,X,X,X,X,X,X,X,X,X,X,X",
",X,X,X,X,X,X,X,X,X,X,X,X,X,X,X,X,X,X,X,X,X,X,X,X,X,X,X,X,X,X,X,X,X,X,X,X,X,X,X,X,X,X,X,X,X,X,X,X,X,X,X,X,X,X,X",
",X,X,X,X,X,X,X,X,X,X,X,X,X,X,X,X,X,X,X,X,X,X,X,X,X,X,X,X,X,X,X,X,X,X,X,X,X,X,X,X,X,X,X,X,X,X,X,X,X,X,X,X,X,X,X",
",X,X,X,X,X,X,X,X,X,X,X,X,X,X,X,X,X,X,X,X,X,X,X,X,X,X,X,X,X,X,X,X,X,X,X,X,X,X,X,X,X,X,X,X,X,X,X,X,X,X,X,X,X,X,X",
",X,X,X,X,X,X,X,X,X,X,X,X,X,X,X,X,X,X,X,X,X,X,XXX~.D.x.d.x.D.T.XX,X,X,X,X,X,X,X,X,X,X,X,X,X,X,X,X,X,X,X,X,X,X,X",
",X,X,X,X,X,X,X,X,X,X,X,X,X,X,X,X,X,X,X,XT.7.Y f 9 2 2 2 2 2 9 f Y 3.K.,X,X,X,X,X,X,X,X,X,X,X,X,X,X,X,X,X,X,X,X",
",X,X,X,X,X,X,X,X,X,X,X,X,X,X,X,X,X,XK.@.f 2 & & & & O O O O & & & 2 r _ D.,X,X,X,X,X,X,X,X,X,X,X,X,X,X,X,X,X,X",
",X,X,X,X,X,X,X,X,X,X,X,X,X,X,X,X~.:.f 2 & & O & r M K Y Y M r & O O & & r @.|.,X,X,X,X,X,X,X,X,X,X,X,X,X,X,X,X",
",X,X,X,X,X,X,X,X,X,X,X,X,X,X,XD./ 9 & & & f @.x.T.|.|.|.|.|.T.x.@.c & & & 2 M D.,X,X,X,X,X,X,X,X,X,X,X,X,X,X,X",
",X,X,X,X,X,X,X,X,X,X,X,X,X,Xx.M 2 & & c 3.T.XX,X,X,X,X,X,X,X,X,XXX~.7.M & & & f x.,X,X,X,X,X,X,X,X,X,X,X,X,X,X",
",X,X,X,X,X,X,X,X,X,X,X,X,XK.c & & 2 [ K.XX,X,X,X,X,X,X,X,X,X,X,X,X,XXX~.@.2 & & r x.,X,X,X,X,X,X,X,X,X,X,X,X,X",
",X,X,X,X,X,X,X,X,X,X,X,XT./ & & 9 7.|.,X,X,X,X,X,X,X,X,X,X,X,X,X,X,X,X,XXXd.9 & & 9 D.,X,X,X,X,X,X,X,X,X,X,X,X",
",X,X,X,X,X,X,X,X,X,X,X|.%.2 & r y.XX,X,X,X,X,X,X,X,X,X,X,X,X,X,X,X,X,X,X,X,XB.9 & & c |.,X,X,X,X,X,X,X,X,X,X,X",
",X,X,X,X,X,X,X,X,X,X,Xd.f & 2 7.|.,X,X,X,X,X,X,X,X,XXX|.|.,X,X,X,X,X,X,X,X,X,Xd.& & O @.,X,X,X,X,X,X,X,X,X,X,X",
",X,X,X,X,X,X,X,X,X,XT./ & & @.~.,X,X,X,X,X,X,XXXy./ c f f K 3.~.,X,X,X,X,X,X,X,X@.O & 2 D.,X,X,X,X,X,X,X,X,X,X",
",X,X,X,X,X,X,X,X,X,X7.r & f K.,X,X,X,X,X,X,XT.Y 2 & O O O & & c D.,X,X,X,X,X,X,X|.c & O / ,X,X,X,X,X,X,X,X,X,X",
",X,X,X,X,X,X,X,X,XT._ & & [ XX,X,X,X,X,X,XXX/ & & 2 K [ / 9 & & c ~.,X,X,X,X,X,X,Xy.& & 2 T.,X,X,X,X,X,X,X,X,X",
",X,X,X,X,X,X,X,X,Xx.c O f y.,X,X,X,X,X,X,XK.9 & 2 7.|.XXXXx.9 & & y.,X,X,X,X,X,X,XXXc & O :.,X,X,X,X,X,X,X,X,X",
",X,X,X,X,X,X,X,X,X3.9 & Y K.,X,X,X,X,X,X,XD.9 O %.|.,X,X,X,XY & O @.,X,X,X,X,X,X,X,X%.O O K ,X,X,X,X,X,X,X,X,X",
",X,X,X,X,X,X,X,XXX[ & 2 %.XX,X,X,X,X,X,X,X,Xx.x.XX,X,X,X,X,XY & O %.,X,X,X,X,X,X,X,XD.& & 9 |.,X,X,X,X,X,X,X,X",
",X,X,X,X,X,X,X,X~.K O r y.,X,X,X,X,X,X,X,X,X,X,X,X,X,X,X,Xx.2 & & B.,X,X,X,X,X,X,X,X|.r & & D.,X,X,X,X,X,X,X,X",
",X,X,X,X,X,X,X,XT.r O f x.,X,X,X,X,X,X,X,X,X,X,X,X,X,X,X7.9 & O [ XX,X,X,X,X,X,X,X,X,XM & O d.,X,X,X,X,X,X,X,X",
",X,X,X,X,X,X,X,XK.2 & M B.,X,X,X,X,X,X,X,X,X,X,X,X,X|._ & O & @.XX,X,X,X,X,X,X,X,X,X,XY O & :.,X,X,X,X,X,X,X,X",
",X,X,X,X,X,X,X,XD.& & M B.,X,X,X,X,X,X,X,X,X,X,X,X,X_ & & r d.,X,X,X,X,X,X,X,X,X,X,X,X/ O & @.,X,X,X,X,X,X,X,X",
",X,X,X,X,X,X,X,XK.2 & M B.,X,X,X,X,X,X,X,X,X,X,X,XD.9 & 9 B.,X,X,X,X,X,X,X,X,X,X,X,X,X/ O & %.,X,X,X,X,X,X,X,X",
",X,X,X,X,X,X,X,XT.r & c x.,X,X,X,X,X,X,X,X,X,X,X,X7.2 O / |.,X,X,X,X,X,X,X,X,X,X,X,X,XM & O y.,X,X,X,X,X,X,X,X",
",X,X,X,X,X,X,X,X~.K & r y.,X,X,X,X,X,X,X,X,X,X,X,Xx.2 O :.XX,X,X,X,X,X,X,X,X,X,X,X,XXXr & & D.,X,X,X,X,X,X,X,X",
",X,X,X,X,X,X,X,XXX_ & 2 %.XX,X,X,X,X,X,X,X,X,X,X,X,XB.x.XX,X,X,X,X,X,X,X,X,X,X,X,X,XD.& & 9 ~.,X,X,X,X,X,X,X,X",
",X,X,X,X,X,X,X,X,X:.2 & / T.,X,X,X,X,X,X,X,X,X,X,X,XXXXX,X,X,X,X,X,X,X,X,X,X,X,X,X,X:.O & M ,X,X,X,X,X,X,X,X,X",
",X,X,X,X,X,X,X,X,Xd.f O f d.,X,X,X,X,X,X,X,X,X,X,XB.K M d.XX,X,X,X,X,X,X,X,X,X,X,X,Xc & O %.,X,X,X,X,X,X,X,X,X",
",X,X,X,X,X,X,X,X,XT./ & 2 @.XX,X,X,X,X,X,X,X,X,XXXK & O r T.,X,X,X,X,X,X,X,X,X,X,Xx.& & 2 K.,X,X,X,X,X,X,X,X,X",
",X,X,X,X,X,X,X,X,X,X7.9 O f T.,X,X,X,X,X,X,X,X,XXXK & & f T.,X,X,X,X,X,X,X,X,X,XXXM & & Y ,X,X,X,X,X,X,X,X,X,X",
",X,X,X,X,X,X,X,X,X,XK.Y & & %.|.,X,X,X,X,X,X,X,X,XB.K c y.XX,X,X,X,X,X,X,X,X,X,X:.& & & B.,X,X,X,X,X,X,X,X,X,X",
",X,X,X,X,X,X,X,X,X,X,Xy.r & 9 y.XX,X,X,X,X,X,X,X,X,XXXXX,X,X,X,X,X,X,X,X,X,X,XB.2 & O _ ,X,X,X,X,X,X,X,X,X,X,X",
",X,X,X,X,X,X,X,X,X,X,X~.@.2 & f x.XX,X,X,X,X,X,X,X,X,X,X,X,X,X,X,X,X,X,X,X,XD.r & & f ~.,X,X,X,X,X,X,X,X,X,X,X",
",X,X,X,X,X,X,X,X,X,X,X,XK./ & & r y.|.,X,X,X,X,X,X,X,X,X,X,X,X,X,X,X,X,XXXx.r & & 9 B.,X,X,X,X,X,X,X,X,X,X,X,X",
",X,X,X,X,X,X,X,X,X,X,X,X,XD.f & & 9 %.T.XX,X,X,X,X,X,X,X,X,X,X,X,X,X,X|.3.9 & & 9 y.,X,X,X,X,X,X,X,X,X,X,X,X,X",
",X,X,X,X,X,X,X,X,X,X,X,X,X,Xy.c 2 & & M y.~.XX,X,X,X,X,X,X,X,X,XXX|.d.K & & & 9 y.,X,X,X,X,X,X,X,X,X,X,X,X,X,X",
",X,X,X,X,X,X,X,X,X,X,X,X,X,X,XB.K 2 & & & M 3.D.~.|.|.XXXX|.~.D.3.K 2 & & & c x.,X,X,X,X,X,X,X,X,X,X,X,X,X,X,X",
",X,X,X,X,X,X,X,X,X,X,X,X,X,X,X,XT.@.r & & & O 9 c Y _ [ _ Y c 9 O O & & 9 _ T.,X,X,X,X,X,X,X,X,X,X,X,X,X,X,X,X",
",X,X,X,X,X,X,X,X,X,X,X,X,X,X,X,X,X,XB._ r 2 & & & & O O O O O & & & 9 Y x.,X,X,X,X,X,X,X,X,X,X,X,X,X,X,X,X,X,X",
",X,X,X,X,X,X,X,X,X,X,X,X,X,X,X,X,X,X,XXXD.%.M r 9 2 2 2 & 2 2 r M @.B.XX,X,X,X,X,X,X,X,X,X,X,X,X,X,X,X,X,X,X,X",
",X,X,X,X,X,X,X,X,X,X,X,X,X,X,X,X,X,X,X,X,X,XXX~.K.d.7.3.7.d.K.~.,X,X,X,X,X,X,X,X,X,X,X,X,X,X,X,X,X,X,X,X,X,X,X",
",X,X,X,X,X,X,X,X,X,X,X,X,X,X,X,X,X,X,X,X,X,X,X,X,X,X,X,X,X,X,X,X,X,X,X,X,X,X,X,X,X,X,X,X,X,X,X,X,X,X,X,X,X,X,X",
",X,X,X,X,X,X,X,X,X,X,X,X,X,X,X,X,X,X,X,X,X,X,X,X,X,X,X,X,X,X,X,X,X,X,X,X,X,X,X,X,X,X,X,X,X,X,X,X,X,X,X,X,X,X,X",
",X,X,X,X,X,X,X,X,X,X,X,X,X,X,X,X,X,X,X,X,X,X,X,X,X,X,X,X,X,X,X,X,X,X,X,X,X,X,X,X,X,X,X,X,X,X,X,X,X,X,X,X,X,X,X",
",X,X,X,X,X,X,X,X,X,X,X,X,X,X,X,X,X,X,X,X,X,X,X,X,X,X,X,X,X,X,X,X,X,X,X,X,X,X,X,X,X,X,X,X,X,X,X,X,X,X,X,X,X,X,X",
",X,X,X,X,X,X,X,X,X,X,X,X,X,X,X,X,X,X,X,X,X,X,X,X,X,X,X,X,X,X,X,X,X,X,X,X,X,X,X,X,X,X,X,X,X,X,X,X,X,X,X,X,X,X,X",
",X,X,X,X,X,X,X,X,X,X,X,X,X,X,X,X,X,X,X,X,X,X,X,X,X,X,X,X,X,X,X,X,X,X,X,X,X,X,X,X,X,X,X,X,X,X,X,X,X,X,X,X,X,X,X",
",X,X,X,X,X,X,X,X,X,X,X,X,X,X,X,X,X,X,X,X,X,X,X,X,X,X,X,X,X,X,X,X,X,X,X,X,X,X,X,X,X,X,X,X,X,X,X,X,X,X,X,X,X,X,X",
",X,X,X,X,X,X,X,X,X,X,X,X,X,X,X,X,X,X,X,X,X,X,X,X,X,X,X,X,X,X,X,X,X,X,X,X,X,X,X,X,X,X,X,X,X,X,X,X,X,X,X,X,X,X,X"
};
