/* XPM */
static char *hide_dark[] = {
/* columns rows colors chars-per-pixel */
"55 55 211 2 ",
"   c black",
".  c #010101",
"X  c #020202",
"o  c gray1",
"O  c #040404",
"+  c gray2",
"@  c #060606",
"#  c #070707",
"$  c gray3",
"%  c #090909",
"&  c gray4",
"*  c #0B0B0B",
"=  c #0C0C0C",
"-  c gray5",
";  c #0E0E0E",
":  c gray6",
">  c #101010",
",  c #111111",
"<  c gray7",
"1  c #131313",
"2  c gray8",
"3  c #151515",
"4  c #161616",
"5  c gray9",
"6  c #181818",
"7  c #191919",
"8  c gray10",
"9  c #1B1B1B",
"0  c gray11",
"q  c #1D1D1D",
"w  c #1E1E1E",
"e  c gray12",
"r  c #202020",
"t  c gray13",
"y  c #222222",
"u  c #232323",
"i  c gray14",
"p  c #252525",
"a  c gray15",
"s  c #272727",
"d  c #282828",
"f  c gray16",
"g  c #2A2A2A",
"h  c gray17",
"j  c #2C2C2C",
"k  c #2D2D2D",
"l  c gray18",
"z  c #2F2F2F",
"x  c gray19",
"c  c #313131",
"v  c #323232",
"b  c gray20",
"n  c #343434",
"m  c #353535",
"M  c gray21",
"N  c gray22",
"B  c #393939",
"V  c #3A3A3A",
"C  c gray23",
"Z  c #3C3C3C",
"A  c gray24",
"S  c #3E3E3E",
"D  c #3F3F3F",
"F  c gray25",
"G  c #414141",
"H  c #434343",
"J  c #444444",
"K  c gray27",
"L  c #464646",
"P  c gray28",
"I  c #484848",
"U  c #494949",
"Y  c gray29",
"T  c #4B4B4B",
"R  c gray30",
"E  c #4E4E4E",
"W  c gray31",
"Q  c #505050",
"!  c #515151",
"~  c gray32",
"^  c #535353",
"/  c #555555",
"(  c #565656",
")  c gray34",
"_  c gray35",
"`  c #5A5A5A",
"'  c #5B5B5B",
"]  c gray36",
"[  c #5D5D5D",
"{  c gray37",
"}  c #5F5F5F",
"|  c #606060",
" . c gray38",
".. c #626262",
"X. c gray39",
"o. c #646464",
"O. c #656565",
"+. c gray40",
"@. c #676767",
"#. c #686868",
"$. c DimGray",
"%. c #6A6A6A",
"&. c gray42",
"*. c #6C6C6C",
"=. c #6D6D6D",
"-. c gray43",
";. c #6F6F6F",
":. c gray44",
">. c #747474",
",. c gray46",
"<. c #767676",
"1. c #777777",
"2. c gray47",
"3. c #797979",
"4. c gray48",
"5. c #7B7B7B",
"6. c #7C7C7C",
"7. c #7E7E7E",
"8. c gray50",
"9. c #808080",
"0. c #818181",
"q. c gray51",
"w. c #838383",
"e. c #848484",
"r. c gray52",
"t. c #868686",
"y. c gray53",
"u. c #888888",
"i. c #898989",
"p. c gray54",
"a. c #8B8B8B",
"s. c gray55",
"d. c #8D8D8D",
"f. c gray56",
"g. c #909090",
"h. c gray57",
"j. c #929292",
"k. c #959595",
"l. c gray59",
"z. c #979797",
"x. c #989898",
"c. c gray60",
"v. c #9B9B9B",
"b. c gray61",
"n. c #9D9D9D",
"m. c gray62",
"M. c #9F9F9F",
"N. c #A0A0A0",
"B. c gray63",
"V. c #A2A2A2",
"C. c gray64",
"Z. c #A5A5A5",
"A. c gray65",
"S. c #A7A7A7",
"D. c gray66",
"F. c #A9A9A9",
"G. c #AAAAAA",
"H. c gray67",
"J. c #ACACAC",
"K. c gray68",
"L. c #AEAEAE",
"P. c #AFAFAF",
"I. c #B1B1B1",
"U. c #B2B2B2",
"Y. c gray70",
"T. c #B4B4B4",
"R. c gray71",
"E. c #B7B7B7",
"W. c gray72",
"Q. c #B9B9B9",
"!. c gray73",
"~. c #BBBBBB",
"^. c #BCBCBC",
"/. c gray",
"(. c gray75",
"). c #C0C0C0",
"_. c #C1C1C1",
"`. c gray76",
"'. c #C3C3C3",
"]. c gray77",
"[. c #C5C5C5",
"{. c #C6C6C6",
"}. c gray78",
"|. c #C8C8C8",
" X c gray79",
".X c #CACACA",
"XX c #CBCBCB",
"oX c gray80",
"OX c #CDCDCD",
"+X c #CECECE",
"@X c gray81",
"#X c #D0D0D0",
"$X c gray82",
"%X c #D2D2D2",
"&X c LightGray",
"*X c gray83",
"=X c #D5D5D5",
"-X c gray84",
";X c #D7D7D7",
":X c #D8D8D8",
">X c gray85",
",X c #DADADA",
"<X c gray86",
"1X c gainsboro",
"2X c #DDDDDD",
"3X c gray87",
"4X c #DFDFDF",
"5X c gray88",
"6X c #E1E1E1",
"7X c #E2E2E2",
"8X c #E4E4E4",
/* pixels */
"                                                                                                              ",
"                                                                                                              ",
"                                                                                                              ",
"                                                                                                              ",
"                                                                                                              ",
"                                                                                                              ",
"                                                                                                              ",
"                                                                                                              ",
"                                                                                                              ",
"                        =                                                                                     ",
"                    , _ -.j                                                                                   ",
"                    j _.-Xz.c               , 8 j B B G B B j a , =                                           ",
"                    a I.4X-Xx.c       8 I _ 3.d.x.P.P.I.P.P.N.z.3.o.G j =                                     ",
"                      c N.4X4XI.B     G I.4X4X4X5X5X5X5X5X5X5X4X4X-XOX!.x.-.c =                               ",
"                        c N.4X4XN.B   , _ _.OXI.x.r.3.<.3.r.x.P._.4X5X4X-XOXI.3.B =                           ",
"                          c N.4X-XN.B   , B G j a 8 , , , 8 a j B _ x._.4X4X4X-XI.3.j                         ",
"                      c =   c N.5X-XN.B             , , =         = 8 B <.I.4X4X4X-XP._ =                     ",
"                  8 3.I.-.=   c P.5X-XN.B     = I d.x.N.x.d.o.c =       , c -.I.4X4X4X_.3.8                   ",
"                c z.-X4X_.o.    G P.5X-XN.B   = I _.4X4X-X-XOXI.3.j         , c 3._.4X4X-Xx.c                 ",
"              I !.4X4X4XN.B       c N.4X4XI.G   = <.OX4X4X4X4X4X-XI.c           = B x.-X4X4X!.I               ",
"            G _.4X4X-Xr.8           c N.4X4XI.G   , -.OX4X4X4X4X4X4XP.j             8 3.-X4X4X_.I             ",
"          B _.4X4XOXo.=               c N.4X4XI.G   , -.OX4X4X4X4X4X4Xz.8             = -.OX4X4X_.G           ",
"        j !.4X4X_./ =                   c N.4X4XI.j   , -.OX4X4X4X4X4X-X_ =             = _ OX4X4X!.c         ",
"      , x.4X4X_./                 8 G =   c N.4X4Xz.j   , -.OX4X4X4X4X4XN.a               = _ OX4X4XN.8       ",
"      -.4X4X-X_ =               = I !.-.    c N.4X-Xz.j   , <.OX4X4X4X4XOXG                 = o.-X4X4X-.=     ",
"    a _.4X4Xr.=                 , <.4X_.o.    c N.4X-Xz.j   , <.OX4X4X4X4Xo.=                 = r.4X4X!.a     ",
"    r.4X4XI.8                   8 d.5X4XOX-.    j I.4X4Xx.c   , -.OX4X4X4X3.,                   8 I.4X4X<.    ",
"    OX4X4Xd.                    8 d.5X4X4XOX-.    I I.4X4Xx.c   , -.-X4X4Xr.8                     d.-X4XI.    ",
"    d.4X4XP.=                   8 d.5X4X4X4XOX-.=   I I.4X4Xx.c   , d.-X5Xr.8                   , P.4X4X3.    ",
"    j OX4X-Xo.                  , <.4X4X4X4X4XOX-.    I I.4X4Xx.c   8 z.4X-.,                   o.-X4XOXj     ",
"    = 3.4X4X_.c                 = I -X4X4X4X4X4XOXI     I I.4X4Xx.j   8 r.G =                 B _.4X5X3.=     ",
"      8 I.4X4XP.j                 j I.4X4X4X4X4X4XI.I     I I.4X4Xx.,   =                   j I.4X4XI.a       ",
"        j OX4X4XI.j               = o.4X4X4X4X4X4X4X!.I     G I.4X4Xr.8                   c !.4X4XOXc         ",
"          G -X4X4X!.B               a x.5X4X4X4X4X4X4X!.I     G I.4X4Xr.8               G !.4X4X-XI           ",
"            I -X4X4XOX/               c I.5X4X4X4X-X4X4X!.I     G I.4X4Xr.8           / OX4X4X-X/ =           ",
"              / OX4X4X-Xr.8             c P.5X4X4X-X-X-X4X!./     G OX4X4Xr.8     , 3.-X4X4XOX/ =             ",
"                B !.5X4X4X!.I             8 3.OX5X4X4X4X4X5X_./     o.OX4X4Xr.8   , z.-X5X_.G                 ",
"                  a x.4X4X4X4Xx.c             a -.N.!._.!.N.3.c       o.OX4X4Xr.8   , d.x.j                   ",
"                    = o._.4X4X4X-Xz.I ,             = = =               _ _.4X4Xr.8   =                       ",
"                        j d.OX4X4X4X4XI.3.G 8 =             = = 8 B a     o._.4X4Xr.8                         ",
"                            B z.OX4X4X4X5X4X_.N.d.-._ _ o.-.r.N._.4XP.c     o._.4X4Xr.8                       ",
"                                B r.!.-X4X4X4X4X5X5X5X5X5X5X5X5X4X4X5XN.j     o._.4X4Xr.=                     ",
"                                    8 I r.P._.-X-X4X4X4X4X4X4X-XOXI.r.I ,       o._.4X-Xj                     ",
"                                          = a B / -.<.3.<.-._ G a =               _ !.P.8                     ",
"                                                                                    8 ,                       ",
"                                                                                                              ",
"                                                                                                              ",
"                                                                                                              ",
"                                                                                                              ",
"                                                                                                              ",
"                                                                                                              ",
"                                                                                                              ",
"                                                                                                              ",
"                                                                                                              ",
"                                                                                                              "
};
