/* XPM */
static char *hide[] = {
/* columns rows colors chars-per-pixel */
"55 55 211 2 ",
"   c None",
".  c #1B1B1B",
"X  c #1D1D1D",
"o  c #1E1E1E",
"O  c gray12",
"+  c #202020",
"@  c gray13",
"#  c #222222",
"$  c #232323",
"%  c gray14",
"&  c #252525",
"*  c gray15",
"=  c #272727",
"-  c #282828",
";  c gray16",
":  c #2A2A2A",
">  c gray17",
",  c #2C2C2C",
"<  c #2D2D2D",
"1  c gray18",
"2  c #2F2F2F",
"3  c gray19",
"4  c #313131",
"5  c #323232",
"6  c gray20",
"7  c #343434",
"8  c #353535",
"9  c gray21",
"0  c #373737",
"q  c gray22",
"w  c #393939",
"e  c #3A3A3A",
"r  c gray23",
"t  c #3C3C3C",
"y  c gray24",
"u  c #3E3E3E",
"i  c #3F3F3F",
"p  c gray25",
"a  c #414141",
"s  c #434343",
"d  c #444444",
"f  c gray27",
"g  c #464646",
"h  c gray28",
"j  c #484848",
"k  c gray29",
"l  c #4B4B4B",
"z  c #4C4C4C",
"x  c gray30",
"c  c #4E4E4E",
"v  c #505050",
"b  c #515151",
"n  c gray32",
"m  c #535353",
"M  c gray33",
"N  c #555555",
"B  c #565656",
"V  c gray34",
"C  c #585858",
"Z  c gray35",
"A  c #5A5A5A",
"S  c gray36",
"D  c #5D5D5D",
"F  c gray37",
"G  c #5F5F5F",
"H  c #606060",
"J  c gray38",
"K  c #626262",
"L  c gray39",
"P  c #646464",
"I  c gray40",
"U  c #676767",
"Y  c #686868",
"T  c DimGray",
"R  c #6A6A6A",
"E  c #6D6D6D",
"W  c gray43",
"Q  c #6F6F6F",
"!  c gray44",
"~  c #727272",
"^  c gray45",
"/  c #747474",
"(  c gray46",
")  c #767676",
"_  c #777777",
"`  c gray47",
"'  c #797979",
"]  c gray48",
"[  c #7B7B7B",
"{  c #7C7C7C",
"}  c gray49",
"|  c #7E7E7E",
" . c gray50",
".. c #808080",
"X. c #818181",
"o. c #838383",
"O. c #848484",
"+. c gray52",
"@. c #868686",
"#. c gray53",
"$. c #888888",
"%. c #898989",
"&. c gray54",
"*. c #8B8B8B",
"=. c gray56",
"-. c #909090",
";. c gray57",
":. c #929292",
">. c #939393",
",. c gray58",
"<. c #959595",
"1. c gray59",
"2. c #979797",
"3. c #989898",
"4. c gray60",
"5. c #9A9A9A",
"6. c #9B9B9B",
"7. c gray61",
"8. c #9D9D9D",
"9. c gray62",
"0. c #9F9F9F",
"q. c #A0A0A0",
"w. c gray63",
"e. c #A2A2A2",
"r. c gray64",
"t. c #A4A4A4",
"y. c #A5A5A5",
"u. c gray65",
"i. c gray66",
"p. c #A9A9A9",
"a. c #AAAAAA",
"s. c #ACACAC",
"d. c gray68",
"f. c #AEAEAE",
"g. c #AFAFAF",
"h. c gray69",
"j. c #B1B1B1",
"k. c #B2B2B2",
"l. c #B4B4B4",
"z. c gray71",
"x. c #B6B6B6",
"c. c #B7B7B7",
"v. c gray72",
"b. c #B9B9B9",
"n. c gray73",
"m. c #BBBBBB",
"M. c #BCBCBC",
"N. c gray",
"B. c gray75",
"V. c #C0C0C0",
"C. c #C1C1C1",
"Z. c gray76",
"A. c #C3C3C3",
"S. c gray77",
"D. c #C5C5C5",
"F. c #C6C6C6",
"G. c gray78",
"H. c gray79",
"J. c #CACACA",
"K. c #CBCBCB",
"L. c gray80",
"P. c #CDCDCD",
"I. c #CECECE",
"U. c gray81",
"Y. c #D0D0D0",
"T. c gray82",
"R. c #D2D2D2",
"E. c LightGray",
"W. c gray83",
"Q. c #D5D5D5",
"!. c gray84",
"~. c #D7D7D7",
"^. c #D8D8D8",
"/. c gray85",
"(. c #DADADA",
"). c gray86",
"_. c gainsboro",
"`. c #DDDDDD",
"'. c gray87",
"]. c #DFDFDF",
"[. c gray88",
"{. c #E1E1E1",
"}. c #E2E2E2",
"|. c gray89",
" X c #E4E4E4",
".X c gray90",
"XX c #E6E6E6",
"oX c #E7E7E7",
"OX c gray91",
"+X c #E9E9E9",
"@X c #EAEAEA",
"#X c gray92",
"$X c #ECECEC",
"%X c gray93",
"&X c #EEEEEE",
"*X c #EFEFEF",
"=X c gray94",
"-X c #F1F1F1",
";X c gray95",
":X c #F3F3F3",
">X c #F4F4F4",
",X c gray96",
"<X c #F6F6F6",
"1X c gray97",
"2X c #F8F8F8",
"3X c #F9F9F9",
"4X c gray98",
"5X c #FBFBFB",
"6X c gray99",
"7X c #FDFDFD",
"8X c #FEFEFE",
/* pixels */
"                                                                                                              ",
"                                                                                                              ",
"                                                                                                              ",
"                                                                                                              ",
"                                                                                                              ",
"                                                                                                              ",
"                                                                                                              ",
"                                                                                                              ",
"                                                                                                              ",
"                      4X:X                                                                                    ",
"                    &Xu.;.E.                                                                                  ",
"                  4XE.u ; Y I.            4X&X.XE.F.F.N.F.F.E./.&X:X                                          ",
"                  4X/.c + ; U I.    4X.Xc.u.@.~ U v v c v v G Y @.6.N.E.:X4X                                  ",
"                    4XI.G + + c F.  4XN.c + + + O O O O O O O + + ; 5 g U ;.I.:X                              ",
"                      4XI.G + + G F.4X&Xu.u 5 c U ] @.%.@.] U v u + O + ; 5 c @.F.:X                          ",
"                        4XI.G + ; G F.4X&XF.N.E./..X&X&X&X.X/.E.F.u.U u + + + ; c @.E.4X                      ",
"                    4XI.:X4XI.G + ; G F.  4X4X    4X&X&X:X4X    4X:X.XF.%.c + + + ; v u.:X                    ",
"                4X.X%.c ;.:X4XI.v + ; G F.    :Xc.~ U G U ~ 6.I.:X    4X&XE.;.c + + + u @..X4X                ",
"              4XI.Y ; + u 6.4X4XN.v + ; G F.  :Xc.u + + ; ; 5 c @.E.4X    4X&XI.@.u + + ; U I.4X              ",
"            4Xc.g + + + G F.4X  4XI.G + + c N.  :X%.5 + + + + + ; c I.4X      4X:XF.U ; + + g c.4X            ",
"          4XN.u + + ; ] .X4X      4XI.G + + c N.  &X;.5 + + + + + + v E.4X        4X.X@.; + + u c.4X          ",
"        4XF.u + + 5 6.:X4X          4XI.G + + c N.4X&X;.5 + + + + + + Y .X          4X:X;.5 + + u N.4X        ",
"      4XE.g + + u a.:X                4XI.G + + c E.4X&X;.5 + + + + + ; u.:X            :Xu.5 + + g I.4X      ",
"      &XU + + u a.4X            4X.XN.:X4XI.G + + Y E.4X&X;.5 + + + + + G /.              :Xu.5 + + U .X      ",
"    4X;.+ + ; u.:X              4Xc.g ;.4X4XI.G + ; Y E.4X&X%.5 + + + + 5 N.4X              :X6.; + + ;.:X    ",
"    /.u + + ] :X                &X;.+ u 6.4X4XI.G + ; Y E.4X&X%.5 + + + + 6.:X                :X] ; + g E.4X  ",
"  4X] + + c .X                  .X~ O + 5 ;.4X4XE.c + + U I.4X&X;.5 + + + @.&X                  .Xc + + %.4X  ",
"  4X5 + + ~ 4X                  .X~ + + + 5 ;.4X4Xc.c + + U E.4X:X;.; + + ] .X                  4X~ ; + c 4X  ",
"  4X~ + + v :X                  .X~ O + + + 5 ;.:X4Xc.c + + U E.4X&X~ ; O ] .X                  &Xv + + @.4X  ",
"    E.5 + ; 6.                  &X%.+ + + + + 5 ;.4X4Xc.c + + U E.4X.X~ + ;.&X                  6.; + 5 E.4X  ",
"    :X@.+ + u I.                :Xc.; + + + + + 5 c.4X4Xc.c + + U E.4X.X] N.:X                F.u + O @.:X    ",
"    4X.Xc + + v E.              4XE.c + + + + + + c c.4X4Xc.c + + U &X4X:X4X                E.c + + c /.4X    ",
"      4XE.5 + + c E.              :X6.+ + + + + + + g c.4X4XN.c + + ] .X                  I.g + + 5 I.4X      ",
"        4XN.; + + g F.              /.U O + + + + + + g c.4X4XN.c + + ] .X              N.g + + ; c.4X        ",
"          4Xc.; + + 5 a.4X          4XI.c O + + + ; ; + g c.4X4XN.c + + ] .X        4Xa.5 + + ; a.:X          ",
"            4Xa.5 + + ; ] .X          4XI.v O + + ; ; ; + g c.4X4XN.5 + + ] .X    &X@.; + + 5 a.:X            ",
"              4XF.g O + + g c.4X        4X.X@.5 O + + + + O u a.4X4X6.5 + + ] .X  &XY ; O u N.4X              ",
"                4X/.U + + + + U I.4X        4X/.;.G g u g G %.I.4X  4X6.5 + + ] .X  &X~ U E.4X                ",
"                    :X6.u + + + 5 Y c.&X4X4X4X    4X:X:X:X4X    4X4X4X4Xu.u + + ] .X4X:X4X                    ",
"                      4XE.~ 5 + + + + c @.N..X:X4X4X4X4X4X4X4X:X.XF./.4X4Xu.u + + ] .X4X                      ",
"                          4XF.Y 5 + + + O + u G ~ ;.u.u.6.;.] G g ; v I.4X4X6.u + + ] .X                      ",
"                              4XF.] g ; + + + + O O O O O O O O + + O G E.4X4X6.u + + ] :X                    ",
"                                  4X.Xc.] v u ; ; + + + + + + ; 5 c ] c.&X4X  4X6.u + ; E.4X                  ",
"                                          :X/.F.a.;.%.@.%.;.u.N./.:X            4Xu.g v .X4X                  ",
"                                                                                  4X.X&X4X                    ",
"                                                                                                              ",
"                                                                                                              ",
"                                                                                                              ",
"                                                                                                              ",
"                                                                                                              ",
"                                                                                                              ",
"                                                                                                              ",
"                                                                                                              ",
"                                                                                                              ",
"                                                                                                              "
};
