/* XPM */
static char *home_dark[] = {
/* columns rows colors chars-per-pixel */
"55 55 139 2 ",
"   c black",
".  c #010101",
"X  c #020202",
"o  c gray1",
"O  c #040404",
"+  c gray2",
"@  c #060606",
"#  c #070707",
"$  c gray3",
"%  c #090909",
"&  c gray4",
"*  c #0B0B0B",
"=  c #0C0C0C",
"-  c #0E0E0E",
";  c gray6",
":  c #101010",
">  c #111111",
",  c gray7",
"<  c #131313",
"1  c gray8",
"2  c #151515",
"3  c #161616",
"4  c gray9",
"5  c #181818",
"6  c gray10",
"7  c gray12",
"8  c #202020",
"9  c #222222",
"0  c #232323",
"q  c gray14",
"w  c #252525",
"e  c gray15",
"r  c #2D2D2D",
"t  c gray18",
"y  c #2F2F2F",
"u  c gray19",
"i  c #313131",
"p  c #323232",
"a  c gray20",
"s  c #343434",
"d  c #353535",
"f  c #373737",
"g  c gray22",
"h  c #3F3F3F",
"j  c gray25",
"k  c #414141",
"l  c #494949",
"z  c gray29",
"x  c #4B4B4B",
"c  c #4E4E4E",
"v  c #565656",
"b  c gray34",
"n  c #585858",
"m  c #5A5A5A",
"M  c #5D5D5D",
"N  c gray37",
"B  c #5F5F5F",
"V  c #606060",
"C  c gray38",
"Z  c #626262",
"A  c #676767",
"S  c #6A6A6A",
"D  c #6C6C6C",
"F  c #6D6D6D",
"G  c #6F6F6F",
"H  c gray44",
"J  c #727272",
"K  c #767676",
"L  c #797979",
"P  c gray49",
"I  c #7E7E7E",
"U  c gray51",
"Y  c #838383",
"T  c gray52",
"R  c #868686",
"E  c #888888",
"W  c #898989",
"Q  c gray54",
"!  c #8E8E8E",
"~  c gray56",
"^  c gray57",
"/  c #929292",
"(  c gray59",
")  c #979797",
"_  c gray60",
"`  c #9B9B9B",
"'  c #9D9D9D",
"]  c gray62",
"[  c #A0A0A0",
"{  c gray63",
"}  c #A5A5A5",
"|  c gray65",
" . c #A7A7A7",
".. c gray66",
"X. c #AAAAAA",
"o. c gray68",
"O. c #AFAFAF",
"+. c gray69",
"@. c #B1B1B1",
"#. c gray70",
"$. c #B4B4B4",
"%. c gray71",
"&. c #B7B7B7",
"*. c #B9B9B9",
"=. c #BBBBBB",
"-. c #BCBCBC",
";. c gray74",
":. c gray",
">. c #C0C0C0",
",. c #C1C1C1",
"<. c gray76",
"1. c gray77",
"2. c #C5C5C5",
"3. c #C6C6C6",
"4. c #CACACA",
"5. c #CBCBCB",
"6. c gray80",
"7. c #CDCDCD",
"8. c #CECECE",
"9. c #D0D0D0",
"0. c gray82",
"q. c #D2D2D2",
"w. c LightGray",
"e. c gray83",
"r. c #D5D5D5",
"t. c #D7D7D7",
"y. c #D8D8D8",
"u. c gray85",
"i. c #DADADA",
"p. c gray86",
"a. c gainsboro",
"s. c #DDDDDD",
"d. c gray87",
"f. c #DFDFDF",
"g. c gray88",
"h. c #E1E1E1",
"j. c #E2E2E2",
"k. c gray89",
"l. c #E4E4E4",
/* pixels */
"                                                                                                              ",
"                                                                                                              ",
"                                                                                                              ",
"                                                                                                              ",
"                                                                                                              ",
"                                                                                                              ",
"                                                                                                              ",
"                                                                                                              ",
"                                                                                                              ",
"                                                                                                              ",
"                                                                                                              ",
"                                                    5 r <                                                     ",
"                                                * D :.8.#.n                                                   ",
"                                              < U 8.s.j.s.3.D *                                               ",
"                                            e ) w.j.o.H :.j.8.U <           < < *                             ",
"                                          h o.w.j.' r < h #.j.w.) e       n { { L                             ",
"                                        x #.s.s.W e       r ' j.w.{ d     ' s.s.3.<                           ",
"                                      V 3.s.w.H 5           e W s.s.#.x   { j.s.8.<                           ",
"                                  * H 8.j.8.n <               5 H w.s.3.n { s.s.8.<                           ",
"                                e ' s.j.#.d                     * x 3.j.w.w.s.s.8.<                           ",
"                              d #.s.j.{ e                           d #.j.s.s.s.8.<                           ",
"                            x :.s.j.W <                               e { j.s.s.8.<                           ",
"                          V 8.s.s.D *                                   < W s.s.w.x                           ",
"                      * L w.s.s.V *                                       * U s.s.8.V                         ",
"                    < ) w.s.s.s.d                                           n j.s.s.w.L *                     ",
"                  e { s.s.3.s.s.d                                           b j.w.3.j.w.W <                   ",
"                  ' j.j.) x w.s.d                                           b j.8.j o.j.j.x                   ",
"                  j { D * d s.s.d                                           b j.8.< < U ' 5                   ",
"                    *     d s.s.d                                           b j.8.<     *                     ",
"                          d s.s.d                                           b j.8.<                           ",
"                          d s.s.d               < < < < < < <               n j.8.<                           ",
"                          d s.s.d             U 3.:.:.:.:.:.3.D             b j.8.<                           ",
"                          d s.s.d           * 3.s.s.s.s.s.s.j.o.            b j.8.<                           ",
"                          d s.s.d           * 3.s.s.s.s.s.s.j.o.            b j.8.<                           ",
"                          d s.s.d           * 3.s.s.s.s.s.s.s.{             b j.8.<                           ",
"                          d s.s.d           * 3.s.s.s.s.s.s.j.{             b j.8.<                           ",
"                          d s.s.d           < 3.s.s.s.s.s.s.s.{             b j.8.<                           ",
"                          d s.s.d           * 3.s.s.s.s.s.s.s.{             b j.8.<                           ",
"                          d s.s.d           < 3.s.s.s.s.w.w.s.{             b j.8.<                           ",
"                          d s.s.d           * 3.s.s.s.s.w.w.s.{             b j.8.<                           ",
"                          d s.j.D *         < 3.s.s.s.s.s.s.s.o.          * W j.8.<                           ",
"                          < 8.s.s.:.#.#.#.#.:.w.s.s.s.s.s.s.s.w.#.#.#.#.#.:.s.j.o.                            ",
"                            n w.s.s.s.s.s.s.s.s.s.s.s.s.s.s.s.s.s.s.s.s.s.s.s.8.j                             ",
"                              d W { { { { { { { { { { { { { { { { { { { { { L e                               ",
"                                                                                                              ",
"                                                                                                              ",
"                                                                                                              ",
"                                                                                                              ",
"                                                                                                              ",
"                                                                                                              ",
"                                                                                                              ",
"                                                                                                              ",
"                                                                                                              ",
"                                                                                                              ",
"                                                                                                              "
};
