/* XPM */
static char *home[] = {
/* columns rows colors chars-per-pixel */
"55 55 139 2 ",
"   c None",
".  c #1B1B1B",
"X  c gray11",
"o  c #1D1D1D",
"O  c #1E1E1E",
"+  c gray12",
"@  c #202020",
"#  c gray13",
"$  c #222222",
"%  c #232323",
"&  c gray14",
"*  c #252525",
"=  c gray15",
"-  c #272727",
";  c #282828",
":  c #2A2A2A",
">  c gray17",
",  c #2C2C2C",
"<  c #2D2D2D",
"1  c gray18",
"2  c #2F2F2F",
"3  c #313131",
"4  c #323232",
"5  c gray20",
"6  c #343434",
"7  c #353535",
"8  c #393939",
"9  c #3A3A3A",
"0  c gray23",
"q  c gray24",
"w  c #3E3E3E",
"e  c #3F3F3F",
"r  c #414141",
"t  c gray26",
"y  c #434343",
"u  c #444444",
"i  c #464646",
"p  c #484848",
"a  c gray29",
"s  c #4B4B4B",
"d  c #4C4C4C",
"f  c #4E4E4E",
"g  c gray31",
"h  c #505050",
"j  c gray32",
"k  c #555555",
"l  c gray34",
"z  c #585858",
"x  c gray35",
"c  c #5A5A5A",
"v  c gray37",
"b  c #5F5F5F",
"n  c gray38",
"m  c #626262",
"M  c #646464",
"N  c gray40",
"B  c #686868",
"V  c DimGray",
"C  c #6D6D6D",
"Z  c gray43",
"A  c gray44",
"S  c #717171",
"D  c gray46",
"F  c #767676",
"G  c #777777",
"H  c #797979",
"J  c gray48",
"K  c #7C7C7C",
"L  c gray49",
"P  c #818181",
"I  c gray51",
"U  c #868686",
"Y  c #898989",
"T  c #8D8D8D",
"R  c gray56",
"E  c #909090",
"W  c #929292",
"Q  c #939393",
"!  c #959595",
"~  c #989898",
"^  c #9D9D9D",
"/  c gray62",
"(  c #9F9F9F",
")  c #A0A0A0",
"_  c gray63",
"`  c #A2A2A2",
"'  c #A5A5A5",
"]  c #A7A7A7",
"[  c gray66",
"{  c #A9A9A9",
"}  c #B1B1B1",
"|  c #B4B4B4",
" . c gray71",
".. c #B6B6B6",
"X. c gray",
"o. c gray75",
"O. c #C0C0C0",
"+. c gray78",
"@. c #C8C8C8",
"#. c #CACACA",
"$. c #CBCBCB",
"%. c gray80",
"&. c #CDCDCD",
"*. c #CECECE",
"=. c gray81",
"-. c #D0D0D0",
";. c gray82",
":. c #D2D2D2",
">. c gray85",
",. c #DADADA",
"<. c gray86",
"1. c gainsboro",
"2. c #DDDDDD",
"3. c #DFDFDF",
"4. c gray88",
"5. c gray90",
"6. c #E7E7E7",
"7. c gray91",
"8. c #E9E9E9",
"9. c #EAEAEA",
"0. c gray92",
"q. c #ECECEC",
"w. c gray93",
"e. c #EEEEEE",
"r. c #EFEFEF",
"t. c gray94",
"y. c #F1F1F1",
"u. c #F3F3F3",
"i. c #F4F4F4",
"p. c gray96",
"a. c #F6F6F6",
"s. c gray97",
"d. c #F8F8F8",
"f. c #F9F9F9",
"g. c gray98",
"h. c #FBFBFB",
"j. c gray99",
"k. c #FDFDFD",
"l. c #FEFEFE",
/* pixels */
"                                                                                                              ",
"                                                                                                              ",
"                                                                                                              ",
"                                                                                                              ",
"                                                                                                              ",
"                                                                                                              ",
"                                                                                                              ",
"                                                                                                              ",
"                                                                                                              ",
"                                                                                                              ",
"                                                                                                              ",
"                                                  l.6.:.q.                                                    ",
"                                                i.Q r 3 d ] l.                                                ",
"                                              q.L 3 $ o $ 8 Q i.                                              ",
"                                            >.B , o j R r o 3 L q.        l.q.q.i.                            ",
"                                          O.j , o m :.q.O.d o , B >.      ] v v U l.                          ",
"                                        | d $ $ F >.l.  l.:.m o , v #.    m $ $ 8 q.                          ",
"                                    l.( 8 $ , R 6.        l.>.F $ $ d |   v o $ 3 q.                          ",
"                                  i.R 3 o 3 ] q.              6.R , $ 8 ] v $ $ 3 q.                          ",
"                                >.m $ o d #.l.                  i.| 8 o , , $ $ 3 q.                          ",
"                              #.d $ o v >.l.                      l.#.d o $ $ $ 3 q.                          ",
"                            | r $ o F q.l.                          l.>.v o $ $ 3 q.                          ",
"                        l.( 3 $ $ Q i.                                l.q.F $ $ , |                           ",
"                      i.U , $ $ ( i.                                      i.L $ $ 3 ( l.                      ",
"                    q.B , $ $ $ #.                                          ] o $ $ , U i.                    ",
"                  >.v $ $ 8 $ $ #.                                          [ o , 8 o , F q.                  ",
"                  m o o B | , $ #.                                          [ o 3 o.j o o |                   ",
"                  o.v Q i.#.$ $ #.                                          [ o 3 q.q.L m 6.                  ",
"                  l.i.l.  #.$ $ #.                                          [ o 3 q.  l.i.l.                  ",
"                          #.$ $ #.                                          [ o 3 q.                          ",
"                          #.$ $ #.            l.q.q.q.q.q.q.q.              [ o 3 q.                          ",
"                          #.$ $ #.          l.L 8 r r r r r 8 Q             [ o 3 q.                          ",
"                          #.$ $ #.          i.8 $ $ $ $ $ $ o j             [ o 3 q.                          ",
"                          #.$ $ #.          i.8 $ $ $ $ $ $ o j             [ o 3 q.                          ",
"                          #.$ $ #.          i.8 $ $ $ $ $ $ $ v             [ o 3 q.                          ",
"                          #.$ $ #.          i.8 $ $ $ $ $ $ o v             [ o 3 q.                          ",
"                          #.$ $ #.          i.8 $ $ $ $ $ $ $ v             [ o 3 q.                          ",
"                          #.$ $ #.          i.8 $ $ $ $ $ $ $ v             [ o 3 q.                          ",
"                          #.$ $ #.          q.8 $ $ $ $ , , $ v             [ o 3 q.                          ",
"                          #.$ $ #.          i.8 $ $ $ $ , , $ v             [ o 3 q.                          ",
"                          #.$ o Q i.l.l.l.l.q.8 $ $ $ $ $ $ $ j l.l.l.l.l.i.F o 3 q.                          ",
"                          q.3 $ $ r d d d d r , $ $ $ $ $ $ $ , d d d d d r $ o j l.                          ",
"                            ] , $ $ $ $ $ $ $ $ $ $ $ $ $ $ $ $ $ $ $ $ $ $ $ 3 o.                            ",
"                              #.F v v v v v v v v v v v v v v v v v v v v v U >.                              ",
"                                                                                                              ",
"                                                                                                              ",
"                                                                                                              ",
"                                                                                                              ",
"                                                                                                              ",
"                                                                                                              ",
"                                                                                                              ",
"                                                                                                              ",
"                                                                                                              ",
"                                                                                                              ",
"                                                                                                              "
};
