/* XPM */
static char *index[] = {
/* columns rows colors chars-per-pixel */
"55 55 189 2 ",
"   c gray11",
".  c #1D1D1D",
"X  c #1E1E1E",
"o  c gray12",
"O  c #202020",
"+  c gray13",
"@  c #222222",
"#  c #232323",
"$  c gray14",
"%  c #252525",
"&  c gray15",
"*  c #272727",
"=  c #282828",
"-  c gray16",
";  c #2A2A2A",
":  c gray17",
">  c #2C2C2C",
",  c #2D2D2D",
"<  c gray18",
"1  c #2F2F2F",
"2  c gray19",
"3  c #313131",
"4  c #323232",
"5  c gray20",
"6  c #343434",
"7  c #353535",
"8  c gray21",
"9  c #373737",
"0  c gray22",
"q  c #393939",
"w  c #3A3A3A",
"e  c gray23",
"r  c #3C3C3C",
"t  c gray24",
"y  c #3E3E3E",
"u  c #3F3F3F",
"i  c gray25",
"p  c #414141",
"a  c gray26",
"s  c #434343",
"d  c #444444",
"f  c gray27",
"g  c #464646",
"h  c gray28",
"j  c #484848",
"k  c #494949",
"l  c gray29",
"z  c #4B4B4B",
"x  c #4C4C4C",
"c  c gray30",
"v  c #4E4E4E",
"b  c gray31",
"n  c #505050",
"m  c #515151",
"M  c gray32",
"N  c #535353",
"B  c #555555",
"V  c gray34",
"C  c #585858",
"Z  c gray35",
"A  c #5A5A5A",
"S  c #5B5B5B",
"D  c gray36",
"F  c gray37",
"G  c #5F5F5F",
"H  c #606060",
"J  c gray38",
"K  c #626262",
"L  c gray39",
"P  c #646464",
"I  c #656565",
"U  c gray40",
"Y  c #686868",
"T  c DimGray",
"R  c #6A6A6A",
"E  c gray42",
"W  c #6C6C6C",
"Q  c gray43",
"!  c gray44",
"~  c #717171",
"^  c #727272",
"/  c gray45",
"(  c #747474",
")  c #767676",
"_  c gray47",
"`  c #797979",
"'  c #7B7B7B",
"]  c #7C7C7C",
"[  c gray49",
"{  c #7E7E7E",
"}  c gray50",
"|  c #818181",
" . c gray52",
".. c #868686",
"X. c gray53",
"o. c #888888",
"O. c #898989",
"+. c gray54",
"@. c #8B8B8B",
"#. c gray55",
"$. c #8D8D8D",
"%. c #8E8E8E",
"&. c #909090",
"*. c gray57",
"=. c #929292",
"-. c gray58",
";. c #959595",
":. c #989898",
">. c gray60",
",. c #9A9A9A",
"<. c #9D9D9D",
"1. c gray62",
"2. c #9F9F9F",
"3. c #A0A0A0",
"4. c gray63",
"5. c #A2A2A2",
"6. c gray64",
"7. c #A4A4A4",
"8. c #A7A7A7",
"9. c gray66",
"0. c gray67",
"q. c #ACACAC",
"w. c #AEAEAE",
"e. c #AFAFAF",
"r. c gray69",
"t. c #B1B1B1",
"y. c #B2B2B2",
"u. c #B4B4B4",
"i. c gray71",
"p. c #B6B6B6",
"a. c #B7B7B7",
"s. c gray73",
"d. c gray74",
"f. c gray",
"g. c gray75",
"h. c #C0C0C0",
"j. c #C1C1C1",
"k. c gray76",
"l. c #C3C3C3",
"z. c gray77",
"x. c #C5C5C5",
"c. c #C8C8C8",
"v. c #CACACA",
"b. c #CBCBCB",
"n. c #CDCDCD",
"m. c #D0D0D0",
"M. c gray82",
"N. c #D2D2D2",
"B. c LightGray",
"V. c #D5D5D5",
"C. c gray84",
"Z. c #D7D7D7",
"A. c #D8D8D8",
"S. c gray85",
"D. c #DADADA",
"F. c gainsboro",
"G. c #DDDDDD",
"H. c gray87",
"J. c #DFDFDF",
"K. c gray88",
"L. c #E2E2E2",
"P. c gray89",
"I. c gray90",
"U. c #E6E6E6",
"Y. c #E7E7E7",
"T. c gray91",
"R. c #E9E9E9",
"E. c #EAEAEA",
"W. c gray92",
"Q. c #ECECEC",
"!. c gray93",
"~. c #EEEEEE",
"^. c #EFEFEF",
"/. c gray94",
"(. c #F1F1F1",
"). c gray95",
"_. c #F3F3F3",
"`. c #F4F4F4",
"'. c gray96",
"]. c #F6F6F6",
"[. c gray97",
"{. c #F8F8F8",
"}. c #F9F9F9",
"|. c gray98",
" X c #FBFBFB",
".X c gray99",
"XX c #FDFDFD",
"oX c #FEFEFE",
"OX c white",
/* pixels */
"OXOXOXOXOXOXOXOXOXOXOXOXOXOXOXOXOXOXOXOXOXOXOXOXOXOXOXOXOXOXOXOXOXOXOXOXOXOXOXOXOXOXOXOXOXOXOXOXOXOXOXOXOXOXOX",
"OXOXOXOXOXOXOXOXOXOXOXOXOXOXOXOXOXOXOXOXOXOXOXOXOXOXOXOXOXOXOXOXOXOXOXOXOXOXOXOXOXOXOXOXOXOXOXOXOXOXOXOXOXOXOX",
"OXOXOXOXOXOXOXOXOXOXOXOXOXOXOXOXOXOXOXOXOXOXOXOXOXOXOXOXOXOXOXOXOXOXOXOXOXOXOXOXOXOXOXOXOXOXOXOXOXOXOXOXOXOXOX",
"OXOXOXOXOXOXOXOXOXOXOXOXOXOXOXOXOXOXOXOXOXOXOXOXOXOXOXOXOXOXOXOXOXOXOXOXOXOXOXOXOXOXOXOXOXOXOXOXOXOXOXOXOXOXOX",
"OXOXOXOXOXOXOXOXOXOXOXOXOXOXOXOXOXOXOXOXOXOXOXOXOXOXOXOXOXOXOXOXOXOXOXOXOXOXOXOXOXOXOXOXOXOXOXOXOXOXOXOXOXOXOX",
"OXOXOXOXOXOXOXOXOXOXOXOXOXOXOXOXOXOXOXOXOXOXOXOXOXOXOXOXOXOXOXOXOXOXOXOXOXOXOXOXOXOXOXOXOXOXOXOXOXOXOXOXOXOXOX",
"OXOXOXOXOXOXOXOXOXOXOXOXOXOXOXOXOXOXOXOXOXOXOXOXOXOXOXOXOXOXOXOX(.Y.s.2.@.@.e.W.OXOXOXOXOXOXOXOXOXOXOXOXOXOXOX",
"OXOXOXOXOXOXOXOXOXOXOXOXOXOXOXOXOXOXOXOXOXOXOXOXOXOXOX(.S.s.@.Y x 2 &         u i.OXOXOXOXOXOXOXOXOXOXOXOXOXOX",
"OXOXOXOXOXOXOXOXOXOXOXOXOXOXOXOXOXOXOXOXOXOXY.c.8.[ D u ; &       &         & & ; l.OXOXOXOXOXOXOXOXOXOXOXOXOX",
"OXOXOXOXOXOXOXOXOXOXOXOXOXOXOXOXW.V.i.-.Y x 2 &         &   & & ; p I | 8.-.x &   ) W.OXOXOXOXOXOXOXOXOXOXOXOX",
"OXOXOXOXOXOXOXOXOXOXOXOXOXOXS.I u ; &     & & & & ; 2 p D ) 8.l.S.(.OXOXOXOXl.2 & x Y.OXOXOXOXOXOXOXOXOXOXOXOX",
"OXOXOXOXOXOXOXOXOXOXOXOXOXW.p   & & & & & & & & & p | s.Y.OXOXOXOXOXOXOXOXOXW.p & u S.OXOXOXOXOXOXOXOXOXOXOXOX",
"OXOXOXOXOXOXOXOXOXOXOXOXOX| & & & 2 2 ; & & & & & & & ; 2 x ) -.s.V.W.(.(.OXW.p & u S.OXOXOXOXOXOXOXOXOXOXOXOX",
"OXOXOXOXOXOXOXOXOXOXOXOXOX2 & & Y S.V.i.@.Y x u ; & & & & &     & ; x I | e.i.p & u S.OXOXOXOXOXOXOXOXOXOXOXOX",
"OXOXOXOXOXOXOXOXOXOXOXOXOX& & & i.OXOXOXOXOX(.Y.l.2.[ D p 2 & & & & & &     ; ; & u S.OXOXOXOXOXOXOXOXOXOXOXOX",
"OXOXOXOXOXOXOXOXOXOXOXOXOX& & & i.OXOXOXOXOXOXOXOXOXOXOXW.V.e.@.Y N 2 ; & & & & & ; i.OXOXOXOXOXOXOXOXOXOXOXOX",
"OXOXOXOXOXOXOXOXOXOXOXOXOX& & & i.OXOXOXOXOXOXOXOXOXOXOXOXOXOXOXOX(.S.s.2.[ N ; & & p S.OXOXOXOXOXOXOXOXOXOXOX",
"OXOXOXOXOXOXOXOXOXOXOXOXOX& & & i.OXOXOXOXOXOXOXOXOXOXOXOXOXOXOXOXOXOXOXOXOX(.e.u & & 2.OXOXOXOXOXOXOXOXOXOXOX",
"OXOXOXOXOXOXOXOXOXOXOXOXOX& & & i.OXOXOXW.S.W.(.(.OXOXOXOXOXOXOXOXOXOXOXOXOXOXOX@.; & N OXOXOXOXOXOXOXOXOXOXOX",
"OXOXOXOXOXOXOXOXOXOXOXOXOX& & & i.OXOX(.) u N ) -.i.c.Y.W.(.(.OXOXOXOXOXOXOXOXOXe.; & 2 OXOXOXOXOXOXOXOXOXOXOX",
"OXOXOXOXOXOXOXOXOXOXOXOXOX& & & i.OXOX(.D & &   & & 2 p D [ 8.l.S.W.(.(.OXOXOXOXe.; & 2 OXOXOXOXOXOXOXOXOXOXOX",
"OXOXOXOXOXOXOXOXOXOXOXOXOX& & & i.OXOXOXV.2.[ I x u ; & &   & ; u N ) e.W.OXOXOXe.; & 2 OXOXOXOXOXOXOXOXOXOXOX",
"OXOXOXOXOXOXOXOXOXOXOXOXOX& & & i.OXOXOXOXOXOXOXW.V.i.-.) N u 2 ; &   2 l.OXOXOXi.; & 2 OXOXOXOXOXOXOXOXOXOXOX",
"OXOXOXOXOXOXOXOXOXOXOXOXOX& & & i.OXOXOXOXOXOXOXOXOXOXOXOX(.S.s.2.[ D ) S.OXOXOXe.; & 2 OXOXOXOXOXOXOXOXOXOXOX",
"OXOXOXOXOXOXOXOXOXOXOXOXOX& & & i.OXOXOXOXOXOXOXOXOXOXOXOXOXOXOXOXOX(.OXOXOXOXOXe.; & 2 OXOXOXOXOXOXOXOXOXOXOX",
"OXOXOXOXOXOXOXOXOXOXOXOXOX& & & i.OXOXOXW.S.Y.(.(.OXOXOXOXOXOXOXOXOXOXOXOXOXOXOXe.; & 2 OXOXOXOXOXOXOXOXOXOXOX",
"OXOXOXOXOXOXOXOXOXOXOXOXOX& & & i.OXOXOX-.I [ 2.i.c.S.Y.W.(.OXOXOXOXOXOXOXOXOXOXi.; & 2 OXOXOXOXOXOXOXOXOXOXOX",
"OXOXOXOXOXOXOXOXOXOXOXOXOX& & & i.OXOX(.N & & & ; u N Y @.8.l.V.S.Y.(.OXOXOXOXOXi.; & 2 OXOXOXOXOXOXOXOXOXOXOX",
"OXOXOXOXOXOXOXOXOXOXOXOXOX& & & i.OXOXOXi.[ I N p 2 ; & & & 2 p D [ 2.l.(.OXOXOXi.; & 2 OXOXOXOXOXOXOXOXOXOXOX",
"OXOXOXOXOXOXOXOXOXOXOXOXOX& & & i.OXOXOXOXOXW.S.l.8.@.) D x u ; & & & x c.OXOXOXi.; & 2 OXOXOXOXOXOXOXOXOXOXOX",
"OXOXOXOXOXOXOXOXOXOXOXOXOX& & & i.OXOXOXOXOXOXOXOXOXOX(.Y.V.e.-.[ I x I V.OXOXOXi.; & 2 OXOXOXOXOXOXOXOXOXOXOX",
"OXOXOXOXOXOXOXOXOXOXOXOXOX& & & i.OXOXOXOXOXOXOXOXOXOXOXOXOXOXOXOXW.V.S.OXOXOXOXi.; & 2 OXOXOXOXOXOXOXOXOXOXOX",
"OXOXOXOXOXOXOXOXOXOXOXOXOX& & & i.OXOXOXOXOXOXOXOXOXOXOXOXOXOXOXOXOXOXOXOXOXOXOXi.; & 2 OXOXOXOXOXOXOXOXOXOXOX",
"OXOXOXOXOXOXOXOXOXOXOXOXOX& & & i.OXOXOXOXOXOXOXOXOXOXOXOXOXOXOXOXOXOXOXOXOXOXOXi.; & 2 OXOXOXOXOXOXOXOXOXOXOX",
"OXOXOXOXOXOXOXOXOXOXOXOXOX& & & i.OXOXOXOXOXOXOXOXOXOXOXOXOXOXOXOXOXOXOXOXOXOXOXi.; & 2 OXOXOXOXOXOXOXOXOXOXOX",
"OXOXOXOXOXOXOXOXOXOXOXOXOX& & & i.OXOXOXOXOXOXOXOXOXOXOXOXOXOXOXOXOXOXOXOXOXOXOXi.; & 2 OXOXOXOXOXOXOXOXOXOXOX",
"OXOXOXOXOXOXOXOXOXOXOXOXOX& & & i.OXOXOXOXOXOXOXOXOXOXOXOXOXOXOXOXOXOXOXOXOXOXOXi.; & 2 OXOXOXOXOXOXOXOXOXOXOX",
"OXOXOXOXOXOXOXOXOXOXOXOXOX& & & i.OXOXOXOXOXOXOXOXOXOXOXOXOXOXOXOXOXOXOXOXOXOXOXi.; & 2 OXOXOXOXOXOXOXOXOXOXOX",
"OXOXOXOXOXOXOXOXOXOXOXOXOX& & & i.OXOXOXOXOXOXOXOXOXOXOXOXOXOXOXOXOXOXOXOXOXOXOXe.; & 2 OXOXOXOXOXOXOXOXOXOXOX",
"OXOXOXOXOXOXOXOXOXOXOXOXOX& & & e.OXOXOXOXOXOXOXOXOXOXOXOXOXOXOXOXOXOXOXOXOXOXOXi.; & 2 OXOXOXOXOXOXOXOXOXOXOX",
"OXOXOXOXOXOXOXOXOXOXOXOXOXx & & I c.Y.(.OXOXOXOXOXOXOXOXOXOXOXOXOXOXOXOXOXOXOXOXi.; & 2 OXOXOXOXOXOXOXOXOXOXOX",
"OXOXOXOXOXOXOXOXOXOXOXOXOX8.& & ; p D Y @.8.l.S.W.OXOXOXOXOXOXOXOXOXOXOXOXOXOXOXi.; & 2 OXOXOXOXOXOXOXOXOXOXOX",
"OXOXOXOXOXOXOXOXOXOXOXOXOXW.) &   & & ; 2 u p N I [ -.i.c.Y.(.OXOXOXOXOXOXOXOXOX8.; & u OXOXOXOXOXOXOXOXOXOXOX",
"OXOXOXOXOXOXOXOXOXOXOXOXOXOXY.2.I p 2 &     & & & ; 2 u p D ) @.8.l.S.(.OXOXOXW.Y & & I OXOXOXOXOXOXOXOXOXOXOX",
"OXOXOXOXOXOXOXOXOXOXOXOXOXOXOXW.S.V.s.8.| Y N u ; &     & & ; 2 2 p N Y | 2.2.) 2 & & 8.OXOXOXOXOXOXOXOXOXOXOX",
"OXOXOXOXOXOXOXOXOXOXOXOXOXOXOXOXOXOXOXOX(.(.W.S.c.e.@.Y x 2 &       & & & ; ; & &   N Y.OXOXOXOXOXOXOXOXOXOXOX",
"OXOXOXOXOXOXOXOXOXOXOXOXOXOXOXOXOXOXOXOXOXOXOXOXOXOX(.W.W.V.i.2.[ D u ; & & & & & p s.OXOXOXOXOXOXOXOXOXOXOXOX",
"OXOXOXOXOXOXOXOXOXOXOXOXOXOXOXOXOXOXOXOXOXOXOXOXOXOXOXOXOXOXOX(.(.W.S.l.8.I 2 2 | V.OXOXOXOXOXOXOXOXOXOXOXOXOX",
"OXOXOXOXOXOXOXOXOXOXOXOXOXOXOXOXOXOXOXOXOXOXOXOXOXOXOXOXOXOXOXOXOXOXOXOXOX(.(.(.OXOXOXOXOXOXOXOXOXOXOXOXOXOXOX",
"OXOXOXOXOXOXOXOXOXOXOXOXOXOXOXOXOXOXOXOXOXOXOXOXOXOXOXOXOXOXOXOXOXOXOXOXOXOXOXOXOXOXOXOXOXOXOXOXOXOXOXOXOXOXOX",
"OXOXOXOXOXOXOXOXOXOXOXOXOXOXOXOXOXOXOXOXOXOXOXOXOXOXOXOXOXOXOXOXOXOXOXOXOXOXOXOXOXOXOXOXOXOXOXOXOXOXOXOXOXOXOX",
"OXOXOXOXOXOXOXOXOXOXOXOXOXOXOXOXOXOXOXOXOXOXOXOXOXOXOXOXOXOXOXOXOXOXOXOXOXOXOXOXOXOXOXOXOXOXOXOXOXOXOXOXOXOXOX",
"OXOXOXOXOXOXOXOXOXOXOXOXOXOXOXOXOXOXOXOXOXOXOXOXOXOXOXOXOXOXOXOXOXOXOXOXOXOXOXOXOXOXOXOXOXOXOXOXOXOXOXOXOXOXOX",
"OXOXOXOXOXOXOXOXOXOXOXOXOXOXOXOXOXOXOXOXOXOXOXOXOXOXOXOXOXOXOXOXOXOXOXOXOXOXOXOXOXOXOXOXOXOXOXOXOXOXOXOXOXOXOX",
"OXOXOXOXOXOXOXOXOXOXOXOXOXOXOXOXOXOXOXOXOXOXOXOXOXOXOXOXOXOXOXOXOXOXOXOXOXOXOXOXOXOXOXOXOXOXOXOXOXOXOXOXOXOXOX"
};
