/* XPM */
static char *index[] = {
/* columns rows colors chars-per-pixel */
"55 55 189 2 ",
"   c None",
".  c gray11",
"X  c #1D1D1D",
"o  c #1E1E1E",
"O  c gray12",
"+  c #202020",
"@  c gray13",
"#  c #222222",
"$  c #232323",
"%  c gray14",
"&  c #252525",
"*  c gray15",
"=  c #272727",
"-  c #282828",
";  c gray16",
":  c #2A2A2A",
">  c gray17",
",  c #2C2C2C",
"<  c #2D2D2D",
"1  c gray18",
"2  c #2F2F2F",
"3  c gray19",
"4  c #313131",
"5  c #323232",
"6  c gray20",
"7  c #343434",
"8  c #353535",
"9  c gray21",
"0  c #373737",
"q  c gray22",
"w  c #393939",
"e  c #3A3A3A",
"r  c gray23",
"t  c #3C3C3C",
"y  c gray24",
"u  c #3E3E3E",
"i  c #3F3F3F",
"p  c gray25",
"a  c #414141",
"s  c gray26",
"d  c #434343",
"f  c #444444",
"g  c gray27",
"h  c #464646",
"j  c gray28",
"k  c #484848",
"l  c #494949",
"z  c gray29",
"x  c #4B4B4B",
"c  c #4C4C4C",
"v  c gray30",
"b  c #4E4E4E",
"n  c gray31",
"m  c #505050",
"M  c #515151",
"N  c gray32",
"B  c #535353",
"V  c #555555",
"C  c gray34",
"Z  c #585858",
"A  c gray35",
"S  c #5A5A5A",
"D  c #5B5B5B",
"F  c gray36",
"G  c gray37",
"H  c #5F5F5F",
"J  c #606060",
"K  c gray38",
"L  c #626262",
"P  c gray39",
"I  c #646464",
"U  c #656565",
"Y  c gray40",
"T  c #686868",
"R  c DimGray",
"E  c #6A6A6A",
"W  c gray42",
"Q  c #6C6C6C",
"!  c gray43",
"~  c gray44",
"^  c #717171",
"/  c #727272",
"(  c gray45",
")  c #747474",
"_  c #767676",
"`  c gray47",
"'  c #797979",
"]  c #7B7B7B",
"[  c #7C7C7C",
"{  c gray49",
"}  c #7E7E7E",
"|  c gray50",
" . c #818181",
".. c gray52",
"X. c #868686",
"o. c gray53",
"O. c #888888",
"+. c #898989",
"@. c gray54",
"#. c #8B8B8B",
"$. c gray55",
"%. c #8D8D8D",
"&. c #8E8E8E",
"*. c #909090",
"=. c gray57",
"-. c #929292",
";. c gray58",
":. c #959595",
">. c #989898",
",. c gray60",
"<. c #9A9A9A",
"1. c #9D9D9D",
"2. c gray62",
"3. c #9F9F9F",
"4. c #A0A0A0",
"5. c gray63",
"6. c #A2A2A2",
"7. c gray64",
"8. c #A4A4A4",
"9. c #A7A7A7",
"0. c gray66",
"q. c gray67",
"w. c #ACACAC",
"e. c #AEAEAE",
"r. c #AFAFAF",
"t. c gray69",
"y. c #B1B1B1",
"u. c #B2B2B2",
"i. c #B4B4B4",
"p. c gray71",
"a. c #B6B6B6",
"s. c #B7B7B7",
"d. c gray73",
"f. c gray74",
"g. c gray",
"h. c gray75",
"j. c #C0C0C0",
"k. c #C1C1C1",
"l. c gray76",
"z. c #C3C3C3",
"x. c gray77",
"c. c #C5C5C5",
"v. c #C8C8C8",
"b. c #CACACA",
"n. c #CBCBCB",
"m. c #CDCDCD",
"M. c #D0D0D0",
"N. c gray82",
"B. c #D2D2D2",
"V. c LightGray",
"C. c #D5D5D5",
"Z. c gray84",
"A. c #D7D7D7",
"S. c #D8D8D8",
"D. c gray85",
"F. c #DADADA",
"G. c gainsboro",
"H. c #DDDDDD",
"J. c gray87",
"K. c #DFDFDF",
"L. c gray88",
"P. c #E2E2E2",
"I. c gray89",
"U. c gray90",
"Y. c #E6E6E6",
"T. c #E7E7E7",
"R. c gray91",
"E. c #E9E9E9",
"W. c #EAEAEA",
"Q. c gray92",
"!. c #ECECEC",
"~. c gray93",
"^. c #EEEEEE",
"/. c #EFEFEF",
"(. c gray94",
"). c #F1F1F1",
"_. c gray95",
"`. c #F3F3F3",
"'. c #F4F4F4",
"]. c gray96",
"[. c #F6F6F6",
"{. c gray97",
"}. c #F8F8F8",
"|. c #F9F9F9",
" X c gray98",
".X c #FBFBFB",
"XX c gray99",
"oX c #FDFDFD",
"OX c #FEFEFE",
/* pixels */
"                                                                                                              ",
"                                                                                                              ",
"                                                                                                              ",
"                                                                                                              ",
"                                                                                                              ",
"                                                                                                              ",
"                                                                ).T.d.3.#.#.r.Q.OX                            ",
"                                                    OX).D.d.#.T c 3 * . . . . i p.OX                          ",
"                                          OXT.v.9.{ F i : * . . . * . . . . * * : z.OX                        ",
"                              OXQ.C.p.;.T c 3 * . . . . * . * * : a U  .9.;.c * . _ Q.                        ",
"                            D.U i : * . . * * * * : 3 a F _ 9.z.D.).        z.3 * c T.                        ",
"                          Q.a . * * * * * * * * * a  .d.T.OX                Q.a * i D.OX                      ",
"                           .* * * 3 3 : * * * * * * * : 3 c _ ;.d.C.Q.).).OXQ.a * i D.OX                      ",
"                          3 * * T D.C.p.#.T c i : * * * * * . . * : c U  .r.p.a * i D.OX                      ",
"                          * * * p.        OX).T.z.3.{ F a 3 * * * * * * . . : : * i D.OX                      ",
"                          * * * p.                    OXQ.C.r.#.T B 3 : * * * * * : p.OX                      ",
"                          * * * p.                              OX).D.d.3.{ B : * * a D.OX                    ",
"                          * * * p.                                          ).r.i * * 3.OX                    ",
"                          * * * p.    OXQ.D.Q.).).OXOXOX                        #.: * B OX                    ",
"                          * * * p.    )._ i B _ ;.p.v.T.Q.).).OXOX              r.: * 3 OX                    ",
"                          * * * p.    ).F * * . * * 3 a F { 9.z.D.Q.).).OX      r.: * 3 OX                    ",
"                          * * * p.    OXC.3.{ U c i : * * . * : i B _ r.Q.      r.: * 3 OX                    ",
"                          * * * p.            OXQ.C.p.;._ B i 3 : * . 3 z.OX    p.: * 3 OX                    ",
"                          * * * p.                      OX).D.d.3.{ F _ D.OX    r.: * 3 OX                    ",
"                          * * * p.                                  ).OX        r.: * 3 OX                    ",
"                          * * * p.    OXQ.D.T.).).OX                            r.: * 3 OX                    ",
"                          * * * p.    OX;.U { 3.p.v.D.T.Q.).OXOX                p.: * 3 OX                    ",
"                          * * * p.    ).B * * * : i B T #.9.z.C.D.T.).OX        p.: * 3 OX                    ",
"                          * * * p.    OXp.{ U B a 3 : * * * 3 a F { 3.z.).      p.: * 3 OX                    ",
"                          * * * p.        OXQ.D.z.9.#._ F c i : * * * c v.OX    p.: * 3 OX                    ",
"                          * * * p.                  OX).T.C.r.;.{ U c U C.OX    p.: * 3 OX                    ",
"                          * * * p.                              OXQ.C.D.OX      p.: * 3 OX                    ",
"                          * * * p.                                              p.: * 3 OX                    ",
"                          * * * p.                                              p.: * 3 OX                    ",
"                          * * * p.                                              p.: * 3 OX                    ",
"                          * * * p.                                              p.: * 3 OX                    ",
"                          * * * p.                                              p.: * 3 OX                    ",
"                          * * * p.                                              p.: * 3 OX                    ",
"                          * * * p.                                              p.: * 3 OX                    ",
"                          * * * r.                                              p.: * 3 OX                    ",
"                          c * * U v.T.).                                        p.: * 3 OX                    ",
"                          9.* * : a F _ #.9.z.C.Q.OX                            p.: * 3 OX                    ",
"                          Q._ * . * * : 3 i a B U { ;.p.v.T.).OX                9.: * i OX                    ",
"                            T.3.U a 3 * . . * * * : 3 i a F _ #.9.z.D.).OX    Q.T * * U OX                    ",
"                              Q.D.C.d.9. .T B i : * . . * * : 3 3 a B T  .3.3._ 3 * * 9.OX                    ",
"                                    OXOX).).Q.D.v.r.#.T c 3 * . . . * * * : : * * . B T.                      ",
"                                                OXOX).Q.Q.C.p.3.{ F i : * * * * * a d.OX                      ",
"                                                          OXOX).).Q.D.z.9.U 3 3  .C.OX                        ",
"                                                                    OXOXOX).).).OXOX                          ",
"                                                                                                              ",
"                                                                                                              ",
"                                                                                                              ",
"                                                                                                              ",
"                                                                                                              ",
"                                                                                                              "
};
