/* XPM */
static char *info_dark[] = {
/* columns rows colors chars-per-pixel */
"55 55 199 2 ",
"   c black",
".  c #010101",
"X  c #020202",
"o  c gray1",
"O  c #040404",
"+  c gray2",
"@  c #060606",
"#  c #070707",
"$  c gray3",
"%  c #090909",
"&  c gray4",
"*  c #0B0B0B",
"=  c #0C0C0C",
"-  c gray5",
";  c #0E0E0E",
":  c gray6",
">  c #101010",
",  c #111111",
"<  c gray7",
"1  c #131313",
"2  c gray8",
"3  c #151515",
"4  c #161616",
"5  c gray9",
"6  c #181818",
"7  c gray10",
"8  c #1B1B1B",
"9  c gray11",
"0  c #1D1D1D",
"q  c #1E1E1E",
"w  c gray12",
"e  c #202020",
"r  c gray13",
"t  c #222222",
"y  c #232323",
"u  c gray14",
"i  c #252525",
"p  c gray15",
"a  c #272727",
"s  c #282828",
"d  c #2A2A2A",
"f  c gray17",
"g  c #2C2C2C",
"h  c #2D2D2D",
"j  c gray18",
"k  c #2F2F2F",
"l  c gray19",
"z  c #313131",
"x  c gray20",
"c  c #343434",
"v  c #353535",
"b  c gray21",
"n  c gray22",
"m  c #393939",
"M  c #3A3A3A",
"N  c gray23",
"B  c #3C3C3C",
"V  c gray24",
"C  c #3E3E3E",
"Z  c #3F3F3F",
"A  c gray25",
"S  c gray26",
"D  c #434343",
"F  c #444444",
"G  c gray27",
"H  c #464646",
"J  c #484848",
"K  c #494949",
"L  c #4B4B4B",
"P  c #4C4C4C",
"I  c gray30",
"U  c #505050",
"Y  c #515151",
"T  c gray32",
"R  c gray33",
"E  c #555555",
"W  c #565656",
"Q  c gray34",
"!  c #585858",
"~  c gray35",
"^  c #5A5A5A",
"/  c #5B5B5B",
"(  c gray36",
")  c #5D5D5D",
"_  c gray37",
"`  c #606060",
"'  c gray38",
"]  c #626262",
"[  c gray39",
"{  c #656565",
"}  c gray40",
"|  c #676767",
" . c #686868",
".. c DimGray",
"X. c #6A6A6A",
"o. c gray42",
"O. c #6D6D6D",
"+. c gray43",
"@. c #6F6F6F",
"#. c gray44",
"$. c #717171",
"%. c gray45",
"&. c #747474",
"*. c gray48",
"=. c #7C7C7C",
"-. c gray49",
";. c #7E7E7E",
":. c gray50",
">. c #808080",
",. c #818181",
"<. c gray51",
"1. c #838383",
"2. c #848484",
"3. c gray52",
"4. c #868686",
"5. c gray53",
"6. c gray54",
"7. c #8B8B8B",
"8. c gray55",
"9. c #8D8D8D",
"0. c #8E8E8E",
"q. c gray56",
"w. c gray57",
"e. c #939393",
"r. c gray58",
"t. c #959595",
"y. c gray59",
"u. c #979797",
"i. c #989898",
"p. c gray60",
"a. c gray61",
"s. c #9D9D9D",
"d. c gray62",
"f. c #9F9F9F",
"g. c gray63",
"h. c #A2A2A2",
"j. c gray64",
"k. c #A4A4A4",
"l. c #A5A5A5",
"z. c gray65",
"x. c #A7A7A7",
"c. c gray66",
"v. c #AAAAAA",
"b. c gray67",
"n. c #ACACAC",
"m. c gray68",
"M. c #AEAEAE",
"N. c #AFAFAF",
"B. c gray69",
"V. c #B1B1B1",
"C. c #B2B2B2",
"Z. c gray70",
"A. c #B4B4B4",
"S. c gray71",
"D. c #B6B6B6",
"F. c #B7B7B7",
"G. c gray72",
"H. c gray73",
"J. c #BBBBBB",
"K. c #BCBCBC",
"L. c gray74",
"P. c gray",
"I. c gray75",
"U. c #C0C0C0",
"Y. c #C1C1C1",
"T. c gray76",
"R. c #C3C3C3",
"E. c #C5C5C5",
"W. c #C6C6C6",
"Q. c gray78",
"!. c #C8C8C8",
"~. c gray79",
"^. c #CACACA",
"/. c #CBCBCB",
"(. c gray80",
"). c #CDCDCD",
"_. c #CECECE",
"`. c gray81",
"'. c #D0D0D0",
"]. c gray82",
"[. c #D2D2D2",
"{. c LightGray",
"}. c gray83",
"|. c #D5D5D5",
" X c gray84",
".X c #D7D7D7",
"XX c #D8D8D8",
"oX c gray85",
"OX c #DADADA",
"+X c gray86",
"@X c gainsboro",
"#X c #DDDDDD",
"$X c gray87",
"%X c #DFDFDF",
"&X c gray88",
"*X c #E1E1E1",
"=X c gray89",
"-X c #E4E4E4",
";X c #E6E6E6",
/* pixels */
"                                                                                                              ",
"                                                                                                              ",
"                                                                                                              ",
"                                                                                                              ",
"                                                                                                              ",
"                                                                                                              ",
"                                                                                                              ",
"                                                                                                              ",
"                                              % < q h h h q < %                                               ",
"                                        i ! 5.k.S.U.!.!.!.U.S.k.5.! i                                         ",
"                                    h &.c.U.}.$X$X$X&X&X&X&X$X$X}.U.c.&.h                                     ",
"                                < ! c.!.$X$X&X$X!.S.c.k.c.S.!.}.&X&X$X!.S.| <                                 ",
"                              h 5.U.$X$X$XJ.5.! M h i i i h M ! 5.J.$X$X$X!.u.h                               ",
"                            M d.}.$X$XS.O.c q %               % q c O.J.$X$X}.c.M                             ",
"                          M k.}.$X}.5.c <                           < c 8.$X$X$XS.M                           ",
"                        h d.}.$X!.&.i                                   q O.}.$X$XS.i                         ",
"                      < 8.!.$X!.O.q               q | -.L                 < ! }.$X$Xu.%                       ",
"                      O.!.$X}.| <               % 8.$X$X}.R                   R $X$X}.&.                      ",
"                    c S.$X$X5.q                 i J.$X$X&X8.                  % -.&X$XU.h                     ",
"                    -.}.$XS.c                   < S.$X$X&X-.                    < J.$X$X5.                    ",
"                  q S.$X$X| %                     L J.}.k.i                       R $X$XU.i                   ",
"                  S !.&XS.h                       % i h <                         % J.$X$X|                   ",
"                  | }.$X-.<                                                         -.&X$Xd.                  ",
"                % 5.$X}.L %                                                         S $X$XJ.<                 ",
"                q d.$XJ.c                     M 8.u.u.d.5.q                         q !.$X}.h                 ",
"                h J.$Xk.i                     d.&X&X$X$X&X!                         % c.&X}.S                 ",
"                M }.&Xu.q                     R k.S.U.$X&XO.                        % d.$X$X!                 ",
"                M $X&X8.q                       % % &.$X&XO.                        % u.&X$XO.                ",
"                M }.&Xu.q                           O.$X&XO.                        % d.$X$X|                 ",
"                c U.&Xk.i                           O.$X&XO.                        % c.$X$XL                 ",
"                i c.$XS.h                           O.$X&XO.                        q U.$X}.c                 ",
"                < 8.$X!.S                           O.$X&XO.                        c }.$XU.q                 ",
"                  O.}.$XO.<                         O.$X&XO.                        O.&X$Xc.                  ",
"                  L !.&Xk.i                         O.$X&XO.                        S.$X$X&.                  ",
"                  i J.$X}.R %                       O.$X&X|                       M $X$X!.h                   ",
"                    8.}.&Xk.i                 L -.5.c.$X$Xc.5.5.R                 k.&X$Xu.                    ",
"                    S J.$X$XO.<             i !.&X&X&X$X$X&X&X&X}.h             | &X$X}.M                     ",
"                      5.}.$X!.L %           < u.U.!.!.!.!.!.!.!.d.<           c }.$X$X8.                      ",
"                      i c.$X$XJ.M               < < < < < < < <             i U.$X$XJ.q                       ",
"                        L J.$X$XJ.S                                       c U.$X$X$XS                         ",
"                          ! !.$X$X!.R %                                 ! }.$X$X$X!                           ",
"                            R J.$X$X$Xd.S %                       % M k.$X$X$X}.!                             ",
"                              S c.}.$X$X}.k.! h % %     % % % h ! d.$X$X$X$XU.S                               ",
"                                i 5.}.$X$X$X&X!.S.d.5.5.5.u.S.!.$X$X$X$X}.u.i                                 ",
"                                    L k.}.$X$X$X$X$X&X&X&X&X&X$X$X$X}.k.S                                     ",
"                                      % M 5.S.!.$X$X$X$X$X$X}.!.S.5.M                                         ",
"                                            % i S O.8.u.8.&.S i %                                             ",
"                                                                                                              ",
"                                                                                                              ",
"                                                                                                              ",
"                                                                                                              ",
"                                                                                                              ",
"                                                                                                              ",
"                                                                                                              ",
"                                                                                                              "
};
