/* XPM */
static char *info_dark[] = {
/* columns rows colors chars-per-pixel */
"55 55 30 1 ",
"  c None",
". c gray1",
"X c #090909",
"o c gray7",
"O c #1E1E1E",
"+ c #252525",
"@ c #2D2D2D",
"# c #343434",
"$ c #3A3A3A",
"% c gray26",
"& c #4B4B4B",
"* c gray33",
"= c #585858",
"- c #676767",
"; c #6D6D6D",
": c gray45",
"> c gray49",
", c gray53",
"< c gray55",
"1 c #979797",
"2 c gray62",
"3 c #A4A4A4",
"4 c gray66",
"5 c gray71",
"6 c #BBBBBB",
"7 c #C0C0C0",
"8 c #C8C8C8",
"9 c gray83",
"0 c gray87",
"q c gray88",
/* pixels */
"                                                       ",
"                                                       ",
"                                                       ",
"                                                       ",
"                                                       ",
"                                                       ",
"                                                       ",
"                                                       ",
"                      .XoO@@@OoX.                      ",
"                   .+=,357888753,=+                    ",
"                  @:479000qqqq00974:@                  ",
"                o=4800q085434589qq085-o                ",
"               @,70006,=$@+++@$=,600081@               ",
"              $28005;#OX.     .XO@;60094$              ",
"             $3909,#o.           .o#<0005$             ",
"            @2908:+.               .O;9005+            ",
"           o<808;O.      O->&.       o=9001X           ",
"          .;809-o.      X<009*.       .*009:           ",
"          #500,O.       +600q<.        X>q07@          ",
"         .>805#.        o500q>.         o600,.         ",
"         O500-X         .&693+.         .*007+         ",
"         %8q5@.          X+@o.           X600-         ",
"        .-90>o            ..              >q02.        ",
"        X,09&X                            %006o        ",
"        O206#.         $<112,O.           O809@        ",
"        @603+         .2qq00q=.           X4q9%        ",
"        $9q1O          *35700;.           X200=        ",
"        $00<O          .XX:0q;.           X1q0;        ",
"        $9q1O             ;0q;.           X200-        ",
"        #7q3+             ;0q;.           X400&        ",
"        +405@             ;0q;.           O709#        ",
"        o<08%.            ;0q;.           #907O        ",
"        .;90;o            ;0q;.           ;q04.        ",
"         &8q3+            ;0q;.          .500;         ",
"         +609*X           ;0q-.          $008@         ",
"         .<9q3+       .&>,4004,,*.      .3q01.         ",
"          %600;o      +8qqq00qqq9@      -q09$          ",
"          .,908&X     o1788888882o     #900<.          ",
"           +4006$.     .oooooooo.     +7006O           ",
"            &6006%.                  #7000%            ",
"             =8008*X               .=9000=             ",
"             .*60002%X..       ..X$30009=              ",
"               %490093=@XX..XXX@=200007%               ",
"                +,9000q852,,,158000091+                ",
"                 .&3900000qqqqq00093%.                 ",
"                   X$,58900000985,$.                   ",
"                      X+%;<1<:%+X                      ",
"                                                       ",
"                                                       ",
"                                                       ",
"                                                       ",
"                                                       ",
"                                                       ",
"                                                       ",
"                                                       "
};
