/* XPM */
static char *jump_to[] = {
/* columns rows colors chars-per-pixel */
"55 55 94 2 ",
"   c #1B1B1B",
".  c gray11",
"X  c #1D1D1D",
"o  c #1E1E1E",
"O  c gray12",
"+  c #202020",
"@  c gray13",
"#  c #222222",
"$  c #232323",
"%  c gray14",
"&  c #252525",
"*  c gray15",
"=  c #272727",
"-  c #282828",
";  c gray17",
":  c #2C2C2C",
">  c #2D2D2D",
",  c gray18",
"<  c #2F2F2F",
"1  c #323232",
"2  c gray20",
"3  c #353535",
"4  c gray22",
"5  c gray23",
"6  c gray24",
"7  c gray26",
"8  c gray29",
"9  c #4B4B4B",
"0  c #4C4C4C",
"q  c gray37",
"w  c #606060",
"e  c #6F6F6F",
"r  c gray44",
"t  c #747474",
"y  c #777777",
"u  c gray47",
"i  c #797979",
"p  c gray49",
"a  c gray50",
"s  c #808080",
"d  c gray51",
"f  c #888888",
"g  c #898989",
"h  c gray54",
"j  c #8D8D8D",
"k  c gray56",
"l  c #909090",
"z  c #939393",
"x  c gray58",
"c  c gray59",
"v  c #9B9B9B",
"b  c #9D9D9D",
"n  c #A0A0A0",
"m  c #A5A5A5",
"M  c gray65",
"N  c #A7A7A7",
"B  c gray66",
"V  c #A9A9A9",
"C  c #AAAAAA",
"Z  c #AEAEAE",
"A  c #AFAFAF",
"S  c gray69",
"D  c #B1B1B1",
"F  c #B6B6B6",
"G  c gray73",
"H  c #BCBCBC",
"J  c gray",
"K  c #C1C1C1",
"L  c gray76",
"P  c gray77",
"I  c #C6C6C6",
"U  c gray79",
"Y  c #CACACA",
"T  c #CBCBCB",
"R  c #D8D8D8",
"E  c gainsboro",
"W  c #E2E2E2",
"Q  c #E7E7E7",
"!  c #EAEAEA",
"~  c gray94",
"^  c gray95",
"/  c #F3F3F3",
"(  c #F4F4F4",
")  c gray96",
"_  c #F6F6F6",
"`  c gray97",
"'  c #F8F8F8",
"]  c #F9F9F9",
"[  c gray98",
"{  c #FBFBFB",
"}  c gray99",
"|  c #FDFDFD",
" . c #FEFEFE",
".. c white",
/* pixels */
"..............................................................................................................",
"..............................................................................................................",
"..............................................................................................................",
"..............................................................................................................",
"..............................................................................................................",
"..............................................................................................................",
"..............................................................................................................",
"..................................^ ^ ^ ^ ^ ^ ^ ^ ^ ^ ^ ^ ^ ^ ^ ^ ^ ^ ^ ^ ^ ^ ................................",
"............................^ H y 9 9 9 9 9 9 9 9 9 9 9 9 9 9 9 9 9 9 9 9 9 y I ^ ............................",
"............................h , * * * * * * * * * * * * * * * * * * * * * * O , m ............................",
"..........................U 1 * * , , , , , , , , , , , , , , , , , , , , , * * , R ..........................",
"..........................h * * q A A A A A A A A A A A A A A A A A A A F A 9 * O m ..........................",
"..........................y * O m ....^ ....................................h O * h ..........................",
"..........................i * * m ..U A W ^ ................................h O * h ..........................",
"..........................i * * m ..h * 9 z R ^ ............................h O * h ..........................",
"..........................i * * m ..z * O * 6 s U ^ ........................h O * h ..........................",
"..........................i * * m ..z * * * * O , m ........................h O * h ..........................",
"..........................i * * m ..z * * * * * O i ........................h O * h ..........................",
"..........................i * * m ..z * * * * * O s ........................h O * h ..........................",
"..........................i * O m ..z * * * * * O s ........................h O * h ..........................",
"..........................i * O m ..z * * * * * O s ........................h O * h ..........................",
"..........................i * O m ..z * * * * * O s ........................h O * h ..........................",
"..........................i * * m ..z * * * * * O s ........................h O * h ..........................",
"..........................i * * m ..z * * * * * O s ........................h O * h ..........................",
"..........................i * * m ..z * * * * * O s ........................h O * h ..........................",
"..........................i * * m ..z * * * * * O s ........................h O * h ..........................",
"..........................i * * m ..z * * * * * O s ........................h O * h ..........................",
"..........................i * * m ..z * * * * * O s ........................h O * h ..........................",
"..........................i * O m ..z * * * * * O s ........................h O * h ..........................",
"..........................i * * m ..z * * * * * O s ........................h O * h ..........................",
"..........................i * O m ..z * * * * * O s ........................h O * h ..........................",
"..........................i * O m ..z * * * * * O s ........................h O O h ..........................",
"..........................i * * m ..z * * * * * O s ........................h O * h ..........................",
"..........................i * * m ..z * * * * * O s ........................h O * h ..........................",
"..........................i * * m ..z * * * * * O s ........................h O * h ..........................",
"..........................i * * m ..z * * * * * O s ........................h O * h ..........................",
"..........................i * O m ..z * * * * * O s ........................h O * h ..........................",
"..........................i * O m ..z * * * * * O s ........................h O * h ..........................",
"..........................i * O m ..z * * * * * O s ^ ......................h O * h ..........................",
"..........................i * * m ..z * * * * * O s ........................h O * h ..........................",
"..........................i * * m ..z * * * * * O s ........................h O * h ..........................",
"..........................i * * m ..z * * * * * O s ........................h O * h ..........................",
"..........................i * * m ..z * * * * * O s ........................h O * h ..........................",
"..........................i * * m ..z * * * * * , v ........................h O * h ..........................",
"..........................y * O m ..z * * , 6 w v W ........................h O * h ..........................",
"..........................i * O A ..z , 7 e A ! ............................h O O z ..........................",
"..........................A 1 1 I ..F s H ^ ................................F , 1 H ..........................",
"............................H I ^ ............................................H I ............................",
"..............................................................................................................",
"..............................................................................................................",
"..............................................................................................................",
"..............................................................................................................",
"..............................................................................................................",
"..............................................................................................................",
".............................................................................................................."
};
