/* XPM */
static char *jump_to_dark[] = {
/* columns rows colors chars-per-pixel */
"55 55 28 1 ",
"  c None",
". c #070707",
"X c gray5",
"o c #151515",
"O c #1D1D1D",
"+ c #272727",
"@ c gray21",
"# c #393939",
"$ c #434343",
"% c #494949",
"& c #505050",
"* c #5A5A5A",
"= c #646464",
"- c #6C6C6C",
"; c gray46",
": c gray50",
"> c #868686",
", c #888888",
"< c #909090",
"1 c #9F9F9F",
"2 c gray63",
"3 c #B4B4B4",
"4 c gray74",
"5 c gray76",
"6 c #CDCDCD",
"7 c gray82",
"8 c gray85",
"9 c gray88",
/* pixels */
"                                                       ",
"                                                       ",
"                                                       ",
"                                                       ",
"                                                       ",
"                                                       ",
"                                                       ",
"               ..XXXXXXXXXXXXXXXXXXXXXX.               ",
"              X$,333333333333333333333,#X              ",
"             .;7888888888888888888888897*.             ",
"             @688777777777777777777777887+             ",
"             ;882&&&&&&&&&&&&&&&&&&&%&389*             ",
"             ,89*..X                  ;98;             ",
"             >88*.@&OX.               ;98;             ",
"             >88*.;83-+X.             ;98;             ",
"             >88*.-8985:@X            ;98;             ",
"             >88*.-888897*.           ;98;             ",
"             >88*.-888889>.           ;98;             ",
"             >88*.-888889:.           ;98;             ",
"             >89*.-888889:.           ;98;             ",
"             >89*.-888889:.           ;98;             ",
"             >89*.-888889:.           ;98-             ",
"             >88*.-888889:.           ;98;             ",
"             >88*.-888889:.           ;98;             ",
"             >88*.-888889:.           ;98;             ",
"             >88*.-888889:.           ;98;             ",
"             >88*.-888889:.           ;98;             ",
"             >88*.-888889:.           ;98;             ",
"             >88*.-888889:.           ;98;             ",
"             >88*.-888889:.           ;98;             ",
"             >88*.-888889:.           ;98;             ",
"             >88*.-888889:.           ;99;             ",
"             >88*.-888889:.           ;98;             ",
"             >88*.-888889:.           ;98;             ",
"             >88*.-888889:.           ;98;             ",
"             >88*.-888889:.           ;98;             ",
"             >89*.-888889:.           ;98;             ",
"             >89*.-888889:.           ;98;             ",
"             >89*.-888889:.           ;98;             ",
"             >88*.-888889:.           ;98;             ",
"             >88*.-888889:.           ;98;             ",
"             >88*.-888889:.           ;98;             ",
"             >88*.-888889:.           ;98;             ",
"             >88*.-888877=.           ;98;             ",
"             ,89*.-88751=O.           ;98;             ",
"             >89&.-74<&o.             ;99-             ",
"             &66#.%:$X                %76$             ",
"             .$#X ..                  .$#.             ",
"                                                       ",
"                                                       ",
"                                                       ",
"                                                       ",
"                                                       ",
"                                                       ",
"                                                       "
};
