/* XPM */
static char *left_arrow_dark[] = {
/* columns rows colors chars-per-pixel */
"55 55 30 1 ",
"  c None",
". c #010101",
"X c gray6",
"o c gray8",
"O c gray10",
"+ c #252525",
"@ c gray17",
"# c #313131",
"$ c #3C3C3C",
"% c #464646",
"& c #484848",
"* c gray34",
"= c #5A5A5A",
"- c #626262",
"; c gray42",
": c gray46",
"> c #7C7C7C",
", c gray53",
"< c #8D8D8D",
"1 c #979797",
"2 c #9D9D9D",
"3 c #A2A2A2",
"4 c gray68",
"5 c #B7B7B7",
"6 c #BBBBBB",
"7 c gray78",
"8 c gray80",
"9 c LightGray",
"0 c gray86",
"q c gray88",
/* pixels */
"                                                       ",
"                                                       ",
"                                                       ",
"                                                       ",
"                                                       ",
"                                                       ",
"                                                       ",
"                                                       ",
"                                                       ",
"                                                       ",
"                              .                        ",
"                            o;,O.                      ",
"                           .=7q1.                      ",
"                           X<008X                      ",
"                           +500;.                      ",
"                          .&907+.                      ",
"                          O,001X                       ",
"                          #600*.                       ",
"                         .-007@                        ",
"                         o3001o                        ",
"                        .#908;.                        ",
"                        .:004$                         ",
"                        o500,o                         ",
"                       .%009*.                         ",
"                       X1q06@                          ",
"                       +8091X                          ",
"                       ;007=                           ",
"                      .7005@                           ",
"                      .5005#                           ",
"                       &908:.                          ",
"                       o5003o                          ",
"                       .;007$                          ",
"                       .@809-X                         ",
"                        X2001+                         ",
"                        .*006&.                        ",
"                         +609>X                        ",
"                         X<004O                        ",
"                         .&808$.                       ",
"                          +300;X                       ",
"                          o;004O                       ",
"                          .#709*.                      ",
"                           o2003X                      ",
"                           .;805X                      ",
"                            @<3&.                      ",
"                            .oO.                       ",
"                                                       ",
"                                                       ",
"                                                       ",
"                                                       ",
"                                                       ",
"                                                       ",
"                                                       ",
"                                                       ",
"                                                       ",
"                                                       "
};
