/* XPM */
static char *lock_broken_dark[] = {
/* columns rows colors chars-per-pixel */
"55 55 172 2 ",
"   c black",
".  c #010101",
"X  c #020202",
"o  c gray1",
"O  c #040404",
"+  c gray2",
"@  c #060606",
"#  c #070707",
"$  c gray3",
"%  c #090909",
"&  c gray4",
"*  c #0B0B0B",
"=  c #0C0C0C",
"-  c gray5",
";  c #0E0E0E",
":  c #101010",
">  c #111111",
",  c gray7",
"<  c #131313",
"1  c gray8",
"2  c #151515",
"3  c #161616",
"4  c gray9",
"5  c #181818",
"6  c #191919",
"7  c gray10",
"8  c #1B1B1B",
"9  c #1E1E1E",
"0  c gray12",
"q  c #202020",
"w  c gray13",
"e  c gray14",
"r  c #252525",
"t  c gray15",
"y  c #272727",
"u  c gray16",
"i  c #2A2A2A",
"p  c #2C2C2C",
"a  c #2D2D2D",
"s  c gray18",
"d  c #323232",
"f  c #343434",
"g  c #353535",
"h  c gray22",
"j  c #393939",
"k  c #3A3A3A",
"l  c gray23",
"z  c #3C3C3C",
"x  c gray24",
"c  c #3E3E3E",
"v  c #3F3F3F",
"b  c gray25",
"n  c gray26",
"m  c #444444",
"M  c gray28",
"N  c gray29",
"B  c #4C4C4C",
"V  c gray30",
"C  c #505050",
"Z  c #515151",
"A  c gray32",
"S  c #535353",
"D  c #555555",
"F  c #565656",
"G  c gray34",
"H  c gray35",
"J  c #5B5B5B",
"K  c gray36",
"L  c #5D5D5D",
"P  c gray37",
"I  c #5F5F5F",
"U  c #626262",
"Y  c gray39",
"T  c #646464",
"R  c #656565",
"E  c gray40",
"W  c DimGray",
"Q  c #6F6F6F",
"!  c gray44",
"~  c #717171",
"^  c #727272",
"/  c gray45",
"(  c gray46",
")  c #767676",
"_  c gray47",
"`  c gray48",
"'  c #7B7B7B",
"]  c gray49",
"[  c #808080",
"{  c gray51",
"}  c #838383",
"|  c #848484",
" . c gray52",
".. c #868686",
"X. c gray53",
"o. c #888888",
"O. c #898989",
"+. c #8B8B8B",
"@. c gray55",
"#. c gray56",
"$. c #909090",
"%. c gray57",
"&. c #929292",
"*. c #959595",
"=. c gray59",
"-. c #979797",
";. c #989898",
":. c gray60",
">. c #9A9A9A",
",. c #9B9B9B",
"<. c #9D9D9D",
"1. c gray62",
"2. c #9F9F9F",
"3. c #A0A0A0",
"4. c gray63",
"5. c gray64",
"6. c #A5A5A5",
"7. c #A7A7A7",
"8. c gray66",
"9. c #A9A9A9",
"0. c gray67",
"q. c #ACACAC",
"w. c #AEAEAE",
"e. c #AFAFAF",
"r. c gray69",
"t. c #B1B1B1",
"y. c #B2B2B2",
"u. c #B6B6B6",
"i. c #B7B7B7",
"p. c #B9B9B9",
"a. c gray73",
"s. c #BCBCBC",
"d. c gray74",
"f. c gray",
"g. c gray75",
"h. c #C0C0C0",
"j. c #C1C1C1",
"k. c #C3C3C3",
"l. c #C5C5C5",
"z. c #C6C6C6",
"x. c gray78",
"c. c #C8C8C8",
"v. c gray79",
"b. c #CACACA",
"n. c #CDCDCD",
"m. c #CECECE",
"M. c gray81",
"N. c #D0D0D0",
"B. c gray82",
"V. c #D2D2D2",
"C. c LightGray",
"Z. c gray83",
"A. c #D5D5D5",
"S. c gray84",
"D. c #D7D7D7",
"F. c #D8D8D8",
"G. c gray85",
"H. c #DADADA",
"J. c gray86",
"K. c gainsboro",
"L. c #DDDDDD",
"P. c gray87",
"I. c #DFDFDF",
"U. c gray88",
"Y. c #E2E2E2",
"T. c gray89",
"R. c #E4E4E4",
"E. c gray90",
"W. c #E6E6E6",
"Q. c gray91",
"!. c #E9E9E9",
"~. c #EAEAEA",
/* pixels */
"                                                                                                              ",
"                                                                                                              ",
"                                                                                                              ",
"                                                                                                              ",
"                                                                                                              ",
"                                                                                                              ",
"                                                                                                              ",
"                                                                                                              ",
"                                                                                                              ",
"                                                                                                              ",
"                                                                                                              ",
"                                                                                                              ",
"                                                                0 m I T D s &                                 ",
"                                                            0 ^ p.N.H.H.H.m.&.r                               ",
"                                                          d ,.H.H.m.t.8.p.N.W.t.x                             ",
"                                                        r &.H.x.^ s & & 0 D 8.H.8.s                           ",
"                                                        T m.x.I &           d p.H.^ 2                         ",
"                                                      r &.H.{ 0               ^ N.t.s                         ",
"                                                      m p.x.D                 x p.N.N                         ",
"                                                      D m.t.x                 0 8.H.T &                       ",
"                                                      I m.8.d                 2 7.H.W 2                       ",
"                                                      I N.7.d                 2 ,.H.^ 2                       ",
"                                                      I N.7.d                 2 ,.H.^ 2                       ",
"                                                      I m.7.d                 2 7.H.^ 2                       ",
"                          0 T { { { { { { { { { { { { 8.H.p.T 2               & { m.D &                       ",
"                        r 8.W.~.~.~.~.~.~.~.~.~.~.~.~.W.W.W.H.O.0               & 0                           ",
"                      & T ~.H.,.O.O.O.O.O.O.O.O.O.O.O.O.O.8.N.x.D                                             ",
"                        x D N                             x 8.N.T                                             ",
"                                                          d 8.N.T                                             ",
"                        x { D                             d 8.N.T                                             ",
"                      s m.W.N.D                           d 8.N.T                                             ",
"                    2 O.W.H.H.7.0                         d 8.N.T                                             ",
"                    m N.N.x.N.m.W                         d 8.N.T                                             ",
"                  0 7.H.,.2 T H.t.s                       d 8.N.T                                             ",
"                & I H.H.O.  N H.N._                       d 8.N.T                                             ",
"                r t.H.H.&.& D H.H.p.x                     d 8.N.T                                             ",
"              & ^ H.H.H.&.& I H.H.N.&.&                   d 8.N.T                                             ",
"              s x.H.H.H.,.& I W.H.H.x.D                   d 8.N.T                                             ",
"            2 { W.H.H.H.t.N &.H.H.H.N.,.2                 x 8.N.T                                             ",
"            x N.H.H.H.H.N.p.m.H.H.H.H.m.T   0 T ^ ^ ^ ^ ^ ,.N.x.D                                             ",
"          2 ,.W.H.H.H.N.O.2 D N.H.H.H.H.8.r 0 &.~.W.W.W.W.W.H.O.r                                             ",
"          N H.H.H.H.H.N._ & x N.H.H.H.H.m.^ & x &.,.,.,.,.&.T r                                               ",
"        & { W.H.H.H.H.H.m.7.p.H.H.H.H.H.H.,.2                                                                 ",
"        & I H.H.H.H.H.H.H.W.W.H.H.H.H.H.N.{                                                                   ",
"          & D _ _ _ _ _ _ _ _ _ _ _ _ _ I 2                                                                   ",
"                                                                                                              ",
"                                                                                                              ",
"                                                                                                              ",
"                                                                                                              ",
"                                                                                                              ",
"                                                                                                              ",
"                                                                                                              ",
"                                                                                                              ",
"                                                                                                              ",
"                                                                                                              "
};
