/* XPM */
static char *lock_open[] = {
/* columns rows colors chars-per-pixel */
"55 55 147 2 ",
"   c gray11",
".  c #1D1D1D",
"X  c #1E1E1E",
"o  c gray12",
"O  c #202020",
"+  c gray13",
"@  c #222222",
"#  c #232323",
"$  c gray14",
"%  c #252525",
"&  c gray15",
"*  c #272727",
"=  c #282828",
"-  c gray16",
";  c #2C2C2C",
":  c #2D2D2D",
">  c gray18",
",  c #2F2F2F",
"<  c gray19",
"1  c #313131",
"2  c #323232",
"3  c gray20",
"4  c #343434",
"5  c #353535",
"6  c gray21",
"7  c #373737",
"8  c gray22",
"9  c #393939",
"0  c gray23",
"q  c #3C3C3C",
"w  c gray24",
"e  c gray25",
"r  c #414141",
"t  c gray26",
"y  c #434343",
"u  c #444444",
"i  c gray27",
"p  c #464646",
"a  c gray28",
"s  c #484848",
"d  c gray29",
"f  c gray31",
"g  c #515151",
"h  c gray33",
"j  c #555555",
"k  c #565656",
"l  c gray34",
"z  c #585858",
"x  c gray35",
"c  c #5A5A5A",
"v  c gray36",
"b  c #5F5F5F",
"n  c #606060",
"m  c #646464",
"M  c #676767",
"N  c #686868",
"B  c DimGray",
"V  c #6A6A6A",
"C  c gray42",
"Z  c #6C6C6C",
"A  c #6D6D6D",
"S  c gray43",
"D  c #6F6F6F",
"F  c gray44",
"G  c gray46",
"H  c #767676",
"J  c #777777",
"K  c gray47",
"L  c #797979",
"P  c #818181",
"I  c gray51",
"U  c #848484",
"Y  c #868686",
"T  c gray53",
"R  c #888888",
"E  c gray54",
"W  c gray55",
"Q  c #8D8D8D",
"!  c #8E8E8E",
"~  c #909090",
"^  c #939393",
"/  c gray58",
"(  c gray59",
")  c #979797",
"_  c #989898",
"`  c gray63",
"'  c #A4A4A4",
"]  c #A5A5A5",
"[  c #A7A7A7",
"{  c gray66",
"}  c #AAAAAA",
"|  c gray67",
" . c #ACACAC",
".. c gray68",
"X. c #AEAEAE",
"o. c #B2B2B2",
"O. c #B4B4B4",
"+. c #B7B7B7",
"@. c gray72",
"#. c #BBBBBB",
"$. c gray75",
"%. c #C0C0C0",
"&. c #C1C1C1",
"*. c #C3C3C3",
"=. c gray77",
"-. c #C5C5C5",
";. c #CACACA",
":. c #CBCBCB",
">. c gray80",
",. c #CECECE",
"<. c #D0D0D0",
"1. c #D2D2D2",
"2. c #D7D7D7",
"3. c #D8D8D8",
"4. c gray85",
"5. c #DADADA",
"6. c gray86",
"7. c #DDDDDD",
"8. c gray87",
"9. c #E1E1E1",
"0. c #E2E2E2",
"q. c gray89",
"w. c #E4E4E4",
"e. c gray90",
"r. c #E7E7E7",
"t. c #EAEAEA",
"y. c gray92",
"u. c #ECECEC",
"i. c gray93",
"p. c #EEEEEE",
"a. c #EFEFEF",
"s. c gray94",
"d. c #F1F1F1",
"f. c gray95",
"g. c #F3F3F3",
"h. c #F4F4F4",
"j. c gray96",
"k. c #F6F6F6",
"l. c gray97",
"z. c #F8F8F8",
"x. c #F9F9F9",
"c. c gray98",
"v. c #FBFBFB",
"b. c gray99",
"n. c #FDFDFD",
"m. c #FEFEFE",
"M. c white",
/* pixels */
"M.M.M.M.M.M.M.M.M.M.M.M.M.M.M.M.M.M.M.M.M.M.M.M.M.M.M.M.M.M.M.M.M.M.M.M.M.M.M.M.M.M.M.M.M.M.M.M.M.M.M.M.M.M.M.",
"M.M.M.M.M.M.M.M.M.M.M.M.M.M.M.M.M.M.M.M.M.M.M.M.M.M.M.M.M.M.M.M.M.M.M.M.M.M.M.M.M.M.M.M.M.M.M.M.M.M.M.M.M.M.M.",
"M.M.M.M.M.M.M.M.M.M.M.M.M.M.M.M.M.M.M.M.M.M.M.M.M.M.M.M.M.M.M.M.M.M.M.M.M.M.M.M.M.M.M.M.M.M.M.M.M.M.M.M.M.M.M.",
"M.M.M.M.M.M.M.M.M.M.M.M.M.M.M.M.M.M.M.M.M.M.M.M.M.M.M.M.M.M.M.M.M.M.M.M.M.M.M.M.M.M.M.M.M.M.M.M.M.M.M.M.M.M.M.",
"M.M.M.M.M.M.M.M.M.M.M.M.M.M.M.M.M.M.M.M.M.M.M.M.M.M.M.M.M.M.M.M.M.M.M.M.M.M.M.M.M.M.M.M.M.M.M.M.M.M.M.M.M.M.M.",
"M.M.M.M.M.M.M.M.M.M.M.M.M.M.M.M.M.M.M.M.M.M.M.M.M.M.M.M.M.M.M.M.M.M.M.M.M.M.M.M.M.M.M.M.M.M.M.M.M.M.M.M.M.M.M.",
"M.M.M.M.M.M.M.M.M.M.M.M.M.M.M.M.M.M.M.M.M.M.M.M.M.M.M.M.M.M.M.M.M.M.M.M.M.M.M.M.M.M.M.M.M.M.M.M.M.M.M.M.M.M.M.",
"M.M.M.M.M.M.M.M.M.M.M.M.M.M.M.M.M.M.M.M.M.M.M.M.M.M.M.M.M.M.M.M.M.M.M.M.M.M.M.M.M.M.M.M.M.M.M.M.M.M.M.M.M.M.M.",
"M.M.M.M.M.M.M.M.M.M.M.M.M.M.M.M.M.M.M.M.M.M.M.M.M.M.M.M.M.M.M.M.M.M.j.y.r.r.y.j.M.M.M.M.M.M.M.M.M.M.M.M.M.M.M.",
"M.M.M.M.M.M.M.M.M.M.M.M.M.M.M.M.M.M.M.M.M.M.M.M.M.M.M.M.M.M.M.M.y.:.' G j f C ) -.r.M.M.M.M.M.M.M.M.M.M.M.M.M.",
"M.M.M.M.M.M.M.M.M.M.M.M.M.M.M.M.M.M.M.M.M.M.M.M.M.M.M.M.M.M.M.4.W u @ @ @ @ @ @ 3 C -.j.M.M.M.M.M.M.M.M.M.M.M.",
"M.M.M.M.M.M.M.M.M.M.M.M.M.M.M.M.M.M.M.M.M.M.M.M.M.M.M.M.M.M.:.b @ @ = w f f u 3 @ X w ' j.M.M.M.M.M.M.M.M.M.M.",
"M.M.M.M.M.M.M.M.M.M.M.M.M.M.M.M.M.M.M.M.M.M.M.M.M.M.M.M.M.4.b @ @ u U o.:.2.-.) b = @ = { M.M.M.M.M.M.M.M.M.M.",
"M.M.M.M.M.M.M.M.M.M.M.M.M.M.M.M.M.M.M.M.M.M.M.M.M.M.M.M.j.L @ @ j -.M.M.M.M.M.M.4.G = X u 2.M.M.M.M.M.M.M.M.M.",
"M.M.M.M.M.M.M.M.M.M.M.M.M.M.M.M.M.M.M.M.M.M.M.M.M.M.M.M.o.3 @ j 2.M.M.M.M.M.M.M.M.j.U @ @ G j.M.M.M.M.M.M.M.M.",
"M.M.M.M.M.M.M.M.M.M.M.M.M.M.M.M.M.M.M.M.M.M.M.M.M.M.M.M.G = @ ' j.M.M.M.M.M.M.M.M.M.4.u @ w 4.M.M.M.M.M.M.M.M.",
"M.M.M.M.M.M.M.M.M.M.M.M.M.M.M.M.M.M.M.M.M.M.M.M.M.M.M.y.f @ w 4.M.M.M.M.M.M.M.M.M.M.M.C @ @ $.M.M.M.M.M.M.M.M.",
"M.M.M.M.M.M.M.M.M.M.M.M.M.M.M.M.M.M.M.M.M.M.M.M.M.M.M.2.w @ b y.M.M.M.M.M.M.M.M.M.M.M.) @ X W M.M.M.M.M.M.M.M.",
"M.M.M.M.M.M.M.M.M.M.M.M.M.M.M.M.M.M.M.M.M.M.M.M.M.M.M.:.3 X M y.M.M.M.M.M.M.M.M.M.M.M.' @ @ C M.M.M.M.M.M.M.M.",
"M.M.M.M.M.M.M.M.M.M.M.M.M.M.M.M.M.M.M.M.M.M.M.M.M.M.M.-.3 X C y.M.M.M.M.M.M.M.M.M.M.M.{ @ @ b M.M.M.M.M.M.M.M.",
"M.M.M.M.M.M.M.M.M.M.M.M.M.M.M.M.M.M.M.M.M.M.M.M.M.M.M.-.3 X C y.M.M.M.M.M.M.M.M.M.M.M.{ @ @ j M.M.M.M.M.M.M.M.",
"M.M.M.M.M.M.M.M.M.M.M.M.M.M.M.M.M.M.M.M.M.M.M.M.M.M.M.-.3 X C y.M.M.M.M.M.M.M.M.M.M.M.{ @ @ j M.M.M.M.M.M.M.M.",
"M.M.M.M.M.M.M.M.M.M.M.M.M.M.M.M.M.M.M.M.M.M.M.M.M.M.M.-.3 X C y.M.M.M.M.M.M.M.M.M.M.M.{ @ @ b M.M.M.M.M.M.M.M.",
"M.M.M.M.M.M.M.M.M.M.4.o.{ { ' ' ' ' ' ' { ' ' ' { { ' U = @ j $.j.M.M.M.M.M.M.M.M.M.M.-.3 = W M.M.M.M.M.M.M.M.",
"M.M.M.M.M.M.M.M.M.-.G u w 3 3 w 3 3 w w 3 3 3 3 3 3 w 3 @ @ = j ' j.M.M.M.M.M.M.M.M.M.y._ W 4.M.M.M.M.M.M.M.M.",
"M.M.M.M.M.M.M.M.j.C = @ = = = = = = = = = = = = = = = = 3 3 @ @ w :.M.M.M.M.M.M.M.M.M.M.j.j.M.M.M.M.M.M.M.M.M.",
"M.M.M.M.M.M.M.M.:.w @ u U ) ) ) ) ) _ _ ) _ ) ) ) ) ) ) ) ) b = X ) M.M.M.M.M.M.M.M.M.M.M.M.M.M.M.M.M.M.M.M.M.",
"M.M.M.M.M.M.M.M.o.= @ L 4.j.j.j.j.j.M.M.M.M.j.j.j.j.j.j.j.M.{ 3 X C j.M.M.M.M.M.M.M.M.M.M.M.M.M.M.M.M.M.M.M.M.",
"M.M.M.M.M.M.M.M.{ @ @ W y.M.M.M.M.M.M.M.M.M.M.M.M.M.M.M.M.M.-.3 X C j.M.M.M.M.M.M.M.M.M.M.M.M.M.M.M.M.M.M.M.M.",
"M.M.M.M.M.M.M.M.{ @ @ W y.M.M.M.M.M.M.M.M.M.M.M.M.M.M.M.M.M.$.3 X C j.M.M.M.M.M.M.M.M.M.M.M.M.M.M.M.M.M.M.M.M.",
"M.M.M.M.M.M.M.M.{ @ @ W y.M.M.M.M.M.M.M.M.M.M.M.M.M.M.M.M.M.$.3 X C j.M.M.M.M.M.M.M.M.M.M.M.M.M.M.M.M.M.M.M.M.",
"M.M.M.M.M.M.M.M.{ @ @ W y.M.M.M.M.M.M.M.M.M.M.M.M.M.M.M.M.M.$.3 X C j.M.M.M.M.M.M.M.M.M.M.M.M.M.M.M.M.M.M.M.M.",
"M.M.M.M.M.M.M.M.{ @ @ W y.M.M.M.M.M.M.M.M.M.M.M.M.M.M.M.M.M.$.3 X C j.M.M.M.M.M.M.M.M.M.M.M.M.M.M.M.M.M.M.M.M.",
"M.M.M.M.M.M.M.M.{ @ @ W y.M.M.M.M.M.M.M.M.M.M.M.M.M.M.M.M.M.$.3 X C j.M.M.M.M.M.M.M.M.M.M.M.M.M.M.M.M.M.M.M.M.",
"M.M.M.M.M.M.M.M.{ @ @ W y.M.M.M.M.M.M.M.M.M.M.M.M.M.M.M.M.M.$.3 X C j.M.M.M.M.M.M.M.M.M.M.M.M.M.M.M.M.M.M.M.M.",
"M.M.M.M.M.M.M.M.{ @ @ W y.M.M.M.M.M.M.M.M.M.M.M.M.M.M.M.M.M.$.3 X C j.M.M.M.M.M.M.M.M.M.M.M.M.M.M.M.M.M.M.M.M.",
"M.M.M.M.M.M.M.M.{ @ @ W y.M.M.M.M.M.M.M.M.M.M.M.M.M.M.M.M.M.$.3 X C j.M.M.M.M.M.M.M.M.M.M.M.M.M.M.M.M.M.M.M.M.",
"M.M.M.M.M.M.M.M.{ @ @ W y.M.M.M.M.M.M.M.M.M.M.M.M.M.M.M.M.M.$.3 X C j.M.M.M.M.M.M.M.M.M.M.M.M.M.M.M.M.M.M.M.M.",
"M.M.M.M.M.M.M.M.{ @ @ W y.M.M.M.M.M.M.M.M.M.M.M.M.M.M.M.M.M.$.3 X C j.M.M.M.M.M.M.M.M.M.M.M.M.M.M.M.M.M.M.M.M.",
"M.M.M.M.M.M.M.M.{ @ @ W y.M.M.M.M.M.M.M.M.M.M.M.M.M.M.M.M.M.$.3 X C j.M.M.M.M.M.M.M.M.M.M.M.M.M.M.M.M.M.M.M.M.",
"M.M.M.M.M.M.M.M.{ @ @ W y.M.M.M.M.M.M.M.M.M.M.M.M.M.M.M.M.M.-.3 X C j.M.M.M.M.M.M.M.M.M.M.M.M.M.M.M.M.M.M.M.M.",
"M.M.M.M.M.M.M.M.$.= @ M :.r.r.r.r.r.r.r.r.r.r.r.r.r.r.r.r.r.W = X G j.M.M.M.M.M.M.M.M.M.M.M.M.M.M.M.M.M.M.M.M.",
"M.M.M.M.M.M.M.M.4.u @ 3 f b b b b b b b b b b b b b b b b b w @ @ ' M.M.M.M.M.M.M.M.M.M.M.M.M.M.M.M.M.M.M.M.M.",
"M.M.M.M.M.M.M.M.M.W 3 @ @ @ @ @ @ @ @ @ @ @ @ @ @ @ @ @ @ @ X X b r.M.M.M.M.M.M.M.M.M.M.M.M.M.M.M.M.M.M.M.M.M.",
"M.M.M.M.M.M.M.M.M.r.' C b j j j j j j j j j j j j j j j j j M W 2.M.M.M.M.M.M.M.M.M.M.M.M.M.M.M.M.M.M.M.M.M.M.",
"M.M.M.M.M.M.M.M.M.M.j.r.4.4.4.4.4.4.4.4.4.4.4.4.4.4.4.4.4.4.4.y.M.M.M.M.M.M.M.M.M.M.M.M.M.M.M.M.M.M.M.M.M.M.M.",
"M.M.M.M.M.M.M.M.M.M.M.M.M.M.M.M.M.M.M.M.M.M.M.M.M.M.M.M.M.M.M.M.M.M.M.M.M.M.M.M.M.M.M.M.M.M.M.M.M.M.M.M.M.M.M.",
"M.M.M.M.M.M.M.M.M.M.M.M.M.M.M.M.M.M.M.M.M.M.M.M.M.M.M.M.M.M.M.M.M.M.M.M.M.M.M.M.M.M.M.M.M.M.M.M.M.M.M.M.M.M.M.",
"M.M.M.M.M.M.M.M.M.M.M.M.M.M.M.M.M.M.M.M.M.M.M.M.M.M.M.M.M.M.M.M.M.M.M.M.M.M.M.M.M.M.M.M.M.M.M.M.M.M.M.M.M.M.M.",
"M.M.M.M.M.M.M.M.M.M.M.M.M.M.M.M.M.M.M.M.M.M.M.M.M.M.M.M.M.M.M.M.M.M.M.M.M.M.M.M.M.M.M.M.M.M.M.M.M.M.M.M.M.M.M.",
"M.M.M.M.M.M.M.M.M.M.M.M.M.M.M.M.M.M.M.M.M.M.M.M.M.M.M.M.M.M.M.M.M.M.M.M.M.M.M.M.M.M.M.M.M.M.M.M.M.M.M.M.M.M.M.",
"M.M.M.M.M.M.M.M.M.M.M.M.M.M.M.M.M.M.M.M.M.M.M.M.M.M.M.M.M.M.M.M.M.M.M.M.M.M.M.M.M.M.M.M.M.M.M.M.M.M.M.M.M.M.M.",
"M.M.M.M.M.M.M.M.M.M.M.M.M.M.M.M.M.M.M.M.M.M.M.M.M.M.M.M.M.M.M.M.M.M.M.M.M.M.M.M.M.M.M.M.M.M.M.M.M.M.M.M.M.M.M.",
"M.M.M.M.M.M.M.M.M.M.M.M.M.M.M.M.M.M.M.M.M.M.M.M.M.M.M.M.M.M.M.M.M.M.M.M.M.M.M.M.M.M.M.M.M.M.M.M.M.M.M.M.M.M.M.",
"M.M.M.M.M.M.M.M.M.M.M.M.M.M.M.M.M.M.M.M.M.M.M.M.M.M.M.M.M.M.M.M.M.M.M.M.M.M.M.M.M.M.M.M.M.M.M.M.M.M.M.M.M.M.M."
};
