/* XPM */
static char *lock[] = {
/* columns rows colors chars-per-pixel */
"55 55 144 2 ",
"   c None",
".  c gray11",
"X  c #1D1D1D",
"o  c #1E1E1E",
"O  c gray12",
"+  c #202020",
"@  c gray13",
"#  c #222222",
"$  c #232323",
"%  c gray14",
"&  c #252525",
"*  c gray15",
"=  c #272727",
"-  c #282828",
";  c gray16",
":  c #2A2A2A",
">  c gray17",
",  c #2C2C2C",
"<  c #2D2D2D",
"1  c gray18",
"2  c #2F2F2F",
"3  c #323232",
"4  c gray20",
"5  c #353535",
"6  c gray21",
"7  c gray22",
"8  c #393939",
"9  c #3A3A3A",
"0  c gray23",
"q  c gray24",
"w  c #3E3E3E",
"e  c #3F3F3F",
"r  c gray25",
"t  c #434343",
"y  c #444444",
"u  c gray27",
"i  c gray28",
"p  c #484848",
"a  c gray29",
"s  c #4B4B4B",
"d  c #4C4C4C",
"f  c gray30",
"g  c #4E4E4E",
"h  c gray31",
"j  c #505050",
"k  c #515151",
"l  c gray32",
"z  c #555555",
"x  c #565656",
"c  c gray34",
"v  c #585858",
"b  c gray35",
"n  c #5A5A5A",
"m  c #5D5D5D",
"M  c gray37",
"N  c gray38",
"B  c #646464",
"V  c gray40",
"C  c #686868",
"Z  c DimGray",
"A  c gray42",
"S  c #6C6C6C",
"D  c #6D6D6D",
"F  c gray44",
"G  c #717171",
"H  c gray46",
"J  c #767676",
"K  c #777777",
"L  c #797979",
"P  c gray50",
"I  c #808080",
"U  c gray51",
"Y  c #848484",
"T  c #868686",
"R  c gray53",
"E  c #888888",
"W  c #8B8B8B",
"Q  c gray55",
"!  c #8E8E8E",
"~  c gray57",
"^  c #929292",
"/  c #979797",
"(  c #989898",
")  c gray60",
"_  c #9B9B9B",
"`  c #9D9D9D",
"'  c #9F9F9F",
"]  c #A0A0A0",
"[  c gray64",
"{  c gray65",
"}  c #A9A9A9",
"|  c #AEAEAE",
" . c #B2B2B2",
".. c gray70",
"X. c #B4B4B4",
"o. c gray71",
"O. c #B9B9B9",
"+. c #BBBBBB",
"@. c gray74",
"#. c gray",
"$. c gray75",
"%. c #C0C0C0",
"&. c #C5C5C5",
"*. c #CACACA",
"=. c #CBCBCB",
"-. c gray80",
";. c #CDCDCD",
":. c #CECECE",
">. c gray81",
",. c gray82",
"<. c #D2D2D2",
"1. c LightGray",
"2. c gray83",
"3. c gray84",
"4. c #D7D7D7",
"5. c #D8D8D8",
"6. c #DADADA",
"7. c gray86",
"8. c gainsboro",
"9. c #E1E1E1",
"0. c #E2E2E2",
"q. c #E4E4E4",
"w. c gray90",
"e. c #E7E7E7",
"r. c #E9E9E9",
"t. c #EAEAEA",
"y. c gray92",
"u. c #ECECEC",
"i. c gray93",
"p. c #EEEEEE",
"a. c gray94",
"s. c gray95",
"d. c #F3F3F3",
"f. c #F4F4F4",
"g. c gray96",
"h. c #F6F6F6",
"j. c gray97",
"k. c #F8F8F8",
"l. c #F9F9F9",
"z. c gray98",
"x. c #FBFBFB",
"c. c gray99",
"v. c #FDFDFD",
"b. c #FEFEFE",
/* pixels */
"                                                                                                              ",
"                                                                                                              ",
"                                                                                                              ",
"                                                                                                              ",
"                                                                                                              ",
"                                                                                                              ",
"                                                                                                              ",
"                                                                                                              ",
"                                                v.v.g.g.g.g.v.                                                ",
"                                            v.r.<.] B y f P #.w.g.                                            ",
"                                          g.=.J 5 $ $ $ $ $ : c ] r.v.                                        ",
"                                        g. .9 O $ : 5 9 5 : $ O : P w.v.                                      ",
"                                      v.#.5 $ : f W #.=.=.} B 5 $ : J r.                                      ",
"                                    v.7.f $ : D 7.          g.] 9 $ 5 ) v.                                    ",
"                                    g./ $ $ B r.              g.} 5 $ c 7.                                    ",
"                                    w.c $ 9 %.                  w.J O 5 )                                     ",
"                                  v.=.: $ m g.                  v. .: : J v.                                  ",
"                                  v.} $ : T                     v.<.y $ m r.                                  ",
"                                  g.) O : )                       7.c O c 7.                                  ",
"                                  g./ O : ]                       7.m O f 7.                                  ",
"                                  g./ O : )                       7.m $ f <.                                  ",
"                                  g./ O : )                       7.m $ f <.                                  ",
"                                  g./ O : )                       7.m $ f <.                                  ",
"                                v.7.P O : T <.<.<.<.<.<.<.<.<.<.<. .c $ y #.g.                                ",
"                              v.%.J 9 $ $ 5 y y y y y y y y y y y 9 : $ : m ) w.                              ",
"                            v.<.f O $ : : $ $ $ $ $ $ $ $ $ $ $ $ : : : $ $ 5 / v.                            ",
"                            v.W $ $ y D D D D D D D D D D D D D D D D D m : $ c r.                            ",
"                            v.9 $ : ) g.g.g.g.g.g.g.g.g.g.g.g.g.g.g.g.g.=.c O 9 7.                            ",
"                            g.$ $ 5 %.                                  w.J O 9 <.                            ",
"                            g.$ $ 5 #.                                  w.J O 9 <.                            ",
"                            g.$ $ 5 #.                                  w.J O 9 <.                            ",
"                            g.$ $ 5 #.                                  w.J O 9 <.                            ",
"                            g.$ $ 5 #.                                  w.D O 9 <.                            ",
"                            g.$ $ 5 #.                                  w.D O 9 <.                            ",
"                            g.$ $ 5 #.                                  w.D O 9 <.                            ",
"                            g.$ $ 5 #.                                  w.D O 9 <.                            ",
"                            v.$ $ 5 #.                                  w.J O 9 <.                            ",
"                            v.$ $ 5 #.                                  w.J O 9 <.                            ",
"                            v.$ $ 5 #.                                  w.J O 9 <.                            ",
"                            g.$ $ 5 #.                                  w.J O 9 <.                            ",
"                            g.$ $ 5 #.                                  w.D O 9 <.                            ",
"                            v.9 $ : ) r.r.r.r.r.r.r.r.r.r.r.r.r.r.r.r.r.=.c O 9 7.                            ",
"                            v.T $ $ f T T T T T T T T T T T T T T T T T D 5 $ c r.                            ",
"                            v.=.f $ $ $ $ $ $ $ $ $ $ $ $ $ $ $ $ $ $ $ $ $ 5 W v.                            ",
"                              g. .D f y y y y y y y y y y y y y y y y y f m W 7.                              ",
"                                v.7.#. . . . . . . . . . . . . . . . . .#.=.r.                                ",
"                                                                                                              ",
"                                                                                                              ",
"                                                                                                              ",
"                                                                                                              ",
"                                                                                                              ",
"                                                                                                              ",
"                                                                                                              ",
"                                                                                                              ",
"                                                                                                              "
};
