/* XPM */
static char *lock_broken[] = {
/* columns rows colors chars-per-pixel */
"55 55 172 2 ",
"   c None",
".  c #151515",
"X  c #161616",
"o  c gray9",
"O  c #191919",
"+  c gray10",
"@  c #1B1B1B",
"#  c gray11",
"$  c #1D1D1D",
"%  c gray12",
"&  c #202020",
"*  c gray13",
"=  c #222222",
"-  c #232323",
";  c gray14",
":  c #252525",
">  c gray15",
",  c #272727",
"<  c #282828",
"1  c gray16",
"2  c #2A2A2A",
"3  c gray17",
"4  c #2C2C2C",
"5  c #2D2D2D",
"6  c gray18",
"7  c #2F2F2F",
"8  c gray19",
"9  c #313131",
"0  c #323232",
"q  c #353535",
"w  c gray21",
"e  c #373737",
"r  c gray22",
"t  c #393939",
"y  c #3A3A3A",
"u  c #3C3C3C",
"i  c #3E3E3E",
"p  c #3F3F3F",
"a  c gray25",
"s  c #414141",
"d  c gray26",
"f  c #434343",
"g  c gray27",
"h  c #464646",
"j  c #484848",
"k  c #494949",
"l  c gray30",
"z  c #4E4E4E",
"x  c gray31",
"c  c #505050",
"v  c #515151",
"b  c #535353",
"n  c gray33",
"m  c #565656",
"M  c gray34",
"N  c #585858",
"B  c #5A5A5A",
"V  c gray36",
"C  c gray37",
"Z  c #5F5F5F",
"A  c #606060",
"S  c gray38",
"D  c #626262",
"F  c #646464",
"G  c #656565",
"H  c gray40",
"J  c #676767",
"K  c #686868",
"L  c DimGray",
"P  c #6A6A6A",
"I  c #6D6D6D",
"U  c gray43",
"Y  c #6F6F6F",
"T  c gray44",
"R  c gray45",
"E  c #747474",
"W  c #767676",
"Q  c #777777",
"!  c gray47",
"~  c #797979",
"^  c gray48",
"/  c #7B7B7B",
"(  c #7C7C7C",
")  c gray49",
"_  c gray50",
"`  c gray51",
"'  c #848484",
"]  c gray52",
"[  c gray53",
"{  c #898989",
"}  c gray54",
"|  c gray55",
" . c #8D8D8D",
".. c #8E8E8E",
"X. c gray56",
"o. c #909090",
"O. c gray59",
"+. c gray60",
"@. c #9A9A9A",
"#. c #9B9B9B",
"$. c gray61",
"%. c #9D9D9D",
"&. c #A0A0A0",
"*. c gray63",
"=. c #A2A2A2",
"-. c gray64",
";. c #A4A4A4",
":. c gray65",
">. c gray66",
",. c #A9A9A9",
"<. c #AAAAAA",
"1. c #ACACAC",
"2. c gray68",
"3. c #AEAEAE",
"4. c #AFAFAF",
"5. c #B2B2B2",
"6. c gray70",
"7. c gray71",
"8. c gray72",
"9. c #BBBBBB",
"0. c gray74",
"q. c gray75",
"w. c #C0C0C0",
"e. c #C1C1C1",
"r. c gray76",
"t. c #C3C3C3",
"y. c gray77",
"u. c #C5C5C5",
"i. c #C6C6C6",
"p. c gray78",
"a. c #CACACA",
"s. c #CBCBCB",
"d. c #CDCDCD",
"f. c gray82",
"g. c #D2D2D2",
"h. c LightGray",
"j. c #D5D5D5",
"k. c gray84",
"l. c #D8D8D8",
"z. c gray85",
"x. c #DADADA",
"c. c gray86",
"v. c gray87",
"b. c #DFDFDF",
"n. c gray88",
"m. c #E1E1E1",
"M. c #E4E4E4",
"N. c gray90",
"B. c #E6E6E6",
"V. c #E7E7E7",
"C. c gray91",
"Z. c #E9E9E9",
"A. c #EAEAEA",
"S. c gray92",
"D. c #ECECEC",
"F. c gray93",
"G. c #EEEEEE",
"H. c #EFEFEF",
"J. c #F1F1F1",
"K. c gray95",
"L. c #F3F3F3",
"P. c #F4F4F4",
"I. c gray96",
"U. c #F6F6F6",
"Y. c gray97",
"T. c #F8F8F8",
"R. c #F9F9F9",
"E. c gray98",
"W. c #FBFBFB",
"Q. c gray99",
"!. c #FDFDFD",
"~. c #FEFEFE",
/* pixels */
"                                                                                                              ",
"                                                                                                              ",
"                                                                                                              ",
"                                                                                                              ",
"                                                                                                              ",
"                                                                                                              ",
"                                                                                                              ",
"                                                                                                              ",
"                                                                                                              ",
"                                                                                                              ",
"                                                                                                              ",
"                                                                                                              ",
"                                                              !.n.9.&.#.<.f.I.                                ",
"                                                            n. .h 7 : : : 9 I x.!.                            ",
"                                                          d.F : : 9 z M h 7 O z r.!.                          ",
"                                                        x.I : r  .f.I.I.n.<.M : M f.!.                        ",
"                                                      !.#.9 r &.I.!.    !.!.d.h :  .A.                        ",
"                                                      x.I : ) n.            !. .7 z f.!.                      ",
"                                                      9.h r <.!.              r.h 7 7.!.                      ",
"                                                      <.9 z r.                n.M : #.I.                      ",
"                                                    !.&.9 M d.                A.N : O.A.                      ",
"                                                    !.&.7 N d.                A.F :  .A.                      ",
"                                                    !.&.7 N d.                A.F :  .A.                      ",
"                                                      &.9 N d.                A.N :  .A.                      ",
"                        !.n.#.) ) ) ) ) ) ) ) ) ) ) ) M 7 h #.A.              I.) 9 <.I.                      ",
"                      !.x.M O . . . . . . . . . . . . O O O : W n.              I.n.!.                        ",
"                      I.#.. : F W W W W W W W W W W W W W M 7 r <.                                            ",
"                      !.r.<.7.!.                          r.M 7 #.!.                                          ",
"                                                          d.M 7 #.!.                                          ",
"                      !.r.) <.!.                          d.M 7 #.!.                                          ",
"                    !.f.9 O 7 <.                          d.M 7 #.!.                                          ",
"                    A.W O : : N n.                        d.M 7 #.!.                                          ",
"                  !.9.7 7 r 7 9 O.                        d.M 7 #.!.                                          ",
"                  n.N : F A.#.: z f.                      d.M 7 #.!.                                          ",
"                I.&.: : W !.7.: 7 [ !.                    d.M 7 #.!.                                          ",
"              !.x.z : : I I.<.: : h r.                    d.M 7 #.!.                                          ",
"              I. .O : : I I.&.: : 7 I I.                  d.M 7 #.!.                                          ",
"            !.f.r : : : F I.&.O : : r <.!.                d.M 7 #.!.                                          ",
"            A.) O : : : z 9.I : : : 7 F A.  !.!.!.!.!.!.!.r.M 7 #.!.                                          ",
"          !.r.7 : : : : 7 h 9 : : : : 9 #.!.n.#. . . . . .F 7 r <.!.                                          ",
"          A.F O : : : 7 W A.<.7 : : : : M x.n.I . O O O O O : W x.                                            ",
"        !.7.: : : : : 7 [ I.r.7 : : : : 9  .I.r.I F F F F I #.x.                                              ",
"        I.) O : : : : : 9 N h : : : : : : F A.                                                                ",
"        I.&.: : : : : : : O O : : : : : 7 ) !.                                                                ",
"          I.<.[ [ [ [ [ [ [ [ [ [ [ [ [ &.A.                                                                  ",
"                                                                                                              ",
"                                                                                                              ",
"                                                                                                              ",
"                                                                                                              ",
"                                                                                                              ",
"                                                                                                              ",
"                                                                                                              ",
"                                                                                                              ",
"                                                                                                              ",
"                                                                                                              "
};
