/* XPM */
static char *lock_open[] = {
/* columns rows colors chars-per-pixel */
"55 55 147 2 ",
"   c None",
".  c gray11",
"X  c #1D1D1D",
"o  c #1E1E1E",
"O  c gray12",
"+  c #202020",
"@  c gray13",
"#  c #222222",
"$  c #232323",
"%  c gray14",
"&  c #252525",
"*  c gray15",
"=  c #272727",
"-  c #282828",
";  c gray16",
":  c #2C2C2C",
">  c #2D2D2D",
",  c gray18",
"<  c #2F2F2F",
"1  c gray19",
"2  c #313131",
"3  c #323232",
"4  c gray20",
"5  c #343434",
"6  c #353535",
"7  c gray21",
"8  c #373737",
"9  c gray22",
"0  c #393939",
"q  c gray23",
"w  c #3C3C3C",
"e  c gray24",
"r  c gray25",
"t  c #414141",
"y  c gray26",
"u  c #434343",
"i  c #444444",
"p  c gray27",
"a  c #464646",
"s  c gray28",
"d  c #484848",
"f  c gray29",
"g  c gray31",
"h  c #515151",
"j  c gray33",
"k  c #555555",
"l  c #565656",
"z  c gray34",
"x  c #585858",
"c  c gray35",
"v  c #5A5A5A",
"b  c gray36",
"n  c #5F5F5F",
"m  c #606060",
"M  c #646464",
"N  c #676767",
"B  c #686868",
"V  c DimGray",
"C  c #6A6A6A",
"Z  c gray42",
"A  c #6C6C6C",
"S  c #6D6D6D",
"D  c gray43",
"F  c #6F6F6F",
"G  c gray44",
"H  c gray46",
"J  c #767676",
"K  c #777777",
"L  c gray47",
"P  c #797979",
"I  c #818181",
"U  c gray51",
"Y  c #848484",
"T  c #868686",
"R  c gray53",
"E  c #888888",
"W  c gray54",
"Q  c gray55",
"!  c #8D8D8D",
"~  c #8E8E8E",
"^  c #909090",
"/  c #939393",
"(  c gray58",
")  c gray59",
"_  c #979797",
"`  c #989898",
"'  c gray63",
"]  c #A4A4A4",
"[  c #A5A5A5",
"{  c #A7A7A7",
"}  c gray66",
"|  c #AAAAAA",
" . c gray67",
".. c #ACACAC",
"X. c gray68",
"o. c #AEAEAE",
"O. c #B2B2B2",
"+. c #B4B4B4",
"@. c #B7B7B7",
"#. c gray72",
"$. c #BBBBBB",
"%. c gray75",
"&. c #C0C0C0",
"*. c #C1C1C1",
"=. c #C3C3C3",
"-. c gray77",
";. c #C5C5C5",
":. c #CACACA",
">. c #CBCBCB",
",. c gray80",
"<. c #CECECE",
"1. c #D0D0D0",
"2. c #D2D2D2",
"3. c #D7D7D7",
"4. c #D8D8D8",
"5. c gray85",
"6. c #DADADA",
"7. c gray86",
"8. c #DDDDDD",
"9. c gray87",
"0. c #E1E1E1",
"q. c #E2E2E2",
"w. c gray89",
"e. c #E4E4E4",
"r. c gray90",
"t. c #E7E7E7",
"y. c #EAEAEA",
"u. c gray92",
"i. c #ECECEC",
"p. c gray93",
"a. c #EEEEEE",
"s. c #EFEFEF",
"d. c gray94",
"f. c #F1F1F1",
"g. c gray95",
"h. c #F3F3F3",
"j. c #F4F4F4",
"k. c gray96",
"l. c #F6F6F6",
"z. c gray97",
"x. c #F8F8F8",
"c. c #F9F9F9",
"v. c gray98",
"b. c #FBFBFB",
"n. c gray99",
"m. c #FDFDFD",
"M. c #FEFEFE",
/* pixels */
"                                                                                                              ",
"                                                                                                              ",
"                                                                                                              ",
"                                                                                                              ",
"                                                                                                              ",
"                                                                                                              ",
"                                                                                                              ",
"                                                                                                              ",
"                                                                  M.k.u.t.t.u.k.M.                            ",
"                                                              M.u.>.] H k g Z _ ;.t.M.                        ",
"                                                            M.5.Q i # # # # # # 4 Z ;.k.                      ",
"                                                          M.>.n # # - e g g i 4 # o e ] k.                    ",
"                                                          5.n # # i Y O.>.3.;._ n - # 4 } M.                  ",
"                                                        k.P # # k ;.M.          5.H - o i 3.M.                ",
"                                                        O.4 # k 3.M.              k.Y # # H k.                ",
"                                                      M.H - # ] k.                  5.i # e 5.                ",
"                                                      u.g # e 5.M.                  M.Z # # %.                ",
"                                                      3.e # n u.                      _ # o Q                 ",
"                                                      >.4 o N u.                      ] # # Z M.              ",
"                                                      ;.4 o Z u.                      } # # n M.              ",
"                                                      ;.4 o Z u.                      } # # k M.              ",
"                                                      ;.4 o Z u.                      } # # k M.              ",
"                                                      ;.4 o Z u.                      } # # n M.              ",
"                  M.5.O.} } ] ] ] ] ] ] } ] ] ] } } ] Y - # k %.k.                    ;.4 - Q                 ",
"                M.;.H i e 4 4 4 4 4 e e 4 4 4 4 4 4 e 4 # # - k ] k.                  u.` Q 5.                ",
"                k.Z - # - - - - - - - - - - - - - - - 4 4 4 # # e >.M.                  k.k.                  ",
"                >.e # i Y _ _ _ _ _ ` ` _ ` _ _ _ _ _ _ _ _ n - o _ M.                                        ",
"                O.- # P 5.k.M.k.k.k.M.M.M.M.k.k.k.k.k.k.k.k.] - o Z k.                                        ",
"                } # # Q u.                                  ;.4 o Z k.                                        ",
"                } # # Q u.                                  %.4 o Z k.                                        ",
"                } # # Q u.                                  %.4 o Z k.                                        ",
"                } # # Q u.                                  %.4 o Z k.                                        ",
"                } # # Q u.                                  %.4 o Z k.                                        ",
"                } # # Q u.                                  %.4 o Z k.                                        ",
"                } # # Q u.                                  %.4 o Z k.                                        ",
"                } # # Q u.                                  %.4 o Z k.                                        ",
"                } # # Q u.                                  %.4 o Z k.                                        ",
"                } # # Q u.                                  %.4 o Z k.                                        ",
"                } # # Q u.                                  %.4 o Z k.                                        ",
"                } # # Q u.                                  %.4 o Z k.                                        ",
"                } # # Q u.                                  ;.4 o Z k.                                        ",
"                %.- # N >.t.t.t.t.t.t.t.t.t.t.t.t.t.t.t.t.t.Q - o H k.                                        ",
"                5.i # 4 g n n n n n n n n n n n n n n n n n e # # ] M.                                        ",
"                M.Q 4 # # # # # # # # # # # # # # # # # # # o o n t.M.                                        ",
"                  t.] Z n k k k k k k k k k k k k k k k k k N Q 3.M.                                          ",
"                    k.t.5.5.5.5.5.5.5.5.5.5.5.5.5.5.5.5.5.5.5.u.M.                                            ",
"                                                                                                              ",
"                                                                                                              ",
"                                                                                                              ",
"                                                                                                              ",
"                                                                                                              ",
"                                                                                                              ",
"                                                                                                              ",
"                                                                                                              ",
"                                                                                                              "
};
