/* XPM */
static char *lock_ok_dark[] = {
/* columns rows colors chars-per-pixel */
"55 55 171 2 ",
"   c black",
".  c #010101",
"X  c #020202",
"o  c gray1",
"O  c #040404",
"+  c gray2",
"@  c #060606",
"#  c #070707",
"$  c gray3",
"%  c #090909",
"&  c gray4",
"*  c #0B0B0B",
"=  c #0C0C0C",
"-  c gray5",
";  c #0E0E0E",
":  c gray6",
">  c #101010",
",  c #111111",
"<  c gray7",
"1  c #131313",
"2  c gray8",
"3  c #151515",
"4  c #161616",
"5  c gray9",
"6  c #181818",
"7  c gray10",
"8  c #1B1B1B",
"9  c gray11",
"0  c #1D1D1D",
"q  c #1E1E1E",
"w  c gray12",
"e  c #202020",
"r  c gray13",
"t  c #222222",
"y  c #232323",
"u  c gray14",
"i  c #252525",
"p  c #272727",
"a  c #282828",
"s  c gray16",
"d  c gray17",
"f  c #2C2C2C",
"g  c #2D2D2D",
"h  c gray18",
"j  c gray19",
"k  c #313131",
"l  c #323232",
"z  c gray20",
"x  c #343434",
"c  c #353535",
"v  c gray21",
"b  c #393939",
"n  c #3A3A3A",
"m  c gray23",
"M  c #3E3E3E",
"N  c #3F3F3F",
"B  c gray25",
"V  c #414141",
"C  c gray26",
"Z  c #434343",
"A  c #444444",
"S  c gray27",
"D  c #464646",
"F  c #494949",
"G  c gray29",
"H  c #4B4B4B",
"J  c #4C4C4C",
"K  c gray30",
"L  c #505050",
"P  c #515151",
"I  c #555555",
"U  c #565656",
"Y  c gray35",
"T  c #5B5B5B",
"R  c gray36",
"E  c #5D5D5D",
"W  c #5F5F5F",
"Q  c #606060",
"!  c #626262",
"~  c #646464",
"^  c gray40",
"/  c #676767",
"(  c #686868",
")  c #6A6A6A",
"_  c #6D6D6D",
"`  c gray43",
"'  c #717171",
"]  c gray45",
"[  c #747474",
"{  c gray46",
"}  c #777777",
"|  c gray47",
" . c #797979",
".. c #7B7B7B",
"X. c #7C7C7C",
"o. c gray49",
"O. c gray50",
"+. c #808080",
"@. c #818181",
"#. c #838383",
"$. c gray52",
"%. c #868686",
"&. c #888888",
"*. c #898989",
"=. c gray54",
"-. c #8B8B8B",
";. c #8E8E8E",
":. c gray56",
">. c #929292",
",. c #939393",
"<. c gray58",
"1. c gray59",
"2. c #979797",
"3. c gray60",
"4. c #9B9B9B",
"5. c #9D9D9D",
"6. c gray62",
"7. c gray63",
"8. c #A2A2A2",
"9. c #A5A5A5",
"0. c gray65",
"q. c #A7A7A7",
"w. c gray66",
"e. c #A9A9A9",
"r. c #AAAAAA",
"t. c gray68",
"y. c #AEAEAE",
"u. c #AFAFAF",
"i. c gray69",
"p. c #B1B1B1",
"a. c #B2B2B2",
"s. c gray70",
"d. c #B4B4B4",
"f. c gray71",
"g. c #B7B7B7",
"h. c gray72",
"j. c gray73",
"k. c #BBBBBB",
"l. c #BCBCBC",
"z. c gray75",
"x. c #C0C0C0",
"c. c #C1C1C1",
"v. c gray76",
"b. c gray77",
"n. c #C5C5C5",
"m. c #C6C6C6",
"M. c gray78",
"N. c gray79",
"B. c #CACACA",
"V. c gray80",
"C. c #CDCDCD",
"Z. c #D0D0D0",
"A. c gray82",
"S. c #D2D2D2",
"D. c LightGray",
"F. c gray83",
"G. c #D5D5D5",
"H. c gray84",
"J. c #D7D7D7",
"K. c #D8D8D8",
"L. c gray85",
"P. c #DADADA",
"I. c gray86",
"U. c gainsboro",
"Y. c #DDDDDD",
"T. c gray87",
"R. c #DFDFDF",
"E. c gray88",
"W. c #E1E1E1",
"Q. c #E2E2E2",
"!. c gray89",
/* pixels */
"                                                                                                              ",
"                                                                                                              ",
"                                                                                                              ",
"                                                                                                              ",
"                                                                                                              ",
"                                                                                                              ",
"                                                                                                              ",
"                                                                                                              ",
"                                                    & & & &                                                   ",
"                                              4 g W 4.k.a.+.V 7 &                                             ",
"                                          & x *.B.U.U.U.U.U.G.w.W 4                                           ",
"                                        & K n.E.U.G.B.n.B.G.U.E.G.+.7                                         ",
"                                        V B.U.G.a.[ V x x U 4.B.U.G.*.4                                       ",
"                                      u a.U.G.>.u           & W n.U.B.^                                       ",
"                                    & ( U.U.4.4               & U B.U.w.u                                     ",
"                                    7 w.U.n.N                   7 *.E.B.^                                     ",
"                                    x G.U.8.&                     K G.G.*.                                    ",
"                                    U U.G. .                      g k.U.8.4                                   ",
"                                  & ^ E.G.^                       u w.E.w.u                                   ",
"                                  & ( E.G.W                       u 8.E.a.u                                   ",
"                                  & ( E.G.^                       u 8.U.a.g                                   ",
"                                  & ( E.G.^                       u 8.U.a.g                                   ",
"                                  & ( E.G.^                       u 8.U.a.g                                   ",
"                                  u +.E.G. .g g g g g g g g g g g K w.U.k.V &                                 ",
"                                N *.n.U.U.B.k.k.k.k.k.k.k.k.k.k.k.n.G.U.G.8.^ 7                               ",
"                              g a.E.U.G.G.U.U.U.U.U.U.U.U.U.U.U.U.G.G.G.U.U.B.(                               ",
"                              [ U.U.k.>.>.>.>.>.>.>.>.>.>.>.>.>.>.>.>.>.8.G.U.w.4                             ",
"                              n.U.G.^ & & & & & & & & & & & & & & & & & x w.E.n.u                             ",
"                            & U.U.B.N                                   7 *.E.n.g                             ",
"                            & U.U.B.V               u N x 4             7 *.E.n.g                             ",
"                            & U.U.B.V           7 +.[ U W  .^ &         7 *.E.n.g                             ",
"                            & U.U.B.V         & +.K & & & u ^ V         7 *.E.n.g                             ",
"                            & U.U.B.V         V  .      u U u W &       7 >.E.n.g                             ",
"                            & U.U.B.V         4.N   & & W K 4 ^ 7       7 >.E.n.g                             ",
"                            & U.U.B.V         8.N 7  .V ( & 4 ^ u       7 >.E.n.g                             ",
"                            & U.U.B.V         V [   K 8.7   u ^ 4       7 >.E.n.g                             ",
"                              U.U.B.V         & >.N   &   4 W K         7 *.E.n.g                             ",
"                              U.U.B.V           u >.[ V U +.[ &         7 *.E.n.g                             ",
"                            & U.U.B.V             & V *.[ g             7 *.E.n.g                             ",
"                            & U.U.B.V                                   7 *.E.n.g                             ",
"                            & U.U.B.V                                   7 >.E.n.g                             ",
"                              n.U.G.^ 4 4 4 4 4 4 4 4 4 4 4 4 4 4 4 4 4 x w.E.n.u                             ",
"                               .U.U.a. . . . . . . . . . . . . . . . . .>.B.U.w.4                             ",
"                              x a.U.U.U.U.U.U.U.U.U.U.U.U.U.U.U.U.U.U.U.U.U.B.[                               ",
"                              & K >.a.k.k.k.k.k.k.k.k.k.k.k.k.k.k.k.k.k.a.8.[ u                               ",
"                                  u V K K K K K K K K K K K K K K K K K V x 4                                 ",
"                                                                                                              ",
"                                                                                                              ",
"                                                                                                              ",
"                                                                                                              ",
"                                                                                                              ",
"                                                                                                              ",
"                                                                                                              ",
"                                                                                                              ",
"                                                                                                              "
};
