/* XPM */
static char *new[] = {
/* columns rows colors chars-per-pixel */
"55 55 177 2 ",
"   c #191919",
".  c #1D1D1D",
"X  c #1E1E1E",
"o  c gray12",
"O  c #202020",
"+  c gray13",
"@  c #222222",
"#  c #232323",
"$  c gray14",
"%  c #252525",
"&  c gray15",
"*  c #272727",
"=  c #282828",
"-  c gray16",
";  c #2A2A2A",
":  c gray17",
">  c #2C2C2C",
",  c #2D2D2D",
"<  c gray18",
"1  c #2F2F2F",
"2  c gray19",
"3  c #313131",
"4  c #323232",
"5  c gray20",
"6  c #343434",
"7  c #353535",
"8  c gray21",
"9  c #373737",
"0  c #393939",
"q  c #3A3A3A",
"w  c #3C3C3C",
"e  c gray24",
"r  c #3E3E3E",
"t  c #3F3F3F",
"y  c gray25",
"u  c #414141",
"i  c gray26",
"p  c #434343",
"a  c #444444",
"s  c gray27",
"d  c gray28",
"f  c #484848",
"g  c #494949",
"h  c gray29",
"j  c #4B4B4B",
"k  c #4C4C4C",
"l  c gray30",
"z  c #4E4E4E",
"x  c gray31",
"c  c #505050",
"v  c #515151",
"b  c gray32",
"n  c #535353",
"m  c #555555",
"M  c gray34",
"N  c gray35",
"B  c #5A5A5A",
"V  c #5B5B5B",
"C  c #5D5D5D",
"Z  c #5F5F5F",
"A  c #606060",
"S  c gray38",
"D  c #626262",
"F  c #656565",
"G  c #676767",
"H  c #686868",
"J  c DimGray",
"K  c #6A6A6A",
"L  c #6F6F6F",
"P  c #717171",
"I  c #727272",
"U  c #747474",
"Y  c #797979",
"T  c #7B7B7B",
"R  c #7C7C7C",
"E  c #7E7E7E",
"W  c #818181",
"Q  c gray51",
"!  c #838383",
"~  c #848484",
"^  c gray52",
"/  c #868686",
"(  c #888888",
")  c #898989",
"_  c gray54",
"`  c gray55",
"'  c #8D8D8D",
"]  c #8E8E8E",
"[  c #909090",
"{  c #929292",
"}  c #939393",
"|  c gray58",
" . c #979797",
".. c #989898",
"X. c gray60",
"o. c #9A9A9A",
"O. c gray61",
"+. c #A0A0A0",
"@. c gray63",
"#. c #A2A2A2",
"$. c #A4A4A4",
"%. c #A5A5A5",
"&. c gray65",
"*. c #A7A7A7",
"=. c #AAAAAA",
"-. c #ACACAC",
";. c #AFAFAF",
":. c #B1B1B1",
">. c #B2B2B2",
",. c gray70",
"<. c #B4B4B4",
"1. c gray71",
"2. c #B6B6B6",
"3. c #B7B7B7",
"4. c gray72",
"5. c #B9B9B9",
"6. c #BBBBBB",
"7. c gray74",
"8. c #C0C0C0",
"9. c #C1C1C1",
"0. c gray76",
"q. c gray77",
"w. c #C5C5C5",
"e. c #C6C6C6",
"r. c gray78",
"t. c #C8C8C8",
"y. c gray79",
"u. c #CACACA",
"i. c #CBCBCB",
"p. c gray80",
"a. c #CDCDCD",
"s. c #CECECE",
"d. c gray81",
"f. c #D2D2D2",
"g. c LightGray",
"h. c gray83",
"j. c #D5D5D5",
"k. c gray84",
"l. c #D7D7D7",
"z. c gray85",
"x. c #DADADA",
"c. c gray86",
"v. c gainsboro",
"b. c #DDDDDD",
"n. c gray87",
"m. c #DFDFDF",
"M. c gray88",
"N. c #E1E1E1",
"B. c #E2E2E2",
"V. c #E4E4E4",
"C. c gray90",
"Z. c #E6E6E6",
"A. c #E7E7E7",
"S. c gray91",
"D. c #E9E9E9",
"F. c #EAEAEA",
"G. c gray92",
"H. c #ECECEC",
"J. c gray93",
"K. c #EEEEEE",
"L. c #EFEFEF",
"P. c gray94",
"I. c #F1F1F1",
"U. c gray95",
"Y. c #F3F3F3",
"T. c #F4F4F4",
"R. c gray96",
"E. c #F6F6F6",
"W. c gray97",
"Q. c #F8F8F8",
"!. c #F9F9F9",
"~. c gray98",
"^. c #FBFBFB",
"/. c gray99",
"(. c #FDFDFD",
"). c #FEFEFE",
"_. c white",
/* pixels */
"_._._._._._._._._._._._._._._._._._._._._._._._._._._._._._._._._._._._._._._._._._._._._._._._._._._._._._._.",
"_._._._._._._._._._._._._._._._._._._._._._._._._._._._._._._._._._._._._._._._._._._._._._._._._._._._._._._.",
"_._._._._._._._._._._._._._._._._._._._._._._._._._._._._._._._._._._._._._._._._._._._._._._._._._._._._._._.",
"_._._._._._._._._._._._._._._._._._._._._._._._._._._._._._._._._._._._._._._._._._._._._._._._._._._._._._._.",
"_._._._._._._._._._._._._._._._._._._._._._._._._._._._._._._._._._._._._._._._._._._._._._._._._._._._._._._.",
"_._._._._._._._._._._._._._._._._._._._._._._._._._._._._._._._._._._._._._._._._._._._._._._._._._._._._._._.",
"_._._._._._._._._._._._._._._._._._._._._._._._._._._._._._._._._._._._._._._._._._._._._._._._._._._._._._._.",
"_._._._._._._._._._._._._._._.n.9.<.<.<.<.<.<.<.<.<.<.5.i.E._._._._._._._._._._._._._._._._._._._._._._._._._.",
"_._._._._._._._._._._._._.n.^ n u w w w w w w w w w w w z U i._._._._._._._._._._._._._._._._._._._._._._._._.",
"_._._._._._._._._._._._.Z.J 8 @ @ X X X X X X X X X @ @ @ < z 5._._._._._._._._._._._._._._._._._._._._._._._.",
"_._._._._._._._._._._._.&.< @ @ z G U J J J J J J J 8 @ @ @ @ z 9._._._._._._._._._._._._._._._._._._._._._._.",
"_._._._._._._._._._._.E.U @ @ U i.n.Z.Z.Z.Z.Z.Z.Z.n.z @ w z @ @ z 9._._._._._._._._._._._._._._._._._._._._._.",
"_._._._._._._._._._._.Z.V @ 8 i._._._._._._._._._.E.z @ z 5.V @ @ n 9._._._._._._._._._._._._._._._._._._._._.",
"_._._._._._._._._._._.n.n @ z Z._._._._._._._._._.S.z @ n Z.i.n @ @ n i._._._._._._._._._._._._._._._._._._._.",
"_._._._._._._._._._._.n.n @ z S._._._._._._._._._.S.z @ n S._.n.V @ @ u 9._._._._._._._._._._._._._._._._._._.",
"_._._._._._._._._._._.n.n @ z S._._._._._._._._._.S.z @ n S._._.n.V @ @ u 9._._._._._._._._._._._._._._._._._.",
"_._._._._._._._._._._.n.n @ z S._._._._._._._._._.S.z @ n S._._._.l.n @ @ u 9._._._._._._._._._._._._._._._._.",
"_._._._._._._._._._._.n.n @ z S._._._._._._._._._.S.z @ n S._._._._.l.n @ @ z i._._._._._._._._._._._._._._._.",
"_._._._._._._._._._._.n.n @ z S._._._._._._._._._.S.z @ n S._._._._._.l.n @ @ z i._._._._._._._._._._._._._._.",
"_._._._._._._._._._._.n.n @ z S._._._._._._._._._.S.z @ n S._._._._._._.i.z @ @ z i._._._._._._._._._._._._._.",
"_._._._._._._._._._._.n.n @ z S._._._._._._._._._.S.z @ n S._._._._._._._.i.z @ @ n n._._._._._._._._._._._._.",
"_._._._._._._._._._._.n.n @ z S._._._._._._._._._.E.z @ u l.E.E.E.E.E.E.E.E.9.u @ @ ' E._._._._._._._._._._._.",
"_._._._._._._._._._._.n.n @ z S._._._._._._._._._.E.V @ < z V V V V V V V V V w @ @ z Z._._._._._._._._._._._.",
"_._._._._._._._._._._.n.n @ z S._._._._._._._._._._.o.< X @ @ @ @ @ @ @ @ @ @ @ @ @ 8 l._._._._._._._._._._._.",
"_._._._._._._._._._._.n.n @ z S._._._._._._._._._._.S.o.n u u u u u u u u u w w < @ 8 i._._._._._._._._._._._.",
"_._._._._._._._._._._.n.n @ z S._._._._._._._._._._._.E.S.Z.Z.Z.Z.Z.Z.Z.Z.Z.Z.n.n @ 8 i._._._._._._._._._._._.",
"_._._._._._._._._._._.n.n @ z S._._._._._._._._._._._._._._._._._._._._._._._.E.V @ 8 i._._._._._._._._._._._.",
"_._._._._._._._._._._.n.n @ z S._._._._._._._._._._._._._._._._._._._._._._._.E.V @ 8 i._._._._._._._._._._._.",
"_._._._._._._._._._._.n.z X z Z._._._._._._._._._._._._._._._._._._._._._._._.E.V @ 8 i._._._._._._._._._._._.",
"_._._._._._._._._._._.S.{ Y ' E._._._._._._._._._._._._._._._._._._._._._._._.E.V @ < i._._._._._._._._._._._.",
"_._._._._._._._._._._._._.E._._._._._._._._._._._._._._._._._._._._._._._._._.E.V @ 8 i._._._._._._._._._._._.",
"_._._._._._._._._._._._._._._._._._._._._._._._._._._._._._._._._._._._._._._.E.V @ 8 i._._._._._._._._._._._.",
"_._._._._._._._._.S.<.^ G n G ^ 5.E._._._._._._._._._._._._._._._._._._._._._.E.V @ 8 i._._._._._._._._._._._.",
"_._._._._._._.E.;.n < @ @ @ @ @ < n <._._._._._._._._._._._._._._._._._._._._.E.V @ 8 i._._._._._._._._._._._.",
"_._._._._._.E.' 8 @ @ @ @ @ @ @ @ @ < ' E._._._._._._._._._._._._._._._._._._.E.V @ 8 i._._._._._._._._._._._.",
"_._._._._.E.^ 8 @ @ @ @ 8 V 8 @ @ @ @ @ ' E._._._._._._._._._._._._._._._._._.E.V @ 8 i._._._._._._._._._._._.",
"_._._._._.&.w @ @ @ @ @ { S.^ < @ @ @ @ < <._._._._._._._._._._._._._._._._._.E.V @ 8 i._._._._._._._._._._._.",
"_._._._.Z.V @ @ @ @ @ @ &._.o.< @ @ @ @ @ n Z._._._._._._._._._._._._._._._._.E.V @ 8 i._._._._._._._._._._._.",
"_._._._.&.w @ @ @ @ @ @ &._.o.< @ @ @ @ @ @ 5._._._._._._._._._._._._._._._._.E.V @ 8 i._._._._._._._._._._._.",
"_._._._.Y < @ @ X X X X &._.{ @ X X X @ @ X ^ E._._._._._._._._._._._._._._._.E.V @ 8 i._._._._._._._._._._._.",
"_._._.S.G < @ w Y o.o.o.l._.i.o.o.o.^ 8 @ X G S._._._._._._._._._._._._._._._.E.V @ 8 i._._._._._._._._._._._.",
"_._._.Z.V @ X Y S._._._._._._._._._._.J @ @ n S._._._._._._._._._._._._._._._.E.V @ 8 i._._._._._._._._._._._.",
"_._._.S.G < @ z ;.9.i.i.Z._.Z.i.i.i.<.u @ @ V S._._._._._._._._._._._._._._._.S.z @ 8 l._._._._._._._._._._._.",
"_._._._.U < @ @ @ @ @ @ &._.{ < @ @ @ @ @ X Y E._._._._._._._._._._._._._._._.&.< @ u Z._._._._._._._._._._._.",
"_._._._.o.8 @ @ @ @ @ @ &._.o.< @ @ @ @ @ @ ;.E.E.;.&.&.&.&.&.&.&.&.&.&.&.o.U 8 @ X J S._._._._._._._._._._._.",
"_._._._.l.z @ @ @ @ @ @ &._.o.< @ @ @ @ @ u n._.<.< X X X X X X X X X X X X X @ @ < 9._._._._._._._._._._._._.",
"_._._._._.' 8 @ @ @ @ @ &._.{ < @ @ @ @ @ o.E.E.G X X X X X X X X X X X X X X X u <._._._._._._._._._._._._._.",
"_._._._._.S.G @ @ @ @ @ z ' u @ @ @ @ X J S._.S.' ^ ^ ^ ^ ^ ^ ^ ^ ^ ^ ^ ^ ^ { <.S._._._._._._._._._._._._._._.",
"_._._._._._.n.G @ @ @ @ @ X @ @ @ @ X G Z._._._._._._._._._._._._._._._._._._._._._._._._._._._._._._._._._._.",
"_._._._._._._.Z.^ 8 X @ @ @ @ @ X < ' S._._._._._._._._._._._._._._._._._._._._._._._._._._._._._._._._._._._.",
"_._._._._._._._._.i.^ z 8 8 8 z ^ l._._._._._._._._._._._._._._._._._._._._._._._._._._._._._._._._._._._._._.",
"_._._._._._._._._._._._.S.n.S._._._._._._._._._._._._._._._._._._._._._._._._._._._._._._._._._._._._._._._._.",
"_._._._._._._._._._._._._._._._._._._._._._._._._._._._._._._._._._._._._._._._._._._._._._._._._._._._._._._.",
"_._._._._._._._._._._._._._._._._._._._._._._._._._._._._._._._._._._._._._._._._._._._._._._._._._._._._._._.",
"_._._._._._._._._._._._._._._._._._._._._._._._._._._._._._._._._._._._._._._._._._._._._._._._._._._._._._._."
};
