/* XPM */
static char *new_dark[] = {
/* columns rows colors chars-per-pixel */
"55 55 30 1 ",
"  c None",
". c gray2",
"X c #090909",
"o c gray9",
"O c #191919",
"+ c gray13",
"@ c #282828",
"# c #343434",
"$ c #3E3E3E",
"% c #464646",
"& c #4B4B4B",
"* c #505050",
"= c gray35",
"- c #656565",
"; c #6D6D6D",
": c #727272",
"> c gray48",
", c #868686",
"< c #8B8B8B",
"1 c gray59",
"2 c #989898",
"3 c #A4A4A4",
"4 c #ACACAC",
"5 c #B1B1B1",
"6 c gray",
"7 c #C3C3C3",
"8 c gray79",
"9 c gray82",
"0 c #DDDDDD",
"q c #E1E1E1",
/* pixels */
"                                                       ",
"                                                       ",
"                                                       ",
"                                                       ",
"                                                       ",
"                                                       ",
"                                                       ",
"              .+$&&&&&&&&&&%#X                         ",
"             +>46777777777775<#.                       ",
"            O1800qqqqqqqqq00095%.                      ",
"            =90052<1111111800005$.                     ",
"           X<00<#+OOOOOOO+5075005$.                    ",
"           O308#.        X505%3004$.                   ",
"           +405O         o504O#4004#.                  ",
"           +405o         o504o.+3006$.                 ",
"           +405o         o504o .+3006$.                ",
"           +405o         o504o  .@4005$.               ",
"           +405o         o504o   .@4005#.              ",
"           +405o         o504o    .@4005#.             ",
"           +405o         o504o     .#5005#.            ",
"           +405o         o504o      .#5004+.           ",
"           +405o         X506@XXXXXXXX$600:X           ",
"           +405o         X30953333333337005O           ",
"           +405o          -9q00000000000008@.          ",
"           +405o          o-466666666676908#.          ",
"           +405o           XoOOOOOOOOOO+408#.          ",
"           +405o             ..........X308#.          ",
"           +405o                       X308#.          ",
"           +5q5O                       X308#.          ",
"           o;,:X                       X308#.          ",
"           ..X.                        X308#.          ",
"            ..                         X308#.          ",
"         o%>242>%X.                    X308#.          ",
"       X*490000094&.                   X308#.          ",
"      X:80000000009:X                  X308#.          ",
"     X>8000083800000:X                 X308#.          ",
"     =700000;o>900009&.                X308#.          ",
"    O3000000=.-9000004O                X308#.          ",
"    =7000000=.-9000000%.               X308#.          ",
"   .,900qqqq=.;0qqq00q>X               X308#.          ",
"   o2907,---@.#--->80q2o               X308#.          ",
"   O30q,o          1004o               X308#.          ",
"   o2905*$##O.O###&6003o               o508@.          ",
"   .<9000000=.;900000q,X               =806O           ",
"    -8000000=.-9000000*XX*===========-<80q1o           ",
"    @5000000=.-9000006+.&9qqqqqqqqqqqq0009$.           ",
"    .:800000=.;900000-XX2qqqqqqqqqqqqqqq6&.            ",
"     o2000005:60000q1o o:>>>>>>>>>>>>>;&o.             ",
"      +200000q0000q2O.                                 ",
"       O>8q00000q9:o                                   ",
"        .#>58885>@.                                    ",
"           .o+o.                                       ",
"                                                       ",
"                                                       ",
"                                                       "
};
