/* XPM */
static char *next_node[] = {
/* columns rows colors chars-per-pixel */
"55 55 138 2 ",
"   c #1B1B1B",
".  c #1E1E1E",
"X  c gray12",
"o  c #202020",
"O  c gray13",
"+  c #222222",
"@  c #232323",
"#  c gray14",
"$  c #252525",
"%  c gray15",
"&  c #272727",
"*  c #282828",
"=  c gray16",
"-  c #2A2A2A",
";  c gray17",
":  c #2C2C2C",
">  c #2D2D2D",
",  c gray19",
"<  c #313131",
"1  c #323232",
"2  c #343434",
"3  c #353535",
"4  c gray21",
"5  c #373737",
"6  c gray22",
"7  c #3A3A3A",
"8  c #3C3C3C",
"9  c #3E3E3E",
"0  c gray25",
"q  c #414141",
"w  c gray26",
"e  c #434343",
"r  c #444444",
"t  c #464646",
"y  c #484848",
"u  c #494949",
"i  c gray29",
"p  c #4B4B4B",
"a  c #4C4C4C",
"s  c gray31",
"d  c #515151",
"f  c gray32",
"g  c #565656",
"h  c gray34",
"j  c #585858",
"k  c gray35",
"l  c #5B5B5B",
"z  c #626262",
"x  c #646464",
"c  c #656565",
"v  c #6C6C6C",
"b  c gray43",
"n  c #6F6F6F",
"m  c gray44",
"M  c #727272",
"N  c gray45",
"B  c #747474",
"V  c gray46",
"C  c gray47",
"Z  c #797979",
"A  c #7B7B7B",
"S  c #808080",
"D  c #818181",
"F  c gray51",
"G  c #838383",
"H  c #848484",
"J  c gray53",
"K  c #888888",
"L  c gray54",
"P  c #8B8B8B",
"I  c gray55",
"U  c #8D8D8D",
"Y  c #8E8E8E",
"T  c #909090",
"R  c #929292",
"E  c gray58",
"W  c #9A9A9A",
"Q  c #9B9B9B",
"!  c #A0A0A0",
"~  c #A2A2A2",
"^  c gray64",
"/  c #A5A5A5",
"(  c gray65",
")  c #AAAAAA",
"_  c gray68",
"`  c #AEAEAE",
"'  c #AFAFAF",
"]  c gray69",
"[  c #B2B2B2",
"{  c gray70",
"}  c #B4B4B4",
"|  c #B6B6B6",
" . c gray73",
".. c gray74",
"X. c gray75",
"o. c #C0C0C0",
"O. c #C1C1C1",
"+. c gray76",
"@. c #C3C3C3",
"#. c gray77",
"$. c #C6C6C6",
"%. c gray78",
"&. c #CACACA",
"*. c #CBCBCB",
"=. c #CECECE",
"-. c #D0D0D0",
";. c #D2D2D2",
":. c LightGray",
">. c gray83",
",. c #D8D8D8",
"<. c #DADADA",
"1. c gray88",
"2. c #E1E1E1",
"3. c gray89",
"4. c gray90",
"5. c #E6E6E6",
"6. c gray91",
"7. c #E9E9E9",
"8. c #EAEAEA",
"9. c gray92",
"0. c #ECECEC",
"q. c gray93",
"w. c #EEEEEE",
"e. c gray94",
"r. c #F1F1F1",
"t. c gray95",
"y. c #F3F3F3",
"u. c #F4F4F4",
"i. c gray96",
"p. c #F6F6F6",
"a. c gray97",
"s. c #F8F8F8",
"d. c #F9F9F9",
"f. c gray98",
"g. c #FBFBFB",
"h. c #FDFDFD",
"j. c #FEFEFE",
"k. c white",
/* pixels */
"k.k.k.k.k.k.k.k.k.k.k.k.k.k.k.k.k.k.k.k.k.k.k.k.k.k.k.k.k.k.k.k.k.k.k.k.k.k.k.k.k.k.k.k.k.k.k.k.k.k.k.k.k.k.k.",
"k.k.k.k.k.k.k.k.k.k.k.k.k.k.k.k.k.k.k.k.k.k.k.k.k.k.k.k.k.k.k.k.k.k.k.k.k.k.k.k.k.k.k.k.k.k.k.k.k.k.k.k.k.k.k.",
"k.k.k.k.k.k.k.k.k.k.k.k.k.k.k.k.k.k.k.k.k.k.k.k.k.k.k.k.k.k.k.k.k.k.k.k.k.k.k.k.k.k.k.k.k.k.k.k.k.k.k.k.k.k.k.",
"k.k.k.k.k.k.k.k.k.k.k.k.k.k.k.k.k.k.k.k.k.k.k.k.k.k.k.k.k.k.k.k.k.k.k.k.k.k.k.k.k.k.k.k.k.k.k.k.k.k.k.k.k.k.k.",
"k.k.k.k.k.k.k.k.k.k.k.k.k.k.k.k.k.k.k.k.k.k.k.k.k.k.k.k.k.k.k.k.k.k.k.k.k.k.k.k.k.k.k.k.k.k.k.k.k.k.k.k.k.k.k.",
"k.k.k.k.k.k.k.k.k.k.k.k.k.k.k.k.k.k.k.k.k.k.k.k.k.k.k.k.k.k.k.k.k.k.k.k.k.k.k.k.k.k.k.k.k.k.k.k.k.k.k.k.k.k.k.",
"k.k.k.k.k.k.k.k.k.k.k.k.k.k.k.k.k.k.k.k.k.k.k.k.k.k.k.k.k.k.k.k.k.k.k.k.k.k.k.k.k.k.k.k.k.k.k.k.k.k.k.k.k.k.k.",
"k.k.k.k.k.k.k.k.k.k.k.k.k.k.k.k.k.k.k.k.k.k.k.k.k.k.k.k.k.k.k.k.k.k.k.k.k.k.k.k.k.k.k.k.k.k.k.k.k.k.k.k.k.k.k.",
"k.k.k.k.k.k.k.k.k.k.k.k.k.k.k.k.k.k.k.k.k.k.k.k.k.k.k.k.k.k.k.k.k.k.k.k.k.k.k.k.k.k.k.k.k.k.k.k.k.k.k.k.k.k.k.",
"k.k.k.k.k.k.k.k.k.k.k.k.k.k.k.k.k.k.k.k.k.k.k.k.k.k.k.k.k.k.k.k.k.k.k.k.k.k.k.k.k.k.k.k.k.k.k.k.k.k.k.k.k.k.k.",
"k.k.k.k.k.k.k.k.k.k.k.k.k.t.<.%.%.%.X.X.X.X.%.%.%.%.%.%.%.%.X.%.%.X.%.%.X.%.%.%.;.0.k.k.k.k.k.k.k.k.k.k.k.k.k.",
"k.k.k.k.k.k.k.k.k.k.k.k.%.G s > % % % % % % % % % % % % % % % % % % % % % % % > e N ` t.k.k.k.k.k.k.k.k.k.k.k.",
"k.k.k.k.k.k.k.k.k.k.k.%.e % % X % % % % % % % % % % % % % X X X % % % % % % X % % % > G k.k.k.k.k.k.k.k.k.k.k.",
"k.k.k.k.k.k.k.k.k.k.t.G % % e N Y T Y Y Y Y T T T T T T T T Y Y Y Y T T T Y Y G s % % < ;.k.k.k.k.k.k.k.k.k.k.",
"k.k.k.k.k.k.k.k.k.k.<.d % e ` 2.0.0.0.0.0.0.0.0.0.0.0.0.0.0.0.0.0.0.0.0.0.0.0.0.&.s % % G k.k.k.k.k.k.k.k.k.k.",
"k.k.k.k.k.k.k.k.k.k.%.< % N 2.k.k.k.k.k.k.k.k.k.k.k.k.k.k.k.k.k.k.k.k.k.k.k.k.k.k.T X % e k.k.k.k.k.k.k.k.k.k.",
"k.k.k.k.k.k.k.k.k.k.%.% X Y 0.k.k.k.k.k.k.k.k.k.k.k.k.k.k.k.k.k.k.k.k.k.k.k.k.k.k.[ X % 9 k.k.k.k.k.k.k.k.k.k.",
"k.k.k.k.k.k.k.k.k.k.X.% % Y 0.k.k.k.k.k.k.k.k.k.t.k.k.k.k.k.k.k.k.k.k.k.k.k.k.k.k.[ X % 9 k.k.k.k.k.k.k.k.k.k.",
"k.k.k.k.k.k.k.k.k.k.X.% % Y 0.k.k.k.k.k.k.k.t.T x ` t.k.k.k.k.k.k.k.k.k.k.k.k.k.k.[ X % 9 k.k.k.k.k.k.k.k.k.k.",
"k.k.k.k.k.k.k.k.k.k.%.% % Y 0.k.k.k.k.k.k.k.0.s % 9 ~ t.k.k.k.k.k.k.k.k.k.k.k.k.k.[ X % 9 k.k.k.k.k.k.k.k.k.k.",
"k.k.k.k.k.k.k.k.k.k.%.% % Y 0.k.k.k.k.k.k.k.t.G > % 9 W t.k.k.k.k.k.k.k.k.k.k.k.k.[ X % 9 k.k.k.k.k.k.k.k.k.k.",
"k.k.k.k.k.k.k.k.k.k.%.% % Y 0.k.k.k.k.k.k.k.k.t.W < % > G t.k.k.k.k.k.k.k.k.k.k.k.[ X % 9 k.k.k.k.k.k.k.k.k.k.",
"k.k.k.k.k.k.k.k.k.k.%.% % Y 0.k.k.k.k.k.k.k.k.k.t.~ < % > G t.k.k.k.k.k.k.k.k.k.k.[ X % 9 k.k.k.k.k.k.k.k.k.k.",
"k.k.k.k.k.k.k.k.k.k.%.% X Y 0.k.k.k.k.k.k.k.k.k.k.t.` 9 % > A t.k.k.k.k.k.k.k.k.k.[ X % 9 k.k.k.k.k.k.k.k.k.k.",
"k.k.k.k.k.k.k.k.k.k.%.% % Y 0.k.k.k.k.k.k.k.k.k.k.k.t.[ 9 % % N 0.k.k.k.k.k.k.k.k.[ X % 9 k.k.k.k.k.k.k.k.k.k.",
"k.k.k.k.k.k.k.k.k.k.%.% % Y 0.k.k.k.k.k.k.k.k.k.k.k.k.k.X.9 % % n 0.k.k.k.k.k.k.k.[ X % 9 k.k.k.k.k.k.k.k.k.k.",
"k.k.k.k.k.k.k.k.k.k.X.% % Y 0.k.k.k.k.k.k.k.k.k.k.k.k.k.k.X.e % % Y k.k.k.k.k.k.k.[ X % 9 k.k.k.k.k.k.k.k.k.k.",
"k.k.k.k.k.k.k.k.k.k.X.% % Y 0.k.k.k.k.k.k.k.k.k.k.k.k.k.k.k.~ > % d t.k.k.k.k.k.k.[ X % 9 k.k.k.k.k.k.k.k.k.k.",
"k.k.k.k.k.k.k.k.k.k.X.% % Y 0.k.k.k.k.k.k.k.k.k.k.k.k.k.k.;.d % X A t.k.k.k.k.k.k.[ X % 9 k.k.k.k.k.k.k.k.k.k.",
"k.k.k.k.k.k.k.k.k.k.X.% % Y 0.k.k.k.k.k.k.k.k.k.k.k.k.k.&.e % X d 2.k.k.k.k.k.k.k.[ X % 9 k.k.k.k.k.k.k.k.k.k.",
"k.k.k.k.k.k.k.k.k.k.%.% % Y 0.k.k.k.k.k.k.k.k.k.k.k.k.%.e % X l 2.k.k.k.k.k.k.k.k.[ X % 9 k.k.k.k.k.k.k.k.k.k.",
"k.k.k.k.k.k.k.k.k.k.%.% % Y 0.k.k.k.k.k.k.k.k.k.k.k.X.e % X x 2.k.k.k.k.k.k.k.k.k.[ X % 9 k.k.k.k.k.k.k.k.k.k.",
"k.k.k.k.k.k.k.k.k.k.%.% % Y 0.k.k.k.k.k.k.k.k.k.k.[ 9 % % n 0.k.k.k.k.k.k.k.k.k.k.[ X % 9 k.k.k.k.k.k.k.k.k.k.",
"k.k.k.k.k.k.k.k.k.k.%.% % Y 0.k.k.k.k.k.k.k.k.k.` 9 % % N 0.k.k.k.k.k.k.k.k.k.k.k.[ X % 9 k.k.k.k.k.k.k.k.k.k.",
"k.k.k.k.k.k.k.k.k.k.%.% X Y 0.k.k.k.k.k.k.k.k.~ < % % A 0.k.k.k.k.k.k.k.k.k.k.k.k.[ X % 9 k.k.k.k.k.k.k.k.k.k.",
"k.k.k.k.k.k.k.k.k.k.%.% X Y 0.k.k.k.k.k.k.k.2.e % % G 0.k.k.k.k.k.k.k.k.k.k.k.k.k.[ X % < k.k.k.k.k.k.k.k.k.k.",
"k.k.k.k.k.k.k.k.k.k.X.% X Y 0.k.k.k.k.k.k.k.t.n < Y 0.k.k.k.k.k.k.k.k.k.k.k.k.k.k.[ X % < k.k.k.k.k.k.k.k.k.k.",
"k.k.k.k.k.k.k.k.k.k.X.% X Y 0.k.k.k.k.k.k.k.k.t.2.t.k.k.k.k.k.k.k.k.k.k.k.k.k.k.k.[ X % 9 k.k.k.k.k.k.k.k.k.k.",
"k.k.k.k.k.k.k.k.k.k.%.% % Y 0.k.k.k.k.k.k.k.k.k.k.k.k.k.k.k.k.k.k.k.k.k.k.k.k.k.k.[ X % < k.k.k.k.k.k.k.k.k.k.",
"k.k.k.k.k.k.k.k.k.k.%.> % G 0.k.k.k.k.k.k.k.k.k.k.k.k.k.k.k.k.k.k.k.k.k.k.k.k.k.k.~ X % 9 k.k.k.k.k.k.k.k.k.k.",
"k.k.k.k.k.k.k.k.k.k.;.e % s &.k.k.k.k.k.k.k.k.k.k.k.k.k.k.k.k.k.k.k.k.k.k.k.k.k.t.l % % n k.k.k.k.k.k.k.k.k.k.",
"k.k.k.k.k.k.k.k.k.k.0.N % % s Y ` [ [ [ [ [ [ [ [ [ [ [ [ [ [ [ [ [ [ [ [ [ [ ~ l % % % %.k.k.k.k.k.k.k.k.k.k.",
"k.k.k.k.k.k.k.k.k.k.k.[ > % % X X X X X X X X X X X X X X X X X X X X X X X X X % % X x k.k.k.k.k.k.k.k.k.k.k.",
"k.k.k.k.k.k.k.k.k.k.k.t.G < % % % % % % % % % % % % % % % % % % % % % % % % % % % % x 0.k.k.k.k.k.k.k.k.k.k.k.",
"k.k.k.k.k.k.k.k.k.k.k.k.k.;.T d 9 9 9 9 9 9 9 < 9 9 9 9 9 9 9 9 9 9 9 9 9 9 < e A &.k.k.k.k.k.k.k.k.k.k.k.k.k.",
"k.k.k.k.k.k.k.k.k.k.k.k.k.k.k.k.k.k.k.k.k.k.k.k.k.k.k.k.k.k.k.k.k.k.k.k.k.k.k.k.k.k.k.k.k.k.k.k.k.k.k.k.k.k.k.",
"k.k.k.k.k.k.k.k.k.k.k.k.k.k.k.k.k.k.k.k.k.k.k.k.k.k.k.k.k.k.k.k.k.k.k.k.k.k.k.k.k.k.k.k.k.k.k.k.k.k.k.k.k.k.k.",
"k.k.k.k.k.k.k.k.k.k.k.k.k.k.k.k.k.k.k.k.k.k.k.k.k.k.k.k.k.k.k.k.k.k.k.k.k.k.k.k.k.k.k.k.k.k.k.k.k.k.k.k.k.k.k.",
"k.k.k.k.k.k.k.k.k.k.k.k.k.k.k.k.k.k.k.k.k.k.k.k.k.k.k.k.k.k.k.k.k.k.k.k.k.k.k.k.k.k.k.k.k.k.k.k.k.k.k.k.k.k.k.",
"k.k.k.k.k.k.k.k.k.k.k.k.k.k.k.k.k.k.k.k.k.k.k.k.k.k.k.k.k.k.k.k.k.k.k.k.k.k.k.k.k.k.k.k.k.k.k.k.k.k.k.k.k.k.k.",
"k.k.k.k.k.k.k.k.k.k.k.k.k.k.k.k.k.k.k.k.k.k.k.k.k.k.k.k.k.k.k.k.k.k.k.k.k.k.k.k.k.k.k.k.k.k.k.k.k.k.k.k.k.k.k.",
"k.k.k.k.k.k.k.k.k.k.k.k.k.k.k.k.k.k.k.k.k.k.k.k.k.k.k.k.k.k.k.k.k.k.k.k.k.k.k.k.k.k.k.k.k.k.k.k.k.k.k.k.k.k.k.",
"k.k.k.k.k.k.k.k.k.k.k.k.k.k.k.k.k.k.k.k.k.k.k.k.k.k.k.k.k.k.k.k.k.k.k.k.k.k.k.k.k.k.k.k.k.k.k.k.k.k.k.k.k.k.k.",
"k.k.k.k.k.k.k.k.k.k.k.k.k.k.k.k.k.k.k.k.k.k.k.k.k.k.k.k.k.k.k.k.k.k.k.k.k.k.k.k.k.k.k.k.k.k.k.k.k.k.k.k.k.k.k.",
"k.k.k.k.k.k.k.k.k.k.k.k.k.k.k.k.k.k.k.k.k.k.k.k.k.k.k.k.k.k.k.k.k.k.k.k.k.k.k.k.k.k.k.k.k.k.k.k.k.k.k.k.k.k.k."
};
