/* XPM */
static char *next_node_dark[] = {
/* columns rows colors chars-per-pixel */
"55 55 30 1 ",
"  c None",
". c #060606",
"X c gray5",
"o c #131313",
"O c #1E1E1E",
"+ c #252525",
"@ c #2D2D2D",
"# c #353535",
"$ c gray22",
"% c gray25",
"& c gray30",
"* c #515151",
"= c #5D5D5D",
"- c #656565",
"; c #6F6F6F",
": c #717171",
"> c #7C7C7C",
", c #848484",
"< c gray55",
"1 c #909090",
"2 c #9B9B9B",
"3 c #A4A4A4",
"4 c #AEAEAE",
"5 c gray69",
"6 c #BCBCBC",
"7 c #C1C1C1",
"8 c #CECECE",
"9 c gray84",
"0 c gray85",
"q c gray88",
/* pixels */
"                                                       ",
"                                                       ",
"                                                       ",
"                                                       ",
"                                                       ",
"                                                       ",
"                                                       ",
"                                                       ",
"                                                       ",
"                                                       ",
"            .X+$$$%$%%$$$$$$$$%$%%$$$$$$@o.            ",
"           .$>580000000000000000000000096<*X           ",
"          .$600q0q0000000000000q00000000009>.          ",
"          X>006<::;;::;;;;;;;;:::;;;;::>5008@          ",
"          +406*Ooooooooooooooooooooooooo#500>          ",
"          $80<O                         .;q06          ",
"          $0q:o                          &q07          ",
"          %00:o        .X.               &q07          ",
"          $00:o       X;2*X              &q07          ",
"          $00:o       o507=X             &q07          ",
"          $00:o       X>907-X            &q07          ",
"          $00:o        X-809>X           &q07          ",
"          $00:o         X=809>X          &q07          ",
"          $0q:o          X*709,X         &q07          ",
"          $00:o           X&700<o        &q07          ",
"          $0q:o            .%7001o       &q07          ",
"          %00:o             .%600:.      &q07          ",
"          $00:o              .=903X      &q07          ",
"          %00:o              @40q,X      &q07          ",
"          %00:o             #60q4O.      &q07          ",
"          $00:o            $50q3O.       &q07          ",
"          $00:o           %60q2O.        &q07          ",
"          $00:o          &7001o          &q07          ",
"          $00:o         *700<o           &q07          ",
"          $0q:o       .=800,o            &q07          ",
"          $0q:o       O600>o             &q07          ",
"          $0q:o       X18:o              &q08          ",
"          %0q:o        XOX               &q07          ",
"          $00:o                          &q08          ",
"          $90>o                          =q07          ",
"          @605#.                        X3001          ",
"          o<005:*&&&&&&&&&&&&&&&&&&&&&&=3000$          ",
"          .&900qqqqqqqqqqqqqqqqqqqqqqqqq00q2.          ",
"           X:800000000000000000000000000002o           ",
"            .+;4777777777777777777777786,#.            ",
"                                                       ",
"                                                       ",
"                                                       ",
"                                                       ",
"                                                       ",
"                                                       ",
"                                                       ",
"                                                       ",
"                                                       ",
"                                                       "
};
