/* XPM */
static char *next_page_dark[] = {
/* columns rows colors chars-per-pixel */
"55 55 31 1 ",
"  c None",
". c gray1",
"X c #0B0B0B",
"o c #151515",
"O c #191919",
"+ c #222222",
"@ c gray17",
"# c gray21",
"$ c #3F3F3F",
"% c #444444",
"& c gray30",
"* c #565656",
"= c #5A5A5A",
"- c gray38",
"; c #686868",
": c #747474",
"> c gray48",
", c #808080",
"< c gray55",
"1 c #939393",
"2 c #9B9B9B",
"3 c #A4A4A4",
"4 c gray68",
"5 c #B4B4B4",
"6 c gray75",
"7 c #C0C0C0",
"8 c gray81",
"9 c #D7D7D7",
"0 c #DDDDDD",
"q c #E1E1E1",
"w c gray92",
/* pixels */
"                                                       ",
"                                                       ",
"                                                       ",
"                                                       ",
"                                                       ",
"                                                       ",
"                                X+#@X                  ",
"                           XO$-<47983#.                ",
"                   .XO+$*:147900000004O.               ",
"             o%;>,135689000000q0868000&..X.            ",
"            %49000000000qq0962:&@o@30q:Xo<&.           ",
"           #700qq0098752,-%@oX... .=9q,XX48%.          ",
"          .<906>=&%#+OXXX...       &9q,XX4q2o          ",
"          o509$X.....              &9q,XX407+.         ",
"          +605O               XOX. &9q,X.409$.         ",
"          +605o         .X+%-<58>X &9q,X.409$.         ",
"          +605o  o@#&=:<3680qq07=X &9q,X.409%.         ",
"          +605o O4990qqq0974,=#O.  &9q,XX409%.         ",
"          +605o o2653<>-%@OXX..    &9q,XX409%.         ",
"          +605o .XoXXXX...         &9q,XX409%.         ",
"          +605o               X+X. &9q<o.409%.         ",
"          +605o         .o@%;159>X &9q<X.409%.         ",
"          +605o  o@$&-:<3680qq97*X &9q,X.409$.         ",
"          +605o O4900qqq0963>*#o.  &9q,XX409$.         ",
"          +605o o1642<:=%@oXX..    &9q,X.409%.         ",
"          +605o .XXXXX....         &9q,X.409%.         ",
"          +605o               o+o. &9q,X.409%.         ",
"          +605o         .o@*>37q,X &9q,X.409%.         ",
"          +605o  O#%*;,2580qwq96*. &9q,X.409%.         ",
"          +605o O60qwwwq0851:%+X   &9q,X.409%.         ",
"          +605o o1531>-&#O.        &9q,XX409%.         ",
"          +605o  ..                &9q,XX409%.         ",
"          +605o                    &9q<oX409$.         ",
"          +605o        .X.         &9q<oX409$.         ",
"          +605o  +$&=:<37<o        &9q,X.409%.         ",
"          +605o O6qqwwwq0<o        &9q,X.409%.         ",
"          +605o o<42<:=%+X         &9q,XX409%.         ",
"          +605o   .                &9q,XX409%.         ",
"          +605o                    &8q,XX409$.         ",
"          +605o                    =9q,XX409$.         ",
"          +605o                   X29q;Xo509%.         ",
"          +605o                X@-4000%.@709%.         ",
"          +607O.         .X+%;169q00q<o -909$.         ",
"          o500<@oO+@$&=:<4790qq00q07:o o5009$.         ",
"          .<0008789000qqqqq0qq084>%o. X<9008@.         ",
"           +5q000000qqqq0975<-$O.    @200004o          ",
"            +>5776542<:=%@o.     .+*1800000*X          ",
"              XooX.         .o#=,59qqqqqq9;X           ",
"                        .XO$=><22211111<;@.            ",
"                        .....                          ",
"                                                       ",
"                                                       ",
"                                                       ",
"                                                       ",
"                                                       "
};
