/* XPM */
static char *open_dark[] = {
/* columns rows colors chars-per-pixel */
"55 55 31 1 ",
"  c None",
". c #010101",
"X c gray3",
"o c #161616",
"O c #1B1B1B",
"+ c gray15",
"@ c gray16",
"# c #353535",
"$ c #3A3A3A",
"% c #414141",
"& c #494949",
"* c #565656",
"= c gray36",
"- c gray39",
"; c DimGray",
": c gray46",
"> c #7C7C7C",
", c #818181",
"< c gray55",
"1 c gray58",
"2 c #9F9F9F",
"3 c #A4A4A4",
"4 c #AEAEAE",
"5 c #B6B6B6",
"6 c #BBBBBB",
"7 c #C1C1C1",
"8 c #CACACA",
"9 c #D0D0D0",
"0 c gainsboro",
"q c gray88",
"w c gray91",
/* pixels */
"                                                       ",
"                                                       ",
"                                                       ",
"                          #>@                          ",
"                         &706#                         ",
"                        &70006$                        ",
"                       *7000007%                       ",
"                      =807807807&                      ",
"                    .-806%604&908&                     ",
"                   .;807$o705X&908*.                   ",
"                   @8q8%.O706XX=9q7o                   ",
"                   O46&X O706X X=82X                   ",
"                   .OO.  O706X  X+o.                   ",
"                     .   O706X   .                     ",
"                         O706X                         ",
"               .@=:>>,$. O706X  &,>>:=+                ",
"              o,80000w-. O706X  ,q00008:X              ",
"             o19009778=. O706X  :8779q00,X             ",
"            X<906=@OOOX  O706X  oOOO@-7q9:.            ",
"           .;906#.....   O706X   .....$809=            ",
"           *808%.        O706X        .*007$           ",
"          #600=X         O706X         X:006+          ",
"         O400>o          O706X          o1q02X         ",
"        X,0q2O.          O706X          .+500,.        ",
"       .;806@.           O706X           .#809-        ",
"       *608%.            O706X            .*008%       ",
"      $500=X             O706X             X:005@      ",
"     X290<o              o6w5.              X1001.     ",
"     #706#...........    .%,#    ............+808+     ",
"     &9094333333333333-.  ...  .:3333333333334909%     ",
"     *0000000q000000008O.      @00000q00000000009&     ",
"     *00866666666666909#.      %00866666666666809&     ",
"     *00>+oooooooooo<0q-.      ,qq:ooooooooooO,q9&     ",
"     *00:o          &007@.    #800#          .>q9&     ",
"     *00:o          X4005&o.o*70q1.          .>q9&     ",
"     *00:o           #700953690q6O           .>q9&     ",
"     *00:o           .#40q000q03+.           X>q9&     ",
"     *00:o            .o*15651&X.            X>q9&     ",
"     *00:o              .XoooX.              X>q9&     ",
"     *00:o                                   X>q9&     ",
"     *00:o                                   X>q9&     ",
"     *00:o                                   .,q9&     ",
"     %9q2+                                   X408$     ",
"     +709>OoXXXXXXXXXXXXXoXoXXXXXoXoXXXXXXXo+>007O     ",
"     X2009765555555555555555555555555555555670001.     ",
"      #40000000000000000000000000000000000000qq4@      ",
"      .+;4788888888888888888888888888888888874:O.      ",
"       ..XO+++++++++++++++++++++++++++++++++OX..       ",
"          ..................................           ",
"                                                       ",
"                                                       ",
"                                                       ",
"                                                       ",
"                                                       ",
"                                                       "
};
