/* XPM */
static char *open[] = {
/* columns rows colors chars-per-pixel */
"55 55 173 2 ",
"   c gray9",
".  c #181818",
"X  c #1D1D1D",
"o  c #1E1E1E",
"O  c gray12",
"+  c #202020",
"@  c gray13",
"#  c #222222",
"$  c #232323",
"%  c gray14",
"&  c #252525",
"*  c gray15",
"=  c #272727",
"-  c #282828",
";  c gray16",
":  c #2A2A2A",
">  c gray17",
",  c #2C2C2C",
"<  c #2D2D2D",
"1  c #2F2F2F",
"2  c gray19",
"3  c #313131",
"4  c #323232",
"5  c gray20",
"6  c #343434",
"7  c #353535",
"8  c gray21",
"9  c #373737",
"0  c gray22",
"q  c #393939",
"w  c #3A3A3A",
"e  c gray23",
"r  c #3C3C3C",
"t  c gray24",
"y  c #3E3E3E",
"u  c #3F3F3F",
"i  c gray25",
"p  c #414141",
"a  c gray26",
"s  c #434343",
"d  c #444444",
"f  c gray27",
"g  c #464646",
"h  c gray28",
"j  c #484848",
"k  c #494949",
"l  c gray29",
"z  c #4B4B4B",
"x  c #4C4C4C",
"c  c gray31",
"v  c #515151",
"b  c gray32",
"n  c #535353",
"m  c gray33",
"M  c #555555",
"N  c #565656",
"B  c gray35",
"V  c #5B5B5B",
"C  c #5D5D5D",
"Z  c gray37",
"A  c #606060",
"S  c gray39",
"D  c #646464",
"F  c #656565",
"G  c #686868",
"H  c DimGray",
"J  c #6A6A6A",
"K  c gray42",
"L  c #6F6F6F",
"P  c #717171",
"I  c gray45",
"U  c gray47",
"Y  c #797979",
"T  c #7B7B7B",
"R  c #7C7C7C",
"E  c #7E7E7E",
"W  c gray50",
"Q  c #808080",
"!  c #818181",
"~  c gray51",
"^  c #838383",
"/  c #848484",
"(  c gray52",
")  c #888888",
"_  c #898989",
"`  c gray54",
"'  c #8B8B8B",
"]  c gray55",
"[  c #8D8D8D",
"{  c gray56",
"}  c #939393",
"|  c gray59",
" . c gray60",
".. c #9A9A9A",
"X. c #9B9B9B",
"o. c gray61",
"O. c #A0A0A0",
"+. c gray63",
"@. c #A2A2A2",
"#. c gray64",
"$. c #A4A4A4",
"%. c gray65",
"&. c #A7A7A7",
"*. c #A9A9A9",
"=. c gray67",
"-. c #ACACAC",
";. c #AEAEAE",
":. c #AFAFAF",
">. c gray69",
",. c #B1B1B1",
"<. c #B2B2B2",
"1. c gray70",
"2. c gray71",
"3. c #B6B6B6",
"4. c #B7B7B7",
"5. c gray72",
"6. c #B9B9B9",
"7. c gray73",
"8. c #BBBBBB",
"9. c #BCBCBC",
"0. c gray74",
"q. c gray",
"w. c #C3C3C3",
"e. c #C5C5C5",
"r. c gray78",
"t. c #C8C8C8",
"y. c gray79",
"u. c #CACACA",
"i. c #CBCBCB",
"p. c #CECECE",
"a. c gray81",
"s. c #D2D2D2",
"d. c gray83",
"f. c #D5D5D5",
"g. c gray84",
"h. c #D7D7D7",
"j. c #D8D8D8",
"k. c gray85",
"l. c #DADADA",
"z. c gray86",
"x. c gainsboro",
"c. c #DDDDDD",
"v. c gray87",
"b. c #DFDFDF",
"n. c gray88",
"m. c #E1E1E1",
"M. c gray89",
"N. c #E4E4E4",
"B. c gray90",
"V. c #E6E6E6",
"C. c #E9E9E9",
"Z. c #EAEAEA",
"A. c gray92",
"S. c #ECECEC",
"D. c gray93",
"F. c #EEEEEE",
"G. c #EFEFEF",
"H. c gray94",
"J. c #F1F1F1",
"K. c gray95",
"L. c #F3F3F3",
"P. c #F4F4F4",
"I. c gray96",
"U. c #F6F6F6",
"Y. c gray97",
"T. c #F8F8F8",
"R. c #F9F9F9",
"E. c gray98",
"W. c #FBFBFB",
"Q. c gray99",
"!. c #FDFDFD",
"~. c #FEFEFE",
"^. c white",
/* pixels */
"^.^.^.^.^.^.^.^.^.^.^.^.^.^.^.^.^.^.^.^.^.^.^.^.^.^.^.^.^.^.^.^.^.^.^.^.^.^.^.^.^.^.^.^.^.^.^.^.^.^.^.^.^.^.^.",
"^.^.^.^.^.^.^.^.^.^.^.^.^.^.^.^.^.^.^.^.^.^.^.^.^.^.^.^.^.^.^.^.^.^.^.^.^.^.^.^.^.^.^.^.^.^.^.^.^.^.^.^.^.^.^.",
"^.^.^.^.^.^.^.^.^.^.^.^.^.^.^.^.^.^.^.^.^.^.^.^.^.^.^.^.^.^.^.^.^.^.^.^.^.^.^.^.^.^.^.^.^.^.^.^.^.^.^.^.^.^.^.",
"^.^.^.^.^.^.^.^.^.^.^.^.^.^.^.^.^.^.^.^.^.^.^.^.^.^.u.^ g.^.^.^.^.^.^.^.^.^.^.^.^.^.^.^.^.^.^.^.^.^.^.^.^.^.^.",
"^.^.^.^.^.^.^.^.^.^.^.^.^.^.^.^.^.^.^.^.^.^.^.^.^.3.y $ d u.^.^.^.^.^.^.^.^.^.^.^.^.^.^.^.^.^.^.^.^.^.^.^.^.^.",
"^.^.^.^.^.^.^.^.^.^.^.^.^.^.^.^.^.^.^.^.^.^.^.^.3.y $ $ $ d e.^.^.^.^.^.^.^.^.^.^.^.^.^.^.^.^.^.^.^.^.^.^.^.^.",
"^.^.^.^.^.^.^.^.^.^.^.^.^.^.^.^.^.^.^.^.^.^.^.*.y $ $ $ $ $ y q.^.^.^.^.^.^.^.^.^.^.^.^.^.^.^.^.^.^.^.^.^.^.^.",
"^.^.^.^.^.^.^.^.^.^.^.^.^.^.^.^.^.^.^.^.^.^.#.7 $ y 7 $ y 7 $ y 3.^.^.^.^.^.^.^.^.^.^.^.^.^.^.^.^.^.^.^.^.^.^.",
"^.^.^.^.^.^.^.^.^.^.^.^.^.^.^.^.^.^.^.^.^.X.7 $ d q.d $ v 3.1 $ 7 3.^.^.^.^.^.^.^.^.^.^.^.^.^.^.^.^.^.^.^.^.^.",
"^.^.^.^.^.^.^.^.^.^.^.^.^.^.^.^.^.^.^.^.| 7 $ y e.C.y $ k Y.3.1 $ 7 *.^.^.^.^.^.^.^.^.^.^.^.^.^.^.^.^.^.^.^.^.",
"^.^.^.^.^.^.^.^.^.^.^.^.^.^.^.^.^.^.^.g.7 O 7 q.^.N.y $ d Y.Y.#.1 O y C.^.^.^.^.^.^.^.^.^.^.^.^.^.^.^.^.^.^.^.",
"^.^.^.^.^.^.^.^.^.^.^.^.^.^.^.^.^.^.^.N.v d 3.Y.^.N.y $ d Y.^.Y.#.7 A Y.^.^.^.^.^.^.^.^.^.^.^.^.^.^.^.^.^.^.^.",
"^.^.^.^.^.^.^.^.^.^.^.^.^.^.^.^.^.^.^.^.N.N.^.^.^.N.y $ d Y.^.^.Y.k.C.^.^.^.^.^.^.^.^.^.^.^.^.^.^.^.^.^.^.^.^.",
"^.^.^.^.^.^.^.^.^.^.^.^.^.^.^.^.^.^.^.^.^.^.^.^.^.N.y $ d Y.^.^.^.^.^.^.^.^.^.^.^.^.^.^.^.^.^.^.^.^.^.^.^.^.^.",
"^.^.^.^.^.^.^.^.^.^.^.^.^.^.^.^.^.^.^.^.^.^.^.^.^.N.y $ d Y.^.^.^.^.^.^.^.^.^.^.^.^.^.^.^.^.^.^.^.^.^.^.^.^.^.",
"^.^.^.^.^.^.^.^.^.^.^.^.^.^.^.^.g.#.` ^ ^ E e.^.^.N.y $ d Y.^.^.3.E ^ ^ ` #.k.^.^.^.^.^.^.^.^.^.^.^.^.^.^.^.^.",
"^.^.^.^.^.^.^.^.^.^.^.^.^.^.C.E 7 $ $ $ $   X.^.^.N.y $ d Y.^.^.E O $ $ $ $ 7 ` Y.^.^.^.^.^.^.^.^.^.^.^.^.^.^.",
"^.^.^.^.^.^.^.^.^.^.^.^.^.C.K 1 $ $ 1 y y 7 #.^.^.N.y $ d Y.^.^.` 7 y y 1 O $ $ E Y.^.^.^.^.^.^.^.^.^.^.^.^.^.",
"^.^.^.^.^.^.^.^.^.^.^.^.Y.I 1 $ d #.g.N.N.N.Y.^.^.N.y $ d Y.^.^.C.N.N.N.g.X.y O 1 ` ^.^.^.^.^.^.^.^.^.^.^.^.^.",
"^.^.^.^.^.^.^.^.^.^.^.^.| 1 $ d u.^.^.^.^.^.^.^.^.N.y $ d Y.^.^.^.^.^.^.^.^.e.7 $ 1 #.^.^.^.^.^.^.^.^.^.^.^.^.",
"^.^.^.^.^.^.^.^.^.^.^.*.7 $ 7 q.^.^.^.^.^.^.^.^.^.N.y $ d Y.^.^.^.^.^.^.^.^.^.*.$ $ 7 e.^.^.^.^.^.^.^.^.^.^.^.",
"^.^.^.^.^.^.^.^.^.^.u.d $ $ #.Y.^.^.^.^.^.^.^.^.^.N.y $ d Y.^.^.^.^.^.^.^.^.^.Y.` $ $ d k.^.^.^.^.^.^.^.^.^.^.",
"^.^.^.^.^.^.^.^.^.N.v $ $ ^ C.^.^.^.^.^.^.^.^.^.^.N.y $ d Y.^.^.^.^.^.^.^.^.^.^.C.K O $ A Y.^.^.^.^.^.^.^.^.^.",
"^.^.^.^.^.^.^.^.Y.E $ O A N.^.^.^.^.^.^.^.^.^.^.^.N.y $ d Y.^.^.^.^.^.^.^.^.^.^.^.k.k $ $ E ^.^.^.^.^.^.^.^.^.",
"^.^.^.^.^.^.^.^.| 7 $ d g.^.^.^.^.^.^.^.^.^.^.^.^.N.y $ d Y.^.^.^.^.^.^.^.^.^.^.^.^.u.7 $ 1 X.^.^.^.^.^.^.^.^.",
"^.^.^.^.^.^.^.*.d $ 7 q.^.^.^.^.^.^.^.^.^.^.^.^.^.N.y $ d Y.^.^.^.^.^.^.^.^.^.^.^.^.^.*.$ $ 7 q.^.^.^.^.^.^.^.",
"^.^.^.^.^.^.e.k $ $ #.Y.^.^.^.^.^.^.^.^.^.^.^.^.^.N.y $ d Y.^.^.^.^.^.^.^.^.^.^.^.^.^.Y.` $ $ k g.^.^.^.^.^.^.",
"^.^.^.^.^.Y.A 1 $ I C.^.^.^.^.^.^.^.^.^.^.^.^.^.^.C.d   k ^.^.^.^.^.^.^.^.^.^.^.^.^.^.^.Y.K $ $ K ^.^.^.^.^.^.",
"^.^.^.^.^.u.y $ d u.^.^.^.^.^.^.^.^.^.^.^.^.^.^.^.^.q.E u.^.^.^.^.^.^.^.^.^.^.^.^.^.^.^.^.k.7 $ 7 k.^.^.^.^.^.",
"^.^.^.^.^.3.1 $ 1 v V V V V V V V V V V V V X.^.^.^.^.Y.^.^.^.^.` V V V V V V V V V V V V v 1 $ 1 q.^.^.^.^.^.",
"^.^.^.^.^.*.$ $ $ $ $ $ O O $ $ $ $ $ $ $ $ 7 N.^.^.^.^.^.^.^.g.$ $ $ $ O O $ $ $ $ $ $ $ $ $ $ 1 3.^.^.^.^.^.",
"^.^.^.^.^.*.$ $ 7 d d d d d d d d d d d 1 $ 1 u.^.^.^.^.^.^.^.q.$ $ 7 d d d d d d d d d d d 7 $ 1 3.^.^.^.^.^.",
"^.^.^.^.^.*.$ $ ^ k.C.C.C.C.C.C.C.C.C.C.I $ O X.^.^.^.^.^.^.^.E O O ` C.C.C.C.C.C.C.C.C.C.N.E O 1 3.^.^.^.^.^.",
"^.^.^.^.^.*.$ $ ` C.^.^.^.^.^.^.^.^.^.^.3.$ $ y g.^.^.^.^.^.u.7 $ $ u.^.^.^.^.^.^.^.^.^.^.^.^ O 1 3.^.^.^.^.^.",
"^.^.^.^.^.*.$ $ ` C.^.^.^.^.^.^.^.^.^.^.Y.v $ $ k 3.C.^.C.*.y $ O K ^.^.^.^.^.^.^.^.^.^.^.^.^ O 1 3.^.^.^.^.^.",
"^.^.^.^.^.*.$ $ ` C.^.^.^.^.^.^.^.^.^.^.^.u.y $ $ 1 k V d 1 $ O d N.^.^.^.^.^.^.^.^.^.^.^.^.^ O 1 3.^.^.^.^.^.",
"^.^.^.^.^.*.$ $ ` C.^.^.^.^.^.^.^.^.^.^.^.^.u.v $ O $ $ $ O $ V k.^.^.^.^.^.^.^.^.^.^.^.^.Y.^ O 1 3.^.^.^.^.^.",
"^.^.^.^.^.*.$ $ ` C.^.^.^.^.^.^.^.^.^.^.^.^.^.C.*.K k d k K 3.Y.^.^.^.^.^.^.^.^.^.^.^.^.^.Y.^ O 1 3.^.^.^.^.^.",
"^.^.^.^.^.*.$ $ ` C.^.^.^.^.^.^.^.^.^.^.^.^.^.^.^.Y.C.C.C.Y.^.^.^.^.^.^.^.^.^.^.^.^.^.^.^.Y.^ O 1 3.^.^.^.^.^.",
"^.^.^.^.^.*.$ $ ` C.^.^.^.^.^.^.^.^.^.^.^.^.^.^.^.^.^.^.^.^.^.^.^.^.^.^.^.^.^.^.^.^.^.^.^.Y.^ O 1 3.^.^.^.^.^.",
"^.^.^.^.^.*.$ $ ` C.^.^.^.^.^.^.^.^.^.^.^.^.^.^.^.^.^.^.^.^.^.^.^.^.^.^.^.^.^.^.^.^.^.^.^.Y.^ O 1 3.^.^.^.^.^.",
"^.^.^.^.^.*.$ $ ` C.^.^.^.^.^.^.^.^.^.^.^.^.^.^.^.^.^.^.^.^.^.^.^.^.^.^.^.^.^.^.^.^.^.^.^.Y.E O 1 3.^.^.^.^.^.",
"^.^.^.^.^.q.1 O A k.^.^.^.^.^.^.^.^.^.^.^.^.^.^.^.^.^.^.^.^.^.^.^.^.^.^.^.^.^.^.^.^.^.^.^.Y.v $ 7 e.^.^.^.^.^.",
"^.^.^.^.^.k.y $ 1 ^ N.C.Y.Y.Y.Y.Y.Y.Y.Y.Y.Y.Y.Y.Y.Y.Y.C.Y.C.Y.Y.Y.C.Y.C.Y.Y.Y.Y.Y.Y.Y.C.k.^ $ $ y N.^.^.^.^.^.",
"^.^.^.^.^.Y.A $ $ 1 y d k k k k k k k k k k k k k k k k k k k k k k k k k k k k k k k d y $ $ $ K ^.^.^.^.^.^.",
"^.^.^.^.^.^.u.v $ $ $ $ $ $ $ $ $ $ $ $ $ $ $ $ $ $ $ $ $ $ $ $ $ $ $ $ $ $ $ $ $ $ $ $ $ O O v g.^.^.^.^.^.^.",
"^.^.^.^.^.^.^.k.| v y 7 7 7 7 7 7 7 7 7 7 7 7 7 7 7 7 7 7 7 7 7 7 7 7 7 7 7 7 7 7 7 7 7 y v ` N.^.^.^.^.^.^.^.",
"^.^.^.^.^.^.^.^.^.Y.N.k.k.k.k.k.k.k.k.k.k.k.k.k.k.k.k.k.k.k.k.k.k.k.k.k.k.k.k.k.k.k.k.k.N.Y.^.^.^.^.^.^.^.^.^.",
"^.^.^.^.^.^.^.^.^.^.^.^.^.^.^.^.^.^.^.^.^.^.^.^.^.^.^.^.^.^.^.^.^.^.^.^.^.^.^.^.^.^.^.^.^.^.^.^.^.^.^.^.^.^.^.",
"^.^.^.^.^.^.^.^.^.^.^.^.^.^.^.^.^.^.^.^.^.^.^.^.^.^.^.^.^.^.^.^.^.^.^.^.^.^.^.^.^.^.^.^.^.^.^.^.^.^.^.^.^.^.^.",
"^.^.^.^.^.^.^.^.^.^.^.^.^.^.^.^.^.^.^.^.^.^.^.^.^.^.^.^.^.^.^.^.^.^.^.^.^.^.^.^.^.^.^.^.^.^.^.^.^.^.^.^.^.^.^.",
"^.^.^.^.^.^.^.^.^.^.^.^.^.^.^.^.^.^.^.^.^.^.^.^.^.^.^.^.^.^.^.^.^.^.^.^.^.^.^.^.^.^.^.^.^.^.^.^.^.^.^.^.^.^.^.",
"^.^.^.^.^.^.^.^.^.^.^.^.^.^.^.^.^.^.^.^.^.^.^.^.^.^.^.^.^.^.^.^.^.^.^.^.^.^.^.^.^.^.^.^.^.^.^.^.^.^.^.^.^.^.^.",
"^.^.^.^.^.^.^.^.^.^.^.^.^.^.^.^.^.^.^.^.^.^.^.^.^.^.^.^.^.^.^.^.^.^.^.^.^.^.^.^.^.^.^.^.^.^.^.^.^.^.^.^.^.^.^.",
"^.^.^.^.^.^.^.^.^.^.^.^.^.^.^.^.^.^.^.^.^.^.^.^.^.^.^.^.^.^.^.^.^.^.^.^.^.^.^.^.^.^.^.^.^.^.^.^.^.^.^.^.^.^.^."
};
