/* XPM */
static char *paste[] = {
/* columns rows colors chars-per-pixel */
"55 55 138 2 ",
"   c #1B1B1B",
".  c #1D1D1D",
"X  c #1E1E1E",
"o  c gray12",
"O  c #202020",
"+  c gray13",
"@  c #222222",
"#  c #232323",
"$  c gray14",
"%  c #252525",
"&  c gray15",
"*  c #272727",
"=  c #282828",
"-  c gray16",
";  c #2A2A2A",
":  c gray17",
">  c #2C2C2C",
",  c #2D2D2D",
"<  c gray18",
"1  c #2F2F2F",
"2  c gray19",
"3  c #313131",
"4  c gray20",
"5  c #353535",
"6  c gray21",
"7  c gray22",
"8  c #393939",
"9  c #3A3A3A",
"0  c #3C3C3C",
"q  c #3E3E3E",
"w  c gray25",
"e  c #414141",
"r  c gray26",
"t  c #434343",
"y  c #444444",
"u  c #494949",
"i  c #4B4B4B",
"p  c gray30",
"a  c #4E4E4E",
"s  c #505050",
"d  c #515151",
"f  c gray32",
"g  c #535353",
"h  c gray33",
"j  c #555555",
"k  c #565656",
"l  c gray36",
"z  c #5D5D5D",
"x  c #686868",
"c  c gray42",
"v  c #6D6D6D",
"b  c #6F6F6F",
"n  c gray45",
"m  c #747474",
"M  c #767676",
"N  c #797979",
"B  c gray48",
"V  c #7E7E7E",
"C  c gray51",
"Z  c #838383",
"A  c #848484",
"S  c gray52",
"D  c gray53",
"F  c #888888",
"G  c #898989",
"H  c gray54",
"J  c #8B8B8B",
"K  c gray55",
"L  c #8D8D8D",
"P  c #8E8E8E",
"I  c gray56",
"U  c #909090",
"Y  c gray57",
"T  c #929292",
"R  c #939393",
"E  c gray58",
"W  c #959595",
"Q  c gray59",
"!  c #989898",
"~  c #9A9A9A",
"^  c gray62",
"/  c gray63",
"(  c #A2A2A2",
")  c gray64",
"_  c #A5A5A5",
"`  c #A7A7A7",
"'  c gray66",
"]  c #A9A9A9",
"[  c #AAAAAA",
"{  c gray67",
"}  c gray68",
"|  c #AEAEAE",
" . c #AFAFAF",
".. c #B2B2B2",
"X. c gray70",
"o. c #B4B4B4",
"O. c gray72",
"+. c #B9B9B9",
"@. c gray73",
"#. c #BCBCBC",
"$. c #C0C0C0",
"%. c gray76",
"&. c gray77",
"*. c #C5C5C5",
"=. c gray78",
"-. c #CECECE",
";. c gray81",
":. c gray82",
">. c #D2D2D2",
",. c LightGray",
"<. c #D5D5D5",
"1. c gray85",
"2. c gray86",
"3. c gainsboro",
"4. c #DFDFDF",
"5. c #E2E2E2",
"6. c #E4E4E4",
"7. c gray90",
"8. c gray91",
"9. c #E9E9E9",
"0. c #EAEAEA",
"q. c gray93",
"w. c #EEEEEE",
"e. c #EFEFEF",
"r. c gray94",
"t. c gray95",
"y. c #F3F3F3",
"u. c gray96",
"i. c #F6F6F6",
"p. c gray97",
"a. c #F8F8F8",
"s. c #F9F9F9",
"d. c gray98",
"f. c #FBFBFB",
"g. c gray99",
"h. c #FDFDFD",
"j. c #FEFEFE",
"k. c white",
/* pixels */
"k.k.k.k.k.k.k.k.k.k.k.k.k.k.k.k.k.k.k.k.k.k.k.k.k.k.k.k.k.k.k.k.k.k.k.k.k.k.k.k.k.k.k.k.k.k.k.k.k.k.k.k.k.k.k.",
"k.k.k.k.k.k.k.k.k.k.k.k.k.k.k.k.k.k.k.k.k.k.k.k.k.k.k.k.k.k.k.k.k.k.k.k.k.k.k.k.k.k.k.k.k.k.k.k.k.k.k.k.k.k.k.",
"k.k.k.k.k.k.k.k.k.k.k.k.k.k.k.k.k.k.k.k.k.k.k.k.k.k.k.k.k.k.k.k.k.k.k.k.k.k.k.k.k.k.k.k.k.k.k.k.k.k.k.k.k.k.k.",
"k.k.k.k.k.k.k.k.k.k.k.k.k.k.k.k.k.k.k.k.k.k.k.k.k.k.k.k.k.k.k.k.k.k.k.k.k.k.k.k.k.k.k.k.k.k.k.k.k.k.k.k.k.k.k.",
"k.k.k.k.k.k.k.k.k.k.k.k.k.k.k.k.k.k.k.k.X.i - 6 6 6 6 6 6 6 6 6 6 6 6 6 6 6 6 6 6 - i X.k.k.k.k.k.k.k.k.k.k.k.",
"k.k.k.k.k.k.k.k.k.k.k.k.k.k.k.k.k.k.9.v + + + + + + + + + + + + + + + + + + + + + + + + v 9.k.k.k.k.k.k.k.k.k.",
"k.k.k.k.k.k.k.k.k.k.k.k.k.k.k.k.k.k.B + + + + + + + + + + + + + + + + + + + + + + + + + + B k.k.k.k.k.k.k.k.k.",
"k.k.k.k.k.k.k.k.k.k.k.k.k.k.k.k.k.<.0 + + + + + + + + 6 6 6 6 6 6 6 6 6 6 + + + + + + + + 0 7.k.k.k.k.k.k.k.k.",
"k.k.k.k.k.k.k.k.k.k.k.k.k.k.k.k.k.} - + + - - - + + A 3.7.7.7.7.7.7.7.7.3.A + + - - + + + - X.k.k.k.k.k.k.k.k.",
"k.k.k.k.k.k.k.k.k.k.k.k.k.k.k.k.k.Q - + + - - - + + @.k.k.k.k.k.k.k.k.k.k.@.+ + + + + + + - Q k.k.k.k.k.k.k.k.",
"k.k.k.k.k.k.k.k.k.k.k.k.k.k.k.k.k.Q - + + + + - + + z } } } } } } } X.X.} z + + + + + + + - J k.k.k.k.k.k.k.k.",
"k.k.k.k.k.k.k.k.k.k.k.k.k.k.k.k.k.Q - + + + + + + + + + X X X X + + + + + + + + - + + + + - J k.k.k.k.k.k.k.k.",
"k.k.k.k.k.k.k.k.k.k.k.k.k.k.k.k.k.Q - + + + + + + - - - + + + + + + - - - - - - - - - + + - J k.k.k.k.k.k.k.k.",
"k.k.k.k.k.k.k.k.k.k.k.9.%.} / / / v 6 - - - - - - - - - + + + + + + - - - - - - - - + + + - J k.k.k.k.k.k.k.k.",
"k.k.k.k.k.k.k.k.k.k.} f + X X X X + + + + + - - 6 - - - + + + + + + + + - + + + + + + + + - J k.k.k.k.k.k.k.k.",
"k.k.k.k.k.k.k.k.k./ 6 + + + - - - - - - + + + + + 6 - - + + + + + + + + + + + + + + + + + - J k.k.k.k.k.k.k.k.",
"k.k.k.k.k.k.k.k.9.f + + r v A A A A A A f + + - + - - - + + + + + - - - - - + + + - - - + - J k.k.k.k.k.k.k.k.",
"k.k.k.k.k.k.k.k.-.0 + 0 %.k.k.k.k.k.k.k.J + - z 6 + + - - + + + + + - - + - + + + - - - + - J k.k.k.k.k.k.k.k.",
"k.k.k.k.k.k.k.k.X.- + n i.k.k.k.k.k.k.k.J + + @.! 6 + - 6 - + + + + + + + + + + + + - - + - J k.k.k.k.k.k.k.k.",
"k.k.k.k.k.k.k.k.} + + J i.k.k.k.k.k.k.k.J + + @.k.Q - + - 6 - + + + + + + + + + + + + + + - J k.k.k.k.k.k.k.k.",
"k.k.k.k.k.k.k.k.} + + J i.k.k.k.k.k.k.k.J + + @.k.k.J - + - 6 - - - + + + + - - + + - - - - J k.k.k.k.k.k.k.k.",
"k.k.k.k.k.k.k.k.} + + J i.k.k.k.k.k.k.k.J + + @.k.k.k.J - + - 6 - - + + + + - - + + - - + - J k.k.k.k.k.k.k.k.",
"k.k.k.k.k.k.k.k.} + + J i.k.k.k.k.k.k.k.J + + @.k.k.k.k.Q 6 + - 6 - + + + + + + + + + - + - J k.k.k.k.k.k.k.k.",
"k.k.k.k.k.k.k.k.} + + J i.k.k.k.k.k.k.k.J + + @.k.k.k.k.k.J - + - 6 - + + + - - + + - - + - J k.k.k.k.k.k.k.k.",
"k.k.k.k.k.k.k.k.} + + J i.k.k.k.k.k.k.k.J + + @.k.k.k.k.k.i.J - + - - - + + - + - + + + + - J k.k.k.k.k.k.k.k.",
"k.k.k.k.k.k.k.k.} + + J i.k.k.k.k.k.k.k.J + + @.k.k.k.k.k.k.i.A - + - - - + + - + + + + + - J k.k.k.k.k.k.k.k.",
"k.k.k.k.k.k.k.k.} + + J i.k.k.k.k.k.k.k.J + + @.k.k.k.k.k.k.k.i.A - + - - + + + + + + + + - J k.k.k.k.k.k.k.k.",
"k.k.k.k.k.k.k.k.} + + J i.k.k.k.k.k.k.k.J + + Q <.3.3.3.3.3.3.3.<.z + + - - + + - - + + + - J k.k.k.k.k.k.k.k.",
"k.k.k.k.k.k.k.k.} + + J i.k.k.k.k.k.k.k.@.- + - r r r r r r r r r 0 + + - 6 - - - - - - + - J k.k.k.k.k.k.k.k.",
"k.k.k.k.k.k.k.k.} + + J i.k.k.k.k.k.k.k.9.n 6 - + + + + + + + + + + + + - 6 - + - - + + + - J k.k.k.k.k.k.k.k.",
"k.k.k.k.k.k.k.k.} + + J i.k.k.k.k.k.k.k.k.3./ J A A A A A A A A A A f + - 6 + + + + + + + - J k.k.k.k.k.k.k.k.",
"k.k.k.k.k.k.k.k.} + + J i.k.k.k.k.k.k.k.k.k.k.i.9.9.9.9.9.9.9.9.9.9.J + - 6 + + + + + + + - J k.k.k.k.k.k.k.k.",
"k.k.k.k.k.k.k.k.} + + J i.k.k.k.k.k.k.k.k.k.k.k.k.k.k.k.k.k.k.k.k.k.Q X - 6 - + + + - - - - J k.k.k.k.k.k.k.k.",
"k.k.k.k.k.k.k.k.} + + J i.k.k.k.k.k.k.k.k.k.k.k.k.k.k.k.k.k.k.k.k.k.Q X - 6 + + + + - - - - J k.k.k.k.k.k.k.k.",
"k.k.k.k.k.k.k.k.} + + J i.k.k.k.k.k.k.k.k.k.k.k.k.k.k.k.k.k.k.k.k.k.Q X - 6 + + + + + + + - J k.k.k.k.k.k.k.k.",
"k.k.k.k.k.k.k.k.} + + J i.k.k.k.k.k.k.k.k.k.k.k.k.k.k.k.k.k.k.k.k.k.Q X - 6 + + + + + + + - J k.k.k.k.k.k.k.k.",
"k.k.k.k.k.k.k.k.} + + J i.k.k.k.k.k.k.k.k.k.k.k.k.k.k.k.k.k.k.k.k.k.Q X + 6 + + + + + + + - ! k.k.k.k.k.k.k.k.",
"k.k.k.k.k.k.k.k.} + + J i.k.k.k.k.k.k.k.k.k.k.k.k.k.k.k.k.k.k.k.k.k.Q X + 6 + + + + + + + - %.k.k.k.k.k.k.k.k.",
"k.k.k.k.k.k.k.k.} + + J i.k.k.k.k.k.k.k.k.k.k.k.k.k.k.k.k.k.k.k.k.k.Q X + 6 + + + + + + + i 9.k.k.k.k.k.k.k.k.",
"k.k.k.k.k.k.k.k.} + + J i.k.k.k.k.k.k.k.k.k.k.k.k.k.k.k.k.k.k.k.k.k.Q X + 6 + + + + + + 6 / k.k.k.k.k.k.k.k.k.",
"k.k.k.k.k.k.k.k.} + + J i.k.k.k.k.k.k.k.k.k.k.k.k.k.k.k.k.k.k.k.k.k.Q X + 6 - + - - 6 f } 9.k.k.k.k.k.k.k.k.k.",
"k.k.k.k.k.k.k.k.} + + J i.k.k.k.k.k.k.k.k.k.k.k.k.k.k.k.k.k.k.k.k.k.Q X + n @.@.@.%.<.9.k.k.k.k.k.k.k.k.k.k.k.",
"k.k.k.k.k.k.k.k.} + + J i.k.k.k.k.k.k.k.k.k.k.k.k.k.k.k.k.k.k.k.k.k.Q X + Q k.k.k.k.k.k.k.k.k.k.k.k.k.k.k.k.k.",
"k.k.k.k.k.k.k.k.} + + J i.k.k.k.k.k.k.k.k.k.k.k.k.k.k.k.k.k.k.k.k.k.Q X + Q k.k.k.k.k.k.k.k.k.k.k.k.k.k.k.k.k.",
"k.k.k.k.k.k.k.k.} + + J i.k.k.k.k.k.k.k.k.k.k.k.k.k.k.k.k.k.k.k.k.k.Q X + Q k.k.k.k.k.k.k.k.k.k.k.k.k.k.k.k.k.",
"k.k.k.k.k.k.k.k.} - X B i.k.k.k.k.k.k.k.k.k.k.k.k.k.k.k.k.k.k.k.k.k.A X + ! k.k.k.k.k.k.k.k.k.k.k.k.k.k.k.k.k.",
"k.k.k.k.k.k.k.k.%.6 + i 3.k.k.k.k.k.k.k.k.k.k.k.k.k.k.k.k.k.k.k.k.7.r + + X.k.k.k.k.k.k.k.k.k.k.k.k.k.k.k.k.k.",
"k.k.k.k.k.k.k.k.9.i + + f Q } } } } } } } } } } } } } } } } } } Q f + + 0 3.k.k.k.k.k.k.k.k.k.k.k.k.k.k.k.k.k.",
"k.k.k.k.k.k.k.k.k.Q 6 + + + + + + + + + + + + + + + + + + + + + + + + X J k.k.k.k.k.k.k.k.k.k.k.k.k.k.k.k.k.k.",
"k.k.k.k.k.k.k.k.k.9.J 0 + + + + + + + + + + + + + + + + + + + + + + - B i.k.k.k.k.k.k.k.k.k.k.k.k.k.k.k.k.k.k.",
"k.k.k.k.k.k.k.k.k.k.k.<.J f r 0 0 0 0 0 r 0 0 0 0 0 0 0 0 0 0 0 i J -.k.k.k.k.k.k.k.k.k.k.k.k.k.k.k.k.k.k.k.k.",
"k.k.k.k.k.k.k.k.k.k.k.k.k.k.k.k.k.k.k.k.k.k.k.k.k.k.k.k.k.k.k.k.k.k.k.k.k.k.k.k.k.k.k.k.k.k.k.k.k.k.k.k.k.k.k.",
"k.k.k.k.k.k.k.k.k.k.k.k.k.k.k.k.k.k.k.k.k.k.k.k.k.k.k.k.k.k.k.k.k.k.k.k.k.k.k.k.k.k.k.k.k.k.k.k.k.k.k.k.k.k.k.",
"k.k.k.k.k.k.k.k.k.k.k.k.k.k.k.k.k.k.k.k.k.k.k.k.k.k.k.k.k.k.k.k.k.k.k.k.k.k.k.k.k.k.k.k.k.k.k.k.k.k.k.k.k.k.k.",
"k.k.k.k.k.k.k.k.k.k.k.k.k.k.k.k.k.k.k.k.k.k.k.k.k.k.k.k.k.k.k.k.k.k.k.k.k.k.k.k.k.k.k.k.k.k.k.k.k.k.k.k.k.k.k."
};
