/* XPM */
static char *paste[] = {
/* columns rows colors chars-per-pixel */
"55 55 138 2 ",
"   c None",
".  c #1B1B1B",
"X  c #1D1D1D",
"o  c #1E1E1E",
"O  c gray12",
"+  c #202020",
"@  c gray13",
"#  c #222222",
"$  c #232323",
"%  c gray14",
"&  c #252525",
"*  c gray15",
"=  c #272727",
"-  c #282828",
";  c gray16",
":  c #2A2A2A",
">  c gray17",
",  c #2C2C2C",
"<  c #2D2D2D",
"1  c gray18",
"2  c #2F2F2F",
"3  c gray19",
"4  c #313131",
"5  c gray20",
"6  c #353535",
"7  c gray21",
"8  c gray22",
"9  c #393939",
"0  c #3A3A3A",
"q  c #3C3C3C",
"w  c #3E3E3E",
"e  c gray25",
"r  c #414141",
"t  c gray26",
"y  c #434343",
"u  c #444444",
"i  c #494949",
"p  c #4B4B4B",
"a  c gray30",
"s  c #4E4E4E",
"d  c #505050",
"f  c #515151",
"g  c gray32",
"h  c #535353",
"j  c gray33",
"k  c #555555",
"l  c #565656",
"z  c gray36",
"x  c #5D5D5D",
"c  c #686868",
"v  c gray42",
"b  c #6D6D6D",
"n  c #6F6F6F",
"m  c gray45",
"M  c #747474",
"N  c #767676",
"B  c #797979",
"V  c gray48",
"C  c #7E7E7E",
"Z  c gray51",
"A  c #838383",
"S  c #848484",
"D  c gray52",
"F  c gray53",
"G  c #888888",
"H  c #898989",
"J  c gray54",
"K  c #8B8B8B",
"L  c gray55",
"P  c #8D8D8D",
"I  c #8E8E8E",
"U  c gray56",
"Y  c #909090",
"T  c gray57",
"R  c #929292",
"E  c #939393",
"W  c gray58",
"Q  c #959595",
"!  c gray59",
"~  c #989898",
"^  c #9A9A9A",
"/  c gray62",
"(  c gray63",
")  c #A2A2A2",
"_  c gray64",
"`  c #A5A5A5",
"'  c #A7A7A7",
"]  c gray66",
"[  c #A9A9A9",
"{  c #AAAAAA",
"}  c gray67",
"|  c gray68",
" . c #AEAEAE",
".. c #AFAFAF",
"X. c #B2B2B2",
"o. c gray70",
"O. c #B4B4B4",
"+. c gray72",
"@. c #B9B9B9",
"#. c gray73",
"$. c #BCBCBC",
"%. c #C0C0C0",
"&. c gray76",
"*. c gray77",
"=. c #C5C5C5",
"-. c gray78",
";. c #CECECE",
":. c gray81",
">. c gray82",
",. c #D2D2D2",
"<. c LightGray",
"1. c #D5D5D5",
"2. c gray85",
"3. c gray86",
"4. c gainsboro",
"5. c #DFDFDF",
"6. c #E2E2E2",
"7. c #E4E4E4",
"8. c gray90",
"9. c gray91",
"0. c #E9E9E9",
"q. c #EAEAEA",
"w. c gray93",
"e. c #EEEEEE",
"r. c #EFEFEF",
"t. c gray94",
"y. c gray95",
"u. c #F3F3F3",
"i. c gray96",
"p. c #F6F6F6",
"a. c gray97",
"s. c #F8F8F8",
"d. c #F9F9F9",
"f. c gray98",
"g. c #FBFBFB",
"h. c gray99",
"j. c #FDFDFD",
"k. c #FEFEFE",
/* pixels */
"                                                                                                              ",
"                                                                                                              ",
"                                                                                                              ",
"                                                                                                              ",
"                                      j.o.p ; 7 7 7 7 7 7 7 7 7 7 7 7 7 7 7 7 7 7 ; p o.j.                    ",
"                                    0.b @ @ @ @ @ @ @ @ @ @ @ @ @ @ @ @ @ @ @ @ @ @ @ @ b 0.                  ",
"                                  j.V @ @ @ @ @ @ @ @ @ @ @ @ @ @ @ @ @ @ @ @ @ @ @ @ @ @ V j.                ",
"                                  1.q @ @ @ @ @ @ @ @ 7 7 7 7 7 7 7 7 7 7 @ @ @ @ @ @ @ @ q 8.                ",
"                                  | ; @ ; @ @ @ @ @ S 4.8.8.8.8.8.8.8.8.4.S @ @ ; ; @ @ @ ; o.                ",
"                                  ! ; @ ; @ @ ; @ @ #.j.j.j.j.j.j.j.j.j.j.#.@ @ @ @ @ @ @ ; !                 ",
"                                  ! ; @ @ @ @ ; @ @ x | | | | | | | o.o.| x @ @ @ @ @ @ @ ; K                 ",
"                                  ! ; @ ; ; @ @ @ @ @ @ O O O O @ @ @ @ @ @ @ @ ; ; @ @ @ ; K                 ",
"                        j.j.j.j.j.! ; @ @ @ @ @ @ @ ; ; @ @ @ @ @ ; ; ; ; ; ; ; ; ; @ @ @ ; K                 ",
"                    j.0.&.| ( ( ( b 7 ; 7 ; ; ; ; ; ; ; @ @ @ @ @ @ ; ; ; ; ; ; ; ; @ @ @ ; K                 ",
"                  j.| g @ O O O O @ @ @ @ @ ; ; 7 ; ; ; @ @ @ @ @ @ @ @ @ @ @ ; @ @ @ @ @ ; K                 ",
"                j.( 7 @ @ @ ; ; ; ; ; ; @ @ @ @ @ 7 ; ; @ @ @ @ @ @ @ @ @ @ @ @ @ @ @ @ @ ; K                 ",
"                0.g @ @ t b S S S S S S g @ @ ; @ ; ; ; @ @ @ @ @ ; ; ; ; ; @ @ @ ; ; ; @ ; K                 ",
"                ;.q @ q &.j.            K @ ; x 7 @ @ 7 ; @ @ @ @ @ ; ; @ ; @ @ @ ; ; ; @ ; K                 ",
"                o.; @ m a.              K @ @ #.~ 7 @ ; 7 ; @ @ @ @ @ @ @ @ @ @ @ @ ; ; @ ; K                 ",
"                | @ @ K a.              K @ @ #.j.! ; @ ; 7 ; @ @ @ @ @ @ @ @ @ @ @ @ @ @ ; K                 ",
"                | @ @ K a.              K @ @ #.j.j.K ; @ ; 7 ; ; ; @ @ @ @ ; ; @ @ ; ; ; ; K                 ",
"                | @ @ K a.              K @ @ #.j.  j.K ; @ ; 7 ; ; @ @ @ @ ; ; @ @ ; ; @ ; K                 ",
"                | @ @ K a.              K @ @ #.j.    j.! 7 @ ; 7 ; @ @ @ @ @ @ @ @ @ ; @ ; K                 ",
"                | @ @ K a.              K @ @ #.j.      j.K ; @ ; 7 ; @ @ @ ; ; @ @ ; ; @ ; K                 ",
"                | @ @ K a.              K @ @ #.j.        a.K ; @ ; ; ; @ @ ; @ ; @ @ @ @ ; K                 ",
"                | @ @ K a.              K @ @ #.j.          a.S ; @ ; ; ; @ @ ; @ @ @ @ @ ; K                 ",
"                | @ @ K a.              K @ @ #.j.            a.S ; @ ; ; @ @ @ @ @ @ @ @ ; K                 ",
"                | @ @ K a.              K @ @ ! 1.4.4.4.4.4.4.4.1.x @ @ ; ; @ @ ; ; @ @ @ ; K                 ",
"                | @ @ K a.              #.; @ ; t t t t t t t t t q @ @ ; 7 ; ; ; ; ; ; @ ; K                 ",
"                | @ @ K a.              0.m 7 ; @ @ @ @ @ @ @ @ @ @ @ @ ; 7 ; @ ; ; @ @ @ ; K                 ",
"                | @ @ K a.                4.( K S S S S S S S S S S g @ ; 7 @ @ @ @ @ @ @ ; K                 ",
"                | @ @ K a.                  j.a.0.0.0.0.0.0.0.0.0.0.K @ ; 7 @ @ @ @ @ @ @ ; K                 ",
"                | @ @ K a.                                          ! O ; 7 @ @ @ @ ; ; ; ; K                 ",
"                | @ @ K a.                                          ! O ; 7 @ @ @ @ ; ; ; ; K                 ",
"                | @ @ K a.                                          ! O ; 7 @ @ @ @ @ ; @ ; K                 ",
"                | @ @ K a.                                          ! O ; 7 @ @ @ @ @ @ @ ; K                 ",
"                | @ @ K a.                                          ! O @ 7 @ @ @ @ @ @ @ ; ~                 ",
"                | @ @ K a.                                          ! O @ 7 @ @ @ @ @ @ @ 7 &.                ",
"                | @ @ K a.                                          ! O @ 7 @ @ @ @ @ @ @ p 0.                ",
"                | @ @ K a.                                          ! O @ 7 @ @ @ @ @ @ 7 ( j.                ",
"                | @ @ K a.                                          ! O @ 7 ; @ ; ; 7 g | 0.                  ",
"                | @ @ K a.                                          ! O @ m #.#.#.&.1.0.j.                    ",
"                | @ @ K a.                                          ! O @ ! j.j.j.j.j.                        ",
"                | @ @ K a.                                          ! O @ !                                   ",
"                | @ @ K a.                                          ! O @ !                                   ",
"                | ; O V a.                                          S O @ ~                                   ",
"                &.7 @ p 4.j.                                      8.t @ @ o.                                  ",
"                0.p @ @ g ! | | | | | | | | | | | | | | | | | | ! g @ @ q 4.                                  ",
"                j.! 7 @ @ @ @ @ @ @ @ @ @ @ @ @ @ @ @ @ @ @ @ @ @ @ @ O K j.                                  ",
"                  0.K q @ @ @ @ @ @ @ @ @ @ @ @ @ @ @ @ @ @ @ @ @ @ ; V a.                                    ",
"                    j.1.K g t q q q q q t t q q q q q q q q q q p K ;.j.                                      ",
"                        j.j.j.j.j.j.j.j.j.j.j.j.j.j.j.j.j.j.j.j.j.j.                                          ",
"                                                                                                              ",
"                                                                                                              ",
"                                                                                                              "
};
