/* XPM */
static char *preferences_dark[] = {
/* columns rows colors chars-per-pixel */
"55 55 30 1 ",
"  c None",
". c gray1",
"X c #0C0C0C",
"o c #101010",
"O c gray12",
"+ c #272727",
"@ c #2D2D2D",
"# c gray20",
"$ c gray23",
"% c gray25",
"& c gray30",
"* c #555555",
"= c gray37",
"- c #676767",
"; c #686868",
": c #777777",
"> c gray50",
", c gray53",
"< c #8D8D8D",
"1 c gray59",
"2 c gray60",
"3 c gray65",
"4 c #AEAEAE",
"5 c gray71",
"6 c #B9B9B9",
"7 c gray76",
"8 c gray81",
"9 c #D5D5D5",
"0 c #DADADA",
"q c gray88",
/* pixels */
"                                                       ",
"                                                       ",
"                                                       ",
"                                                       ",
"                                                       ",
"                                                       ",
"                                                       ",
"                       .XOOOOOo.                       ",
"                      .+;46665>@.                      ",
"                      O190000005O.                     ",
"                .     %606222500&.    .                ",
"              .+&*#.  -80-@@@=9q>.  O&=$X              ",
"             .$<672*o.,98@.  O604XX$,684=X             ",
"            .$290006:*505O   X208*;4000q7=X            ",
"           .$2905260969q1X    :0068q931907=X           ",
"           O3091$o#19q95&.    #49q03*Oo-909;.          ",
"          .$802#. .O-,=@X     X+&1;+X  o;0q5X          ",
"          .$90,O    XOX.        XOo.    %005.          ",
"           +4q5&.                      X200;.          ",
"           X;80<+                      =0q5O           ",
"            @107-X      X#*-=$o       +609%.           ",
"            .=702@    .$1899984*.     -q03.            ",
"         X@*<599:o   .*600qqqq08;.    @9082:%O         ",
"        O,7900q6&.   $5005:*;4009*.   .3q00985=.       ",
"       X>900962=o   o1901+XXXO>005O    $<590008#       ",
"       o808,%+oX.   $605#.    o300&.   .Xo#*300:       ",
"       O005#..      -8q>o      -0q:.      .X=00,       ",
"       O005#        ;80=X      $9q<X        *q0,       ",
"       O005@        -8q;o      *0q>.        *q0,       ",
"       O907=o.      %7q3+     .10q=.      X+,00,       ",
"       X200961;#X   O300>X   .=907+.   O=,48000&       ",
"       .$5qq0004$   .*7091*#&<800;.    <0000q01X       ",
"        .+=<6908-X   X:80099900q<X    O80084>%X        ",
"         ..Xo-702@    X=50qqq08:X     ;q03OX..         ",
"            o>90,O      o*,1,=O.      %007O            ",
"            *6q4$                      <qq<            ",
"           o208-.                      O700%           ",
"          .#80<+                        *0q3.          ",
"          .%99,O    @*+.        o=#.    %006X          ",
"           @6q8:o X;7q81#.    O,7q9>o. #80q<.          ",
"           X;809,&<0000q,X    -q000q7*%8q04O           ",
"            o;800000738q3o   .<09270009004O            ",
"             o;80002$o107+.  o406o@190004O             ",
"              o*34:o  >99$X..#701X .&25,O              ",
"                .X.   *70<*&&,90;.   .X                ",
"                      @500000009$.                     ",
"                      .;7900009,X                      ",
"                       .$:>>,>&X                       ",
"                                                       ",
"                                                       ",
"                                                       ",
"                                                       ",
"                                                       ",
"                                                       ",
"                                                       "
};
