/* XPM */
static char *preferences_dark[] = {
/* columns rows colors chars-per-pixel */
"55 55 210 2 ",
"   c black",
".  c #010101",
"X  c #020202",
"o  c gray1",
"O  c #040404",
"+  c gray2",
"@  c #060606",
"#  c #070707",
"$  c gray3",
"%  c #090909",
"&  c gray4",
"*  c #0B0B0B",
"=  c #0C0C0C",
"-  c gray5",
";  c #0E0E0E",
":  c gray6",
">  c #101010",
",  c #111111",
"<  c gray7",
"1  c #131313",
"2  c gray8",
"3  c #151515",
"4  c #161616",
"5  c gray9",
"6  c #181818",
"7  c #191919",
"8  c gray10",
"9  c #1B1B1B",
"0  c gray11",
"q  c #1D1D1D",
"w  c #1E1E1E",
"e  c gray12",
"r  c #202020",
"t  c gray13",
"y  c #222222",
"u  c gray14",
"i  c gray15",
"p  c #272727",
"a  c #282828",
"s  c gray16",
"d  c #2A2A2A",
"f  c gray17",
"g  c #2D2D2D",
"h  c gray18",
"j  c gray19",
"k  c #313131",
"l  c #323232",
"z  c gray20",
"x  c #343434",
"c  c #353535",
"v  c gray21",
"b  c #373737",
"n  c gray22",
"m  c #393939",
"M  c #3A3A3A",
"N  c gray23",
"B  c #3C3C3C",
"V  c gray24",
"C  c #3E3E3E",
"Z  c #3F3F3F",
"A  c gray25",
"S  c #414141",
"D  c #434343",
"F  c #444444",
"G  c #464646",
"H  c gray28",
"J  c #484848",
"K  c #494949",
"L  c #4B4B4B",
"P  c #4C4C4C",
"I  c gray30",
"U  c #4E4E4E",
"Y  c gray31",
"T  c #505050",
"R  c #515151",
"E  c gray32",
"W  c #535353",
"Q  c gray33",
"!  c #555555",
"~  c #565656",
"^  c gray34",
"/  c #585858",
"(  c gray35",
")  c #5A5A5A",
"_  c #5B5B5B",
"`  c gray36",
"'  c #5D5D5D",
"]  c gray37",
"[  c #5F5F5F",
"{  c #606060",
"}  c gray38",
"|  c gray39",
" . c #646464",
".. c gray40",
"X. c #676767",
"o. c #686868",
"O. c DimGray",
"+. c #6A6A6A",
"@. c gray42",
"#. c #6C6C6C",
"$. c #6D6D6D",
"%. c gray43",
"&. c #6F6F6F",
"*. c gray44",
"=. c #717171",
"-. c #747474",
";. c gray46",
":. c #767676",
">. c #777777",
",. c gray47",
"<. c #797979",
"1. c #7B7B7B",
"2. c #7C7C7C",
"3. c #7E7E7E",
"4. c gray50",
"5. c #808080",
"6. c gray51",
"7. c #838383",
"8. c #848484",
"9. c gray52",
"0. c #868686",
"q. c gray53",
"w. c #898989",
"e. c gray54",
"r. c gray55",
"t. c #8D8D8D",
"y. c #8E8E8E",
"u. c gray56",
"i. c #909090",
"p. c gray57",
"a. c #929292",
"s. c gray58",
"d. c #959595",
"f. c gray59",
"g. c #979797",
"h. c #989898",
"j. c gray60",
"k. c #9A9A9A",
"l. c gray61",
"z. c gray62",
"x. c #9F9F9F",
"c. c #A0A0A0",
"v. c gray63",
"b. c #A2A2A2",
"n. c gray64",
"m. c #A4A4A4",
"M. c #A5A5A5",
"N. c gray65",
"B. c #A7A7A7",
"V. c gray66",
"C. c #A9A9A9",
"Z. c #AAAAAA",
"A. c gray67",
"S. c #ACACAC",
"D. c #AEAEAE",
"F. c #AFAFAF",
"G. c gray69",
"H. c #B1B1B1",
"J. c gray70",
"K. c #B4B4B4",
"L. c gray71",
"P. c #B6B6B6",
"I. c #B7B7B7",
"U. c gray72",
"Y. c #B9B9B9",
"T. c gray73",
"R. c #BBBBBB",
"E. c #BCBCBC",
"W. c gray74",
"Q. c gray",
"!. c gray75",
"~. c #C0C0C0",
"^. c #C1C1C1",
"/. c gray76",
"(. c #C3C3C3",
"). c gray77",
"_. c #C5C5C5",
"`. c #C6C6C6",
"'. c gray78",
"]. c #C8C8C8",
"[. c gray79",
"{. c #CACACA",
"}. c #CBCBCB",
"|. c gray80",
" X c #CDCDCD",
".X c #CECECE",
"XX c gray81",
"oX c #D0D0D0",
"OX c gray82",
"+X c #D2D2D2",
"@X c LightGray",
"#X c gray83",
"$X c #D5D5D5",
"%X c gray84",
"&X c #D7D7D7",
"*X c #D8D8D8",
"=X c gray85",
"-X c #DADADA",
";X c gray86",
":X c gainsboro",
">X c #DDDDDD",
",X c gray87",
"<X c #DFDFDF",
"1X c gray88",
"2X c #E1E1E1",
"3X c #E2E2E2",
"4X c gray89",
"5X c #E4E4E4",
"6X c #E6E6E6",
"7X c #E7E7E7",
/* pixels */
"                                                                                                              ",
"                                                                                                              ",
"                                                                                                              ",
"                                                                                                              ",
"                                                                                                              ",
"                                                                                                              ",
"                                                                                                              ",
"                                                = e e e e e >                                                 ",
"                                              r o.D.Y.Y.Y.P.5.a                                               ",
"                                            e f.$X-X-X-X1X-X-XP.e                                             ",
"                                            A Y.-XY.j.j.j.P.-X-XI                                             ",
"                              a I ! z       X.XX-XX.a a a ] $X1X1.      e I ] N =                             ",
"                            N y.Y./.j.! >   5.$XXXa       e Y.-XD.= = N 5.Y.XXD.] =                           ",
"                          N j.$X-X-X-XY.>.! P.-XP.e       = j.-XXX! o.D.-X-X-X1X/.] =                         ",
"                        N j.$X-XP.j.Y.-X$XY.$X1Xf.=         >.-X-XY.XX1X$XN.f.$X-X/.] =                       ",
"                      e N.-X$Xf.N e z f.$X1X$XP.I           z D.$X1X-XN.! e > X.$X-X$Xo.                      ",
"                      N XX-Xj.z       e X.5.] a =           = r I f.o.r =     > o.-X1XP.=                     ",
"                      N $X-X5.e         = e =                   = e >           A -X-XP.                      ",
"                      r D.1XP.I                                               = j.-X-Xo.                      ",
"                      = o.XX-Xy.r                                             ] -X1XP.e                       ",
"                        a f.-X/.X.=             = z ! X.] N >               r Y.-X$XA                         ",
"                          ] /.-Xj.a           N f.XX$X$X$XXXD.!             X.1X-XN.                          ",
"                  = a ! y.P.$X$X>.>         ! Y.-X-X1X1X1X1X-XXXo.          a $X-XXXj.>.A e                   ",
"                e 5./.$X-X-X1XY.I         N P.-X-XP.>.! o.D.-X-X$X!           N.1X-X-X$XXXP.]                 ",
"              = 1.$X-X-X$XY.j.] >       > f.$X-Xf.r = = = e 1.-X-XP.e         N y.P.$X-X-X-XXXz               ",
"              > XX-XXX5.A r > =         N Y.-XP.z           > N.-X-XI           = > z ! N.-X-X>.              ",
"              e -X-XP.z                 X.XX1X1.>             X.-X1X1.                = ] 1X-X5.              ",
"              e -X-XP.z                 o.XX-X] =             N $X1Xy.=                 ] 1X-X5.              ",
"              e -X-XP.a                 X.XX1Xo.>             ! -X1X1.=                 ! 1X-X5.              ",
"              e $X-X/.] >               A /.1XN.r             f.-X1X]               = r 5.-X-X5.              ",
"              = j.-X-X$XY.f.o.z =       e N.-X-X1.=         ] $X-X/.r         e ] 5.D.XX-X-X-XI               ",
"                N P.1X1X-X-X-XD.N         ! /.-X$Xf.! z I y.XX-X-Xo.          y.-X-X-X-X1X-Xf.=               ",
"                  r ] y.Y.$X-XXXX.=       = >.XX-X-X$X$X$X-X-X1Xy.=         e XX-X-XXXD.1.A =                 ",
"                      = > X./.-Xj.a         = ] P.-X1X1X1X1XXX>.=           o.1X-XN.e =                       ",
"                        > 1.$X-X5.e             > ! 5.f.5.] e               A -X-X/.e                         ",
"                        ! Y.1XD.N                                             y.1X1Xy.                        ",
"                      > j.-XXXX.                                              e /.-X-XA                       ",
"                      z XX-Xy.r                                                 ! -X1XN.                      ",
"                      A $X-X5.e         a ! r                   > ] z           A -X-XY.=                     ",
"                      a /.1XXX>.>   = o./.1XXXf.z           e 5./.1X$X1.>     z XX-X1Xy.                      ",
"                      = o.XX-X$X5.I y.-X-X-X-X1X5.=         X.1X-X-X-X1X/.! A XX1X-XD.e                       ",
"                        > o.XX-X-X-X-X-X/.N.XX1XN.>         y.-X$Xj./.-X-X-X$X-X-XD.e                         ",
"                          > o.XX-X-X-Xj.N > f.-X/.r       > D.-XY.> a f.$X-X-X-XD.e                           ",
"                            > ! N.D.>.>     1.$X$XN =     z /.1Xf.=     I N.P.5.e                             ",
"                                  =         ! /.-Xy.! I I 5.$X1Xo.          =                                 ",
"                                            a P.-X-X-X-X-X-X-X$XN                                             ",
"                                              o./.-X-X-X-X-X$X5.=                                             ",
"                                                N 1.1.5.5.1.I =                                               ",
"                                                                                                              ",
"                                                                                                              ",
"                                                                                                              ",
"                                                                                                              ",
"                                                                                                              ",
"                                                                                                              ",
"                                                                                                              "
};
