/* XPM */
static char *prev_node[] = {
/* columns rows colors chars-per-pixel */
"55 55 142 2 ",
"   c #191919",
".  c #1B1B1B",
"X  c #1E1E1E",
"o  c gray12",
"O  c #202020",
"+  c gray13",
"@  c #222222",
"#  c #232323",
"$  c gray14",
"%  c #252525",
"&  c gray15",
"*  c #272727",
"=  c #282828",
"-  c #2A2A2A",
";  c #2C2C2C",
":  c #2D2D2D",
">  c gray18",
",  c gray19",
"<  c #313131",
"1  c gray20",
"2  c #343434",
"3  c #353535",
"4  c #373737",
"5  c gray22",
"6  c #393939",
"7  c #3A3A3A",
"8  c gray23",
"9  c #3C3C3C",
"0  c gray25",
"q  c #414141",
"w  c #434343",
"e  c gray27",
"r  c #464646",
"t  c #484848",
"y  c #494949",
"u  c gray29",
"i  c #4B4B4B",
"p  c #4C4C4C",
"a  c #4E4E4E",
"s  c gray31",
"d  c #515151",
"f  c gray33",
"g  c #555555",
"h  c gray34",
"j  c #585858",
"k  c gray35",
"l  c #5A5A5A",
"z  c #5B5B5B",
"x  c gray36",
"c  c #5F5F5F",
"v  c #606060",
"b  c #626262",
"n  c #646464",
"m  c #656565",
"M  c #6A6A6A",
"N  c gray42",
"B  c #6C6C6C",
"V  c gray43",
"C  c gray44",
"Z  c #727272",
"A  c gray45",
"S  c #747474",
"D  c #777777",
"F  c #797979",
"G  c gray48",
"H  c #7C7C7C",
"J  c gray50",
"K  c #808080",
"L  c gray51",
"P  c #838383",
"I  c #848484",
"U  c gray53",
"Y  c #888888",
"T  c gray54",
"R  c #8B8B8B",
"E  c gray55",
"W  c #8D8D8D",
"Q  c #8E8E8E",
"!  c gray56",
"~  c #909090",
"^  c #929292",
"/  c #A0A0A0",
"(  c #A4A4A4",
")  c #A5A5A5",
"_  c gray66",
"`  c #AEAEAE",
"'  c #AFAFAF",
"]  c #B2B2B2",
"[  c gray70",
"{  c gray71",
"}  c #B6B6B6",
"|  c #B7B7B7",
" . c #B9B9B9",
".. c gray74",
"X. c gray",
"o. c gray75",
"O. c #C0C0C0",
"+. c #C1C1C1",
"@. c gray76",
"#. c #C6C6C6",
"$. c gray78",
"%. c #C8C8C8",
"&. c #CBCBCB",
"*. c #CDCDCD",
"=. c #CECECE",
"-. c gray81",
";. c #D0D0D0",
":. c #D2D2D2",
">. c gray83",
",. c #D5D5D5",
"<. c #D7D7D7",
"1. c #D8D8D8",
"2. c #DADADA",
"3. c gray86",
"4. c gainsboro",
"5. c gray87",
"6. c #DFDFDF",
"7. c gray88",
"8. c #E1E1E1",
"9. c gray89",
"0. c #E6E6E6",
"q. c gray91",
"w. c #E9E9E9",
"e. c #EAEAEA",
"r. c gray92",
"t. c #ECECEC",
"y. c gray93",
"u. c #EEEEEE",
"i. c #EFEFEF",
"p. c gray94",
"a. c #F1F1F1",
"s. c gray95",
"d. c #F3F3F3",
"f. c #F6F6F6",
"g. c gray97",
"h. c #F8F8F8",
"j. c gray98",
"k. c #FBFBFB",
"l. c gray99",
"z. c #FDFDFD",
"x. c #FEFEFE",
"c. c white",
/* pixels */
"c.c.c.c.c.c.c.c.c.c.c.c.c.c.c.c.c.c.c.c.c.c.c.c.c.c.c.c.c.c.c.c.c.c.c.c.c.c.c.c.c.c.c.c.c.c.c.c.c.c.c.c.c.c.c.",
"c.c.c.c.c.c.c.c.c.c.c.c.c.c.c.c.c.c.c.c.c.c.c.c.c.c.c.c.c.c.c.c.c.c.c.c.c.c.c.c.c.c.c.c.c.c.c.c.c.c.c.c.c.c.c.",
"c.c.c.c.c.c.c.c.c.c.c.c.c.c.c.c.c.c.c.c.c.c.c.c.c.c.c.c.c.c.c.c.c.c.c.c.c.c.c.c.c.c.c.c.c.c.c.c.c.c.c.c.c.c.c.",
"c.c.c.c.c.c.c.c.c.c.c.c.c.c.c.c.c.c.c.c.c.c.c.c.c.c.c.c.c.c.c.c.c.c.c.c.c.c.c.c.c.c.c.c.c.c.c.c.c.c.c.c.c.c.c.",
"c.c.c.c.c.c.c.c.c.c.c.c.c.c.c.c.c.c.c.c.c.c.c.c.c.c.c.c.c.c.c.c.c.c.c.c.c.c.c.c.c.c.c.c.c.c.c.c.c.c.c.c.c.c.c.",
"c.c.c.c.c.c.c.c.c.c.c.c.c.c.c.c.c.c.c.c.c.c.c.c.c.c.c.c.c.c.c.c.c.c.c.c.c.c.c.c.c.c.c.c.c.c.c.c.c.c.c.c.c.c.c.",
"c.c.c.c.c.c.c.c.c.c.c.c.c.c.c.c.c.c.c.c.c.c.c.c.c.c.c.c.c.c.c.c.c.c.c.c.c.c.c.c.c.c.c.c.c.c.c.c.c.c.c.c.c.c.c.",
"c.c.c.c.c.c.c.c.c.c.c.c.c.c.c.c.c.c.c.c.c.c.c.c.c.c.c.c.c.c.c.c.c.c.c.c.c.c.c.c.c.c.c.c.c.c.c.c.c.c.c.c.c.c.c.",
"c.c.c.c.c.c.c.c.c.c.c.c.c.c.c.c.c.c.c.c.c.c.c.c.c.c.c.c.c.c.c.c.c.c.c.c.c.c.c.c.c.c.c.c.c.c.c.c.c.c.c.c.c.c.c.",
"c.c.c.c.c.c.c.c.c.c.c.c.c.c.c.c.c.c.c.c.c.c.c.c.c.c.c.c.c.c.c.c.c.c.c.c.c.c.c.c.c.c.c.c.c.c.c.c.c.c.c.c.c.c.c.",
"c.c.c.c.c.c.c.c.c.c.c.c.c.f.2.#.#.#.X.X.X.X.#.#.#.#.#.#.#.#.X.#.X.X.#.#.#.#.#.#.,.t.c.c.c.c.c.c.c.c.c.c.c.c.c.",
"c.c.c.c.c.c.c.c.c.c.c.f.#.L a - & & & & & & & & & & & & & & & & & & & & & & & - w A ` f.c.c.c.c.c.c.c.c.c.c.c.",
"c.c.c.c.c.c.c.c.c.c.c.( w & & & & & & & & & & & & & & & & & o o & & & & & & & o & & - ! c.c.c.c.c.c.c.c.c.c.c.",
"c.c.c.c.c.c.c.c.c.c.f.z & & w A ! ~ ! ~ ! ! ~ ~ ~ ~ ~ ~ ~ ~ ! ! ! ! ~ ~ ~ ~ ! L a & & 6 ,.c.c.c.c.c.c.c.c.c.c.",
"c.c.c.c.c.c.c.c.c.c.,.6 & w ` 8.t.t.t.t.t.t.t.t.t.t.t.t.t.t.t.t.t.t.t.t.t.t.t.t.=.a & & ! c.c.c.c.c.c.c.c.c.c.",
"c.c.c.c.c.c.c.c.c.c.X.- & A 8.c.c.c.c.c.c.c.c.c.c.c.c.c.c.c.c.c.c.c.c.c.c.c.c.c.c.~ o & g c.c.c.c.c.c.c.c.c.c.",
"c.c.c.c.c.c.c.c.c.c.| & o ! t.c.c.c.c.c.c.c.c.c.c.c.c.c.c.c.c.c.c.c.c.c.c.c.c.c.c.| o & a c.c.c.c.c.c.c.c.c.c.",
"c.c.c.c.c.c.c.c.c.c.| & & ! t.c.c.c.c.c.c.c.c.c.c.c.c.c.c.c.f.c.c.c.c.c.c.c.c.c.c.| o & a c.c.c.c.c.c.c.c.c.c.",
"c.c.c.c.c.c.c.c.c.c.| & & ! t.c.c.c.c.c.c.c.c.c.c.c.c.c.t.L b #.c.c.c.c.c.c.c.c.c.| o & a c.c.c.c.c.c.c.c.c.c.",
"c.c.c.c.c.c.c.c.c.c.| & & ! t.c.c.c.c.c.c.c.c.c.c.c.c.8.A < o L c.c.c.c.c.c.c.c.c.| o & a c.c.c.c.c.c.c.c.c.c.",
"c.c.c.c.c.c.c.c.c.c.| & & ! t.c.c.c.c.c.c.c.c.c.c.c.8.V - & 6 X.c.c.c.c.c.c.c.c.c.| o & a c.c.c.c.c.c.c.c.c.c.",
"c.c.c.c.c.c.c.c.c.c.| & & ! t.c.c.c.c.c.c.c.c.c.c.2.g & o w #.c.c.c.c.c.c.c.c.c.c.| o & a c.c.c.c.c.c.c.c.c.c.",
"c.c.c.c.c.c.c.c.c.c.| & & ! t.c.c.c.c.c.c.c.c.c.,.z & o a =.c.c.c.c.c.c.c.c.c.c.c.| o & a c.c.c.c.c.c.c.c.c.c.",
"c.c.c.c.c.c.c.c.c.c.| & o ! t.c.c.c.c.c.c.c.c.=.g & o g ,.c.c.c.c.c.c.c.c.c.c.c.c.| o & a c.c.c.c.c.c.c.c.c.c.",
"c.c.c.c.c.c.c.c.c.c.| & & ! t.c.c.c.c.c.c.c.#.a & & z 2.c.c.c.c.c.c.c.c.c.c.c.c.c.| o & a c.c.c.c.c.c.c.c.c.c.",
"c.c.c.c.c.c.c.c.c.c.| & & ! t.c.c.c.c.c.c.#.a & & b 2.c.c.c.c.c.c.c.c.c.c.c.c.c.c.| o & a c.c.c.c.c.c.c.c.c.c.",
"c.c.c.c.c.c.c.c.c.c.| & & ! t.c.c.c.c.c.8.g & & V 2.c.c.c.c.c.c.c.c.c.c.c.c.c.c.c.| o & a c.c.c.c.c.c.c.c.c.c.",
"c.c.c.c.c.c.c.c.c.c.| & & ! t.c.c.c.c.c.=.< & w 2.c.c.c.c.c.c.c.c.c.c.c.c.c.c.c.c.| o & a c.c.c.c.c.c.c.c.c.c.",
"c.c.c.c.c.c.c.c.c.c.| & & ! t.c.c.c.c.c.2.w & - J t.c.c.c.c.c.c.c.c.c.c.c.c.c.c.c.| o & a c.c.c.c.c.c.c.c.c.c.",
"c.c.c.c.c.c.c.c.c.c.| & & ! t.c.c.c.c.c.c.| < & & V t.c.c.c.c.c.c.c.c.c.c.c.c.c.c.| o & a c.c.c.c.c.c.c.c.c.c.",
"c.c.c.c.c.c.c.c.c.c.| & & ! t.c.c.c.c.c.c.c.| 6 & & V t.c.c.c.c.c.c.c.c.c.c.c.c.c.| o & a c.c.c.c.c.c.c.c.c.c.",
"c.c.c.c.c.c.c.c.c.c.| & & ! t.c.c.c.c.c.c.c.c.X.w & & b 8.c.c.c.c.c.c.c.c.c.c.c.c.| o & a c.c.c.c.c.c.c.c.c.c.",
"c.c.c.c.c.c.c.c.c.c.| & & ! t.c.c.c.c.c.c.c.c.c.#.w & & z 2.c.c.c.c.c.c.c.c.c.c.c.| o & a c.c.c.c.c.c.c.c.c.c.",
"c.c.c.c.c.c.c.c.c.c.| & & ! t.c.c.c.c.c.c.c.c.c.c.=.w & & g 2.c.c.c.c.c.c.c.c.c.c.| o & a c.c.c.c.c.c.c.c.c.c.",
"c.c.c.c.c.c.c.c.c.c.| & o ! t.c.c.c.c.c.c.c.c.c.c.c.=.a & & a ,.c.c.c.c.c.c.c.c.c.| o & a c.c.c.c.c.c.c.c.c.c.",
"c.c.c.c.c.c.c.c.c.c.| & o ! t.c.c.c.c.c.c.c.c.c.c.c.c.,.a & o J c.c.c.c.c.c.c.c.c.| o & a c.c.c.c.c.c.c.c.c.c.",
"c.c.c.c.c.c.c.c.c.c.| & o ! t.c.c.c.c.c.c.c.c.c.c.c.c.c.2.z < ` c.c.c.c.c.c.c.c.c.| o & a c.c.c.c.c.c.c.c.c.c.",
"c.c.c.c.c.c.c.c.c.c.| & o ! t.c.c.c.c.c.c.c.c.c.c.c.c.c.c.f.8.c.c.c.c.c.c.c.c.c.c.| o & a c.c.c.c.c.c.c.c.c.c.",
"c.c.c.c.c.c.c.c.c.c.| & & ! t.c.c.c.c.c.c.c.c.c.c.c.c.c.c.c.c.c.c.c.c.c.c.c.c.c.c.| o & w c.c.c.c.c.c.c.c.c.c.",
"c.c.c.c.c.c.c.c.c.c.X.- & L t.c.c.c.c.c.c.c.c.c.c.c.c.c.c.c.c.c.c.c.c.c.c.c.c.c.c.( o & a c.c.c.c.c.c.c.c.c.c.",
"c.c.c.c.c.c.c.c.c.c.=.< & a =.c.c.c.c.c.c.c.c.c.c.c.c.c.c.c.c.c.c.c.c.c.c.c.c.c.f.z o & J c.c.c.c.c.c.c.c.c.c.",
"c.c.c.c.c.c.c.c.c.c.t.a & & a ! ` | | | | | | | | | | | | | | | | | | | | | | ( z & & - =.c.c.c.c.c.c.c.c.c.c.",
"c.c.c.c.c.c.c.c.c.c.c.! - & & o o o o o o o o o o o o o o o o o o o o o o o o o & & o V c.c.c.c.c.c.c.c.c.c.c.",
"c.c.c.c.c.c.c.c.c.c.c.f.L < & & & & & & & & & & & & & & & & & & & & & & & & & & & & b t.c.c.c.c.c.c.c.c.c.c.c.",
"c.c.c.c.c.c.c.c.c.c.c.c.c.,.! g 6 6 6 6 6 6 6 6 < < < < 6 6 6 6 < < < < 6 6 < w J =.c.c.c.c.c.c.c.c.c.c.c.c.c.",
"c.c.c.c.c.c.c.c.c.c.c.c.c.c.c.c.c.c.c.c.c.c.c.c.c.c.c.c.c.c.c.c.c.c.c.c.c.c.c.c.c.c.c.c.c.c.c.c.c.c.c.c.c.c.c.",
"c.c.c.c.c.c.c.c.c.c.c.c.c.c.c.c.c.c.c.c.c.c.c.c.c.c.c.c.c.c.c.c.c.c.c.c.c.c.c.c.c.c.c.c.c.c.c.c.c.c.c.c.c.c.c.",
"c.c.c.c.c.c.c.c.c.c.c.c.c.c.c.c.c.c.c.c.c.c.c.c.c.c.c.c.c.c.c.c.c.c.c.c.c.c.c.c.c.c.c.c.c.c.c.c.c.c.c.c.c.c.c.",
"c.c.c.c.c.c.c.c.c.c.c.c.c.c.c.c.c.c.c.c.c.c.c.c.c.c.c.c.c.c.c.c.c.c.c.c.c.c.c.c.c.c.c.c.c.c.c.c.c.c.c.c.c.c.c.",
"c.c.c.c.c.c.c.c.c.c.c.c.c.c.c.c.c.c.c.c.c.c.c.c.c.c.c.c.c.c.c.c.c.c.c.c.c.c.c.c.c.c.c.c.c.c.c.c.c.c.c.c.c.c.c.",
"c.c.c.c.c.c.c.c.c.c.c.c.c.c.c.c.c.c.c.c.c.c.c.c.c.c.c.c.c.c.c.c.c.c.c.c.c.c.c.c.c.c.c.c.c.c.c.c.c.c.c.c.c.c.c.",
"c.c.c.c.c.c.c.c.c.c.c.c.c.c.c.c.c.c.c.c.c.c.c.c.c.c.c.c.c.c.c.c.c.c.c.c.c.c.c.c.c.c.c.c.c.c.c.c.c.c.c.c.c.c.c.",
"c.c.c.c.c.c.c.c.c.c.c.c.c.c.c.c.c.c.c.c.c.c.c.c.c.c.c.c.c.c.c.c.c.c.c.c.c.c.c.c.c.c.c.c.c.c.c.c.c.c.c.c.c.c.c.",
"c.c.c.c.c.c.c.c.c.c.c.c.c.c.c.c.c.c.c.c.c.c.c.c.c.c.c.c.c.c.c.c.c.c.c.c.c.c.c.c.c.c.c.c.c.c.c.c.c.c.c.c.c.c.c.",
"c.c.c.c.c.c.c.c.c.c.c.c.c.c.c.c.c.c.c.c.c.c.c.c.c.c.c.c.c.c.c.c.c.c.c.c.c.c.c.c.c.c.c.c.c.c.c.c.c.c.c.c.c.c.c."
};
