/* XPM */
static char *prev_node[] = {
/* columns rows colors chars-per-pixel */
"55 55 142 2 ",
"   c None",
".  c #191919",
"X  c #1B1B1B",
"o  c #1E1E1E",
"O  c gray12",
"+  c #202020",
"@  c gray13",
"#  c #222222",
"$  c #232323",
"%  c gray14",
"&  c #252525",
"*  c gray15",
"=  c #272727",
"-  c #282828",
";  c #2A2A2A",
":  c #2C2C2C",
">  c #2D2D2D",
",  c gray18",
"<  c gray19",
"1  c #313131",
"2  c gray20",
"3  c #343434",
"4  c #353535",
"5  c #373737",
"6  c gray22",
"7  c #393939",
"8  c #3A3A3A",
"9  c gray23",
"0  c #3C3C3C",
"q  c gray25",
"w  c #414141",
"e  c #434343",
"r  c gray27",
"t  c #464646",
"y  c #484848",
"u  c #494949",
"i  c gray29",
"p  c #4B4B4B",
"a  c #4C4C4C",
"s  c #4E4E4E",
"d  c gray31",
"f  c #515151",
"g  c gray33",
"h  c #555555",
"j  c gray34",
"k  c #585858",
"l  c gray35",
"z  c #5A5A5A",
"x  c #5B5B5B",
"c  c gray36",
"v  c #5F5F5F",
"b  c #606060",
"n  c #626262",
"m  c #646464",
"M  c #656565",
"N  c #6A6A6A",
"B  c gray42",
"V  c #6C6C6C",
"C  c gray43",
"Z  c gray44",
"A  c #727272",
"S  c gray45",
"D  c #747474",
"F  c #777777",
"G  c #797979",
"H  c gray48",
"J  c #7C7C7C",
"K  c gray50",
"L  c #808080",
"P  c gray51",
"I  c #838383",
"U  c #848484",
"Y  c gray53",
"T  c #888888",
"R  c gray54",
"E  c #8B8B8B",
"W  c gray55",
"Q  c #8D8D8D",
"!  c #8E8E8E",
"~  c gray56",
"^  c #909090",
"/  c #929292",
"(  c #A0A0A0",
")  c #A4A4A4",
"_  c #A5A5A5",
"`  c gray66",
"'  c #AEAEAE",
"]  c #AFAFAF",
"[  c #B2B2B2",
"{  c gray70",
"}  c gray71",
"|  c #B6B6B6",
" . c #B7B7B7",
".. c #B9B9B9",
"X. c gray74",
"o. c gray",
"O. c gray75",
"+. c #C0C0C0",
"@. c #C1C1C1",
"#. c gray76",
"$. c #C6C6C6",
"%. c gray78",
"&. c #C8C8C8",
"*. c #CBCBCB",
"=. c #CDCDCD",
"-. c #CECECE",
";. c gray81",
":. c #D0D0D0",
">. c #D2D2D2",
",. c gray83",
"<. c #D5D5D5",
"1. c #D7D7D7",
"2. c #D8D8D8",
"3. c #DADADA",
"4. c gray86",
"5. c gainsboro",
"6. c gray87",
"7. c #DFDFDF",
"8. c gray88",
"9. c #E1E1E1",
"0. c gray89",
"q. c #E6E6E6",
"w. c gray91",
"e. c #E9E9E9",
"r. c #EAEAEA",
"t. c gray92",
"y. c #ECECEC",
"u. c gray93",
"i. c #EEEEEE",
"p. c #EFEFEF",
"a. c gray94",
"s. c #F1F1F1",
"d. c gray95",
"f. c #F3F3F3",
"g. c #F6F6F6",
"h. c gray97",
"j. c #F8F8F8",
"k. c gray98",
"l. c #FBFBFB",
"z. c gray99",
"x. c #FDFDFD",
"c. c #FEFEFE",
/* pixels */
"                                                                                                              ",
"                                                                                                              ",
"                                                                                                              ",
"                                                                                                              ",
"                                                                                                              ",
"                                                                                                              ",
"                                                                                                              ",
"                                                                                                              ",
"                                                                                                              ",
"                                                                                                              ",
"                        c.g.3.$.$.$.o.$.o.o.$.$.$.$.$.$.$.$.o.$.o.o.$.$.$.$.$.$.<.y.c.                        ",
"                      g.$.P s ; * * * * * * * * * * * * * * * * * * * * * * * ; e S ' g.                      ",
"                    c.) e * * * * O * * * * * * * * * * * * * * * * * * * * * O * * ; ~ c.                    ",
"                    g.x * * e S ~ ^ ^ ^ ~ ~ ^ ^ ^ ^ ^ ~ ^ ^ ~ ~ ~ ~ ^ ^ ^ ^ ~ P s * * 7 <.                    ",
"                    <.7 * e ' 9.y.y.y.y.y.y.y.y.y.y.y.y.y.y.y.y.y.y.y.y.y.y.y.y.-.s * * ~                     ",
"                    o.; * S 9.                                                  c.^ O * h                     ",
"                     .* O ~ y.                                                     .O * s                     ",
"                     .* * ~ y.                            c.g.c.                   .O * s                     ",
"                     .* * ~ y.                          y.P n $.c.                 .O * s                     ",
"                     .* * ~ y.                        9.S 1 O P c.                 .O * s                     ",
"                     .* * ~ y.                      9.C ; * 7 o.c.                 .O * s                     ",
"                     .* * ~ y.                    3.h * O e $.c.                   .O * s                     ",
"                     .* * ~ y.                  <.x * O s -.c.                     .O * s                     ",
"                     .* O ~ y.                -.h * O h <.c.                       .O * s                     ",
"                     .* * ~ y.              $.s * * x 3.c.                         .O * s                     ",
"                     .* * ~ y.            $.s * * n 3.c.                           .O * s                     ",
"                     .* * ~ y.          9.h * * C 3.c.                             .O * s                     ",
"                     .* * ~ y.          -.1 * e 3.c.                               .O * s                     ",
"                     .* * ~ y.          3.e * ; K y.                               .O * s                     ",
"                     .* * ~ y.          c. .1 * * C y.                             .O * s                     ",
"                     .* * ~ y.            c. .7 * * C y.                           .O * s                     ",
"                     .* * ~ y.              c.o.e * * n 9.c.                       .O * s                     ",
"                     .* * ~ y.                c.$.e * * x 9.c.                     .O * s                     ",
"                     .* * ~ y.                  c.-.e * * h 3.c.                   .O * s                     ",
"                     .* O ~ y.                    c.-.s * * s <.c.                 .O * s                     ",
"                     .* O ~ y.                      c.<.s * O K c.                 .O * s                     ",
"                     .* O ~ y.                        c.3.x 1 ' c.                 .O * s                     ",
"                     .* O ~ y.                          c.g.9.c.                   .O * s                     ",
"                     .* * ~ y.                                                     .O * e                     ",
"                    o.; * P y.                                                    ) O * s                     ",
"                    -.1 * s -.c.                                                g.x O * K                     ",
"                    y.s * * s ~ '  . . . . . . . . . . . . . . . . . . . . . .) x * * ; -.                    ",
"                    c.~ ; * * O O O O O O O O O O O O O O O O O O O O O O O O O * * O C c.                    ",
"                      g.P 1 * * * * * * * * * * * * * * * * * * * * * * * * * * * * n y.                      ",
"                        c.<.~ h 7 7 7 7 7 7 7 7 1 1 1 1 7 7 7 7 1 1 1 1 7 7 1 e K -.c.                        ",
"                                                                                                              ",
"                                                                                                              ",
"                                                                                                              ",
"                                                                                                              ",
"                                                                                                              ",
"                                                                                                              ",
"                                                                                                              ",
"                                                                                                              ",
"                                                                                                              ",
"                                                                                                              "
};
