/* XPM */
static char *prev_page[] = {
/* columns rows colors chars-per-pixel */
"55 55 196 2 ",
"   c None",
".  c #151515",
"X  c #161616",
"o  c gray9",
"O  c gray10",
"+  c #1B1B1B",
"@  c gray11",
"#  c #1D1D1D",
"$  c #1E1E1E",
"%  c gray12",
"&  c #202020",
"*  c gray13",
"=  c #222222",
"-  c #232323",
";  c gray14",
":  c #252525",
">  c gray15",
",  c #282828",
"<  c #2A2A2A",
"1  c gray17",
"2  c #2C2C2C",
"3  c #2D2D2D",
"4  c gray18",
"5  c gray19",
"6  c #313131",
"7  c #323232",
"8  c gray20",
"9  c #343434",
"0  c #353535",
"q  c gray21",
"w  c #373737",
"e  c gray22",
"r  c gray23",
"t  c #3C3C3C",
"y  c gray24",
"u  c #3E3E3E",
"i  c gray25",
"p  c #414141",
"a  c gray26",
"s  c #434343",
"d  c #444444",
"f  c gray27",
"g  c #464646",
"h  c gray28",
"j  c #484848",
"k  c #494949",
"l  c gray29",
"z  c #4B4B4B",
"x  c #4C4C4C",
"c  c gray30",
"v  c #4E4E4E",
"b  c gray31",
"n  c #515151",
"m  c gray32",
"M  c #535353",
"N  c gray33",
"B  c #555555",
"V  c #585858",
"C  c gray35",
"Z  c #5A5A5A",
"A  c gray36",
"S  c #5D5D5D",
"D  c gray37",
"F  c #5F5F5F",
"G  c #606060",
"H  c gray38",
"J  c #626262",
"K  c gray39",
"L  c #646464",
"P  c #656565",
"I  c gray40",
"U  c #676767",
"Y  c #686868",
"T  c DimGray",
"R  c #6A6A6A",
"E  c gray42",
"W  c #6C6C6C",
"Q  c #6D6D6D",
"!  c gray43",
"~  c #6F6F6F",
"^  c gray44",
"/  c #727272",
"(  c gray45",
")  c #767676",
"_  c #777777",
"`  c #797979",
"'  c #7C7C7C",
"]  c #7E7E7E",
"[  c gray50",
"{  c #808080",
"}  c #818181",
"|  c gray51",
" . c #838383",
".. c #848484",
"X. c gray52",
"o. c #868686",
"O. c gray53",
"+. c #888888",
"@. c #898989",
"#. c gray54",
"$. c #8B8B8B",
"%. c gray55",
"&. c #8D8D8D",
"*. c #8E8E8E",
"=. c #909090",
"-. c gray57",
";. c #929292",
":. c #959595",
">. c gray59",
",. c #979797",
"<. c gray60",
"1. c #9A9A9A",
"2. c #9B9B9B",
"3. c gray61",
"4. c gray62",
"5. c #9F9F9F",
"6. c #A0A0A0",
"7. c gray63",
"8. c gray64",
"9. c #A5A5A5",
"0. c gray65",
"q. c gray66",
"w. c #A9A9A9",
"e. c #AAAAAA",
"r. c gray67",
"t. c #AEAEAE",
"y. c #AFAFAF",
"u. c gray69",
"i. c #B1B1B1",
"p. c gray70",
"a. c #B4B4B4",
"s. c gray71",
"d. c #B6B6B6",
"f. c gray72",
"g. c #B9B9B9",
"h. c gray73",
"j. c #BCBCBC",
"k. c gray74",
"l. c gray",
"z. c #C0C0C0",
"x. c #C1C1C1",
"c. c gray76",
"v. c #C3C3C3",
"b. c gray77",
"n. c #C6C6C6",
"m. c gray78",
"M. c #C8C8C8",
"N. c gray79",
"B. c gray80",
"V. c #CDCDCD",
"C. c #CECECE",
"Z. c gray81",
"A. c #D0D0D0",
"S. c gray82",
"D. c #D2D2D2",
"F. c LightGray",
"G. c gray83",
"H. c #D5D5D5",
"J. c gray84",
"K. c #D7D7D7",
"L. c #D8D8D8",
"P. c gray85",
"I. c #DADADA",
"U. c gray86",
"Y. c gainsboro",
"T. c #DDDDDD",
"R. c gray87",
"E. c #DFDFDF",
"W. c gray88",
"Q. c #E1E1E1",
"!. c #E2E2E2",
"~. c #E4E4E4",
"^. c gray90",
"/. c #E6E6E6",
"(. c gray91",
"). c #E9E9E9",
"_. c #EAEAEA",
"`. c gray92",
"'. c #ECECEC",
"]. c gray93",
"[. c #EEEEEE",
"{. c #EFEFEF",
"}. c gray94",
"|. c #F1F1F1",
" X c #F3F3F3",
".X c #F4F4F4",
"XX c gray96",
"oX c #F6F6F6",
"OX c gray97",
"+X c #F8F8F8",
"@X c #F9F9F9",
"#X c gray98",
"$X c #FBFBFB",
"%X c gray99",
"&X c #FDFDFD",
"*X c #FEFEFE",
/* pixels */
"                                                                                                              ",
"                                                                                                              ",
"                                                                                                              ",
"                                                                                                              ",
"                                                                                                              ",
"                                                                                                              ",
"                                    *XT.B.T.}.                                                                ",
"                                  T.U 0 4 0 j Y ,.k.T.}.                                                      ",
"                                }.U * * * * * * * 4 0 j U X.8.k.G./.}.*X                                      ",
"                          }.*X  b.4 * * 0 d 0 * % % % * * * * 4 0 e j S Y ^ X.,.d.`.*X                        ",
"                        b.Y /.*X2.* * d B.`.T.k.,.Y j 0 * % % % % * * * * * * * 4 d w.*X                      ",
"                      G.e e `.  $.* % $.}.  *X*X*X}.}.T.b.8.X.Y N d 0 4 * * % % % * 4 k.*X                    ",
"                    *X` * e `.  $.* % 2.*X            *X*X*X*X}.}.`.T.G.b.d.w.,.d * * S }.                    ",
"                    }.j * e `.  $.* % 2.*X                          *X*X*X*X*X*XG.e * 0 T.*X                  ",
"                    T.e * e `.  $.* % 2.*X  }.T.}.                              *XS * 4 B.*X                  ",
"                    G.0 * e `.  $.* % 2.*X  2.0 j Y ,.d.G.`.*X                  *XS * 4 B.*X                  ",
"                    G.0 * e `.  $.* % 2.*X  d.d 4 % % * 0 d S ^ $.8.d.b.G.`.*X  *XS * 4 B.*X                  ",
"                    G.0 * e `.  $.* % 2.*X  *X`.B.w.X.S d 4 * % % % * 4 4 d G.*X*XS * 4 B.*X                  ",
"                    G.0 * e `.  $.* % 2.*X      *X*X}.}.`.G.k.8.$.^ U N d j T.*X*XS * 4 B.*X                  ",
"                    G.0 * e `.  $.* % 2.*X                *X*X*X*X}.}.}.`.}.*X  *XS * 4 B.*X                  ",
"                    G.0 * e `.  $.* % 2.*X  }.T.`.                              *XS * 4 B.*X                  ",
"                    G.0 * e `.  $.* % 2.*X  2.0 d U $.d.G.`.*X                  *XS * 4 B.*X                  ",
"                    G.0 * e `.  $.* % 2.*X  k.d 4 % % % 4 e N Y X.2.w.b.B./.*X  *XS * 4 B.*X                  ",
"                    G.0 * e `.  $.* % 2.*X  *X`.G.d.X.U d 0 * % % % % * 4 e G.*X*XS * 4 B.*X                  ",
"                    G.0 * e `.  $.* % 2.*X      *X*X}.}.`.T.b.w.,.` U N d N /.*X*XS * 4 B.*X                  ",
"                    G.0 * e `.  $.* % 2.*X                *X*X*X*X}.}.}.}.}.*X  *XS * 4 B.*X                  ",
"                    G.0 * e `.  $.* % 2.*X  }.G.`.*X                            *XS * 4 B.*X                  ",
"                    G.0 * e `.  $.* % 2.*X  ,.4 d U X.w.B./.*X                  *XS * 4 B.*X                  ",
"                    G.0 * e `.  $.* % 2.*X  k.j 0 * % % 4 e j Y ` ,.w.k.b./.*X  *XS * 4 B.*X                  ",
"                    G.0 * e `.  $.* % 2.*X  *X}.G.d.$.Y j 0 * * % % % * 4 e G.*X*XS * 4 B.*X                  ",
"                    G.0 * e `.  $.* % 2.*X      *X*X*X}.}.T.B.w.,.X.Y S j S /.*X*XS * 4 B.*X                  ",
"                    G.0 * e `.  $.* % 2.*X                              *X*X    *XS * 4 B.*X                  ",
"                    G.0 * e `.  $.* % 2.*X                                      *XS * 4 B.*X                  ",
"                    G.0 * e `.  $.* % 2.*X                *X}.*X                *XS * 4 B.*X                  ",
"                    G.0 * e `.  $.* % 2.*X                X.e N Y $.2.d.k.T.*X  *XS * 4 B.*X                  ",
"                    G.0 * e `.  $.* % 2.*X                X.4 % X X X X % 4 G.*X*XS * 4 B.*X                  ",
"                    G.0 * e `.  $.* % 2.*X                *XT.b.w.$.^ U N U /.*X*XS * 4 B.*X                  ",
"                    G.0 * e `.  $.* % 2.*X                              *X      *XS * 4 B.*X                  ",
"                    G.0 * e `.  $.* % 2.*X                                      *XS * 4 B.*X                  ",
"                    G.0 * e `.  ,.* % ,.*X                                      *XS * 4 B.*X                  ",
"                    G.0 * 0 T.*X8.* * j /.                                      *XS * 4 B.*X                  ",
"                    G.0 * * b.*XG.0 * * j ,.B.`.                                *XS * 4 B.*X                  ",
"                    G.0 * % X.*X*XX.* * * % * e U $.d.T.`.*X                    }.j * 4 B.*X                  ",
"                    T.0 * * e T.*X*X2.d * % * * * % % 4 e N Y X.2.d.b.G.T./.`./.$.4 * 0 T.*X                  ",
"                    `.d * * * S `.    }.b.,.S e * % % % * * % % % % * * 4 0 e 0 * * % S }.                    ",
"                    *XU * * * * N b.*X        `.B.8.^ N e 4 * % % % % % * * * * * % 0 B.*X                    ",
"                      b.4 * * * * 4 S 8.T.*X          *X`.T.b.w.,.` Y S j d e 0 d ^ G.*X                      ",
"                        8.e % % % % X X * d Y 2.B./.}.                  *X}.`.`.}.                            ",
"                          /.8.` Y Y Y Y Y U U U Y ` 2.k./.}.*X                                                ",
"                                                    *X*X*X*X*X                                                ",
"                                                                                                              ",
"                                                                                                              ",
"                                                                                                              ",
"                                                                                                              ",
"                                                                                                              "
};
