/* XPM */
static char *print_dark[] = {
/* columns rows colors chars-per-pixel */
"55 55 30 1 ",
"  c None",
". c #010101",
"X c gray4",
"o c #131313",
"O c #1B1B1B",
"+ c #222222",
"@ c #2F2F2F",
"# c #313131",
"$ c gray23",
"% c gray26",
"& c #4E4E4E",
"* c gray34",
"= c #5A5A5A",
"- c #646464",
"; c gray43",
": c #747474",
"> c gray50",
", c #868686",
"< c #898989",
"1 c #939393",
"2 c #9F9F9F",
"3 c #A0A0A0",
"4 c #A9A9A9",
"5 c #B1B1B1",
"6 c gray74",
"7 c #C3C3C3",
"8 c gray80",
"9 c #D5D5D5",
"0 c #DADADA",
"q c #E2E2E2",
/* pixels */
"                                                       ",
"                                                       ",
"                                                       ",
"                                                       ",
"                                                       ",
"                                                       ",
"                                                       ",
"                  XXXXXXXXXXXXXXXXXXX                  ",
"               o;366666666666666666663=X               ",
"              +50qq0000000000000000000q2o              ",
"             .<0084333333333333333334900-              ",
"             O708%X.................X=003.             ",
"             #9q1X                   .606o             ",
"         ..XX$9q<oXXXXXXXXXXXXXXXXXXXX506oXX..         ",
"       .X$;<<2996<<<<<<<<<<<<<<<<<<<<<7981<,;#X        ",
"       +19qqqq000qqqqqqqqqqqqqqqqqqqqq000qqqq9<o       ",
"      .1009877777777777777777777777777777778900>.      ",
"      @808:##@@@@@@@@@@@@@@@@@@@@@@@@@@@###$,907o      ",
"      -9q<X                          .XX.   X409#      ",
"      >0q-X                         .&1:O   X<q0%      ",
"      >0q-X                         %0q01.  X,q0%      ",
"      >0q-X                         :q006o  X,q0%      ",
"      >0q-X                         %809<.  X,q0%      ",
"      >0q-X                         .-2,@   X,q0&      ",
"      >0q-X      .....................X.    X,q0&      ",
"      >0q-X   .O@#####################@o    X,q0%      ",
"      >0q-X   %3789999888888999999888872@   X,q0%      ",
"      >0q-X  X20099888888888888888888000>   X,q0%      ",
"      >0q-X  O709<-------------------1003.  X,q0%      ",
"      >0q-X  +807+X..................$905.  X,q0%      ",
"      >0q-X  +805X                   O905.  X,q0%      ",
"      >0q-X  +805X  XooXXXoooXXXoo.  O905.  X,q0%      ",
"      >0q-X  +805X o<3333333333333>. O905.  X,q0%      ",
"      >0q-X  +805o +700000000000005X O905.  X,q0%      ",
"      >0q-X  +805o X&-------------$. O905.  X,q0%      ",
"      >0q-X  +805o  XXXXXXXXXXXXXX.  O905.  X,q0%      ",
"      >0q-X  +8q5X                   O905.  X,q0%      ",
"      :0q:X  +8q5X                   O905.  X2q0$      ",
"      %905#. +8q5X .%-------------$  O905. .%808+      ",
"      o6006212905X +700000009900006X O9081127003.      ",
"      .*8q0009905X o15555555555555,. O9000000q7$       ",
"       X%16888905X .ooooooooooooooX  O9008886<#.       ",
"        .o+@#&805X                   O906##@OX.        ",
"           ..+806X                   O905...           ",
"             +809-#@@@@@@@@@@@@@@@@@#>004.             ",
"             o600988888888888888888890001.             ",
"              -0000000000000000000000008$              ",
"              .&49000000000000000000092#.              ",
"                .......................                ",
"                                                       ",
"                                                       ",
"                                                       ",
"                                                       ",
"                                                       ",
"                                                       "
};
