/* XPM */
static char *redo_dark[] = {
/* columns rows colors chars-per-pixel */
"55 55 30 1 ",
"  c None",
". c #010101",
"X c gray3",
"o c gray9",
"O c #191919",
"+ c #272727",
"@ c #2C2C2C",
"# c #343434",
"$ c #393939",
"% c gray28",
"& c #4E4E4E",
"* c gray33",
"= c #5F5F5F",
"- c gray40",
"; c #686868",
": c #767676",
"> c #7B7B7B",
", c gray51",
"< c gray55",
"1 c gray58",
"2 c gray62",
"3 c #A2A2A2",
"4 c #AAAAAA",
"5 c #B4B4B4",
"6 c #B9B9B9",
"7 c #C0C0C0",
"8 c gray81",
"9 c #D2D2D2",
"0 c #DADADA",
"q c #E1E1E1",
/* pixels */
"                                                       ",
"                                                       ",
"                                                       ",
"                                                       ",
"                                                       ",
"                                                       ",
"                                                       ",
"                                                       ",
"                                                       ",
"                                                       ",
"                                                       ",
"                               ..                      ",
"                              X&<=X                    ",
"                              o406;X                   ",
"                              o2q07;X                  ",
"                              .$5007;o                 ",
"                               .&5007;o                ",
"                                X&5007:o               ",
"                                 X%5007:o              ",
"                                  X%4007:o             ",
"                                   .#2008<O            ",
"                                    .+,909<O           ",
"                   .XO++++++++++++@++O#,909<O          ",
"                .+=<467777777777777776569009<X         ",
"              .@,6900000000000000000000000006O         ",
"             .=6000q0000000000000009998790002X         ",
"            .;900071;&$$$$$$$$$$$$$$$#$>9003@.         ",
"           .*9008:@oXX...............o;8002@.          ",
"          .+6007&X.                .O,9092@.           ",
"          .:009&.                 .+<9092@.            ",
"          O600,.                 .+10092+.             ",
"         .$008#                 .+10091+.              ",
"         .>004X                .+20091+.               ",
"         .5001                .O20091+.                ",
"         .900,                o,0091O.                 ",
"         .800<                O6q9<O.                  ",
"         .4003.               X;6>o.                   ",
"         .;007O                .o..                    ",
"         .$000=                                        ",
"          o5005o                                       ",
"          .-000<X                                      ",
"           O50091+                                     ",
"           .$80006;@X                                  ",
"            .%7q000852<,,,,>%.                         ",
"             .#30000000000006+                         ",
"              .X&280000000007@                         ",
"                .X+&,5900008-.                         ",
"                   ..........                          ",
"                                                       ",
"                                                       ",
"                                                       ",
"                                                       ",
"                                                       ",
"                                                       ",
"                                                       "
};
