/* XPM */
static char *redo[] = {
/* columns rows colors chars-per-pixel */
"55 55 162 2 ",
"   c #1D1D1D",
".  c #1E1E1E",
"X  c gray12",
"o  c #202020",
"O  c gray13",
"+  c #222222",
"@  c #232323",
"#  c gray14",
"$  c #252525",
"%  c gray15",
"&  c #272727",
"*  c #282828",
"=  c gray16",
"-  c #2A2A2A",
";  c gray17",
":  c #2C2C2C",
">  c #2D2D2D",
",  c gray18",
"<  c #2F2F2F",
"1  c gray19",
"2  c #313131",
"3  c gray20",
"4  c #343434",
"5  c #353535",
"6  c gray21",
"7  c gray22",
"8  c #393939",
"9  c #3A3A3A",
"0  c gray23",
"q  c #3C3C3C",
"w  c gray24",
"e  c #3E3E3E",
"r  c #3F3F3F",
"t  c gray25",
"y  c #414141",
"u  c gray26",
"i  c #434343",
"p  c #444444",
"a  c gray27",
"s  c #464646",
"d  c gray28",
"f  c #484848",
"g  c #494949",
"h  c gray29",
"j  c #4B4B4B",
"k  c #4C4C4C",
"l  c gray30",
"z  c #4E4E4E",
"x  c gray31",
"c  c #505050",
"v  c #515151",
"b  c #555555",
"n  c #565656",
"m  c #5D5D5D",
"M  c gray37",
"N  c gray38",
"B  c gray39",
"V  c #646464",
"C  c #656565",
"Z  c gray40",
"A  c #676767",
"S  c DimGray",
"D  c #6A6A6A",
"F  c gray42",
"G  c #6C6C6C",
"H  c #6D6D6D",
"J  c #6F6F6F",
"K  c gray44",
"L  c #717171",
"P  c gray45",
"I  c #747474",
"U  c gray46",
"Y  c #767676",
"T  c #777777",
"R  c gray47",
"E  c #797979",
"W  c gray48",
"Q  c #7C7C7C",
"!  c gray49",
"~  c #808080",
"^  c #848484",
"/  c gray52",
"(  c #898989",
")  c #8B8B8B",
"_  c gray55",
"`  c #909090",
"'  c gray57",
"]  c #939393",
"[  c #959595",
"{  c gray59",
"}  c #979797",
"|  c gray60",
" . c gray62",
".. c #A0A0A0",
"X. c #A5A5A5",
"o. c #A7A7A7",
"O. c gray67",
"+. c #B1B1B1",
"@. c #B2B2B2",
"#. c gray70",
"$. c #B4B4B4",
"%. c gray71",
"&. c #B6B6B6",
"*. c #B7B7B7",
"=. c gray72",
"-. c #B9B9B9",
";. c #BBBBBB",
":. c #BCBCBC",
">. c #C0C0C0",
",. c #C1C1C1",
"<. c #C3C3C3",
"1. c gray77",
"2. c #C5C5C5",
"3. c #C6C6C6",
"4. c gray78",
"5. c #CBCBCB",
"6. c #CECECE",
"7. c gray81",
"8. c LightGray",
"9. c gray83",
"0. c gray84",
"q. c #D7D7D7",
"w. c #D8D8D8",
"e. c gray85",
"r. c #DADADA",
"t. c gray86",
"y. c gainsboro",
"u. c #DDDDDD",
"i. c gray87",
"p. c #DFDFDF",
"a. c gray88",
"s. c #E1E1E1",
"d. c #E2E2E2",
"f. c gray89",
"g. c #E4E4E4",
"h. c gray90",
"j. c #E6E6E6",
"k. c #E7E7E7",
"l. c gray91",
"z. c #E9E9E9",
"x. c #EAEAEA",
"c. c gray92",
"v. c #ECECEC",
"b. c gray93",
"n. c #EEEEEE",
"m. c #EFEFEF",
"M. c gray94",
"N. c #F1F1F1",
"B. c gray95",
"V. c #F3F3F3",
"C. c #F4F4F4",
"Z. c gray96",
"A. c #F6F6F6",
"S. c gray97",
"D. c #F8F8F8",
"F. c #F9F9F9",
"G. c gray98",
"H. c #FBFBFB",
"J. c gray99",
"K. c #FDFDFD",
"L. c #FEFEFE",
"P. c white",
/* pixels */
"P.P.P.P.P.P.P.P.P.P.P.P.P.P.P.P.P.P.P.P.P.P.P.P.P.P.P.P.P.P.P.P.P.P.P.P.P.P.P.P.P.P.P.P.P.P.P.P.P.P.P.P.P.P.P.",
"P.P.P.P.P.P.P.P.P.P.P.P.P.P.P.P.P.P.P.P.P.P.P.P.P.P.P.P.P.P.P.P.P.P.P.P.P.P.P.P.P.P.P.P.P.P.P.P.P.P.P.P.P.P.P.",
"P.P.P.P.P.P.P.P.P.P.P.P.P.P.P.P.P.P.P.P.P.P.P.P.P.P.P.P.P.P.P.P.P.P.P.P.P.P.P.P.P.P.P.P.P.P.P.P.P.P.P.P.P.P.P.",
"P.P.P.P.P.P.P.P.P.P.P.P.P.P.P.P.P.P.P.P.P.P.P.P.P.P.P.P.P.P.P.P.P.P.P.P.P.P.P.P.P.P.P.P.P.P.P.P.P.P.P.P.P.P.P.",
"P.P.P.P.P.P.P.P.P.P.P.P.P.P.P.P.P.P.P.P.P.P.P.P.P.P.P.P.P.P.P.P.P.P.P.P.P.P.P.P.P.P.P.P.P.P.P.P.P.P.P.P.P.P.P.",
"P.P.P.P.P.P.P.P.P.P.P.P.P.P.P.P.P.P.P.P.P.P.P.P.P.P.P.P.P.P.P.P.P.P.P.P.P.P.P.P.P.P.P.P.P.P.P.P.P.P.P.P.P.P.P.",
"P.P.P.P.P.P.P.P.P.P.P.P.P.P.P.P.P.P.P.P.P.P.P.P.P.P.P.P.P.P.P.P.P.P.P.P.P.P.P.P.P.P.P.P.P.P.P.P.P.P.P.P.P.P.P.",
"P.P.P.P.P.P.P.P.P.P.P.P.P.P.P.P.P.P.P.P.P.P.P.P.P.P.P.P.P.P.P.P.P.P.P.P.P.P.P.P.P.P.P.P.P.P.P.P.P.P.P.P.P.P.P.",
"P.P.P.P.P.P.P.P.P.P.P.P.P.P.P.P.P.P.P.P.P.P.P.P.P.P.P.P.P.P.P.P.P.P.P.P.P.P.P.P.P.P.P.P.P.P.P.P.P.P.P.P.P.P.P.",
"P.P.P.P.P.P.P.P.P.P.P.P.P.P.P.P.P.P.P.P.P.P.P.P.P.P.P.P.P.P.P.P.P.P.P.P.P.P.P.P.P.P.P.P.P.P.P.P.P.P.P.P.P.P.P.",
"P.P.P.P.P.P.P.P.P.P.P.P.P.P.P.P.P.P.P.P.P.P.P.P.P.P.P.P.P.P.P.P.P.P.P.P.P.P.P.P.P.P.P.P.P.P.P.P.P.P.P.P.P.P.P.",
"P.P.P.P.P.P.P.P.P.P.P.P.P.P.P.P.P.P.P.P.P.P.P.P.P.P.P.P.P.P.P.P.P.P.P.P.P.P.P.P.P.P.P.P.P.P.P.P.P.P.P.P.P.P.P.",
"P.P.P.P.P.P.P.P.P.P.P.P.P.P.P.P.P.P.P.P.P.P.P.P.P.P.P.P.P.P.S.+.P ..S.P.P.P.P.P.P.P.P.P.P.P.P.P.P.P.P.P.P.P.P.",
"P.P.P.P.P.P.P.P.P.P.P.P.P.P.P.P.P.P.P.P.P.P.P.P.P.P.P.P.P.P.l.b $ s } S.P.P.P.P.P.P.P.P.P.P.P.P.P.P.P.P.P.P.P.",
"P.P.P.P.P.P.P.P.P.P.P.P.P.P.P.P.P.P.P.P.P.P.P.P.P.P.P.P.P.P.l.N . $ r } S.P.P.P.P.P.P.P.P.P.P.P.P.P.P.P.P.P.P.",
"P.P.P.P.P.P.P.P.P.P.P.P.P.P.P.P.P.P.P.P.P.P.P.P.P.P.P.P.P.P.P.3.j $ $ r } l.P.P.P.P.P.P.P.P.P.P.P.P.P.P.P.P.P.",
"P.P.P.P.P.P.P.P.P.P.P.P.P.P.P.P.P.P.P.P.P.P.P.P.P.P.P.P.P.P.P.P.+.j $ $ r } l.P.P.P.P.P.P.P.P.P.P.P.P.P.P.P.P.",
"P.P.P.P.P.P.P.P.P.P.P.P.P.P.P.P.P.P.P.P.P.P.P.P.P.P.P.P.P.P.P.P.S.+.j $ $ r ( l.P.P.P.P.P.P.P.P.P.P.P.P.P.P.P.",
"P.P.P.P.P.P.P.P.P.P.P.P.P.P.P.P.P.P.P.P.P.P.P.P.P.P.P.P.P.P.P.P.P.S.:.j $ $ r ( l.P.P.P.P.P.P.P.P.P.P.P.P.P.P.",
"P.P.P.P.P.P.P.P.P.P.P.P.P.P.P.P.P.P.P.P.P.P.P.P.P.P.P.P.P.P.P.P.P.P.S.:.b $ $ r ( l.P.P.P.P.P.P.P.P.P.P.P.P.P.",
"P.P.P.P.P.P.P.P.P.P.P.P.P.P.P.P.P.P.P.P.P.P.P.P.P.P.P.P.P.P.P.P.P.P.P.P.5.N $ $ 1 P j.P.P.P.P.P.P.P.P.P.P.P.P.",
"P.P.P.P.P.P.P.P.P.P.P.P.P.P.P.P.P.P.P.P.P.P.P.P.P.P.P.P.P.P.P.P.P.P.P.P.P.w.! > $ > P j.P.P.P.P.P.P.P.P.P.P.P.",
"P.P.P.P.P.P.P.P.P.P.P.P.P.P.P.P.P.P.P.P.S.j.w.w.w.w.w.w.w.w.w.w.w.w.8.w.w.j.5.! > $ > P j.P.P.P.P.P.P.P.P.P.P.",
"P.P.P.P.P.P.P.P.P.P.P.P.P.P.P.P.P.w...P b s r r r r r r r r r r r r r r r s j s > $ $ > P S.P.P.P.P.P.P.P.P.P.",
"P.P.P.P.P.P.P.P.P.P.P.P.P.P.P.8.! s > $ $ $ $ $ $ $ $ $ $ $ $ $ $ $ $ $ $ $ $ $ $ $ $ $ s j.P.P.P.P.P.P.P.P.P.",
"P.P.P.P.P.P.P.P.P.P.P.P.P.P...s $ $ $ . $ $ $ $ $ $ $ $ $ $ $ $ $ $ $ > > > 1 r > $ $ $ N S.P.P.P.P.P.P.P.P.P.",
"P.P.P.P.P.P.P.P.P.P.P.P.P.} > $ $ $ r F } +.3.3.3.3.3.3.3.3.3.3.3.3.3.3.3.5.3.^ > $ $ m 8.P.P.P.P.P.P.P.P.P.P.",
"P.P.P.P.P.P.P.P.P.P.P.P.O.> $ $ 1 ( 8.l.S.S.P.P.P.P.P.P.P.P.P.P.P.P.P.P.P.l.} 1 $ $ N 8.P.P.P.P.P.P.P.P.P.P.P.",
"P.P.P.P.P.P.P.P.P.P.P.w.s $ $ r +.S.P.P.P.P.P.P.P.P.P.P.P.P.P.P.P.P.P.P.j.! > $ > N 8.P.P.P.P.P.P.P.P.P.P.P.P.",
"P.P.P.P.P.P.P.P.P.P.P.( $ $ > +.P.P.P.P.P.P.P.P.P.P.P.P.P.P.P.P.P.P.P.w.P > $ > N 8.P.P.P.P.P.P.P.P.P.P.P.P.P.",
"P.P.P.P.P.P.P.P.P.P.j.s $ $ ! S.P.P.P.P.P.P.P.P.P.P.P.P.P.P.P.P.P.P.w.F $ $ > N w.P.P.P.P.P.P.P.P.P.P.P.P.P.P.",
"P.P.P.P.P.P.P.P.P.P.3.$ $ 1 5.P.P.P.P.P.P.P.P.P.P.P.P.P.P.P.P.P.P.w.F $ $ > F w.P.P.P.P.P.P.P.P.P.P.P.P.P.P.P.",
"P.P.P.P.P.P.P.P.P.P.^ $ $ b S.P.P.P.P.P.P.P.P.P.P.P.P.P.P.P.P.P.w.N $ $ > F w.P.P.P.P.P.P.P.P.P.P.P.P.P.P.P.P.",
"P.P.P.P.P.P.P.P.P.P.j $ $ F P.P.P.P.P.P.P.P.P.P.P.P.P.P.P.P.P.j.N $ $ > F w.P.P.P.P.P.P.P.P.P.P.P.P.P.P.P.P.P.",
"P.P.P.P.P.P.P.P.P.P.> $ $ P P.P.P.P.P.P.P.P.P.P.P.P.P.P.P.P.l.! $ $ > F j.P.P.P.P.P.P.P.P.P.P.P.P.P.P.P.P.P.P.",
"P.P.P.P.P.P.P.P.P.P.1 $ $ P P.P.P.P.P.P.P.P.P.P.P.P.P.P.P.P.j.s . > P j.P.P.P.P.P.P.P.P.P.P.P.P.P.P.P.P.P.P.P.",
"P.P.P.P.P.P.P.P.P.P.b $ $ m P.P.P.P.P.P.P.P.P.P.P.P.P.P.P.P.S.} s ^ l.P.P.P.P.P.P.P.P.P.P.P.P.P.P.P.P.P.P.P.P.",
"P.P.P.P.P.P.P.P.P.P.} $ $ r j.P.P.P.P.P.P.P.P.P.P.P.P.P.P.P.P.P.l.P.P.P.P.P.P.P.P.P.P.P.P.P.P.P.P.P.P.P.P.P.P.",
"P.P.P.P.P.P.P.P.P.P.3.$ $ > ..P.P.P.P.P.P.P.P.P.P.P.P.P.P.P.P.P.P.P.P.P.P.P.P.P.P.P.P.P.P.P.P.P.P.P.P.P.P.P.P.",
"P.P.P.P.P.P.P.P.P.P.l.j $ $ j l.P.P.P.P.P.P.P.P.P.P.P.P.P.P.P.P.P.P.P.P.P.P.P.P.P.P.P.P.P.P.P.P.P.P.P.P.P.P.P.",
"P.P.P.P.P.P.P.P.P.P.P.| $ $ $ P S.P.P.P.P.P.P.P.P.P.P.P.P.P.P.P.P.P.P.P.P.P.P.P.P.P.P.P.P.P.P.P.P.P.P.P.P.P.P.",
"P.P.P.P.P.P.P.P.P.P.P.j.j $ $ > F w.P.P.P.P.P.P.P.P.P.P.P.P.P.P.P.P.P.P.P.P.P.P.P.P.P.P.P.P.P.P.P.P.P.P.P.P.P.",
"P.P.P.P.P.P.P.P.P.P.P.P.3.1 $ $ $ s } 8.S.P.P.P.P.P.P.P.P.P.P.P.P.P.P.P.P.P.P.P.P.P.P.P.P.P.P.P.P.P.P.P.P.P.P.",
"P.P.P.P.P.P.P.P.P.P.P.P.P.+.1 . $ $ $ 1 j N P ! ! ! ! ^ :.P.P.P.P.P.P.P.P.P.P.P.P.P.P.P.P.P.P.P.P.P.P.P.P.P.P.",
"P.P.P.P.P.P.P.P.P.P.P.P.P.P.5.m $ . $ $ $ $ $ $ $ $ $ $ s w.P.P.P.P.P.P.P.P.P.P.P.P.P.P.P.P.P.P.P.P.P.P.P.P.P.",
"P.P.P.P.P.P.P.P.P.P.P.P.P.P.P.S.+.N 1 $ $ $ $ $ $ $ $ $ r 8.P.P.P.P.P.P.P.P.P.P.P.P.P.P.P.P.P.P.P.P.P.P.P.P.P.",
"P.P.P.P.P.P.P.P.P.P.P.P.P.P.P.P.P.S.w.+.! j > $ $ $ $ 1 | P.P.P.P.P.P.P.P.P.P.P.P.P.P.P.P.P.P.P.P.P.P.P.P.P.P.",
"P.P.P.P.P.P.P.P.P.P.P.P.P.P.P.P.P.P.P.P.P.P.P.P.P.P.P.P.P.P.P.P.P.P.P.P.P.P.P.P.P.P.P.P.P.P.P.P.P.P.P.P.P.P.P.",
"P.P.P.P.P.P.P.P.P.P.P.P.P.P.P.P.P.P.P.P.P.P.P.P.P.P.P.P.P.P.P.P.P.P.P.P.P.P.P.P.P.P.P.P.P.P.P.P.P.P.P.P.P.P.P.",
"P.P.P.P.P.P.P.P.P.P.P.P.P.P.P.P.P.P.P.P.P.P.P.P.P.P.P.P.P.P.P.P.P.P.P.P.P.P.P.P.P.P.P.P.P.P.P.P.P.P.P.P.P.P.P.",
"P.P.P.P.P.P.P.P.P.P.P.P.P.P.P.P.P.P.P.P.P.P.P.P.P.P.P.P.P.P.P.P.P.P.P.P.P.P.P.P.P.P.P.P.P.P.P.P.P.P.P.P.P.P.P.",
"P.P.P.P.P.P.P.P.P.P.P.P.P.P.P.P.P.P.P.P.P.P.P.P.P.P.P.P.P.P.P.P.P.P.P.P.P.P.P.P.P.P.P.P.P.P.P.P.P.P.P.P.P.P.P.",
"P.P.P.P.P.P.P.P.P.P.P.P.P.P.P.P.P.P.P.P.P.P.P.P.P.P.P.P.P.P.P.P.P.P.P.P.P.P.P.P.P.P.P.P.P.P.P.P.P.P.P.P.P.P.P.",
"P.P.P.P.P.P.P.P.P.P.P.P.P.P.P.P.P.P.P.P.P.P.P.P.P.P.P.P.P.P.P.P.P.P.P.P.P.P.P.P.P.P.P.P.P.P.P.P.P.P.P.P.P.P.P.",
"P.P.P.P.P.P.P.P.P.P.P.P.P.P.P.P.P.P.P.P.P.P.P.P.P.P.P.P.P.P.P.P.P.P.P.P.P.P.P.P.P.P.P.P.P.P.P.P.P.P.P.P.P.P.P."
};
