/* XPM */
static char *refresh[] = {
/* columns rows colors chars-per-pixel */
"55 55 174 2 ",
"   c None",
".  c #1D1D1D",
"X  c #1E1E1E",
"o  c gray12",
"O  c #202020",
"+  c gray13",
"@  c #222222",
"#  c #232323",
"$  c gray14",
"%  c #252525",
"&  c gray15",
"*  c #272727",
"=  c #282828",
"-  c gray16",
";  c #2A2A2A",
":  c gray17",
">  c #2C2C2C",
",  c #2D2D2D",
"<  c gray18",
"1  c #2F2F2F",
"2  c gray19",
"3  c #313131",
"4  c #323232",
"5  c gray20",
"6  c #353535",
"7  c gray21",
"8  c gray22",
"9  c #393939",
"0  c #3A3A3A",
"q  c gray23",
"w  c #3C3C3C",
"e  c #3E3E3E",
"r  c #3F3F3F",
"t  c gray25",
"y  c #434343",
"u  c #444444",
"i  c gray27",
"p  c #464646",
"a  c gray28",
"s  c #484848",
"d  c #494949",
"f  c gray30",
"g  c #4E4E4E",
"h  c gray31",
"j  c #515151",
"k  c gray32",
"l  c #535353",
"z  c gray33",
"x  c #555555",
"c  c gray34",
"v  c gray35",
"b  c #5B5B5B",
"n  c #5D5D5D",
"m  c gray37",
"M  c #606060",
"N  c gray38",
"B  c #626262",
"V  c gray39",
"C  c #646464",
"Z  c #656565",
"A  c #686868",
"S  c DimGray",
"D  c #6A6A6A",
"F  c gray42",
"G  c #6C6C6C",
"H  c #6D6D6D",
"J  c gray43",
"K  c gray44",
"L  c gray45",
"P  c #747474",
"I  c #767676",
"U  c #777777",
"Y  c #797979",
"T  c #7B7B7B",
"R  c gray49",
"E  c gray50",
"W  c #808080",
"Q  c #818181",
"!  c #838383",
"~  c #848484",
"^  c #868686",
"/  c gray53",
"(  c gray54",
")  c #8B8B8B",
"_  c gray55",
"`  c #8D8D8D",
"'  c #8E8E8E",
"]  c gray56",
"[  c #909090",
"{  c #929292",
"}  c gray58",
"|  c gray59",
" . c #989898",
".. c gray60",
"X. c #9B9B9B",
"o. c gray61",
"O. c #9F9F9F",
"+. c #A0A0A0",
"@. c gray63",
"#. c gray64",
"$. c #A4A4A4",
"%. c #A5A5A5",
"&. c gray65",
"*. c gray66",
"=. c gray67",
"-. c #ACACAC",
";. c gray69",
":. c gray70",
">. c #B4B4B4",
",. c gray71",
"<. c #B6B6B6",
"1. c #B7B7B7",
"2. c gray72",
"3. c gray73",
"4. c #BBBBBB",
"5. c #BCBCBC",
"6. c gray74",
"7. c gray",
"8. c gray76",
"9. c gray77",
"0. c #C5C5C5",
"q. c #C6C6C6",
"w. c gray78",
"e. c #C8C8C8",
"r. c gray79",
"t. c #CACACA",
"y. c #CBCBCB",
"u. c gray80",
"i. c #CDCDCD",
"p. c #CECECE",
"a. c gray81",
"s. c gray82",
"d. c #D2D2D2",
"f. c LightGray",
"g. c gray83",
"h. c #D5D5D5",
"j. c gray84",
"k. c #D7D7D7",
"l. c #D8D8D8",
"z. c gray85",
"x. c #DADADA",
"c. c gainsboro",
"v. c #DDDDDD",
"b. c gray87",
"n. c #DFDFDF",
"m. c gray88",
"M. c #E1E1E1",
"N. c #E2E2E2",
"B. c gray89",
"V. c #E4E4E4",
"C. c gray90",
"Z. c #E6E6E6",
"A. c #E7E7E7",
"S. c gray91",
"D. c gray92",
"F. c #ECECEC",
"G. c gray93",
"H. c #EEEEEE",
"J. c #EFEFEF",
"K. c gray94",
"L. c #F1F1F1",
"P. c gray95",
"I. c #F3F3F3",
"U. c #F4F4F4",
"Y. c gray96",
"T. c #F6F6F6",
"R. c gray97",
"E. c #F8F8F8",
"W. c #F9F9F9",
"Q. c gray98",
"!. c #FBFBFB",
"~. c gray99",
"^. c #FDFDFD",
"/. c #FEFEFE",
/* pixels */
"                                                                                                              ",
"                                                                                                              ",
"                                                                                                              ",
"                                                                                                              ",
"                                                                                                              ",
"                                                  W.9.2.Y.                                                    ",
"                                                W.9.3 3 E Y.                                                  ",
"                                                W.9.= @ 3 E J.                                                ",
"                                                  Y.[ @ @ 3 E Y.                                              ",
"                                                    J.! @ @ 3 E Y.                                            ",
"                                                      C.! @ @ 3 ! Y.                                          ",
"                                                      W.C.` = @ 3 +.Y.                                        ",
"                                              W.C.p.2.:.2.:.D @ @ w +.Y.                                      ",
"                                        W.j.[ n w = = = = = 3 @ @ @ a +.Y.                                    ",
"                                    W.j.E 3 @ @ @ o o o o @ @ @ @ @ @ n p.                                    ",
"                                  Y.[ w @ @ @ @ w c D E E D n w @ @ @ U v.                                    ",
"                              W.C.D @ @ @ 3 U :.C.Y.W.W.Y.Y.9.f @ @ B p.W.                                    ",
"                              C.n @ @ @ B p.Y.W.W.      W.p.c @ @ B p.W.                                      ",
"                            Y.B @ @ = [ Y.W.          W.p.c @ @ a p.W.                                        ",
"                            ! @ @ = =.W.            W.p.f @ @ a 2.W.                                          ",
"                          9.= @ = +.W.            W.j.f @ @ a 2.W.                                            ",
"                        W.n @ @ U W.            W.v.c @ @ f 2.W.                                              ",
"                        2.@ @ w C.              W.:.o @ f 2.W.                                                ",
"                        D o o ` W.              W.C.B n 9.W.                                                  ",
"                      J.w @ = j.                  W.Y.Y.W.                                                    ",
"                      9.@ @ c W.                                                                              ",
"                      ` @ o E                                                                                 ",
"                      c @ o X.                                                  Y.=.X.C.W.                    ",
"                      w @ o =.                                                  :.w @ ! Y.                    ",
"                      w @ o =.                                                  +.3 o D Y.                    ",
"                      c @ o X.                                                  [ 3 o ! Y.                    ",
"                      ` @ o E                                                 W.! = @ X.W.                    ",
"                      9.@ @ f W.                                              J.B @ = :.W.                    ",
"                      J.w @ = j.                                              9.a @ f j.                      ",
"                      W.U o o !                                             W.! = o E C.                      ",
"                        9.@ @ w v.                                          v.f @ = :.Y.                      ",
"                        W.n o @ D W.                                      Y.X.= o D v.                        ",
"                          p.= @ = [                                     W.:.a @ 3 2.W.                        ",
"                          W.` @ @ = X.W.                              W.:.f @ @ ` J.                          ",
"                            Y.D o @ = ! J.                          J.+.a @ @ U C.W.                          ",
"                              C.B o @ @ c 2.Y.                  W.9.D 3 @ @ c v.W.                            ",
"                                J.U @ @ @ = n X.j.Y.W.  W.Y.C.2.E w @ @ @ B p.W.                              ",
"                                  Y.+.w o @ @ @ 3 f n B B c w = @ @ o 3 ! v.W.                                ",
"                                    W.v.! w o o @ @ @ @ @ @ @ o o 3 U 9.Y.W.                                  ",
"                                      W.W.v.+.D a 3 = @ @ = w n ` j.Y.W.                                      ",
"                                            W.Y.J.v.p.9.9.j.C.Y.W.W.                                          ",
"                                                  W.W.W.W.W.W.                                                ",
"                                                                                                              ",
"                                                                                                              ",
"                                                                                                              ",
"                                                                                                              ",
"                                                                                                              ",
"                                                                                                              ",
"                                                                                                              ",
"                                                                                                              "
};
