/* XPM */
static char *refresh_dark[] = {
/* columns rows colors chars-per-pixel */
"55 55 174 2 ",
"   c black",
".  c #010101",
"X  c #020202",
"o  c gray1",
"O  c #040404",
"+  c gray2",
"@  c #060606",
"#  c #070707",
"$  c gray3",
"%  c #090909",
"&  c gray4",
"*  c #0B0B0B",
"=  c #0C0C0C",
"-  c gray5",
";  c #0E0E0E",
":  c gray6",
">  c #101010",
",  c #111111",
"<  c gray7",
"1  c #131313",
"2  c gray8",
"3  c gray9",
"4  c #181818",
"5  c #191919",
"6  c gray10",
"7  c #1B1B1B",
"8  c gray11",
"9  c #1D1D1D",
"0  c #1E1E1E",
"q  c gray12",
"w  c #202020",
"e  c gray13",
"r  c #222222",
"t  c #232323",
"y  c #252525",
"u  c gray15",
"i  c #272727",
"p  c #282828",
"a  c gray16",
"s  c #2A2A2A",
"d  c gray17",
"f  c #2C2C2C",
"g  c #2D2D2D",
"h  c gray18",
"j  c gray19",
"k  c #313131",
"l  c #323232",
"z  c gray20",
"x  c #343434",
"c  c #353535",
"v  c gray21",
"b  c #373737",
"n  c gray22",
"m  c #393939",
"M  c #3A3A3A",
"N  c gray23",
"B  c gray24",
"V  c #414141",
"C  c gray26",
"Z  c #434343",
"A  c #444444",
"S  c gray27",
"D  c gray28",
"F  c #484848",
"G  c #494949",
"H  c gray29",
"J  c #4B4B4B",
"K  c #4C4C4C",
"L  c gray31",
"P  c #535353",
"I  c gray33",
"U  c gray34",
"Y  c gray35",
"T  c #5A5A5A",
"R  c #5B5B5B",
"E  c gray36",
"W  c gray37",
"Q  c #5F5F5F",
"!  c #606060",
"~  c gray39",
"^  c #646464",
"/  c gray40",
"(  c #676767",
")  c DimGray",
"_  c gray42",
"`  c #6D6D6D",
"'  c #6F6F6F",
"]  c gray44",
"[  c #717171",
"{  c #727272",
"}  c gray45",
"|  c #747474",
" . c gray46",
".. c gray47",
"X. c #797979",
"o. c #7B7B7B",
"O. c #7C7C7C",
"+. c #7E7E7E",
"@. c gray50",
"#. c #808080",
"$. c gray51",
"%. c #848484",
"&. c #868686",
"*. c #888888",
"=. c #898989",
"-. c #8B8B8B",
";. c gray55",
":. c gray56",
">. c gray57",
",. c #929292",
"<. c #939393",
"1. c gray58",
"2. c #959595",
"3. c gray59",
"4. c #979797",
"5. c #9A9A9A",
"6. c #9B9B9B",
"7. c gray61",
"8. c #9D9D9D",
"9. c gray62",
"0. c #9F9F9F",
"q. c gray63",
"w. c #A2A2A2",
"e. c #A4A4A4",
"r. c gray65",
"t. c gray66",
"y. c #AAAAAA",
"u. c gray67",
"i. c #ACACAC",
"p. c gray68",
"a. c #AEAEAE",
"s. c gray69",
"d. c #B1B1B1",
"f. c #B2B2B2",
"g. c #B6B6B6",
"h. c #B7B7B7",
"j. c gray72",
"k. c #B9B9B9",
"l. c gray73",
"z. c #BBBBBB",
"x. c #BCBCBC",
"c. c gray75",
"v. c #C0C0C0",
"b. c #C1C1C1",
"n. c #C3C3C3",
"m. c gray77",
"M. c #C5C5C5",
"N. c #C6C6C6",
"B. c gray78",
"V. c gray79",
"C. c #CACACA",
"Z. c gray80",
"A. c #CDCDCD",
"S. c #CECECE",
"D. c gray81",
"F. c #D0D0D0",
"G. c gray82",
"H. c #D2D2D2",
"J. c LightGray",
"K. c gray83",
"L. c #D5D5D5",
"P. c gray84",
"I. c #D7D7D7",
"U. c #D8D8D8",
"Y. c gray85",
"T. c #DADADA",
"R. c gray86",
"E. c gainsboro",
"W. c #DDDDDD",
"Q. c gray87",
"!. c #DFDFDF",
"~. c gray88",
"^. c #E1E1E1",
"/. c #E2E2E2",
/* pixels */
"                                                                                                              ",
"                                                                                                              ",
"                                                                                                              ",
"                                                                                                              ",
"                                                                                                              ",
"                                                    N D &                                                     ",
"                                                  N S.S.#.&                                                   ",
"                                                  N I.W.S.#.>                                                 ",
"                                                  & ] W.W.S.#.&                                               ",
"                                                    > O.W.W.S.#.&                                             ",
"                                                      7 O.W.W.S.O.&                                           ",
"                                                        7 ] I.W.S.Q &                                         ",
"                                                7 k D K D K 2.W.W.n.Q &                                       ",
"                                          a _ w.n.I.I.I.I.I.S.W.W.W.k.Q &                                     ",
"                                      a #.S.W.W.W.~.~.~.~.W.W.W.W.W.W.w.k                                     ",
"                                  & _ n.W.W.W.W.n.t.2.#.#.2.w.n.W.W.W.=.r                                     ",
"                                7 2.W.W.W.S.=.K 7 &     & & N f.W.W.8.k                                       ",
"                              7 w.W.W.W.8.k &             k t.W.W.8.k                                         ",
"                            & 8.W.W.I._ &               k t.W.W.k.k                                           ",
"                            O.W.W.I.I                 N f.W.W.k.D                                             ",
"                          N I.W.I.Q                 a f.W.W.k.D                                               ",
"                          w.W.W.=.                r t.W.W.f.D                                                 ",
"                        D W.W.n.7                 K ~.W.f.D                                                   ",
"                        2.~.~.]                   7 8.w.N                                                     ",
"                      > S.W.I.a                     & &                                                       ",
"                      N W.W.t.                                                                                ",
"                      ] W.~.#.                                                                                ",
"                      t.W.~.^                                                   & I ^ 7                       ",
"                      n.W.~.I                                                   K n.W.O.&                     ",
"                      n.W.~.I                                                   Q S.~.2.&                     ",
"                      t.W.~.^                                                   _ S.~.O.&                     ",
"                      ] W.~.#.                                                  O.I.W.^                       ",
"                      N W.W.f.                                                > w.W.I.K                       ",
"                      > n.W.I.a                                               N k.W.f.a                       ",
"                        =.~.~.O.                                              O.I.~.#.7                       ",
"                        N W.W.n.r                                           r f.W.I.K &                       ",
"                          w.~.W.2.                                        & ^ I.~.2.r                         ",
"                          k I.W.I._                                       K k.W.S.D                           ",
"                            ] W.W.I.^                                   K f.W.W.] >                           ",
"                            & 2.~.W.I.O.>                           > Q k.W.W.=.7                             ",
"                              7 8.~.W.W.t.D &                     N 2.I.W.W.t.r                               ",
"                                > =.W.W.W.I.w.^ a &       & 7 D #.n.W.W.W.8.k                                 ",
"                                  & Q n.~.W.W.W.S.f.w.8.8.t.n.I.W.W.~.S.O.r                                   ",
"                                      r O.n.~.~.W.W.W.W.W.W.W.~.~.S.=.N &                                     ",
"                                          r Q 2.k.S.I.W.W.I.n.w.] a &                                         ",
"                                              & > r k N N a 7 &                                               ",
"                                                                                                              ",
"                                                                                                              ",
"                                                                                                              ",
"                                                                                                              ",
"                                                                                                              ",
"                                                                                                              ",
"                                                                                                              ",
"                                                                                                              ",
"                                                                                                              "
};
