/* XPM */
static char *right_arrow_dark[] = {
/* columns rows colors chars-per-pixel */
"55 55 30 1 ",
"  c None",
". c #010101",
"X c gray6",
"o c #131313",
"O c #1B1B1B",
"+ c gray13",
"@ c gray17",
"# c gray20",
"$ c #3E3E3E",
"% c gray26",
"& c #494949",
"* c #555555",
"= c gray37",
"- c gray38",
"; c DimGray",
": c #767676",
"> c #7E7E7E",
", c #808080",
"< c #8B8B8B",
"1 c #929292",
"2 c #9F9F9F",
"3 c #A4A4A4",
"4 c #AAAAAA",
"5 c #B7B7B7",
"6 c #B9B9B9",
"7 c #C3C3C3",
"8 c gray80",
"9 c gray84",
"0 c #D8D8D8",
"q c gray88",
/* pixels */
"                                                       ",
"                                                       ",
"                                                       ",
"                                                       ",
"                                                       ",
"                                                       ",
"                                                       ",
"                                                       ",
"                                                       ",
"                                                       ",
"                           .                           ",
"                         o,2+                          ",
"                        .<q0,.                         ",
"                        .7005+                         ",
"                        .-008&                         ",
"                         O700:X                        ",
"                         .,q03#                        ",
"                         .%908=.                       ",
"                          o400<X                       ",
"                          X-006+                       ",
"                          .+709&X                      ",
"                           o100<O                      ",
"                           .*006#.                     ",
"                            @700-.                     ",
"                            o2003o                     ",
"                            .;808#.                    ",
"                             $400>.                    ",
"                             O,008X                    ",
"                             +1006.                    ",
"                            .*600=.                    ",
"                            X>906+.                    ",
"                            O400<X                     ",
"                           .$808&.                     ",
"                           X:003@                      ",
"                           O400;o                      ",
"                          .$908$.                      ",
"                          X>004O                       ",
"                         .+609>X                       ",
"                         .=006&                        ",
"                         X2q01+                        ",
"                         %909=.                        ",
"                        .2006#                         ",
"                        .3001X                         ",
"                         %34&.                         ",
"                         .O+.                          ",
"                                                       ",
"                                                       ",
"                                                       ",
"                                                       ",
"                                                       ",
"                                                       ",
"                                                       ",
"                                                       ",
"                                                       ",
"                                                       "
};
