/* XPM */
static char *save[] = {
/* columns rows colors chars-per-pixel */
"55 55 184 2 ",
"   c None",
".  c #1D1D1D",
"X  c #1E1E1E",
"o  c gray12",
"O  c #202020",
"+  c gray13",
"@  c #222222",
"#  c #232323",
"$  c gray14",
"%  c #252525",
"&  c gray15",
"*  c #272727",
"=  c #282828",
"-  c gray16",
";  c #2A2A2A",
":  c gray17",
">  c #2C2C2C",
",  c #2D2D2D",
"<  c gray18",
"1  c #2F2F2F",
"2  c gray19",
"3  c #313131",
"4  c #323232",
"5  c gray20",
"6  c #343434",
"7  c #353535",
"8  c gray21",
"9  c #373737",
"0  c gray22",
"q  c #3A3A3A",
"w  c gray23",
"e  c #3C3C3C",
"r  c gray24",
"t  c #3F3F3F",
"y  c gray25",
"u  c #414141",
"i  c gray26",
"p  c #444444",
"a  c #464646",
"s  c gray28",
"d  c #484848",
"f  c #494949",
"g  c gray29",
"h  c #4B4B4B",
"j  c #4C4C4C",
"k  c gray30",
"l  c gray31",
"z  c #505050",
"x  c #515151",
"c  c gray32",
"v  c #535353",
"b  c gray33",
"n  c #555555",
"m  c #565656",
"M  c gray34",
"N  c #585858",
"B  c gray35",
"V  c #5B5B5B",
"C  c gray36",
"Z  c gray37",
"A  c #5F5F5F",
"S  c gray38",
"D  c #626262",
"F  c #646464",
"G  c #656565",
"H  c gray40",
"J  c #676767",
"K  c DimGray",
"L  c gray42",
"P  c #6C6C6C",
"I  c gray43",
"U  c #6F6F6F",
"Y  c gray44",
"T  c #717171",
"R  c gray47",
"E  c #797979",
"W  c #7B7B7B",
"Q  c #7C7C7C",
"!  c gray49",
"~  c #818181",
"^  c gray51",
"/  c gray52",
"(  c #868686",
")  c gray53",
"_  c #888888",
"`  c #898989",
"'  c #8B8B8B",
"]  c #8E8E8E",
"[  c gray56",
"{  c #909090",
"}  c gray57",
"|  c #929292",
" . c #939393",
".. c gray58",
"X. c #959595",
"o. c gray59",
"O. c #979797",
"+. c gray60",
"@. c #9A9A9A",
"#. c #9B9B9B",
"$. c gray61",
"%. c #9D9D9D",
"&. c #9F9F9F",
"*. c #A0A0A0",
"=. c #A2A2A2",
"-. c gray64",
";. c #A5A5A5",
":. c gray65",
">. c #A7A7A7",
",. c #A9A9A9",
"<. c #AAAAAA",
"1. c gray67",
"2. c #ACACAC",
"3. c gray68",
"4. c gray69",
"5. c #B2B2B2",
"6. c gray70",
"7. c #B4B4B4",
"8. c #B6B6B6",
"9. c #B7B7B7",
"0. c gray72",
"q. c #B9B9B9",
"w. c gray73",
"e. c #BBBBBB",
"r. c #BCBCBC",
"t. c gray74",
"y. c gray",
"u. c gray75",
"i. c #C0C0C0",
"p. c #C1C1C1",
"a. c gray76",
"s. c #C3C3C3",
"d. c gray77",
"f. c #C5C5C5",
"g. c #C6C6C6",
"h. c gray78",
"j. c #C8C8C8",
"k. c gray79",
"l. c #CACACA",
"z. c #CBCBCB",
"x. c gray80",
"c. c #CDCDCD",
"v. c gray81",
"b. c #D0D0D0",
"n. c gray82",
"m. c #D2D2D2",
"M. c LightGray",
"N. c gray83",
"B. c #D5D5D5",
"V. c gray84",
"C. c #D7D7D7",
"Z. c #D8D8D8",
"A. c gray85",
"S. c #DADADA",
"D. c gainsboro",
"F. c #DDDDDD",
"G. c gray87",
"H. c #DFDFDF",
"J. c gray88",
"K. c #E2E2E2",
"L. c gray89",
"P. c gray90",
"I. c #E6E6E6",
"U. c #E7E7E7",
"Y. c gray91",
"T. c #E9E9E9",
"R. c #EAEAEA",
"E. c gray92",
"W. c #ECECEC",
"Q. c gray93",
"!. c #EEEEEE",
"~. c gray94",
"^. c #F3F3F3",
"/. c #F4F4F4",
"(. c gray96",
"). c #F6F6F6",
"_. c gray97",
"`. c #F8F8F8",
"'. c #F9F9F9",
"]. c gray98",
"[. c #FBFBFB",
"{. c gray99",
"}. c #FDFDFD",
"|. c #FEFEFE",
/* pixels */
"                                                                                                              ",
"                                                                                                              ",
"                                                                                                              ",
"                                                    '.'.'.                                                    ",
"                                                  '.@.3 @.'.                                                  ",
"                                                  !.d @ d !.                                                  ",
"                                                  P.u @ u !.                                                  ",
"                                                  P.u @ u !.                                                  ",
"                                                  P.u @ u !.                                                  ",
"                                                  P.u @ u !.                                                  ",
"                                                  P.u @ u !.                                                  ",
"                                                  P.u @ u !.                                                  ",
"                                                  P.u @ u !.                                                  ",
"                                                  P.u @ u !.                                                  ",
"                                  '.'.'.'.'.'.    P.u @ u !.    '.'.'.'.'.'.                                  ",
"                              '.!.C.f.w.w.w.H.'.  P.u @ u !.    H.w.w.w.f.C.!.'.                              ",
"                            ~.w.G 0 - @ @ @ X.~.  P.d @ u !.    ( @ @ - - 3 B w.~.                            ",
"                          ~.=.0 @ @ - - - @ @.~.  P.d @ u !.    ' - - - - @ o - =.'.                          ",
"                        '.,.0 @ 3 G X.,.,.,.C.'.  P.d @ u !.    C.,.,.,.@.K - @ - ,.'.                        ",
"                      '.f.d @ 3 X.!.    '.'.      P.d @ u !.      '.      '.@.- @ 3 f.'.                      ",
"                    '.C.B @ - ' !.    '.P.H.~.    P.d @ u !.    ~.H.P.'.      ' @ o u H.                      ",
"                    P.K - @ K P.      !.B 0 =.~.  P.d @ u !.  ~.=.3 B !.      ~.K @ o G !.                    ",
"                  ~.( 3 @ x C.'.      H.0 @ - ,.~.P.u @ u !.~.=.- @ 0 H.'.      P.d @ o ( ~.                  ",
"                '.w.0 @ 0 w.'.        '.=.0 @ 3 5.P.d @ d !.5.3 @ 3 ,.'.          k.0 @ @ =.'.                ",
"              '.f.B @ 0 ,.~.            '.5.d @ 0 @.d @ d @.3 @ d w.'.              5.3 @ - ,.'.              ",
"            '.C.K @ 3 X.!.                  w.d @ 3 3 @ 3 3 @ d w.'.                '.@.- o 0 k.'.            ",
"            P.( - @ E P.                      w.x @ @ @ @ @ x f.'.                    ~.E @ o B H.            ",
"          '.@.0 @ d C.'.                        f.x - @ @ x k.'.                        !.B @ @ E '.          ",
"          P.B @ 3 ' !.!.!.!.!.!.!.!.!.!.!.!.~.    f.B 3 B k.'.  ~.!.!.!.!.!.!.!.!.!.!.!.!.f.- @ 3 C.          ",
"          C.3 @ 3 K X.X.X.X.X.X.X.X.X.X.X.X.w.~.    C.=.C.'.  '.5.X.' X.X.X.X.X.X.X.X.X.X.' 3 @ @ ,.          ",
"          k.@ @ @ @ o o o o o o o o o o o o u H.'.            H.0 @ o @ o o o o o o o o o o @ @ @ X.          ",
"          k.@ @ - 0 0 u u u 0 0 0 u u u 3 @ - f.'.            f.- @ 3 u u u 0 0 0 u u u u u 3 @ @ X.          ",
"          k.@ @ x =.w.w.w.w.w.w.w.w.w.w.G @ @ @.~.          '.X.@ @ T w.w.w.w.w.w.w.w.w.w.w.K @ @ X.          ",
"          k.@ @ K H.                    ,.- @ x C.'.      '.H.d @ @ w.'.                    ' o @ X.          ",
"          k.@ @ G H.                    P.x @ @ K f.P.!.P.k.G @ @ B !.                      ' o @ X.          ",
"          k.@ @ G H.                      5.u @ @ d E ' E u @ @ 0 w.'.                      ' o @ X.          ",
"          k.@ @ G H.                      '.=.d - @ @ o o @ - d ,.'.                        ' o @ X.          ",
"          k.@ @ G H.                        '.f.E x u u u x E k.'.                          ' o @ X.          ",
"          k.@ @ G H.                            '.H.f.5.f.H.'.                              ' o @ X.          ",
"          k.@ @ G H.                                                                        ' o @ X.          ",
"          k.@ @ G H.                                                                        ( o @ X.          ",
"          k.@ @ G C.                                                                        ( o @ @.          ",
"          C.3 @ x f.'.                                                                    ~.G o - ,.          ",
"          P.x @ 3 ( H.!.!.!.!.!.!.!.!.!.!.!.!.!.!.!.!.!.!.!.!.!.!.!.!.!.!.!.!.!.!.!.!.!.P.5.3 @ 3 k.          ",
"          '.X.3 @ - d B G G G G G G G G G G G G G G G G G G G G G G G G G G G G G G G G x - @ @ K ~.          ",
"            H.E 0 @ o o o o o o o o o o o o o o o o o o o o o o o o o o o o o o o o o o o @ - B k.            ",
"            '.H.@.T x x d d d d d d x x x x d d d d x d x x x x d d x d d d d d x x x x x G ' k.'.            ",
"                ~.H.f.f.f.f.f.f.f.f.f.f.f.f.f.f.f.f.f.f.f.f.f.f.f.f.f.f.f.f.f.f.f.f.f.f.f.C.~.                ",
"                                                                                                              ",
"                                                                                                              ",
"                                                                                                              ",
"                                                                                                              ",
"                                                                                                              ",
"                                                                                                              ",
"                                                                                                              "
};
