/* XPM */
static char *saveas[] = {
/* columns rows colors chars-per-pixel */
"55 55 151 2 ",
"   c None",
".  c #181818",
"X  c #191919",
"o  c #1D1D1D",
"O  c #1E1E1E",
"+  c gray12",
"@  c #202020",
"#  c gray13",
"$  c #222222",
"%  c #232323",
"&  c gray14",
"*  c #252525",
"=  c gray15",
"-  c #272727",
";  c #282828",
":  c gray16",
">  c #2A2A2A",
",  c gray17",
"<  c #2C2C2C",
"1  c #2D2D2D",
"2  c gray18",
"3  c #2F2F2F",
"4  c gray19",
"5  c #313131",
"6  c #323232",
"7  c gray20",
"8  c #343434",
"9  c #353535",
"0  c gray21",
"q  c #373737",
"w  c gray22",
"e  c #393939",
"r  c gray23",
"t  c #3C3C3C",
"y  c gray24",
"u  c #3E3E3E",
"i  c #3F3F3F",
"p  c gray25",
"a  c #414141",
"s  c #434343",
"d  c #444444",
"f  c gray27",
"g  c gray28",
"h  c #494949",
"j  c gray29",
"k  c #4B4B4B",
"l  c #4C4C4C",
"z  c gray30",
"x  c #4E4E4E",
"c  c gray31",
"v  c #515151",
"b  c gray32",
"n  c #535353",
"m  c #5A5A5A",
"M  c #5B5B5B",
"N  c gray36",
"B  c #5D5D5D",
"V  c gray37",
"C  c #626262",
"Z  c gray39",
"A  c #646464",
"S  c gray40",
"D  c #676767",
"F  c #686868",
"G  c DimGray",
"H  c #6A6A6A",
"J  c gray43",
"K  c gray44",
"L  c #717171",
"P  c #727272",
"I  c #747474",
"U  c gray46",
"Y  c #797979",
"T  c gray48",
"R  c #7B7B7B",
"E  c #7E7E7E",
"W  c gray50",
"Q  c #818181",
"!  c gray51",
"~  c #838383",
"^  c #868686",
"/  c #888888",
"(  c gray54",
")  c #939393",
"_  c #959595",
"`  c #9B9B9B",
"'  c gray62",
"]  c #9F9F9F",
"[  c #A0A0A0",
"{  c gray64",
"}  c gray65",
"|  c gray67",
" . c #AEAEAE",
".. c #AFAFAF",
"X. c gray69",
"o. c #B1B1B1",
"O. c #B2B2B2",
"+. c gray70",
"@. c #B6B6B6",
"#. c #B7B7B7",
"$. c #BBBBBB",
"%. c #BCBCBC",
"&. c gray74",
"*. c gray",
"=. c gray75",
"-. c #C0C0C0",
";. c #C1C1C1",
":. c gray76",
">. c #C5C5C5",
",. c #C6C6C6",
"<. c #C8C8C8",
"1. c #CBCBCB",
"2. c gray80",
"3. c gray81",
"4. c gray82",
"5. c #D2D2D2",
"6. c LightGray",
"7. c gray83",
"8. c #D5D5D5",
"9. c gray84",
"0. c #D7D7D7",
"q. c #D8D8D8",
"w. c gray87",
"e. c #DFDFDF",
"r. c #E1E1E1",
"t. c #E2E2E2",
"y. c #E4E4E4",
"u. c gray90",
"i. c #E6E6E6",
"p. c #E7E7E7",
"a. c #E9E9E9",
"s. c #EAEAEA",
"d. c gray92",
"f. c #ECECEC",
"g. c #EEEEEE",
"h. c #EFEFEF",
"j. c gray94",
"k. c #F1F1F1",
"l. c gray95",
"z. c #F3F3F3",
"x. c #F4F4F4",
"c. c gray96",
"v. c #F6F6F6",
"b. c gray97",
"n. c #F8F8F8",
"m. c #F9F9F9",
"M. c gray98",
"N. c #FBFBFB",
"B. c gray99",
"V. c #FDFDFD",
"C. c #FEFEFE",
/* pixels */
"                                                                                                              ",
"                                                                                                              ",
"                                                                                                              ",
"                                                                                                              ",
"                                                                                                              ",
"                                                                                                              ",
"                                                                                                              ",
"                                                    V.g.j.V.                                                  ",
"                                                  V.>.j N r.                                                  ",
"                                                  j.! o ; o.                                                  ",
"                                                  j.! o ; o.                                                  ",
"                                                  j.! o ; o.                                                  ",
"                                                  j.! o ; o.                                                  ",
"                                                  j.! o ; o.                                                  ",
"                                                  j.! o ; o.                                                  ",
"                                                  j.! o ; o.                                                  ",
"                                V.V.V.V.V.V.V.    j.! o ; o.      V.V.V.V.V.V.V.                              ",
"                          V.g.r.9.9.9.9.9.9.q.V.  j.! o ; o.  V.j.9.9.9.9.9.9.q.g.V.V.                        ",
"                        V.>.L d 8 8 8 8 8 8 b j.  j.! o ; o.  V.>.w 8 8 8 8 8 w N o.g.V.                      ",
"                      V.} ; o - - - - - - - j j.  j.! o ; o.  V.=.8 - - - - - - o ; / r.                      ",
"                      r.w - - w N F F F F D W j.  j.! o ; o.  V.9.L F F F F D j 8 - 8 o.V.                    ",
"                      ] - - w o.g.j.j.j.j.j.j.V.  j.! o ; o.    V.j.j.j.j.j.g.2.L ; - W j.                    ",
"                      N - o !                     j.! o ; o.                    =.8 - d g.                    ",
"                      d - o  .                    j.! o ; o.                    9.w - ; r.                    ",
"                      w - o o.                    j.! o ; o.                    9.d - ; r.                    ",
"                      w - o o.          V.g.V.    j.! o ; o.    V.j.j.V.        9.d - ; r.                    ",
"                      w - o  .        V.9.) >.V.  j.! o ; o.  V.r.o.} g.        9.d - ; r.                    ",
"                      d - o  .        j.W o d =.V.j.! o ; o.V.r.) 8 8 >.        9.d - ; r.                    ",
"                      d - o  .        V.] ; - j >.g./ o ; o.g.] 8 - j 9.        9.d - ; r.                    ",
"                      d - o  .          j. .d - d } / o 8 ] / ; ; D 2.V.        9.d - ; r.                    ",
"                      w - o  .            V.o.d - d N - ; N w ; F 2.V.          9.w - ; r.                    ",
"                      w - o  .              V.o.j - ; - ; ; ; F 2.V.            9.w - ; r.                    ",
"                      w - o  .                j.o.j - - - ; L 9.V.              9.d - ; r.                    ",
"                      w - o o.                  j.o.b - ; L 9.                  9.d - ; r.                    ",
"                      w - o o.                    V.=.L W 9.                    9.d - ; r.                    ",
"                      w - o o.                      V.r.r.                      9.d - ; r.                    ",
"                      w - o  .                                                  9.d - ; r.                    ",
"                      w - o  .                                                  9.d - ; r.                    ",
"                      w - o  .                                                  9.d - ; r.                    ",
"                      w - o  .                                                  9.d - ; r.                    ",
"                      w - o  .                                                  9.d - ; r.                    ",
"                      d - o  .                                                  9.w - ; r.                    ",
"                      N - o !                                                   =.8 - d g.                    ",
"                      ] - - w o.g.j.j.j.j.j.j.j.j.j.j.j.j.j.j.j.j.j.j.j.j.j.g.2.L ; o W j.                    ",
"                      r.8 - - w N F F F F F F F F F F F F F F F F F F F F F D j 8 - 8 o.V.                    ",
"                      V.} ; o - - - - - - ; ; - - - - - - - - - - - - - - - - - o ; ! r.                      ",
"                        g. .D w 8 ; ; ; ; ; ; ; ; ; ; ; ; ; ; ; ; ; ; ; ; ; 8 w b ] r.V.                      ",
"                          j.q.2.=.=.=.=.=.=.=.=.=.=.=.=.=.=.=.=.=.=.=.=.=.=.=.>.9.j.V.                        ",
"                                V.V.V.V.V.V.V.V.V.V.V.V.V.V.V.V.V.V.V.V.V.V.V.V.                              ",
"                                                                                                              ",
"                                                                                                              ",
"                                                                                                              ",
"                                                                                                              ",
"                                                                                                              ",
"                                                                                                              "
};
