/* XPM */
static char *saveas_dark[] = {
/* columns rows colors chars-per-pixel */
"55 55 151 2 ",
"   c black",
".  c #010101",
"X  c #020202",
"o  c gray1",
"O  c #040404",
"+  c gray2",
"@  c #060606",
"#  c #070707",
"$  c gray3",
"%  c #090909",
"&  c gray4",
"*  c #0B0B0B",
"=  c #0C0C0C",
"-  c gray5",
";  c #0E0E0E",
":  c gray6",
">  c #101010",
",  c #111111",
"<  c #131313",
"1  c gray8",
"2  c #151515",
"3  c #161616",
"4  c #181818",
"5  c #191919",
"6  c gray10",
"7  c #1B1B1B",
"8  c #1D1D1D",
"9  c #1E1E1E",
"0  c #202020",
"q  c gray13",
"w  c #272727",
"e  c #282828",
"r  c gray16",
"t  c #2A2A2A",
"y  c gray17",
"u  c #2C2C2C",
"i  c #2D2D2D",
"p  c gray18",
"a  c gray19",
"s  c gray20",
"d  c #343434",
"f  c #373737",
"g  c #393939",
"h  c #3A3A3A",
"j  c gray24",
"k  c #3E3E3E",
"l  c #3F3F3F",
"z  c gray25",
"x  c #414141",
"c  c gray26",
"v  c #434343",
"b  c #444444",
"n  c #484848",
"m  c #494949",
"M  c #4C4C4C",
"N  c gray30",
"B  c #4E4E4E",
"V  c gray31",
"C  c #505050",
"Z  c #515151",
"A  c gray33",
"S  c gray35",
"D  c gray36",
"F  c #5F5F5F",
"G  c #606060",
"H  c gray38",
"J  c #646464",
"K  c #6A6A6A",
"L  c #6C6C6C",
"P  c gray46",
"I  c #777777",
"U  c #797979",
"Y  c #7C7C7C",
"T  c gray49",
"R  c #7E7E7E",
"E  c #808080",
"W  c #818181",
"Q  c #848484",
"!  c gray52",
"~  c #868686",
"^  c gray54",
"/  c #8B8B8B",
"(  c #8D8D8D",
")  c #8E8E8E",
"_  c gray56",
"`  c gray57",
"'  c #959595",
"]  c gray59",
"[  c #979797",
"{  c #989898",
"}  c gray60",
"|  c #9B9B9B",
" . c gray61",
".. c #9D9D9D",
"X. c gray63",
"o. c #A2A2A2",
"O. c gray64",
"+. c #A4A4A4",
"@. c #A5A5A5",
"#. c #ACACAC",
"$. c gray68",
"%. c #AEAEAE",
"&. c gray69",
"*. c #B1B1B1",
"=. c #B2B2B2",
"-. c gray70",
";. c #B4B4B4",
":. c gray71",
">. c #B6B6B6",
",. c gray72",
"<. c gray73",
"1. c #BBBBBB",
"2. c #BCBCBC",
"3. c gray",
"4. c gray75",
"5. c #C0C0C0",
"6. c #C1C1C1",
"7. c gray76",
"8. c #C3C3C3",
"9. c gray77",
"0. c #C6C6C6",
"q. c gray78",
"w. c #C8C8C8",
"e. c gray79",
"r. c #CACACA",
"t. c #CBCBCB",
"y. c gray80",
"u. c #CDCDCD",
"i. c #CECECE",
"p. c gray81",
"a. c #D0D0D0",
"s. c gray82",
"d. c #D2D2D2",
"f. c LightGray",
"g. c gray83",
"h. c #D5D5D5",
"j. c gray84",
"k. c #D7D7D7",
"l. c #D8D8D8",
"z. c gray85",
"x. c #DADADA",
"c. c gray86",
"v. c gainsboro",
"b. c #DDDDDD",
"n. c gray87",
"m. c #DFDFDF",
"M. c gray88",
"N. c #E1E1E1",
"B. c #E2E2E2",
"V. c #E6E6E6",
"C. c #E7E7E7",
/* pixels */
"                                                                                                              ",
"                                                                                                              ",
"                                                                                                              ",
"                                                                                                              ",
"                                                                                                              ",
"                                                                                                              ",
"                                                                                                              ",
"                                                      , :                                                     ",
"                                                    h :.O.9                                                   ",
"                                                  : T B.k.B                                                   ",
"                                                  : T B.k.B                                                   ",
"                                                  : T B.k.B                                                   ",
"                                                  : T B.k.B                                                   ",
"                                                  : T B.k.B                                                   ",
"                                                  : T B.k.B                                                   ",
"                                                  : T B.k.B                                                   ",
"                                                  : T B.k.B                                                   ",
"                            , 9 r r r r r r w     : T B.k.B     : r r r r r r w ,                             ",
"                          h ) 1.t.t.t.t.t.t.$.:   : T B.k.B     h q.t.t.t.t.t.q.O.B ,                         ",
"                        S k.B.l.l.l.l.l.l.l.:.:   : T B.k.B     z t.l.l.l.l.l.l.B.k.I 9                       ",
"                      9 q.l.l.q.O.{ [ [ [ { E :   : T B.k.B     r ) [ [ [ [ { :.t.l.t.B                       ",
"                      G l.l.q.B , : : : : : :     : T B.k.B       : : : : : , s ) k.l.E :                     ",
"                      O.l.B.T                     : T B.k.B                     z t.l.1.,                     ",
"                      1.l.B.Z                     : T B.k.B                     r q.l.k.9                     ",
"                      q.l.B.B                     : T B.k.B                     r 1.l.k.9                     ",
"                      q.l.B.B             ,       : T B.k.B       : :           r 1.l.k.9                     ",
"                      q.l.B.Z           r L h :   : T B.k.B     9 B S ,         r 1.l.k.9                     ",
"                      1.l.B.Z           E B.1.z   : T B.k.B   9 L t.t.h         r 1.l.k.9                     ",
"                      1.l.B.Z           G k.l.:.h , I B.k.B , G t.l.:.r         r 1.l.k.9                     ",
"                      1.l.B.Z           : Z 1.l.1.S I B.k.G I k.k.{ s           r 1.l.k.9                     ",
"                      q.l.B.Z               B 1.l.1.O.l.k.O.q.k.[ s             r q.l.k.9                     ",
"                      q.l.B.Z                 B :.l.k.l.k.k.k.[ s               r q.l.k.9                     ",
"                      q.l.B.Z                 : B :.l.l.l.k.) r                 r 1.l.k.9                     ",
"                      q.l.B.B                   : B $.l.k.) r                   r 1.l.k.9                     ",
"                      q.l.B.B                       z ) E r                     r 1.l.k.9                     ",
"                      q.l.B.B                         9 9                       r 1.l.k.9                     ",
"                      q.l.B.Z                                                   r 1.l.k.9                     ",
"                      q.l.B.Z                                                   r 1.l.k.9                     ",
"                      q.l.B.Z                                                   r 1.l.k.9                     ",
"                      q.l.B.Z                                                   r 1.l.k.9                     ",
"                      q.l.B.Z                                                   r 1.l.k.9                     ",
"                      1.l.B.Z                                                   r q.l.k.9                     ",
"                      O.l.B.T                                                   z t.l.1.,                     ",
"                      G l.l.q.B , : : : : : : : : : : : : : : : : : : : : : , s ) k.B.E :                     ",
"                      9 t.l.l.q.O.[ [ [ [ [ [ [ [ [ [ [ [ [ [ [ [ [ [ [ [ [ { :.t.l.t.B                       ",
"                        S k.B.l.l.l.l.l.l.k.l.l.l.l.l.l.l.l.l.l.l.l.l.l.l.l.l.l.B.k.T 9                       ",
"                        , Z { q.t.k.k.k.k.k.k.k.k.k.k.k.k.k.k.k.k.k.k.k.k.k.t.q.$.G 9                         ",
"                          : w s z z z z z z z z z z z z z z z z z z z z z z z h r :                           ",
"                                                                                                              ",
"                                                                                                              ",
"                                                                                                              ",
"                                                                                                              ",
"                                                                                                              ",
"                                                                                                              ",
"                                                                                                              "
};
