/* XPM */
static char *save[] = {
/* columns rows colors chars-per-pixel */
"55 55 184 2 ",
"   c #1D1D1D",
".  c #1E1E1E",
"X  c gray12",
"o  c #202020",
"O  c gray13",
"+  c #222222",
"@  c #232323",
"#  c gray14",
"$  c #252525",
"%  c gray15",
"&  c #272727",
"*  c #282828",
"=  c gray16",
"-  c #2A2A2A",
";  c gray17",
":  c #2C2C2C",
">  c #2D2D2D",
",  c gray18",
"<  c #2F2F2F",
"1  c gray19",
"2  c #313131",
"3  c #323232",
"4  c gray20",
"5  c #343434",
"6  c #353535",
"7  c gray21",
"8  c #373737",
"9  c gray22",
"0  c #3A3A3A",
"q  c gray23",
"w  c #3C3C3C",
"e  c gray24",
"r  c #3F3F3F",
"t  c gray25",
"y  c #414141",
"u  c gray26",
"i  c #444444",
"p  c #464646",
"a  c gray28",
"s  c #484848",
"d  c #494949",
"f  c gray29",
"g  c #4B4B4B",
"h  c #4C4C4C",
"j  c gray30",
"k  c gray31",
"l  c #505050",
"z  c #515151",
"x  c gray32",
"c  c #535353",
"v  c gray33",
"b  c #555555",
"n  c #565656",
"m  c gray34",
"M  c #585858",
"N  c gray35",
"B  c #5B5B5B",
"V  c gray36",
"C  c gray37",
"Z  c #5F5F5F",
"A  c gray38",
"S  c #626262",
"D  c #646464",
"F  c #656565",
"G  c gray40",
"H  c #676767",
"J  c DimGray",
"K  c gray42",
"L  c #6C6C6C",
"P  c gray43",
"I  c #6F6F6F",
"U  c gray44",
"Y  c #717171",
"T  c gray47",
"R  c #797979",
"E  c #7B7B7B",
"W  c #7C7C7C",
"Q  c gray49",
"!  c #818181",
"~  c gray51",
"^  c gray52",
"/  c #868686",
"(  c gray53",
")  c #888888",
"_  c #898989",
"`  c #8B8B8B",
"'  c #8E8E8E",
"]  c gray56",
"[  c #909090",
"{  c gray57",
"}  c #929292",
"|  c #939393",
" . c gray58",
".. c #959595",
"X. c gray59",
"o. c #979797",
"O. c gray60",
"+. c #9A9A9A",
"@. c #9B9B9B",
"#. c gray61",
"$. c #9D9D9D",
"%. c #9F9F9F",
"&. c #A0A0A0",
"*. c #A2A2A2",
"=. c gray64",
"-. c #A5A5A5",
";. c gray65",
":. c #A7A7A7",
">. c #A9A9A9",
",. c #AAAAAA",
"<. c gray67",
"1. c #ACACAC",
"2. c gray68",
"3. c gray69",
"4. c #B2B2B2",
"5. c gray70",
"6. c #B4B4B4",
"7. c #B6B6B6",
"8. c #B7B7B7",
"9. c gray72",
"0. c #B9B9B9",
"q. c gray73",
"w. c #BBBBBB",
"e. c #BCBCBC",
"r. c gray74",
"t. c gray",
"y. c gray75",
"u. c #C0C0C0",
"i. c #C1C1C1",
"p. c gray76",
"a. c #C3C3C3",
"s. c gray77",
"d. c #C5C5C5",
"f. c #C6C6C6",
"g. c gray78",
"h. c #C8C8C8",
"j. c gray79",
"k. c #CACACA",
"l. c #CBCBCB",
"z. c gray80",
"x. c #CDCDCD",
"c. c gray81",
"v. c #D0D0D0",
"b. c gray82",
"n. c #D2D2D2",
"m. c LightGray",
"M. c gray83",
"N. c #D5D5D5",
"B. c gray84",
"V. c #D7D7D7",
"C. c #D8D8D8",
"Z. c gray85",
"A. c #DADADA",
"S. c gainsboro",
"D. c #DDDDDD",
"F. c gray87",
"G. c #DFDFDF",
"H. c gray88",
"J. c #E2E2E2",
"K. c gray89",
"L. c gray90",
"P. c #E6E6E6",
"I. c #E7E7E7",
"U. c gray91",
"Y. c #E9E9E9",
"T. c #EAEAEA",
"R. c gray92",
"E. c #ECECEC",
"W. c gray93",
"Q. c #EEEEEE",
"!. c gray94",
"~. c #F3F3F3",
"^. c #F4F4F4",
"/. c gray96",
"(. c #F6F6F6",
"). c gray97",
"_. c #F8F8F8",
"`. c #F9F9F9",
"'. c gray98",
"]. c #FBFBFB",
"[. c gray99",
"{. c #FDFDFD",
"}. c #FEFEFE",
"|. c white",
/* pixels */
"|.|.|.|.|.|.|.|.|.|.|.|.|.|.|.|.|.|.|.|.|.|.|.|.|.|.|.|.|.|.|.|.|.|.|.|.|.|.|.|.|.|.|.|.|.|.|.|.|.|.|.|.|.|.|.",
"|.|.|.|.|.|.|.|.|.|.|.|.|.|.|.|.|.|.|.|.|.|.|.|.|.|.|.|.|.|.|.|.|.|.|.|.|.|.|.|.|.|.|.|.|.|.|.|.|.|.|.|.|.|.|.",
"|.|.|.|.|.|.|.|.|.|.|.|.|.|.|.|.|.|.|.|.|.|.|.|.|.|.|.|.|.|.|.|.|.|.|.|.|.|.|.|.|.|.|.|.|.|.|.|.|.|.|.|.|.|.|.",
"|.|.|.|.|.|.|.|.|.|.|.|.|.|.|.|.|.|.|.|.|.|.|.|.|.|.|.|.|.|.|.|.|.|.|.|.|.|.|.|.|.|.|.|.|.|.|.|.|.|.|.|.|.|.|.",
"|.|.|.|.|.|.|.|.|.|.|.|.|.|.|.|.|.|.|.|.|.|.|.|.|.|.+.2 +.|.|.|.|.|.|.|.|.|.|.|.|.|.|.|.|.|.|.|.|.|.|.|.|.|.|.",
"|.|.|.|.|.|.|.|.|.|.|.|.|.|.|.|.|.|.|.|.|.|.|.|.|.Q.s + s Q.|.|.|.|.|.|.|.|.|.|.|.|.|.|.|.|.|.|.|.|.|.|.|.|.|.",
"|.|.|.|.|.|.|.|.|.|.|.|.|.|.|.|.|.|.|.|.|.|.|.|.|.L.y + y Q.|.|.|.|.|.|.|.|.|.|.|.|.|.|.|.|.|.|.|.|.|.|.|.|.|.",
"|.|.|.|.|.|.|.|.|.|.|.|.|.|.|.|.|.|.|.|.|.|.|.|.|.L.y + y Q.|.|.|.|.|.|.|.|.|.|.|.|.|.|.|.|.|.|.|.|.|.|.|.|.|.",
"|.|.|.|.|.|.|.|.|.|.|.|.|.|.|.|.|.|.|.|.|.|.|.|.|.L.y + y Q.|.|.|.|.|.|.|.|.|.|.|.|.|.|.|.|.|.|.|.|.|.|.|.|.|.",
"|.|.|.|.|.|.|.|.|.|.|.|.|.|.|.|.|.|.|.|.|.|.|.|.|.L.y + y Q.|.|.|.|.|.|.|.|.|.|.|.|.|.|.|.|.|.|.|.|.|.|.|.|.|.",
"|.|.|.|.|.|.|.|.|.|.|.|.|.|.|.|.|.|.|.|.|.|.|.|.|.L.y + y Q.|.|.|.|.|.|.|.|.|.|.|.|.|.|.|.|.|.|.|.|.|.|.|.|.|.",
"|.|.|.|.|.|.|.|.|.|.|.|.|.|.|.|.|.|.|.|.|.|.|.|.|.L.y + y Q.|.|.|.|.|.|.|.|.|.|.|.|.|.|.|.|.|.|.|.|.|.|.|.|.|.",
"|.|.|.|.|.|.|.|.|.|.|.|.|.|.|.|.|.|.|.|.|.|.|.|.|.L.y + y Q.|.|.|.|.|.|.|.|.|.|.|.|.|.|.|.|.|.|.|.|.|.|.|.|.|.",
"|.|.|.|.|.|.|.|.|.|.|.|.|.|.|.|.|.|.|.|.|.|.|.|.|.L.y + y Q.|.|.|.|.|.|.|.|.|.|.|.|.|.|.|.|.|.|.|.|.|.|.|.|.|.",
"|.|.|.|.|.|.|.|.|.|.|.|.|.|.|.|.|.|.|.|.|.|.|.|.|.L.y + y Q.|.|.|.|.|.|.|.|.|.|.|.|.|.|.|.|.|.|.|.|.|.|.|.|.|.",
"|.|.|.|.|.|.|.|.|.|.|.|.|.|.|.|.Q.V.d.q.q.q.F.|.|.L.y + y Q.|.|.F.q.q.q.d.V.Q.|.|.|.|.|.|.|.|.|.|.|.|.|.|.|.|.",
"|.|.|.|.|.|.|.|.|.|.|.|.|.|.!.q.F 9 = + + X ..!.|.L.s + y Q.|.|./ + + + = 2 N q.!.|.|.|.|.|.|.|.|.|.|.|.|.|.|.",
"|.|.|.|.|.|.|.|.|.|.|.|.|.!.*.9 + + = = = + +.!.|.L.y + y Q.|.|.` = = = = + X = *.|.|.|.|.|.|.|.|.|.|.|.|.|.|.",
"|.|.|.|.|.|.|.|.|.|.|.|.|.>.9 + 2 F ..>.>.*.V.|.|.L.s + y Q.|.|.j.>.>.>.+.J = + = >.|.|.|.|.|.|.|.|.|.|.|.|.|.",
"|.|.|.|.|.|.|.|.|.|.|.|.d.s + 2 ..Q.|.|.|.|.|.|.|.L.s + y Q.|.|.|.|.|.|.|.|.+.= + 2 d.|.|.|.|.|.|.|.|.|.|.|.|.",
"|.|.|.|.|.|.|.|.|.|.|.V.N + = ` Q.|.|.|.L.F.!.|.|.L.s + y Q.|.|.!.F.L.|.|.|.|.` + X y F.|.|.|.|.|.|.|.|.|.|.|.",
"|.|.|.|.|.|.|.|.|.|.L.J = + J L.|.|.|.Q.N 9 *.!.|.L.s + y Q.|.!.*.2 N Q.|.|.|.!.J + X F Q.|.|.|.|.|.|.|.|.|.|.",
"|.|.|.|.|.|.|.|.|.!./ 2 + z V.|.|.|.|.F.9 + = >.!.L.y + y Q.!.*.= + 9 F.|.|.|.|.L.s + X / !.|.|.|.|.|.|.|.|.|.",
"|.|.|.|.|.|.|.|.|.q.9 + 9 q.|.|.|.|.|.|.*.9 + 2 4.L.s + s Q.4.2 + 2 >.|.|.|.|.|.|.j.2 + + *.|.|.|.|.|.|.|.|.|.",
"|.|.|.|.|.|.|.|.d.N + 9 >.!.|.|.|.|.|.|.|.4.s + 9 +.s + s +.2 + s q.|.|.|.|.|.|.|.|.4.2 + = >.|.|.|.|.|.|.|.|.",
"|.|.|.|.|.|.|.V.J + 2 ..Q.|.|.|.|.|.|.|.|.|.q.s + 2 2 + 2 2 + s q.|.|.|.|.|.|.|.|.|.|...= X 9 j.|.|.|.|.|.|.|.",
"|.|.|.|.|.|.L./ = + R L.|.|.|.|.|.|.|.|.|.|.|.q.z + + + + + z d.|.|.|.|.|.|.|.|.|.|.|.!.R + X N F.|.|.|.|.|.|.",
"|.|.|.|.|.|.+.9 + s V.|.|.|.|.|.|.|.|.|.|.|.|.|.d.z = + + z j.|.|.|.|.|.|.|.|.|.|.|.|.|.Q.N + + R |.|.|.|.|.|.",
"|.|.|.|.|.L.N + 2 ` Q.Q.Q.Q.Q.Q.Q.Q.Q.Q.Q.Q.!.|.|.d.N 2 N j.|.|.!.Q.Q.Q.Q.Q.Q.Q.Q.Q.Q.Q.Q.d.= + 2 V.|.|.|.|.|.",
"|.|.|.|.|.V.2 + 2 J ........................q.!.|.|.V.*.V.|.|.|.4...` ....................` 2 + + >.|.|.|.|.|.",
"|.|.|.|.|.j.+ + + + X X X X X X X X X X X X y F.|.|.|.|.|.|.|.F.9 + X + X X X X X X X X X X + + + ..|.|.|.|.|.",
"|.|.|.|.|.j.+ + = 9 9 y y y 9 9 9 y y y 2 + = d.|.|.|.|.|.|.|.q.= + 2 y y y 9 9 9 y y y y y 2 + + ..|.|.|.|.|.",
"|.|.|.|.|.j.+ + z *.q.q.q.q.q.q.q.q.q.q.F + + +.!.|.|.|.|.|.|...+ X Y q.q.q.q.q.q.q.q.q.q.q.J + + ..|.|.|.|.|.",
"|.|.|.|.|.j.+ + J F.|.|.|.|.|.|.|.|.|.|.>.= + z V.|.|.|.|.|.F.s + + q.|.|.|.|.|.|.|.|.|.|.|.` X + ..|.|.|.|.|.",
"|.|.|.|.|.j.+ + F F.|.|.|.|.|.|.|.|.|.|.L.z + + J d.L.Q.L.j.F + + N Q.|.|.|.|.|.|.|.|.|.|.|.` X + ..|.|.|.|.|.",
"|.|.|.|.|.j.+ + F F.|.|.|.|.|.|.|.|.|.|.|.4.y + + s R ` R y + + 9 q.|.|.|.|.|.|.|.|.|.|.|.|.` X + ..|.|.|.|.|.",
"|.|.|.|.|.j.+ + F F.|.|.|.|.|.|.|.|.|.|.|.|.*.s = + X X X + = s >.|.|.|.|.|.|.|.|.|.|.|.|.|.` X + ..|.|.|.|.|.",
"|.|.|.|.|.j.+ + F F.|.|.|.|.|.|.|.|.|.|.|.|.|.d.R z y 9 y z R j.|.|.|.|.|.|.|.|.|.|.|.|.|.|.` X + ..|.|.|.|.|.",
"|.|.|.|.|.j.+ + F F.|.|.|.|.|.|.|.|.|.|.|.|.|.|.|.F.d.4.d.F.|.|.|.|.|.|.|.|.|.|.|.|.|.|.|.|.` X + ..|.|.|.|.|.",
"|.|.|.|.|.j.+ + F F.|.|.|.|.|.|.|.|.|.|.|.|.|.|.|.|.|.|.|.|.|.|.|.|.|.|.|.|.|.|.|.|.|.|.|.|.` X + ..|.|.|.|.|.",
"|.|.|.|.|.j.+ + F F.|.|.|.|.|.|.|.|.|.|.|.|.|.|.|.|.|.|.|.|.|.|.|.|.|.|.|.|.|.|.|.|.|.|.|.|./ X + ..|.|.|.|.|.",
"|.|.|.|.|.j.+ + F V.|.|.|.|.|.|.|.|.|.|.|.|.|.|.|.|.|.|.|.|.|.|.|.|.|.|.|.|.|.|.|.|.|.|.|.|./ X + +.|.|.|.|.|.",
"|.|.|.|.|.V.2 + z d.|.|.|.|.|.|.|.|.|.|.|.|.|.|.|.|.|.|.|.|.|.|.|.|.|.|.|.|.|.|.|.|.|.|.|.!.F X + >.|.|.|.|.|.",
"|.|.|.|.|.L.z + 2 / F.Q.Q.Q.Q.Q.Q.Q.Q.Q.Q.Q.Q.Q.Q.Q.Q.Q.Q.Q.Q.Q.Q.Q.Q.Q.Q.Q.Q.Q.Q.Q.Q.Q.L.4.2 + = j.|.|.|.|.|.",
"|.|.|.|.|.|...2 + = s N F F F F F F F F F F F F F F F F F F F F F F F F F F F F F F F F z = + + J !.|.|.|.|.|.",
"|.|.|.|.|.|.F.R 9 + X X X X X X X X X X X X X X X X X X X X X X X X X X X X X X X X X X X + = N j.|.|.|.|.|.|.",
"|.|.|.|.|.|.|.F.+.Y z s s s s s s s z z z z s s s s s s z z z z s s s s s s s s z z z z z F ` j.|.|.|.|.|.|.|.",
"|.|.|.|.|.|.|.|.!.F.d.d.d.d.d.d.d.d.d.d.d.d.d.d.d.d.d.d.d.d.d.d.d.d.d.d.d.d.d.d.d.d.d.d.d.V.!.|.|.|.|.|.|.|.|.",
"|.|.|.|.|.|.|.|.|.|.|.|.|.|.|.|.|.|.|.|.|.|.|.|.|.|.|.|.|.|.|.|.|.|.|.|.|.|.|.|.|.|.|.|.|.|.|.|.|.|.|.|.|.|.|.",
"|.|.|.|.|.|.|.|.|.|.|.|.|.|.|.|.|.|.|.|.|.|.|.|.|.|.|.|.|.|.|.|.|.|.|.|.|.|.|.|.|.|.|.|.|.|.|.|.|.|.|.|.|.|.|.",
"|.|.|.|.|.|.|.|.|.|.|.|.|.|.|.|.|.|.|.|.|.|.|.|.|.|.|.|.|.|.|.|.|.|.|.|.|.|.|.|.|.|.|.|.|.|.|.|.|.|.|.|.|.|.|.",
"|.|.|.|.|.|.|.|.|.|.|.|.|.|.|.|.|.|.|.|.|.|.|.|.|.|.|.|.|.|.|.|.|.|.|.|.|.|.|.|.|.|.|.|.|.|.|.|.|.|.|.|.|.|.|.",
"|.|.|.|.|.|.|.|.|.|.|.|.|.|.|.|.|.|.|.|.|.|.|.|.|.|.|.|.|.|.|.|.|.|.|.|.|.|.|.|.|.|.|.|.|.|.|.|.|.|.|.|.|.|.|.",
"|.|.|.|.|.|.|.|.|.|.|.|.|.|.|.|.|.|.|.|.|.|.|.|.|.|.|.|.|.|.|.|.|.|.|.|.|.|.|.|.|.|.|.|.|.|.|.|.|.|.|.|.|.|.|.",
"|.|.|.|.|.|.|.|.|.|.|.|.|.|.|.|.|.|.|.|.|.|.|.|.|.|.|.|.|.|.|.|.|.|.|.|.|.|.|.|.|.|.|.|.|.|.|.|.|.|.|.|.|.|.|."
};
