/* XPM */
static char *search[] = {
/* columns rows colors chars-per-pixel */
"55 55 166 2 ",
"   c #1D1D1D",
".  c #1E1E1E",
"X  c gray12",
"o  c #202020",
"O  c gray13",
"+  c #222222",
"@  c #232323",
"#  c gray14",
"$  c #252525",
"%  c gray15",
"&  c #272727",
"*  c #282828",
"=  c gray16",
"-  c #2A2A2A",
";  c gray17",
":  c #2C2C2C",
">  c #2D2D2D",
",  c gray18",
"<  c #2F2F2F",
"1  c gray19",
"2  c #313131",
"3  c #323232",
"4  c #343434",
"5  c #353535",
"6  c gray21",
"7  c #373737",
"8  c gray22",
"9  c #393939",
"0  c #3A3A3A",
"q  c gray23",
"w  c gray24",
"e  c #3F3F3F",
"r  c gray25",
"t  c gray26",
"y  c gray27",
"u  c gray28",
"i  c #484848",
"p  c gray29",
"a  c #4B4B4B",
"s  c #4C4C4C",
"d  c gray30",
"f  c #4E4E4E",
"g  c gray31",
"h  c #505050",
"j  c #515151",
"k  c gray32",
"l  c #535353",
"z  c #555555",
"x  c #585858",
"c  c gray35",
"v  c #5B5B5B",
"b  c gray36",
"n  c #5D5D5D",
"m  c gray37",
"M  c #5F5F5F",
"N  c #606060",
"B  c #626262",
"V  c gray39",
"C  c #646464",
"Z  c gray40",
"A  c gray42",
"S  c #6C6C6C",
"D  c #6D6D6D",
"F  c gray44",
"G  c #717171",
"H  c gray46",
"J  c #767676",
"K  c #777777",
"L  c gray47",
"P  c #797979",
"I  c #7B7B7B",
"U  c gray49",
"Y  c gray50",
"T  c #808080",
"R  c #818181",
"E  c gray51",
"W  c #838383",
"Q  c #848484",
"!  c gray53",
"~  c #888888",
"^  c #898989",
"/  c gray54",
"(  c #8B8B8B",
")  c gray55",
"_  c #8E8E8E",
"`  c gray56",
"'  c #909090",
"]  c #929292",
"[  c gray58",
"{  c #959595",
"}  c #979797",
"|  c #9B9B9B",
" . c gray62",
".. c #A0A0A0",
"X. c gray63",
"o. c gray64",
"O. c #A4A4A4",
"+. c #A5A5A5",
"@. c gray65",
"#. c #A7A7A7",
"$. c #A9A9A9",
"%. c #AAAAAA",
"&. c gray67",
"*. c #ACACAC",
"=. c gray68",
"-. c #AEAEAE",
";. c gray69",
":. c #B2B2B2",
">. c #B4B4B4",
",. c gray71",
"<. c #B6B6B6",
"1. c #B7B7B7",
"2. c gray73",
"3. c #BCBCBC",
"4. c gray74",
"5. c gray75",
"6. c #C0C0C0",
"7. c #C1C1C1",
"8. c #C3C3C3",
"9. c gray77",
"0. c #C6C6C6",
"q. c gray78",
"w. c #C8C8C8",
"e. c #CBCBCB",
"r. c gray80",
"t. c #CDCDCD",
"y. c #CECECE",
"u. c #D0D0D0",
"i. c gray82",
"p. c gray83",
"a. c #D5D5D5",
"s. c gray84",
"d. c #D7D7D7",
"f. c gray85",
"g. c #DADADA",
"h. c #DDDDDD",
"j. c gray87",
"k. c #DFDFDF",
"l. c gray88",
"z. c #E1E1E1",
"x. c #E4E4E4",
"c. c gray90",
"v. c #E6E6E6",
"b. c #E7E7E7",
"n. c gray91",
"m. c #EAEAEA",
"M. c gray92",
"N. c #ECECEC",
"B. c gray93",
"V. c #EFEFEF",
"C. c gray94",
"Z. c #F1F1F1",
"A. c gray95",
"S. c #F3F3F3",
"D. c #F4F4F4",
"F. c gray96",
"G. c #F6F6F6",
"H. c gray97",
"J. c #F8F8F8",
"K. c #F9F9F9",
"L. c gray98",
"P. c #FBFBFB",
"I. c gray99",
"U. c #FDFDFD",
"Y. c #FEFEFE",
"T. c white",
/* pixels */
"T.T.T.T.T.T.T.T.T.T.T.T.T.T.T.T.T.T.T.T.T.T.T.T.T.T.T.T.T.T.T.T.T.T.T.T.T.T.T.T.T.T.T.T.T.T.T.T.T.T.T.T.T.T.T.",
"T.T.T.T.T.T.T.T.T.T.T.T.T.T.T.T.T.T.T.T.T.T.T.T.T.T.T.T.T.T.T.T.T.T.T.T.T.T.T.T.T.T.T.T.T.T.T.T.T.T.T.T.T.T.T.",
"T.T.T.T.T.T.T.T.T.T.T.T.T.T.T.T.T.T.T.T.T.T.T.T.T.T.T.T.T.T.T.T.T.T.T.T.T.T.T.T.T.T.T.T.T.T.T.T.T.T.T.T.T.T.T.",
"T.T.T.T.T.T.T.T.T.T.T.T.T.T.T.T.T.T.T.T.T.T.T.T.T.T.T.T.T.T.T.T.T.T.T.T.T.T.T.T.T.T.T.T.T.T.T.T.T.T.T.T.T.T.T.",
"T.T.T.T.T.T.T.T.T.T.T.T.T.T.T.T.T.T.T.T.T.T.T.T.T.T.T.T.T.T.T.T.T.T.T.T.T.T.T.T.T.T.T.T.T.T.T.T.T.T.T.T.T.T.T.",
"T.T.T.T.T.T.T.T.T.T.T.T.T.T.T.T.T.T.T.T.T.T.T.T.T.T.T.T.T.T.T.T.T.T.T.T.T.T.T.T.T.T.T.T.T.T.T.T.T.T.T.T.T.T.T.",
"T.T.T.T.T.T.T.T.T.T.T.T.T.T.T.T.T.T.T.T.T.T.T.T.T.T.T.T.T.T.T.T.T.T.T.T.T.T.T.T.T.T.T.T.T.T.T.T.T.T.T.T.T.T.T.",
"T.T.T.T.T.T.T.T.T.T.T.T.T.T.T.T.T.T.T.T.T.T.T.T.T.T.T.T.T.T.T.T.T.T.T.T.T.T.T.T.T.T.T.T.T.T.T.T.T.T.T.T.T.T.T.",
"T.T.T.T.T.T.T.T.T.T.T.T.T.T.T.T.T.T.T.T.T.T.T.T.T.T.T.T.T.T.T.T.T.T.T.T.T.T.T.T.T.T.T.T.T.T.T.T.T.T.T.T.T.T.T.",
"T.T.T.T.T.T.T.T.T.T.T.T.T.T.T.T.T.T.T.T.T.T.H.H.H.H.H.H.T.T.T.T.T.T.T.T.T.T.T.T.T.T.T.T.T.T.T.T.T.T.T.T.T.T.T.",
"T.T.T.T.T.T.T.T.T.T.T.T.T.T.T.T.T.T.T.M.p.-.C < + + + k | e.M.T.T.T.T.T.T.T.T.T.T.T.T.T.T.T.T.T.T.T.T.T.T.T.T.",
"T.T.T.T.T.T.T.T.T.T.T.T.T.T.T.T.T.H.2.H 7 + + + + + + + + < b -.M.T.T.T.T.T.T.T.T.T.T.T.T.T.T.T.T.T.T.T.T.T.T.",
"T.T.T.T.T.T.T.T.T.T.T.T.T.T.T.T.p.H < X + + < < < < < < + + + + C e.H.T.T.T.T.T.T.T.T.T.T.T.T.T.T.T.T.T.T.T.T.",
"T.T.T.T.T.T.T.T.T.T.T.T.T.T.H.2.u X + + 7 f H } -.-.| T k 7 < + X 7 ..H.T.T.T.T.T.T.T.T.T.T.T.T.T.T.T.T.T.T.T.",
"T.T.T.T.T.T.T.T.T.T.T.T.T.T.:.7 X + < C :.M.T.T.T.T.T.T.H.6.H 7 + + + } H.T.T.T.T.T.T.T.T.T.T.T.T.T.T.T.T.T.T.",
"T.T.T.T.T.T.T.T.T.T.T.T.T.6.7 + + 0 | H.T.T.T.T.T.T.T.T.T.T.T.:.u + + + ..T.T.T.T.T.T.T.T.T.T.T.T.T.T.T.T.T.T.",
"T.T.T.T.T.T.T.T.T.T.T.T.v.f + + 0 2.T.T.T.T.T.T.T.T.T.T.T.T.T.T.p.f + + 7 e.T.T.T.T.T.T.T.T.T.T.T.T.T.T.T.T.T.",
"T.T.T.T.T.T.T.T.T.T.T.T.Y + + 7 2.T.T.T.T.T.T.T.T.T.T.T.T.T.T.T.T.p.u + X b H.T.T.T.T.T.T.T.T.T.T.T.T.T.T.T.T.",
"T.T.T.T.T.T.T.T.T.T.T.p.7 + + } T.T.T.T.T.T.T.T.T.T.T.T.T.T.T.T.T.T.:.< + + :.T.T.T.T.T.T.T.T.T.T.T.T.T.T.T.T.",
"T.T.T.T.T.T.T.T.T.T.T.T + X k M.T.T.T.T.T.T.T.T.T.T.T.T.T.T.T.T.T.T.T.S + X b T.T.T.T.T.T.T.T.T.T.T.T.T.T.T.T.",
"T.T.T.T.T.T.T.T.T.T.H.u + + ..T.T.T.T.T.T.T.T.T.T.T.T.T.T.T.T.T.T.T.T.6.+ + < k.T.T.T.T.T.T.T.T.T.T.T.T.T.T.T.",
"T.T.T.T.T.T.T.T.T.T.p.< + 7 k.T.T.T.T.T.T.T.T.T.T.T.T.T.T.T.T.T.T.T.T.H.f + X -.T.T.T.T.T.T.T.T.T.T.T.T.T.T.T.",
"T.T.T.T.T.T.T.T.T.T...+ + b H.T.T.T.T.T.T.T.T.T.T.T.T.T.T.T.T.T.T.T.T.T.Y X X T T.T.T.T.T.T.T.T.T.T.T.T.T.T.T.",
"T.T.T.T.T.T.T.T.T.T.H + X H H.T.T.T.T.T.T.T.T.T.T.T.T.T.T.T.T.T.T.T.T.T.| X + C T.T.T.T.T.T.T.T.T.T.T.T.T.T.T.",
"T.T.T.T.T.T.T.T.T.T.b + X T T.T.T.T.T.T.T.T.T.T.T.T.T.T.T.T.T.T.T.T.T.T.-.X + b T.T.T.T.T.T.T.T.T.T.T.T.T.T.T.",
"T.T.T.T.T.T.T.T.T.T.C + X T T.T.T.T.T.T.T.T.T.T.T.T.T.T.T.T.T.T.T.T.T.T...X X b T.T.T.T.T.T.T.T.T.T.T.T.T.T.T.",
"T.T.T.T.T.T.T.T.T.T.T + X S H.T.T.T.T.T.T.T.T.T.T.T.T.T.T.T.T.T.T.T.T.T.^ X X H T.T.T.T.T.T.T.T.T.T.T.T.T.T.T.",
"T.T.T.T.T.T.T.T.T.T.:.< + f M.T.T.T.T.T.T.T.T.T.T.T.T.T.T.T.T.T.T.T.T.T.C X X } T.T.T.T.T.T.T.T.T.T.T.T.T.T.T.",
"T.T.T.T.T.T.T.T.T.T.k.7 + < 6.T.T.T.T.T.T.T.T.T.T.T.T.T.T.T.T.T.T.T.T.v.0 + + 2.T.T.T.T.T.T.T.T.T.T.T.T.T.T.T.",
"T.T.T.T.T.T.T.T.T.T.T.b + + T H.T.T.T.T.T.T.T.T.T.T.T.T.T.T.T.T.T.T.T...+ + u M.T.T.T.T.T.T.T.T.T.T.T.T.T.T.T.",
"T.T.T.T.T.T.T.T.T.T.T...< + 0 e.T.T.T.T.T.T.T.T.T.T.T.T.T.T.T.T.T.T.v.f + + T T.T.T.T.T.T.T.T.T.T.T.T.T.T.T.T.",
"T.T.T.T.T.T.T.T.T.T.T.v.f + + S v.T.T.T.T.T.T.T.T.T.T.T.T.T.T.T.T.H.^ + + 7 p.T.T.T.T.T.T.T.T.T.T.T.T.T.T.T.T.",
"T.T.T.T.T.T.T.T.T.T.T.T...< + + ^ M.T.T.T.T.T.T.T.T.T.T.T.T.T.T.H...< + + ^ T.T.T.T.T.T.T.T.T.T.T.T.T.T.T.T.T.",
"T.T.T.T.T.T.T.T.T.T.T.T.H.H < + < ^ k.T.T.T.T.T.T.T.T.T.T.T.T.v...7 + + 7 k.T.T.T.T.T.T.T.T.T.T.T.T.T.T.T.T.T.",
"T.T.T.T.T.T.T.T.T.T.T.T.T.v.C < + + S 6.v.T.T.T.T.T.T.T.T.M.p.Y < + + + < ^ M.T.T.T.T.T.T.T.T.T.T.T.T.T.T.T.T.",
"T.T.T.T.T.T.T.T.T.T.T.T.T.T.p.C < + + 0 Y :.p.k.v.v.v.k.6.^ f + + + + + + + ^ M.T.T.T.T.T.T.T.T.T.T.T.T.T.T.T.",
"T.T.T.T.T.T.T.T.T.T.T.T.T.T.T.k.Y 0 + + + < f C Y Y S k 7 + X + 7 k 7 + + + + ^ M.T.T.T.T.T.T.T.T.T.T.T.T.T.T.",
"T.T.T.T.T.T.T.T.T.T.T.T.T.T.T.T.H...b 7 < + + X X X X X + < 7 k | k.T < + + + + ^ M.T.T.T.T.T.T.T.T.T.T.T.T.T.",
"T.T.T.T.T.T.T.T.T.T.T.T.T.T.T.T.T.T.v...S f 0 7 7 7 7 0 u C } k.T.T.H.T < + + + + ^ M.T.T.T.T.T.T.T.T.T.T.T.T.",
"T.T.T.T.T.T.T.T.T.T.T.T.T.T.T.T.T.T.T.T.H.p.:.| } } | -.e.M.T.T.T.T.T.H.T < + + + + ^ M.T.T.T.T.T.T.T.T.T.T.T.",
"T.T.T.T.T.T.T.T.T.T.T.T.T.T.T.T.T.T.T.T.T.T.T.T.T.T.T.T.T.T.T.T.T.T.T.T.H.T < + + + + ^ M.T.T.T.T.T.T.T.T.T.T.",
"T.T.T.T.T.T.T.T.T.T.T.T.T.T.T.T.T.T.T.T.T.T.T.T.T.T.T.T.T.T.T.T.T.T.T.T.T.H.T < + + + + ^ M.T.T.T.T.T.T.T.T.T.",
"T.T.T.T.T.T.T.T.T.T.T.T.T.T.T.T.T.T.T.T.T.T.T.T.T.T.T.T.T.T.T.T.T.T.T.T.T.T.H.T < + + + + } H.T.T.T.T.T.T.T.T.",
"T.T.T.T.T.T.T.T.T.T.T.T.T.T.T.T.T.T.T.T.T.T.T.T.T.T.T.T.T.T.T.T.T.T.T.T.T.T.T.H.T < + + + < e.T.T.T.T.T.T.T.T.",
"T.T.T.T.T.T.T.T.T.T.T.T.T.T.T.T.T.T.T.T.T.T.T.T.T.T.T.T.T.T.T.T.T.T.T.T.T.T.T.T.H.T < + + + :.T.T.T.T.T.T.T.T.",
"T.T.T.T.T.T.T.T.T.T.T.T.T.T.T.T.T.T.T.T.T.T.T.T.T.T.T.T.T.T.T.T.T.T.T.T.T.T.T.T.T.H.T 7 + k v.T.T.T.T.T.T.T.T.",
"T.T.T.T.T.T.T.T.T.T.T.T.T.T.T.T.T.T.T.T.T.T.T.T.T.T.T.T.T.T.T.T.T.T.T.T.T.T.T.T.T.T.T.6.:.v.T.T.T.T.T.T.T.T.T.",
"T.T.T.T.T.T.T.T.T.T.T.T.T.T.T.T.T.T.T.T.T.T.T.T.T.T.T.T.T.T.T.T.T.T.T.T.T.T.T.T.T.T.T.T.T.T.T.T.T.T.T.T.T.T.T.",
"T.T.T.T.T.T.T.T.T.T.T.T.T.T.T.T.T.T.T.T.T.T.T.T.T.T.T.T.T.T.T.T.T.T.T.T.T.T.T.T.T.T.T.T.T.T.T.T.T.T.T.T.T.T.T.",
"T.T.T.T.T.T.T.T.T.T.T.T.T.T.T.T.T.T.T.T.T.T.T.T.T.T.T.T.T.T.T.T.T.T.T.T.T.T.T.T.T.T.T.T.T.T.T.T.T.T.T.T.T.T.T.",
"T.T.T.T.T.T.T.T.T.T.T.T.T.T.T.T.T.T.T.T.T.T.T.T.T.T.T.T.T.T.T.T.T.T.T.T.T.T.T.T.T.T.T.T.T.T.T.T.T.T.T.T.T.T.T.",
"T.T.T.T.T.T.T.T.T.T.T.T.T.T.T.T.T.T.T.T.T.T.T.T.T.T.T.T.T.T.T.T.T.T.T.T.T.T.T.T.T.T.T.T.T.T.T.T.T.T.T.T.T.T.T.",
"T.T.T.T.T.T.T.T.T.T.T.T.T.T.T.T.T.T.T.T.T.T.T.T.T.T.T.T.T.T.T.T.T.T.T.T.T.T.T.T.T.T.T.T.T.T.T.T.T.T.T.T.T.T.T.",
"T.T.T.T.T.T.T.T.T.T.T.T.T.T.T.T.T.T.T.T.T.T.T.T.T.T.T.T.T.T.T.T.T.T.T.T.T.T.T.T.T.T.T.T.T.T.T.T.T.T.T.T.T.T.T.",
"T.T.T.T.T.T.T.T.T.T.T.T.T.T.T.T.T.T.T.T.T.T.T.T.T.T.T.T.T.T.T.T.T.T.T.T.T.T.T.T.T.T.T.T.T.T.T.T.T.T.T.T.T.T.T."
};
