/* XPM */
static char *search2_dark[] = {
/* columns rows colors chars-per-pixel */
"55 55 173 2 ",
"   c black",
".  c #010101",
"X  c #020202",
"o  c gray1",
"O  c #040404",
"+  c gray2",
"@  c #060606",
"#  c #070707",
"$  c gray3",
"%  c #090909",
"&  c gray4",
"*  c #0B0B0B",
"=  c #0C0C0C",
"-  c gray5",
";  c #0E0E0E",
":  c gray6",
">  c #101010",
",  c #111111",
"<  c gray7",
"1  c #131313",
"2  c gray8",
"3  c #151515",
"4  c gray9",
"5  c #191919",
"6  c gray10",
"7  c #1B1B1B",
"8  c gray11",
"9  c #1D1D1D",
"0  c #1E1E1E",
"q  c gray13",
"w  c #232323",
"e  c gray14",
"r  c #252525",
"t  c gray15",
"y  c #272727",
"u  c #282828",
"i  c gray16",
"p  c #2A2A2A",
"a  c #2D2D2D",
"s  c gray18",
"d  c #2F2F2F",
"f  c #313131",
"g  c #323232",
"h  c gray20",
"j  c #343434",
"k  c #353535",
"l  c gray21",
"z  c #373737",
"x  c gray22",
"c  c gray23",
"v  c #3C3C3C",
"b  c gray24",
"n  c #3F3F3F",
"m  c gray25",
"M  c gray26",
"N  c #434343",
"B  c #444444",
"V  c gray27",
"C  c gray28",
"Z  c #4B4B4B",
"A  c #4C4C4C",
"S  c gray30",
"D  c #4E4E4E",
"F  c #505050",
"G  c #515151",
"H  c gray32",
"J  c gray34",
"K  c #585858",
"L  c #5D5D5D",
"P  c gray37",
"I  c #5F5F5F",
"U  c gray38",
"Y  c gray39",
"T  c #646464",
"R  c gray40",
"E  c #686868",
"W  c DimGray",
"Q  c #6A6A6A",
"!  c gray42",
"~  c #6C6C6C",
"^  c gray43",
"/  c #6F6F6F",
"(  c gray44",
")  c #717171",
"_  c #727272",
"`  c gray45",
"'  c #747474",
"]  c gray46",
"[  c #797979",
"{  c gray48",
"}  c #7B7B7B",
"|  c gray49",
" . c #838383",
".. c #848484",
"X. c gray52",
"o. c #868686",
"O. c gray53",
"+. c #898989",
"@. c gray54",
"#. c #8B8B8B",
"$. c gray55",
"%. c #8D8D8D",
"&. c #8E8E8E",
"*. c #929292",
"=. c #939393",
"-. c gray58",
";. c #979797",
":. c #989898",
">. c #9B9B9B",
",. c gray61",
"<. c #9D9D9D",
"1. c gray62",
"2. c #9F9F9F",
"3. c #A0A0A0",
"4. c gray63",
"5. c #A2A2A2",
"6. c gray64",
"7. c #A4A4A4",
"8. c #A9A9A9",
"9. c #AAAAAA",
"0. c #ACACAC",
"q. c #AEAEAE",
"w. c #AFAFAF",
"e. c #B1B1B1",
"r. c #B2B2B2",
"t. c gray70",
"y. c #B4B4B4",
"u. c gray71",
"i. c #B6B6B6",
"p. c gray72",
"a. c gray73",
"s. c #BBBBBB",
"d. c gray",
"f. c gray75",
"g. c #C0C0C0",
"h. c #C1C1C1",
"j. c #C3C3C3",
"k. c gray77",
"l. c #C5C5C5",
"z. c #C6C6C6",
"x. c gray78",
"c. c #C8C8C8",
"v. c gray79",
"b. c #CACACA",
"n. c #CBCBCB",
"m. c gray80",
"M. c #CECECE",
"N. c gray81",
"B. c #D0D0D0",
"V. c gray82",
"C. c #D2D2D2",
"Z. c gray83",
"A. c #D5D5D5",
"S. c gray84",
"D. c #D7D7D7",
"F. c #D8D8D8",
"G. c gray85",
"H. c #DADADA",
"J. c gray86",
"K. c gainsboro",
"L. c #DDDDDD",
"P. c gray87",
"I. c #DFDFDF",
"U. c gray88",
"Y. c #E1E1E1",
"T. c #E2E2E2",
"R. c gray89",
"E. c #E4E4E4",
"W. c gray90",
"Q. c #E6E6E6",
"!. c gray91",
"~. c gray92",
"^. c #ECECEC",
/* pixels */
"                                                                                                              ",
"                                                                                                              ",
"                                                                                                              ",
"                                                                                                              ",
"                                                                                                              ",
"                                                                                                              ",
"                              4 u b b b b b b b b b b b b b b b b b b b b b z 0                               ",
"                          4 J q.h.M.M.M.M.M.M.M.M.M.M.M.M.M.M.M.M.M.M.M.M.M.M.d.$.e                           ",
"                        4 ~ h.I.I.I.I.U.U.U.U.U.U.U.U.U.U.I.I.I.U.U.U.I.I.I.I.I.I.t.e                         ",
"                        m t.I.I.h.q.4.4.4.4.4.4.4.4.4.4.4.4.4.4.4.4.4.4.4.4.d.I.I.U. .                        ",
"                      * ~ V.I.;.z 4 4 4 4 4 4 4 4 4 4 4 4 4 4 4 4 4 4 4 4 4 e  .I.I.h.4                       ",
"                      4  .I.M.m                                               4 h.I.I.u                       ",
"                      0 $.I.h.u                                                 4.I.I.b                       ",
"                      0 $.I.h.u                                                 4.U.I.b                       ",
"                      0 $.I.h.u           * * * * * * * * * * * * * *           4.U.I.b                       ",
"                      0 $.I.h.u       m 1.t.t.t.t.t.t.t.t.t.t.t.t.t.t.T         4.U.I.b                       ",
"                      0 $.I.h.u       ~ V.U.U.U.U.U.U.U.U.U.U.U.U.U.!.1.*       4.U.I.b                       ",
"                      0 $.I.h.u       0 Z I I I I I I I I I I I I I I e         4.U.I.b                       ",
"                      0 $.I.h.u                                                 4.U.I.b                       ",
"                      0 $.I.h.u                                                 4.U.I.b                       ",
"                      0 $.I.h.u                                                 4.U.I.b                       ",
"                      0 $.I.h.u       4 m J J J J J J J J J J J J J J 0         4.U.I.b                       ",
"                      0 $.I.h.u       ) V.!.U.U.U.U.U.U.U.U.U.U.U.U.!.1.*       4.U.I.b                       ",
"                      0 $.I.h.u       Z q.h.d.d.d.d.d.d.d.d.d.d.d.d.h.~         4.U.I.b                       ",
"                      0 $.I.h.u         * * * * * * * * * * * * * * *           4.U.I.b                       ",
"                      0 $.I.h.u                                                 4.U.I.b                       ",
"                      0 $.I.h.u                                                 4.U.I.b                       ",
"                      0 $.I.h.u                                                 4.U.I.b                       ",
"                      0 $.I.h.u                                                 4.U.I.b                       ",
"                      0 $.I.h.u                                                 1.U.I.b                       ",
"                      0 $.I.h.u                                 * 0 u e 4 *     u q.U.b                       ",
"                      0 $.I.h.u                             * Z 1.h.V.V.d. .z     4 q.m                       ",
"                      0 $.I.h.u                           0 ;.I.U.I.I.I.I.U.V.~     e u                       ",
"                      0 $.I.h.u                         0 1.I.V.t.} J I  .h.I.U.)                             ",
"                      0 $.I.h.u                         } I.I. .0         z q.I.I.m                           ",
"                      0 $.I.h.u                       u h.I.;.4             u h.U.4.                          ",
"                      0 $.I.h.u                       T V.V.z                 ) U.V.e                         ",
"                      0 $.I.h.u                        .I.d.4                 b I.U.m                         ",
"                      0 $.I.h.u                       $.I.q.*                 u V.U.Z                         ",
"                      0 $.I.h.u                       } I.h.4                 m I.I.b                         ",
"                      0 $.I.h.u                       Z M.I.I               * ;.U.h.4                         ",
"                      0 $.I.h.u                       0 q.I.t.z *         * J V.U. .                          ",
"                      4 } V.V.I 4                       J h.U.q.Z e 0 0 e T M.I.I.I                           ",
"                        I h.I.d.~ m m b b b b b b m u   * ) M.I.M.4. .$.q.I.I.I.I.t.z                         ",
"                        u 1.I.U.I.V.M.M.M.M.M.M.M.M.4.u   * ~ t.M.I.I.I.I.M.q.h.I.I.t.z                       ",
"                          m 4.M.V.V.I.I.I.I.I.I.I.I.I.;.u     z ) ;.4.4.$.I e I M.I.U.t.z                     ",
"                            u ) ;.1.1.1.1.1.1.1.1.1.1.4.T 4       * 4 4         I M.I.U.t.z                   ",
"                                  * * * * * * * * * * * *                         m q.I.I.t.0                 ",
"                                                                                    b q.I.t.0                 ",
"                                                                                      b ) J                   ",
"                                                                                        *                     ",
"                                                                                                              ",
"                                                                                                              ",
"                                                                                                              ",
"                                                                                                              "
};
