/* XPM */
static char *search2[] = {
/* columns rows colors chars-per-pixel */
"55 55 173 2 ",
"   c None",
".  c #131313",
"X  c gray8",
"o  c gray9",
"O  c #191919",
"+  c gray10",
"@  c #1B1B1B",
"#  c gray11",
"$  c #1D1D1D",
"%  c #1E1E1E",
"&  c gray12",
"*  c #202020",
"=  c gray13",
"-  c #222222",
";  c #232323",
":  c gray14",
">  c #252525",
",  c gray15",
"<  c #272727",
"1  c #282828",
"2  c gray16",
"3  c #2A2A2A",
"4  c gray17",
"5  c #2D2D2D",
"6  c gray18",
"7  c #2F2F2F",
"8  c gray19",
"9  c #313131",
"0  c gray20",
"q  c #343434",
"w  c #353535",
"e  c gray21",
"r  c #373737",
"t  c gray22",
"y  c #393939",
"u  c #3A3A3A",
"i  c gray23",
"p  c #3C3C3C",
"a  c #3E3E3E",
"s  c #3F3F3F",
"d  c gray25",
"f  c #414141",
"g  c #444444",
"h  c gray27",
"j  c gray28",
"k  c #494949",
"l  c gray29",
"z  c #4B4B4B",
"x  c #4C4C4C",
"c  c gray30",
"v  c #4E4E4E",
"b  c #505050",
"n  c #515151",
"m  c #535353",
"M  c #555555",
"N  c #565656",
"B  c #5B5B5B",
"V  c gray36",
"C  c #5D5D5D",
"Z  c gray37",
"A  c #5F5F5F",
"S  c #606060",
"D  c gray38",
"F  c #626262",
"G  c gray39",
"H  c #646464",
"J  c #676767",
"K  c #686868",
"L  c gray42",
"P  c #6C6C6C",
"I  c #6D6D6D",
"U  c #717171",
"Y  c #727272",
"T  c gray45",
"R  c #747474",
"E  c gray46",
"W  c #767676",
"Q  c gray47",
"!  c #797979",
"~  c gray48",
"^  c #7B7B7B",
"/  c #7C7C7C",
"(  c gray51",
")  c #848484",
"_  c gray52",
"`  c #868686",
"'  c gray54",
"]  c #8B8B8B",
"[  c gray55",
"{  c #8D8D8D",
"}  c #8E8E8E",
"|  c gray56",
" . c #909090",
".. c gray57",
"X. c #939393",
"o. c gray58",
"O. c #959595",
"+. c gray59",
"@. c #979797",
"#. c gray60",
"$. c #9B9B9B",
"%. c gray61",
"&. c gray62",
"*. c #A0A0A0",
"=. c gray63",
"-. c #A2A2A2",
";. c #A7A7A7",
":. c gray66",
">. c gray68",
",. c #AEAEAE",
"<. c #AFAFAF",
"1. c #B1B1B1",
"2. c #B2B2B2",
"3. c gray70",
"4. c #B4B4B4",
"5. c gray72",
"6. c gray73",
"7. c #BBBBBB",
"8. c #BCBCBC",
"9. c gray74",
"0. c gray75",
"q. c #C0C0C0",
"w. c gray76",
"e. c #C3C3C3",
"r. c gray77",
"t. c gray78",
"y. c #C8C8C8",
"u. c gray79",
"i. c #CACACA",
"p. c #CBCBCB",
"a. c gray80",
"s. c #CDCDCD",
"d. c #CECECE",
"f. c #D0D0D0",
"g. c gray82",
"h. c #D2D2D2",
"j. c #D5D5D5",
"k. c gray84",
"l. c #D7D7D7",
"z. c #D8D8D8",
"x. c gray85",
"c. c #DADADA",
"v. c gray86",
"b. c gainsboro",
"n. c gray87",
"m. c #E1E1E1",
"M. c #E2E2E2",
"N. c gray89",
"B. c #E4E4E4",
"V. c gray90",
"C. c #E6E6E6",
"Z. c gray91",
"A. c #EAEAEA",
"S. c gray92",
"D. c #ECECEC",
"F. c gray93",
"G. c #EEEEEE",
"H. c #EFEFEF",
"J. c gray94",
"K. c #F1F1F1",
"L. c gray95",
"P. c #F3F3F3",
"I. c #F4F4F4",
"U. c gray96",
"Y. c #F6F6F6",
"T. c gray97",
"R. c #F8F8F8",
"E. c #F9F9F9",
"W. c gray98",
"Q. c #FBFBFB",
"!. c gray99",
"~. c #FDFDFD",
"^. c #FEFEFE",
/* pixels */
"                                                                                                              ",
"                                                                                                              ",
"                                                                                                              ",
"                                                                                                              ",
"                                                                                                              ",
"                                                                                                              ",
"                              Z.l.w.w.w.w.w.w.w.w.w.w.w.w.w.w.w.w.w.w.w.w.w.y.m.                              ",
"                          Z.:.n a 9 9 9 9 9 9 9 9 9 9 9 9 9 9 9 9 9 9 9 9 9 9 f T v.                          ",
"                        Z.X.a * * * * & & & & & & & & & & * * * & & & * * * * * * x v.                        ",
"                      ^.0.x * * a n Z Z Z Z Z Z Z Z Z Z Z Z Z Z Z Z Z Z Z Z f * * & / ^.                      ",
"                      I.X.6 * K y.Z.Z.Z.Z.Z.Z.Z.Z.Z.Z.Z.Z.Z.Z.Z.Z.Z.Z.Z.Z.Z.v./ * * a Z.                      ",
"                      Z./ * 9 0.^.                                          ^.Z.a * * l.                      ",
"                      m.T * a l.                                                Z * * w.                      ",
"                      m.T * a l.                                                Z & * w.                      ",
"                      m.T * a l.        ^.I.I.I.I.I.I.I.I.I.I.I.I.I.I.          Z & * w.                      ",
"                      m.T * a l.      0.D x x x x x x x x x x x x x x $.^.      Z & * w.                      ",
"                      m.T * a l.      X.6 & & & & & & & & & & & & & o D I.      Z & * w.                      ",
"                      m.T * a l.      m.4.*.*.*.*.*.*.*.*.*.*.*.*.*.*.v.^.      Z & * w.                      ",
"                      m.T * a l.      ^.^.^.^.^.^.^.^.^.^.^.^.^.^.^.^.^.        Z & * w.                      ",
"                      m.T * a l.                                                Z & * w.                      ",
"                      m.T * a l.                                                Z & * w.                      ",
"                      m.T * a l.      Z.0.:.:.:.:.:.:.:.:.:.:.:.:.:.:.m.^.      Z & * w.                      ",
"                      m.T * a l.      } 6 o & & & & & & & & & & & & o D I.      Z & * w.                      ",
"                      m.T * a l.      4.n a f f f f f f f f f f f f a X.^.      Z & * w.                      ",
"                      m.T * a l.        I.I.I.I.I.I.I.I.I.I.I.I.I.I.I.          Z & * w.                      ",
"                      m.T * a l.                                                Z & * w.                      ",
"                      m.T * a l.                                                Z & * w.                      ",
"                      m.T * a l.                                                Z & * w.                      ",
"                      m.T * a l.                                                Z & * w.                      ",
"                      m.T * a l.                                  ^.^.^.        D & * w.                      ",
"                      m.T * a l.                              ^.I.m.l.v.Z.I.^.  l.n & w.                      ",
"                      m.T * a l.                          ^.I.4.D a 6 6 f / y.^.  Z.n 0.                      ",
"                      m.T * a l.                          m.K * & * * * * & 6 X.^.  v.l.                      ",
"                      m.T * a l.                        m.D * 6 x ) :.*./ a * & } ^.                          ",
"                      m.T * a l.                      ^.) * * / m.^.      y.n * * 0.                          ",
"                      m.T * a l.                      l.a * K Z.            l.a & Z ^.                        ",
"                      m.T * a l.                      $.6 6 y.^.              } & 6 v.                        ",
"                      m.T * a l.                      / * f Z.                w.* & 0.                        ",
"                      m.T * a l.                      T * n I.                l.6 & 4.                        ",
"                      m.T * a l.                      ) * a Z.                0.* * w.                        ",
"                      m.T * a l.                      4.9 * *.^.            I.K & a Z.                        ",
"                      m.T * a l.^.                    m.n * x y.I.        I.:.6 & / ^.                        ",
"                      Z.) 6 6 *.Z.^.^.^.^.^.^.^.^.^.    :.a * n 4.v.m.m.v.$.9 * * *.^.                        ",
"                      ^.*.a * f X.0.0.w.w.w.w.w.w.0.l.^.I.} 9 * 9 Z / T n * * * * x y.^.                      ",
"                        l.D * & * 6 9 9 9 9 9 9 9 9 Z l.^.I.X.x 9 * * * * 9 n a * * x y.^.                    ",
"                        ^.0.Z 9 6 6 * * * * * * * * * K l.^.^.y.} K Z Z T *.v.*.a * & x y.^.                  ",
"                          ^.l.} K D D D D D D D D D D Z $.Z.      I.Z.Z.^.    ^.*.9 * & x y.^.                ",
"                              ^.^.I.I.I.I.I.I.I.I.I.I.I.I.^.                    ^.0.n * * x m.                ",
"                                                                                  ^.w.n * x m.                ",
"                                                                                    ^.w.} :.^.                ",
"                                                                                        I.^.                  ",
"                                                                                                              ",
"                                                                                                              ",
"                                                                                                              ",
"                                                                                                              "
};
