/* XPM */
static char *search_replace[] = {
/* columns rows colors chars-per-pixel */
"55 55 211 2 ",
"   c #040404",
".  c gray2",
"X  c #0C0C0C",
"o  c gray5",
"O  c gray6",
"+  c gray7",
"@  c #181818",
"#  c #191919",
"$  c gray10",
"%  c #1B1B1B",
"&  c gray11",
"*  c #1D1D1D",
"=  c #1E1E1E",
"-  c gray12",
";  c #202020",
":  c gray13",
">  c #222222",
",  c #232323",
"<  c gray14",
"1  c #252525",
"2  c gray15",
"3  c #272727",
"4  c #282828",
"5  c gray16",
"6  c #2A2A2A",
"7  c gray17",
"8  c #2C2C2C",
"9  c #2D2D2D",
"0  c gray18",
"q  c #2F2F2F",
"w  c gray19",
"e  c #313131",
"r  c #323232",
"t  c gray20",
"y  c #343434",
"u  c #353535",
"i  c gray21",
"p  c #373737",
"a  c gray22",
"s  c #393939",
"d  c #3A3A3A",
"f  c gray23",
"g  c #3C3C3C",
"h  c #3E3E3E",
"j  c #3F3F3F",
"k  c gray25",
"l  c #414141",
"z  c gray26",
"x  c #434343",
"c  c #444444",
"v  c gray27",
"b  c #464646",
"n  c gray28",
"m  c #484848",
"M  c #494949",
"N  c gray29",
"B  c #4B4B4B",
"V  c #4C4C4C",
"C  c gray30",
"Z  c #4E4E4E",
"A  c gray31",
"S  c #515151",
"D  c gray32",
"F  c #535353",
"G  c gray33",
"H  c #555555",
"J  c #565656",
"K  c gray34",
"L  c gray35",
"P  c #5A5A5A",
"I  c #5B5B5B",
"U  c gray36",
"Y  c #5D5D5D",
"T  c #5F5F5F",
"R  c #606060",
"E  c gray38",
"W  c #626262",
"Q  c gray39",
"!  c #646464",
"~  c #656565",
"^  c gray40",
"/  c #676767",
"(  c #6A6A6A",
")  c gray42",
"_  c #6C6C6C",
"`  c #6D6D6D",
"'  c gray43",
"]  c #6F6F6F",
"[  c gray44",
"{  c #717171",
"}  c #727272",
"|  c gray45",
" . c #747474",
".. c gray46",
"X. c #767676",
"o. c #777777",
"O. c gray47",
"+. c #797979",
"@. c gray48",
"#. c #7B7B7B",
"$. c #7C7C7C",
"%. c gray49",
"&. c gray50",
"*. c #808080",
"=. c #818181",
"-. c gray51",
";. c #838383",
":. c gray52",
">. c #868686",
",. c #888888",
"<. c #898989",
"1. c gray54",
"2. c #8B8B8B",
"3. c gray55",
"4. c #8D8D8D",
"5. c #8E8E8E",
"6. c gray56",
"7. c #909090",
"8. c gray57",
"9. c #929292",
"0. c #939393",
"q. c gray58",
"w. c #959595",
"e. c gray59",
"r. c #979797",
"t. c #989898",
"y. c gray60",
"u. c #9A9A9A",
"i. c #9B9B9B",
"p. c gray61",
"a. c gray62",
"s. c #9F9F9F",
"d. c #A0A0A0",
"f. c gray63",
"g. c #A2A2A2",
"h. c #A4A4A4",
"j. c #A5A5A5",
"k. c gray65",
"l. c gray66",
"z. c #A9A9A9",
"x. c #AAAAAA",
"c. c gray68",
"v. c #AFAFAF",
"b. c #B2B2B2",
"n. c gray70",
"m. c #B4B4B4",
"M. c gray71",
"N. c #B6B6B6",
"B. c #B7B7B7",
"V. c gray72",
"C. c #B9B9B9",
"Z. c gray73",
"A. c #BCBCBC",
"S. c gray74",
"D. c gray",
"F. c #C0C0C0",
"G. c #C1C1C1",
"H. c gray76",
"J. c gray77",
"K. c #C5C5C5",
"L. c #C6C6C6",
"P. c gray78",
"I. c #C8C8C8",
"U. c #CACACA",
"Y. c #CBCBCB",
"T. c gray80",
"R. c #CECECE",
"E. c #D0D0D0",
"W. c #D2D2D2",
"Q. c LightGray",
"!. c #D5D5D5",
"~. c gray84",
"^. c #D7D7D7",
"/. c #D8D8D8",
"(. c gray85",
"). c #DADADA",
"_. c gray86",
"`. c gainsboro",
"'. c #DDDDDD",
"]. c gray87",
"[. c #DFDFDF",
"{. c gray88",
"}. c #E1E1E1",
"|. c gray89",
" X c #E4E4E4",
".X c gray90",
"XX c #E7E7E7",
"oX c gray91",
"OX c #E9E9E9",
"+X c #EAEAEA",
"@X c gray92",
"#X c #ECECEC",
"$X c gray93",
"%X c #EEEEEE",
"&X c #EFEFEF",
"*X c gray94",
"=X c #F1F1F1",
"-X c gray95",
";X c #F3F3F3",
":X c #F4F4F4",
">X c gray96",
",X c #F6F6F6",
"<X c gray97",
"1X c #F8F8F8",
"2X c #F9F9F9",
"3X c gray98",
"4X c #FBFBFB",
"5X c gray99",
"6X c #FDFDFD",
"7X c #FEFEFE",
"8X c white",
/* pixels */
"8X8X8X8X8X8X8X8X8X8X8X8X8X8X8X8X8X8X8X8X8X8X8X8X8X8X8X8X8X8X8X8X8X8X8X8X8X8X8X8X8X8X8X8X8X8X8X8X8X8X8X8X8X8X8X",
"8X8X8X8X8X8X8X8X8X8X8X8X8X8X8X8X8X8X8X8X8X8X8X8X8X8X8X8X8X8X8X8X8X8X8X8X8X8X8X8X8X8X8X8X8X8X8X8X8X8X8X8X8X8X8X",
"8X8X8X8X8X8X8X8X8X8X8X8X8X8X8X8X8X8X8X8X8X8X8X8X8X8X8X8X8X8X8X8X8X8X8X8X8X8X8X8X8X8X8X8X8X8X8X8X8X8X8X8X8X8X8X",
"8X8X8X8X8X8X8X8X8X8X8X8X8X8X8X8X8X8X8X8X8X8X8X8X8X8X8X8X8X8X8X8X8X8X8X8X8X8X8X8X8X8X8X8X8X8X8X8X8X8X8X8X8X8X8X",
"8X8X8X8X8X8X8X8X8X8X8X8X8X8X8X8X8X8X8X8X8X8X8X8X8X8X8X8X8X8X8X8X8X8X8X8X8X8X8X8X8X8X8X8X8X8X8X8X8X8X8X8X8X8X8X",
"8X8X8X8X8X8X8X8X8X8X8X8X8X8X8X8X8X8X8X8X8X8X8X8X8X8X8X8X8X8X8X8X8X8X8X8X8X8X8X8X8X8X8X8X8X8X8X8X8X8X8X8X8X8X8X",
"8X8X8X8X8X8X8X8X8X8X8X8X8X8X8X8X8X8X8X8X8X8X8X8X8X8X8X8X8X8X8X8X8X8X8X8X8X8X8X8X8X8X8X8X8X8X8X8X8X8X8X8X8X8X8X",
"8X8X8X8X8X8X8X8X8X8X8X8X8X8X8X8X8X8X8X8X8X8X8X8X8X8X8X8X8X8X8X8X8X8X8X8X8X8X8X8X8X8X8X8X8X8X8X8X8X8X8X8X8X8X8X",
"8X8X8X8X8X8X8X8X8X8X8X8X8X8X8X8X8X8X8X8X8X8X8X8X*XoX}.'.'.}.oX*X8X8X8X8X8X8X8X8X8X8X8X8X8X8X8X8X8X8X8X8X8X8X8X",
"8X8X8X8X8X8X8X8X8X8X8X8X8X8X8X8X8X8X8X8X*XW.v.7.o.Q Z z Z J ( -.s.S.'.8X8X8X8X8X8X8X8X8X8X8X8X8X8X8X8X8X8X8X8X",
"8X8X8X8X8X8X8X8X8X8X8X8X8X8X8X8X8X8X*XG.7.Q z 9 < < < < < < < 9 u Z o.f.W.8X8X8X8X8X8X8X8X8X8X8X8X8X8X8X8X8X8X",
"8X8X8X8X8X8X8X8X8X8X8X8X8X8X8X8X8XW.,.J 9 < - < 9 s z z z s u 9 < - < s Q f.}.8X8X8X8X8X8X8X8X8X8X8X8X8X8X8X8X",
"8X8X8X8X8X8X8X8X8X8X8X8X8X8X8X*XB.Q 9 < < u Z o.,.f.B.B.B.B.s.-.Q z 9 < < s +.U.8X8X8X8X8X8X8X8X8X8X8X8X8X8X8X",
"8X8X8X8X8X8X8X8X8X8X8X8X8X8XoXf.Z < < 9 P 7.S.'.*X8X8X8X8X8X8XoXW.v.+.z < < 9 Q G.8X8X8X8X8X8X8X8X8X8X8X8X8X8X",
"8X8X8X8X8X8X8X8X8X8X8X8X8XoX+.9 < < J v.}.8X8X8X8X8X8X8X8X8X8X8X8X8X*XW.7.s < < s f.8X8X8X8X8X8X8X8X8X8X8X8X8X",
"8X8X8X8X8X8X8X8X8X8X8X8X*X,.9 < < ( W.*X8X8X8X8X8X8X8X8X8X8X8X8X8X8X8X8XoXB.Z < < z U.8X8X8X8X8X8X8X8X8X8X8X8X",
"8X8X8X8X8X8X8X8X8X8X8X*Xv.u < 9 ( '.8X8X8X8X*XW.f.Z < < 9 o.S.oX8X8X8X8X8X*XG.Z - u G.8X8X8X8X8X8X8X8X8X8X8X8X",
"8X8X8X8X8X8X8X8X8X8X8XW.z < < Q '.8X8X8X8XG.( u < < < < < < < z 7.oX8X8X8X8X8XG.+.7.oX8X8X8X8X8X8X8X8X8X8X8X8X",
"8X8X8X8X8X8X8X8X8X8X*X-.< < z U.8X8X8XoX-.9 - < 9 s J P Z u < < - Z G.8X8X8X8X8X}.oX8X8X8X8X8X8X8X8X8X8X8X8X8X",
"8X8X8X8X8X8X8X8X8X8XU.s < 9 s.8X8X8X}.Q < < u +.S.oX*X8X*X'.f.J < - 9 v.8X8X8X8X8X8X8X8X8X8X8X8X8X8X8X8X8X8X8X",
"8X8X8X8X8X8X8X8X8X*X,.< < J }.8X8X*XQ < < P U.8X8X8X8X8X8X8X8X*Xs.u - 9 B.8X8X8X8X8X8X8X8X8X8X8X8X8X8X8X8X8X8X",
"8X8X8X8X8X8X8X8X8X}.Z < 9 7.8X8X8X,.< < ( oX8X8X8X8X8X8X8X8X8X8X8XS.u - s '.8X8X8X8X8X8X8X8X8X8X8X8X8X8X8X8X8X",
"8X8X8X8X8X8X8X8X8XB.< < z '.8X8XW.u < J oX8X8X8X8X8X8X8X8X8X8X8X8X8Xv.< - o.8X8X8X8X8X}.+.7.8X8X8X8X8X8X8X8X8X",
"8X8X8X8X8X8X8X8X*X,.- < ( 8X8X8Xo.< 9 G.8X8X8X8X8X8X8X8X8X8X8X8X8X8X8X( - 9 W.8X8X8X*X+.< u B.8X8X8X8X8X8X8X8X",
"8X8X8X8X8XU.s.s.7.Z < 9 P s.s.s.s - o.*X8X8X8X8X8X8X8X8X8X8X8X8X8X8X8XW.9 - ,.8X8X8Xv.9 < < P '.8X8X8X8X8X8X8X",
"8X8X8X8X*XZ 9 9 9 < < < 9 9 9 9 - < B.8X8X8X8X8X8X8X8X8X8X8X8X8X8X8X8X8XJ - J 8X8XW.z < < < 9 -.*X8X8X8X8X8X8X",
"8X8X8X8X8Xf.< < < < < < < < < 9 < u '.8X8X8X8X8X8X8X8X8X8X8X8X8X8X8X8X8X-.- s oXoXo.< < < < < s v.8X8X8X8X8X8X",
"8X8X8X8X8XoX+.- < < < < < < u J < s oX8X8X8X8X8X8X8X8X8X8X8X8X8X8X8X8X8Xs.- u '.f.9 < < < < < < J W.8X8X8X8X8X",
"8X8X8X8X8X8XW.Z < < < < < 9 +.o.< s }.8X8X8X8X8X8X8X8X8X8X8X8X8X8X8X8X8Xs.- 9 B.s < < < < < < < 9 o.*X8X8X8X8X",
"8X8X8X8X8X8X8XB.9 < < < < J }.7.< u '.8X8X8X8X8X8X8X8X8X8X8X8X8X8X8X8X8X-.- u +.- - < < < < < - - s U.8X8X8X8X",
"8X8X8X8X8X8X8X*X,.< < < s G.8XU.9 < B.8X8X8X8X8X8X8X8X8X8X8X8X8X8X8X8X8XP - J S.( ( Q u < 9 J ( ( ,.oX8X8X8X8X",
"8X8X8X8X8X8X8X8X}.P - 9 7.8X8XoXs - +.*X8X8X8X8X8X8X8X8X8X8X8X8X8X8X8XW.9 - -.8X*X*X}.z < u S.*X*X8X8X8X8X8X8X",
"8X8X8X8X8X8X8X8X8XU.Z o.*X8X8X8X( < u W.8X8X8X8X8X8X8X8X8X8X8X8X8X8X8X+.- 9 U.8X8X8XG.9 < z }.8X8X8X8X8X8X8X8X",
"8X8X8X8X8X8X8X8X8X8X*X*X8X8X8X8XG.u - ( oX8X8X8X8X8X8X8X8X8X8X8X8X8XG.9 - Q 8X8X8X*X-.- < Q 8X8X8X8X8X8X8X8X8X",
"8X8X8X8X8X8X8X8X8X8X8X8X8X8X8X8X8X+.< < ,.oX8X8X8X8X8X8X8X8X8X8X8XW.z < u U.8X8X8X'.s < 9 s.8X8X8X8X8X8X8X8X8X",
"8X8X8X8X8X8X8X8X8X8X8X8X8X8X8X8X8X}.J < < +.'.*X8X8X8X8X8X8X8X*XS.z < < z '.8X8X*X,.- < z }.8X8X8X8X8X8X8X8X8X",
"8X8X8X8X8X8X8X8X8X8X8X8X8X8X8X8X8X8XW.J < < Z s.'.oXoX*X*XoXG.o.9 < < < < J '.8XG.u < 9 ,.8X8X8X8X8X8X8X8X8X8X",
"8X8X8X8X8X8X8X8X8X8X8X8X8X*XS.G.8X8X8X}.+.s < < u J ( ( Q z < < 9 J J < < - Z B.J < < Z }.8X8X8X8X8X8X8X8X8X8X",
"8X8X8X8X8X8X8X8X8X8X8X8X*X7.- 9 s.8X8X8X*Xv.Q z u < < < < 9 u Z -.'.W.P < < - - - < u S.8X8X8X8X8X8X8X8X8X8X8X",
"8X8X8X8X8X8X8X8X8X8X8X8X*X-.- < 9 7.8X8X8X8XoXS.7.o.Q Q ( -.f.'.8X8X8XW.P < O   O < ,.8X8X8X8X8X8X8X8X8X8X8X8X",
"8X8X8X8X8X8X8X8X8X8X8X8X8XW.Z - < < o.}.8X8X8X8X8X8X*X*X*X8X8X8X8X8X8X8Xf.-       9 U.8X8X8X8X8X8X8X8X8X8X8X8X",
"8X8X8X8X8X8X8X8X8X8X8X8X8X8XW.Z - < < z v.*X8X8X8X8X8X8X8X8X8X8X8X8X'.-.9 - O   + < P W.8X8X8X8X8X8X8X8X8X8X8X",
"8X8X8X8X8X8X8X8X8X8X8X8X8X8X8X'.P - < < < Z 7.W.*X8X8X8X8X8X8XoXS.o.u - < < < u < < < P oX8X8X8X8X8X8X8X8X8X8X",
"8X8X8X8X8X8X8X8X8X8X8X8X8X8X8X8X*X,.u - < < - 9 z Q +.-.-.o.P s < - < < < Z S.W.P < < < G.8X8X8X8X8X8X8X8X8X8X",
"8X8X8X8X8X8X8X8X8X8X8X8X8X8X8X8X8X8XW.o.9 - < < < - - - - - < < < - - z 7.oX8X8XW.J 9 z '.8X8X8X8X8X8X8X8X8X8X",
"8X8X8X8X8X8X8X8X8X8X8X8X8X8X8X8X8X8X8X8XW.,.Z 9 < < < < < < < < u Q v.oX8X8X8X8X8XoXS.'.8X8X8X8X8X8X8X8X8X8X8X",
"8X8X8X8X8X8X8X8X8X8X8X8X8X8X8X8X8X8X8X8X8X8X8X}.S.,.Q J J o.s.U.oX8X8X8X8X8X8X8X8X8X8X8X8X8X8X8X8X8X8X8X8X8X8X",
"8X8X8X8X8X8X8X8X8X8X8X8X8X8X8X8X8X8X8X8X8X8X8X8X8X8X8X8X8X8X8X8X8X8X8X8X8X8X8X8X8X8X8X8X8X8X8X8X8X8X8X8X8X8X8X",
"8X8X8X8X8X8X8X8X8X8X8X8X8X8X8X8X8X8X8X8X8X8X8X8X8X8X8X8X8X8X8X8X8X8X8X8X8X8X8X8X8X8X8X8X8X8X8X8X8X8X8X8X8X8X8X",
"8X8X8X8X8X8X8X8X8X8X8X8X8X8X8X8X8X8X8X8X8X8X8X8X8X8X8X8X8X8X8X8X8X8X8X8X8X8X8X8X8X8X8X8X8X8X8X8X8X8X8X8X8X8X8X",
"8X8X8X8X8X8X8X8X8X8X8X8X8X8X8X8X8X8X8X8X8X8X8X8X8X8X8X8X8X8X8X8X8X8X8X8X8X8X8X8X8X8X8X8X8X8X8X8X8X8X8X8X8X8X8X",
"8X8X8X8X8X8X8X8X8X8X8X8X8X8X8X8X8X8X8X8X8X8X8X8X8X8X8X8X8X8X8X8X8X8X8X8X8X8X8X8X8X8X8X8X8X8X8X8X8X8X8X8X8X8X8X",
"8X8X8X8X8X8X8X8X8X8X8X8X8X8X8X8X8X8X8X8X8X8X8X8X8X8X8X8X8X8X8X8X8X8X8X8X8X8X8X8X8X8X8X8X8X8X8X8X8X8X8X8X8X8X8X",
"8X8X8X8X8X8X8X8X8X8X8X8X8X8X8X8X8X8X8X8X8X8X8X8X8X8X8X8X8X8X8X8X8X8X8X8X8X8X8X8X8X8X8X8X8X8X8X8X8X8X8X8X8X8X8X",
"8X8X8X8X8X8X8X8X8X8X8X8X8X8X8X8X8X8X8X8X8X8X8X8X8X8X8X8X8X8X8X8X8X8X8X8X8X8X8X8X8X8X8X8X8X8X8X8X8X8X8X8X8X8X8X"
};
