/* XPM */
static char *search_replace_dark[] = {
/* columns rows colors chars-per-pixel */
"55 55 33 1 ",
"  c None",
". c #010101",
"X c gray6",
"o c gray9",
"O c #1E1E1E",
"+ c #222222",
"@ c #2D2D2D",
"# c #353535",
"$ c #3E3E3E",
"% c gray26",
"& c #484848",
"* c #505050",
"= c gray37",
"- c #606060",
"; c gray43",
": c #777777",
"> c gray49",
", c #868686",
"< c #888888",
"1 c #959595",
"2 c gray61",
"3 c #A5A5A5",
"4 c #A9A9A9",
"5 c #B1B1B1",
"6 c gray74",
"7 c #C6C6C6",
"8 c #CACACA",
"9 c #D2D2D2",
"0 c gray86",
"q c gray88",
"w c gray93",
"e c gray94",
"r c #FBFBFB",
/* pixels */
"                                                       ",
"                                                       ",
"                                                       ",
"                                                       ",
"                                                       ",
"                                                       ",
"                                                       ",
"                                                       ",
"                       .XoO++OoX.                      ",
"                   .X@*;<256541>-%+.                   ",
"                 .X$;2690000000985<=@.                 ",
"                .@:490q0976667890q072*O                ",
"               X&290085<:=&&&&->269007,#.              ",
"             .o=50093;%+X.    .o@*,60092$.             ",
"            .o,9004*O.           .X@;7007=.            ",
"            X:9001@X    ......     .o&5006#            ",
"           X*8091+.  .X@=5009<%o.    X$5q8$            ",
"          .@5002+.  .$1800000006;o.   .$,;o            ",
"          X>006#. .o>9q097435800q5$.   .Oo             ",
"         .#709-.  O2008,%oX.X+=40q9*.                  ",
"         X:004O  X2003#.       X-8q9&.                 ",
"        .O509;. .:001o           %8q7+                 ",
"        .&006+  @804o             *0q<.   .O,;.        ",
"        X:q01. .<09$.              1q9@   X,08&        ",
"    .#--;5093---7q<X               @9q:  .*9003+       ",
"    X59990009999q0&.               .4q4..@60009>X      ",
"    .=000000000908+.                >q7oo<000007*      ",
"     o,q0000008407o                 -q8+=90000004@     ",
"     .@5000009,<07o                 -q9&700000009<X    ",
"      .&900004O;08+.                >q8,qq00000qq7#    ",
"       X:0007$.#90&.               .3q4%112809411:o    ",
"       .O3q9;. o7q<X               @9q>.XXO608%XX..    ",
"        .#5<X  .108@.             .,q9#  .$906O        ",
"         .XX    $8q1o            .$9q2.  X>q02.        ",
"                .,00:o          .@608#  .+709-         ",
"                 O400,+X.     .X%6006+. X:006O         ",
"                  @4005-+ooXXo$<900004+.$809:.         ",
"             X%$   O,7008411260094400q5&4005O          ",
"            X;q9-   X*2680000985>+@300qqq08%           ",
"            X>q09;.   o%;<221>=+   @30ere0:            ",
"            .@5q00<O     .XXX      .=qrrr9#.           ",
"             .@5q006*X           .+>9qerw03@.          ",
"              .+3q0005;@X     .o%<8q00080003o          ",
"                X:8q00q962,>><370q0005%@3000$          ",
"                 .@<9q000qqqqq000q06;o  @496+          ",
"                   .@:590000000082*o     o%+.          ",
"                      .O%:244<-#o                      ",
"                                                       ",
"                                                       ",
"                                                       ",
"                                                       ",
"                                                       ",
"                                                       ",
"                                                       ",
"                                                       "
};
