/* XPM */
static char *search_dark[] = {
/* columns rows colors chars-per-pixel */
"55 55 30 1 ",
"  c None",
". c #020202",
"X c gray3",
"o c gray8",
"O c #191919",
"+ c #202020",
"@ c gray17",
"# c #343434",
"$ c #3F3F3F",
"% c gray27",
"& c gray30",
"* c #515151",
"= c #5F5F5F",
"- c #646464",
"; c #686868",
": c #777777",
"> c gray50",
", c #808080",
"< c gray54",
"1 c #939393",
"2 c #9B9B9B",
"3 c gray64",
"4 c gray68",
"5 c #B1B1B1",
"6 c gray72",
"7 c gray78",
"8 c #C8C8C8",
"9 c #D0D0D0",
"0 c #DDDDDD",
"q c gray88",
/* pixels */
"                                                       ",
"                                                       ",
"                                                       ",
"                                                       ",
"                                                       ",
"                                                       ",
"                                                       ",
"                                                       ",
"                                                       ",
"                    ..XXXXXX..                         ",
"                  .o@*290004-#o.                       ",
"                .X%<70000000093*o.                     ",
"               .@<9q0099999900002#X                    ",
"              X%6q0085<;**->3890q8=X                   ",
"             .&80092&o.     X$<8000;X                  ",
"            .$8007-X          .&6000=.                 ",
"            O5007%.             @5008#                 ",
"           .,008%.               @60q3X                ",
"           @800;.                 &900&                ",
"          .>0q4o                  .10q3.               ",
"          X600=.                   $009+               ",
"          @908+.                   X50q*               ",
"          =003X                     ,qq>               ",
"          <0q<X                     -q02               ",
"          30q:.                     *q03               ",
"          20q>.                     =qq3               ",
"          >0q1X                     :qq<               ",
"          &905o                    .2qq;               ",
"          +809$.                   O700%               ",
"          .300>X                   =006o               ",
"           =907#.                 O500>                ",
"           O5001O.               X:008@                ",
"            =900:o.             X=900:.                ",
"            X<909:+.          .O=8008+                 ",
"             O29001$O.      .o@,90009:o                ",
"              @29007,&@+OOO+$:50000000:o               ",
"               +,7000952,,1480q08480000:o              ",
"                X=38900qqqqq0984-+>90000:o             ",
"                  O=1578888762;+  X>90000:o            ",
"                    X@&-;;-*#o     X>90000:o           ",
"                                    X>90000:o          ",
"                                     X>90000:o         ",
"                                      X>90000;X        ",
"                                       X>90009#        ",
"                                        X>9000&        ",
"                                         X>894O        ",
"                                          .$&O         ",
"                                                       ",
"                                                       ",
"                                                       ",
"                                                       ",
"                                                       ",
"                                                       ",
"                                                       ",
"                                                       "
};
