/* XPM */
static char *share_dark[] = {
/* columns rows colors chars-per-pixel */
"55 55 30 1 ",
"  c None",
". c #010101",
"X c gray6",
"o c gray9",
"O c #1D1D1D",
"+ c gray15",
"@ c gray17",
"# c #373737",
"$ c #393939",
"% c gray27",
"& c #4E4E4E",
"* c #515151",
"= c #5F5F5F",
"- c #606060",
"; c #686868",
": c #777777",
"> c gray49",
", c gray53",
"< c #8D8D8D",
"1 c #909090",
"2 c gray60",
"3 c gray63",
"4 c gray67",
"5 c gray70",
"6 c gray74",
"7 c #C0C0C0",
"8 c #CBCBCB",
"9 c gray82",
"0 c gray85",
"q c #E1E1E1",
/* pixels */
"                                                       ",
"                                                       ",
"                                                       ",
"                                                       ",
"                                                       ",
"                         .X+O.                         ",
"                        .o=41#.                        ",
"                       .o;8q03#.                       ",
"                      .o=800003@.                      ",
"                     .o-8090990<@.                     ",
"                    .O;9043082791#.                    ",
"                   .O;904%>q7*-991#.                   ",
"                   X-005%O,q7&o<901+                   ",
"                   o<95% O<q7& @<84$                   ",
"                   .$>%  O<q7&  @;*o                   ",
"                         O<q7&                         ",
"                .......  O<q7&  .......                ",
"             X+@$$$$$$#. O<q7& .+$$$%%$#+X.            ",
"            X&168888883X O<q7& X-78888862=O.           ",
"           .=9q00000004X O<q7& X;9000000q9:X           ",
"           +7007322222>X O<q7& .&1222236908#.          ",
"           ;006&OoXXXXX. O<q7& .XXXXXXo%490:X          ",
"           600:          O<q7&          -805X          ",
"           900&          O<q7&          %709X          ",
"           000&          O<q7&          $609X          ",
"           000&          O<q7&          $609o          ",
"           000&          O<q7&          $609o          ",
"           000&          O<q7&          $609o          ",
"           000&          O<q7&          %709o          ",
"           000&          O<q7&          %709o          ",
"           000&          O<q7&          $609o          ",
"           000&          o>06%          $709o          ",
"           000&          X$,;O          $609o          ",
"           000&           .oo           $609o          ",
"           000&                         $609o          ",
"           000&                         $609o          ",
"           000&                         $609X          ",
"           000&                         $609o          ",
"           000&                         $609X          ",
"           000&                         %609X          ",
"           000&                         %609o          ",
"           900*                         %709X          ",
"           600:                         -806X          ",
"           :005%OoooooooooooooooooooooO$390>X          ",
"           @7005<,,,,,,,,,,,,,,,,,,,,,<4908$.          ",
"           .;80000000000000000000000000009>o           ",
"            o-267777777777777777777777763;+.           ",
"             X@&***===*****************&#X.            ",
"                 .....................                 ",
"                                                       ",
"                                                       ",
"                                                       ",
"                                                       ",
"                                                       ",
"                                                       "
};
