/* XPM */
static char *share[] = {
/* columns rows colors chars-per-pixel */
"55 55 162 2 ",
"   c gray11",
".  c #1D1D1D",
"X  c #1E1E1E",
"o  c gray12",
"O  c #202020",
"+  c gray13",
"@  c #222222",
"#  c #232323",
"$  c gray14",
"%  c #252525",
"&  c gray15",
"*  c #272727",
"=  c #282828",
"-  c gray16",
";  c #2A2A2A",
":  c gray17",
">  c #2C2C2C",
",  c #2D2D2D",
"<  c gray18",
"1  c #2F2F2F",
"2  c gray19",
"3  c #323232",
"4  c #343434",
"5  c #353535",
"6  c gray21",
"7  c #373737",
"8  c gray22",
"9  c #393939",
"0  c #3A3A3A",
"q  c gray23",
"w  c #3C3C3C",
"e  c #3F3F3F",
"r  c gray25",
"t  c #414141",
"y  c gray26",
"u  c #434343",
"i  c #444444",
"p  c gray27",
"a  c #464646",
"s  c #484848",
"d  c gray29",
"f  c #4C4C4C",
"g  c gray30",
"h  c #4E4E4E",
"j  c gray32",
"k  c gray33",
"l  c #555555",
"z  c gray34",
"x  c #585858",
"c  c gray36",
"v  c #5D5D5D",
"b  c gray37",
"n  c #606060",
"m  c #626262",
"M  c #656565",
"N  c gray40",
"B  c #686868",
"V  c DimGray",
"C  c gray42",
"Z  c #6C6C6C",
"A  c gray43",
"S  c #6F6F6F",
"D  c #727272",
"F  c #747474",
"G  c gray46",
"H  c #767676",
"J  c #777777",
"K  c gray47",
"L  c #7C7C7C",
"P  c #7E7E7E",
"I  c #808080",
"U  c gray51",
"Y  c #838383",
"T  c gray52",
"R  c #888888",
"E  c #898989",
"W  c gray54",
"Q  c #8B8B8B",
"!  c gray55",
"~  c #909090",
"^  c gray57",
"/  c #939393",
"(  c gray59",
")  c #979797",
"_  c #989898",
"`  c #9A9A9A",
"'  c #9B9B9B",
"]  c gray61",
"[  c #9D9D9D",
"{  c #9F9F9F",
"}  c #A0A0A0",
"|  c gray63",
" . c #A5A5A5",
".. c gray66",
"X. c #AAAAAA",
"o. c gray67",
"O. c #ACACAC",
"+. c #AEAEAE",
"@. c #AFAFAF",
"#. c gray69",
"$. c #B1B1B1",
"%. c gray70",
"&. c #B4B4B4",
"*. c gray71",
"=. c #B7B7B7",
"-. c #B9B9B9",
";. c gray73",
":. c #BBBBBB",
">. c #BCBCBC",
",. c gray74",
"<. c gray",
"1. c #C0C0C0",
"2. c gray76",
"3. c #C3C3C3",
"4. c #C5C5C5",
"5. c #C6C6C6",
"6. c #C8C8C8",
"7. c #CACACA",
"8. c gray80",
"9. c #CDCDCD",
"0. c #CECECE",
"q. c #D0D0D0",
"w. c gray82",
"e. c #D2D2D2",
"r. c gray83",
"t. c #D5D5D5",
"y. c gray84",
"u. c #D7D7D7",
"i. c #D8D8D8",
"p. c gray85",
"a. c gray86",
"s. c #DDDDDD",
"d. c gray87",
"f. c #DFDFDF",
"g. c gray88",
"h. c #E2E2E2",
"j. c gray89",
"k. c #E4E4E4",
"l. c gray90",
"z. c #E7E7E7",
"x. c gray91",
"c. c #E9E9E9",
"v. c #EAEAEA",
"b. c #ECECEC",
"n. c gray93",
"m. c #EEEEEE",
"M. c #EFEFEF",
"N. c gray94",
"B. c #F1F1F1",
"V. c gray95",
"C. c #F4F4F4",
"Z. c gray96",
"A. c #F6F6F6",
"S. c gray97",
"D. c #F8F8F8",
"F. c #F9F9F9",
"G. c gray98",
"H. c #FBFBFB",
"J. c gray99",
"K. c #FDFDFD",
"L. c #FEFEFE",
"P. c white",
/* pixels */
"P.P.P.P.P.P.P.P.P.P.P.P.P.P.P.P.P.P.P.P.P.P.P.P.P.P.P.P.P.P.P.P.P.P.P.P.P.P.P.P.P.P.P.P.P.P.P.P.P.P.P.P.P.P.P.",
"P.P.P.P.P.P.P.P.P.P.P.P.P.P.P.P.P.P.P.P.P.P.P.P.P.P.P.P.P.P.P.P.P.P.P.P.P.P.P.P.P.P.P.P.P.P.P.P.P.P.P.P.P.P.P.",
"P.P.P.P.P.P.P.P.P.P.P.P.P.P.P.P.P.P.P.P.P.P.P.P.P.P.P.P.P.P.P.P.P.P.P.P.P.P.P.P.P.P.P.P.P.P.P.P.P.P.P.P.P.P.P.",
"P.P.P.P.P.P.P.P.P.P.P.P.P.P.P.P.P.P.P.P.P.P.P.P.P.P.P.P.P.P.P.P.P.P.P.P.P.P.P.P.P.P.P.P.P.P.P.P.P.P.P.P.P.P.P.",
"P.P.P.P.P.P.P.P.P.P.P.P.P.P.P.P.P.P.P.P.P.P.P.P.P.P.P.P.P.P.P.P.P.P.P.P.P.P.P.P.P.P.P.P.P.P.P.P.P.P.P.P.P.P.P.",
"P.P.P.P.P.P.P.P.P.P.P.P.P.P.P.P.P.P.P.P.P.P.P.P.P.P.N.p.h.P.P.P.P.P.P.P.P.P.P.P.P.P.P.P.P.P.P.P.P.P.P.P.P.P.P.",
"P.P.P.P.P.P.P.P.P.P.P.P.P.P.P.P.P.P.P.P.P.P.P.P.P.x.} k S 6.P.P.P.P.P.P.P.P.P.P.P.P.P.P.P.P.P.P.P.P.P.P.P.P.P.",
"P.P.P.P.P.P.P.P.P.P.P.P.P.P.P.P.P.P.P.P.P.P.P.P.x.) 4 X & b 6.P.P.P.P.P.P.P.P.P.P.P.P.P.P.P.P.P.P.P.P.P.P.P.P.",
"P.P.P.P.P.P.P.P.P.P.P.P.P.P.P.P.P.P.P.P.P.P.P.x.} 4 & & & & b r.P.P.P.P.P.P.P.P.P.P.P.P.P.P.P.P.P.P.P.P.P.P.P.",
"P.P.P.P.P.P.P.P.P.P.P.P.P.P.P.P.P.P.P.P.P.P.x.{ 4 & < & < < & D r.P.P.P.P.P.P.P.P.P.P.P.P.P.P.P.P.P.P.P.P.P.P.",
"P.P.P.P.P.P.P.P.P.P.P.P.P.P.P.P.P.P.P.P.P.h.) < & k b & 4 N e < S 6.P.P.P.P.P.P.P.P.P.P.P.P.P.P.P.P.P.P.P.P.P.",
"P.P.P.P.P.P.P.P.P.P.P.P.P.P.P.P.P.P.P.P.h.) < & k ;.U X e +.{ < < S 6.P.P.P.P.P.P.P.P.P.P.P.P.P.P.P.P.P.P.P.P.",
"P.P.P.P.P.P.P.P.P.P.P.P.P.P.P.P.P.P.P.N.{ & & f ;.h.K X e $.x.D < & S p.P.P.P.P.P.P.P.P.P.P.P.P.P.P.P.P.P.P.P.",
"P.P.P.P.P.P.P.P.P.P.P.P.P.P.P.P.P.P.P.x.D < f ;.P.h.D X e $.P.r.D 4 k 5.P.P.P.P.P.P.P.P.P.P.P.P.P.P.P.P.P.P.P.",
"P.P.P.P.P.P.P.P.P.P.P.P.P.P.P.P.P.P.P.P.5.U ;.P.P.h.D X e $.P.P.r.) +.x.P.P.P.P.P.P.P.P.P.P.P.P.P.P.P.P.P.P.P.",
"P.P.P.P.P.P.P.P.P.P.P.P.P.P.P.P.P.P.P.P.P.P.P.P.P.h.D X e $.P.P.P.P.P.P.P.P.P.P.P.P.P.P.P.P.P.P.P.P.P.P.P.P.P.",
"P.P.P.P.P.P.P.P.P.P.P.P.P.P.P.P.P.P.P.P.P.P.P.P.P.h.D X e $.P.P.P.P.P.P.P.P.P.P.P.P.P.P.P.P.P.P.P.P.P.P.P.P.P.",
"P.P.P.P.P.P.P.P.P.P.P.P.P.N.p.r.5.5.5.5.5.5.6.P.P.h.D X e $.P.P.p.5.5.5.;.;.5.6.p.N.P.P.P.P.P.P.P.P.P.P.P.P.P.",
"P.P.P.P.P.P.P.P.P.P.P.P.N.$.S y 4 4 4 4 4 4 b N.P.h.D X e $.P.N.{ e 4 4 4 4 4 y N } h.P.P.P.P.P.P.P.P.P.P.P.P.",
"P.P.P.P.P.P.P.P.P.P.P.P.} < X & & & & & & & k N.P.h.D X e $.P.N.) < & & & & & & X < R N.P.P.P.P.P.P.P.P.P.P.P.",
"P.P.P.P.P.P.P.P.P.P.P.p.e & & e b N N N N N U N.P.h.D X e $.P.P.$.S N N N N b y < & 4 6.P.P.P.P.P.P.P.P.P.P.P.",
"P.P.P.P.P.P.P.P.P.P.P.) & & y $.h.x.N.N.N.N.N.P.P.h.D X e $.P.P.N.N.N.N.N.N.x.;.k < & R N.P.P.P.P.P.P.P.P.P.P.",
"P.P.P.P.P.P.P.P.P.P.P.y & & R P.P.P.P.P.P.P.P.P.P.h.D X e $.P.P.P.P.P.P.P.P.P.P.{ 4 & f N.P.P.P.P.P.P.P.P.P.P.",
"P.P.P.P.P.P.P.P.P.P.P.< & & $.P.P.P.P.P.P.P.P.P.P.h.D X e $.P.P.P.P.P.P.P.P.P.P.;.e & < N.P.P.P.P.P.P.P.P.P.P.",
"P.P.P.P.P.P.P.P.P.P.P.& & & $.P.P.P.P.P.P.P.P.P.P.h.D X e $.P.P.P.P.P.P.P.P.P.P.5.y & < x.P.P.P.P.P.P.P.P.P.P.",
"P.P.P.P.P.P.P.P.P.P.P.& & & $.P.P.P.P.P.P.P.P.P.P.h.D X e $.P.P.P.P.P.P.P.P.P.P.5.y & < x.P.P.P.P.P.P.P.P.P.P.",
"P.P.P.P.P.P.P.P.P.P.P.& & & $.P.P.P.P.P.P.P.P.P.P.h.D X e $.P.P.P.P.P.P.P.P.P.P.5.y & < x.P.P.P.P.P.P.P.P.P.P.",
"P.P.P.P.P.P.P.P.P.P.P.& & & $.P.P.P.P.P.P.P.P.P.P.h.D X e $.P.P.P.P.P.P.P.P.P.P.5.y & < x.P.P.P.P.P.P.P.P.P.P.",
"P.P.P.P.P.P.P.P.P.P.P.& & & $.P.P.P.P.P.P.P.P.P.P.h.D X e $.P.P.P.P.P.P.P.P.P.P.;.e & < x.P.P.P.P.P.P.P.P.P.P.",
"P.P.P.P.P.P.P.P.P.P.P.& & & $.P.P.P.P.P.P.P.P.P.P.h.D X e $.P.P.P.P.P.P.P.P.P.P.;.e & < x.P.P.P.P.P.P.P.P.P.P.",
"P.P.P.P.P.P.P.P.P.P.P.& & & $.P.P.P.P.P.P.P.P.P.P.h.D X e $.P.P.P.P.P.P.P.P.P.P.5.y & < x.P.P.P.P.P.P.P.P.P.P.",
"P.P.P.P.P.P.P.P.P.P.P.& & & $.P.P.P.P.P.P.P.P.P.P.x.U & y ;.P.P.P.P.P.P.P.P.P.P.5.e & < x.P.P.P.P.P.P.P.P.P.P.",
"P.P.P.P.P.P.P.P.P.P.P.& & & $.P.P.P.P.P.P.P.P.P.P.N.5.K ) h.P.P.P.P.P.P.P.P.P.P.5.y & < x.P.P.P.P.P.P.P.P.P.P.",
"P.P.P.P.P.P.P.P.P.P.P.& & & $.P.P.P.P.P.P.P.P.P.P.P.P.x.x.P.P.P.P.P.P.P.P.P.P.P.5.y & < x.P.P.P.P.P.P.P.P.P.P.",
"P.P.P.P.P.P.P.P.P.P.P.& & & $.P.P.P.P.P.P.P.P.P.P.P.P.P.P.P.P.P.P.P.P.P.P.P.P.P.5.y & < x.P.P.P.P.P.P.P.P.P.P.",
"P.P.P.P.P.P.P.P.P.P.P.& & & $.P.P.P.P.P.P.P.P.P.P.P.P.P.P.P.P.P.P.P.P.P.P.P.P.P.5.y & < x.P.P.P.P.P.P.P.P.P.P.",
"P.P.P.P.P.P.P.P.P.P.P.& & & $.P.P.P.P.P.P.P.P.P.P.P.P.P.P.P.P.P.P.P.P.P.P.P.P.P.5.y & < N.P.P.P.P.P.P.P.P.P.P.",
"P.P.P.P.P.P.P.P.P.P.P.& & & $.P.P.P.P.P.P.P.P.P.P.P.P.P.P.P.P.P.P.P.P.P.P.P.P.P.5.y & < x.P.P.P.P.P.P.P.P.P.P.",
"P.P.P.P.P.P.P.P.P.P.P.& & & $.P.P.P.P.P.P.P.P.P.P.P.P.P.P.P.P.P.P.P.P.P.P.P.P.P.5.y & < N.P.P.P.P.P.P.P.P.P.P.",
"P.P.P.P.P.P.P.P.P.P.P.& & & $.P.P.P.P.P.P.P.P.P.P.P.P.P.P.P.P.P.P.P.P.P.P.P.P.P.;.e & < N.P.P.P.P.P.P.P.P.P.P.",
"P.P.P.P.P.P.P.P.P.P.P.& & & $.P.P.P.P.P.P.P.P.P.P.P.P.P.P.P.P.P.P.P.P.P.P.P.P.P.;.y & < x.P.P.P.P.P.P.P.P.P.P.",
"P.P.P.P.P.P.P.P.P.P.P.< & & +.P.P.P.P.P.P.P.P.P.P.P.P.P.P.P.P.P.P.P.P.P.P.P.P.P.;.e & < N.P.P.P.P.P.P.P.P.P.P.",
"P.P.P.P.P.P.P.P.P.P.P.y & & R P.P.P.P.P.P.P.P.P.P.P.P.P.P.P.P.P.P.P.P.P.P.P.P.P.{ 4 & y N.P.P.P.P.P.P.P.P.P.P.",
"P.P.P.P.P.P.P.P.P.P.P.R & & f ;.h.x.x.x.x.x.x.x.x.x.x.x.x.x.x.x.x.x.x.x.x.x.h.5.b < & U N.P.P.P.P.P.P.P.P.P.P.",
"P.P.P.P.P.P.P.P.P.P.P.r.e & & f D K K K K K K K K K K K K K K K K K K K K K D k < & 4 5.P.P.P.P.P.P.P.P.P.P.P.",
"P.P.P.P.P.P.P.P.P.P.P.P.) 4 & & & & & & & & & & & & & & & & & & & & & & & & & & & < U x.P.P.P.P.P.P.P.P.P.P.P.",
"P.P.P.P.P.P.P.P.P.P.P.P.x.{ N y e e e e e e e e e e e e e e e e e e e e e e e y b ) p.P.P.P.P.P.P.P.P.P.P.P.P.",
"P.P.P.P.P.P.P.P.P.P.P.P.P.N.r.$.+.+.+.} } } +.+.+.+.+.+.+.+.+.+.+.+.+.+.+.+.+.$.6.N.P.P.P.P.P.P.P.P.P.P.P.P.P.",
"P.P.P.P.P.P.P.P.P.P.P.P.P.P.P.P.P.P.P.P.P.P.P.P.P.P.P.P.P.P.P.P.P.P.P.P.P.P.P.P.P.P.P.P.P.P.P.P.P.P.P.P.P.P.P.",
"P.P.P.P.P.P.P.P.P.P.P.P.P.P.P.P.P.P.P.P.P.P.P.P.P.P.P.P.P.P.P.P.P.P.P.P.P.P.P.P.P.P.P.P.P.P.P.P.P.P.P.P.P.P.P.",
"P.P.P.P.P.P.P.P.P.P.P.P.P.P.P.P.P.P.P.P.P.P.P.P.P.P.P.P.P.P.P.P.P.P.P.P.P.P.P.P.P.P.P.P.P.P.P.P.P.P.P.P.P.P.P.",
"P.P.P.P.P.P.P.P.P.P.P.P.P.P.P.P.P.P.P.P.P.P.P.P.P.P.P.P.P.P.P.P.P.P.P.P.P.P.P.P.P.P.P.P.P.P.P.P.P.P.P.P.P.P.P.",
"P.P.P.P.P.P.P.P.P.P.P.P.P.P.P.P.P.P.P.P.P.P.P.P.P.P.P.P.P.P.P.P.P.P.P.P.P.P.P.P.P.P.P.P.P.P.P.P.P.P.P.P.P.P.P.",
"P.P.P.P.P.P.P.P.P.P.P.P.P.P.P.P.P.P.P.P.P.P.P.P.P.P.P.P.P.P.P.P.P.P.P.P.P.P.P.P.P.P.P.P.P.P.P.P.P.P.P.P.P.P.P.",
"P.P.P.P.P.P.P.P.P.P.P.P.P.P.P.P.P.P.P.P.P.P.P.P.P.P.P.P.P.P.P.P.P.P.P.P.P.P.P.P.P.P.P.P.P.P.P.P.P.P.P.P.P.P.P."
};
