/* XPM */
static char *show[] = {
/* columns rows colors chars-per-pixel */
"55 55 207 2 ",
"   c #1D1D1D",
".  c #1E1E1E",
"X  c gray12",
"o  c #202020",
"O  c gray13",
"+  c #222222",
"@  c #232323",
"#  c gray14",
"$  c #252525",
"%  c gray15",
"&  c #272727",
"*  c #282828",
"=  c gray16",
"-  c #2A2A2A",
";  c gray17",
":  c #2C2C2C",
">  c #2D2D2D",
",  c gray18",
"<  c #2F2F2F",
"1  c gray19",
"2  c #313131",
"3  c #323232",
"4  c gray20",
"5  c #343434",
"6  c #353535",
"7  c gray21",
"8  c #373737",
"9  c gray22",
"0  c #393939",
"q  c #3A3A3A",
"w  c gray23",
"e  c #3C3C3C",
"r  c gray24",
"t  c #3E3E3E",
"y  c #3F3F3F",
"u  c gray25",
"i  c #414141",
"p  c gray26",
"a  c #434343",
"s  c #444444",
"d  c gray27",
"f  c #464646",
"g  c gray28",
"h  c #484848",
"j  c #494949",
"k  c gray29",
"l  c #4B4B4B",
"z  c #4C4C4C",
"x  c gray30",
"c  c gray31",
"v  c #515151",
"b  c gray32",
"n  c #535353",
"m  c gray33",
"M  c #555555",
"N  c #565656",
"B  c #585858",
"V  c gray35",
"C  c #5A5A5A",
"Z  c #5B5B5B",
"A  c gray36",
"S  c #5D5D5D",
"D  c gray37",
"F  c #5F5F5F",
"G  c #606060",
"H  c gray38",
"J  c gray39",
"K  c #646464",
"L  c gray40",
"P  c #676767",
"I  c #686868",
"U  c DimGray",
"Y  c #6A6A6A",
"T  c gray42",
"R  c #6C6C6C",
"E  c #6D6D6D",
"W  c gray43",
"Q  c #6F6F6F",
"!  c gray44",
"~  c #717171",
"^  c #727272",
"/  c #747474",
"(  c #777777",
")  c #797979",
"_  c #7C7C7C",
"`  c gray49",
"'  c gray50",
"]  c #808080",
"[  c #818181",
"{  c gray51",
"}  c #838383",
"|  c #848484",
" . c gray52",
".. c #868686",
"X. c gray53",
"o. c #888888",
"O. c #898989",
"+. c gray54",
"@. c #8B8B8B",
"#. c gray55",
"$. c #8D8D8D",
"%. c #8E8E8E",
"&. c gray56",
"*. c gray57",
"=. c #929292",
"-. c #939393",
";. c gray58",
":. c #959595",
">. c gray59",
",. c #979797",
"<. c #989898",
"1. c gray60",
"2. c #9A9A9A",
"3. c #9B9B9B",
"4. c gray61",
"5. c #9D9D9D",
"6. c #9F9F9F",
"7. c gray63",
"8. c #A2A2A2",
"9. c gray64",
"0. c #A4A4A4",
"q. c #A5A5A5",
"w. c gray65",
"e. c gray66",
"r. c #A9A9A9",
"t. c #AAAAAA",
"y. c gray67",
"u. c #ACACAC",
"i. c gray68",
"p. c #AEAEAE",
"a. c #AFAFAF",
"s. c gray69",
"d. c #B1B1B1",
"f. c gray70",
"g. c #B4B4B4",
"h. c gray71",
"j. c #B6B6B6",
"k. c #B7B7B7",
"l. c gray72",
"z. c #B9B9B9",
"x. c gray73",
"c. c #BCBCBC",
"v. c gray74",
"b. c gray",
"n. c gray75",
"m. c #C0C0C0",
"M. c #C1C1C1",
"N. c gray76",
"B. c #C3C3C3",
"V. c gray77",
"C. c #C5C5C5",
"Z. c #C6C6C6",
"A. c gray78",
"S. c #C8C8C8",
"D. c gray79",
"F. c #CACACA",
"G. c #CBCBCB",
"H. c gray80",
"J. c #CDCDCD",
"K. c #CECECE",
"L. c gray81",
"P. c gray82",
"I. c #D2D2D2",
"U. c LightGray",
"Y. c gray83",
"T. c #D5D5D5",
"R. c #D7D7D7",
"E. c #D8D8D8",
"W. c gray85",
"Q. c #DADADA",
"!. c gray86",
"~. c gainsboro",
"^. c #DDDDDD",
"/. c gray87",
"(. c #DFDFDF",
"). c gray88",
"_. c #E1E1E1",
"`. c #E2E2E2",
"'. c gray89",
"]. c #E4E4E4",
"[. c gray90",
"{. c #E6E6E6",
"}. c #E7E7E7",
"|. c gray91",
" X c #E9E9E9",
".X c #EAEAEA",
"XX c gray92",
"oX c #ECECEC",
"OX c gray93",
"+X c #EEEEEE",
"@X c #EFEFEF",
"#X c gray94",
"$X c #F1F1F1",
"%X c gray95",
"&X c #F3F3F3",
"*X c #F4F4F4",
"=X c gray96",
"-X c #F6F6F6",
";X c gray97",
":X c #F8F8F8",
">X c #F9F9F9",
",X c gray98",
"<X c #FBFBFB",
"1X c gray99",
"2X c #FDFDFD",
"3X c #FEFEFE",
"4X c white",
/* pixels */
"4X4X4X4X4X4X4X4X4X4X4X4X4X4X4X4X4X4X4X4X4X4X4X4X4X4X4X4X4X4X4X4X4X4X4X4X4X4X4X4X4X4X4X4X4X4X4X4X4X4X4X4X4X4X4X",
"4X4X4X4X4X4X4X4X4X4X4X4X4X4X4X4X4X4X4X4X4X4X4X4X4X4X4X4X4X4X4X4X4X4X4X4X4X4X4X4X4X4X4X4X4X4X4X4X4X4X4X4X4X4X4X",
"4X4X4X4X4X4X4X4X4X4X4X4X4X4X4X4X4X4X4X4X4X4X4X4X4X4X4X4X4X4X4X4X4X4X4X4X4X4X4X4X4X4X4X4X4X4X4X4X4X4X4X4X4X4X4X",
"4X4X4X4X4X4X4X4X4X4X4X4X4X4X4X4X4X4X4X4X4X4X4X4X4X4X4X4X4X4X4X4X4X4X4X4X4X4X4X4X4X4X4X4X4X4X4X4X4X4X4X4X4X4X4X",
"4X4X4X4X4X4X4X4X4X4X4X4X4X4X4X4X4X4X4X4X4X4X4X4X4X4X4X4X4X4X4X4X4X4X4X4X4X4X4X4X4X4X4X4X4X4X4X4X4X4X4X4X4X4X4X",
"4X4X4X4X4X4X4X4X4X4X4X4X4X4X4X4X4X4X4X4X4X4X4X4X4X4X4X4X4X4X4X4X4X4X4X4X4X4X4X4X4X4X4X4X4X4X4X4X4X4X4X4X4X4X4X",
"4X4X4X4X4X4X4X4X4X4X4X4X4X4X4X4X4X4X4X4X4X4X4X4X4X4X4X4X4X4X4X4X4X4X4X4X4X4X4X4X4X4X4X4X4X4X4X4X4X4X4X4X4X4X4X",
"4X4X4X4X4X4X4X4X4X4X4X4X4X4X4X4X4X4X4X4X4X4X4X4X4X4X4X4X4X4X4X4X4X4X4X4X4X4X4X4X4X4X4X4X4X4X4X4X4X4X4X4X4X4X4X",
"4X4X4X4X4X4X4X4X4X4X4X4X4X4X4X4X4X4X4X4X4X4X4X4X4X4X4X4X4X4X4X4X4X4X4X4X4X4X4X4X4X4X4X4X4X4X4X4X4X4X4X4X4X4X4X",
"4X4X4X4X4X4X4X4X4X4X4X4X4X4X4X4X4X4X4X4X4X4X4X4X4X4X4X4X4X4X4X4X4X4X4X4X4X4X4X4X4X4X4X4X4X4X4X4X4X4X4X4X4X4X4X",
"4X4X4X4X4X4X4X4X4X4X4X4X4X4X4X4X4X4X4X4X4X4X4X4X4X4X4X4X4X4X4X4X4X4X4X4X4X4X4X4X4X4X4X4X4X4X4X4X4X4X4X4X4X4X4X",
"4X4X4X4X4X4X4X4X4X4X4X4X4X4X4X4X4X4X4X4X4X4X4X4X-X+X+X+X+X+X-X-X4X4X4X4X4X4X4X4X4X4X4X4X4X4X4X4X4X4X4X4X4X4X4X",
"4X4X4X4X4X4X4X4X4X4X4X4X4X4X4X4X4X4X4X+XQ.N.i.$.J e > % % > g E 3.f.F.Q.+X4X4X4X4X4X4X4X4X4X4X4X4X4X4X4X4X4X4X",
"4X4X4X4X4X4X4X4X4X4X4X4X4X4X4X4X-XQ.z.$.A e > . % % % % % % % % % > g J 3.N.}.-X4X4X4X4X4X4X4X4X4X4X4X4X4X4X4X",
"4X4X4X4X4X4X4X4X4X4X4X4X4X4X+XT.3.A 5 . . % % 5 e e g g g g e 5 > % % . % e E i.Q.-X4X4X4X4X4X4X4X4X4X4X4X4X4X",
"4X4X4X4X4X4X4X4X4X4X4X4X-XQ.>.x % . % > 5 x J X.8.z.N.F.F.N.f.3.` A g 5 > % % > A z.}.4X4X4X4X4X4X4X4X4X4X4X4X",
"4X4X4X4X4X4X4X4X4X4X4X}.i.v % % % > g E 8.T.-X4X4X4X4X-X-X4X4X4X4X}.z.$.A e > % % e X.F.-X4X4X4X4X4X4X4X4X4X4X",
"4X4X4X4X4X4X4X4X4X-Xi.A > % % e E i.Q.-X4X4X4X}.N.8.$.X.X.>.i.F.-X4X4X4X+XF.>.A 5 % % g X.F.-X4X4X4X4X4X4X4X4X",
"4X4X4X4X4X4X4X4X}.>.e % % > J 8.Q.4X4X4X4X-Xz.` v 5 > > > > e A >.T.4X4X4X4X-XF.$.e % % 5 E z.-X4X4X4X4X4X4X4X",
"4X4X4X4X4X4X4XQ.` 5 % % e X.F.4X4X4X4X4X+X3.x % % % % % % % % % 5 J f.-X4X4X4X4X+X8.A > % > v i.+X4X4X4X4X4X4X",
"4X4X4X4X4X4XQ.E % % % v i.+X4X4X4X4X4X+X$.5 % % % % % % % % % % % % v f.-X4X4X4X4X-XN.( 5 % % x 8.+X4X4X4X4X4X",
"4X4X4X4X4XF.x % % > X.}.4X4X4X4X4X4X-XX.% % % % % % % % % % % % % % % g i.4X4X4X4X4X4X+Xi.v % % e $.}.4X4X4X4X",
"4X4X4X4X}.v % % > >.+X4X4X4X4X4X4X4XN.5 % % % % % % % % % % % % % % % > A Q.4X4X4X4X4X4X-Xz.A % % e 3.4X4X4X4X",
"4X4X4X-X` % % > >.+X4X4X4X4X4X4X4X-XE % % % % % % % % 5 5 % % % % % % % 5 3.4X4X4X4X4X4X4X-Xz.A % % x T.4X4X4X",
"4X4X4Xi.5 % % $.+X4X4X4X4X4X4X4X4XT.5 % % % % % % g 3.z.z.X.5 % % % % % > J +X4X4X4X4X4X4X4X-Xf.v % > $.+X4X4X",
"4X4X+Xv % % E +X4X4X4X4X4X4X4X4X4Xf.% % % % % % e z.+X4X4X}.3.> % % % % % x T.4X4X4X4X4X4X4X4X-X8.e % g N.4X4X",
"4X4X3.> % e }.4X4X4X4X4X4X4X4X4X4X$.. % % % % > ` 4X4X4X4X4X}.A % % % % % e z.4X4X4X4X4X4X4X4X4X+XX.> % ` +X4X",
"4X4XA % . E 4X4X4X4X4X4X4X4X4X4X4XX.. % % % % > 3.4X4X4X4X4X-X` . % % % % e f.4X4X4X4X4X4X4X4X4X4Xi.e % g }.4X",
"4X4X$.% % x -X4X4X4X4X4X4X4X4X4X4X$.. % % % % > X.4X4X4X4X4X+XJ % % % % % e f.4X4X4X4X4X4X4X4X4X-X3.5 % E +X4X",
"4X4XQ.e % % 3.4X4X4X4X4X4X4X4X4X4X8.. % % % % % x T.4X4X4X4Xz.5 % % % % % g F.4X4X4X4X4X4X4X4X4XN.A % 5 f.4X4X",
"4X4X4X>.% % > N.4X4X4X4X4X4X4X4X4XT.> % % % % % % x f.}.Q.3.e % % % % % % J +X4X4X4X4X4X4X4X4XQ.( % % ( }.4X4X",
"4X4X4X+XA . % e T.4X4X4X4X4X4X4X4X-XA . % % % % % % > e e % % % % % % % 5 $.4X4X4X4X4X4X4X4X}.` > % e F.4X4X4X",
"4X4X4X4XT.5 % % g T.4X4X4X4X4X4X4X4Xf.% % % % % % % % % % % % % % % % % x T.4X4X4X4X4X4X4X}.X.> % > X.-X4X4X4X",
"4X4X4X4X4Xz.> % % e N.4X4X4X4X4X4X4X-XE . % % % % % % % % % % % % % % 5 3.4X4X4X4X4X4X4XQ.` > % > ( Q.4X4X4X4X",
"4X4X4X4X4X4Xz.> % % > 3.4X4X4X4X4X4X4X}.v . % % % % % % % % % % % % > X.-X4X4X4X4X4X4XN.A % % % ( Q.4X4X4X4X4X",
"4X4X4X4X4X4X4Xz.5 % % . E }.4X4X4X4X4X4X}.A . % % % % % % % % % % 5 $.-X4X4X4X4X4X+X8.g % % > ( Q.4X4X4X4X4X4X",
"4X4X4X4X4X4X4X4XF.g . % . e i.4X4X4X4X4X4X-X>.5 . % % % % % . % v f.4X4X4X4X4X4X}.E > % % > X.}.4X4X4X4X4X4X4X",
"4X4X4X4X4X4X4X4X4X}.E . % % % J N.4X4X4X4X4X4XQ.3.J g 5 e g E i.+X4X4X4X4X4X+X3.g % % % g 8.-X4X4X4X4X4X4X4X4X",
"4X4X4X4X4X4X4X4X4X4X4X8.5 . % % % J z.-X4X4X4X4X4X4X-X+X+X-X4X4X4X4X4X4XQ.3.x % % % > J F.4X4X4X4X4X4X4X4X4X4X",
"4X4X4X4X4X4X4X4X4X4X4X4X}.` > % % % % g ` z.}.-X4X4X4X4X4X4X-X-X+XT.8.J 5 . % % % v i.+X4X4X4X4X4X4X4X4X4X4X4X",
"4X4X4X4X4X4X4X4X4X4X4X4X4X4XN.E 5 % % % . % 5 A ` >.8.i.i.3.$.E x > % . % % % g X.}.4X4X4X4X4X4X4X4X4X4X4X4X4X",
"4X4X4X4X4X4X4X4X4X4X4X4X4X4X4X4XF.X.g > % % % . . . . . . . . . . % % % 5 v >.Q.4X4X4X4X4X4X4X4X4X4X4X4X4X4X4X",
"4X4X4X4X4X4X4X4X4X4X4X4X4X4X4X4X4X4X+Xz.X.v e > % % % % % % % > > e J >.F.-X4X4X4X4X4X4X4X4X4X4X4X4X4X4X4X4X4X",
"4X4X4X4X4X4X4X4X4X4X4X4X4X4X4X4X4X4X4X4X4X4X+XT.f.>.X.( ` X.3.z.Q.+X4X4X4X4X4X4X4X4X4X4X4X4X4X4X4X4X4X4X4X4X4X",
"4X4X4X4X4X4X4X4X4X4X4X4X4X4X4X4X4X4X4X4X4X4X4X4X4X4X4X4X4X4X4X4X4X4X4X4X4X4X4X4X4X4X4X4X4X4X4X4X4X4X4X4X4X4X4X",
"4X4X4X4X4X4X4X4X4X4X4X4X4X4X4X4X4X4X4X4X4X4X4X4X4X4X4X4X4X4X4X4X4X4X4X4X4X4X4X4X4X4X4X4X4X4X4X4X4X4X4X4X4X4X4X",
"4X4X4X4X4X4X4X4X4X4X4X4X4X4X4X4X4X4X4X4X4X4X4X4X4X4X4X4X4X4X4X4X4X4X4X4X4X4X4X4X4X4X4X4X4X4X4X4X4X4X4X4X4X4X4X",
"4X4X4X4X4X4X4X4X4X4X4X4X4X4X4X4X4X4X4X4X4X4X4X4X4X4X4X4X4X4X4X4X4X4X4X4X4X4X4X4X4X4X4X4X4X4X4X4X4X4X4X4X4X4X4X",
"4X4X4X4X4X4X4X4X4X4X4X4X4X4X4X4X4X4X4X4X4X4X4X4X4X4X4X4X4X4X4X4X4X4X4X4X4X4X4X4X4X4X4X4X4X4X4X4X4X4X4X4X4X4X4X",
"4X4X4X4X4X4X4X4X4X4X4X4X4X4X4X4X4X4X4X4X4X4X4X4X4X4X4X4X4X4X4X4X4X4X4X4X4X4X4X4X4X4X4X4X4X4X4X4X4X4X4X4X4X4X4X",
"4X4X4X4X4X4X4X4X4X4X4X4X4X4X4X4X4X4X4X4X4X4X4X4X4X4X4X4X4X4X4X4X4X4X4X4X4X4X4X4X4X4X4X4X4X4X4X4X4X4X4X4X4X4X4X",
"4X4X4X4X4X4X4X4X4X4X4X4X4X4X4X4X4X4X4X4X4X4X4X4X4X4X4X4X4X4X4X4X4X4X4X4X4X4X4X4X4X4X4X4X4X4X4X4X4X4X4X4X4X4X4X",
"4X4X4X4X4X4X4X4X4X4X4X4X4X4X4X4X4X4X4X4X4X4X4X4X4X4X4X4X4X4X4X4X4X4X4X4X4X4X4X4X4X4X4X4X4X4X4X4X4X4X4X4X4X4X4X",
"4X4X4X4X4X4X4X4X4X4X4X4X4X4X4X4X4X4X4X4X4X4X4X4X4X4X4X4X4X4X4X4X4X4X4X4X4X4X4X4X4X4X4X4X4X4X4X4X4X4X4X4X4X4X4X",
"4X4X4X4X4X4X4X4X4X4X4X4X4X4X4X4X4X4X4X4X4X4X4X4X4X4X4X4X4X4X4X4X4X4X4X4X4X4X4X4X4X4X4X4X4X4X4X4X4X4X4X4X4X4X4X"
};
