/* XPM */
static char *unchecked[] = {
/* columns rows colors chars-per-pixel */
"55 55 90 1 ",
"  c None",
". c gray12",
"X c #202020",
"o c gray13",
"O c #222222",
"+ c gray14",
"@ c #252525",
"# c gray15",
"$ c #272727",
"% c #282828",
"& c gray16",
"* c #2A2A2A",
"= c #2D2D2D",
"- c gray19",
"; c #313131",
": c #343434",
"> c #353535",
", c gray21",
"< c #3A3A3A",
"1 c #3F3F3F",
"2 c #4B4B4B",
"3 c #4C4C4C",
"4 c gray30",
"5 c gray31",
"6 c #505050",
"7 c gray32",
"8 c #535353",
"9 c #676767",
"0 c #686868",
"q c #6D6D6D",
"w c #6F6F6F",
"e c gray45",
"r c gray46",
"t c #767676",
"y c gray48",
"u c #7C7C7C",
"i c gray50",
"p c #818181",
"a c #868686",
"s c #888888",
"d c #8B8B8B",
"f c gray55",
"g c gray56",
"h c gray57",
"j c #939393",
"k c gray58",
"l c #959595",
"z c #979797",
"x c gray60",
"c c #9B9B9B",
"v c gray62",
"b c #9F9F9F",
"n c #A0A0A0",
"m c gray63",
"M c #A2A2A2",
"N c gray64",
"B c #A5A5A5",
"V c gray65",
"C c #A7A7A7",
"Z c gray66",
"A c #AAAAAA",
"S c gray67",
"D c #ACACAC",
"F c #B6B6B6",
"G c gray73",
"H c #C0C0C0",
"J c gray76",
"K c #D2D2D2",
"L c gray84",
"P c gray85",
"I c gray86",
"U c #DDDDDD",
"Y c gray88",
"T c gray89",
"R c #E4E4E4",
"E c #E6E6E6",
"W c #E7E7E7",
"Q c #E9E9E9",
"! c gray92",
"~ c gray94",
"^ c gray95",
"/ c #F3F3F3",
"( c #F6F6F6",
") c #F8F8F8",
"_ c #F9F9F9",
"` c gray98",
"' c #FBFBFB",
"] c gray99",
"[ c #FDFDFD",
"{ c #FEFEFE",
/* pixels */
"                                                       ",
"                                                       ",
"                                                       ",
"                                                       ",
"                                                       ",
"                                                       ",
"                                                       ",
"                                                       ",
"                                                       ",
"                                                       ",
"            [EGczzzzzzzzzzzzzzzzzzzzzzzcFE[            ",
"           ~a1&&@@@@@@@@@@@@@@@@@@@@@@@@&1iQ           ",
"          [z&@@@....@@@..@......@@@@...@@@&i[          ",
"          Q8@@2sCCCCCCCCCCCCCCCCCCCCCCCs8@@,P          ",
"          J,@2K~~~~~~~~~~~~~~~~~~~~~~~~~P2@@c          ",
"          C&@s~                         ~z.@0          ",
"          C@@c~                         [S.@0          ",
"          C@@c~                         [S.@0          ",
"          C@@C~                         [S.@0          ",
"          C@@C~                         [S.@0          ",
"          C@.c~                         [S.@0          ",
"          C@@C~                         [S.@0          ",
"          C@@C~                         [S.@0          ",
"          C@@C~                         [S.@0          ",
"          C@.c~                         [S.@0          ",
"          C@.c~                         [S.@0          ",
"          c@.c~                         [S.@0          ",
"          C@.c~                         [S.@0          ",
"          c@.c~                         [S.@0          ",
"          c@.c~                         [S.@0          ",
"          C@.C~                         [S.@0          ",
"          C@@C~                         [S.@0          ",
"          C@.c~                         [S.@0          ",
"          C@.c~                         [S.@0          ",
"          C@.c~                         [S.@0          ",
"          C@@c~                         [S.@0          ",
"          C@@C~                         [S.@0          ",
"          C@@C~                         [S.@0          ",
"          C@.c~                         [S.@9          ",
"          C@.s~                         [z@@0          ",
"          J,@2P[[[[[[[[[[[[[[[[[[[[[[[[[E8.@z          ",
"          E8@@2sCSSSSSCCSSCCSSSSSCCCSSSz8@@,K          ",
"          [z&@@........................@@@@r[          ",
"           ~i,@@@@@@@@@@@@@@@@@@@@@@@@@@@,rQ           ",
"            [ESarrrrrrrrrrrrrrrrrrrrrrriCP[            ",
"                                                       ",
"                                                       ",
"                                                       ",
"                                                       ",
"                                                       ",
"                                                       ",
"                                                       ",
"                                                       ",
"                                                       ",
"                                                       "
};
