/* XPM */
static char *unchecked[] = {
/* columns rows colors chars-per-pixel */
"55 55 90 1 ",
"  c gray12",
". c #202020",
"X c gray13",
"o c #222222",
"O c gray14",
"+ c #252525",
"@ c gray15",
"# c #272727",
"$ c #282828",
"% c gray16",
"& c #2A2A2A",
"* c #2D2D2D",
"= c gray19",
"- c #313131",
"; c #343434",
": c #353535",
"> c gray21",
", c #3A3A3A",
"< c #3F3F3F",
"1 c #4B4B4B",
"2 c #4C4C4C",
"3 c gray30",
"4 c gray31",
"5 c #505050",
"6 c gray32",
"7 c #535353",
"8 c #676767",
"9 c #686868",
"0 c #6D6D6D",
"q c #6F6F6F",
"w c gray45",
"e c gray46",
"r c #767676",
"t c gray48",
"y c #7C7C7C",
"u c gray50",
"i c #818181",
"p c #868686",
"a c #888888",
"s c #8B8B8B",
"d c gray55",
"f c gray56",
"g c gray57",
"h c #939393",
"j c gray58",
"k c #959595",
"l c #979797",
"z c gray60",
"x c #9B9B9B",
"c c gray62",
"v c #9F9F9F",
"b c #A0A0A0",
"n c gray63",
"m c #A2A2A2",
"M c gray64",
"N c #A5A5A5",
"B c gray65",
"V c #A7A7A7",
"C c gray66",
"Z c #AAAAAA",
"A c gray67",
"S c #ACACAC",
"D c #B6B6B6",
"F c gray73",
"G c #C0C0C0",
"H c gray76",
"J c #D2D2D2",
"K c gray84",
"L c gray85",
"P c gray86",
"I c #DDDDDD",
"U c gray88",
"Y c gray89",
"T c #E4E4E4",
"R c #E6E6E6",
"E c #E7E7E7",
"W c #E9E9E9",
"Q c gray92",
"! c gray94",
"~ c gray95",
"^ c #F3F3F3",
"/ c #F6F6F6",
"( c #F8F8F8",
") c #F9F9F9",
"_ c gray98",
"` c #FBFBFB",
"' c gray99",
"] c #FDFDFD",
"[ c #FEFEFE",
"{ c white",
/* pixels */
"{{{{{{{{{{{{{{{{{{{{{{{{{{{{{{{{{{{{{{{{{{{{{{{{{{{{{{{",
"{{{{{{{{{{{{{{{{{{{{{{{{{{{{{{{{{{{{{{{{{{{{{{{{{{{{{{{",
"{{{{{{{{{{{{{{{{{{{{{{{{{{{{{{{{{{{{{{{{{{{{{{{{{{{{{{{",
"{{{{{{{{{{{{{{{{{{{{{{{{{{{{{{{{{{{{{{{{{{{{{{{{{{{{{{{",
"{{{{{{{{{{{{{{{{{{{{{{{{{{{{{{{{{{{{{{{{{{{{{{{{{{{{{{{",
"{{{{{{{{{{{{{{{{{{{{{{{{{{{{{{{{{{{{{{{{{{{{{{{{{{{{{{{",
"{{{{{{{{{{{{{{{{{{{{{{{{{{{{{{{{{{{{{{{{{{{{{{{{{{{{{{{",
"{{{{{{{{{{{{{{{{{{{{{{{{{{{{{{{{{{{{{{{{{{{{{{{{{{{{{{{",
"{{{{{{{{{{{{{{{{{{{{{{{{{{{{{{{{{{{{{{{{{{{{{{{{{{{{{{{",
"{{{{{{{{{{{{{{{{{{{{{{{{{{{{{{{{{{{{{{{{{{{{{{{{{{{{{{{",
"{{{{{{{{{{{{{RFxlllllllllllllllllllllllxDR{{{{{{{{{{{{{",
"{{{{{{{{{{{!p<%%++++++++++++++++++++++++%<uW{{{{{{{{{{{",
"{{{{{{{{{{{l%+++    +++  +      +++    +++%u{{{{{{{{{{{",
"{{{{{{{{{{W7++1aVVVVVVVVVVVVVVVVVVVVVVVa7++>L{{{{{{{{{{",
"{{{{{{{{{{H>+1J!!!!!!!!!!!!!!!!!!!!!!!!!L1++x{{{{{{{{{{",
"{{{{{{{{{{V%+a!{{{{{{{{{{{{{{{{{{{{{{{{{!l +9{{{{{{{{{{",
"{{{{{{{{{{V++x!{{{{{{{{{{{{{{{{{{{{{{{{{{A +9{{{{{{{{{{",
"{{{{{{{{{{V++x!{{{{{{{{{{{{{{{{{{{{{{{{{{A +9{{{{{{{{{{",
"{{{{{{{{{{V++V!{{{{{{{{{{{{{{{{{{{{{{{{{{A +9{{{{{{{{{{",
"{{{{{{{{{{V++x!{{{{{{{{{{{{{{{{{{{{{{{{{{A +9{{{{{{{{{{",
"{{{{{{{{{{x+ x!{{{{{{{{{{{{{{{{{{{{{{{{{{A +8{{{{{{{{{{",
"{{{{{{{{{{x++V!{{{{{{{{{{{{{{{{{{{{{{{{{{A +8{{{{{{{{{{",
"{{{{{{{{{{V++V!{{{{{{{{{{{{{{{{{{{{{{{{{{A +9{{{{{{{{{{",
"{{{{{{{{{{V++V!{{{{{{{{{{{{{{{{{{{{{{{{{{A +9{{{{{{{{{{",
"{{{{{{{{{{V+ x!{{{{{{{{{{{{{{{{{{{{{{{{{{A +9{{{{{{{{{{",
"{{{{{{{{{{V+ x!{{{{{{{{{{{{{{{{{{{{{{{{{{A +9{{{{{{{{{{",
"{{{{{{{{{{x+ x!{{{{{{{{{{{{{{{{{{{{{{{{{{A +9{{{{{{{{{{",
"{{{{{{{{{{V+ x!{{{{{{{{{{{{{{{{{{{{{{{{{{A +9{{{{{{{{{{",
"{{{{{{{{{{x+ x!{{{{{{{{{{{{{{{{{{{{{{{{{{A +9{{{{{{{{{{",
"{{{{{{{{{{x+ x!{{{{{{{{{{{{{{{{{{{{{{{{{{A +9{{{{{{{{{{",
"{{{{{{{{{{V+ V!{{{{{{{{{{{{{{{{{{{{{{{{{{A +9{{{{{{{{{{",
"{{{{{{{{{{V++V!{{{{{{{{{{{{{{{{{{{{{{{{{{A +9{{{{{{{{{{",
"{{{{{{{{{{V+ x!{{{{{{{{{{{{{{{{{{{{{{{{{{A +9{{{{{{{{{{",
"{{{{{{{{{{V+ x!{{{{{{{{{{{{{{{{{{{{{{{{{{A +9{{{{{{{{{{",
"{{{{{{{{{{V+ x!{{{{{{{{{{{{{{{{{{{{{{{{{{A +9{{{{{{{{{{",
"{{{{{{{{{{V++x!{{{{{{{{{{{{{{{{{{{{{{{{{{A +9{{{{{{{{{{",
"{{{{{{{{{{V++V!{{{{{{{{{{{{{{{{{{{{{{{{{{A +9{{{{{{{{{{",
"{{{{{{{{{{V++V!{{{{{{{{{{{{{{{{{{{{{{{{{{A +9{{{{{{{{{{",
"{{{{{{{{{{V+ x!{{{{{{{{{{{{{{{{{{{{{{{{{{A +8{{{{{{{{{{",
"{{{{{{{{{{V+ a!{{{{{{{{{{{{{{{{{{{{{{{{{{l++9{{{{{{{{{{",
"{{{{{{{{{{H>+1L{{{{{{{{{{{{{{{{{{{{{{{{{R7 +l{{{{{{{{{{",
"{{{{{{{{{{R7++1aVAAAAAVVAVVVAAAAAVVVAAAl7++%J{{{{{{{{{{",
"{{{{{{{{{{{l%++                        ++++e{{{{{{{{{{{",
"{{{{{{{{{{{!u>+++++++++++++++++++++++++++>eW{{{{{{{{{{{",
"{{{{{{{{{{{{{RApeeeeeeeeeeeeeeeeeeeeeeeuVL{{{{{{{{{{{{{",
"{{{{{{{{{{{{{{{{{{{{{{{{{{{{{{{{{{{{{{{{{{{{{{{{{{{{{{{",
"{{{{{{{{{{{{{{{{{{{{{{{{{{{{{{{{{{{{{{{{{{{{{{{{{{{{{{{",
"{{{{{{{{{{{{{{{{{{{{{{{{{{{{{{{{{{{{{{{{{{{{{{{{{{{{{{{",
"{{{{{{{{{{{{{{{{{{{{{{{{{{{{{{{{{{{{{{{{{{{{{{{{{{{{{{{",
"{{{{{{{{{{{{{{{{{{{{{{{{{{{{{{{{{{{{{{{{{{{{{{{{{{{{{{{",
"{{{{{{{{{{{{{{{{{{{{{{{{{{{{{{{{{{{{{{{{{{{{{{{{{{{{{{{",
"{{{{{{{{{{{{{{{{{{{{{{{{{{{{{{{{{{{{{{{{{{{{{{{{{{{{{{{",
"{{{{{{{{{{{{{{{{{{{{{{{{{{{{{{{{{{{{{{{{{{{{{{{{{{{{{{{",
"{{{{{{{{{{{{{{{{{{{{{{{{{{{{{{{{{{{{{{{{{{{{{{{{{{{{{{{",
"{{{{{{{{{{{{{{{{{{{{{{{{{{{{{{{{{{{{{{{{{{{{{{{{{{{{{{{"
};
