/* XPM */
static char *undo[] = {
/* columns rows colors chars-per-pixel */
"55 55 155 2 ",
"   c None",
".  c #191919",
"X  c #1D1D1D",
"o  c #1E1E1E",
"O  c gray12",
"+  c #202020",
"@  c gray13",
"#  c #222222",
"$  c #232323",
"%  c gray14",
"&  c #252525",
"*  c gray15",
"=  c #272727",
"-  c #282828",
";  c gray16",
":  c #2A2A2A",
">  c gray17",
",  c #2C2C2C",
"<  c #2D2D2D",
"1  c gray18",
"2  c #2F2F2F",
"3  c gray19",
"4  c #313131",
"5  c #323232",
"6  c gray20",
"7  c #343434",
"8  c #353535",
"9  c gray21",
"0  c #373737",
"q  c gray22",
"w  c #393939",
"e  c #3A3A3A",
"r  c gray23",
"t  c #3C3C3C",
"y  c gray24",
"u  c #3E3E3E",
"i  c #3F3F3F",
"p  c #414141",
"a  c gray26",
"s  c #434343",
"d  c #444444",
"f  c gray28",
"g  c gray29",
"h  c gray30",
"j  c #4E4E4E",
"k  c gray31",
"l  c #505050",
"z  c #515151",
"x  c #535353",
"c  c gray33",
"v  c gray34",
"b  c #585858",
"n  c gray35",
"m  c #5B5B5B",
"M  c #5D5D5D",
"N  c gray38",
"B  c gray39",
"V  c #656565",
"C  c #686868",
"Z  c #6A6A6A",
"A  c #6C6C6C",
"S  c #6D6D6D",
"D  c gray43",
"F  c #6F6F6F",
"G  c gray44",
"H  c #727272",
"J  c gray45",
"K  c gray46",
"L  c #7C7C7C",
"P  c gray49",
"I  c #7E7E7E",
"U  c gray50",
"Y  c #818181",
"T  c #838383",
"R  c gray53",
"E  c #898989",
"W  c #8B8B8B",
"Q  c gray55",
"!  c #8E8E8E",
"~  c gray56",
"^  c #929292",
"/  c #959595",
"(  c gray59",
")  c gray60",
"_  c #9A9A9A",
"`  c #9B9B9B",
"'  c gray61",
"]  c gray62",
"[  c #9F9F9F",
"{  c #A0A0A0",
"}  c gray63",
"|  c gray64",
" . c #A4A4A4",
".. c #A5A5A5",
"X. c gray65",
"o. c #A7A7A7",
"O. c gray66",
"+. c #A9A9A9",
"@. c gray67",
"#. c gray68",
"$. c #AFAFAF",
"%. c gray69",
"&. c #B2B2B2",
"*. c #B4B4B4",
"=. c #B6B6B6",
"-. c #B7B7B7",
";. c gray72",
":. c #B9B9B9",
">. c #BBBBBB",
",. c #BCBCBC",
"<. c gray74",
"1. c gray",
"2. c gray75",
"3. c #C1C1C1",
"4. c gray76",
"5. c #C3C3C3",
"6. c gray77",
"7. c #CBCBCB",
"8. c gray80",
"9. c #CECECE",
"0. c gray81",
"q. c #D2D2D2",
"w. c LightGray",
"e. c gray83",
"r. c #D7D7D7",
"t. c #D8D8D8",
"y. c gray85",
"u. c gainsboro",
"i. c #DDDDDD",
"p. c gray87",
"a. c #DFDFDF",
"s. c gray88",
"d. c gray89",
"f. c #E4E4E4",
"g. c gray91",
"h. c #E9E9E9",
"j. c #EAEAEA",
"k. c gray92",
"l. c gray93",
"z. c #EEEEEE",
"x. c gray94",
"c. c #F1F1F1",
"v. c gray95",
"b. c #F3F3F3",
"n. c #F4F4F4",
"m. c gray96",
"M. c #F6F6F6",
"N. c gray97",
"B. c #F8F8F8",
"V. c #F9F9F9",
"C. c gray98",
"Z. c #FBFBFB",
"A. c gray99",
"S. c #FDFDFD",
"D. c #FEFEFE",
/* pixels */
"                                                                                                              ",
"                                                                                                              ",
"                                                                                                              ",
"                                                                                                              ",
"                                                                                                              ",
"                                                                                                              ",
"                                                                                                              ",
"                                                                                                              ",
"                                                                                                              ",
"                                                                                                              ",
"                                                                                                              ",
"                                            C.C.                                                              ",
"                                        C.6.B S i.                                                            ",
"                                      C.>.a $ 2 }                                                             ",
"                                    C.>.a $ $ 2 >.                                                            ",
"                                  C.>.i $ $ 2 ( M.                                                            ",
"                                C.=.i $ $ 2 ] M.                                                              ",
"                              C.=.i $ $ 5 ] M.                                                                ",
"                            C.=.i $ $ 5 ] M.                                                                  ",
"                          C.=.i $ $ 5 } M.                                                                    ",
"                        C.@.i $ $ i @.M.                                                                      ",
"                      M.@.i $ $ h 6.M.                                                                        ",
"                    M.@.5 $ $ h >.f.f.i.i.i.r.i.r.r.i.i.i.i.r.i.i.f.g.C.                                      ",
"                  C.@.5 $ $ $ i h a i i i i i i i i i i i i i i i a x S W 6.M.                                ",
"                  C.i $ $ $ $ $ $ $ $ $ $ $ $ $ $ $ $ $ $ $ $ $ $ $ $ $ 2 5 B 6.M.                            ",
"                  C.] 2 $ $ $ 5 i 5 2 2 2 2 2 2 2 $ 2 2 2 2 2 2 $ $ $ X $ $ $ i W f.                          ",
"                    M.] 2 $ $ x 6.i.r.9.9.9.9.9.9.9.9.9.9.9.9.9.9.6.@.Y x 2 $ $ 2 P i.                        ",
"                      M.] 2 $ $ b r.C.C.C.C.C.C.C.C.C.C.C.C.C.C.C.C.C.C.g.=.b $ $ 2 W g.                      ",
"                        M.} 2 $ $ a >.                                    C.i.b $ $ a @.C.                    ",
"                          M.} 2 $ $ i =.                                    C.6.x $ $ K i.                    ",
"                            M.} 2 $ $ i =.                                    M.] 5 $ a =.                    ",
"                              M.} 2 $ $ i @.                                    9.b $ 2 ( C.                  ",
"                                M.@.2 $ $ 5 @.                                  g.P $ $ P M.                  ",
"                                  M.@.5 $ $ 5 } C.                              M.( 2 $ S g.                  ",
"                                    M.@.5 $ $ 5 6.                              C.] 5 $ B g.                  ",
"                                      M.=.5 X $ ]                               C.( 5 $ B g.                  ",
"                                        M.>.h b r.                              M.Y 2 $ S g.                  ",
"                                          C.M.M.C.                              i.S $ 2 Y M.                  ",
"                                                                                =.a $ 5 ] C.                  ",
"                                                                              f.K $ $ h >.                    ",
"                                                                            M.W 5 $ 2 P g.                    ",
"                                                                          M.} 5 $ $ h >.C.                    ",
"                                                                    C.i.} x $ $ $ i } C.                      ",
"                                                  C.i.W K K K K S B h 5 $ $ $ $ i } M.                        ",
"                                                  g.P X X X X X X X $ $ $ $ $ b >.C.                          ",
"                                                  g.P X $ $ $ $ $ $ $ $ 2 x ( g.                              ",
"                                                  C.r.b $ $ $ $ 2 a S } r.M.                                  ",
"                                                                                                              ",
"                                                                                                              ",
"                                                                                                              ",
"                                                                                                              ",
"                                                                                                              ",
"                                                                                                              ",
"                                                                                                              ",
"                                                                                                              "
};
