/* XPM */
static char *up_arrow_dark[] = {
/* columns rows colors chars-per-pixel */
"55 55 22 1 ",
"  c None",
". c #040404",
"X c gray4",
"o c gray8",
"O c #191919",
"+ c gray17",
"@ c #444444",
"# c gray31",
"$ c #505050",
"% c #585858",
"& c gray39",
"* c #686868",
"= c #767676",
"- c #7E7E7E",
"; c #888888",
": c #9A9A9A",
"> c #A5A5A5",
", c gray75",
"< c #C1C1C1",
"1 c #CECECE",
"2 c #D0D0D0",
"3 c gray86",
/* pixels */
"                                                       ",
"                                                       ",
"                                                       ",
"                                                       ",
"                                                       ",
"                                                       ",
"                                                       ",
"                                                       ",
"                                                       ",
"                                                       ",
"                                                       ",
"                                                       ",
"                                                       ",
"                                                       ",
"                                                       ",
"                                                       ",
"                                                       ",
"                          .X.                          ",
"                         X*2=o.                        ",
"                        X*133*o.                       ",
"                       X&23333*o                       ",
"                      X&2332333*X                      ",
"                     X&233<;<333&X                     ",
"                    X&1331%X$<332&X                    ",
"                   X&1331%X  $<332&X                   ",
"                  X&1331%X    $<332&X                  ",
"                 X$1331%X      $1332%X                 ",
"                X$,331%X        %1332%X                ",
"               X$,331%X          %1332%X               ",
"              o%<33,$X            #,332*o.             ",
"             X%<33<$X              $,332*o             ",
"            X%<33<&X                $,332*o            ",
"           X%,33<&o                  $,332*o           ",
"           +,33<&o                    $,332$           ",
"           @23<&o                      $,33-           ",
"           O;>%o                       .$>:+           ",
"            oo.                          Oo.           ",
"                                                       ",
"                                                       ",
"                                                       ",
"                                                       ",
"                                                       ",
"                                                       ",
"                                                       ",
"                                                       ",
"                                                       ",
"                                                       ",
"                                                       ",
"                                                       ",
"                                                       ",
"                                                       ",
"                                                       ",
"                                                       ",
"                                                       ",
"                                                       "
};
