/* XPM */
static char *up_arrow[] = {
/* columns rows colors chars-per-pixel */
"55 55 84 1 ",
"  c #222222",
". c #232323",
"X c gray14",
"o c #252525",
"O c gray15",
"+ c #272727",
"@ c #282828",
"# c gray16",
"$ c #2A2A2A",
"% c gray17",
"& c #2C2C2C",
"* c #2D2D2D",
"= c gray18",
"- c #2F2F2F",
"; c gray19",
": c #313131",
"> c #323232",
", c gray20",
"< c #353535",
"1 c gray21",
"2 c #3A3A3A",
"3 c gray23",
"4 c #3C3C3C",
"5 c gray24",
"6 c #3E3E3E",
"7 c #3F3F3F",
"8 c gray25",
"9 c #414141",
"0 c gray26",
"q c #5A5A5A",
"w c #656565",
"e c #777777",
"r c #818181",
"t c #898989",
"y c #909090",
"u c gray57",
"i c #929292",
"p c #939393",
"a c gray58",
"s c #959595",
"d c #979797",
"f c #989898",
"g c #9A9A9A",
"h c #9B9B9B",
"j c gray61",
"k c #9D9D9D",
"l c gray62",
"z c #9F9F9F",
"x c #A0A0A0",
"c c gray63",
"v c #A2A2A2",
"b c gray64",
"n c #A4A4A4",
"m c #A5A5A5",
"M c gray65",
"N c #A7A7A7",
"B c gray67",
"V c #ACACAC",
"C c gray68",
"Z c #AEAEAE",
"A c #AFAFAF",
"S c gray69",
"D c #BBBBBB",
"F c gray82",
"G c gray83",
"H c #E6E6E6",
"J c gray91",
"K c #EAEAEA",
"L c gray92",
"P c #ECECEC",
"I c gray93",
"U c #EEEEEE",
"Y c #EFEFEF",
"T c gray94",
"R c #F1F1F1",
"E c gray95",
"W c #F4F4F4",
"Q c gray96",
"! c #F6F6F6",
"~ c gray97",
"^ c gray98",
"/ c #FBFBFB",
"( c #FEFEFE",
") c white",
/* pixels */
")))))))))))))))))))))))))))))))))))))))))))))))))))))))",
")))))))))))))))))))))))))))))))))))))))))))))))))))))))",
")))))))))))))))))))))))))))))))))))))))))))))))))))))))",
")))))))))))))))))))))))))))))))))))))))))))))))))))))))",
")))))))))))))))))))))))))))))))))))))))))))))))))))))))",
")))))))))))))))))))))))))))))))))))))))))))))))))))))))",
")))))))))))))))))))))))))))))))))))))))))))))))))))))))",
")))))))))))))))))))))))))))))))))))))))))))))))))))))))",
")))))))))))))))))))))))))))))))))))))))))))))))))))))))",
")))))))))))))))))))))))))))))))))))))))))))))))))))))))",
")))))))))))))))))))))))))))))))))))))))))))))))))))))))",
")))))))))))))))))))))))))))))))))))))))))))))))))))))))",
")))))))))))))))))))))))))))))))))))))))))))))))))))))))",
")))))))))))))))))))))))))))))))))))))))))))))))))))))))",
")))))))))))))))))))))))))))))))))))))))))))))))))))))))",
")))))))))))))))))))))))))))))))))))))))))))))))))))))))",
")))))))))))))))))))))))))))))))))))))))))))))))))))))))",
")))))))))))))))))))))))))))Q)))))))))))))))))))))))))))",
")))))))))))))))))))))))))Qd-tL)))))))))))))))))))))))))",
"))))))))))))))))))))))))Qd:XXdL))))))))))))))))))))))))",
")))))))))))))))))))))))Qj-XXXXdL)))))))))))))))))))))))",
"))))))))))))))))))))))Qj-XXXXXXdQ))))))))))))))))))))))",
")))))))))))))))))))))Qj-XX6e6XXXjQ)))))))))))))))))))))",
"))))))))))))))))))))Qj:XX:NQA6XX-jQ))))))))))))))))))))",
")))))))))))))))))))Qj:XX:NQ))A6XX-jQ)))))))))))))))))))",
"))))))))))))))))))Qj:XX:NQ))))A6XX-jQ))))))))))))))))))",
")))))))))))))))))QA:XX:NQ))))))A:XX-NQ)))))))))))))))))",
"))))))))))))))))QA8XX:NQ))))))))N:XX-NQ))))))))))))))))",
")))))))))))))))QA8XX:NQ))))))))))N:XX-NQ)))))))))))))))",
"))))))))))))))LN6XX8AQ))))))))))))S8XX-dL))))))))))))))",
")))))))))))))QN6XX6AQ))))))))))))))A8XX-dL)))))))))))))",
"))))))))))))QN6XX6jQ))))))))))))))))A8XX-dL))))))))))))",
")))))))))))QN8XX6jL))))))))))))))))))A8XX-dL)))))))))))",
")))))))))))G8XX6jL))))))))))))))))))))A8XX-A)))))))))))",
")))))))))))D-X6jL))))))))))))))))))))))A8XXr)))))))))))",
")))))))))))HeqNL))))))))))))))))))))))))AqwG)))))))))))",
"))))))))))))LL)))))))))))))))))))))))))))HL))))))))))))",
")))))))))))))))))))))))))))))))))))))))))))))))))))))))",
")))))))))))))))))))))))))))))))))))))))))))))))))))))))",
")))))))))))))))))))))))))))))))))))))))))))))))))))))))",
")))))))))))))))))))))))))))))))))))))))))))))))))))))))",
")))))))))))))))))))))))))))))))))))))))))))))))))))))))",
")))))))))))))))))))))))))))))))))))))))))))))))))))))))",
")))))))))))))))))))))))))))))))))))))))))))))))))))))))",
")))))))))))))))))))))))))))))))))))))))))))))))))))))))",
")))))))))))))))))))))))))))))))))))))))))))))))))))))))",
")))))))))))))))))))))))))))))))))))))))))))))))))))))))",
")))))))))))))))))))))))))))))))))))))))))))))))))))))))",
")))))))))))))))))))))))))))))))))))))))))))))))))))))))",
")))))))))))))))))))))))))))))))))))))))))))))))))))))))",
")))))))))))))))))))))))))))))))))))))))))))))))))))))))",
")))))))))))))))))))))))))))))))))))))))))))))))))))))))",
")))))))))))))))))))))))))))))))))))))))))))))))))))))))",
")))))))))))))))))))))))))))))))))))))))))))))))))))))))",
")))))))))))))))))))))))))))))))))))))))))))))))))))))))"
};
