/* XPM */
static char *up_node_dark[] = {
/* columns rows colors chars-per-pixel */
"55 55 30 1 ",
"  c None",
". c #020202",
"X c gray6",
"o c gray9",
"O c #181818",
"+ c gray13",
"@ c gray16",
"# c gray19",
"$ c #3F3F3F",
"% c #444444",
"& c #4C4C4C",
"* c gray33",
"= c gray37",
"- c gray40",
"; c #6F6F6F",
": c #777777",
"> c #797979",
", c #838383",
"< c gray56",
"1 c gray59",
"2 c gray60",
"3 c gray65",
"4 c #ACACAC",
"5 c #B7B7B7",
"6 c gray74",
"7 c gray78",
"8 c #CDCDCD",
"9 c gray83",
"0 c #DDDDDD",
"q c gray88",
/* pixels */
"                                                       ",
"                                                       ",
"                                                       ",
"                                                       ",
"                                                       ",
"                                                       ",
"                                                       ",
"                                                       ",
"                                                       ",
"                                                       ",
"             .O#$$$$$$$$$$$$$$$$$$$$$$$$@o.            ",
"           .O=1790000000000000000000000061*o           ",
"           +<900000000000000000000000000009,X          ",
"          .*9093>;;;;;;;;;;;;;;;;;;;;;;>4908$.         ",
"          X1091@oooooooooooooooooooooooo@300<.         ",
"          o707*.                        .-007.         ",
"          O906$                          %900.         ",
"          O006$                          %900.         ",
"          O006$                          %900.         ",
"          O006$                          %900.         ",
"          O006$            .             %900.         ",
"          O006$          .&<:+.          %900.         ",
"          O006$         .=7002@.         %900.         ",
"          O006$        .$600002+.        %900.         ",
"          O006$        #20915001+.       %900.         ",
"          O006$       #200>+$500<O       %900.         ",
"          O006$      @190,+..%609,X      %900.         ",
"          O006$     @<903+.  .&609;X     %900.         ",
"          O006$    +<904%.    .*609-X    $900.         ",
"          O006$   +<904$.      .*709-X   %900.         ",
"          O006$  .-8q5%.        .*908@.  $900.         ",
"          O006$  .=75&.          .;96+.  $900.         ",
"          O006$   X@+.            .#+.   %900.         ",
"          O006$    ..              ..    %900.         ",
"          O006$                          %900.         ",
"          O006$                          %900.         ",
"          O006$                          %900.         ",
"          O006$                          %900.         ",
"          O006$                          %900.         ",
"          O906%                          &009.         ",
"          o309,.                        .1003.         ",
"          .-0081=&&&&&&&&&&&&&&&&&&&&&&=2900&.         ",
"           @4q00qqqqqqqqqqqqqqqqqqqqqqqq00q3X          ",
"           .#400000000000000000000000000002O.          ",
"             X&1677777777777777777777786<$.            ",
"                                                       ",
"                                                       ",
"                                                       ",
"                                                       ",
"                                                       ",
"                                                       ",
"                                                       ",
"                                                       ",
"                                                       ",
"                                                       "
};
