/* XPM */
static char *up_node_dark[] = {
/* columns rows colors chars-per-pixel */
"55 55 146 2 ",
"   c black",
".  c #010101",
"X  c #020202",
"o  c gray1",
"O  c #040404",
"+  c gray2",
"@  c #060606",
"#  c #070707",
"$  c gray3",
"%  c gray4",
"&  c #0B0B0B",
"*  c gray5",
"=  c #0E0E0E",
"-  c gray6",
";  c #111111",
":  c gray7",
">  c #151515",
",  c #161616",
"<  c gray9",
"1  c #181818",
"2  c #191919",
"3  c gray10",
"4  c #1B1B1B",
"5  c gray11",
"6  c #1D1D1D",
"7  c #1E1E1E",
"8  c #202020",
"9  c gray13",
"0  c #222222",
"q  c #232323",
"w  c gray14",
"e  c gray15",
"r  c #282828",
"t  c gray16",
"y  c #2A2A2A",
"u  c #2C2C2C",
"i  c #2D2D2D",
"p  c gray18",
"a  c #2F2F2F",
"s  c gray19",
"d  c #313131",
"f  c #343434",
"g  c #353535",
"h  c gray21",
"j  c #393939",
"k  c #3A3A3A",
"l  c gray23",
"z  c #3C3C3C",
"x  c #3E3E3E",
"c  c #3F3F3F",
"v  c gray25",
"b  c #414141",
"n  c #444444",
"m  c gray27",
"M  c gray28",
"N  c #484848",
"B  c gray29",
"V  c #4B4B4B",
"C  c #4C4C4C",
"Z  c gray30",
"A  c gray31",
"S  c #515151",
"D  c gray32",
"F  c #535353",
"G  c gray33",
"H  c #585858",
"J  c #5B5B5B",
"K  c #5D5D5D",
"L  c gray37",
"P  c #606060",
"I  c #626262",
"U  c #646464",
"Y  c gray40",
"T  c #6C6C6C",
"R  c gray43",
"E  c #6F6F6F",
"W  c #777777",
"Q  c #797979",
"!  c #7B7B7B",
"~  c #818181",
"^  c gray51",
"/  c #838383",
"(  c #898989",
")  c #8B8B8B",
"_  c gray55",
"`  c gray56",
"'  c gray57",
"]  c #929292",
"[  c #939393",
"{  c gray58",
"}  c #959595",
"|  c gray59",
" . c #979797",
".. c gray60",
"X. c #9B9B9B",
"o. c gray62",
"O. c #9F9F9F",
"+. c #A0A0A0",
"@. c #A2A2A2",
"#. c gray64",
"$. c #A5A5A5",
"%. c gray65",
"&. c #A7A7A7",
"*. c #A9A9A9",
"=. c gray67",
"-. c #ACACAC",
";. c #B2B2B2",
":. c gray70",
">. c #B6B6B6",
",. c #B7B7B7",
"<. c gray72",
"1. c #BBBBBB",
"2. c #BCBCBC",
"3. c gray74",
"4. c gray",
"5. c gray75",
"6. c #C0C0C0",
"7. c #C1C1C1",
"8. c gray76",
"9. c gray77",
"0. c gray78",
"q. c #C8C8C8",
"w. c #CACACA",
"e. c #CDCDCD",
"r. c #CECECE",
"t. c gray81",
"y. c #D0D0D0",
"u. c gray82",
"i. c #D2D2D2",
"p. c LightGray",
"a. c gray83",
"s. c #D5D5D5",
"d. c gray84",
"f. c #D7D7D7",
"g. c #D8D8D8",
"h. c gray85",
"j. c #DADADA",
"k. c gray86",
"l. c gainsboro",
"z. c #DDDDDD",
"x. c gray87",
"c. c #DFDFDF",
"v. c gray88",
"b. c #E1E1E1",
"n. c #E2E2E2",
"m. c gray89",
/* pixels */
"                                                                                                              ",
"                                                                                                              ",
"                                                                                                              ",
"                                                                                                              ",
"                                                                                                              ",
"                                                                                                              ",
"                                                                                                              ",
"                                                                                                              ",
"                                                                                                              ",
"                                                                                                              ",
"                            1 s c c c c c c c c c c c c c c c c c c c c c c c c t <                           ",
"                        1 L | 0.a.z.z.z.z.z.z.z.z.z.z.z.z.z.z.z.z.z.z.z.z.z.z.z.3.| G <                       ",
"                      9 ` a.z.z.z.z.z.z.z.z.z.z.z.z.z.z.z.z.z.z.z.z.z.z.z.z.z.z.z.z.a./ -                     ",
"                      G a.z.a.%.Q E E E E E E E E E E E E E E E E E E E E E E Q -.a.z.e.c                     ",
"                    - | z.a.| t < < < < < < < < < < < < < < < < < < < < < < < < t %.z.z.`                     ",
"                    < 0.z.0.G                                                     Y z.z.e.                    ",
"                    1 a.z.3.c                                                     n a.z.z.                    ",
"                    1 z.z.3.c                                                     n a.z.z.                    ",
"                    1 z.z.3.c                                                     n a.z.z.                    ",
"                    1 z.z.3.c                                                     n a.z.z.                    ",
"                    1 z.z.3.c                                                     n a.z.z.                    ",
"                    1 z.z.3.c                       C ` W 9                       n a.z.z.                    ",
"                    1 z.z.3.c                     L 0.z.z...t                     n a.z.z.                    ",
"                    1 z.z.3.c                   c 3.z.z.z.z...9                   n a.z.z.                    ",
"                    1 z.z.3.c                 s %.z.a.| >.z.z.| 9                 n a.z.z.                    ",
"                    1 z.z.3.c               s ..z.z.Q 9 c >.z.z.` 1               n a.z.z.                    ",
"                    1 z.z.3.c             t | a.z./ 9     n 3.z.a./ -             n a.z.z.                    ",
"                    1 z.z.3.c           t ` a.z.%.9         C 3.z.a.E -           n a.z.z.                    ",
"                    1 z.z.3.c         9 ` a.z.-.n             G 3.z.a.Y -         c a.z.z.                    ",
"                    1 z.z.3.c       9 ` a.z.-.c                 G 0.z.a.Y -       n a.z.z.                    ",
"                    1 z.z.3.c       Y e.v.>.n                     L a.z.e.t       c a.z.z.                    ",
"                    1 z.z.3.c       L 0.>.C                         E a.3.9       n a.z.z.                    ",
"                    1 z.z.3.c       - t 9                             s 9         n a.z.z.                    ",
"                    1 z.z.3.c                                                     n a.z.z.                    ",
"                    1 z.z.3.c                                                     n a.z.z.                    ",
"                    1 z.z.3.c                                                     n a.z.z.                    ",
"                    1 z.z.3.c                                                     n a.z.z.                    ",
"                    1 z.z.3.c                                                     n a.z.z.                    ",
"                    1 z.z.3.c                                                     n z.z.z.                    ",
"                    1 a.z.3.n                                                     C z.z.a.                    ",
"                    < %.z.a./                                                     | z.z.%.                    ",
"                      Y z.z.e.| L C C C C C C C C C C C C C C C C C C C C C C L ..a.z.z.C                     ",
"                      t -.v.z.z.v.v.v.v.v.v.v.v.v.v.v.v.v.v.v.v.v.v.v.v.v.v.v.v.z.z.v.%.-                     ",
"                        s -.z.z.z.z.z.z.z.z.z.z.z.z.z.z.z.z.z.z.z.z.z.z.z.z.z.z.z.z...1                       ",
"                          - C | 3.0.0.0.0.0.0.0.0.0.0.0.0.0.0.0.0.0.0.0.0.0.e.3.` c                           ",
"                                                                                                              ",
"                                                                                                              ",
"                                                                                                              ",
"                                                                                                              ",
"                                                                                                              ",
"                                                                                                              ",
"                                                                                                              ",
"                                                                                                              ",
"                                                                                                              ",
"                                                                                                              "
};
