/* XPM */
static char *zoom_out_dark[] = {
/* columns rows colors chars-per-pixel */
"55 55 30 1 ",
"  c None",
". c #010101",
"X c #0C0C0C",
"o c #111111",
"O c #181818",
"+ c #222222",
"@ c #2D2D2D",
"# c gray21",
"$ c #3A3A3A",
"% c #414141",
"& c #4C4C4C",
"* c #555555",
"= c #5A5A5A",
"- c gray40",
"; c #686868",
": c #767676",
"> c gray47",
", c gray51",
"< c gray54",
"1 c #929292",
"2 c #9B9B9B",
"3 c #A7A7A7",
"4 c #AAAAAA",
"5 c #B4B4B4",
"6 c gray74",
"7 c gray76",
"8 c #C8C8C8",
"9 c #D0D0D0",
"0 c gainsboro",
"q c gray88",
/* pixels */
"                                                       ",
"                                                       ",
"                                                       ",
"                                                       ",
"                                                       ",
"                                                       ",
"                                                       ",
"                                                       ",
"                                                       ",
"                   X#;1222>$o.                         ",
"                 @>69000000971$.                       ",
"               o:80000qqqqq00091+.                     ",
"              @4000073>;-:1600007&.                    ",
"             $60005-+X....XO&30009=.                   ",
"            @6009>O..       .X=8009&.                  ",
"           o3009*X            .#6007@.                 ",
"           :009*X              .#7001X                 ",
"          +700>X                .*900%.                ",
"          :006O.                 .2002X                ",
"         X50q;.                   %908@.               ",
"         +908@.                   X500*.               ",
"         *004X                     ,0q,.               ",
"         >0q<X    O&&*&&&&&&*@.    -0q2X               ",
"         20q>.   X300000000007+.   &0q3X               ",
"         20q>.   X3qqqqqqqqqq7+.   &0q3X               ",
"         ,0q<X    +&*********@.    -0q2X               ",
"         *0q4X    ............     ,0q,.               ",
"         @908+.                   X400=.               ",
"         X500-.                   $909@.               ",
"          :006O                  .1002X                ",
"          +700:.                 &900&.                ",
"          .:009*.               @6002X                 ",
"           o4008*.             #5008@.                 ",
"           .#7009:o          .*70009=.                 ",
"            .$70004=O.     o&29000009=.                ",
"             .#5000072>--:169000900009=.               ",
"              .O>8q0000000000q01$200009*.              ",
"               ..#,60qqqqqq081%X.o200009*              ",
"                 .XO%;,11<:&+X.   o200009&             ",
"                   ...XXXX...      o200009&            ",
"                                    o200009&           ",
"                                     X100009&          ",
"                                      X100009@         ",
"                                       X1q00q*         ",
"                                        X3q09@         ",
"                                         X18%          ",
"                                                       ",
"                                                       ",
"                                                       ",
"                                                       ",
"                                                       ",
"                                                       ",
"                                                       ",
"                                                       ",
"                                                       "
};
