/* XPM */
static char *zoom_in[] = {
/* columns rows colors chars-per-pixel */
"55 55 166 2 ",
"   c #191919",
".  c gray10",
"X  c #1B1B1B",
"o  c gray11",
"O  c #1D1D1D",
"+  c #1E1E1E",
"@  c gray12",
"#  c #202020",
"$  c gray13",
"%  c #222222",
"&  c #232323",
"*  c gray14",
"=  c #252525",
"-  c gray15",
";  c #272727",
":  c #282828",
">  c gray16",
",  c #2A2A2A",
"<  c #2C2C2C",
"1  c #2D2D2D",
"2  c gray18",
"3  c #2F2F2F",
"4  c #313131",
"5  c #323232",
"6  c gray20",
"7  c #353535",
"8  c gray21",
"9  c #373737",
"0  c gray22",
"q  c #393939",
"w  c #3A3A3A",
"e  c gray23",
"r  c #3C3C3C",
"t  c gray24",
"y  c #3E3E3E",
"u  c gray25",
"i  c gray26",
"p  c #434343",
"a  c gray27",
"s  c #464646",
"d  c #484848",
"f  c #494949",
"g  c #4B4B4B",
"h  c #4C4C4C",
"j  c gray30",
"k  c #4E4E4E",
"l  c gray31",
"z  c #505050",
"x  c gray32",
"c  c #535353",
"v  c #555555",
"b  c #565656",
"n  c #585858",
"m  c #5B5B5B",
"M  c gray36",
"N  c gray37",
"B  c #5F5F5F",
"V  c #606060",
"C  c gray38",
"Z  c gray39",
"A  c #656565",
"S  c gray40",
"D  c #676767",
"F  c #686868",
"G  c DimGray",
"H  c #6A6A6A",
"J  c #6D6D6D",
"K  c gray43",
"L  c #717171",
"P  c #727272",
"I  c gray45",
"U  c #747474",
"Y  c gray46",
"T  c gray47",
"R  c gray48",
"E  c #7C7C7C",
"W  c #7E7E7E",
"Q  c #818181",
"!  c #838383",
"~  c #848484",
"^  c gray52",
"/  c #868686",
"(  c gray53",
")  c #888888",
"_  c #898989",
"`  c gray55",
"'  c #8D8D8D",
"]  c #8E8E8E",
"[  c #959595",
"{  c #979797",
"}  c #989898",
"|  c gray60",
" . c #9A9A9A",
".. c #9B9B9B",
"X. c #9F9F9F",
"o. c #A0A0A0",
"O. c gray63",
"+. c gray64",
"@. c #A4A4A4",
"#. c #A5A5A5",
"$. c gray65",
"%. c #A9A9A9",
"&. c #AAAAAA",
"*. c gray67",
"=. c #ACACAC",
"-. c gray68",
";. c #AEAEAE",
":. c #AFAFAF",
">. c gray69",
",. c #B1B1B1",
"<. c #B2B2B2",
"1. c #B4B4B4",
"2. c #B7B7B7",
"3. c gray72",
"4. c gray73",
"5. c #BBBBBB",
"6. c #BCBCBC",
"7. c gray74",
"8. c gray75",
"9. c #C0C0C0",
"0. c gray77",
"q. c #C5C5C5",
"w. c #C6C6C6",
"e. c gray78",
"r. c #C8C8C8",
"t. c #CBCBCB",
"y. c #CECECE",
"u. c gray81",
"i. c #D0D0D0",
"p. c gray82",
"a. c #D2D2D2",
"s. c LightGray",
"d. c gray83",
"f. c #D5D5D5",
"g. c #D8D8D8",
"h. c gray85",
"j. c #DADADA",
"k. c gray86",
"l. c #DDDDDD",
"z. c gray87",
"x. c #DFDFDF",
"c. c #E1E1E1",
"v. c #E4E4E4",
"b. c #E6E6E6",
"n. c #E7E7E7",
"m. c gray91",
"M. c #E9E9E9",
"N. c gray92",
"B. c #ECECEC",
"V. c gray93",
"C. c #EFEFEF",
"Z. c gray94",
"A. c #F1F1F1",
"S. c gray95",
"D. c #F3F3F3",
"F. c #F4F4F4",
"G. c gray96",
"H. c #F6F6F6",
"J. c gray97",
"K. c #F8F8F8",
"L. c #F9F9F9",
"P. c gray98",
"I. c #FBFBFB",
"U. c #FDFDFD",
"Y. c #FEFEFE",
"T. c white",
/* pixels */
"T.T.T.T.T.T.T.T.T.T.T.T.T.T.T.T.T.T.T.T.T.T.T.T.T.T.T.T.T.T.T.T.T.T.T.T.T.T.T.T.T.T.T.T.T.T.T.T.T.T.T.T.T.T.T.",
"T.T.T.T.T.T.T.T.T.T.T.T.T.T.T.T.T.T.T.T.T.T.T.T.T.T.T.T.T.T.T.T.T.T.T.T.T.T.T.T.T.T.T.T.T.T.T.T.T.T.T.T.T.T.T.",
"T.T.T.T.T.T.T.T.T.T.T.T.T.T.T.T.T.T.T.T.T.T.T.T.T.T.T.T.T.T.T.T.T.T.T.T.T.T.T.T.T.T.T.T.T.T.T.T.T.T.T.T.T.T.T.",
"T.T.T.T.T.T.T.T.T.T.T.T.T.T.T.T.T.T.T.T.T.T.T.T.T.T.T.T.T.T.T.T.T.T.T.T.T.T.T.T.T.T.T.T.T.T.T.T.T.T.T.T.T.T.T.",
"T.T.T.T.T.T.T.T.T.T.T.T.T.T.T.T.T.T.T.T.T.T.T.T.T.T.T.T.T.T.T.T.T.T.T.T.T.T.T.T.T.T.T.T.T.T.T.T.T.T.T.T.T.T.T.",
"T.T.T.T.T.T.T.T.T.T.T.T.T.T.T.T.T.T.T.T.T.T.T.T.T.T.T.T.T.T.T.T.T.T.T.T.T.T.T.T.T.T.T.T.T.T.T.T.T.T.T.T.T.T.T.",
"T.T.T.T.T.T.T.T.T.T.T.T.T.T.T.T.T.T.T.T.T.T.T.T.T.T.T.T.T.T.T.T.T.T.T.T.T.T.T.T.T.T.T.T.T.T.T.T.T.T.T.T.T.T.T.",
"T.T.T.T.T.T.T.T.T.T.T.T.T.T.T.T.T.T.T.T.T.T.T.T.T.T.T.T.T.T.T.T.T.T.T.T.T.T.T.T.T.T.T.T.T.T.T.T.T.T.T.T.T.T.T.",
"T.T.T.T.T.T.T.T.T.T.T.T.T.T.T.T.T.T.T.T.T.T.T.T.T.T.T.T.T.T.T.T.T.T.T.T.T.T.T.T.T.T.T.T.T.T.T.T.T.T.T.T.T.T.T.",
"T.T.T.T.T.T.T.T.T.T.T.T.T.T.T.T.T.T.T.V.q.W f i i f Y 7.V.T.T.T.T.T.T.T.T.T.T.T.T.T.T.T.T.T.T.T.T.T.T.T.T.T.T.",
"T.T.T.T.T.T.T.T.T.T.T.T.T.T.T.T.T.a.W i 3 % % % % % % 3 y Y q.T.T.T.T.T.T.T.T.T.T.T.T.T.T.T.T.T.T.T.T.T.T.T.T.",
"T.T.T.T.T.T.T.T.T.T.T.T.T.T.T.V.) 4 % % % @ @ @ @ @ @ % % % 3 Y z.T.T.T.T.T.T.T.T.T.T.T.T.T.T.T.T.T.T.T.T.T.T.",
"T.T.T.T.T.T.T.T.T.T.T.T.T.T.a.z % % % % y D ~ X.X.) D y % @ % % i 7.T.T.T.T.T.T.T.T.T.T.T.T.T.T.T.T.T.T.T.T.T.",
"T.T.T.T.T.T.T.T.T.T.T.T.T.q.i % % % f #.b.D.T.T.T.T.D.b.>.n % % % 3 *.T.T.T.T.T.T.T.T.T.T.T.T.T.T.T.T.T.T.T.T.",
"T.T.T.T.T.T.T.T.T.T.T.T.a.i % % 3 ~ V.T.T.T.T.T.T.T.T.T.T.D.X.4 % % 3 7.T.T.T.T.T.T.T.T.T.T.T.T.T.T.T.T.T.T.T.",
"T.T.T.T.T.T.T.T.T.T.T.V.z % % 3 >.T.T.T.T.T.T.T.T.T.T.T.T.T.T.u.y % % 4 z.T.T.T.T.T.T.T.T.T.T.T.T.T.T.T.T.T.T.",
"T.T.T.T.T.T.T.T.T.T.T.) % % 3 >.T.T.T.T.T.T.T.T.T.T.T.T.T.T.T.T.a.4 % @ D T.T.T.T.T.T.T.T.T.T.T.T.T.T.T.T.T.T.",
"T.T.T.T.T.T.T.T.T.T.z.4 % @ ) T.T.T.T.T.T.T.T.D.V.T.T.T.T.T.T.T.T.*.% % % q.T.T.T.T.T.T.T.T.T.T.T.T.T.T.T.T.T.",
"T.T.T.T.T.T.T.T.T.T.~ % % i V.T.T.T.T.T.T.T.b.i 4 a.T.T.T.T.T.T.T.T.n @ @ D T.T.T.T.T.T.T.T.T.T.T.T.T.T.T.T.T.",
"T.T.T.T.T.T.T.T.T.D.f % @ X.T.T.T.T.T.T.T.T.7.@ @ X.T.T.T.T.T.T.T.T.7.% % 3 b.T.T.T.T.T.T.T.T.T.T.T.T.T.T.T.T.",
"T.T.T.T.T.T.T.T.T.a.3 % 4 z.T.T.T.T.T.T.T.T.7.% @ #.T.T.T.T.T.T.T.T.D.i % @ *.T.T.T.T.T.T.T.T.T.T.T.T.T.T.T.T.",
"T.T.T.T.T.T.T.T.T.X.% % z D.T.T.T.T.T.T.T.T.q.% @ #.T.T.T.T.T.T.T.T.T.Y @ @ ~ T.T.T.T.T.T.T.T.T.T.T.T.T.T.T.T.",
"T.T.T.T.T.T.T.T.T.H % @ Y D.T.T.T.T.z.*.*.*.~ % % Y *.*.*.a.T.T.T.T.T.X.@ @ H T.T.T.T.T.T.T.T.T.T.T.T.T.T.T.T.",
"T.T.T.T.T.T.T.T.T.f % @ ~ T.T.T.T.D.f @ @ @ % % % % @ @ @ 4 b.T.T.T.T.*.@ % n T.T.T.T.T.T.T.T.T.T.T.T.T.T.T.T.",
"T.T.T.T.T.T.T.T.T.z % @ ~ T.T.T.T.D.f @ @ @ % % % % @ @ @ y b.T.T.T.T.*.@ % n T.T.T.T.T.T.T.T.T.T.T.T.T.T.T.T.",
"T.T.T.T.T.T.T.T.T.H % @ Y D.T.T.T.T.b.7.7.7.) % % W 7.7.>.z.T.T.T.T.T.X.@ @ H T.T.T.T.T.T.T.T.T.T.T.T.T.T.T.T.",
"T.T.T.T.T.T.T.T.T.#.% % z D.T.T.T.T.T.T.T.T.q.% @ #.T.T.T.T.T.T.T.T.T.Y @ @ ~ T.T.T.T.T.T.T.T.T.T.T.T.T.T.T.T.",
"T.T.T.T.T.T.T.T.T.a.3 % 4 z.T.T.T.T.T.T.T.T.7.% @ #.T.T.T.T.T.T.T.T.D.i % @ >.T.T.T.T.T.T.T.T.T.T.T.T.T.T.T.T.",
"T.T.T.T.T.T.T.T.T.D.f % @ { T.T.T.T.T.T.T.T.7.@ @ X.T.T.T.T.T.T.T.T.7.% % 4 b.T.T.T.T.T.T.T.T.T.T.T.T.T.T.T.T.",
"T.T.T.T.T.T.T.T.T.T.) % % i b.T.T.T.T.T.T.T.b.f y a.T.T.T.T.T.T.T.T.n % @ H T.T.T.T.T.T.T.T.T.T.T.T.T.T.T.T.T.",
"T.T.T.T.T.T.T.T.T.T.z.y % @ ~ T.T.T.T.T.T.T.T.D.D.T.T.T.T.T.T.T.T.#.% % % q.T.T.T.T.T.T.T.T.T.T.T.T.T.T.T.T.T.",
"T.T.T.T.T.T.T.T.T.T.T.) % % % *.T.T.T.T.T.T.T.T.T.T.T.T.T.T.T.T.u.3 % @ H T.T.T.T.T.T.T.T.T.T.T.T.T.T.T.T.T.T.",
"T.T.T.T.T.T.T.T.T.T.T.D.z % % 3 *.T.T.T.T.T.T.T.T.T.T.T.T.T.T.u.y % % 4 b.T.T.T.T.T.T.T.T.T.T.T.T.T.T.T.T.T.T.",
"T.T.T.T.T.T.T.T.T.T.T.T.a.y % % % ~ D.T.T.T.T.T.T.T.T.T.T.T.X.3 % % % 3 *.T.T.T.T.T.T.T.T.T.T.T.T.T.T.T.T.T.T.",
"T.T.T.T.T.T.T.T.T.T.T.T.T.u.y % % @ f #.b.T.T.T.T.T.T.V.>.z @ % % % % % % *.T.T.T.T.T.T.T.T.T.T.T.T.T.T.T.T.T.",
"T.T.T.T.T.T.T.T.T.T.T.T.T.T.a.z @ % % @ 4 n ~ X.X.~ D y % % % @ 3 % % % % % *.T.T.T.T.T.T.T.T.T.T.T.T.T.T.T.T.",
"T.T.T.T.T.T.T.T.T.T.T.T.T.T.T.V.) 4 @ % % % @ @ @ @ @ % % @ % Y a.D @ % % % % *.T.T.T.T.T.T.T.T.T.T.T.T.T.T.T.",
"T.T.T.T.T.T.T.T.T.T.T.T.T.T.T.T.T.z.W y % @ @ @ @ @ @ % y Y u.T.T.D.D @ % % % % *.T.T.T.T.T.T.T.T.T.T.T.T.T.T.",
"T.T.T.T.T.T.T.T.T.T.T.T.T.T.T.T.T.T.T.V.q.X.W H H W { q.V.T.T.T.T.T.D.D @ % % % % *.T.T.T.T.T.T.T.T.T.T.T.T.T.",
"T.T.T.T.T.T.T.T.T.T.T.T.T.T.T.T.T.T.T.T.T.T.T.T.T.T.T.T.T.T.T.T.T.T.T.D.D @ % % % % *.T.T.T.T.T.T.T.T.T.T.T.T.",
"T.T.T.T.T.T.T.T.T.T.T.T.T.T.T.T.T.T.T.T.T.T.T.T.T.T.T.T.T.T.T.T.T.T.T.T.D.n @ % % % 3 >.T.T.T.T.T.T.T.T.T.T.T.",
"T.T.T.T.T.T.T.T.T.T.T.T.T.T.T.T.T.T.T.T.T.T.T.T.T.T.T.T.T.T.T.T.T.T.T.T.T.D.n @ % % % 3 >.T.T.T.T.T.T.T.T.T.T.",
"T.T.T.T.T.T.T.T.T.T.T.T.T.T.T.T.T.T.T.T.T.T.T.T.T.T.T.T.T.T.T.T.T.T.T.T.T.T.D.n @ % % % 3 z.T.T.T.T.T.T.T.T.T.",
"T.T.T.T.T.T.T.T.T.T.T.T.T.T.T.T.T.T.T.T.T.T.T.T.T.T.T.T.T.T.T.T.T.T.T.T.T.T.T.D.n @ % % @ *.T.T.T.T.T.T.T.T.T.",
"T.T.T.T.T.T.T.T.T.T.T.T.T.T.T.T.T.T.T.T.T.T.T.T.T.T.T.T.T.T.T.T.T.T.T.T.T.T.T.T.D.n @ % 3 z.T.T.T.T.T.T.T.T.T.",
"T.T.T.T.T.T.T.T.T.T.T.T.T.T.T.T.T.T.T.T.T.T.T.T.T.T.T.T.T.T.T.T.T.T.T.T.T.T.T.T.T.D.Y y 7.T.T.T.T.T.T.T.T.T.T.",
"T.T.T.T.T.T.T.T.T.T.T.T.T.T.T.T.T.T.T.T.T.T.T.T.T.T.T.T.T.T.T.T.T.T.T.T.T.T.T.T.T.T.T.T.T.T.T.T.T.T.T.T.T.T.T.",
"T.T.T.T.T.T.T.T.T.T.T.T.T.T.T.T.T.T.T.T.T.T.T.T.T.T.T.T.T.T.T.T.T.T.T.T.T.T.T.T.T.T.T.T.T.T.T.T.T.T.T.T.T.T.T.",
"T.T.T.T.T.T.T.T.T.T.T.T.T.T.T.T.T.T.T.T.T.T.T.T.T.T.T.T.T.T.T.T.T.T.T.T.T.T.T.T.T.T.T.T.T.T.T.T.T.T.T.T.T.T.T.",
"T.T.T.T.T.T.T.T.T.T.T.T.T.T.T.T.T.T.T.T.T.T.T.T.T.T.T.T.T.T.T.T.T.T.T.T.T.T.T.T.T.T.T.T.T.T.T.T.T.T.T.T.T.T.T.",
"T.T.T.T.T.T.T.T.T.T.T.T.T.T.T.T.T.T.T.T.T.T.T.T.T.T.T.T.T.T.T.T.T.T.T.T.T.T.T.T.T.T.T.T.T.T.T.T.T.T.T.T.T.T.T.",
"T.T.T.T.T.T.T.T.T.T.T.T.T.T.T.T.T.T.T.T.T.T.T.T.T.T.T.T.T.T.T.T.T.T.T.T.T.T.T.T.T.T.T.T.T.T.T.T.T.T.T.T.T.T.T.",
"T.T.T.T.T.T.T.T.T.T.T.T.T.T.T.T.T.T.T.T.T.T.T.T.T.T.T.T.T.T.T.T.T.T.T.T.T.T.T.T.T.T.T.T.T.T.T.T.T.T.T.T.T.T.T.",
"T.T.T.T.T.T.T.T.T.T.T.T.T.T.T.T.T.T.T.T.T.T.T.T.T.T.T.T.T.T.T.T.T.T.T.T.T.T.T.T.T.T.T.T.T.T.T.T.T.T.T.T.T.T.T.",
"T.T.T.T.T.T.T.T.T.T.T.T.T.T.T.T.T.T.T.T.T.T.T.T.T.T.T.T.T.T.T.T.T.T.T.T.T.T.T.T.T.T.T.T.T.T.T.T.T.T.T.T.T.T.T."
};
