/* XPM */
static char *zoom_in_dark[] = {
/* columns rows colors chars-per-pixel */
"55 55 30 1 ",
"  c None",
". c #040404",
"X c #0C0C0C",
"o c gray7",
"O c #191919",
"+ c gray13",
"@ c #2D2D2D",
"# c gray19",
"$ c #3A3A3A",
"% c gray26",
"& c gray31",
"* c gray33",
"= c #5A5A5A",
"- c #606060",
"; c #686868",
": c #777777",
"> c #7B7B7B",
", c #818181",
"< c gray54",
"1 c #959595",
"2 c #989898",
"3 c #A7A7A7",
"4 c #AFAFAF",
"5 c #B6B6B6",
"6 c gray74",
"7 c #C1C1C1",
"8 c #CECECE",
"9 c #D0D0D0",
"0 c #DDDDDD",
"q c gray88",
/* pixels */
"                                                       ",
"                                                       ",
"                                                       ",
"                                                       ",
"                                                       ",
"                                                       ",
"                                                       ",
"                                                       ",
"                                                       ",
"                   o$,5665<%o                          ",
"                 @,6900000097<$                        ",
"               o:80000qqqqq0009<+                      ",
"              @4000072>--:270q006%                     ",
"             $60005=OX....XO&30009*                    ",
"            @6009:o..       .X-8009%                   ",
"           o4009&.             #7008+                  ",
"           :009&.               @80q2.                 ",
"          +80q:.       Xo        *000$                 ",
"          :006o       O68@       .3qq2.                ",
"         X50q-.       %qq-        %009O                ",
"         @908+.       %0q=        X60q*                ",
"         -004X        $0q=         <qq>                ",
"         10q<X    +***>00<***@     -qq1                ",
"         50q>.   X5qqq0000qqq8O    *q03                ",
"         40q>.   X5qqq0000qqq7O    *q03                ",
"         10q<X    O%%%:00,%%&+     -qq1                ",
"         =004X        $0q=         <qq>                ",
"         @908+.       %0q=        X60q&                ",
"         X50q;.       %qq-        %008O                ",
"          :006O       O57@       .30q1                 ",
"          +70q>.       XX        =000$                 ",
"           :000*.               #90q1.                 ",
"           X4009*.             #7008O                  ",
"            @7000>X          .-90009*                  ",
"             #700q5=O      o&4q000000*                 ",
"              @4q00q83>-->27000q900000*                ",
"               o:8q000qqqqq00q0<@2q0000*               ",
"                 +,70qqqqqq07<#  X2q0000*              ",
"                   o$-,11,;$o     X2q0000*             ",
"                                   X2q0000*            ",
"                                    X3q0009&           ",
"                                     X3q0009&          ",
"                                      X3q0009+         ",
"                                       X3q00q*         ",
"                                        X3q09+         ",
"                                         X<7%          ",
"                                                       ",
"                                                       ",
"                                                       ",
"                                                       ",
"                                                       ",
"                                                       ",
"                                                       ",
"                                                       ",
"                                                       "
};
